<svg xmlns="http://www.w3.org/2000/svg" width="888" height="384" viewBox="0 0 296 128" role="img" aria-labelledby="title">
<title id="title">DevDash dashboard screen</title>
<rect width="296" height="128" fill="#fff"/>
<g shape-rendering="crispEdges">
<path fill="#111" d="M0 0h296v1H0zM0 1h1v1H0zM295 1h1v1H295zM0 2h1v1H0zM295 2h1v1H295zM0 3h1v1H0zM295 3h1v1H295zM0 4h1v1H0zM6 4h9v1H6zM19 4h3v1H19zM25 4h5v1H25zM31 4h1v1H31zM35 4h1v1H35zM37 4h3v1H37zM44 4h3v1H44zM50 4h4v1H50zM55 4h1v1H55zM59 4h1v1H59zM143 4h1v1H143zM164 4h1v1H164zM234 4h1v1H234zM242 4h1v1H242zM249 4h1v1H249zM258 4h5v1H258zM265 4h3v1H265zM278 4h5v1H278zM295 4h1v1H295zM0 5h1v1H0zM6 5h9v1H6zM19 5h1v1H19zM22 5h1v1H22zM25 5h1v1H25zM31 5h1v1H31zM35 5h1v1H35zM37 5h1v1H37zM40 5h1v1H40zM43 5h1v1H43zM47 5h1v1H47zM49 5h1v1H49zM55 5h1v1H55zM59 5h1v1H59zM130 5h6v1H130zM142 5h2v1H142zM156 5h1v1H156zM163 5h2v1H163zM230 5h5v1H230zM241 5h2v1H241zM248 5h2v1H248zM253 5h2v1H253zM261 5h1v1H261zM264 5h1v1H264zM268 5h1v1H268zM274 5h1v1H274zM278 5h1v1H278zM295 5h1v1H295zM0 6h1v1H0zM6 6h2v1H6zM13 6h2v1H13zM19 6h1v1H19zM23 6h1v1H23zM25 6h1v1H25zM31 6h1v1H31zM35 6h1v1H35zM37 6h1v1H37zM41 6h1v1H41zM43 6h1v1H43zM47 6h1v1H47zM49 6h1v1H49zM55 6h1v1H55zM59 6h1v1H59zM129 6h1v1H129zM136 6h1v1H136zM143 6h1v1H143zM157 6h1v1H157zM164 6h1v1H164zM229 6h1v1H229zM234 6h1v1H234zM242 6h1v1H242zM247 6h1v1H247zM249 6h1v1H249zM253 6h2v1H253zM260 6h1v1H260zM264 6h1v1H264zM268 6h1v1H268zM274 6h1v1H274zM278 6h4v1H278zM284 6h2v1H284zM287 6h1v1H287zM295 6h1v1H295zM0 7h1v1H0zM6 7h2v1H6zM9 7h3v1H9zM13 7h2v1H13zM19 7h1v1H19zM23 7h1v1H23zM25 7h4v1H25zM31 7h1v1H31zM35 7h1v1H35zM37 7h1v1H37zM41 7h1v1H41zM43 7h1v1H43zM47 7h1v1H47zM50 7h3v1H50zM55 7h5v1H55zM143 7h1v1H143zM150 7h9v1H150zM164 7h1v1H164zM229 7h1v1H229zM242 7h1v1H242zM246 7h1v1H246zM249 7h1v1H249zM261 7h1v1H261zM265 7h3v1H265zM272 7h5v1H272zM282 7h1v1H282zM284 7h1v1H284zM286 7h1v1H286zM288 7h1v1H288zM295 7h1v1H295zM0 8h1v1H0zM6 8h2v1H6zM9 8h3v1H9zM13 8h2v1H13zM19 8h1v1H19zM23 8h1v1H23zM25 8h1v1H25zM31 8h1v1H31zM35 8h1v1H35zM37 8h1v1H37zM41 8h1v1H41zM43 8h5v1H43zM53 8h1v1H53zM55 8h1v1H55zM59 8h1v1H59zM130 8h6v1H130zM143 8h1v1H143zM157 8h1v1H157zM164 8h1v1H164zM229 8h1v1H229zM235 8h1v1H235zM242 8h1v1H242zM246 8h5v1H246zM253 8h2v1H253zM262 8h1v1H262zM264 8h1v1H264zM268 8h1v1H268zM274 8h1v1H274zM282 8h1v1H282zM284 8h1v1H284zM286 8h1v1H286zM288 8h1v1H288zM295 8h1v1H295zM0 9h1v1H0zM6 9h2v1H6zM9 9h3v1H9zM13 9h2v1H13zM19 9h1v1H19zM22 9h1v1H22zM25 9h1v1H25zM32 9h1v1H32zM34 9h1v1H34zM37 9h1v1H37zM40 9h1v1H40zM43 9h1v1H43zM47 9h1v1H47zM53 9h1v1H53zM55 9h1v1H55zM59 9h1v1H59zM143 9h1v1H143zM156 9h1v1H156zM164 9h1v1H164zM235 9h1v1H235zM242 9h1v1H242zM249 9h1v1H249zM253 9h2v1H253zM258 9h1v1H258zM262 9h1v1H262zM264 9h1v1H264zM268 9h1v1H268zM274 9h1v1H274zM278 9h1v1H278zM282 9h1v1H282zM284 9h1v1H284zM288 9h1v1H288zM295 9h1v1H295zM0 10h1v1H0zM6 10h2v1H6zM13 10h2v1H13zM19 10h3v1H19zM25 10h5v1H25zM33 10h1v1H33zM37 10h3v1H37zM43 10h1v1H43zM47 10h1v1H47zM49 10h4v1H49zM55 10h1v1H55zM59 10h1v1H59zM132 10h2v1H132zM142 10h3v1H142zM163 10h3v1H163zM230 10h1v1H230zM235 10h1v1H235zM241 10h3v1H241zM249 10h1v1H249zM259 10h3v1H259zM265 10h3v1H265zM279 10h3v1H279zM284 10h1v1H284zM288 10h1v1H288zM295 10h1v1H295zM0 11h1v1H0zM6 11h9v1H6zM230 11h5v1H230zM295 11h1v1H295zM0 12h1v1H0zM6 12h9v1H6zM132 12h2v1H132zM230 12h1v1H230zM295 12h1v1H295zM0 13h1v1H0zM295 13h1v1H295zM0 14h294v1H0zM295 14h1v1H295zM0 15h1v1H0zM295 15h1v1H295zM0 16h1v1H0zM295 16h1v1H295zM0 17h1v1H0zM295 17h1v1H295zM0 18h1v1H0zM41 18h4v1H41zM98 18h2v1H98zM104 18h2v1H104zM231 18h6v1H231zM295 18h1v1H295zM0 19h1v1H0zM7 19h6v1H7zM40 19h6v1H40zM98 19h2v1H98zM104 19h2v1H104zM152 19h8v1H152zM230 19h8v1H230zM295 19h1v1H295zM0 20h1v1H0zM6 20h8v1H6zM20 20h3v1H20zM25 20h1v1H25zM29 20h1v1H29zM39 20h2v1H39zM45 20h2v1H45zM53 20h3v1H53zM59 20h4v1H59zM65 20h4v1H65zM84 20h1v1H84zM89 20h3v1H89zM98 20h1v1H98zM105 20h1v1H105zM111 20h4v1H111zM117 20h4v1H117zM145 20h1v1H145zM151 20h1v1H151zM160 20h1v1H160zM166 20h3v1H166zM171 20h1v1H171zM175 20h1v1H175zM177 20h4v1H177zM184 20h3v1H184zM189 20h1v1H189zM193 20h1v1H193zM222 20h1v1H222zM230 20h8v1H230zM243 20h3v1H243zM249 20h5v1H249zM255 20h4v1H255zM286 20h3v1H286zM295 20h1v1H295zM0 21h1v1H0zM6 21h8v1H6zM19 21h1v1H19zM23 21h1v1H23zM25 21h1v1H25zM29 21h1v1H29zM39 21h2v1H39zM45 21h2v1H45zM54 21h1v1H54zM58 21h1v1H58zM64 21h1v1H64zM83 21h2v1H83zM88 21h1v1H88zM92 21h1v1H92zM98 21h1v1H98zM105 21h1v1H105zM111 21h1v1H111zM115 21h1v1H115zM117 21h1v1H117zM121 21h1v1H121zM144 21h2v1H144zM151 21h1v1H151zM160 21h1v1H160zM167 21h1v1H167zM171 21h1v1H171zM175 21h1v1H175zM177 21h1v1H177zM181 21h1v1H181zM183 21h1v1H183zM187 21h1v1H187zM189 21h1v1H189zM193 21h1v1H193zM221 21h2v1H221zM230 21h8v1H230zM243 21h1v1H243zM246 21h1v1H246zM249 21h1v1H249zM255 21h1v1H255zM259 21h1v1H259zM285 21h1v1H285zM289 21h1v1H289zM295 21h1v1H295zM0 22h1v1H0zM6 22h2v1H6zM9 22h2v1H9zM12 22h2v1H12zM19 22h1v1H19zM25 22h1v1H25zM29 22h1v1H29zM39 22h2v1H39zM42 22h2v1H42zM45 22h2v1H45zM54 22h1v1H54zM58 22h1v1H58zM64 22h1v1H64zM84 22h1v1H84zM92 22h1v1H92zM98 22h1v1H98zM101 22h1v1H101zM105 22h1v1H105zM111 22h1v1H111zM115 22h1v1H115zM117 22h1v1H117zM121 22h1v1H121zM143 22h1v1H143zM145 22h1v1H145zM151 22h1v1H151zM160 22h1v1H160zM167 22h1v1H167zM171 22h2v1H171zM175 22h1v1H175zM177 22h1v1H177zM181 22h1v1H181zM183 22h1v1H183zM187 22h1v1H187zM190 22h1v1H190zM192 22h1v1H192zM222 22h1v1H222zM230 22h8v1H230zM243 22h1v1H243zM247 22h1v1H247zM249 22h1v1H249zM255 22h1v1H255zM259 22h1v1H259zM285 22h1v1H285zM288 22h2v1H288zM295 22h1v1H295zM0 23h1v1H0zM6 23h8v1H6zM19 23h1v1H19zM21 23h3v1H21zM25 23h5v1H25zM39 23h2v1H39zM42 23h2v1H42zM45 23h2v1H45zM54 23h1v1H54zM59 23h3v1H59zM65 23h3v1H65zM84 23h1v1H84zM91 23h1v1H91zM98 23h1v1H98zM101 23h4v1H101zM111 23h4v1H111zM117 23h4v1H117zM142 23h1v1H142zM145 23h1v1H145zM151 23h1v1H151zM153 23h2v1H153zM157 23h2v1H157zM160 23h1v1H160zM167 23h1v1H167zM171 23h1v1H171zM173 23h1v1H173zM175 23h1v1H175zM177 23h4v1H177zM183 23h1v1H183zM187 23h1v1H187zM191 23h1v1H191zM222 23h1v1H222zM230 23h8v1H230zM243 23h1v1H243zM247 23h1v1H247zM249 23h4v1H249zM255 23h4v1H255zM285 23h1v1H285zM287 23h1v1H287zM289 23h1v1H289zM295 23h1v1H295zM0 24h1v1H0zM7 24h6v1H7zM19 24h1v1H19zM23 24h1v1H23zM25 24h1v1H25zM29 24h1v1H29zM39 24h2v1H39zM45 24h2v1H45zM54 24h1v1H54zM62 24h1v1H62zM68 24h1v1H68zM84 24h1v1H84zM90 24h1v1H90zM98 24h1v1H98zM111 24h1v1H111zM117 24h1v1H117zM119 24h1v1H119zM142 24h5v1H142zM151 24h1v1H151zM155 24h2v1H155zM160 24h1v1H160zM167 24h1v1H167zM171 24h1v1H171zM174 24h2v1H174zM177 24h1v1H177zM181 24h1v1H181zM183 24h1v1H183zM187 24h1v1H187zM190 24h1v1H190zM192 24h1v1H192zM222 24h1v1H222zM231 24h6v1H231zM243 24h1v1H243zM247 24h1v1H247zM249 24h1v1H249zM255 24h1v1H255zM285 24h2v1H285zM289 24h1v1H289zM295 24h1v1H295zM0 25h1v1H0zM7 25h6v1H7zM19 25h1v1H19zM23 25h1v1H23zM25 25h1v1H25zM29 25h1v1H29zM39 25h2v1H39zM45 25h2v1H45zM54 25h1v1H54zM62 25h1v1H62zM68 25h1v1H68zM84 25h1v1H84zM89 25h1v1H89zM98 25h1v1H98zM111 25h1v1H111zM117 25h1v1H117zM120 25h1v1H120zM145 25h1v1H145zM151 25h10v1H151zM167 25h1v1H167zM171 25h1v1H171zM175 25h1v1H175zM177 25h1v1H177zM181 25h1v1H181zM183 25h1v1H183zM187 25h1v1H187zM189 25h1v1H189zM193 25h1v1H193zM222 25h1v1H222zM232 25h4v1H232zM243 25h1v1H243zM246 25h1v1H246zM249 25h1v1H249zM255 25h1v1H255zM285 25h1v1H285zM289 25h1v1H289zM295 25h1v1H295zM0 26h1v1H0zM8 26h1v1H8zM11 26h1v1H11zM20 26h4v1H20zM25 26h1v1H25zM29 26h1v1H29zM40 26h6v1H40zM53 26h3v1H53zM58 26h4v1H58zM64 26h4v1H64zM83 26h3v1H83zM88 26h5v1H88zM98 26h2v1H98zM111 26h1v1H111zM117 26h1v1H117zM121 26h1v1H121zM145 26h1v1H145zM166 26h3v1H166zM171 26h1v1H171zM175 26h1v1H175zM177 26h4v1H177zM184 26h3v1H184zM189 26h1v1H189zM193 26h1v1H193zM221 26h3v1H221zM233 26h2v1H233zM243 26h3v1H243zM249 26h5v1H249zM255 26h1v1H255zM286 26h3v1H286zM295 26h1v1H295zM0 27h1v1H0zM8 27h1v1H8zM11 27h1v1H11zM41 27h4v1H41zM98 27h2v1H98zM295 27h1v1H295zM0 28h1v1H0zM295 28h1v1H295zM0 29h1v1H0zM295 29h1v1H295zM0 30h1v1H0zM295 30h1v1H295zM0 31h1v1H0zM295 31h1v1H295zM0 32h1v1H0zM2 32h292v1H2zM295 32h1v1H295zM0 33h1v1H0zM295 33h1v1H295zM0 34h1v1H0zM295 34h1v1H295zM0 35h1v1H0zM148 35h1v1H148zM295 35h1v1H295zM0 36h1v1H0zM148 36h1v1H148zM295 36h1v1H295zM0 37h1v1H0zM6 37h1v1H6zM9 37h1v1H9zM12 37h1v1H12zM18 37h3v1H18zM23 37h1v1H23zM30 37h3v1H30zM35 37h1v1H35zM39 37h1v1H39zM41 37h3v1H41zM47 37h5v1H47zM85 37h3v1H85zM90 37h1v1H90zM98 37h1v1H98zM104 37h2v1H104zM114 37h5v1H114zM124 37h1v1H124zM128 37h1v1H128zM133 37h3v1H133zM138 37h1v1H138zM148 37h1v1H148zM158 37h3v1H158zM168 37h3v1H168zM174 37h3v1H174zM179 37h3v1H179zM185 37h5v1H185zM191 37h1v1H191zM195 37h1v1H195zM236 37h1v1H236zM240 37h1v1H240zM247 37h3v1H247zM253 37h3v1H253zM264 37h5v1H264zM274 37h1v1H274zM278 37h1v1H278zM282 37h5v1H282zM288 37h1v1H288zM295 37h1v1H295zM0 38h1v1H0zM7 38h1v1H7zM9 38h1v1H9zM11 38h1v1H11zM17 38h1v1H17zM21 38h1v1H21zM23 38h1v1H23zM29 38h1v1H29zM33 38h1v1H33zM35 38h1v1H35zM39 38h1v1H39zM41 38h1v1H41zM44 38h1v1H44zM47 38h1v1H47zM84 38h1v1H84zM88 38h1v1H88zM90 38h1v1H90zM97 38h2v1H97zM103 38h1v1H103zM112 38h1v1H112zM117 38h1v1H117zM124 38h1v1H124zM127 38h2v1H127zM132 38h1v1H132zM136 38h1v1H136zM138 38h1v1H138zM148 38h1v1H148zM157 38h1v1H157zM161 38h1v1H161zM167 38h1v1H167zM171 38h1v1H171zM173 38h1v1H173zM177 38h1v1H177zM179 38h1v1H179zM182 38h1v1H182zM185 38h1v1H185zM191 38h1v1H191zM195 38h1v1H195zM235 38h2v1H235zM240 38h1v1H240zM246 38h1v1H246zM250 38h1v1H250zM252 38h1v1H252zM256 38h1v1H256zM262 38h1v1H262zM267 38h1v1H267zM274 38h1v1H274zM277 38h2v1H277zM282 38h1v1H282zM288 38h1v1H288zM295 38h1v1H295zM0 39h1v1H0zM8 39h3v1H8zM17 39h1v1H17zM23 39h1v1H23zM29 39h1v1H29zM33 39h1v1H33zM35 39h1v1H35zM39 39h1v1H39zM41 39h1v1H41zM45 39h1v1H45zM47 39h1v1H47zM88 39h1v1H88zM90 39h1v1H90zM92 39h2v1H92zM98 39h1v1H98zM102 39h1v1H102zM111 39h1v1H111zM116 39h1v1H116zM121 39h2v1H121zM124 39h1v1H124zM128 39h1v1H128zM136 39h1v1H136zM138 39h1v1H138zM140 39h2v1H140zM148 39h1v1H148zM156 39h1v1H156zM162 39h1v1H162zM167 39h1v1H167zM173 39h1v1H173zM177 39h1v1H177zM179 39h1v1H179zM183 39h1v1H183zM185 39h1v1H185zM192 39h1v1H192zM194 39h1v1H194zM236 39h1v1H236zM240 39h1v1H240zM242 39h2v1H242zM246 39h1v1H246zM249 39h2v1H249zM252 39h1v1H252zM255 39h2v1H255zM261 39h1v1H261zM266 39h1v1H266zM271 39h2v1H271zM274 39h1v1H274zM278 39h1v1H278zM282 39h4v1H282zM288 39h1v1H288zM290 39h2v1H290zM295 39h1v1H295zM0 40h1v1H0zM6 40h3v1H6zM10 40h3v1H10zM17 40h1v1H17zM23 40h1v1H23zM29 40h1v1H29zM33 40h1v1H33zM35 40h1v1H35zM39 40h1v1H39zM41 40h1v1H41zM45 40h1v1H45zM47 40h4v1H47zM87 40h1v1H87zM90 40h2v1H90zM94 40h1v1H94zM98 40h1v1H98zM102 40h4v1H102zM110 40h1v1H110zM117 40h1v1H117zM120 40h1v1H120zM123 40h2v1H123zM128 40h1v1H128zM135 40h1v1H135zM138 40h2v1H138zM142 40h1v1H142zM148 40h1v1H148zM156 40h1v1H156zM162 40h1v1H162zM167 40h1v1H167zM173 40h1v1H173zM177 40h1v1H177zM179 40h1v1H179zM183 40h1v1H183zM185 40h4v1H185zM193 40h1v1H193zM236 40h1v1H236zM240 40h2v1H240zM244 40h1v1H244zM246 40h1v1H246zM248 40h1v1H248zM250 40h1v1H250zM252 40h1v1H252zM254 40h1v1H254zM256 40h1v1H256zM260 40h1v1H260zM267 40h1v1H267zM270 40h1v1H270zM273 40h2v1H273zM278 40h1v1H278zM286 40h1v1H286zM288 40h2v1H288zM292 40h1v1H292zM295 40h1v1H295zM0 41h1v1H0zM8 41h3v1H8zM17 41h1v1H17zM23 41h1v1H23zM29 41h5v1H29zM35 41h1v1H35zM39 41h1v1H39zM41 41h1v1H41zM45 41h1v1H45zM47 41h1v1H47zM86 41h1v1H86zM90 41h1v1H90zM94 41h1v1H94zM98 41h1v1H98zM102 41h1v1H102zM106 41h1v1H106zM109 41h1v1H109zM118 41h1v1H118zM120 41h1v1H120zM124 41h1v1H124zM128 41h1v1H128zM134 41h1v1H134zM138 41h1v1H138zM142 41h1v1H142zM148 41h1v1H148zM156 41h1v1H156zM162 41h1v1H162zM167 41h1v1H167zM173 41h1v1H173zM177 41h1v1H177zM179 41h1v1H179zM183 41h1v1H183zM185 41h1v1H185zM192 41h1v1H192zM194 41h1v1H194zM236 41h1v1H236zM240 41h1v1H240zM244 41h1v1H244zM246 41h2v1H246zM250 41h1v1H250zM252 41h2v1H252zM256 41h1v1H256zM259 41h1v1H259zM268 41h1v1H268zM270 41h1v1H270zM274 41h1v1H274zM278 41h1v1H278zM286 41h1v1H286zM288 41h1v1H288zM292 41h1v1H292zM295 41h1v1H295zM0 42h1v1H0zM7 42h1v1H7zM9 42h1v1H9zM11 42h1v1H11zM17 42h1v1H17zM21 42h1v1H21zM23 42h1v1H23zM29 42h1v1H29zM33 42h1v1H33zM35 42h1v1H35zM39 42h1v1H39zM41 42h1v1H41zM44 42h1v1H44zM47 42h1v1H47zM85 42h1v1H85zM90 42h1v1H90zM94 42h1v1H94zM98 42h1v1H98zM102 42h1v1H102zM106 42h1v1H106zM108 42h1v1H108zM114 42h1v1H114zM118 42h1v1H118zM120 42h1v1H120zM124 42h1v1H124zM128 42h1v1H128zM133 42h1v1H133zM138 42h1v1H138zM142 42h1v1H142zM148 42h1v1H148zM157 42h1v1H157zM161 42h1v1H161zM167 42h1v1H167zM171 42h1v1H171zM173 42h1v1H173zM177 42h1v1H177zM179 42h1v1H179zM182 42h1v1H182zM185 42h1v1H185zM191 42h1v1H191zM195 42h1v1H195zM236 42h1v1H236zM240 42h1v1H240zM244 42h1v1H244zM246 42h1v1H246zM250 42h1v1H250zM252 42h1v1H252zM256 42h1v1H256zM258 42h1v1H258zM264 42h1v1H264zM268 42h1v1H268zM270 42h1v1H270zM274 42h1v1H274zM278 42h1v1H278zM282 42h1v1H282zM286 42h1v1H286zM288 42h1v1H288zM292 42h1v1H292zM295 42h1v1H295zM0 43h1v1H0zM6 43h1v1H6zM9 43h1v1H9zM12 43h1v1H12zM18 43h3v1H18zM23 43h5v1H23zM29 43h1v1H29zM33 43h1v1H33zM36 43h3v1H36zM41 43h3v1H41zM47 43h5v1H47zM84 43h5v1H84zM90 43h1v1H90zM94 43h1v1H94zM97 43h3v1H97zM103 43h3v1H103zM115 43h3v1H115zM121 43h4v1H121zM127 43h3v1H127zM132 43h5v1H132zM138 43h1v1H138zM142 43h1v1H142zM148 43h1v1H148zM158 43h3v1H158zM168 43h3v1H168zM174 43h3v1H174zM179 43h3v1H179zM185 43h5v1H185zM191 43h1v1H191zM195 43h1v1H195zM235 43h3v1H235zM240 43h1v1H240zM244 43h1v1H244zM247 43h3v1H247zM253 43h3v1H253zM265 43h3v1H265zM271 43h4v1H271zM277 43h3v1H277zM283 43h3v1H283zM288 43h1v1H288zM292 43h1v1H292zM295 43h1v1H295zM0 44h1v1H0zM148 44h1v1H148zM295 44h1v1H295zM0 45h1v1H0zM148 45h1v1H148zM295 45h1v1H295zM0 46h1v1H0zM148 46h1v1H148zM295 46h1v1H295zM0 47h1v1H0zM148 47h1v1H148zM295 47h1v1H295zM0 48h1v1H0zM148 48h1v1H148zM295 48h1v1H295zM0 49h1v1H0zM148 49h1v1H148zM295 49h1v1H295zM0 50h1v1H0zM6 50h5v1H6zM12 50h1v1H12zM16 50h1v1H16zM21 50h3v1H21zM25 50h3v1H25zM29 50h3v1H29zM33 50h3v1H33zM37 50h3v1H37zM41 50h3v1H41zM45 50h3v1H45zM49 50h3v1H49zM53 50h3v1H53zM57 50h3v1H57zM61 50h3v1H61zM65 50h3v1H65zM69 50h3v1H69zM73 50h3v1H73zM77 50h3v1H77zM81 50h3v1H81zM85 50h3v1H85zM89 50h3v1H89zM93 50h3v1H93zM97 50h3v1H97zM101 50h3v1H101zM105 50h3v1H105zM109 50h3v1H109zM113 50h3v1H113zM133 50h3v1H133zM138 50h2v1H138zM148 50h1v1H148zM156 50h5v1H156zM162 50h1v1H162zM166 50h1v1H166zM171 50h3v1H171zM175 50h3v1H175zM179 50h3v1H179zM183 50h3v1H183zM187 50h3v1H187zM191 50h3v1H191zM195 50h3v1H195zM199 50h3v1H199zM203 50h3v1H203zM207 50h3v1H207zM211 50h3v1H211zM215 50h3v1H215zM219 50h3v1H219zM223 50h3v1H223zM227 50h3v1H227zM231 50h3v1H231zM235 50h3v1H235zM239 50h3v1H239zM243 50h3v1H243zM247 50h3v1H247zM251 50h3v1H251zM255 50h3v1H255zM259 50h3v1H259zM263 50h3v1H263zM276 50h5v1H276zM283 50h3v1H283zM288 50h2v1H288zM295 50h1v1H295zM0 51h1v1H0zM6 51h1v1H6zM12 51h1v1H12zM16 51h1v1H16zM21 51h3v1H21zM25 51h3v1H25zM29 51h1v1H29zM31 51h1v1H31zM33 51h1v1H33zM35 51h1v1H35zM37 51h1v1H37zM39 51h1v1H39zM41 51h1v1H41zM43 51h1v1H43zM45 51h1v1H45zM47 51h1v1H47zM49 51h1v1H49zM51 51h1v1H51zM53 51h1v1H53zM55 51h1v1H55zM57 51h1v1H57zM59 51h1v1H59zM61 51h1v1H61zM63 51h1v1H63zM65 51h1v1H65zM67 51h1v1H67zM69 51h1v1H69zM71 51h1v1H71zM73 51h1v1H73zM75 51h1v1H75zM77 51h1v1H77zM79 51h1v1H79zM81 51h1v1H81zM83 51h1v1H83zM85 51h1v1H85zM87 51h1v1H87zM89 51h1v1H89zM91 51h1v1H91zM93 51h1v1H93zM95 51h1v1H95zM97 51h1v1H97zM99 51h1v1H99zM101 51h1v1H101zM103 51h1v1H103zM105 51h1v1H105zM107 51h1v1H107zM109 51h1v1H109zM111 51h1v1H111zM113 51h1v1H113zM115 51h1v1H115zM132 51h1v1H132zM136 51h1v1H136zM138 51h2v1H138zM142 51h1v1H142zM148 51h1v1H148zM156 51h1v1H156zM162 51h1v1H162zM166 51h1v1H166zM171 51h3v1H171zM175 51h3v1H175zM179 51h3v1H179zM183 51h3v1H183zM187 51h3v1H187zM191 51h3v1H191zM195 51h3v1H195zM199 51h3v1H199zM203 51h1v1H203zM205 51h1v1H205zM207 51h1v1H207zM209 51h1v1H209zM211 51h1v1H211zM213 51h1v1H213zM215 51h1v1H215zM217 51h1v1H217zM219 51h1v1H219zM221 51h1v1H221zM223 51h1v1H223zM225 51h1v1H225zM227 51h1v1H227zM229 51h1v1H229zM231 51h1v1H231zM233 51h1v1H233zM235 51h1v1H235zM237 51h1v1H237zM239 51h1v1H239zM241 51h1v1H241zM243 51h1v1H243zM245 51h1v1H245zM247 51h1v1H247zM249 51h1v1H249zM251 51h1v1H251zM253 51h1v1H253zM255 51h1v1H255zM257 51h1v1H257zM259 51h1v1H259zM261 51h1v1H261zM263 51h1v1H263zM265 51h1v1H265zM279 51h1v1H279zM282 51h1v1H282zM286 51h1v1H286zM288 51h2v1H288zM292 51h1v1H292zM295 51h1v1H295zM0 52h1v1H0zM6 52h4v1H6zM12 52h1v1H12zM16 52h1v1H16zM21 52h3v1H21zM25 52h3v1H25zM29 52h1v1H29zM31 52h1v1H31zM33 52h1v1H33zM35 52h1v1H35zM37 52h1v1H37zM39 52h1v1H39zM41 52h1v1H41zM43 52h1v1H43zM45 52h1v1H45zM47 52h1v1H47zM49 52h1v1H49zM51 52h1v1H51zM53 52h1v1H53zM55 52h1v1H55zM57 52h1v1H57zM59 52h1v1H59zM61 52h1v1H61zM63 52h1v1H63zM65 52h1v1H65zM67 52h1v1H67zM69 52h1v1H69zM71 52h1v1H71zM73 52h1v1H73zM75 52h1v1H75zM77 52h1v1H77zM79 52h1v1H79zM81 52h1v1H81zM83 52h1v1H83zM85 52h1v1H85zM87 52h1v1H87zM89 52h1v1H89zM91 52h1v1H91zM93 52h1v1H93zM95 52h1v1H95zM97 52h1v1H97zM99 52h1v1H99zM101 52h1v1H101zM103 52h1v1H103zM105 52h1v1H105zM107 52h1v1H107zM109 52h1v1H109zM111 52h1v1H111zM113 52h1v1H113zM115 52h1v1H115zM132 52h1v1H132zM136 52h1v1H136zM141 52h1v1H141zM148 52h1v1H148zM156 52h4v1H156zM162 52h1v1H162zM166 52h1v1H166zM171 52h3v1H171zM175 52h3v1H175zM179 52h3v1H179zM183 52h3v1H183zM187 52h3v1H187zM191 52h3v1H191zM195 52h3v1H195zM199 52h3v1H199zM203 52h1v1H203zM205 52h1v1H205zM207 52h1v1H207zM209 52h1v1H209zM211 52h1v1H211zM213 52h1v1H213zM215 52h1v1H215zM217 52h1v1H217zM219 52h1v1H219zM221 52h1v1H221zM223 52h1v1H223zM225 52h1v1H225zM227 52h1v1H227zM229 52h1v1H229zM231 52h1v1H231zM233 52h1v1H233zM235 52h1v1H235zM237 52h1v1H237zM239 52h1v1H239zM241 52h1v1H241zM243 52h1v1H243zM245 52h1v1H245zM247 52h1v1H247zM249 52h1v1H249zM251 52h1v1H251zM253 52h1v1H253zM255 52h1v1H255zM257 52h1v1H257zM259 52h1v1H259zM261 52h1v1H261zM263 52h1v1H263zM265 52h1v1H265zM278 52h1v1H278zM286 52h1v1H286zM291 52h1v1H291zM295 52h1v1H295zM0 53h1v1H0zM10 53h1v1H10zM12 53h5v1H12zM21 53h3v1H21zM25 53h3v1H25zM29 53h1v1H29zM31 53h1v1H31zM33 53h1v1H33zM35 53h1v1H35zM37 53h1v1H37zM39 53h1v1H39zM41 53h1v1H41zM43 53h1v1H43zM45 53h1v1H45zM47 53h1v1H47zM49 53h1v1H49zM51 53h1v1H51zM53 53h1v1H53zM55 53h1v1H55zM57 53h1v1H57zM59 53h1v1H59zM61 53h1v1H61zM63 53h1v1H63zM65 53h1v1H65zM67 53h1v1H67zM69 53h1v1H69zM71 53h1v1H71zM73 53h1v1H73zM75 53h1v1H75zM77 53h1v1H77zM79 53h1v1H79zM81 53h1v1H81zM83 53h1v1H83zM85 53h1v1H85zM87 53h1v1H87zM89 53h1v1H89zM91 53h1v1H91zM93 53h1v1H93zM95 53h1v1H95zM97 53h1v1H97zM99 53h1v1H99zM101 53h1v1H101zM103 53h1v1H103zM105 53h1v1H105zM107 53h1v1H107zM109 53h1v1H109zM111 53h1v1H111zM113 53h1v1H113zM115 53h1v1H115zM133 53h4v1H133zM140 53h1v1H140zM148 53h1v1H148zM160 53h1v1H160zM162 53h5v1H162zM171 53h3v1H171zM175 53h3v1H175zM179 53h3v1H179zM183 53h3v1H183zM187 53h3v1H187zM191 53h3v1H191zM195 53h3v1H195zM199 53h3v1H199zM203 53h1v1H203zM205 53h1v1H205zM207 53h1v1H207zM209 53h1v1H209zM211 53h1v1H211zM213 53h1v1H213zM215 53h1v1H215zM217 53h1v1H217zM219 53h1v1H219zM221 53h1v1H221zM223 53h1v1H223zM225 53h1v1H225zM227 53h1v1H227zM229 53h1v1H229zM231 53h1v1H231zM233 53h1v1H233zM235 53h1v1H235zM237 53h1v1H237zM239 53h1v1H239zM241 53h1v1H241zM243 53h1v1H243zM245 53h1v1H245zM247 53h1v1H247zM249 53h1v1H249zM251 53h1v1H251zM253 53h1v1H253zM255 53h1v1H255zM257 53h1v1H257zM259 53h1v1H259zM261 53h1v1H261zM263 53h1v1H263zM265 53h1v1H265zM279 53h1v1H279zM285 53h1v1H285zM290 53h1v1H290zM295 53h1v1H295zM0 54h1v1H0zM10 54h1v1H10zM12 54h1v1H12zM16 54h1v1H16zM21 54h3v1H21zM25 54h3v1H25zM29 54h1v1H29zM31 54h1v1H31zM33 54h1v1H33zM35 54h1v1H35zM37 54h1v1H37zM39 54h1v1H39zM41 54h1v1H41zM43 54h1v1H43zM45 54h1v1H45zM47 54h1v1H47zM49 54h1v1H49zM51 54h1v1H51zM53 54h1v1H53zM55 54h1v1H55zM57 54h1v1H57zM59 54h1v1H59zM61 54h1v1H61zM63 54h1v1H63zM65 54h1v1H65zM67 54h1v1H67zM69 54h1v1H69zM71 54h1v1H71zM73 54h1v1H73zM75 54h1v1H75zM77 54h1v1H77zM79 54h1v1H79zM81 54h1v1H81zM83 54h1v1H83zM85 54h1v1H85zM87 54h1v1H87zM89 54h1v1H89zM91 54h1v1H91zM93 54h1v1H93zM95 54h1v1H95zM97 54h1v1H97zM99 54h1v1H99zM101 54h1v1H101zM103 54h1v1H103zM105 54h1v1H105zM107 54h1v1H107zM109 54h1v1H109zM111 54h1v1H111zM113 54h1v1H113zM115 54h1v1H115zM136 54h1v1H136zM139 54h1v1H139zM148 54h1v1H148zM160 54h1v1H160zM162 54h1v1H162zM166 54h1v1H166zM171 54h3v1H171zM175 54h3v1H175zM179 54h3v1H179zM183 54h3v1H183zM187 54h3v1H187zM191 54h3v1H191zM195 54h3v1H195zM199 54h3v1H199zM203 54h1v1H203zM205 54h1v1H205zM207 54h1v1H207zM209 54h1v1H209zM211 54h1v1H211zM213 54h1v1H213zM215 54h1v1H215zM217 54h1v1H217zM219 54h1v1H219zM221 54h1v1H221zM223 54h1v1H223zM225 54h1v1H225zM227 54h1v1H227zM229 54h1v1H229zM231 54h1v1H231zM233 54h1v1H233zM235 54h1v1H235zM237 54h1v1H237zM239 54h1v1H239zM241 54h1v1H241zM243 54h1v1H243zM245 54h1v1H245zM247 54h1v1H247zM249 54h1v1H249zM251 54h1v1H251zM253 54h1v1H253zM255 54h1v1H255zM257 54h1v1H257zM259 54h1v1H259zM261 54h1v1H261zM263 54h1v1H263zM265 54h1v1H265zM280 54h1v1H280zM284 54h1v1H284zM289 54h1v1H289zM295 54h1v1H295zM0 55h1v1H0zM6 55h1v1H6zM10 55h1v1H10zM12 55h1v1H12zM16 55h1v1H16zM21 55h3v1H21zM25 55h3v1H25zM29 55h3v1H29zM33 55h3v1H33zM37 55h3v1H37zM41 55h3v1H41zM45 55h3v1H45zM49 55h3v1H49zM53 55h3v1H53zM57 55h3v1H57zM61 55h3v1H61zM65 55h3v1H65zM69 55h3v1H69zM73 55h3v1H73zM77 55h3v1H77zM81 55h3v1H81zM85 55h3v1H85zM89 55h3v1H89zM93 55h3v1H93zM97 55h3v1H97zM101 55h3v1H101zM105 55h3v1H105zM109 55h3v1H109zM113 55h3v1H113zM135 55h1v1H135zM138 55h1v1H138zM141 55h2v1H141zM148 55h1v1H148zM156 55h1v1H156zM160 55h1v1H160zM162 55h1v1H162zM166 55h1v1H166zM171 55h3v1H171zM175 55h3v1H175zM179 55h3v1H179zM183 55h3v1H183zM187 55h3v1H187zM191 55h3v1H191zM195 55h3v1H195zM199 55h3v1H199zM203 55h3v1H203zM207 55h3v1H207zM211 55h3v1H211zM215 55h3v1H215zM219 55h3v1H219zM223 55h3v1H223zM227 55h3v1H227zM231 55h3v1H231zM235 55h3v1H235zM239 55h3v1H239zM243 55h3v1H243zM247 55h3v1H247zM251 55h3v1H251zM255 55h3v1H255zM259 55h3v1H259zM263 55h3v1H263zM276 55h1v1H276zM280 55h1v1H280zM283 55h1v1H283zM288 55h1v1H288zM291 55h2v1H291zM295 55h1v1H295zM0 56h1v1H0zM7 56h3v1H7zM12 56h1v1H12zM16 56h1v1H16zM133 56h2v1H133zM141 56h2v1H141zM148 56h1v1H148zM157 56h3v1H157zM162 56h1v1H162zM166 56h1v1H166zM277 56h3v1H277zM282 56h5v1H282zM291 56h2v1H291zM295 56h1v1H295zM0 57h1v1H0zM148 57h1v1H148zM295 57h1v1H295zM0 58h1v1H0zM148 58h1v1H148zM295 58h1v1H295zM0 59h1v1H0zM6 59h5v1H6zM12 59h3v1H12zM21 59h3v1H21zM25 59h3v1H25zM29 59h3v1H29zM33 59h3v1H33zM37 59h3v1H37zM41 59h3v1H41zM45 59h3v1H45zM49 59h3v1H49zM53 59h3v1H53zM57 59h3v1H57zM61 59h3v1H61zM65 59h3v1H65zM69 59h3v1H69zM73 59h3v1H73zM77 59h3v1H77zM81 59h3v1H81zM85 59h3v1H85zM89 59h3v1H89zM93 59h3v1H93zM97 59h3v1H97zM101 59h3v1H101zM105 59h3v1H105zM109 59h3v1H109zM113 59h3v1H113zM129 59h1v1H129zM134 59h1v1H134zM138 59h2v1H138zM148 59h1v1H148zM156 59h5v1H156zM162 59h3v1H162zM171 59h3v1H171zM175 59h3v1H175zM179 59h3v1H179zM183 59h3v1H183zM187 59h3v1H187zM191 59h3v1H191zM195 59h3v1H195zM199 59h3v1H199zM203 59h3v1H203zM207 59h3v1H207zM211 59h3v1H211zM215 59h3v1H215zM219 59h3v1H219zM223 59h3v1H223zM227 59h3v1H227zM231 59h3v1H231zM235 59h3v1H235zM239 59h3v1H239zM243 59h3v1H243zM247 59h3v1H247zM251 59h3v1H251zM255 59h3v1H255zM259 59h3v1H259zM263 59h3v1H263zM276 59h5v1H276zM283 59h3v1H283zM288 59h2v1H288zM295 59h1v1H295zM0 60h1v1H0zM10 60h1v1H10zM12 60h1v1H12zM15 60h1v1H15zM21 60h3v1H21zM25 60h3v1H25zM29 60h3v1H29zM33 60h3v1H33zM37 60h3v1H37zM41 60h3v1H41zM45 60h3v1H45zM49 60h3v1H49zM53 60h3v1H53zM57 60h3v1H57zM61 60h1v1H61zM63 60h1v1H63zM65 60h1v1H65zM67 60h1v1H67zM69 60h1v1H69zM71 60h1v1H71zM73 60h1v1H73zM75 60h1v1H75zM77 60h1v1H77zM79 60h1v1H79zM81 60h1v1H81zM83 60h1v1H83zM85 60h1v1H85zM87 60h1v1H87zM89 60h1v1H89zM91 60h1v1H91zM93 60h1v1H93zM95 60h1v1H95zM97 60h1v1H97zM99 60h1v1H99zM101 60h1v1H101zM103 60h1v1H103zM105 60h1v1H105zM107 60h1v1H107zM109 60h1v1H109zM111 60h1v1H111zM113 60h1v1H113zM115 60h1v1H115zM128 60h2v1H128zM133 60h2v1H133zM138 60h2v1H138zM142 60h1v1H142zM148 60h1v1H148zM160 60h1v1H160zM162 60h1v1H162zM165 60h1v1H165zM171 60h3v1H171zM175 60h3v1H175zM179 60h3v1H179zM183 60h3v1H183zM187 60h3v1H187zM191 60h3v1H191zM195 60h3v1H195zM199 60h3v1H199zM203 60h3v1H203zM207 60h1v1H207zM209 60h1v1H209zM211 60h1v1H211zM213 60h1v1H213zM215 60h1v1H215zM217 60h1v1H217zM219 60h1v1H219zM221 60h1v1H221zM223 60h1v1H223zM225 60h1v1H225zM227 60h1v1H227zM229 60h1v1H229zM231 60h1v1H231zM233 60h1v1H233zM235 60h1v1H235zM237 60h1v1H237zM239 60h1v1H239zM241 60h1v1H241zM243 60h1v1H243zM245 60h1v1H245zM247 60h1v1H247zM249 60h1v1H249zM251 60h1v1H251zM253 60h1v1H253zM255 60h1v1H255zM257 60h1v1H257zM259 60h1v1H259zM261 60h1v1H261zM263 60h1v1H263zM265 60h1v1H265zM279 60h1v1H279zM282 60h1v1H282zM286 60h1v1H286zM288 60h2v1H288zM292 60h1v1H292zM295 60h1v1H295zM0 61h1v1H0zM9 61h1v1H9zM12 61h1v1H12zM16 61h1v1H16zM21 61h3v1H21zM25 61h3v1H25zM29 61h3v1H29zM33 61h3v1H33zM37 61h3v1H37zM41 61h3v1H41zM45 61h3v1H45zM49 61h3v1H49zM53 61h3v1H53zM57 61h3v1H57zM61 61h1v1H61zM63 61h1v1H63zM65 61h1v1H65zM67 61h1v1H67zM69 61h1v1H69zM71 61h1v1H71zM73 61h1v1H73zM75 61h1v1H75zM77 61h1v1H77zM79 61h1v1H79zM81 61h1v1H81zM83 61h1v1H83zM85 61h1v1H85zM87 61h1v1H87zM89 61h1v1H89zM91 61h1v1H91zM93 61h1v1H93zM95 61h1v1H95zM97 61h1v1H97zM99 61h1v1H99zM101 61h1v1H101zM103 61h1v1H103zM105 61h1v1H105zM107 61h1v1H107zM109 61h1v1H109zM111 61h1v1H111zM113 61h1v1H113zM115 61h1v1H115zM127 61h1v1H127zM129 61h1v1H129zM134 61h1v1H134zM141 61h1v1H141zM148 61h1v1H148zM159 61h1v1H159zM162 61h1v1H162zM166 61h1v1H166zM171 61h3v1H171zM175 61h3v1H175zM179 61h3v1H179zM183 61h3v1H183zM187 61h3v1H187zM191 61h3v1H191zM195 61h3v1H195zM199 61h3v1H199zM203 61h3v1H203zM207 61h1v1H207zM209 61h1v1H209zM211 61h1v1H211zM213 61h1v1H213zM215 61h1v1H215zM217 61h1v1H217zM219 61h1v1H219zM221 61h1v1H221zM223 61h1v1H223zM225 61h1v1H225zM227 61h1v1H227zM229 61h1v1H229zM231 61h1v1H231zM233 61h1v1H233zM235 61h1v1H235zM237 61h1v1H237zM239 61h1v1H239zM241 61h1v1H241zM243 61h1v1H243zM245 61h1v1H245zM247 61h1v1H247zM249 61h1v1H249zM251 61h1v1H251zM253 61h1v1H253zM255 61h1v1H255zM257 61h1v1H257zM259 61h1v1H259zM261 61h1v1H261zM263 61h1v1H263zM265 61h1v1H265zM278 61h1v1H278zM282 61h1v1H282zM286 61h1v1H286zM291 61h1v1H291zM295 61h1v1H295zM0 62h1v1H0zM8 62h1v1H8zM12 62h1v1H12zM16 62h1v1H16zM21 62h3v1H21zM25 62h3v1H25zM29 62h3v1H29zM33 62h3v1H33zM37 62h3v1H37zM41 62h3v1H41zM45 62h3v1H45zM49 62h3v1H49zM53 62h3v1H53zM57 62h3v1H57zM61 62h1v1H61zM63 62h1v1H63zM65 62h1v1H65zM67 62h1v1H67zM69 62h1v1H69zM71 62h1v1H71zM73 62h1v1H73zM75 62h1v1H75zM77 62h1v1H77zM79 62h1v1H79zM81 62h1v1H81zM83 62h1v1H83zM85 62h1v1H85zM87 62h1v1H87zM89 62h1v1H89zM91 62h1v1H91zM93 62h1v1H93zM95 62h1v1H95zM97 62h1v1H97zM99 62h1v1H99zM101 62h1v1H101zM103 62h1v1H103zM105 62h1v1H105zM107 62h1v1H107zM109 62h1v1H109zM111 62h1v1H111zM113 62h1v1H113zM115 62h1v1H115zM126 62h1v1H126zM129 62h1v1H129zM134 62h1v1H134zM140 62h1v1H140zM148 62h1v1H148zM158 62h1v1H158zM162 62h1v1H162zM166 62h1v1H166zM171 62h3v1H171zM175 62h3v1H175zM179 62h3v1H179zM183 62h3v1H183zM187 62h3v1H187zM191 62h3v1H191zM195 62h3v1H195zM199 62h3v1H199zM203 62h3v1H203zM207 62h1v1H207zM209 62h1v1H209zM211 62h1v1H211zM213 62h1v1H213zM215 62h1v1H215zM217 62h1v1H217zM219 62h1v1H219zM221 62h1v1H221zM223 62h1v1H223zM225 62h1v1H225zM227 62h1v1H227zM229 62h1v1H229zM231 62h1v1H231zM233 62h1v1H233zM235 62h1v1H235zM237 62h1v1H237zM239 62h1v1H239zM241 62h1v1H241zM243 62h1v1H243zM245 62h1v1H245zM247 62h1v1H247zM249 62h1v1H249zM251 62h1v1H251zM253 62h1v1H253zM255 62h1v1H255zM257 62h1v1H257zM259 62h1v1H259zM261 62h1v1H261zM263 62h1v1H263zM265 62h1v1H265zM279 62h1v1H279zM283 62h3v1H283zM290 62h1v1H290zM295 62h1v1H295zM0 63h1v1H0zM7 63h1v1H7zM12 63h1v1H12zM16 63h1v1H16zM21 63h3v1H21zM25 63h3v1H25zM29 63h3v1H29zM33 63h3v1H33zM37 63h3v1H37zM41 63h3v1H41zM45 63h3v1H45zM49 63h3v1H49zM53 63h3v1H53zM57 63h3v1H57zM61 63h1v1H61zM63 63h1v1H63zM65 63h1v1H65zM67 63h1v1H67zM69 63h1v1H69zM71 63h1v1H71zM73 63h1v1H73zM75 63h1v1H75zM77 63h1v1H77zM79 63h1v1H79zM81 63h1v1H81zM83 63h1v1H83zM85 63h1v1H85zM87 63h1v1H87zM89 63h1v1H89zM91 63h1v1H91zM93 63h1v1H93zM95 63h1v1H95zM97 63h1v1H97zM99 63h1v1H99zM101 63h1v1H101zM103 63h1v1H103zM105 63h1v1H105zM107 63h1v1H107zM109 63h1v1H109zM111 63h1v1H111zM113 63h1v1H113zM115 63h1v1H115zM126 63h5v1H126zM134 63h1v1H134zM139 63h1v1H139zM148 63h1v1H148zM157 63h1v1H157zM162 63h1v1H162zM166 63h1v1H166zM171 63h3v1H171zM175 63h3v1H175zM179 63h3v1H179zM183 63h3v1H183zM187 63h3v1H187zM191 63h3v1H191zM195 63h3v1H195zM199 63h3v1H199zM203 63h3v1H203zM207 63h1v1H207zM209 63h1v1H209zM211 63h1v1H211zM213 63h1v1H213zM215 63h1v1H215zM217 63h1v1H217zM219 63h1v1H219zM221 63h1v1H221zM223 63h1v1H223zM225 63h1v1H225zM227 63h1v1H227zM229 63h1v1H229zM231 63h1v1H231zM233 63h1v1H233zM235 63h1v1H235zM237 63h1v1H237zM239 63h1v1H239zM241 63h1v1H241zM243 63h1v1H243zM245 63h1v1H245zM247 63h1v1H247zM249 63h1v1H249zM251 63h1v1H251zM253 63h1v1H253zM255 63h1v1H255zM257 63h1v1H257zM259 63h1v1H259zM261 63h1v1H261zM263 63h1v1H263zM265 63h1v1H265zM280 63h1v1H280zM282 63h1v1H282zM286 63h1v1H286zM289 63h1v1H289zM295 63h1v1H295zM0 64h1v1H0zM7 64h1v1H7zM12 64h1v1H12zM15 64h1v1H15zM21 64h3v1H21zM25 64h3v1H25zM29 64h3v1H29zM33 64h3v1H33zM37 64h3v1H37zM41 64h3v1H41zM45 64h3v1H45zM49 64h3v1H49zM53 64h3v1H53zM57 64h3v1H57zM61 64h3v1H61zM65 64h3v1H65zM69 64h3v1H69zM73 64h3v1H73zM77 64h3v1H77zM81 64h3v1H81zM85 64h3v1H85zM89 64h3v1H89zM93 64h3v1H93zM97 64h3v1H97zM101 64h3v1H101zM105 64h3v1H105zM109 64h3v1H109zM113 64h3v1H113zM129 64h1v1H129zM134 64h1v1H134zM138 64h1v1H138zM141 64h2v1H141zM148 64h1v1H148zM157 64h1v1H157zM162 64h1v1H162zM165 64h1v1H165zM171 64h3v1H171zM175 64h3v1H175zM179 64h3v1H179zM183 64h3v1H183zM187 64h3v1H187zM191 64h3v1H191zM195 64h3v1H195zM199 64h3v1H199zM203 64h3v1H203zM207 64h3v1H207zM211 64h3v1H211zM215 64h3v1H215zM219 64h3v1H219zM223 64h3v1H223zM227 64h3v1H227zM231 64h3v1H231zM235 64h3v1H235zM239 64h3v1H239zM243 64h3v1H243zM247 64h3v1H247zM251 64h3v1H251zM255 64h3v1H255zM259 64h3v1H259zM263 64h3v1H263zM276 64h1v1H276zM280 64h1v1H280zM282 64h1v1H282zM286 64h1v1H286zM288 64h1v1H288zM291 64h2v1H291zM295 64h1v1H295zM0 65h1v1H0zM7 65h1v1H7zM12 65h3v1H12zM129 65h1v1H129zM133 65h3v1H133zM141 65h2v1H141zM148 65h1v1H148zM157 65h1v1H157zM162 65h3v1H162zM277 65h3v1H277zM283 65h3v1H283zM291 65h2v1H291zM295 65h1v1H295zM0 66h1v1H0zM148 66h1v1H148zM295 66h1v1H295zM0 67h1v1H0zM148 67h1v1H148zM295 67h1v1H295zM0 68h1v1H0zM7 68h3v1H7zM25 68h3v1H25zM29 68h3v1H29zM33 68h3v1H33zM37 68h3v1H37zM41 68h3v1H41zM45 68h3v1H45zM49 68h3v1H49zM53 68h3v1H53zM57 68h3v1H57zM61 68h3v1H61zM65 68h3v1H65zM69 68h3v1H69zM73 68h3v1H73zM77 68h3v1H77zM81 68h3v1H81zM85 68h3v1H85zM89 68h3v1H89zM93 68h3v1H93zM97 68h3v1H97zM101 68h3v1H101zM105 68h3v1H105zM109 68h3v1H109zM113 68h3v1H113zM148 68h1v1H148zM158 68h1v1H158zM175 68h3v1H175zM179 68h3v1H179zM183 68h3v1H183zM187 68h3v1H187zM191 68h3v1H191zM195 68h3v1H195zM199 68h3v1H199zM203 68h3v1H203zM207 68h3v1H207zM211 68h3v1H211zM215 68h3v1H215zM219 68h3v1H219zM223 68h3v1H223zM227 68h3v1H227zM231 68h3v1H231zM235 68h3v1H235zM239 68h3v1H239zM243 68h3v1H243zM247 68h3v1H247zM251 68h3v1H251zM255 68h3v1H255zM259 68h3v1H259zM263 68h3v1H263zM267 68h3v1H267zM271 68h3v1H271zM275 68h3v1H275zM279 68h3v1H279zM283 68h3v1H283zM295 68h1v1H295zM0 69h1v1H0zM6 69h1v1H6zM25 69h1v1H25zM27 69h1v1H27zM29 69h1v1H29zM31 69h1v1H31zM33 69h1v1H33zM35 69h1v1H35zM37 69h1v1H37zM39 69h1v1H39zM41 69h1v1H41zM43 69h1v1H43zM45 69h1v1H45zM47 69h1v1H47zM49 69h1v1H49zM51 69h1v1H51zM53 69h1v1H53zM55 69h1v1H55zM57 69h1v1H57zM59 69h1v1H59zM61 69h1v1H61zM63 69h1v1H63zM65 69h1v1H65zM67 69h1v1H67zM69 69h1v1H69zM71 69h1v1H71zM73 69h1v1H73zM75 69h1v1H75zM77 69h1v1H77zM79 69h1v1H79zM81 69h1v1H81zM83 69h1v1H83zM85 69h1v1H85zM87 69h1v1H87zM89 69h1v1H89zM91 69h1v1H91zM93 69h1v1H93zM95 69h1v1H95zM97 69h1v1H97zM99 69h1v1H99zM101 69h1v1H101zM103 69h1v1H103zM105 69h1v1H105zM107 69h1v1H107zM109 69h1v1H109zM111 69h1v1H111zM113 69h1v1H113zM115 69h1v1H115zM148 69h1v1H148zM157 69h4v1H157zM175 69h1v1H175zM177 69h1v1H177zM179 69h1v1H179zM181 69h1v1H181zM183 69h1v1H183zM185 69h1v1H185zM187 69h1v1H187zM189 69h1v1H189zM191 69h1v1H191zM193 69h1v1H193zM195 69h1v1H195zM197 69h1v1H197zM199 69h1v1H199zM201 69h1v1H201zM203 69h1v1H203zM205 69h1v1H205zM207 69h1v1H207zM209 69h1v1H209zM211 69h1v1H211zM213 69h1v1H213zM215 69h1v1H215zM217 69h1v1H217zM219 69h1v1H219zM221 69h1v1H221zM223 69h1v1H223zM225 69h1v1H225zM227 69h1v1H227zM229 69h1v1H229zM231 69h1v1H231zM233 69h1v1H233zM235 69h1v1H235zM237 69h1v1H237zM239 69h1v1H239zM241 69h1v1H241zM243 69h1v1H243zM245 69h1v1H245zM247 69h1v1H247zM249 69h1v1H249zM251 69h1v1H251zM253 69h1v1H253zM255 69h1v1H255zM257 69h1v1H257zM259 69h1v1H259zM261 69h1v1H261zM263 69h1v1H263zM265 69h1v1H265zM267 69h1v1H267zM269 69h1v1H269zM271 69h1v1H271zM273 69h1v1H273zM275 69h1v1H275zM277 69h1v1H277zM279 69h1v1H279zM281 69h1v1H281zM283 69h1v1H283zM285 69h1v1H285zM295 69h1v1H295zM0 70h1v1H0zM6 70h3v1H6zM25 70h1v1H25zM27 70h1v1H27zM29 70h1v1H29zM31 70h1v1H31zM33 70h1v1H33zM35 70h1v1H35zM37 70h1v1H37zM39 70h1v1H39zM41 70h1v1H41zM43 70h1v1H43zM45 70h1v1H45zM47 70h1v1H47zM49 70h1v1H49zM51 70h1v1H51zM53 70h1v1H53zM55 70h1v1H55zM57 70h1v1H57zM59 70h1v1H59zM61 70h1v1H61zM63 70h1v1H63zM65 70h1v1H65zM67 70h1v1H67zM69 70h1v1H69zM71 70h1v1H71zM73 70h1v1H73zM75 70h1v1H75zM77 70h1v1H77zM79 70h1v1H79zM81 70h1v1H81zM83 70h1v1H83zM85 70h1v1H85zM87 70h1v1H87zM89 70h1v1H89zM91 70h1v1H91zM93 70h1v1H93zM95 70h1v1H95zM97 70h1v1H97zM99 70h1v1H99zM101 70h1v1H101zM103 70h1v1H103zM105 70h1v1H105zM107 70h1v1H107zM109 70h1v1H109zM111 70h1v1H111zM113 70h1v1H113zM115 70h1v1H115zM148 70h1v1H148zM156 70h1v1H156zM158 70h1v1H158zM175 70h1v1H175zM177 70h1v1H177zM179 70h1v1H179zM181 70h1v1H181zM183 70h1v1H183zM185 70h1v1H185zM187 70h1v1H187zM189 70h1v1H189zM191 70h1v1H191zM193 70h1v1H193zM195 70h1v1H195zM197 70h1v1H197zM199 70h1v1H199zM201 70h1v1H201zM203 70h1v1H203zM205 70h1v1H205zM207 70h1v1H207zM209 70h1v1H209zM211 70h1v1H211zM213 70h1v1H213zM215 70h1v1H215zM217 70h1v1H217zM219 70h1v1H219zM221 70h1v1H221zM223 70h1v1H223zM225 70h1v1H225zM227 70h1v1H227zM229 70h1v1H229zM231 70h1v1H231zM233 70h1v1H233zM235 70h1v1H235zM237 70h1v1H237zM239 70h1v1H239zM241 70h1v1H241zM243 70h1v1H243zM245 70h1v1H245zM247 70h1v1H247zM249 70h1v1H249zM251 70h1v1H251zM253 70h1v1H253zM255 70h1v1H255zM257 70h1v1H257zM259 70h1v1H259zM261 70h1v1H261zM263 70h1v1H263zM265 70h1v1H265zM267 70h1v1H267zM269 70h1v1H269zM271 70h1v1H271zM273 70h1v1H273zM275 70h1v1H275zM277 70h1v1H277zM279 70h1v1H279zM281 70h1v1H281zM283 70h1v1H283zM285 70h1v1H285zM295 70h1v1H295zM0 71h1v1H0zM6 71h1v1H6zM25 71h1v1H25zM27 71h1v1H27zM29 71h1v1H29zM31 71h1v1H31zM33 71h1v1H33zM35 71h1v1H35zM37 71h1v1H37zM39 71h1v1H39zM41 71h1v1H41zM43 71h1v1H43zM45 71h1v1H45zM47 71h1v1H47zM49 71h1v1H49zM51 71h1v1H51zM53 71h1v1H53zM55 71h1v1H55zM57 71h1v1H57zM59 71h1v1H59zM61 71h1v1H61zM63 71h1v1H63zM65 71h1v1H65zM67 71h1v1H67zM69 71h1v1H69zM71 71h1v1H71zM73 71h1v1H73zM75 71h1v1H75zM77 71h1v1H77zM79 71h1v1H79zM81 71h1v1H81zM83 71h1v1H83zM85 71h1v1H85zM87 71h1v1H87zM89 71h1v1H89zM91 71h1v1H91zM93 71h1v1H93zM95 71h1v1H95zM97 71h1v1H97zM99 71h1v1H99zM101 71h1v1H101zM103 71h1v1H103zM105 71h1v1H105zM107 71h1v1H107zM109 71h1v1H109zM111 71h1v1H111zM113 71h1v1H113zM115 71h1v1H115zM148 71h1v1H148zM157 71h3v1H157zM175 71h1v1H175zM177 71h1v1H177zM179 71h1v1H179zM181 71h1v1H181zM183 71h1v1H183zM185 71h1v1H185zM187 71h1v1H187zM189 71h1v1H189zM191 71h1v1H191zM193 71h1v1H193zM195 71h1v1H195zM197 71h1v1H197zM199 71h1v1H199zM201 71h1v1H201zM203 71h1v1H203zM205 71h1v1H205zM207 71h1v1H207zM209 71h1v1H209zM211 71h1v1H211zM213 71h1v1H213zM215 71h1v1H215zM217 71h1v1H217zM219 71h1v1H219zM221 71h1v1H221zM223 71h1v1H223zM225 71h1v1H225zM227 71h1v1H227zM229 71h1v1H229zM231 71h1v1H231zM233 71h1v1H233zM235 71h1v1H235zM237 71h1v1H237zM239 71h1v1H239zM241 71h1v1H241zM243 71h1v1H243zM245 71h1v1H245zM247 71h1v1H247zM249 71h1v1H249zM251 71h1v1H251zM253 71h1v1H253zM255 71h1v1H255zM257 71h1v1H257zM259 71h1v1H259zM261 71h1v1H261zM263 71h1v1H263zM265 71h1v1H265zM267 71h1v1H267zM269 71h1v1H269zM271 71h1v1H271zM273 71h1v1H273zM275 71h1v1H275zM277 71h1v1H277zM279 71h1v1H279zM281 71h1v1H281zM283 71h1v1H283zM285 71h1v1H285zM295 71h1v1H295zM0 72h1v1H0zM6 72h3v1H6zM25 72h1v1H25zM27 72h1v1H27zM29 72h1v1H29zM31 72h1v1H31zM33 72h1v1H33zM35 72h1v1H35zM37 72h1v1H37zM39 72h1v1H39zM41 72h1v1H41zM43 72h1v1H43zM45 72h1v1H45zM47 72h1v1H47zM49 72h1v1H49zM51 72h1v1H51zM53 72h1v1H53zM55 72h1v1H55zM57 72h1v1H57zM59 72h1v1H59zM61 72h1v1H61zM63 72h1v1H63zM65 72h1v1H65zM67 72h1v1H67zM69 72h1v1H69zM71 72h1v1H71zM73 72h1v1H73zM75 72h1v1H75zM77 72h1v1H77zM79 72h1v1H79zM81 72h1v1H81zM83 72h1v1H83zM85 72h1v1H85zM87 72h1v1H87zM89 72h1v1H89zM91 72h1v1H91zM93 72h1v1H93zM95 72h1v1H95zM97 72h1v1H97zM99 72h1v1H99zM101 72h1v1H101zM103 72h1v1H103zM105 72h1v1H105zM107 72h1v1H107zM109 72h1v1H109zM111 72h1v1H111zM113 72h1v1H113zM115 72h1v1H115zM148 72h1v1H148zM158 72h1v1H158zM160 72h1v1H160zM175 72h1v1H175zM177 72h1v1H177zM179 72h1v1H179zM181 72h1v1H181zM183 72h1v1H183zM185 72h1v1H185zM187 72h1v1H187zM189 72h1v1H189zM191 72h1v1H191zM193 72h1v1H193zM195 72h1v1H195zM197 72h1v1H197zM199 72h1v1H199zM201 72h1v1H201zM203 72h1v1H203zM205 72h1v1H205zM207 72h1v1H207zM209 72h1v1H209zM211 72h1v1H211zM213 72h1v1H213zM215 72h1v1H215zM217 72h1v1H217zM219 72h1v1H219zM221 72h1v1H221zM223 72h1v1H223zM225 72h1v1H225zM227 72h1v1H227zM229 72h1v1H229zM231 72h1v1H231zM233 72h1v1H233zM235 72h1v1H235zM237 72h1v1H237zM239 72h1v1H239zM241 72h1v1H241zM243 72h1v1H243zM245 72h1v1H245zM247 72h1v1H247zM249 72h1v1H249zM251 72h1v1H251zM253 72h1v1H253zM255 72h1v1H255zM257 72h1v1H257zM259 72h1v1H259zM261 72h1v1H261zM263 72h1v1H263zM265 72h1v1H265zM267 72h1v1H267zM269 72h1v1H269zM271 72h1v1H271zM273 72h1v1H273zM275 72h1v1H275zM277 72h1v1H277zM279 72h1v1H279zM281 72h1v1H281zM283 72h1v1H283zM285 72h1v1H285zM295 72h1v1H295zM0 73h1v1H0zM6 73h1v1H6zM25 73h3v1H25zM29 73h3v1H29zM33 73h3v1H33zM37 73h3v1H37zM41 73h3v1H41zM45 73h3v1H45zM49 73h3v1H49zM53 73h3v1H53zM57 73h3v1H57zM61 73h3v1H61zM65 73h3v1H65zM69 73h3v1H69zM73 73h3v1H73zM77 73h3v1H77zM81 73h3v1H81zM85 73h3v1H85zM89 73h3v1H89zM93 73h3v1H93zM97 73h3v1H97zM101 73h3v1H101zM105 73h3v1H105zM109 73h3v1H109zM113 73h3v1H113zM148 73h1v1H148zM156 73h4v1H156zM175 73h3v1H175zM179 73h3v1H179zM183 73h3v1H183zM187 73h3v1H187zM191 73h3v1H191zM195 73h3v1H195zM199 73h3v1H199zM203 73h3v1H203zM207 73h3v1H207zM211 73h3v1H211zM215 73h3v1H215zM219 73h3v1H219zM223 73h3v1H223zM227 73h3v1H227zM231 73h3v1H231zM235 73h3v1H235zM239 73h3v1H239zM243 73h3v1H243zM247 73h3v1H247zM251 73h3v1H251zM255 73h3v1H255zM259 73h3v1H259zM263 73h3v1H263zM267 73h3v1H267zM271 73h3v1H271zM275 73h3v1H275zM279 73h3v1H279zM283 73h3v1H283zM295 73h1v1H295zM0 74h1v1H0zM7 74h3v1H7zM148 74h1v1H148zM158 74h1v1H158zM295 74h1v1H295zM0 75h1v1H0zM148 75h1v1H148zM295 75h1v1H295zM0 76h1v1H0zM148 76h1v1H148zM295 76h1v1H295zM0 77h1v1H0zM148 77h1v1H148zM295 77h1v1H295zM0 78h1v1H0zM148 78h1v1H148zM295 78h1v1H295zM0 79h1v1H0zM148 79h1v1H148zM295 79h1v1H295zM0 80h1v1H0zM148 80h1v1H148zM295 80h1v1H295zM0 81h1v1H0zM6 81h282v1H6zM295 81h1v1H295zM0 82h1v1H0zM148 82h1v1H148zM295 82h1v1H295zM0 83h1v1H0zM148 83h1v1H148zM295 83h1v1H295zM0 84h1v1H0zM148 84h1v1H148zM295 84h1v1H295zM0 85h1v1H0zM148 85h1v1H148zM295 85h1v1H295zM0 86h1v1H0zM9 86h1v1H9zM18 86h3v1H18zM23 86h5v1H23zM29 86h1v1H29zM33 86h1v1H33zM36 86h3v1H36zM41 86h1v1H41zM45 86h1v1H45zM48 86h3v1H48zM84 86h5v1H84zM90 86h1v1H90zM97 86h3v1H97zM103 86h3v1H103zM116 86h2v1H116zM124 86h1v1H124zM134 86h2v1H134zM138 86h1v1H138zM148 86h1v1H148zM159 86h1v1H159zM168 86h3v1H168zM173 86h1v1H173zM180 86h3v1H180zM185 86h1v1H185zM189 86h1v1H189zM191 86h3v1H191zM197 86h5v1H197zM210 86h3v1H210zM215 86h4v1H215zM221 86h5v1H221zM234 86h5v1H234zM240 86h1v1H240zM247 86h3v1H247zM253 86h3v1H253zM266 86h2v1H266zM274 86h1v1H274zM282 86h5v1H282zM288 86h1v1H288zM295 86h1v1H295zM0 87h1v1H0zM17 87h1v1H17zM21 87h1v1H21zM23 87h1v1H23zM29 87h2v1H29zM32 87h2v1H32zM37 87h1v1H37zM41 87h1v1H41zM45 87h1v1H45zM49 87h1v1H49zM84 87h1v1H84zM90 87h1v1H90zM96 87h1v1H96zM100 87h1v1H100zM102 87h1v1H102zM106 87h1v1H106zM112 87h1v1H112zM115 87h1v1H115zM124 87h1v1H124zM133 87h1v1H133zM138 87h1v1H138zM148 87h1v1H148zM167 87h1v1H167zM171 87h1v1H171zM173 87h1v1H173zM179 87h1v1H179zM183 87h1v1H183zM185 87h1v1H185zM189 87h1v1H189zM191 87h1v1H191zM194 87h1v1H194zM197 87h1v1H197zM207 87h1v1H207zM209 87h1v1H209zM213 87h1v1H213zM215 87h1v1H215zM219 87h1v1H219zM223 87h1v1H223zM234 87h1v1H234zM240 87h1v1H240zM246 87h1v1H246zM250 87h1v1H250zM252 87h1v1H252zM256 87h1v1H256zM262 87h1v1H262zM265 87h1v1H265zM274 87h1v1H274zM286 87h1v1H286zM288 87h1v1H288zM295 87h1v1H295zM0 88h1v1H0zM9 88h1v1H9zM17 88h1v1H17zM23 88h1v1H23zM29 88h1v1H29zM31 88h1v1H31zM33 88h1v1H33zM37 88h1v1H37zM41 88h2v1H41zM45 88h1v1H45zM49 88h1v1H49zM84 88h4v1H84zM90 88h1v1H90zM92 88h2v1H92zM96 88h1v1H96zM99 88h2v1H99zM102 88h1v1H102zM105 88h2v1H105zM111 88h1v1H111zM114 88h1v1H114zM121 88h2v1H121zM124 88h1v1H124zM132 88h1v1H132zM138 88h1v1H138zM140 88h2v1H140zM148 88h1v1H148zM159 88h1v1H159zM167 88h1v1H167zM173 88h1v1H173zM179 88h1v1H179zM183 88h1v1H183zM185 88h1v1H185zM189 88h1v1H189zM191 88h1v1H191zM195 88h1v1H195zM197 88h1v1H197zM206 88h1v1H206zM209 88h1v1H209zM215 88h1v1H215zM219 88h1v1H219zM223 88h1v1H223zM234 88h4v1H234zM240 88h1v1H240zM242 88h2v1H242zM246 88h1v1H246zM249 88h2v1H249zM252 88h1v1H252zM255 88h2v1H255zM261 88h1v1H261zM264 88h1v1H264zM271 88h2v1H271zM274 88h1v1H274zM285 88h1v1H285zM288 88h1v1H288zM290 88h2v1H290zM295 88h1v1H295zM0 89h1v1H0zM8 89h1v1H8zM10 89h1v1H10zM17 89h1v1H17zM19 89h3v1H19zM23 89h4v1H23zM29 89h1v1H29zM31 89h1v1H31zM33 89h1v1H33zM37 89h1v1H37zM41 89h1v1H41zM43 89h1v1H43zM45 89h1v1H45zM49 89h1v1H49zM88 89h1v1H88zM90 89h2v1H90zM94 89h1v1H94zM96 89h1v1H96zM98 89h1v1H98zM100 89h1v1H100zM102 89h1v1H102zM104 89h1v1H104zM106 89h1v1H106zM110 89h1v1H110zM114 89h4v1H114zM120 89h1v1H120zM123 89h2v1H123zM132 89h4v1H132zM138 89h2v1H138zM142 89h1v1H142zM148 89h1v1H148zM158 89h1v1H158zM160 89h1v1H160zM167 89h1v1H167zM173 89h1v1H173zM179 89h1v1H179zM183 89h1v1H183zM185 89h1v1H185zM189 89h1v1H189zM191 89h1v1H191zM195 89h1v1H195zM197 89h4v1H197zM205 89h1v1H205zM209 89h1v1H209zM211 89h3v1H211zM215 89h4v1H215zM223 89h1v1H223zM238 89h1v1H238zM240 89h2v1H240zM244 89h1v1H244zM246 89h1v1H246zM248 89h1v1H248zM250 89h1v1H250zM252 89h1v1H252zM254 89h1v1H254zM256 89h1v1H256zM260 89h1v1H260zM264 89h4v1H264zM270 89h1v1H270zM273 89h2v1H273zM284 89h1v1H284zM288 89h2v1H288zM292 89h1v1H292zM295 89h1v1H295zM0 90h1v1H0zM7 90h1v1H7zM11 90h1v1H11zM17 90h1v1H17zM21 90h1v1H21zM23 90h1v1H23zM29 90h1v1H29zM33 90h1v1H33zM37 90h1v1H37zM41 90h1v1H41zM44 90h2v1H44zM49 90h1v1H49zM88 90h1v1H88zM90 90h1v1H90zM94 90h1v1H94zM96 90h2v1H96zM100 90h1v1H100zM102 90h2v1H102zM106 90h1v1H106zM109 90h1v1H109zM114 90h1v1H114zM118 90h1v1H118zM120 90h1v1H120zM124 90h1v1H124zM132 90h1v1H132zM136 90h1v1H136zM138 90h1v1H138zM142 90h1v1H142zM148 90h1v1H148zM157 90h1v1H157zM161 90h1v1H161zM167 90h1v1H167zM173 90h1v1H173zM179 90h5v1H179zM185 90h1v1H185zM189 90h1v1H189zM191 90h1v1H191zM195 90h1v1H195zM197 90h1v1H197zM204 90h1v1H204zM209 90h1v1H209zM213 90h1v1H213zM215 90h1v1H215zM223 90h1v1H223zM238 90h1v1H238zM240 90h1v1H240zM244 90h1v1H244zM246 90h2v1H246zM250 90h1v1H250zM252 90h2v1H252zM256 90h1v1H256zM259 90h1v1H259zM264 90h1v1H264zM268 90h1v1H268zM270 90h1v1H270zM274 90h1v1H274zM283 90h1v1H283zM288 90h1v1H288zM292 90h1v1H292zM295 90h1v1H295zM0 91h1v1H0zM6 91h1v1H6zM12 91h1v1H12zM17 91h1v1H17zM21 91h1v1H21zM23 91h1v1H23zM29 91h1v1H29zM33 91h1v1H33zM37 91h1v1H37zM41 91h1v1H41zM45 91h1v1H45zM49 91h1v1H49zM84 91h1v1H84zM88 91h1v1H88zM90 91h1v1H90zM94 91h1v1H94zM96 91h1v1H96zM100 91h1v1H100zM102 91h1v1H102zM106 91h1v1H106zM108 91h1v1H108zM114 91h1v1H114zM118 91h1v1H118zM120 91h1v1H120zM124 91h1v1H124zM132 91h1v1H132zM136 91h1v1H136zM138 91h1v1H138zM142 91h1v1H142zM148 91h1v1H148zM156 91h1v1H156zM162 91h1v1H162zM167 91h1v1H167zM171 91h1v1H171zM173 91h1v1H173zM179 91h1v1H179zM183 91h1v1H183zM185 91h1v1H185zM189 91h1v1H189zM191 91h1v1H191zM194 91h1v1H194zM197 91h1v1H197zM203 91h1v1H203zM209 91h1v1H209zM213 91h1v1H213zM215 91h1v1H215zM223 91h1v1H223zM234 91h1v1H234zM238 91h1v1H238zM240 91h1v1H240zM244 91h1v1H244zM246 91h1v1H246zM250 91h1v1H250zM252 91h1v1H252zM256 91h1v1H256zM258 91h1v1H258zM264 91h1v1H264zM268 91h1v1H268zM270 91h1v1H270zM274 91h1v1H274zM283 91h1v1H283zM288 91h1v1H288zM292 91h1v1H292zM295 91h1v1H295zM0 92h1v1H0zM6 92h7v1H6zM18 92h4v1H18zM23 92h5v1H23zM29 92h1v1H29zM33 92h1v1H33zM36 92h3v1H36zM41 92h1v1H41zM45 92h1v1H45zM48 92h3v1H48zM85 92h3v1H85zM90 92h1v1H90zM94 92h1v1H94zM97 92h3v1H97zM103 92h3v1H103zM115 92h3v1H115zM121 92h4v1H121zM133 92h3v1H133zM138 92h1v1H138zM142 92h1v1H142zM148 92h1v1H148zM156 92h7v1H156zM168 92h3v1H168zM173 92h5v1H173zM179 92h1v1H179zM183 92h1v1H183zM186 92h3v1H186zM191 92h3v1H191zM197 92h5v1H197zM210 92h4v1H210zM215 92h1v1H215zM223 92h1v1H223zM235 92h3v1H235zM240 92h1v1H240zM244 92h1v1H244zM247 92h3v1H247zM253 92h3v1H253zM265 92h3v1H265zM271 92h4v1H271zM283 92h1v1H283zM288 92h1v1H288zM292 92h1v1H292zM295 92h1v1H295zM0 93h1v1H0zM148 93h1v1H148zM295 93h1v1H295zM0 94h1v1H0zM148 94h1v1H148zM295 94h1v1H295zM0 95h1v1H0zM148 95h1v1H148zM295 95h1v1H295zM0 96h1v1H0zM148 96h1v1H148zM295 96h1v1H295zM0 97h1v1H0zM148 97h1v1H148zM295 97h1v1H295zM0 98h1v1H0zM148 98h1v1H148zM295 98h1v1H295zM0 99h1v1H0zM6 99h5v1H6zM12 99h1v1H12zM16 99h1v1H16zM21 99h3v1H21zM25 99h3v1H25zM29 99h3v1H29zM33 99h3v1H33zM37 99h3v1H37zM41 99h3v1H41zM45 99h3v1H45zM49 99h3v1H49zM53 99h3v1H53zM57 99h3v1H57zM61 99h3v1H61zM65 99h3v1H65zM69 99h3v1H69zM73 99h3v1H73zM77 99h3v1H77zM81 99h3v1H81zM85 99h3v1H85zM89 99h3v1H89zM93 99h3v1H93zM97 99h3v1H97zM101 99h3v1H101zM105 99h3v1H105zM109 99h3v1H109zM113 99h3v1H113zM133 99h3v1H133zM138 99h2v1H138zM148 99h1v1H148zM156 99h5v1H156zM162 99h1v1H162zM166 99h1v1H166zM171 99h3v1H171zM175 99h3v1H175zM179 99h3v1H179zM183 99h3v1H183zM187 99h3v1H187zM191 99h3v1H191zM195 99h3v1H195zM199 99h3v1H199zM203 99h3v1H203zM207 99h3v1H207zM211 99h3v1H211zM215 99h3v1H215zM219 99h3v1H219zM223 99h3v1H223zM227 99h3v1H227zM231 99h3v1H231zM235 99h3v1H235zM239 99h3v1H239zM243 99h3v1H243zM247 99h3v1H247zM251 99h3v1H251zM255 99h3v1H255zM259 99h3v1H259zM263 99h3v1H263zM283 99h3v1H283zM288 99h2v1H288zM295 99h1v1H295zM0 100h1v1H0zM6 100h1v1H6zM12 100h1v1H12zM16 100h1v1H16zM21 100h1v1H21zM23 100h1v1H23zM25 100h1v1H25zM27 100h1v1H27zM29 100h1v1H29zM31 100h1v1H31zM33 100h1v1H33zM35 100h1v1H35zM37 100h1v1H37zM39 100h1v1H39zM41 100h1v1H41zM43 100h1v1H43zM45 100h1v1H45zM47 100h1v1H47zM49 100h1v1H49zM51 100h1v1H51zM53 100h1v1H53zM55 100h1v1H55zM57 100h1v1H57zM59 100h1v1H59zM61 100h1v1H61zM63 100h1v1H63zM65 100h1v1H65zM67 100h1v1H67zM69 100h1v1H69zM71 100h1v1H71zM73 100h1v1H73zM75 100h1v1H75zM77 100h1v1H77zM79 100h1v1H79zM81 100h1v1H81zM83 100h1v1H83zM85 100h1v1H85zM87 100h1v1H87zM89 100h1v1H89zM91 100h1v1H91zM93 100h1v1H93zM95 100h1v1H95zM97 100h1v1H97zM99 100h1v1H99zM101 100h1v1H101zM103 100h1v1H103zM105 100h1v1H105zM107 100h1v1H107zM109 100h1v1H109zM111 100h1v1H111zM113 100h1v1H113zM115 100h1v1H115zM132 100h1v1H132zM136 100h1v1H136zM138 100h2v1H138zM142 100h1v1H142zM148 100h1v1H148zM156 100h1v1H156zM162 100h1v1H162zM166 100h1v1H166zM171 100h1v1H171zM173 100h1v1H173zM175 100h1v1H175zM177 100h1v1H177zM179 100h1v1H179zM181 100h1v1H181zM183 100h1v1H183zM185 100h1v1H185zM187 100h1v1H187zM189 100h1v1H189zM191 100h1v1H191zM193 100h1v1H193zM195 100h1v1H195zM197 100h1v1H197zM199 100h1v1H199zM201 100h1v1H201zM203 100h1v1H203zM205 100h1v1H205zM207 100h1v1H207zM209 100h1v1H209zM211 100h1v1H211zM213 100h1v1H213zM215 100h1v1H215zM217 100h1v1H217zM219 100h1v1H219zM221 100h1v1H221zM223 100h1v1H223zM225 100h1v1H225zM227 100h1v1H227zM229 100h1v1H229zM231 100h1v1H231zM233 100h1v1H233zM235 100h1v1H235zM237 100h1v1H237zM239 100h1v1H239zM241 100h1v1H241zM243 100h1v1H243zM245 100h1v1H245zM247 100h1v1H247zM249 100h1v1H249zM251 100h1v1H251zM253 100h1v1H253zM255 100h1v1H255zM257 100h1v1H257zM259 100h1v1H259zM261 100h1v1H261zM263 100h1v1H263zM265 100h1v1H265zM282 100h1v1H282zM286 100h1v1H286zM288 100h2v1H288zM292 100h1v1H292zM295 100h1v1H295zM0 101h1v1H0zM6 101h4v1H6zM12 101h1v1H12zM16 101h1v1H16zM21 101h1v1H21zM23 101h1v1H23zM25 101h1v1H25zM27 101h1v1H27zM29 101h1v1H29zM31 101h1v1H31zM33 101h1v1H33zM35 101h1v1H35zM37 101h1v1H37zM39 101h1v1H39zM41 101h1v1H41zM43 101h1v1H43zM45 101h1v1H45zM47 101h1v1H47zM49 101h1v1H49zM51 101h1v1H51zM53 101h1v1H53zM55 101h1v1H55zM57 101h1v1H57zM59 101h1v1H59zM61 101h1v1H61zM63 101h1v1H63zM65 101h1v1H65zM67 101h1v1H67zM69 101h1v1H69zM71 101h1v1H71zM73 101h1v1H73zM75 101h1v1H75zM77 101h1v1H77zM79 101h1v1H79zM81 101h1v1H81zM83 101h1v1H83zM85 101h1v1H85zM87 101h1v1H87zM89 101h1v1H89zM91 101h1v1H91zM93 101h1v1H93zM95 101h1v1H95zM97 101h1v1H97zM99 101h1v1H99zM101 101h1v1H101zM103 101h1v1H103zM105 101h1v1H105zM107 101h1v1H107zM109 101h1v1H109zM111 101h1v1H111zM113 101h1v1H113zM115 101h1v1H115zM132 101h1v1H132zM135 101h2v1H135zM141 101h1v1H141zM148 101h1v1H148zM156 101h4v1H156zM162 101h1v1H162zM166 101h1v1H166zM171 101h1v1H171zM173 101h1v1H173zM175 101h1v1H175zM177 101h1v1H177zM179 101h1v1H179zM181 101h1v1H181zM183 101h1v1H183zM185 101h1v1H185zM187 101h1v1H187zM189 101h1v1H189zM191 101h1v1H191zM193 101h1v1H193zM195 101h1v1H195zM197 101h1v1H197zM199 101h1v1H199zM201 101h1v1H201zM203 101h1v1H203zM205 101h1v1H205zM207 101h1v1H207zM209 101h1v1H209zM211 101h1v1H211zM213 101h1v1H213zM215 101h1v1H215zM217 101h1v1H217zM219 101h1v1H219zM221 101h1v1H221zM223 101h1v1H223zM225 101h1v1H225zM227 101h1v1H227zM229 101h1v1H229zM231 101h1v1H231zM233 101h1v1H233zM235 101h1v1H235zM237 101h1v1H237zM239 101h1v1H239zM241 101h1v1H241zM243 101h1v1H243zM245 101h1v1H245zM247 101h1v1H247zM249 101h1v1H249zM251 101h1v1H251zM253 101h1v1H253zM255 101h1v1H255zM257 101h1v1H257zM259 101h1v1H259zM261 101h1v1H261zM263 101h1v1H263zM265 101h1v1H265zM282 101h1v1H282zM285 101h2v1H285zM291 101h1v1H291zM295 101h1v1H295zM0 102h1v1H0zM10 102h1v1H10zM12 102h5v1H12zM21 102h1v1H21zM23 102h1v1H23zM25 102h1v1H25zM27 102h1v1H27zM29 102h1v1H29zM31 102h1v1H31zM33 102h1v1H33zM35 102h1v1H35zM37 102h1v1H37zM39 102h1v1H39zM41 102h1v1H41zM43 102h1v1H43zM45 102h1v1H45zM47 102h1v1H47zM49 102h1v1H49zM51 102h1v1H51zM53 102h1v1H53zM55 102h1v1H55zM57 102h1v1H57zM59 102h1v1H59zM61 102h1v1H61zM63 102h1v1H63zM65 102h1v1H65zM67 102h1v1H67zM69 102h1v1H69zM71 102h1v1H71zM73 102h1v1H73zM75 102h1v1H75zM77 102h1v1H77zM79 102h1v1H79zM81 102h1v1H81zM83 102h1v1H83zM85 102h1v1H85zM87 102h1v1H87zM89 102h1v1H89zM91 102h1v1H91zM93 102h1v1H93zM95 102h1v1H95zM97 102h1v1H97zM99 102h1v1H99zM101 102h1v1H101zM103 102h1v1H103zM105 102h1v1H105zM107 102h1v1H107zM109 102h1v1H109zM111 102h1v1H111zM113 102h1v1H113zM115 102h1v1H115zM132 102h1v1H132zM134 102h1v1H134zM136 102h1v1H136zM140 102h1v1H140zM148 102h1v1H148zM160 102h1v1H160zM162 102h5v1H162zM171 102h1v1H171zM173 102h1v1H173zM175 102h1v1H175zM177 102h1v1H177zM179 102h1v1H179zM181 102h1v1H181zM183 102h1v1H183zM185 102h1v1H185zM187 102h1v1H187zM189 102h1v1H189zM191 102h1v1H191zM193 102h1v1H193zM195 102h1v1H195zM197 102h1v1H197zM199 102h1v1H199zM201 102h1v1H201zM203 102h1v1H203zM205 102h1v1H205zM207 102h1v1H207zM209 102h1v1H209zM211 102h1v1H211zM213 102h1v1H213zM215 102h1v1H215zM217 102h1v1H217zM219 102h1v1H219zM221 102h1v1H221zM223 102h1v1H223zM225 102h1v1H225zM227 102h1v1H227zM229 102h1v1H229zM231 102h1v1H231zM233 102h1v1H233zM235 102h1v1H235zM237 102h1v1H237zM239 102h1v1H239zM241 102h1v1H241zM243 102h1v1H243zM245 102h1v1H245zM247 102h1v1H247zM249 102h1v1H249zM251 102h1v1H251zM253 102h1v1H253zM255 102h1v1H255zM257 102h1v1H257zM259 102h1v1H259zM261 102h1v1H261zM263 102h1v1H263zM265 102h1v1H265zM282 102h1v1H282zM284 102h1v1H284zM286 102h1v1H286zM290 102h1v1H290zM295 102h1v1H295zM0 103h1v1H0zM10 103h1v1H10zM12 103h1v1H12zM16 103h1v1H16zM21 103h1v1H21zM23 103h1v1H23zM25 103h1v1H25zM27 103h1v1H27zM29 103h1v1H29zM31 103h1v1H31zM33 103h1v1H33zM35 103h1v1H35zM37 103h1v1H37zM39 103h1v1H39zM41 103h1v1H41zM43 103h1v1H43zM45 103h1v1H45zM47 103h1v1H47zM49 103h1v1H49zM51 103h1v1H51zM53 103h1v1H53zM55 103h1v1H55zM57 103h1v1H57zM59 103h1v1H59zM61 103h1v1H61zM63 103h1v1H63zM65 103h1v1H65zM67 103h1v1H67zM69 103h1v1H69zM71 103h1v1H71zM73 103h1v1H73zM75 103h1v1H75zM77 103h1v1H77zM79 103h1v1H79zM81 103h1v1H81zM83 103h1v1H83zM85 103h1v1H85zM87 103h1v1H87zM89 103h1v1H89zM91 103h1v1H91zM93 103h1v1H93zM95 103h1v1H95zM97 103h1v1H97zM99 103h1v1H99zM101 103h1v1H101zM103 103h1v1H103zM105 103h1v1H105zM107 103h1v1H107zM109 103h1v1H109zM111 103h1v1H111zM113 103h1v1H113zM115 103h1v1H115zM132 103h2v1H132zM136 103h1v1H136zM139 103h1v1H139zM148 103h1v1H148zM160 103h1v1H160zM162 103h1v1H162zM166 103h1v1H166zM171 103h1v1H171zM173 103h1v1H173zM175 103h1v1H175zM177 103h1v1H177zM179 103h1v1H179zM181 103h1v1H181zM183 103h1v1H183zM185 103h1v1H185zM187 103h1v1H187zM189 103h1v1H189zM191 103h1v1H191zM193 103h1v1H193zM195 103h1v1H195zM197 103h1v1H197zM199 103h1v1H199zM201 103h1v1H201zM203 103h1v1H203zM205 103h1v1H205zM207 103h1v1H207zM209 103h1v1H209zM211 103h1v1H211zM213 103h1v1H213zM215 103h1v1H215zM217 103h1v1H217zM219 103h1v1H219zM221 103h1v1H221zM223 103h1v1H223zM225 103h1v1H225zM227 103h1v1H227zM229 103h1v1H229zM231 103h1v1H231zM233 103h1v1H233zM235 103h1v1H235zM237 103h1v1H237zM239 103h1v1H239zM241 103h1v1H241zM243 103h1v1H243zM245 103h1v1H245zM247 103h1v1H247zM249 103h1v1H249zM251 103h1v1H251zM253 103h1v1H253zM255 103h1v1H255zM257 103h1v1H257zM259 103h1v1H259zM261 103h1v1H261zM263 103h1v1H263zM265 103h1v1H265zM282 103h2v1H282zM286 103h1v1H286zM289 103h1v1H289zM295 103h1v1H295zM0 104h1v1H0zM6 104h1v1H6zM10 104h1v1H10zM12 104h1v1H12zM16 104h1v1H16zM21 104h3v1H21zM25 104h3v1H25zM29 104h3v1H29zM33 104h3v1H33zM37 104h3v1H37zM41 104h3v1H41zM45 104h3v1H45zM49 104h3v1H49zM53 104h3v1H53zM57 104h3v1H57zM61 104h3v1H61zM65 104h3v1H65zM69 104h3v1H69zM73 104h3v1H73zM77 104h3v1H77zM81 104h3v1H81zM85 104h3v1H85zM89 104h3v1H89zM93 104h3v1H93zM97 104h3v1H97zM101 104h3v1H101zM105 104h3v1H105zM109 104h3v1H109zM113 104h3v1H113zM132 104h1v1H132zM136 104h1v1H136zM138 104h1v1H138zM141 104h2v1H141zM148 104h1v1H148zM156 104h1v1H156zM160 104h1v1H160zM162 104h1v1H162zM166 104h1v1H166zM171 104h3v1H171zM175 104h3v1H175zM179 104h3v1H179zM183 104h3v1H183zM187 104h3v1H187zM191 104h3v1H191zM195 104h3v1H195zM199 104h3v1H199zM203 104h3v1H203zM207 104h3v1H207zM211 104h3v1H211zM215 104h3v1H215zM219 104h3v1H219zM223 104h3v1H223zM227 104h3v1H227zM231 104h3v1H231zM235 104h3v1H235zM239 104h3v1H239zM243 104h3v1H243zM247 104h3v1H247zM251 104h3v1H251zM255 104h3v1H255zM259 104h3v1H259zM263 104h3v1H263zM282 104h1v1H282zM286 104h1v1H286zM288 104h1v1H288zM291 104h2v1H291zM295 104h1v1H295zM0 105h1v1H0zM7 105h3v1H7zM12 105h1v1H12zM16 105h1v1H16zM133 105h3v1H133zM141 105h2v1H141zM148 105h1v1H148zM157 105h3v1H157zM162 105h1v1H162zM166 105h1v1H166zM283 105h3v1H283zM291 105h2v1H291zM295 105h1v1H295zM0 106h1v1H0zM148 106h1v1H148zM295 106h1v1H295zM0 107h1v1H0zM148 107h1v1H148zM295 107h1v1H295zM0 108h1v1H0zM6 108h5v1H6zM12 108h3v1H12zM21 108h3v1H21zM25 108h3v1H25zM29 108h3v1H29zM33 108h3v1H33zM37 108h3v1H37zM41 108h3v1H41zM45 108h3v1H45zM49 108h3v1H49zM53 108h3v1H53zM57 108h3v1H57zM61 108h3v1H61zM65 108h3v1H65zM69 108h3v1H69zM73 108h3v1H73zM77 108h3v1H77zM81 108h3v1H81zM85 108h3v1H85zM89 108h3v1H89zM93 108h3v1H93zM97 108h3v1H97zM101 108h3v1H101zM105 108h3v1H105zM109 108h3v1H109zM113 108h3v1H113zM133 108h3v1H133zM138 108h2v1H138zM148 108h1v1H148zM156 108h5v1H156zM162 108h3v1H162zM171 108h3v1H171zM175 108h3v1H175zM179 108h3v1H179zM183 108h3v1H183zM187 108h3v1H187zM191 108h3v1H191zM195 108h3v1H195zM199 108h3v1H199zM203 108h3v1H203zM207 108h3v1H207zM211 108h3v1H211zM215 108h3v1H215zM219 108h3v1H219zM223 108h3v1H223zM227 108h3v1H227zM231 108h3v1H231zM235 108h3v1H235zM239 108h3v1H239zM243 108h3v1H243zM247 108h3v1H247zM251 108h3v1H251zM255 108h3v1H255zM259 108h3v1H259zM263 108h3v1H263zM276 108h5v1H276zM285 108h1v1H285zM288 108h2v1H288zM295 108h1v1H295zM0 109h1v1H0zM10 109h1v1H10zM12 109h1v1H12zM15 109h1v1H15zM21 109h3v1H21zM25 109h3v1H25zM29 109h1v1H29zM31 109h1v1H31zM33 109h1v1H33zM35 109h1v1H35zM37 109h1v1H37zM39 109h1v1H39zM41 109h1v1H41zM43 109h1v1H43zM45 109h1v1H45zM47 109h1v1H47zM49 109h1v1H49zM51 109h1v1H51zM53 109h1v1H53zM55 109h1v1H55zM57 109h1v1H57zM59 109h1v1H59zM61 109h1v1H61zM63 109h1v1H63zM65 109h1v1H65zM67 109h1v1H67zM69 109h1v1H69zM71 109h1v1H71zM73 109h1v1H73zM75 109h1v1H75zM77 109h1v1H77zM79 109h1v1H79zM81 109h1v1H81zM83 109h1v1H83zM85 109h1v1H85zM87 109h1v1H87zM89 109h1v1H89zM91 109h1v1H91zM93 109h1v1H93zM95 109h1v1H95zM97 109h1v1H97zM99 109h1v1H99zM101 109h1v1H101zM103 109h1v1H103zM105 109h1v1H105zM107 109h1v1H107zM109 109h1v1H109zM111 109h1v1H111zM113 109h1v1H113zM115 109h1v1H115zM132 109h1v1H132zM136 109h1v1H136zM138 109h2v1H138zM142 109h1v1H142zM148 109h1v1H148zM160 109h1v1H160zM162 109h1v1H162zM165 109h1v1H165zM171 109h3v1H171zM175 109h3v1H175zM179 109h3v1H179zM183 109h3v1H183zM187 109h3v1H187zM191 109h3v1H191zM195 109h3v1H195zM199 109h3v1H199zM203 109h1v1H203zM205 109h1v1H205zM207 109h1v1H207zM209 109h1v1H209zM211 109h1v1H211zM213 109h1v1H213zM215 109h1v1H215zM217 109h1v1H217zM219 109h1v1H219zM221 109h1v1H221zM223 109h1v1H223zM225 109h1v1H225zM227 109h1v1H227zM229 109h1v1H229zM231 109h1v1H231zM233 109h1v1H233zM235 109h1v1H235zM237 109h1v1H237zM239 109h1v1H239zM241 109h1v1H241zM243 109h1v1H243zM245 109h1v1H245zM247 109h1v1H247zM249 109h1v1H249zM251 109h1v1H251zM253 109h1v1H253zM255 109h1v1H255zM257 109h1v1H257zM259 109h1v1H259zM261 109h1v1H261zM263 109h1v1H263zM265 109h1v1H265zM279 109h1v1H279zM284 109h2v1H284zM288 109h2v1H288zM292 109h1v1H292zM295 109h1v1H295zM0 110h1v1H0zM9 110h1v1H9zM12 110h1v1H12zM16 110h1v1H16zM21 110h3v1H21zM25 110h3v1H25zM29 110h1v1H29zM31 110h1v1H31zM33 110h1v1H33zM35 110h1v1H35zM37 110h1v1H37zM39 110h1v1H39zM41 110h1v1H41zM43 110h1v1H43zM45 110h1v1H45zM47 110h1v1H47zM49 110h1v1H49zM51 110h1v1H51zM53 110h1v1H53zM55 110h1v1H55zM57 110h1v1H57zM59 110h1v1H59zM61 110h1v1H61zM63 110h1v1H63zM65 110h1v1H65zM67 110h1v1H67zM69 110h1v1H69zM71 110h1v1H71zM73 110h1v1H73zM75 110h1v1H75zM77 110h1v1H77zM79 110h1v1H79zM81 110h1v1H81zM83 110h1v1H83zM85 110h1v1H85zM87 110h1v1H87zM89 110h1v1H89zM91 110h1v1H91zM93 110h1v1H93zM95 110h1v1H95zM97 110h1v1H97zM99 110h1v1H99zM101 110h1v1H101zM103 110h1v1H103zM105 110h1v1H105zM107 110h1v1H107zM109 110h1v1H109zM111 110h1v1H111zM113 110h1v1H113zM115 110h1v1H115zM132 110h1v1H132zM136 110h1v1H136zM141 110h1v1H141zM148 110h1v1H148zM159 110h1v1H159zM162 110h1v1H162zM166 110h1v1H166zM171 110h3v1H171zM175 110h3v1H175zM179 110h3v1H179zM183 110h3v1H183zM187 110h3v1H187zM191 110h3v1H191zM195 110h3v1H195zM199 110h3v1H199zM203 110h1v1H203zM205 110h1v1H205zM207 110h1v1H207zM209 110h1v1H209zM211 110h1v1H211zM213 110h1v1H213zM215 110h1v1H215zM217 110h1v1H217zM219 110h1v1H219zM221 110h1v1H221zM223 110h1v1H223zM225 110h1v1H225zM227 110h1v1H227zM229 110h1v1H229zM231 110h1v1H231zM233 110h1v1H233zM235 110h1v1H235zM237 110h1v1H237zM239 110h1v1H239zM241 110h1v1H241zM243 110h1v1H243zM245 110h1v1H245zM247 110h1v1H247zM249 110h1v1H249zM251 110h1v1H251zM253 110h1v1H253zM255 110h1v1H255zM257 110h1v1H257zM259 110h1v1H259zM261 110h1v1H261zM263 110h1v1H263zM265 110h1v1H265zM278 110h1v1H278zM283 110h1v1H283zM285 110h1v1H285zM291 110h1v1H291zM295 110h1v1H295zM0 111h1v1H0zM8 111h1v1H8zM12 111h1v1H12zM16 111h1v1H16zM21 111h3v1H21zM25 111h3v1H25zM29 111h1v1H29zM31 111h1v1H31zM33 111h1v1H33zM35 111h1v1H35zM37 111h1v1H37zM39 111h1v1H39zM41 111h1v1H41zM43 111h1v1H43zM45 111h1v1H45zM47 111h1v1H47zM49 111h1v1H49zM51 111h1v1H51zM53 111h1v1H53zM55 111h1v1H55zM57 111h1v1H57zM59 111h1v1H59zM61 111h1v1H61zM63 111h1v1H63zM65 111h1v1H65zM67 111h1v1H67zM69 111h1v1H69zM71 111h1v1H71zM73 111h1v1H73zM75 111h1v1H75zM77 111h1v1H77zM79 111h1v1H79zM81 111h1v1H81zM83 111h1v1H83zM85 111h1v1H85zM87 111h1v1H87zM89 111h1v1H89zM91 111h1v1H91zM93 111h1v1H93zM95 111h1v1H95zM97 111h1v1H97zM99 111h1v1H99zM101 111h1v1H101zM103 111h1v1H103zM105 111h1v1H105zM107 111h1v1H107zM109 111h1v1H109zM111 111h1v1H111zM113 111h1v1H113zM115 111h1v1H115zM133 111h3v1H133zM140 111h1v1H140zM148 111h1v1H148zM158 111h1v1H158zM162 111h1v1H162zM166 111h1v1H166zM171 111h3v1H171zM175 111h3v1H175zM179 111h3v1H179zM183 111h3v1H183zM187 111h3v1H187zM191 111h3v1H191zM195 111h3v1H195zM199 111h3v1H199zM203 111h1v1H203zM205 111h1v1H205zM207 111h1v1H207zM209 111h1v1H209zM211 111h1v1H211zM213 111h1v1H213zM215 111h1v1H215zM217 111h1v1H217zM219 111h1v1H219zM221 111h1v1H221zM223 111h1v1H223zM225 111h1v1H225zM227 111h1v1H227zM229 111h1v1H229zM231 111h1v1H231zM233 111h1v1H233zM235 111h1v1H235zM237 111h1v1H237zM239 111h1v1H239zM241 111h1v1H241zM243 111h1v1H243zM245 111h1v1H245zM247 111h1v1H247zM249 111h1v1H249zM251 111h1v1H251zM253 111h1v1H253zM255 111h1v1H255zM257 111h1v1H257zM259 111h1v1H259zM261 111h1v1H261zM263 111h1v1H263zM265 111h1v1H265zM279 111h1v1H279zM282 111h1v1H282zM285 111h1v1H285zM290 111h1v1H290zM295 111h1v1H295zM0 112h1v1H0zM7 112h1v1H7zM12 112h1v1H12zM16 112h1v1H16zM21 112h3v1H21zM25 112h3v1H25zM29 112h1v1H29zM31 112h1v1H31zM33 112h1v1H33zM35 112h1v1H35zM37 112h1v1H37zM39 112h1v1H39zM41 112h1v1H41zM43 112h1v1H43zM45 112h1v1H45zM47 112h1v1H47zM49 112h1v1H49zM51 112h1v1H51zM53 112h1v1H53zM55 112h1v1H55zM57 112h1v1H57zM59 112h1v1H59zM61 112h1v1H61zM63 112h1v1H63zM65 112h1v1H65zM67 112h1v1H67zM69 112h1v1H69zM71 112h1v1H71zM73 112h1v1H73zM75 112h1v1H75zM77 112h1v1H77zM79 112h1v1H79zM81 112h1v1H81zM83 112h1v1H83zM85 112h1v1H85zM87 112h1v1H87zM89 112h1v1H89zM91 112h1v1H91zM93 112h1v1H93zM95 112h1v1H95zM97 112h1v1H97zM99 112h1v1H99zM101 112h1v1H101zM103 112h1v1H103zM105 112h1v1H105zM107 112h1v1H107zM109 112h1v1H109zM111 112h1v1H111zM113 112h1v1H113zM115 112h1v1H115zM132 112h1v1H132zM136 112h1v1H136zM139 112h1v1H139zM148 112h1v1H148zM157 112h1v1H157zM162 112h1v1H162zM166 112h1v1H166zM171 112h3v1H171zM175 112h3v1H175zM179 112h3v1H179zM183 112h3v1H183zM187 112h3v1H187zM191 112h3v1H191zM195 112h3v1H195zM199 112h3v1H199zM203 112h1v1H203zM205 112h1v1H205zM207 112h1v1H207zM209 112h1v1H209zM211 112h1v1H211zM213 112h1v1H213zM215 112h1v1H215zM217 112h1v1H217zM219 112h1v1H219zM221 112h1v1H221zM223 112h1v1H223zM225 112h1v1H225zM227 112h1v1H227zM229 112h1v1H229zM231 112h1v1H231zM233 112h1v1H233zM235 112h1v1H235zM237 112h1v1H237zM239 112h1v1H239zM241 112h1v1H241zM243 112h1v1H243zM245 112h1v1H245zM247 112h1v1H247zM249 112h1v1H249zM251 112h1v1H251zM253 112h1v1H253zM255 112h1v1H255zM257 112h1v1H257zM259 112h1v1H259zM261 112h1v1H261zM263 112h1v1H263zM265 112h1v1H265zM280 112h1v1H280zM282 112h5v1H282zM289 112h1v1H289zM295 112h1v1H295zM0 113h1v1H0zM7 113h1v1H7zM12 113h1v1H12zM15 113h1v1H15zM21 113h3v1H21zM25 113h3v1H25zM29 113h3v1H29zM33 113h3v1H33zM37 113h3v1H37zM41 113h3v1H41zM45 113h3v1H45zM49 113h3v1H49zM53 113h3v1H53zM57 113h3v1H57zM61 113h3v1H61zM65 113h3v1H65zM69 113h3v1H69zM73 113h3v1H73zM77 113h3v1H77zM81 113h3v1H81zM85 113h3v1H85zM89 113h3v1H89zM93 113h3v1H93zM97 113h3v1H97zM101 113h3v1H101zM105 113h3v1H105zM109 113h3v1H109zM113 113h3v1H113zM132 113h1v1H132zM136 113h1v1H136zM138 113h1v1H138zM141 113h2v1H141zM148 113h1v1H148zM157 113h1v1H157zM162 113h1v1H162zM165 113h1v1H165zM171 113h3v1H171zM175 113h3v1H175zM179 113h3v1H179zM183 113h3v1H183zM187 113h3v1H187zM191 113h3v1H191zM195 113h3v1H195zM199 113h3v1H199zM203 113h3v1H203zM207 113h3v1H207zM211 113h3v1H211zM215 113h3v1H215zM219 113h3v1H219zM223 113h3v1H223zM227 113h3v1H227zM231 113h3v1H231zM235 113h3v1H235zM239 113h3v1H239zM243 113h3v1H243zM247 113h3v1H247zM251 113h3v1H251zM255 113h3v1H255zM259 113h3v1H259zM263 113h3v1H263zM276 113h1v1H276zM280 113h1v1H280zM285 113h1v1H285zM288 113h1v1H288zM291 113h2v1H291zM295 113h1v1H295zM0 114h1v1H0zM7 114h1v1H7zM12 114h3v1H12zM133 114h3v1H133zM141 114h2v1H141zM148 114h1v1H148zM157 114h1v1H157zM162 114h3v1H162zM277 114h3v1H277zM285 114h1v1H285zM291 114h2v1H291zM295 114h1v1H295zM0 115h1v1H0zM148 115h1v1H148zM295 115h1v1H295zM0 116h1v1H0zM148 116h1v1H148zM295 116h1v1H295zM0 117h1v1H0zM148 117h1v1H148zM295 117h1v1H295zM0 118h1v1H0zM148 118h1v1H148zM295 118h1v1H295zM0 119h1v1H0zM148 119h1v1H148zM295 119h1v1H295zM0 120h1v1H0zM148 120h1v1H148zM295 120h1v1H295zM0 121h1v1H0zM148 121h1v1H148zM295 121h1v1H295zM0 122h1v1H0zM148 122h1v1H148zM295 122h1v1H295zM0 123h1v1H0zM148 123h1v1H148zM295 123h1v1H295zM0 124h1v1H0zM148 124h1v1H148zM295 124h1v1H295zM0 125h1v1H0zM295 125h1v1H295zM0 126h1v1H0zM295 126h1v1H295zM0 127h295v1H0z"/>
<path fill="#d62518" d="M21 68h3v1H21zM121 68h3v1H121zM133 68h3v1H133zM140 68h1v1H140zM171 68h3v1H171zM288 68h5v1H288zM21 69h3v1H21zM120 69h1v1H120zM124 69h1v1H124zM132 69h1v1H132zM136 69h1v1H136zM139 69h2v1H139zM171 69h3v1H171zM291 69h1v1H291zM21 70h3v1H21zM120 70h1v1H120zM123 70h2v1H123zM132 70h1v1H132zM136 70h1v1H136zM140 70h1v1H140zM171 70h3v1H171zM290 70h1v1H290zM21 71h3v1H21zM120 71h1v1H120zM122 71h1v1H122zM124 71h1v1H124zM133 71h4v1H133zM140 71h1v1H140zM171 71h3v1H171zM291 71h1v1H291zM21 72h3v1H21zM120 72h2v1H120zM124 72h1v1H124zM127 72h2v1H127zM136 72h1v1H136zM140 72h1v1H140zM171 72h3v1H171zM292 72h1v1H292zM21 73h3v1H21zM120 73h1v1H120zM124 73h1v1H124zM128 73h1v1H128zM135 73h1v1H135zM140 73h1v1H140zM171 73h3v1H171zM288 73h1v1H288zM292 73h1v1H292zM121 74h3v1H121zM127 74h1v1H127zM133 74h2v1H133zM139 74h3v1H139zM289 74h3v1H289z"/>
</g>
</svg>
