<svg xmlns="http://www.w3.org/2000/svg" width="888" height="384" viewBox="0 0 296 128" role="img" aria-labelledby="title">
<title id="title">DevDash API error screen</title>
<rect width="296" height="128" fill="#fff"/>
<g shape-rendering="crispEdges">
<path fill="#111" d="M2 15h292v1H2zM7 30h3v1H7zM12 30h4v1H12zM19 30h3v1H19zM66 30h1v1H66zM78 30h1v1H78zM85 30h2v1H85zM6 31h1v1H6zM10 31h1v1H10zM12 31h1v1H12zM16 31h1v1H16zM20 31h1v1H20zM66 31h1v1H66zM78 31h1v1H78zM86 31h1v1H86zM6 32h1v1H6zM10 32h1v1H10zM12 32h1v1H12zM16 32h1v1H16zM20 32h1v1H20zM30 32h1v1H30zM34 32h1v1H34zM36 32h1v1H36zM38 32h2v1H38zM42 32h1v1H42zM44 32h2v1H44zM49 32h3v1H49zM55 32h3v1H55zM61 32h3v1H61zM66 32h1v1H66zM68 32h2v1H68zM73 32h3v1H73zM78 32h1v1H78zM80 32h2v1H80zM86 32h1v1H86zM91 32h3v1H91zM6 33h1v1H6zM10 33h1v1H10zM12 33h4v1H12zM20 33h1v1H20zM30 33h1v1H30zM34 33h1v1H34zM36 33h2v1H36zM40 33h1v1H40zM42 33h2v1H42zM46 33h1v1H46zM48 33h1v1H48zM52 33h1v1H52zM58 33h1v1H58zM60 33h1v1H60zM66 33h2v1H66zM70 33h1v1H70zM76 33h1v1H76zM78 33h2v1H78zM82 33h1v1H82zM86 33h1v1H86zM90 33h1v1H90zM94 33h1v1H94zM6 34h5v1H6zM12 34h1v1H12zM20 34h1v1H20zM30 34h1v1H30zM34 34h1v1H34zM36 34h1v1H36zM40 34h1v1H40zM42 34h1v1H42zM48 34h5v1H48zM55 34h4v1H55zM60 34h1v1H60zM66 34h1v1H66zM70 34h1v1H70zM73 34h4v1H73zM78 34h1v1H78zM82 34h1v1H82zM86 34h1v1H86zM90 34h5v1H90zM6 35h1v1H6zM10 35h1v1H10zM12 35h1v1H12zM20 35h1v1H20zM30 35h1v1H30zM33 35h2v1H33zM36 35h1v1H36zM40 35h1v1H40zM42 35h1v1H42zM48 35h1v1H48zM54 35h1v1H54zM58 35h1v1H58zM60 35h1v1H60zM64 35h1v1H64zM66 35h1v1H66zM70 35h1v1H70zM72 35h1v1H72zM76 35h1v1H76zM78 35h1v1H78zM82 35h1v1H82zM86 35h1v1H86zM90 35h1v1H90zM6 36h1v1H6zM10 36h1v1H10zM12 36h1v1H12zM19 36h3v1H19zM31 36h2v1H31zM34 36h1v1H34zM36 36h1v1H36zM40 36h1v1H40zM42 36h1v1H42zM49 36h3v1H49zM55 36h4v1H55zM61 36h3v1H61zM66 36h1v1H66zM70 36h1v1H70zM73 36h4v1H73zM78 36h4v1H78zM85 36h3v1H85zM91 36h3v1H91z"/>
<path fill="#d62518" d="M6 4h1v1H6zM7 5h1v1H7zM13 5h1v1H13zM20 5h3v1H20zM25 5h5v1H25zM31 5h5v1H31zM37 5h1v1H37zM44 5h3v1H44zM49 5h1v1H49zM53 5h1v1H53zM55 5h5v1H55zM8 6h1v1H8zM12 6h1v1H12zM19 6h1v1H19zM23 6h1v1H23zM25 6h1v1H25zM31 6h1v1H31zM37 6h1v1H37zM45 6h1v1H45zM49 6h1v1H49zM53 6h1v1H53zM55 6h1v1H55zM9 7h1v1H9zM11 7h1v1H11zM19 7h1v1H19zM23 7h1v1H23zM25 7h1v1H25zM31 7h1v1H31zM37 7h1v1H37zM45 7h1v1H45zM49 7h2v1H49zM53 7h1v1H53zM55 7h1v1H55zM9 8h2v1H9zM19 8h1v1H19zM23 8h1v1H23zM25 8h4v1H25zM31 8h4v1H31zM37 8h1v1H37zM45 8h1v1H45zM49 8h1v1H49zM51 8h1v1H51zM53 8h1v1H53zM55 8h4v1H55zM8 9h1v1H8zM11 9h1v1H11zM19 9h1v1H19zM23 9h1v1H23zM25 9h1v1H25zM31 9h1v1H31zM37 9h1v1H37zM45 9h1v1H45zM49 9h1v1H49zM52 9h2v1H52zM55 9h1v1H55zM7 10h1v1H7zM12 10h1v1H12zM19 10h1v1H19zM23 10h1v1H23zM25 10h1v1H25zM31 10h1v1H31zM37 10h1v1H37zM45 10h1v1H45zM49 10h1v1H49zM53 10h1v1H53zM55 10h1v1H55zM6 11h1v1H6zM13 11h1v1H13zM20 11h3v1H20zM25 11h1v1H25zM31 11h1v1H31zM37 11h5v1H37zM44 11h3v1H44zM49 11h1v1H49zM53 11h1v1H53zM55 11h5v1H55z"/>
</g>
</svg>
