<svg xmlns="http://www.w3.org/2000/svg" width="888" height="384" viewBox="0 0 296 128" role="img" aria-labelledby="title">
<title id="title">DevDash no WiFi screen</title>
<rect width="296" height="128" fill="#fff"/>
<g shape-rendering="crispEdges">
<path fill="#111" d="M2 15h292v1H2zM6 30h1v1H6zM10 30h1v1H10zM14 30h1v1H14zM18 30h5v1H18zM26 30h1v1H26zM72 30h1v1H72zM84 30h1v1H84zM91 30h2v1H91zM6 31h1v1H6zM10 31h1v1H10zM18 31h1v1H18zM72 31h1v1H72zM84 31h1v1H84zM92 31h1v1H92zM6 32h1v1H6zM10 32h1v1H10zM13 32h2v1H13zM18 32h1v1H18zM25 32h2v1H25zM36 32h1v1H36zM40 32h1v1H40zM42 32h1v1H42zM44 32h2v1H44zM48 32h1v1H48zM50 32h2v1H50zM55 32h3v1H55zM61 32h3v1H61zM67 32h3v1H67zM72 32h1v1H72zM74 32h2v1H74zM79 32h3v1H79zM84 32h1v1H84zM86 32h2v1H86zM92 32h1v1H92zM97 32h3v1H97zM6 33h1v1H6zM8 33h1v1H8zM10 33h1v1H10zM14 33h1v1H14zM18 33h4v1H18zM26 33h1v1H26zM36 33h1v1H36zM40 33h1v1H40zM42 33h2v1H42zM46 33h1v1H46zM48 33h2v1H48zM52 33h1v1H52zM54 33h1v1H54zM58 33h1v1H58zM64 33h1v1H64zM66 33h1v1H66zM72 33h2v1H72zM76 33h1v1H76zM82 33h1v1H82zM84 33h2v1H84zM88 33h1v1H88zM92 33h1v1H92zM96 33h1v1H96zM100 33h1v1H100zM6 34h1v1H6zM8 34h1v1H8zM10 34h1v1H10zM14 34h1v1H14zM18 34h1v1H18zM26 34h1v1H26zM36 34h1v1H36zM40 34h1v1H40zM42 34h1v1H42zM46 34h1v1H46zM48 34h1v1H48zM54 34h5v1H54zM61 34h4v1H61zM66 34h1v1H66zM72 34h1v1H72zM76 34h1v1H76zM79 34h4v1H79zM84 34h1v1H84zM88 34h1v1H88zM92 34h1v1H92zM96 34h5v1H96zM6 35h1v1H6zM8 35h1v1H8zM10 35h1v1H10zM14 35h1v1H14zM18 35h1v1H18zM26 35h1v1H26zM36 35h1v1H36zM39 35h2v1H39zM42 35h1v1H42zM46 35h1v1H46zM48 35h1v1H48zM54 35h1v1H54zM60 35h1v1H60zM64 35h1v1H64zM66 35h1v1H66zM70 35h1v1H70zM72 35h1v1H72zM76 35h1v1H76zM78 35h1v1H78zM82 35h1v1H82zM84 35h1v1H84zM88 35h1v1H88zM92 35h1v1H92zM96 35h1v1H96zM7 36h1v1H7zM9 36h1v1H9zM13 36h3v1H13zM18 36h1v1H18zM25 36h3v1H25zM37 36h2v1H37zM40 36h1v1H40zM42 36h1v1H42zM46 36h1v1H46zM48 36h1v1H48zM55 36h3v1H55zM61 36h4v1H61zM67 36h3v1H67zM72 36h1v1H72zM76 36h1v1H76zM79 36h4v1H79zM84 36h4v1H84zM91 36h3v1H91zM97 36h3v1H97z"/>
<path fill="#d62518" d="M6 4h1v1H6zM7 5h1v1H7zM13 5h1v1H13zM20 5h3v1H20zM25 5h5v1H25zM31 5h5v1H31zM37 5h1v1H37zM44 5h3v1H44zM49 5h1v1H49zM53 5h1v1H53zM55 5h5v1H55zM8 6h1v1H8zM12 6h1v1H12zM19 6h1v1H19zM23 6h1v1H23zM25 6h1v1H25zM31 6h1v1H31zM37 6h1v1H37zM45 6h1v1H45zM49 6h1v1H49zM53 6h1v1H53zM55 6h1v1H55zM9 7h1v1H9zM11 7h1v1H11zM19 7h1v1H19zM23 7h1v1H23zM25 7h1v1H25zM31 7h1v1H31zM37 7h1v1H37zM45 7h1v1H45zM49 7h2v1H49zM53 7h1v1H53zM55 7h1v1H55zM9 8h2v1H9zM19 8h1v1H19zM23 8h1v1H23zM25 8h4v1H25zM31 8h4v1H31zM37 8h1v1H37zM45 8h1v1H45zM49 8h1v1H49zM51 8h1v1H51zM53 8h1v1H53zM55 8h4v1H55zM8 9h1v1H8zM11 9h1v1H11zM19 9h1v1H19zM23 9h1v1H23zM25 9h1v1H25zM31 9h1v1H31zM37 9h1v1H37zM45 9h1v1H45zM49 9h1v1H49zM52 9h2v1H52zM55 9h1v1H55zM7 10h1v1H7zM12 10h1v1H12zM19 10h1v1H19zM23 10h1v1H23zM25 10h1v1H25zM31 10h1v1H31zM37 10h1v1H37zM45 10h1v1H45zM49 10h1v1H49zM53 10h1v1H53zM55 10h1v1H55zM6 11h1v1H6zM13 11h1v1H13zM20 11h3v1H20zM25 11h1v1H25zM31 11h1v1H31zM37 11h5v1H37zM44 11h3v1H44zM49 11h1v1H49zM53 11h1v1H53zM55 11h5v1H55z"/>
</g>
</svg>
