<svg xmlns="http://www.w3.org/2000/svg" width="888" height="384" viewBox="0 0 296 128" role="img" aria-labelledby="title">
<title id="title">DevDash API error screen</title>
<rect width="296" height="128" fill="#fff"/>
<g shape-rendering="crispEdges">
<path fill="#111" d="M1 1h294v1H1zM1 2h1v1H1zM294 2h1v1H294zM1 3h1v1H1zM294 3h1v1H294zM1 4h1v1H1zM6 4h9v1H6zM19 4h3v1H19zM25 4h5v1H25zM31 4h1v1H31zM35 4h1v1H35zM37 4h3v1H37zM44 4h3v1H44zM50 4h4v1H50zM55 4h1v1H55zM59 4h1v1H59zM294 4h1v1H294zM1 5h1v1H1zM6 5h9v1H6zM19 5h1v1H19zM22 5h1v1H22zM25 5h1v1H25zM31 5h1v1H31zM35 5h1v1H35zM37 5h1v1H37zM40 5h1v1H40zM43 5h1v1H43zM47 5h1v1H47zM49 5h1v1H49zM55 5h1v1H55zM59 5h1v1H59zM294 5h1v1H294zM1 6h1v1H1zM6 6h2v1H6zM13 6h2v1H13zM19 6h1v1H19zM23 6h1v1H23zM25 6h1v1H25zM31 6h1v1H31zM35 6h1v1H35zM37 6h1v1H37zM41 6h1v1H41zM43 6h1v1H43zM47 6h1v1H47zM49 6h1v1H49zM55 6h1v1H55zM59 6h1v1H59zM294 6h1v1H294zM1 7h1v1H1zM6 7h2v1H6zM9 7h3v1H9zM13 7h2v1H13zM19 7h1v1H19zM23 7h1v1H23zM25 7h4v1H25zM31 7h1v1H31zM35 7h1v1H35zM37 7h1v1H37zM41 7h1v1H41zM43 7h1v1H43zM47 7h1v1H47zM50 7h3v1H50zM55 7h5v1H55zM294 7h1v1H294zM1 8h1v1H1zM6 8h2v1H6zM9 8h3v1H9zM13 8h2v1H13zM19 8h1v1H19zM23 8h1v1H23zM25 8h1v1H25zM31 8h1v1H31zM35 8h1v1H35zM37 8h1v1H37zM41 8h1v1H41zM43 8h5v1H43zM53 8h1v1H53zM55 8h1v1H55zM59 8h1v1H59zM294 8h1v1H294zM1 9h1v1H1zM6 9h2v1H6zM9 9h3v1H9zM13 9h2v1H13zM19 9h1v1H19zM22 9h1v1H22zM25 9h1v1H25zM32 9h1v1H32zM34 9h1v1H34zM37 9h1v1H37zM40 9h1v1H40zM43 9h1v1H43zM47 9h1v1H47zM53 9h1v1H53zM55 9h1v1H55zM59 9h1v1H59zM294 9h1v1H294zM1 10h1v1H1zM6 10h2v1H6zM13 10h2v1H13zM19 10h3v1H19zM25 10h5v1H25zM33 10h1v1H33zM37 10h3v1H37zM43 10h1v1H43zM47 10h1v1H47zM49 10h4v1H49zM55 10h1v1H55zM59 10h1v1H59zM294 10h1v1H294zM1 11h1v1H1zM6 11h9v1H6zM294 11h1v1H294zM1 12h1v1H1zM6 12h9v1H6zM294 12h1v1H294zM1 13h1v1H1zM294 13h1v1H294zM1 14h294v1H1zM1 15h1v1H1zM294 15h1v1H294zM1 16h1v1H1zM294 16h1v1H294zM1 17h1v1H1zM294 17h1v1H294zM1 18h1v1H1zM294 18h1v1H294zM1 19h1v1H1zM294 19h1v1H294zM1 20h1v1H1zM294 20h1v1H294zM1 21h1v1H1zM294 21h1v1H294zM1 22h1v1H1zM122 22h1v1H122zM126 22h1v1H126zM128 22h4v1H128zM135 22h4v1H135zM140 22h5v1H140zM146 22h4v1H146zM152 22h5v1H152zM159 22h3v1H159zM164 22h1v1H164zM168 22h1v1H168zM171 22h4v1H171zM193 22h3v1H193zM198 22h1v1H198zM204 22h1v1H204zM216 22h3v1H216zM223 22h3v1H223zM228 22h1v1H228zM232 22h1v1H232zM234 22h1v1H234zM238 22h1v1H238zM294 22h1v1H294zM1 23h1v1H1zM122 23h1v1H122zM126 23h1v1H126zM128 23h1v1H128zM132 23h1v1H132zM134 23h1v1H134zM142 23h1v1H142zM146 23h1v1H146zM150 23h1v1H150zM152 23h1v1H152zM158 23h1v1H158zM162 23h1v1H162zM164 23h2v1H164zM167 23h2v1H167zM170 23h1v1H170zM192 23h1v1H192zM196 23h1v1H196zM198 23h1v1H198zM204 23h1v1H204zM216 23h1v1H216zM219 23h1v1H219zM222 23h1v1H222zM226 23h1v1H226zM228 23h1v1H228zM232 23h1v1H232zM234 23h1v1H234zM238 23h1v1H238zM294 23h1v1H294zM1 24h1v1H1zM122 24h1v1H122zM126 24h1v1H126zM128 24h1v1H128zM132 24h1v1H132zM134 24h1v1H134zM142 24h1v1H142zM146 24h1v1H146zM150 24h1v1H150zM152 24h1v1H152zM158 24h1v1H158zM162 24h1v1H162zM164 24h1v1H164zM166 24h1v1H166zM168 24h1v1H168zM170 24h1v1H170zM192 24h1v1H192zM196 24h1v1H196zM198 24h1v1H198zM204 24h1v1H204zM216 24h1v1H216zM220 24h1v1H220zM222 24h1v1H222zM226 24h1v1H226zM228 24h1v1H228zM232 24h1v1H232zM234 24h2v1H234zM238 24h1v1H238zM294 24h1v1H294zM1 25h1v1H1zM122 25h1v1H122zM126 25h1v1H126zM128 25h4v1H128zM135 25h3v1H135zM142 25h1v1H142zM146 25h4v1H146zM152 25h4v1H152zM158 25h1v1H158zM162 25h1v1H162zM164 25h1v1H164zM166 25h1v1H166zM168 25h1v1H168zM171 25h3v1H171zM183 25h2v1H183zM192 25h1v1H192zM196 25h1v1H196zM198 25h1v1H198zM204 25h1v1H204zM216 25h1v1H216zM220 25h1v1H220zM222 25h1v1H222zM226 25h1v1H226zM228 25h1v1H228zM230 25h1v1H230zM232 25h1v1H232zM234 25h1v1H234zM236 25h1v1H236zM238 25h1v1H238zM294 25h1v1H294zM1 26h1v1H1zM122 26h1v1H122zM126 26h1v1H126zM128 26h1v1H128zM138 26h1v1H138zM142 26h1v1H142zM146 26h1v1H146zM148 26h1v1H148zM152 26h1v1H152zM158 26h5v1H158zM164 26h1v1H164zM168 26h1v1H168zM174 26h1v1H174zM183 26h2v1H183zM192 26h5v1H192zM198 26h1v1H198zM204 26h1v1H204zM216 26h1v1H216zM220 26h1v1H220zM222 26h1v1H222zM226 26h1v1H226zM228 26h1v1H228zM230 26h1v1H230zM232 26h1v1H232zM234 26h1v1H234zM237 26h2v1H237zM294 26h1v1H294zM1 27h1v1H1zM122 27h1v1H122zM126 27h1v1H126zM128 27h1v1H128zM138 27h1v1H138zM142 27h1v1H142zM146 27h1v1H146zM149 27h1v1H149zM152 27h1v1H152zM158 27h1v1H158zM162 27h1v1H162zM164 27h1v1H164zM168 27h1v1H168zM174 27h1v1H174zM192 27h1v1H192zM196 27h1v1H196zM198 27h1v1H198zM204 27h1v1H204zM216 27h1v1H216zM219 27h1v1H219zM222 27h1v1H222zM226 27h1v1H226zM228 27h1v1H228zM230 27h1v1H230zM232 27h1v1H232zM234 27h1v1H234zM238 27h1v1H238zM294 27h1v1H294zM1 28h1v1H1zM123 28h3v1H123zM128 28h1v1H128zM134 28h4v1H134zM142 28h1v1H142zM146 28h1v1H146zM150 28h1v1H150zM152 28h5v1H152zM158 28h1v1H158zM162 28h1v1H162zM164 28h1v1H164zM168 28h1v1H168zM170 28h4v1H170zM192 28h1v1H192zM196 28h1v1H196zM198 28h5v1H198zM204 28h5v1H204zM216 28h3v1H216zM223 28h3v1H223zM229 28h1v1H229zM231 28h1v1H231zM234 28h1v1H234zM238 28h1v1H238zM294 28h1v1H294zM1 29h1v1H1zM294 29h1v1H294zM1 30h1v1H1zM294 30h1v1H294zM1 31h1v1H1zM294 31h1v1H294zM1 32h1v1H1zM294 32h1v1H294zM1 33h1v1H1zM294 33h1v1H294zM1 34h1v1H1zM294 34h1v1H294zM1 35h1v1H1zM122 35h169v1H122zM294 35h1v1H294zM1 36h1v1H1zM294 36h1v1H294zM1 37h1v1H1zM294 37h1v1H294zM1 38h1v1H1zM294 38h1v1H294zM1 39h1v1H1zM294 39h1v1H294zM1 40h1v1H1zM294 40h1v1H294zM1 41h1v1H1zM120 41h1v1H120zM148 41h1v1H148zM166 41h1v1H166zM171 41h1v1H171zM176 41h1v1H176zM188 41h1v1H188zM294 41h1v1H294zM1 42h1v1H1zM119 42h2v1H119zM159 42h4v1H159zM171 42h1v1H171zM176 42h1v1H176zM188 42h1v1H188zM294 42h1v1H294zM1 43h1v1H1zM120 43h1v1H120zM135 43h3v1H135zM140 43h4v1H140zM147 43h2v1H147zM158 43h1v1H158zM162 43h1v1H162zM165 43h2v1H165zM170 43h3v1H170zM176 43h1v1H176zM178 43h2v1H178zM182 43h1v1H182zM186 43h1v1H186zM188 43h1v1H188zM190 43h2v1H190zM201 43h3v1H201zM207 43h3v1H207zM212 43h2v1H212zM215 43h1v1H215zM294 43h1v1H294zM1 44h1v1H1zM120 44h1v1H120zM138 44h1v1H138zM140 44h1v1H140zM144 44h1v1H144zM148 44h1v1H148zM158 44h1v1H158zM162 44h1v1H162zM166 44h1v1H166zM171 44h1v1H171zM176 44h2v1H176zM180 44h1v1H180zM182 44h1v1H182zM186 44h1v1H186zM188 44h2v1H188zM192 44h1v1H192zM200 44h1v1H200zM206 44h1v1H206zM210 44h1v1H210zM212 44h1v1H212zM214 44h1v1H214zM216 44h1v1H216zM294 44h1v1H294zM1 45h1v1H1zM120 45h1v1H120zM135 45h4v1H135zM140 45h4v1H140zM148 45h1v1H148zM159 45h4v1H159zM166 45h1v1H166zM171 45h1v1H171zM176 45h1v1H176zM180 45h1v1H180zM182 45h1v1H182zM186 45h1v1H186zM188 45h1v1H188zM192 45h1v1H192zM200 45h1v1H200zM206 45h1v1H206zM210 45h1v1H210zM212 45h1v1H212zM214 45h1v1H214zM216 45h1v1H216zM294 45h1v1H294zM1 46h1v1H1zM120 46h1v1H120zM125 46h2v1H125zM134 46h1v1H134zM138 46h1v1H138zM140 46h1v1H140zM148 46h1v1H148zM153 46h2v1H153zM162 46h1v1H162zM166 46h1v1H166zM171 46h1v1H171zM174 46h1v1H174zM176 46h1v1H176zM180 46h1v1H180zM182 46h1v1H182zM185 46h2v1H185zM188 46h1v1H188zM192 46h1v1H192zM195 46h2v1H195zM200 46h1v1H200zM204 46h1v1H204zM206 46h1v1H206zM210 46h1v1H210zM212 46h1v1H212zM216 46h1v1H216zM294 46h1v1H294zM1 47h1v1H1zM119 47h3v1H119zM125 47h2v1H125zM135 47h4v1H135zM140 47h1v1H140zM147 47h3v1H147zM153 47h2v1H153zM159 47h3v1H159zM165 47h3v1H165zM172 47h2v1H172zM176 47h1v1H176zM180 47h1v1H180zM183 47h2v1H183zM186 47h1v1H186zM188 47h4v1H188zM195 47h2v1H195zM201 47h3v1H201zM207 47h3v1H207zM212 47h1v1H212zM216 47h1v1H216zM294 47h1v1H294zM1 48h1v1H1zM294 48h1v1H294zM1 49h1v1H1zM294 49h1v1H294zM1 50h1v1H1zM294 50h1v1H294zM1 51h1v1H1zM119 51h3v1H119zM148 51h1v1H148zM171 51h1v1H171zM176 51h1v1H176zM202 51h1v1H202zM294 51h1v1H294zM1 52h1v1H1zM118 52h1v1H118zM122 52h1v1H122zM171 52h1v1H171zM176 52h1v1H176zM294 52h1v1H294zM1 53h1v1H1zM122 53h1v1H122zM135 53h3v1H135zM140 53h4v1H140zM147 53h2v1H147zM159 53h3v1H159zM164 53h1v1H164zM166 53h2v1H166zM170 53h3v1H170zM176 53h1v1H176zM178 53h2v1H178zM182 53h1v1H182zM184 53h2v1H184zM189 53h3v1H189zM194 53h4v1H194zM201 53h2v1H201zM207 53h3v1H207zM219 53h3v1H219zM225 53h3v1H225zM230 53h2v1H230zM233 53h1v1H233zM294 53h1v1H294zM1 54h1v1H1zM121 54h1v1H121zM138 54h1v1H138zM140 54h1v1H140zM144 54h1v1H144zM148 54h1v1H148zM162 54h1v1H162zM164 54h2v1H164zM168 54h1v1H168zM171 54h1v1H171zM176 54h2v1H176zM180 54h1v1H180zM182 54h2v1H182zM186 54h1v1H186zM188 54h1v1H188zM192 54h1v1H192zM194 54h1v1H194zM198 54h1v1H198zM202 54h1v1H202zM206 54h1v1H206zM218 54h1v1H218zM224 54h1v1H224zM228 54h1v1H228zM230 54h1v1H230zM232 54h1v1H232zM234 54h1v1H234zM294 54h1v1H294zM1 55h1v1H1zM120 55h1v1H120zM135 55h4v1H135zM140 55h4v1H140zM148 55h1v1H148zM159 55h4v1H159zM164 55h1v1H164zM168 55h1v1H168zM171 55h1v1H171zM176 55h1v1H176zM180 55h1v1H180zM182 55h1v1H182zM188 55h1v1H188zM192 55h1v1H192zM194 55h4v1H194zM202 55h1v1H202zM206 55h1v1H206zM218 55h1v1H218zM224 55h1v1H224zM228 55h1v1H228zM230 55h1v1H230zM232 55h1v1H232zM234 55h1v1H234zM294 55h1v1H294zM1 56h1v1H1zM119 56h1v1H119zM125 56h2v1H125zM134 56h1v1H134zM138 56h1v1H138zM140 56h1v1H140zM148 56h1v1H148zM153 56h2v1H153zM158 56h1v1H158zM162 56h1v1H162zM164 56h1v1H164zM168 56h1v1H168zM171 56h1v1H171zM174 56h1v1H174zM176 56h1v1H176zM180 56h1v1H180zM182 56h1v1H182zM188 56h1v1H188zM192 56h1v1H192zM194 56h1v1H194zM202 56h1v1H202zM206 56h1v1H206zM210 56h1v1H210zM213 56h2v1H213zM218 56h1v1H218zM222 56h1v1H222zM224 56h1v1H224zM228 56h1v1H228zM230 56h1v1H230zM234 56h1v1H234zM294 56h1v1H294zM1 57h1v1H1zM118 57h5v1H118zM125 57h2v1H125zM135 57h4v1H135zM140 57h1v1H140zM147 57h3v1H147zM153 57h2v1H153zM159 57h4v1H159zM164 57h1v1H164zM168 57h1v1H168zM172 57h2v1H172zM176 57h1v1H176zM180 57h1v1H180zM182 57h1v1H182zM189 57h3v1H189zM194 57h1v1H194zM201 57h3v1H201zM207 57h3v1H207zM213 57h2v1H213zM219 57h3v1H219zM225 57h3v1H225zM230 57h1v1H230zM234 57h1v1H234zM294 57h1v1H294zM1 58h1v1H1zM294 58h1v1H294zM1 59h1v1H1zM294 59h1v1H294zM1 60h1v1H1zM294 60h1v1H294zM1 61h1v1H1zM118 61h5v1H118zM140 61h1v1H140zM153 61h1v1H153zM171 61h1v1H171zM206 61h1v1H206zM224 61h1v1H224zM246 61h1v1H246zM294 61h1v1H294zM1 62h1v1H1zM121 62h1v1H121zM140 62h1v1H140zM153 62h1v1H153zM159 62h4v1H159zM171 62h1v1H171zM204 62h1v1H204zM206 62h1v1H206zM224 62h1v1H224zM246 62h1v1H246zM294 62h1v1H294zM1 63h1v1H1zM120 63h1v1H120zM135 63h3v1H135zM140 63h1v1H140zM142 63h2v1H142zM147 63h3v1H147zM152 63h3v1H152zM158 63h1v1H158zM162 63h1v1H162zM164 63h4v1H164zM170 63h3v1H170zM183 63h3v1H183zM189 63h3v1H189zM194 63h2v1H194zM197 63h1v1H197zM203 63h1v1H203zM206 63h1v1H206zM208 63h2v1H208zM213 63h3v1H213zM219 63h3v1H219zM224 63h1v1H224zM227 63h1v1H227zM231 63h3v1H231zM236 63h1v1H236zM238 63h2v1H238zM243 63h2v1H243zM246 63h1v1H246zM294 63h1v1H294zM1 64h1v1H1zM121 64h1v1H121zM134 64h1v1H134zM140 64h2v1H140zM144 64h1v1H144zM150 64h1v1H150zM153 64h1v1H153zM158 64h1v1H158zM162 64h1v1H162zM164 64h1v1H164zM168 64h1v1H168zM171 64h1v1H171zM182 64h1v1H182zM188 64h1v1H188zM192 64h1v1H192zM194 64h1v1H194zM196 64h1v1H196zM198 64h1v1H198zM202 64h1v1H202zM206 64h2v1H206zM210 64h1v1H210zM216 64h1v1H216zM218 64h1v1H218zM224 64h1v1H224zM226 64h1v1H226zM230 64h1v1H230zM234 64h1v1H234zM236 64h2v1H236zM240 64h1v1H240zM242 64h1v1H242zM245 64h2v1H245zM294 64h1v1H294zM1 65h1v1H1zM122 65h1v1H122zM134 65h1v1H134zM140 65h1v1H140zM144 65h1v1H144zM147 65h4v1H147zM153 65h1v1H153zM159 65h4v1H159zM164 65h4v1H164zM171 65h1v1H171zM182 65h1v1H182zM188 65h1v1H188zM192 65h1v1H192zM194 65h1v1H194zM196 65h1v1H196zM198 65h1v1H198zM201 65h1v1H201zM206 65h1v1H206zM210 65h1v1H210zM213 65h4v1H213zM218 65h1v1H218zM224 65h2v1H224zM230 65h5v1H230zM236 65h1v1H236zM240 65h1v1H240zM242 65h1v1H242zM246 65h1v1H246zM294 65h1v1H294zM1 66h1v1H1zM118 66h1v1H118zM122 66h1v1H122zM125 66h2v1H125zM134 66h1v1H134zM138 66h1v1H138zM140 66h1v1H140zM144 66h1v1H144zM146 66h1v1H146zM150 66h1v1H150zM153 66h1v1H153zM156 66h1v1H156zM162 66h1v1H162zM164 66h1v1H164zM171 66h1v1H171zM174 66h1v1H174zM177 66h2v1H177zM182 66h1v1H182zM186 66h1v1H186zM188 66h1v1H188zM192 66h1v1H192zM194 66h1v1H194zM198 66h1v1H198zM200 66h1v1H200zM206 66h1v1H206zM210 66h1v1H210zM212 66h1v1H212zM216 66h1v1H216zM218 66h1v1H218zM222 66h1v1H222zM224 66h1v1H224zM226 66h1v1H226zM230 66h1v1H230zM236 66h1v1H236zM240 66h1v1H240zM242 66h1v1H242zM246 66h1v1H246zM294 66h1v1H294zM1 67h1v1H1zM119 67h3v1H119zM125 67h2v1H125zM135 67h3v1H135zM140 67h1v1H140zM144 67h1v1H144zM147 67h4v1H147zM154 67h2v1H154zM159 67h3v1H159zM164 67h1v1H164zM172 67h2v1H172zM177 67h2v1H177zM183 67h3v1H183zM189 67h3v1H189zM194 67h1v1H194zM198 67h1v1H198zM206 67h4v1H206zM213 67h4v1H213zM219 67h3v1H219zM224 67h1v1H224zM227 67h1v1H227zM231 67h3v1H231zM236 67h1v1H236zM240 67h1v1H240zM243 67h4v1H243zM294 67h1v1H294zM1 68h1v1H1zM294 68h1v1H294zM1 69h1v1H1zM294 69h1v1H294zM1 70h1v1H1zM294 70h1v1H294zM1 71h1v1H1zM121 71h1v1H121zM148 71h1v1H148zM179 71h1v1H179zM294 71h1v1H294zM1 72h1v1H1zM120 72h2v1H120zM207 72h4v1H207zM294 72h1v1H294zM1 73h1v1H1zM119 73h1v1H119zM121 73h1v1H121zM135 73h3v1H135zM140 73h4v1H140zM147 73h2v1H147zM158 73h1v1H158zM160 73h2v1H160zM164 73h4v1H164zM170 73h2v1H170zM173 73h1v1H173zM178 73h2v1H178zM183 73h3v1H183zM195 73h3v1H195zM200 73h1v1H200zM202 73h2v1H202zM206 73h1v1H206zM210 73h1v1H210zM294 73h1v1H294zM1 74h1v1H1zM118 74h1v1H118zM121 74h1v1H121zM138 74h1v1H138zM140 74h1v1H140zM144 74h1v1H144zM148 74h1v1H148zM158 74h2v1H158zM162 74h1v1H162zM164 74h1v1H164zM168 74h1v1H168zM170 74h1v1H170zM172 74h1v1H172zM174 74h1v1H174zM179 74h1v1H179zM182 74h1v1H182zM194 74h1v1H194zM198 74h1v1H198zM200 74h2v1H200zM204 74h1v1H204zM206 74h1v1H206zM210 74h1v1H210zM294 74h1v1H294zM1 75h1v1H1zM118 75h5v1H118zM135 75h4v1H135zM140 75h4v1H140zM148 75h1v1H148zM158 75h1v1H158zM162 75h1v1H162zM164 75h4v1H164zM170 75h1v1H170zM172 75h1v1H172zM174 75h1v1H174zM179 75h1v1H179zM183 75h3v1H183zM194 75h1v1H194zM198 75h1v1H198zM200 75h1v1H200zM207 75h4v1H207zM294 75h1v1H294zM1 76h1v1H1zM121 76h1v1H121zM125 76h2v1H125zM134 76h1v1H134zM138 76h1v1H138zM140 76h1v1H140zM148 76h1v1H148zM153 76h2v1H153zM158 76h1v1H158zM162 76h1v1H162zM164 76h1v1H164zM170 76h1v1H170zM174 76h1v1H174zM176 76h1v1H176zM179 76h1v1H179zM186 76h1v1H186zM189 76h2v1H189zM194 76h1v1H194zM198 76h1v1H198zM200 76h1v1H200zM210 76h1v1H210zM294 76h1v1H294zM1 77h1v1H1zM121 77h1v1H121zM125 77h2v1H125zM135 77h4v1H135zM140 77h1v1H140zM147 77h3v1H147zM153 77h2v1H153zM158 77h1v1H158zM162 77h1v1H162zM164 77h1v1H164zM170 77h1v1H170zM174 77h1v1H174zM177 77h2v1H177zM182 77h4v1H182zM189 77h2v1H189zM195 77h3v1H195zM200 77h1v1H200zM207 77h3v1H207zM294 77h1v1H294zM1 78h1v1H1zM294 78h1v1H294zM1 79h1v1H1zM294 79h1v1H294zM1 80h1v1H1zM294 80h1v1H294zM1 81h1v1H1zM118 81h5v1H118zM134 81h1v1H134zM152 81h1v1H152zM177 81h2v1H177zM194 81h1v1H194zM294 81h1v1H294zM1 82h1v1H1zM118 82h1v1H118zM134 82h1v1H134zM152 82h1v1H152zM178 82h1v1H178zM194 82h1v1H194zM294 82h1v1H294zM1 83h1v1H1zM118 83h4v1H118zM134 83h1v1H134zM136 83h2v1H136zM141 83h3v1H141zM147 83h3v1H147zM152 83h1v1H152zM155 83h1v1H155zM159 83h3v1H159zM171 83h3v1H171zM178 83h1v1H178zM183 83h3v1H183zM189 83h3v1H189zM194 83h1v1H194zM197 83h1v1H197zM207 83h3v1H207zM213 83h3v1H213zM218 83h2v1H218zM221 83h1v1H221zM294 83h1v1H294zM1 84h1v1H1zM122 84h1v1H122zM134 84h2v1H134zM138 84h1v1H138zM140 84h1v1H140zM144 84h1v1H144zM146 84h1v1H146zM150 84h1v1H150zM152 84h1v1H152zM154 84h1v1H154zM158 84h1v1H158zM170 84h1v1H170zM178 84h1v1H178zM186 84h1v1H186zM188 84h1v1H188zM194 84h1v1H194zM196 84h1v1H196zM206 84h1v1H206zM212 84h1v1H212zM216 84h1v1H216zM218 84h1v1H218zM220 84h1v1H220zM222 84h1v1H222zM294 84h1v1H294zM1 85h1v1H1zM122 85h1v1H122zM134 85h1v1H134zM138 85h1v1H138zM140 85h1v1H140zM144 85h1v1H144zM146 85h1v1H146zM150 85h1v1H150zM152 85h2v1H152zM159 85h3v1H159zM171 85h3v1H171zM178 85h1v1H178zM183 85h4v1H183zM188 85h1v1H188zM194 85h2v1H194zM206 85h1v1H206zM212 85h1v1H212zM216 85h1v1H216zM218 85h1v1H218zM220 85h1v1H220zM222 85h1v1H222zM294 85h1v1H294zM1 86h1v1H1zM118 86h1v1H118zM122 86h1v1H122zM125 86h2v1H125zM134 86h1v1H134zM138 86h1v1H138zM140 86h1v1H140zM144 86h1v1H144zM146 86h1v1H146zM150 86h1v1H150zM152 86h1v1H152zM154 86h1v1H154zM162 86h1v1H162zM165 86h2v1H165zM174 86h1v1H174zM178 86h1v1H178zM182 86h1v1H182zM186 86h1v1H186zM188 86h1v1H188zM192 86h1v1H192zM194 86h1v1H194zM196 86h1v1H196zM201 86h2v1H201zM206 86h1v1H206zM210 86h1v1H210zM212 86h1v1H212zM216 86h1v1H216zM218 86h1v1H218zM222 86h1v1H222zM294 86h1v1H294zM1 87h1v1H1zM119 87h3v1H119zM125 87h2v1H125zM134 87h1v1H134zM138 87h1v1H138zM141 87h3v1H141zM147 87h3v1H147zM152 87h1v1H152zM155 87h1v1H155zM158 87h4v1H158zM165 87h2v1H165zM170 87h4v1H170zM177 87h3v1H177zM183 87h4v1H183zM189 87h3v1H189zM194 87h1v1H194zM197 87h1v1H197zM201 87h2v1H201zM207 87h3v1H207zM213 87h3v1H213zM218 87h1v1H218zM222 87h1v1H222zM294 87h1v1H294zM1 88h1v1H1zM294 88h1v1H294zM1 89h1v1H1zM294 89h1v1H294zM1 90h1v1H1zM294 90h1v1H294zM1 91h1v1H1zM294 91h1v1H294zM1 92h1v1H1zM294 92h1v1H294zM1 93h1v1H1zM294 93h1v1H294zM1 94h1v1H1zM294 94h1v1H294zM1 95h1v1H1zM294 95h1v1H294zM1 96h1v1H1zM294 96h1v1H294zM1 97h1v1H1zM294 97h1v1H294zM1 98h1v1H1zM294 98h1v1H294zM1 99h1v1H1zM294 99h1v1H294zM1 100h1v1H1zM294 100h1v1H294zM1 101h1v1H1zM294 101h1v1H294zM1 102h1v1H1zM294 102h1v1H294zM1 103h1v1H1zM294 103h1v1H294zM1 104h1v1H1zM294 104h1v1H294zM1 105h1v1H1zM294 105h1v1H294zM1 106h1v1H1zM294 106h1v1H294zM1 107h1v1H1zM294 107h1v1H294zM1 108h1v1H1zM294 108h1v1H294zM1 109h1v1H1zM294 109h1v1H294zM1 110h1v1H1zM294 110h1v1H294zM1 111h1v1H1zM294 111h1v1H294zM1 112h1v1H1zM294 112h1v1H294zM1 113h1v1H1zM294 113h1v1H294zM1 114h294v1H1zM1 115h1v1H1zM294 115h1v1H294zM1 116h1v1H1zM294 116h1v1H294zM1 117h1v1H1zM164 117h1v1H164zM177 117h2v1H177zM186 117h1v1H186zM194 117h4v1H194zM201 117h3v1H201zM207 117h3v1H207zM212 117h5v1H212zM224 117h5v1H224zM249 117h1v1H249zM273 117h1v1H273zM294 117h1v1H294zM1 118h1v1H1zM164 118h1v1H164zM178 118h1v1H178zM186 118h1v1H186zM194 118h1v1H194zM198 118h1v1H198zM200 118h1v1H200zM204 118h1v1H204zM206 118h1v1H206zM210 118h1v1H210zM214 118h1v1H214zM224 118h1v1H224zM250 118h1v1H250zM273 118h1v1H273zM294 118h1v1H294zM1 119h1v1H1zM164 119h1v1H164zM166 119h2v1H166zM171 119h3v1H171zM178 119h1v1H178zM183 119h2v1H183zM186 119h1v1H186zM194 119h1v1H194zM198 119h1v1H198zM200 119h1v1H200zM204 119h1v1H204zM206 119h1v1H206zM210 119h1v1H210zM214 119h1v1H214zM224 119h4v1H224zM231 119h3v1H231zM251 119h1v1H251zM261 119h3v1H261zM267 119h3v1H267zM272 119h3v1H272zM278 119h1v1H278zM282 119h1v1H282zM284 119h4v1H284zM294 119h1v1H294zM1 120h1v1H1zM164 120h2v1H164zM168 120h1v1H168zM170 120h1v1H170zM174 120h1v1H174zM178 120h1v1H178zM182 120h1v1H182zM185 120h2v1H185zM194 120h4v1H194zM200 120h1v1H200zM204 120h1v1H204zM206 120h1v1H206zM210 120h1v1H210zM214 120h1v1H214zM228 120h1v1H228zM230 120h1v1H230zM242 120h5v1H242zM252 120h1v1H252zM260 120h1v1H260zM266 120h1v1H266zM270 120h1v1H270zM273 120h1v1H273zM278 120h1v1H278zM282 120h1v1H282zM284 120h1v1H284zM288 120h1v1H288zM294 120h1v1H294zM1 121h1v1H1zM164 121h1v1H164zM168 121h1v1H168zM170 121h1v1H170zM174 121h1v1H174zM178 121h1v1H178zM182 121h1v1H182zM186 121h1v1H186zM194 121h1v1H194zM198 121h1v1H198zM200 121h1v1H200zM204 121h1v1H204zM206 121h1v1H206zM210 121h1v1H210zM214 121h1v1H214zM228 121h1v1H228zM231 121h3v1H231zM251 121h1v1H251zM261 121h3v1H261zM266 121h5v1H266zM273 121h1v1H273zM278 121h1v1H278zM282 121h1v1H282zM284 121h4v1H284zM294 121h1v1H294zM1 122h1v1H1zM164 122h1v1H164zM168 122h1v1H168zM170 122h1v1H170zM174 122h1v1H174zM178 122h1v1H178zM182 122h1v1H182zM186 122h1v1H186zM194 122h1v1H194zM198 122h1v1H198zM200 122h1v1H200zM204 122h1v1H204zM206 122h1v1H206zM210 122h1v1H210zM214 122h1v1H214zM224 122h1v1H224zM228 122h1v1H228zM234 122h1v1H234zM250 122h1v1H250zM264 122h1v1H264zM266 122h1v1H266zM273 122h1v1H273zM276 122h1v1H276zM278 122h1v1H278zM281 122h2v1H281zM284 122h1v1H284zM294 122h1v1H294zM1 123h1v1H1zM164 123h1v1H164zM168 123h1v1H168zM171 123h3v1H171zM177 123h3v1H177zM183 123h4v1H183zM194 123h4v1H194zM201 123h3v1H201zM207 123h3v1H207zM214 123h1v1H214zM225 123h3v1H225zM230 123h4v1H230zM249 123h1v1H249zM260 123h4v1H260zM267 123h3v1H267zM274 123h2v1H274zM279 123h2v1H279zM282 123h1v1H282zM284 123h1v1H284zM294 123h1v1H294zM1 124h1v1H1zM294 124h1v1H294zM1 125h1v1H1zM294 125h1v1H294zM1 126h294v1H1z"/>
<path fill="#d62518" d="M241 4h1v1H241zM254 4h1v1H254zM258 4h1v1H258zM261 4h3v1H261zM273 4h3v1H273zM278 4h4v1H278zM285 4h3v1H285zM242 5h1v1H242zM248 5h1v1H248zM254 5h1v1H254zM258 5h1v1H258zM260 5h1v1H260zM264 5h1v1H264zM272 5h1v1H272zM276 5h1v1H276zM278 5h1v1H278zM282 5h1v1H282zM286 5h1v1H286zM243 6h1v1H243zM247 6h1v1H247zM254 6h2v1H254zM258 6h1v1H258zM260 6h1v1H260zM264 6h1v1H264zM272 6h1v1H272zM276 6h1v1H276zM278 6h1v1H278zM282 6h1v1H282zM286 6h1v1H286zM244 7h1v1H244zM246 7h1v1H246zM254 7h1v1H254zM256 7h1v1H256zM258 7h1v1H258zM260 7h1v1H260zM264 7h1v1H264zM272 7h1v1H272zM276 7h1v1H276zM278 7h4v1H278zM286 7h1v1H286zM244 8h2v1H244zM254 8h1v1H254zM257 8h2v1H257zM260 8h1v1H260zM264 8h1v1H264zM272 8h5v1H272zM278 8h1v1H278zM286 8h1v1H286zM243 9h1v1H243zM246 9h1v1H246zM254 9h1v1H254zM258 9h1v1H258zM260 9h1v1H260zM264 9h1v1H264zM272 9h1v1H272zM276 9h1v1H276zM278 9h1v1H278zM286 9h1v1H286zM242 10h1v1H242zM247 10h1v1H247zM254 10h1v1H254zM258 10h1v1H258zM261 10h3v1H261zM272 10h1v1H272zM276 10h1v1H276zM278 10h1v1H278zM285 10h3v1H285zM241 11h1v1H241zM248 11h1v1H248zM6 20h108v1H6zM6 21h108v1H6zM6 22h108v1H6zM6 23h108v1H6zM6 24h108v1H6zM6 25h108v1H6zM6 26h108v1H6zM6 27h108v1H6zM6 28h108v1H6zM6 29h108v1H6zM6 30h8v1H6zM18 30h12v1H18zM34 30h7v1H34zM53 30h61v1H53zM6 31h8v1H6zM18 31h12v1H18zM34 31h7v1H34zM53 31h61v1H53zM6 32h8v1H6zM18 32h12v1H18zM34 32h7v1H34zM53 32h61v1H53zM6 33h8v1H6zM18 33h12v1H18zM34 33h7v1H34zM53 33h61v1H53zM6 34h8v1H6zM18 34h12v1H18zM34 34h3v1H34zM41 34h12v1H41zM57 34h57v1H57zM6 35h8v1H6zM18 35h12v1H18zM34 35h3v1H34zM41 35h12v1H41zM57 35h57v1H57zM6 36h8v1H6zM18 36h12v1H18zM34 36h3v1H34zM41 36h12v1H41zM57 36h57v1H57zM6 37h8v1H6zM18 37h12v1H18zM34 37h3v1H34zM41 37h12v1H41zM57 37h57v1H57zM6 38h8v1H6zM22 38h8v1H22zM34 38h3v1H34zM41 38h12v1H41zM57 38h57v1H57zM6 39h8v1H6zM22 39h8v1H22zM34 39h3v1H34zM41 39h12v1H41zM57 39h57v1H57zM6 40h8v1H6zM22 40h8v1H22zM34 40h3v1H34zM41 40h12v1H41zM57 40h57v1H57zM6 41h8v1H6zM22 41h8v1H22zM34 41h3v1H34zM41 41h12v1H41zM57 41h57v1H57zM249 41h1v1H249zM256 41h1v1H256zM285 41h1v1H285zM6 42h8v1H6zM18 42h4v1H18zM26 42h4v1H26zM34 42h3v1H34zM41 42h12v1H41zM57 42h57v1H57zM249 42h1v1H249zM285 42h1v1H285zM6 43h8v1H6zM18 43h4v1H18zM26 43h4v1H26zM34 43h3v1H34zM41 43h12v1H41zM57 43h57v1H57zM248 43h3v1H248zM255 43h2v1H255zM260 43h2v1H260zM263 43h1v1H263zM267 43h3v1H267zM273 43h3v1H273zM278 43h1v1H278zM282 43h1v1H282zM284 43h3v1H284zM6 44h8v1H6zM18 44h4v1H18zM26 44h4v1H26zM34 44h3v1H34zM41 44h12v1H41zM57 44h57v1H57zM249 44h1v1H249zM256 44h1v1H256zM260 44h1v1H260zM262 44h1v1H262zM264 44h1v1H264zM266 44h1v1H266zM270 44h1v1H270zM272 44h1v1H272zM276 44h1v1H276zM278 44h1v1H278zM282 44h1v1H282zM285 44h1v1H285zM6 45h8v1H6zM18 45h4v1H18zM26 45h4v1H26zM34 45h3v1H34zM41 45h12v1H41zM57 45h57v1H57zM249 45h1v1H249zM256 45h1v1H256zM260 45h1v1H260zM262 45h1v1H262zM264 45h1v1H264zM266 45h5v1H266zM272 45h1v1H272zM276 45h1v1H276zM278 45h1v1H278zM282 45h1v1H282zM285 45h1v1H285zM6 46h8v1H6zM18 46h8v1H18zM34 46h3v1H34zM41 46h12v1H41zM57 46h57v1H57zM249 46h1v1H249zM252 46h1v1H252zM256 46h1v1H256zM260 46h1v1H260zM264 46h1v1H264zM266 46h1v1H266zM272 46h1v1H272zM276 46h1v1H276zM278 46h1v1H278zM281 46h2v1H281zM285 46h1v1H285zM288 46h1v1H288zM6 47h8v1H6zM18 47h8v1H18zM34 47h3v1H34zM41 47h12v1H41zM57 47h57v1H57zM250 47h2v1H250zM255 47h3v1H255zM260 47h1v1H260zM264 47h1v1H264zM267 47h3v1H267zM273 47h3v1H273zM279 47h2v1H279zM282 47h1v1H282zM286 47h2v1H286zM6 48h8v1H6zM18 48h8v1H18zM34 48h3v1H34zM41 48h12v1H41zM57 48h57v1H57zM6 49h8v1H6zM18 49h8v1H18zM34 49h3v1H34zM41 49h12v1H41zM57 49h57v1H57zM6 50h8v1H6zM18 50h12v1H18zM34 50h3v1H34zM41 50h12v1H41zM57 50h57v1H57zM6 51h8v1H6zM18 51h12v1H18zM34 51h3v1H34zM41 51h12v1H41zM57 51h57v1H57zM272 51h5v1H272zM279 51h3v1H279zM285 51h3v1H285zM6 52h8v1H6zM18 52h12v1H18zM34 52h3v1H34zM41 52h12v1H41zM57 52h57v1H57zM272 52h1v1H272zM278 52h1v1H278zM282 52h1v1H282zM284 52h1v1H284zM288 52h1v1H288zM6 53h8v1H6zM18 53h12v1H18zM34 53h3v1H34zM41 53h12v1H41zM57 53h57v1H57zM272 53h4v1H272zM278 53h1v1H278zM281 53h2v1H281zM288 53h1v1H288zM6 54h8v1H6zM18 54h12v1H18zM34 54h7v1H34zM53 54h61v1H53zM276 54h1v1H276zM278 54h1v1H278zM280 54h1v1H280zM282 54h1v1H282zM287 54h1v1H287zM6 55h8v1H6zM18 55h12v1H18zM34 55h7v1H34zM53 55h61v1H53zM276 55h1v1H276zM278 55h2v1H278zM282 55h1v1H282zM286 55h1v1H286zM6 56h8v1H6zM18 56h12v1H18zM34 56h7v1H34zM53 56h61v1H53zM272 56h1v1H272zM276 56h1v1H276zM278 56h1v1H278zM282 56h1v1H282zM285 56h1v1H285zM6 57h8v1H6zM18 57h12v1H18zM34 57h7v1H34zM53 57h61v1H53zM273 57h3v1H273zM279 57h3v1H279zM284 57h5v1H284zM6 58h108v1H6zM6 59h108v1H6zM6 60h12v1H6zM30 60h7v1H30zM53 60h11v1H53zM76 60h38v1H76zM6 61h12v1H6zM30 61h7v1H30zM53 61h11v1H53zM76 61h38v1H76zM276 61h1v1H276zM6 62h12v1H6zM30 62h7v1H30zM53 62h11v1H53zM76 62h38v1H76zM276 62h1v1H276zM6 63h12v1H6zM30 63h7v1H30zM53 63h11v1H53zM76 63h38v1H76zM273 63h2v1H273zM276 63h1v1H276zM278 63h1v1H278zM280 63h2v1H280zM285 63h3v1H285zM6 64h8v1H6zM18 64h12v1H18zM34 64h3v1H34zM41 64h12v1H41zM57 64h11v1H57zM72 64h42v1H72zM272 64h1v1H272zM275 64h2v1H275zM278 64h2v1H278zM282 64h1v1H282zM284 64h1v1H284zM6 65h8v1H6zM18 65h12v1H18zM34 65h3v1H34zM41 65h12v1H41zM57 65h11v1H57zM72 65h42v1H72zM272 65h1v1H272zM276 65h1v1H276zM278 65h1v1H278zM282 65h1v1H282zM285 65h3v1H285zM6 66h8v1H6zM18 66h12v1H18zM34 66h3v1H34zM41 66h12v1H41zM57 66h11v1H57zM72 66h42v1H72zM272 66h1v1H272zM276 66h1v1H276zM278 66h1v1H278zM282 66h1v1H282zM288 66h1v1H288zM6 67h8v1H6zM18 67h12v1H18zM34 67h3v1H34zM41 67h12v1H41zM57 67h11v1H57zM72 67h42v1H72zM273 67h4v1H273zM278 67h1v1H278zM282 67h1v1H282zM284 67h4v1H284zM6 68h8v1H6zM18 68h12v1H18zM34 68h3v1H34zM41 68h12v1H41zM57 68h11v1H57zM72 68h42v1H72zM6 69h8v1H6zM18 69h12v1H18zM34 69h3v1H34zM41 69h12v1H41zM57 69h11v1H57zM72 69h42v1H72zM6 70h8v1H6zM18 70h12v1H18zM34 70h3v1H34zM41 70h12v1H41zM57 70h11v1H57zM72 70h42v1H72zM6 71h8v1H6zM18 71h12v1H18zM34 71h3v1H34zM41 71h12v1H41zM57 71h11v1H57zM72 71h42v1H72zM262 71h2v1H262zM288 71h1v1H288zM6 72h8v1H6zM18 72h12v1H18zM34 72h3v1H34zM53 72h15v1H53zM72 72h42v1H72zM261 72h1v1H261zM264 72h1v1H264zM288 72h1v1H288zM6 73h8v1H6zM18 73h12v1H18zM34 73h3v1H34zM53 73h15v1H53zM72 73h42v1H72zM248 73h1v1H248zM250 73h2v1H250zM255 73h3v1H255zM261 73h1v1H261zM266 73h1v1H266zM270 73h1v1H270zM273 73h3v1H273zM279 73h3v1H279zM285 73h2v1H285zM288 73h1v1H288zM6 74h8v1H6zM18 74h12v1H18zM34 74h3v1H34zM53 74h15v1H53zM72 74h42v1H72zM248 74h2v1H248zM252 74h1v1H252zM254 74h1v1H254zM258 74h1v1H258zM260 74h3v1H260zM266 74h1v1H266zM270 74h1v1H270zM272 74h1v1H272zM278 74h1v1H278zM282 74h1v1H282zM284 74h1v1H284zM287 74h2v1H287zM6 75h8v1H6zM18 75h12v1H18zM34 75h3v1H34zM53 75h15v1H53zM72 75h42v1H72zM248 75h1v1H248zM254 75h5v1H254zM261 75h1v1H261zM266 75h1v1H266zM270 75h1v1H270zM273 75h3v1H273zM278 75h5v1H278zM284 75h1v1H284zM288 75h1v1H288zM6 76h8v1H6zM34 76h3v1H34zM41 76h27v1H41zM72 76h42v1H72zM248 76h1v1H248zM254 76h1v1H254zM261 76h1v1H261zM266 76h1v1H266zM269 76h2v1H269zM276 76h1v1H276zM278 76h1v1H278zM284 76h1v1H284zM288 76h1v1H288zM6 77h8v1H6zM34 77h3v1H34zM41 77h27v1H41zM72 77h42v1H72zM248 77h1v1H248zM255 77h3v1H255zM261 77h1v1H261zM267 77h2v1H267zM270 77h1v1H270zM272 77h4v1H272zM279 77h3v1H279zM285 77h4v1H285zM6 78h8v1H6zM34 78h3v1H34zM41 78h27v1H41zM72 78h42v1H72zM6 79h8v1H6zM34 79h3v1H34zM41 79h27v1H41zM72 79h42v1H72zM6 80h8v1H6zM18 80h12v1H18zM34 80h3v1H34zM41 80h27v1H41zM72 80h42v1H72zM6 81h8v1H6zM18 81h12v1H18zM34 81h3v1H34zM41 81h27v1H41zM72 81h42v1H72zM275 81h1v1H275zM279 81h3v1H279zM286 81h1v1H286zM6 82h8v1H6zM18 82h12v1H18zM34 82h3v1H34zM41 82h27v1H41zM72 82h42v1H72zM274 82h2v1H274zM278 82h1v1H278zM282 82h1v1H282zM285 82h2v1H285zM6 83h8v1H6zM18 83h12v1H18zM34 83h3v1H34zM41 83h27v1H41zM72 83h42v1H72zM273 83h1v1H273zM275 83h1v1H275zM278 83h1v1H278zM281 83h2v1H281zM286 83h1v1H286zM6 84h8v1H6zM18 84h12v1H18zM34 84h3v1H34zM41 84h23v1H41zM76 84h38v1H76zM272 84h1v1H272zM275 84h1v1H275zM278 84h1v1H278zM280 84h1v1H280zM282 84h1v1H282zM286 84h1v1H286zM6 85h8v1H6zM18 85h12v1H18zM34 85h3v1H34zM41 85h23v1H41zM76 85h38v1H76zM272 85h5v1H272zM278 85h2v1H278zM282 85h1v1H282zM286 85h1v1H286zM6 86h8v1H6zM18 86h12v1H18zM34 86h3v1H34zM41 86h23v1H41zM76 86h38v1H76zM275 86h1v1H275zM278 86h1v1H278zM282 86h1v1H282zM286 86h1v1H286zM6 87h8v1H6zM18 87h12v1H18zM34 87h3v1H34zM41 87h23v1H41zM76 87h38v1H76zM275 87h1v1H275zM279 87h3v1H279zM285 87h3v1H285zM6 88h108v1H6zM6 89h108v1H6zM6 90h108v1H6zM6 91h108v1H6zM6 92h108v1H6zM6 93h108v1H6zM6 94h108v1H6zM6 95h108v1H6zM6 96h108v1H6zM6 97h108v1H6zM6 98h34v1H6zM41 98h16v1H41zM59 98h3v1H59zM63 98h30v1H63zM96 98h18v1H96zM6 99h52v1H6zM59 99h3v1H59zM63 99h29v1H63zM93 99h3v1H93zM97 99h2v1H97zM103 99h11v1H103zM6 100h9v1H6zM18 100h2v1H18zM21 100h1v1H21zM24 100h8v1H24zM36 100h3v1H36zM41 100h3v1H41zM45 100h3v1H45zM49 100h2v1H49zM54 100h4v1H54zM59 100h3v1H59zM63 100h1v1H63zM66 100h3v1H66zM72 100h2v1H72zM75 100h3v1H75zM79 100h2v1H79zM84 100h12v1H84zM97 100h1v1H97zM99 100h3v1H99zM103 100h11v1H103zM6 101h8v1H6zM15 101h3v1H15zM19 101h1v1H19zM22 101h2v1H22zM25 101h7v1H25zM33 101h3v1H33zM37 101h3v1H37zM41 101h4v1H41zM46 101h1v1H46zM48 101h2v1H48zM51 101h3v1H51zM55 101h3v1H55zM59 101h3v1H59zM64 101h2v1H64zM67 101h5v1H67zM73 101h1v1H73zM75 101h3v1H75zM79 101h1v1H79zM81 101h5v1H81zM91 101h4v1H91zM96 101h2v1H96zM99 101h3v1H99zM103 101h11v1H103zM6 102h8v1H6zM15 102h3v1H15zM19 102h1v1H19zM21 102h3v1H21zM25 102h7v1H25zM36 102h4v1H36zM41 102h5v1H41zM47 102h3v1H47zM55 102h3v1H55zM59 102h3v1H59zM63 102h3v1H63zM67 102h2v1H67zM73 102h1v1H73zM75 102h3v1H75zM79 102h2v1H79zM84 102h10v1H84zM95 102h4v1H95zM103 102h11v1H103zM6 103h8v1H6zM15 103h3v1H15zM19 103h1v1H19zM21 103h3v1H21zM25 103h7v1H25zM33 103h7v1H33zM41 103h4v1H41zM46 103h1v1H46zM48 103h2v1H48zM51 103h7v1H51zM59 103h3v1H59zM63 103h3v1H63zM67 103h1v1H67zM69 103h3v1H69zM73 103h1v1H73zM75 103h2v1H75zM79 103h5v1H79zM85 103h8v1H85zM94 103h8v1H94zM103 103h11v1H103zM6 104h9v1H6zM18 104h2v1H18zM21 104h3v1H21zM25 104h7v1H25zM33 104h6v1H33zM42 104h2v1H42zM45 104h3v1H45zM49 104h2v1H49zM54 104h3v1H54zM60 104h2v1H60zM63 104h3v1H63zM67 104h2v1H67zM73 104h2v1H73zM77 104h1v1H77zM79 104h1v1H79zM84 104h8v1H84zM97 104h2v1H97zM102 104h12v1H102zM6 105h108v1H6zM6 106h108v1H6zM6 107h108v1H6zM6 108h108v1H6zM6 109h108v1H6zM19 117h1v1H19zM42 117h5v1H42zM49 117h3v1H49zM19 118h1v1H19zM45 118h1v1H45zM48 118h1v1H48zM52 118h1v1H52zM6 119h1v1H6zM8 119h2v1H8zM13 119h3v1H13zM18 119h3v1H18zM24 119h1v1H24zM26 119h2v1H26zM30 119h1v1H30zM34 119h1v1H34zM44 119h1v1H44zM48 119h1v1H48zM51 119h2v1H51zM55 119h3v1H55zM6 120h2v1H6zM10 120h1v1H10zM12 120h1v1H12zM16 120h1v1H16zM19 120h1v1H19zM24 120h2v1H24zM28 120h1v1H28zM30 120h1v1H30zM34 120h1v1H34zM45 120h1v1H45zM48 120h1v1H48zM50 120h1v1H50zM52 120h1v1H52zM54 120h1v1H54zM6 121h1v1H6zM12 121h5v1H12zM19 121h1v1H19zM24 121h1v1H24zM31 121h4v1H31zM46 121h1v1H46zM48 121h2v1H48zM52 121h1v1H52zM55 121h3v1H55zM6 122h1v1H6zM12 122h1v1H12zM19 122h1v1H19zM22 122h1v1H22zM24 122h1v1H24zM34 122h1v1H34zM42 122h1v1H42zM46 122h1v1H46zM48 122h1v1H48zM52 122h1v1H52zM58 122h1v1H58zM6 123h1v1H6zM13 123h3v1H13zM20 123h2v1H20zM24 123h1v1H24zM31 123h3v1H31zM43 123h3v1H43zM49 123h3v1H49zM54 123h4v1H54z"/>
</g>
</svg>
