<svg xmlns="http://www.w3.org/2000/svg" width="888" height="384" viewBox="0 0 296 128" role="img" aria-labelledby="title">
<title id="title">DevDash OTA update screen</title>
<rect width="296" height="128" fill="#fff"/>
<g shape-rendering="crispEdges">
<path fill="#111" d="M1 1h294v1H1zM1 2h1v1H1zM294 2h1v1H294zM1 3h1v1H1zM294 3h1v1H294zM1 4h1v1H1zM6 4h9v1H6zM19 4h3v1H19zM25 4h5v1H25zM31 4h1v1H31zM35 4h1v1H35zM37 4h3v1H37zM44 4h3v1H44zM50 4h4v1H50zM55 4h1v1H55zM59 4h1v1H59zM222 4h1v1H222zM231 4h3v1H231zM236 4h5v1H236zM243 4h3v1H243zM254 4h1v1H254zM258 4h1v1H258zM260 4h4v1H260zM266 4h3v1H266zM273 4h3v1H273zM278 4h5v1H278zM284 4h5v1H284zM294 4h1v1H294zM1 5h1v1H1zM6 5h9v1H6zM19 5h1v1H19zM22 5h1v1H22zM25 5h1v1H25zM31 5h1v1H31zM35 5h1v1H35zM37 5h1v1H37zM40 5h1v1H40zM43 5h1v1H43zM47 5h1v1H47zM49 5h1v1H49zM55 5h1v1H55zM59 5h1v1H59zM222 5h1v1H222zM230 5h1v1H230zM234 5h1v1H234zM238 5h1v1H238zM242 5h1v1H242zM246 5h1v1H246zM254 5h1v1H254zM258 5h1v1H258zM260 5h1v1H260zM264 5h1v1H264zM266 5h1v1H266zM269 5h1v1H269zM272 5h1v1H272zM276 5h1v1H276zM280 5h1v1H280zM284 5h1v1H284zM294 5h1v1H294zM1 6h1v1H1zM6 6h2v1H6zM13 6h2v1H13zM19 6h1v1H19zM23 6h1v1H23zM25 6h1v1H25zM31 6h1v1H31zM35 6h1v1H35zM37 6h1v1H37zM41 6h1v1H41zM43 6h1v1H43zM47 6h1v1H47zM49 6h1v1H49zM55 6h1v1H55zM59 6h1v1H59zM222 6h1v1H222zM230 6h1v1H230zM234 6h1v1H234zM238 6h1v1H238zM242 6h1v1H242zM246 6h1v1H246zM254 6h1v1H254zM258 6h1v1H258zM260 6h1v1H260zM264 6h1v1H264zM266 6h1v1H266zM270 6h1v1H270zM272 6h1v1H272zM276 6h1v1H276zM280 6h1v1H280zM284 6h1v1H284zM294 6h1v1H294zM1 7h1v1H1zM6 7h2v1H6zM9 7h3v1H9zM13 7h2v1H13zM19 7h1v1H19zM23 7h1v1H23zM25 7h4v1H25zM31 7h1v1H31zM35 7h1v1H35zM37 7h1v1H37zM41 7h1v1H41zM43 7h1v1H43zM47 7h1v1H47zM50 7h3v1H50zM55 7h5v1H55zM222 7h1v1H222zM230 7h1v1H230zM234 7h1v1H234zM238 7h1v1H238zM242 7h1v1H242zM246 7h1v1H246zM254 7h1v1H254zM258 7h1v1H258zM260 7h4v1H260zM266 7h1v1H266zM270 7h1v1H270zM272 7h1v1H272zM276 7h1v1H276zM280 7h1v1H280zM284 7h4v1H284zM294 7h1v1H294zM1 8h1v1H1zM6 8h2v1H6zM9 8h3v1H9zM13 8h2v1H13zM19 8h1v1H19zM23 8h1v1H23zM25 8h1v1H25zM31 8h1v1H31zM35 8h1v1H35zM37 8h1v1H37zM41 8h1v1H41zM43 8h5v1H43zM53 8h1v1H53zM55 8h1v1H55zM59 8h1v1H59zM220 8h1v1H220zM222 8h1v1H222zM224 8h1v1H224zM230 8h1v1H230zM234 8h1v1H234zM238 8h1v1H238zM242 8h5v1H242zM254 8h1v1H254zM258 8h1v1H258zM260 8h1v1H260zM266 8h1v1H266zM270 8h1v1H270zM272 8h5v1H272zM280 8h1v1H280zM284 8h1v1H284zM294 8h1v1H294zM1 9h1v1H1zM6 9h2v1H6zM9 9h3v1H9zM13 9h2v1H13zM19 9h1v1H19zM22 9h1v1H22zM25 9h1v1H25zM32 9h1v1H32zM34 9h1v1H34zM37 9h1v1H37zM40 9h1v1H40zM43 9h1v1H43zM47 9h1v1H47zM53 9h1v1H53zM55 9h1v1H55zM59 9h1v1H59zM221 9h3v1H221zM230 9h1v1H230zM234 9h1v1H234zM238 9h1v1H238zM242 9h1v1H242zM246 9h1v1H246zM254 9h1v1H254zM258 9h1v1H258zM260 9h1v1H260zM266 9h1v1H266zM269 9h1v1H269zM272 9h1v1H272zM276 9h1v1H276zM280 9h1v1H280zM284 9h1v1H284zM294 9h1v1H294zM1 10h1v1H1zM6 10h2v1H6zM13 10h2v1H13zM19 10h3v1H19zM25 10h5v1H25zM33 10h1v1H33zM37 10h3v1H37zM43 10h1v1H43zM47 10h1v1H47zM49 10h4v1H49zM55 10h1v1H55zM59 10h1v1H59zM222 10h1v1H222zM231 10h3v1H231zM238 10h1v1H238zM242 10h1v1H242zM246 10h1v1H246zM255 10h3v1H255zM260 10h1v1H260zM266 10h3v1H266zM272 10h1v1H272zM276 10h1v1H276zM280 10h1v1H280zM284 10h5v1H284zM294 10h1v1H294zM1 11h1v1H1zM6 11h9v1H6zM294 11h1v1H294zM1 12h1v1H1zM6 12h9v1H6zM294 12h1v1H294zM1 13h1v1H1zM294 13h1v1H294zM1 14h294v1H1zM1 15h1v1H1zM294 15h1v1H294zM1 16h1v1H1zM294 16h1v1H294zM1 17h1v1H1zM294 17h1v1H294zM1 18h1v1H1zM294 18h1v1H294zM1 19h1v1H1zM294 19h1v1H294zM1 20h1v1H1zM6 20h108v1H6zM294 20h1v1H294zM1 21h1v1H1zM6 21h108v1H6zM294 21h1v1H294zM1 22h1v1H1zM6 22h108v1H6zM123 22h3v1H123zM128 22h1v1H128zM132 22h1v1H132zM135 22h4v1H135zM140 22h5v1H140zM147 22h3v1H147zM152 22h1v1H152zM158 22h1v1H158zM165 22h3v1H165zM170 22h1v1H170zM174 22h1v1H174zM177 22h3v1H177zM188 22h1v1H188zM192 22h1v1H192zM194 22h4v1H194zM200 22h3v1H200zM207 22h3v1H207zM212 22h5v1H212zM218 22h5v1H218zM294 22h1v1H294zM1 23h1v1H1zM6 23h108v1H6zM124 23h1v1H124zM128 23h1v1H128zM132 23h1v1H132zM134 23h1v1H134zM142 23h1v1H142zM146 23h1v1H146zM150 23h1v1H150zM152 23h1v1H152zM158 23h1v1H158zM166 23h1v1H166zM170 23h1v1H170zM174 23h1v1H174zM176 23h1v1H176zM180 23h1v1H180zM188 23h1v1H188zM192 23h1v1H192zM194 23h1v1H194zM198 23h1v1H198zM200 23h1v1H200zM203 23h1v1H203zM206 23h1v1H206zM210 23h1v1H210zM214 23h1v1H214zM218 23h1v1H218zM294 23h1v1H294zM1 24h1v1H1zM6 24h6v1H6zM21 24h5v1H21zM41 24h5v1H41zM55 24h59v1H55zM124 24h1v1H124zM128 24h2v1H128zM132 24h1v1H132zM134 24h1v1H134zM142 24h1v1H142zM146 24h1v1H146zM150 24h1v1H150zM152 24h1v1H152zM158 24h1v1H158zM166 24h1v1H166zM170 24h2v1H170zM174 24h1v1H174zM176 24h1v1H176zM188 24h1v1H188zM192 24h1v1H192zM194 24h1v1H194zM198 24h1v1H198zM200 24h1v1H200zM204 24h1v1H204zM206 24h1v1H206zM210 24h1v1H210zM214 24h1v1H214zM218 24h1v1H218zM294 24h1v1H294zM1 25h1v1H1zM6 25h6v1H6zM21 25h5v1H21zM41 25h5v1H41zM55 25h59v1H55zM124 25h1v1H124zM128 25h1v1H128zM130 25h1v1H130zM132 25h1v1H132zM135 25h3v1H135zM142 25h1v1H142zM146 25h1v1H146zM150 25h1v1H150zM152 25h1v1H152zM158 25h1v1H158zM166 25h1v1H166zM170 25h1v1H170zM172 25h1v1H172zM174 25h1v1H174zM176 25h1v1H176zM178 25h3v1H178zM188 25h1v1H188zM192 25h1v1H192zM194 25h4v1H194zM200 25h1v1H200zM204 25h1v1H204zM206 25h1v1H206zM210 25h1v1H210zM214 25h1v1H214zM218 25h4v1H218zM294 25h1v1H294zM1 26h1v1H1zM6 26h6v1H6zM21 26h5v1H21zM41 26h5v1H41zM55 26h59v1H55zM124 26h1v1H124zM128 26h1v1H128zM131 26h2v1H131zM138 26h1v1H138zM142 26h1v1H142zM146 26h5v1H146zM152 26h1v1H152zM158 26h1v1H158zM166 26h1v1H166zM170 26h1v1H170zM173 26h2v1H173zM176 26h1v1H176zM180 26h1v1H180zM188 26h1v1H188zM192 26h1v1H192zM194 26h1v1H194zM200 26h1v1H200zM204 26h1v1H204zM206 26h5v1H206zM214 26h1v1H214zM218 26h1v1H218zM294 26h1v1H294zM1 27h1v1H1zM6 27h3v1H6zM12 27h9v1H12zM24 27h8v1H24zM35 27h8v1H35zM46 27h9v1H46zM58 27h56v1H58zM124 27h1v1H124zM128 27h1v1H128zM132 27h1v1H132zM138 27h1v1H138zM142 27h1v1H142zM146 27h1v1H146zM150 27h1v1H150zM152 27h1v1H152zM158 27h1v1H158zM166 27h1v1H166zM170 27h1v1H170zM174 27h1v1H174zM176 27h1v1H176zM180 27h1v1H180zM188 27h1v1H188zM192 27h1v1H192zM194 27h1v1H194zM200 27h1v1H200zM203 27h1v1H203zM206 27h1v1H206zM210 27h1v1H210zM214 27h1v1H214zM218 27h1v1H218zM294 27h1v1H294zM1 28h1v1H1zM6 28h3v1H6zM12 28h9v1H12zM24 28h8v1H24zM35 28h8v1H35zM46 28h9v1H46zM58 28h56v1H58zM123 28h3v1H123zM128 28h1v1H128zM132 28h1v1H132zM134 28h4v1H134zM142 28h1v1H142zM146 28h1v1H146zM150 28h1v1H150zM152 28h5v1H152zM158 28h5v1H158zM165 28h3v1H165zM170 28h1v1H170zM174 28h1v1H174zM177 28h4v1H177zM189 28h3v1H189zM194 28h1v1H194zM200 28h3v1H200zM206 28h1v1H206zM210 28h1v1H210zM214 28h1v1H214zM218 28h5v1H218zM294 28h1v1H294zM1 29h1v1H1zM6 29h3v1H6zM12 29h9v1H12zM24 29h8v1H24zM35 29h8v1H35zM46 29h9v1H46zM58 29h56v1H58zM294 29h1v1H294zM1 30h1v1H1zM6 30h3v1H6zM12 30h9v1H12zM24 30h8v1H24zM35 30h8v1H35zM46 30h9v1H46zM58 30h56v1H58zM294 30h1v1H294zM1 31h1v1H1zM6 31h3v1H6zM12 31h9v1H12zM24 31h8v1H24zM35 31h8v1H35zM46 31h9v1H46zM58 31h56v1H58zM294 31h1v1H294zM1 32h1v1H1zM6 32h3v1H6zM12 32h9v1H12zM24 32h8v1H24zM35 32h8v1H35zM46 32h9v1H46zM58 32h56v1H58zM294 32h1v1H294zM1 33h1v1H1zM6 33h3v1H6zM12 33h9v1H12zM24 33h8v1H24zM35 33h8v1H35zM46 33h9v1H46zM58 33h56v1H58zM294 33h1v1H294zM1 34h1v1H1zM6 34h3v1H6zM12 34h9v1H12zM24 34h8v1H24zM35 34h8v1H35zM46 34h9v1H46zM58 34h56v1H58zM294 34h1v1H294zM1 35h1v1H1zM6 35h3v1H6zM12 35h9v1H12zM24 35h8v1H24zM35 35h8v1H35zM46 35h9v1H46zM58 35h56v1H58zM122 35h169v1H122zM294 35h1v1H294zM1 36h1v1H1zM6 36h3v1H6zM12 36h9v1H12zM24 36h8v1H24zM35 36h8v1H35zM58 36h56v1H58zM294 36h1v1H294zM1 37h1v1H1zM6 37h3v1H6zM12 37h9v1H12zM24 37h8v1H24zM35 37h8v1H35zM58 37h56v1H58zM294 37h1v1H294zM1 38h1v1H1zM6 38h3v1H6zM12 38h9v1H12zM24 38h8v1H24zM35 38h8v1H35zM58 38h56v1H58zM294 38h1v1H294zM1 39h1v1H1zM6 39h3v1H6zM12 39h9v1H12zM24 39h8v1H24zM35 39h8v1H35zM46 39h9v1H46zM58 39h56v1H58zM294 39h1v1H294zM1 40h1v1H1zM6 40h3v1H6zM12 40h9v1H12zM24 40h8v1H24zM35 40h8v1H35zM46 40h9v1H46zM58 40h56v1H58zM294 40h1v1H294zM1 41h1v1H1zM6 41h3v1H6zM12 41h9v1H12zM24 41h8v1H24zM35 41h8v1H35zM46 41h9v1H46zM58 41h56v1H58zM120 41h1v1H120zM138 41h1v1H138zM159 41h2v1H159zM180 41h1v1H180zM255 41h3v1H255zM262 41h1v1H262zM267 41h1v1H267zM272 41h1v1H272zM276 41h1v1H276zM284 41h1v1H284zM294 41h1v1H294zM1 42h1v1H1zM6 42h6v1H6zM21 42h11v1H21zM35 42h8v1H35zM46 42h9v1H46zM58 42h56v1H58zM119 42h2v1H119zM138 42h1v1H138zM160 42h1v1H160zM180 42h1v1H180zM254 42h1v1H254zM258 42h1v1H258zM267 42h1v1H267zM272 42h1v1H272zM276 42h1v1H276zM284 42h1v1H284zM294 42h1v1H294zM1 43h1v1H1zM6 43h6v1H6zM21 43h11v1H21zM35 43h8v1H35zM46 43h9v1H46zM58 43h56v1H58zM120 43h1v1H120zM135 43h2v1H135zM138 43h1v1H138zM141 43h3v1H141zM146 43h1v1H146zM150 43h1v1H150zM152 43h1v1H152zM154 43h2v1H154zM160 43h1v1H160zM165 43h3v1H165zM171 43h3v1H171zM177 43h2v1H177zM180 43h1v1H180zM254 43h1v1H254zM261 43h2v1H261zM266 43h3v1H266zM272 43h1v1H272zM276 43h1v1H276zM278 43h1v1H278zM282 43h1v1H282zM284 43h1v1H284zM286 43h2v1H286zM294 43h1v1H294zM1 44h1v1H1zM6 44h6v1H6zM21 44h11v1H21zM35 44h8v1H35zM46 44h9v1H46zM58 44h56v1H58zM120 44h1v1H120zM134 44h1v1H134zM137 44h2v1H137zM140 44h1v1H140zM144 44h1v1H144zM146 44h1v1H146zM150 44h1v1H150zM152 44h2v1H152zM156 44h1v1H156zM160 44h1v1H160zM164 44h1v1H164zM168 44h1v1H168zM174 44h1v1H174zM176 44h1v1H176zM179 44h2v1H179zM254 44h1v1H254zM256 44h3v1H256zM262 44h1v1H262zM267 44h1v1H267zM272 44h5v1H272zM278 44h1v1H278zM282 44h1v1H282zM284 44h2v1H284zM288 44h1v1H288zM294 44h1v1H294zM1 45h1v1H1zM6 45h108v1H6zM120 45h1v1H120zM134 45h1v1H134zM138 45h1v1H138zM140 45h1v1H140zM144 45h1v1H144zM146 45h1v1H146zM150 45h1v1H150zM152 45h1v1H152zM156 45h1v1H156zM160 45h1v1H160zM164 45h1v1H164zM168 45h1v1H168zM171 45h4v1H171zM176 45h1v1H176zM180 45h1v1H180zM254 45h1v1H254zM258 45h1v1H258zM262 45h1v1H262zM267 45h1v1H267zM272 45h1v1H272zM276 45h1v1H276zM278 45h1v1H278zM282 45h1v1H282zM284 45h1v1H284zM288 45h1v1H288zM294 45h1v1H294zM1 46h1v1H1zM6 46h108v1H6zM120 46h1v1H120zM125 46h2v1H125zM134 46h1v1H134zM138 46h1v1H138zM140 46h1v1H140zM144 46h1v1H144zM146 46h1v1H146zM148 46h1v1H148zM150 46h1v1H150zM152 46h1v1H152zM156 46h1v1H156zM160 46h1v1H160zM164 46h1v1H164zM168 46h1v1H168zM170 46h1v1H170zM174 46h1v1H174zM176 46h1v1H176zM180 46h1v1H180zM254 46h1v1H254zM258 46h1v1H258zM262 46h1v1H262zM267 46h1v1H267zM270 46h1v1H270zM272 46h1v1H272zM276 46h1v1H276zM278 46h1v1H278zM281 46h2v1H281zM284 46h1v1H284zM288 46h1v1H288zM294 46h1v1H294zM1 47h1v1H1zM6 47h108v1H6zM119 47h3v1H119zM125 47h2v1H125zM135 47h4v1H135zM141 47h3v1H141zM147 47h1v1H147zM149 47h1v1H149zM152 47h1v1H152zM156 47h1v1H156zM159 47h3v1H159zM165 47h3v1H165zM171 47h4v1H171zM177 47h4v1H177zM255 47h4v1H255zM261 47h3v1H261zM268 47h2v1H268zM272 47h1v1H272zM276 47h1v1H276zM279 47h2v1H279zM282 47h1v1H282zM284 47h4v1H284zM294 47h1v1H294zM1 48h1v1H1zM6 48h108v1H6zM294 48h1v1H294zM1 49h1v1H1zM6 49h108v1H6zM294 49h1v1H294zM1 50h1v1H1zM6 50h108v1H6zM294 50h1v1H294zM1 51h1v1H1zM6 51h108v1H6zM119 51h3v1H119zM154 51h1v1H154zM160 51h2v1H160zM238 51h1v1H238zM272 51h1v1H272zM282 51h1v1H282zM294 51h1v1H294zM1 52h1v1H1zM6 52h108v1H6zM118 52h1v1H118zM122 52h1v1H122zM159 52h1v1H159zM162 52h1v1H162zM255 52h4v1H255zM272 52h1v1H272zM282 52h1v1H282zM294 52h1v1H294zM1 53h1v1H1zM6 53h108v1H6zM122 53h1v1H122zM134 53h1v1H134zM138 53h1v1H138zM141 53h3v1H141zM146 53h1v1H146zM148 53h2v1H148zM153 53h2v1H153zM159 53h1v1H159zM164 53h1v1H164zM168 53h1v1H168zM177 53h3v1H177zM182 53h4v1H182zM188 53h4v1H188zM237 53h2v1H237zM242 53h2v1H242zM245 53h1v1H245zM249 53h3v1H249zM254 53h1v1H254zM258 53h1v1H258zM261 53h3v1H261zM272 53h1v1H272zM274 53h2v1H274zM279 53h2v1H279zM282 53h1v1H282zM284 53h1v1H284zM286 53h2v1H286zM294 53h1v1H294zM1 54h1v1H1zM6 54h3v1H6zM12 54h9v1H12zM24 54h2v1H24zM38 54h5v1H38zM52 54h11v1H52zM72 54h5v1H72zM92 54h2v1H92zM109 54h5v1H109zM121 54h1v1H121zM134 54h1v1H134zM138 54h1v1H138zM140 54h1v1H140zM144 54h1v1H144zM146 54h2v1H146zM150 54h1v1H150zM154 54h1v1H154zM158 54h3v1H158zM164 54h1v1H164zM168 54h1v1H168zM180 54h1v1H180zM182 54h1v1H182zM186 54h1v1H186zM188 54h1v1H188zM192 54h1v1H192zM238 54h1v1H238zM242 54h1v1H242zM244 54h1v1H244zM246 54h1v1H246zM252 54h1v1H252zM254 54h1v1H254zM258 54h1v1H258zM260 54h1v1H260zM264 54h1v1H264zM272 54h2v1H272zM276 54h1v1H276zM278 54h1v1H278zM281 54h2v1H281zM284 54h2v1H284zM288 54h1v1H288zM294 54h1v1H294zM1 55h1v1H1zM6 55h3v1H6zM12 55h9v1H12zM24 55h2v1H24zM38 55h5v1H38zM52 55h11v1H52zM72 55h5v1H72zM92 55h2v1H92zM109 55h5v1H109zM120 55h1v1H120zM134 55h1v1H134zM138 55h1v1H138zM140 55h5v1H140zM146 55h1v1H146zM154 55h1v1H154zM159 55h1v1H159zM165 55h4v1H165zM177 55h4v1H177zM182 55h4v1H182zM188 55h4v1H188zM238 55h1v1H238zM242 55h1v1H242zM244 55h1v1H244zM246 55h1v1H246zM249 55h4v1H249zM255 55h4v1H255zM260 55h5v1H260zM272 55h1v1H272zM276 55h1v1H276zM278 55h1v1H278zM282 55h1v1H282zM284 55h1v1H284zM294 55h1v1H294zM1 56h1v1H1zM6 56h3v1H6zM12 56h9v1H12zM24 56h2v1H24zM38 56h5v1H38zM52 56h11v1H52zM72 56h5v1H72zM92 56h2v1H92zM109 56h5v1H109zM119 56h1v1H119zM125 56h2v1H125zM135 56h1v1H135zM137 56h1v1H137zM140 56h1v1H140zM146 56h1v1H146zM154 56h1v1H154zM159 56h1v1H159zM168 56h1v1H168zM176 56h1v1H176zM180 56h1v1H180zM182 56h1v1H182zM188 56h1v1H188zM238 56h1v1H238zM242 56h1v1H242zM246 56h1v1H246zM248 56h1v1H248zM252 56h1v1H252zM258 56h1v1H258zM260 56h1v1H260zM272 56h1v1H272zM276 56h1v1H276zM278 56h1v1H278zM282 56h1v1H282zM284 56h1v1H284zM294 56h1v1H294zM1 57h1v1H1zM6 57h3v1H6zM12 57h9v1H12zM24 57h2v1H24zM29 57h9v1H29zM41 57h2v1H41zM46 57h6v1H46zM55 57h5v1H55zM63 57h9v1H63zM75 57h8v1H75zM86 57h8v1H86zM97 57h17v1H97zM118 57h5v1H118zM125 57h2v1H125zM136 57h1v1H136zM141 57h3v1H141zM146 57h1v1H146zM153 57h3v1H153zM159 57h1v1H159zM165 57h3v1H165zM177 57h4v1H177zM182 57h1v1H182zM188 57h1v1H188zM237 57h3v1H237zM242 57h1v1H242zM246 57h1v1H246zM249 57h4v1H249zM255 57h3v1H255zM261 57h3v1H261zM272 57h1v1H272zM276 57h1v1H276zM279 57h4v1H279zM284 57h1v1H284zM294 57h1v1H294zM1 58h1v1H1zM6 58h3v1H6zM12 58h9v1H12zM24 58h2v1H24zM29 58h9v1H29zM41 58h2v1H41zM46 58h6v1H46zM55 58h5v1H55zM63 58h9v1H63zM75 58h8v1H75zM86 58h8v1H86zM97 58h17v1H97zM294 58h1v1H294zM1 59h1v1H1zM6 59h3v1H6zM12 59h9v1H12zM24 59h2v1H24zM29 59h9v1H29zM41 59h2v1H41zM46 59h6v1H46zM55 59h5v1H55zM63 59h9v1H63zM75 59h8v1H75zM86 59h8v1H86zM97 59h17v1H97zM294 59h1v1H294zM1 60h1v1H1zM6 60h3v1H6zM12 60h9v1H12zM24 60h2v1H24zM29 60h9v1H29zM41 60h2v1H41zM46 60h9v1H46zM58 60h2v1H58zM63 60h9v1H63zM75 60h8v1H75zM86 60h8v1H86zM97 60h17v1H97zM294 60h1v1H294zM1 61h1v1H1zM6 61h3v1H6zM12 61h9v1H12zM24 61h2v1H24zM29 61h9v1H29zM41 61h2v1H41zM46 61h9v1H46zM58 61h2v1H58zM63 61h9v1H63zM75 61h8v1H75zM86 61h8v1H86zM97 61h17v1H97zM118 61h5v1H118zM136 61h2v1H136zM141 61h2v1H141zM158 61h1v1H158zM190 61h1v1H190zM243 61h1v1H243zM250 61h1v1H250zM255 61h1v1H255zM262 61h1v1H262zM284 61h4v1H284zM294 61h1v1H294zM1 62h1v1H1zM6 62h3v1H6zM12 62h9v1H12zM24 62h2v1H24zM29 62h9v1H29zM41 62h2v1H41zM46 62h9v1H46zM58 62h2v1H58zM63 62h9v1H63zM75 62h8v1H75zM86 62h8v1H86zM97 62h17v1H97zM121 62h1v1H121zM135 62h1v1H135zM138 62h1v1H138zM142 62h1v1H142zM158 62h1v1H158zM189 62h2v1H189zM243 62h1v1H243zM255 62h1v1H255zM284 62h1v1H284zM288 62h1v1H288zM294 62h1v1H294zM1 63h1v1H1zM6 63h3v1H6zM12 63h9v1H12zM24 63h2v1H24zM38 63h5v1H38zM46 63h9v1H46zM58 63h2v1H58zM63 63h9v1H63zM75 63h8v1H75zM86 63h8v1H86zM106 63h8v1H106zM120 63h1v1H120zM135 63h1v1H135zM142 63h1v1H142zM147 63h3v1H147zM153 63h3v1H153zM158 63h1v1H158zM160 63h2v1H160zM171 63h3v1H171zM176 63h4v1H176zM182 63h4v1H182zM190 63h1v1H190zM224 63h4v1H224zM231 63h3v1H231zM236 63h1v1H236zM238 63h2v1H238zM242 63h3v1H242zM249 63h2v1H249zM254 63h3v1H254zM261 63h2v1H261zM267 63h3v1H267zM272 63h1v1H272zM274 63h2v1H274zM284 63h1v1H284zM288 63h1v1H288zM294 63h1v1H294zM1 64h1v1H1zM6 64h3v1H6zM12 64h9v1H12zM24 64h2v1H24zM38 64h5v1H38zM46 64h9v1H46zM58 64h2v1H58zM63 64h9v1H63zM75 64h8v1H75zM86 64h8v1H86zM106 64h8v1H106zM121 64h1v1H121zM134 64h3v1H134zM142 64h1v1H142zM150 64h1v1H150zM152 64h1v1H152zM158 64h2v1H158zM162 64h1v1H162zM174 64h1v1H174zM176 64h1v1H176zM180 64h1v1H180zM182 64h1v1H182zM186 64h1v1H186zM190 64h1v1H190zM224 64h1v1H224zM228 64h1v1H228zM234 64h1v1H234zM236 64h2v1H236zM240 64h1v1H240zM243 64h1v1H243zM250 64h1v1H250zM255 64h1v1H255zM262 64h1v1H262zM266 64h1v1H266zM270 64h1v1H270zM272 64h2v1H272zM276 64h1v1H276zM284 64h4v1H284zM294 64h1v1H294zM1 65h1v1H1zM6 65h3v1H6zM12 65h9v1H12zM24 65h2v1H24zM38 65h5v1H38zM46 65h9v1H46zM58 65h2v1H58zM63 65h9v1H63zM75 65h8v1H75zM86 65h8v1H86zM106 65h8v1H106zM122 65h1v1H122zM135 65h1v1H135zM142 65h1v1H142zM147 65h4v1H147zM153 65h3v1H153zM158 65h1v1H158zM162 65h1v1H162zM171 65h4v1H171zM176 65h4v1H176zM182 65h4v1H182zM190 65h1v1H190zM224 65h4v1H224zM231 65h4v1H231zM236 65h1v1H236zM243 65h1v1H243zM250 65h1v1H250zM255 65h1v1H255zM262 65h1v1H262zM266 65h1v1H266zM270 65h1v1H270zM272 65h1v1H272zM276 65h1v1H276zM284 65h1v1H284zM288 65h1v1H288zM294 65h1v1H294zM1 66h1v1H1zM6 66h3v1H6zM12 66h9v1H12zM24 66h2v1H24zM29 66h14v1H29zM46 66h9v1H46zM58 66h2v1H58zM75 66h8v1H75zM86 66h8v1H86zM97 66h17v1H97zM118 66h1v1H118zM122 66h1v1H122zM125 66h2v1H125zM135 66h1v1H135zM142 66h1v1H142zM146 66h1v1H146zM150 66h1v1H150zM156 66h1v1H156zM158 66h1v1H158zM162 66h1v1H162zM170 66h1v1H170zM174 66h1v1H174zM176 66h1v1H176zM182 66h1v1H182zM190 66h1v1H190zM224 66h1v1H224zM230 66h1v1H230zM234 66h1v1H234zM236 66h1v1H236zM243 66h1v1H243zM246 66h1v1H246zM250 66h1v1H250zM255 66h1v1H255zM258 66h1v1H258zM262 66h1v1H262zM266 66h1v1H266zM270 66h1v1H270zM272 66h1v1H272zM276 66h1v1H276zM284 66h1v1H284zM288 66h1v1H288zM294 66h1v1H294zM1 67h1v1H1zM6 67h3v1H6zM12 67h9v1H12zM24 67h2v1H24zM29 67h14v1H29zM46 67h9v1H46zM58 67h2v1H58zM75 67h8v1H75zM86 67h8v1H86zM97 67h17v1H97zM119 67h3v1H119zM125 67h2v1H125zM135 67h1v1H135zM141 67h3v1H141zM147 67h4v1H147zM152 67h4v1H152zM158 67h1v1H158zM162 67h1v1H162zM171 67h4v1H171zM176 67h1v1H176zM182 67h1v1H182zM189 67h3v1H189zM224 67h1v1H224zM231 67h4v1H231zM236 67h1v1H236zM244 67h2v1H244zM249 67h3v1H249zM256 67h2v1H256zM261 67h3v1H261zM267 67h3v1H267zM272 67h1v1H272zM276 67h1v1H276zM284 67h4v1H284zM294 67h1v1H294zM1 68h1v1H1zM6 68h3v1H6zM12 68h9v1H12zM24 68h2v1H24zM29 68h14v1H29zM46 68h9v1H46zM58 68h2v1H58zM75 68h8v1H75zM86 68h8v1H86zM97 68h17v1H97zM294 68h1v1H294zM1 69h1v1H1zM6 69h3v1H6zM12 69h9v1H12zM24 69h2v1H24zM29 69h14v1H29zM46 69h6v1H46zM55 69h5v1H55zM63 69h9v1H63zM75 69h8v1H75zM86 69h8v1H86zM97 69h17v1H97zM294 69h1v1H294zM1 70h1v1H1zM6 70h3v1H6zM12 70h9v1H12zM24 70h2v1H24zM29 70h14v1H29zM46 70h6v1H46zM55 70h5v1H55zM63 70h9v1H63zM75 70h8v1H75zM86 70h8v1H86zM97 70h17v1H97zM294 70h1v1H294zM1 71h1v1H1zM6 71h3v1H6zM12 71h9v1H12zM24 71h2v1H24zM29 71h14v1H29zM46 71h6v1H46zM55 71h5v1H55zM63 71h9v1H63zM75 71h8v1H75zM86 71h8v1H86zM97 71h17v1H97zM121 71h1v1H121zM146 71h1v1H146zM165 71h1v1H165zM254 71h1v1H254zM273 71h1v1H273zM284 71h4v1H284zM294 71h1v1H294zM1 72h1v1H1zM6 72h6v1H6zM21 72h5v1H21zM29 72h14v1H29zM52 72h8v1H52zM63 72h9v1H63zM75 72h8v1H75zM86 72h8v1H86zM109 72h5v1H109zM120 72h2v1H120zM146 72h1v1H146zM165 72h1v1H165zM254 72h1v1H254zM273 72h1v1H273zM284 72h1v1H284zM288 72h1v1H288zM294 72h1v1H294zM1 73h1v1H1zM6 73h6v1H6zM21 73h5v1H21zM29 73h14v1H29zM52 73h8v1H52zM63 73h9v1H63zM75 73h8v1H75zM86 73h8v1H86zM109 73h5v1H109zM119 73h1v1H119zM121 73h1v1H121zM134 73h1v1H134zM136 73h2v1H136zM141 73h3v1H141zM146 73h1v1H146zM148 73h2v1H148zM153 73h3v1H153zM159 73h3v1H159zM164 73h3v1H164zM254 73h1v1H254zM256 73h2v1H256zM261 73h3v1H261zM267 73h3v1H267zM272 73h3v1H272zM284 73h1v1H284zM288 73h1v1H288zM294 73h1v1H294zM1 74h1v1H1zM6 74h6v1H6zM21 74h5v1H21zM29 74h14v1H29zM52 74h8v1H52zM63 74h9v1H63zM75 74h8v1H75zM86 74h8v1H86zM109 74h5v1H109zM118 74h1v1H118zM121 74h1v1H121zM134 74h2v1H134zM138 74h1v1H138zM140 74h1v1H140zM144 74h1v1H144zM146 74h2v1H146zM150 74h1v1H150zM152 74h1v1H152zM156 74h1v1H156zM158 74h1v1H158zM162 74h1v1H162zM165 74h1v1H165zM254 74h2v1H254zM258 74h1v1H258zM260 74h1v1H260zM264 74h1v1H264zM266 74h1v1H266zM270 74h1v1H270zM273 74h1v1H273zM284 74h4v1H284zM294 74h1v1H294zM1 75h1v1H1zM6 75h108v1H6zM118 75h5v1H118zM134 75h1v1H134zM140 75h5v1H140zM146 75h1v1H146zM150 75h1v1H150zM152 75h1v1H152zM156 75h1v1H156zM158 75h1v1H158zM162 75h1v1H162zM165 75h1v1H165zM254 75h1v1H254zM258 75h1v1H258zM260 75h1v1H260zM264 75h1v1H264zM266 75h1v1H266zM270 75h1v1H270zM273 75h1v1H273zM284 75h1v1H284zM288 75h1v1H288zM294 75h1v1H294zM1 76h1v1H1zM6 76h108v1H6zM121 76h1v1H121zM125 76h2v1H125zM134 76h1v1H134zM140 76h1v1H140zM146 76h1v1H146zM150 76h1v1H150zM152 76h1v1H152zM156 76h1v1H156zM158 76h1v1H158zM162 76h1v1H162zM165 76h1v1H165zM168 76h1v1H168zM254 76h1v1H254zM258 76h1v1H258zM260 76h1v1H260zM264 76h1v1H264zM266 76h1v1H266zM270 76h1v1H270zM273 76h1v1H273zM276 76h1v1H276zM284 76h1v1H284zM288 76h1v1H288zM294 76h1v1H294zM1 77h1v1H1zM6 77h108v1H6zM121 77h1v1H121zM125 77h2v1H125zM134 77h1v1H134zM141 77h3v1H141zM146 77h4v1H146zM153 77h3v1H153zM159 77h3v1H159zM166 77h2v1H166zM254 77h4v1H254zM261 77h3v1H261zM267 77h3v1H267zM274 77h2v1H274zM284 77h4v1H284zM294 77h1v1H294zM1 78h1v1H1zM6 78h108v1H6zM294 78h1v1H294zM1 79h1v1H1zM6 79h108v1H6zM294 79h1v1H294zM1 80h1v1H1zM6 80h108v1H6zM294 80h1v1H294zM1 81h1v1H1zM6 81h108v1H6zM294 81h1v1H294zM1 82h1v1H1zM6 82h108v1H6zM294 82h1v1H294zM1 83h1v1H1zM6 83h108v1H6zM294 83h1v1H294zM1 84h1v1H1zM6 84h108v1H6zM294 84h1v1H294zM1 85h1v1H1zM6 85h108v1H6zM294 85h1v1H294zM1 86h1v1H1zM6 86h108v1H6zM294 86h1v1H294zM1 87h1v1H1zM6 87h108v1H6zM294 87h1v1H294zM1 88h1v1H1zM6 88h108v1H6zM294 88h1v1H294zM1 89h1v1H1zM6 89h108v1H6zM294 89h1v1H294zM1 90h1v1H1zM6 90h108v1H6zM294 90h1v1H294zM1 91h1v1H1zM6 91h108v1H6zM294 91h1v1H294zM1 92h1v1H1zM6 92h108v1H6zM294 92h1v1H294zM1 93h1v1H1zM6 93h108v1H6zM294 93h1v1H294zM1 94h1v1H1zM6 94h108v1H6zM294 94h1v1H294zM1 95h1v1H1zM6 95h108v1H6zM294 95h1v1H294zM1 96h1v1H1zM6 96h108v1H6zM294 96h1v1H294zM1 97h1v1H1zM6 97h108v1H6zM294 97h1v1H294zM1 98h1v1H1zM6 98h5v1H6zM13 98h15v1H13zM31 98h11v1H31zM43 98h10v1H43zM54 98h10v1H54zM65 98h11v1H65zM79 98h8v1H79zM92 98h8v1H92zM103 98h11v1H103zM294 98h1v1H294zM1 99h1v1H1zM6 99h4v1H6zM11 99h2v1H11zM14 99h13v1H14zM28 99h3v1H28zM32 99h9v1H32zM43 99h9v1H43zM54 99h11v1H54zM66 99h9v1H66zM76 99h3v1H76zM80 99h7v1H80zM88 99h11v1H88zM100 99h3v1H100zM104 99h10v1H104zM294 99h1v1H294zM1 100h1v1H1zM6 100h4v1H6zM11 100h4v1H11zM16 100h3v1H16zM20 100h7v1H20zM28 100h2v1H28zM32 100h8v1H32zM41 100h1v1H41zM43 100h10v1H43zM54 100h12v1H54zM67 100h8v1H67zM76 100h2v1H76zM80 100h7v1H80zM91 100h8v1H91zM100 100h2v1H100zM104 100h10v1H104zM294 100h1v1H294zM1 101h1v1H1zM6 101h3v1H6zM12 101h3v1H12zM16 101h3v1H16zM20 101h7v1H20zM28 101h1v1H28zM30 101h1v1H30zM32 101h7v1H32zM40 101h2v1H40zM43 101h10v1H43zM54 101h13v1H54zM68 101h7v1H68zM76 101h1v1H76zM78 101h1v1H78zM80 101h11v1H80zM92 101h7v1H92zM100 101h1v1H100zM102 101h1v1H102zM104 101h10v1H104zM294 101h1v1H294zM1 102h1v1H1zM6 102h4v1H6zM11 102h4v1H11zM16 102h3v1H16zM20 102h7v1H20zM29 102h2v1H29zM32 102h7v1H32zM44 102h9v1H44zM54 102h12v1H54zM67 102h8v1H67zM77 102h2v1H77zM80 102h11v1H80zM92 102h7v1H92zM101 102h2v1H101zM104 102h10v1H104zM294 102h1v1H294zM1 103h1v1H1zM6 103h4v1H6zM11 103h4v1H11zM16 103h1v1H16zM18 103h1v1H18zM20 103h7v1H20zM28 103h3v1H28zM32 103h2v1H32zM36 103h6v1H36zM43 103h3v1H43zM48 103h5v1H48zM54 103h11v1H54zM66 103h9v1H66zM76 103h3v1H76zM80 103h2v1H80zM84 103h3v1H84zM88 103h3v1H88zM92 103h2v1H92zM96 103h3v1H96zM100 103h3v1H100zM104 103h10v1H104zM294 103h1v1H294zM1 104h1v1H1zM6 104h4v1H6zM11 104h5v1H11zM17 104h1v1H17zM19 104h9v1H19zM31 104h3v1H31zM36 104h6v1H36zM43 104h3v1H43zM48 104h4v1H48zM55 104h9v1H55zM65 104h11v1H65zM79 104h3v1H79zM84 104h4v1H84zM91 104h3v1H91zM96 104h4v1H96zM103 104h11v1H103zM294 104h1v1H294zM1 105h1v1H1zM6 105h108v1H6zM294 105h1v1H294zM1 106h1v1H1zM6 106h108v1H6zM294 106h1v1H294zM1 107h1v1H1zM6 107h108v1H6zM294 107h1v1H294zM1 108h1v1H1zM6 108h108v1H6zM294 108h1v1H294zM1 109h1v1H1zM6 109h108v1H6zM294 109h1v1H294zM1 110h1v1H1zM294 110h1v1H294zM1 111h1v1H1zM294 111h1v1H294zM1 112h1v1H1zM294 112h1v1H294zM1 113h1v1H1zM294 113h1v1H294zM1 114h294v1H1zM1 115h1v1H1zM294 115h1v1H294zM1 116h1v1H1zM294 116h1v1H294zM1 117h1v1H1zM191 117h1v1H191zM195 117h3v1H195zM236 117h1v1H236zM255 117h1v1H255zM294 117h1v1H294zM1 118h1v1H1zM190 118h2v1H190zM194 118h1v1H194zM198 118h1v1H198zM236 118h1v1H236zM255 118h1v1H255zM294 118h1v1H294zM1 119h1v1H1zM183 119h1v1H183zM189 119h1v1H189zM191 119h1v1H191zM194 119h1v1H194zM197 119h2v1H197zM201 119h3v1H201zM224 119h1v1H224zM226 119h2v1H226zM231 119h3v1H231zM236 119h1v1H236zM238 119h2v1H238zM243 119h3v1H243zM249 119h3v1H249zM254 119h3v1H254zM267 119h3v1H267zM272 119h1v1H272zM274 119h2v1H274zM279 119h3v1H279zM285 119h3v1H285zM294 119h1v1H294zM1 120h1v1H1zM182 120h1v1H182zM184 120h1v1H184zM186 120h1v1H186zM188 120h1v1H188zM191 120h1v1H191zM194 120h1v1H194zM196 120h1v1H196zM198 120h1v1H198zM200 120h1v1H200zM213 120h2v1H213zM224 120h2v1H224zM228 120h1v1H228zM230 120h1v1H230zM234 120h1v1H234zM236 120h2v1H236zM240 120h1v1H240zM242 120h1v1H242zM246 120h1v1H246zM248 120h1v1H248zM252 120h1v1H252zM255 120h1v1H255zM266 120h1v1H266zM270 120h1v1H270zM272 120h2v1H272zM276 120h1v1H276zM278 120h1v1H278zM284 120h1v1H284zM288 120h1v1H288zM294 120h1v1H294zM1 121h1v1H1zM185 121h1v1H185zM188 121h5v1H188zM194 121h2v1H194zM198 121h1v1H198zM201 121h3v1H201zM213 121h2v1H213zM224 121h1v1H224zM230 121h5v1H230zM236 121h1v1H236zM240 121h1v1H240zM242 121h1v1H242zM246 121h1v1H246zM248 121h1v1H248zM252 121h1v1H252zM255 121h1v1H255zM266 121h1v1H266zM270 121h1v1H270zM272 121h1v1H272zM276 121h1v1H276zM278 121h1v1H278zM284 121h5v1H284zM294 121h1v1H294zM1 122h1v1H1zM191 122h1v1H191zM194 122h1v1H194zM198 122h1v1H198zM204 122h1v1H204zM224 122h1v1H224zM230 122h1v1H230zM236 122h1v1H236zM240 122h1v1H240zM242 122h1v1H242zM246 122h1v1H246zM248 122h1v1H248zM252 122h1v1H252zM255 122h1v1H255zM258 122h1v1H258zM266 122h1v1H266zM270 122h1v1H270zM272 122h1v1H272zM276 122h1v1H276zM278 122h1v1H278zM282 122h1v1H282zM284 122h1v1H284zM294 122h1v1H294zM1 123h1v1H1zM191 123h1v1H191zM195 123h3v1H195zM200 123h4v1H200zM224 123h1v1H224zM231 123h3v1H231zM236 123h4v1H236zM243 123h3v1H243zM249 123h3v1H249zM256 123h2v1H256zM267 123h3v1H267zM272 123h1v1H272zM276 123h1v1H276zM279 123h3v1H279zM285 123h3v1H285zM294 123h1v1H294zM1 124h1v1H1zM294 124h1v1H294zM1 125h1v1H1zM294 125h1v1H294zM1 126h294v1H1z"/>
<path fill="#d62518" d="M13 117h3v1H13zM20 117h3v1H20zM31 117h1v1H31zM35 117h1v1H35zM38 117h3v1H38zM43 117h5v1H43zM55 117h1v1H55zM59 117h1v1H59zM61 117h1v1H61zM65 117h1v1H65zM67 117h4v1H67zM73 117h1v1H73zM79 117h1v1H79zM83 117h1v1H83zM86 117h3v1H86zM13 118h1v1H13zM16 118h1v1H16zM19 118h1v1H19zM23 118h1v1H23zM31 118h1v1H31zM35 118h1v1H35zM37 118h1v1H37zM41 118h1v1H41zM45 118h1v1H45zM55 118h1v1H55zM59 118h1v1H59zM61 118h1v1H61zM65 118h1v1H65zM67 118h1v1H67zM71 118h1v1H71zM73 118h1v1H73zM79 118h1v1H79zM83 118h1v1H83zM85 118h1v1H85zM89 118h1v1H89zM6 119h3v1H6zM13 119h1v1H13zM17 119h1v1H17zM19 119h1v1H19zM23 119h1v1H23zM31 119h2v1H31zM35 119h1v1H35zM37 119h1v1H37zM41 119h1v1H41zM45 119h1v1H45zM55 119h1v1H55zM59 119h1v1H59zM61 119h2v1H61zM65 119h1v1H65zM67 119h1v1H67zM71 119h1v1H71zM73 119h1v1H73zM79 119h1v1H79zM83 119h1v1H83zM85 119h1v1H85zM6 120h3v1H6zM13 120h1v1H13zM17 120h1v1H17zM19 120h1v1H19zM23 120h1v1H23zM31 120h1v1H31zM33 120h1v1H33zM35 120h1v1H35zM37 120h1v1H37zM41 120h1v1H41zM45 120h1v1H45zM55 120h1v1H55zM59 120h1v1H59zM61 120h1v1H61zM63 120h1v1H63zM65 120h1v1H65zM67 120h4v1H67zM73 120h1v1H73zM79 120h1v1H79zM83 120h1v1H83zM85 120h1v1H85zM87 120h3v1H87zM6 121h3v1H6zM13 121h1v1H13zM17 121h1v1H17zM19 121h1v1H19zM23 121h1v1H23zM31 121h1v1H31zM34 121h2v1H34zM37 121h1v1H37zM41 121h1v1H41zM45 121h1v1H45zM55 121h1v1H55zM59 121h1v1H59zM61 121h1v1H61zM64 121h2v1H64zM67 121h1v1H67zM73 121h1v1H73zM79 121h1v1H79zM83 121h1v1H83zM85 121h1v1H85zM89 121h1v1H89zM13 122h1v1H13zM16 122h1v1H16zM19 122h1v1H19zM23 122h1v1H23zM31 122h1v1H31zM35 122h1v1H35zM37 122h1v1H37zM41 122h1v1H41zM45 122h1v1H45zM55 122h1v1H55zM59 122h1v1H59zM61 122h1v1H61zM65 122h1v1H65zM67 122h1v1H67zM73 122h1v1H73zM79 122h1v1H79zM83 122h1v1H83zM85 122h1v1H85zM89 122h1v1H89zM13 123h3v1H13zM20 123h3v1H20zM31 123h1v1H31zM35 123h1v1H35zM38 123h3v1H38zM45 123h1v1H45zM56 123h3v1H56zM61 123h1v1H61zM65 123h1v1H65zM67 123h1v1H67zM73 123h5v1H73zM80 123h3v1H80zM86 123h4v1H86z"/>
</g>
</svg>
