<svg xmlns="http://www.w3.org/2000/svg" width="888" height="384" viewBox="0 0 296 128" role="img" aria-labelledby="title">
<title id="title">DevDash provisioning screen</title>
<rect width="296" height="128" fill="#fff"/>
<g shape-rendering="crispEdges">
<path fill="#111" d="M1 1h294v1H1zM1 2h1v1H1zM294 2h1v1H294zM1 3h1v1H1zM294 3h1v1H294zM1 4h1v1H1zM6 4h9v1H6zM19 4h3v1H19zM25 4h5v1H25zM31 4h1v1H31zM35 4h1v1H35zM37 4h3v1H37zM44 4h3v1H44zM50 4h4v1H50zM55 4h1v1H55zM59 4h1v1H59zM261 4h4v1H261zM266 4h5v1H266zM272 4h5v1H272zM278 4h1v1H278zM282 4h1v1H282zM284 4h4v1H284zM294 4h1v1H294zM1 5h1v1H1zM6 5h9v1H6zM19 5h1v1H19zM22 5h1v1H22zM25 5h1v1H25zM31 5h1v1H31zM35 5h1v1H35zM37 5h1v1H37zM40 5h1v1H40zM43 5h1v1H43zM47 5h1v1H47zM49 5h1v1H49zM55 5h1v1H55zM59 5h1v1H59zM260 5h1v1H260zM266 5h1v1H266zM274 5h1v1H274zM278 5h1v1H278zM282 5h1v1H282zM284 5h1v1H284zM288 5h1v1H288zM294 5h1v1H294zM1 6h1v1H1zM6 6h2v1H6zM13 6h2v1H13zM19 6h1v1H19zM23 6h1v1H23zM25 6h1v1H25zM31 6h1v1H31zM35 6h1v1H35zM37 6h1v1H37zM41 6h1v1H41zM43 6h1v1H43zM47 6h1v1H47zM49 6h1v1H49zM55 6h1v1H55zM59 6h1v1H59zM260 6h1v1H260zM266 6h1v1H266zM274 6h1v1H274zM278 6h1v1H278zM282 6h1v1H282zM284 6h1v1H284zM288 6h1v1H288zM294 6h1v1H294zM1 7h1v1H1zM6 7h2v1H6zM9 7h3v1H9zM13 7h2v1H13zM19 7h1v1H19zM23 7h1v1H23zM25 7h4v1H25zM31 7h1v1H31zM35 7h1v1H35zM37 7h1v1H37zM41 7h1v1H41zM43 7h1v1H43zM47 7h1v1H47zM50 7h3v1H50zM55 7h5v1H55zM261 7h3v1H261zM266 7h4v1H266zM274 7h1v1H274zM278 7h1v1H278zM282 7h1v1H282zM284 7h4v1H284zM294 7h1v1H294zM1 8h1v1H1zM6 8h2v1H6zM9 8h3v1H9zM13 8h2v1H13zM19 8h1v1H19zM23 8h1v1H23zM25 8h1v1H25zM31 8h1v1H31zM35 8h1v1H35zM37 8h1v1H37zM41 8h1v1H41zM43 8h5v1H43zM53 8h1v1H53zM55 8h1v1H55zM59 8h1v1H59zM264 8h1v1H264zM266 8h1v1H266zM274 8h1v1H274zM278 8h1v1H278zM282 8h1v1H282zM284 8h1v1H284zM294 8h1v1H294zM1 9h1v1H1zM6 9h2v1H6zM9 9h3v1H9zM13 9h2v1H13zM19 9h1v1H19zM22 9h1v1H22zM25 9h1v1H25zM32 9h1v1H32zM34 9h1v1H34zM37 9h1v1H37zM40 9h1v1H40zM43 9h1v1H43zM47 9h1v1H47zM53 9h1v1H53zM55 9h1v1H55zM59 9h1v1H59zM264 9h1v1H264zM266 9h1v1H266zM274 9h1v1H274zM278 9h1v1H278zM282 9h1v1H282zM284 9h1v1H284zM294 9h1v1H294zM1 10h1v1H1zM6 10h2v1H6zM13 10h2v1H13zM19 10h3v1H19zM25 10h5v1H25zM33 10h1v1H33zM37 10h3v1H37zM43 10h1v1H43zM47 10h1v1H47zM49 10h4v1H49zM55 10h1v1H55zM59 10h1v1H59zM260 10h4v1H260zM266 10h5v1H266zM274 10h1v1H274zM279 10h3v1H279zM284 10h1v1H284zM294 10h1v1H294zM1 11h1v1H1zM6 11h9v1H6zM294 11h1v1H294zM1 12h1v1H1zM6 12h9v1H6zM294 12h1v1H294zM1 13h1v1H1zM294 13h1v1H294zM1 14h1v1H1zM294 14h1v1H294zM1 15h294v1H1zM1 16h1v1H1zM294 16h1v1H294zM1 17h1v1H1zM294 17h1v1H294zM1 18h1v1H1zM294 18h1v1H294zM1 19h1v1H1zM294 19h1v1H294zM1 20h1v1H1zM294 20h1v1H294zM1 21h1v1H1zM13 21h21v1H13zM40 21h3v1H40zM46 21h6v1H46zM55 21h9v1H55zM70 21h3v1H70zM79 21h21v1H79zM294 21h1v1H294zM1 22h1v1H1zM13 22h21v1H13zM40 22h3v1H40zM46 22h6v1H46zM55 22h9v1H55zM70 22h3v1H70zM79 22h21v1H79zM294 22h1v1H294zM1 23h1v1H1zM13 23h21v1H13zM40 23h3v1H40zM46 23h6v1H46zM55 23h9v1H55zM70 23h3v1H70zM79 23h21v1H79zM294 23h1v1H294zM1 24h1v1H1zM13 24h3v1H13zM31 24h3v1H31zM58 24h3v1H58zM67 24h3v1H67zM73 24h3v1H73zM79 24h3v1H79zM97 24h3v1H97zM115 24h6v1H115zM294 24h1v1H294zM1 25h1v1H1zM13 25h3v1H13zM31 25h3v1H31zM58 25h3v1H58zM67 25h3v1H67zM73 25h3v1H73zM79 25h3v1H79zM97 25h3v1H97zM114 25h1v1H114zM121 25h1v1H121zM294 25h1v1H294zM1 26h1v1H1zM13 26h3v1H13zM31 26h3v1H31zM58 26h3v1H58zM67 26h3v1H67zM73 26h3v1H73zM79 26h3v1H79zM97 26h3v1H97zM126 26h4v1H126zM132 26h4v1H132zM138 26h3v1H138zM143 26h3v1H143zM159 26h1v1H159zM177 26h1v1H177zM191 26h1v1H191zM204 26h3v1H204zM211 26h1v1H211zM215 26h4v1H215zM222 26h3v1H222zM294 26h1v1H294zM1 27h1v1H1zM13 27h3v1H13zM19 27h9v1H19zM31 27h3v1H31zM37 27h15v1H37zM55 27h3v1H55zM61 27h3v1H61zM79 27h3v1H79zM85 27h9v1H85zM97 27h3v1H97zM115 27h6v1H115zM125 27h1v1H125zM131 27h1v1H131zM139 27h1v1H139zM143 27h1v1H143zM146 27h1v1H146zM159 27h1v1H159zM177 27h1v1H177zM191 27h1v1H191zM203 27h1v1H203zM207 27h1v1H207zM210 27h2v1H210zM215 27h1v1H215zM219 27h1v1H219zM221 27h1v1H221zM225 27h1v1H225zM294 27h1v1H294zM1 28h1v1H1zM13 28h3v1H13zM19 28h9v1H19zM31 28h3v1H31zM37 28h15v1H37zM55 28h3v1H55zM61 28h3v1H61zM79 28h3v1H79zM85 28h9v1H85zM97 28h3v1H97zM125 28h1v1H125zM131 28h1v1H131zM139 28h1v1H139zM143 28h1v1H143zM147 28h1v1H147zM156 28h2v1H156zM159 28h1v1H159zM162 28h3v1H162zM167 28h1v1H167zM171 28h1v1H171zM174 28h2v1H174zM177 28h1v1H177zM180 28h3v1H180zM186 28h3v1H186zM191 28h1v1H191zM193 28h2v1H193zM203 28h1v1H203zM207 28h1v1H207zM211 28h1v1H211zM215 28h1v1H215zM219 28h1v1H219zM225 28h1v1H225zM294 28h1v1H294zM1 29h1v1H1zM13 29h3v1H13zM19 29h9v1H19zM31 29h3v1H31zM37 29h15v1H37zM55 29h3v1H55zM61 29h3v1H61zM79 29h3v1H79zM85 29h9v1H85zM97 29h3v1H97zM117 29h2v1H117zM126 29h3v1H126zM132 29h3v1H132zM139 29h1v1H139zM143 29h1v1H143zM147 29h1v1H147zM155 29h1v1H155zM158 29h2v1H158zM161 29h1v1H161zM165 29h1v1H165zM167 29h1v1H167zM171 29h1v1H171zM173 29h1v1H173zM176 29h2v1H176zM183 29h1v1H183zM185 29h1v1H185zM191 29h2v1H191zM195 29h1v1H195zM197 29h5v1H197zM203 29h1v1H203zM207 29h1v1H207zM211 29h1v1H211zM215 29h4v1H215zM224 29h1v1H224zM294 29h1v1H294zM1 30h1v1H1zM13 30h3v1H13zM19 30h9v1H19zM31 30h3v1H31zM37 30h3v1H37zM52 30h3v1H52zM58 30h6v1H58zM79 30h3v1H79zM85 30h9v1H85zM97 30h3v1H97zM129 30h1v1H129zM135 30h1v1H135zM139 30h1v1H139zM143 30h1v1H143zM147 30h1v1H147zM155 30h1v1H155zM159 30h1v1H159zM161 30h5v1H161zM167 30h1v1H167zM171 30h1v1H171zM173 30h1v1H173zM177 30h1v1H177zM180 30h4v1H180zM186 30h3v1H186zM191 30h1v1H191zM195 30h1v1H195zM203 30h5v1H203zM211 30h1v1H211zM215 30h1v1H215zM219 30h1v1H219zM223 30h1v1H223zM294 30h1v1H294zM1 31h1v1H1zM13 31h3v1H13zM19 31h9v1H19zM31 31h3v1H31zM37 31h3v1H37zM52 31h3v1H52zM58 31h6v1H58zM79 31h3v1H79zM85 31h9v1H85zM97 31h3v1H97zM117 31h2v1H117zM129 31h1v1H129zM135 31h1v1H135zM139 31h1v1H139zM143 31h1v1H143zM146 31h1v1H146zM155 31h1v1H155zM159 31h1v1H159zM161 31h1v1H161zM168 31h1v1H168zM170 31h1v1H170zM173 31h1v1H173zM177 31h1v1H177zM179 31h1v1H179zM183 31h1v1H183zM189 31h1v1H189zM191 31h1v1H191zM195 31h1v1H195zM203 31h1v1H203zM207 31h1v1H207zM211 31h1v1H211zM215 31h1v1H215zM219 31h1v1H219zM222 31h1v1H222zM294 31h1v1H294zM1 32h1v1H1zM13 32h3v1H13zM19 32h9v1H19zM31 32h3v1H31zM37 32h3v1H37zM52 32h3v1H52zM58 32h6v1H58zM79 32h3v1H79zM85 32h9v1H85zM97 32h3v1H97zM125 32h4v1H125zM131 32h4v1H131zM138 32h3v1H138zM143 32h3v1H143zM156 32h4v1H156zM162 32h3v1H162zM169 32h1v1H169zM174 32h4v1H174zM180 32h4v1H180zM185 32h4v1H185zM191 32h1v1H191zM195 32h1v1H195zM203 32h1v1H203zM207 32h1v1H207zM210 32h3v1H210zM215 32h4v1H215zM221 32h5v1H221zM294 32h1v1H294zM1 33h1v1H1zM13 33h3v1H13zM19 33h9v1H19zM31 33h3v1H31zM37 33h6v1H37zM46 33h3v1H46zM55 33h3v1H55zM61 33h3v1H61zM67 33h3v1H67zM73 33h3v1H73zM79 33h3v1H79zM85 33h9v1H85zM97 33h3v1H97zM294 33h1v1H294zM1 34h1v1H1zM13 34h3v1H13zM19 34h9v1H19zM31 34h3v1H31zM37 34h6v1H37zM46 34h3v1H46zM55 34h3v1H55zM61 34h3v1H61zM67 34h3v1H67zM73 34h3v1H73zM79 34h3v1H79zM85 34h9v1H85zM97 34h3v1H97zM294 34h1v1H294zM1 35h1v1H1zM13 35h3v1H13zM19 35h9v1H19zM31 35h3v1H31zM37 35h6v1H37zM46 35h3v1H46zM55 35h3v1H55zM61 35h3v1H61zM67 35h3v1H67zM73 35h3v1H73zM79 35h3v1H79zM85 35h9v1H85zM97 35h3v1H97zM294 35h1v1H294zM1 36h1v1H1zM13 36h3v1H13zM31 36h3v1H31zM37 36h6v1H37zM49 36h6v1H49zM58 36h12v1H58zM73 36h3v1H73zM79 36h3v1H79zM97 36h3v1H97zM294 36h1v1H294zM1 37h1v1H1zM13 37h3v1H13zM31 37h3v1H31zM37 37h6v1H37zM49 37h6v1H49zM58 37h12v1H58zM73 37h3v1H73zM79 37h3v1H79zM97 37h3v1H97zM294 37h1v1H294zM1 38h1v1H1zM13 38h3v1H13zM31 38h3v1H31zM37 38h6v1H37zM49 38h6v1H49zM58 38h12v1H58zM73 38h3v1H73zM79 38h3v1H79zM97 38h3v1H97zM294 38h1v1H294zM1 39h1v1H1zM13 39h21v1H13zM37 39h3v1H37zM43 39h3v1H43zM49 39h3v1H49zM55 39h3v1H55zM61 39h3v1H61zM67 39h3v1H67zM73 39h3v1H73zM79 39h21v1H79zM294 39h1v1H294zM1 40h1v1H1zM13 40h21v1H13zM37 40h3v1H37zM43 40h3v1H43zM49 40h3v1H49zM55 40h3v1H55zM61 40h3v1H61zM67 40h3v1H67zM73 40h3v1H73zM79 40h21v1H79zM294 40h1v1H294zM1 41h1v1H1zM13 41h21v1H13zM37 41h3v1H37zM43 41h3v1H43zM49 41h3v1H49zM55 41h3v1H55zM61 41h3v1H61zM67 41h3v1H67zM73 41h3v1H73zM79 41h21v1H79zM294 41h1v1H294zM1 42h1v1H1zM37 42h9v1H37zM49 42h3v1H49zM61 42h3v1H61zM67 42h3v1H67zM73 42h3v1H73zM294 42h1v1H294zM1 43h1v1H1zM37 43h9v1H37zM49 43h3v1H49zM61 43h3v1H61zM67 43h3v1H67zM73 43h3v1H73zM294 43h1v1H294zM1 44h1v1H1zM37 44h9v1H37zM49 44h3v1H49zM61 44h3v1H61zM67 44h3v1H67zM73 44h3v1H73zM294 44h1v1H294zM1 45h1v1H1zM13 45h3v1H13zM19 45h15v1H19zM52 45h21v1H52zM79 45h15v1H79zM294 45h1v1H294zM1 46h1v1H1zM13 46h3v1H13zM19 46h15v1H19zM52 46h21v1H52zM79 46h15v1H79zM294 46h1v1H294zM1 47h1v1H1zM13 47h3v1H13zM19 47h15v1H19zM52 47h21v1H52zM79 47h15v1H79zM113 47h3v1H113zM294 47h1v1H294zM1 48h1v1H1zM13 48h3v1H13zM19 48h6v1H19zM28 48h3v1H28zM34 48h3v1H34zM43 48h6v1H43zM52 48h3v1H52zM70 48h3v1H70zM79 48h3v1H79zM85 48h3v1H85zM91 48h6v1H91zM113 48h1v1H113zM115 48h7v1H115zM125 48h4v1H125zM132 48h3v1H132zM138 48h4v1H138zM144 48h4v1H144zM155 48h1v1H155zM159 48h1v1H159zM162 48h3v1H162zM167 48h1v1H167zM173 48h5v1H173zM185 48h1v1H185zM189 48h1v1H189zM191 48h5v1H191zM204 48h3v1H204zM210 48h3v1H210zM221 48h1v1H221zM294 48h1v1H294zM1 49h1v1H1zM13 49h3v1H13zM19 49h6v1H19zM28 49h3v1H28zM34 49h3v1H34zM43 49h6v1H43zM52 49h3v1H52zM70 49h3v1H70zM79 49h3v1H79zM85 49h3v1H85zM91 49h6v1H91zM113 49h3v1H113zM119 49h1v1H119zM121 49h1v1H121zM125 49h1v1H125zM129 49h1v1H129zM131 49h1v1H131zM135 49h1v1H135zM137 49h1v1H137zM143 49h1v1H143zM155 49h2v1H155zM158 49h2v1H158zM161 49h1v1H161zM165 49h1v1H165zM167 49h1v1H167zM176 49h1v1H176zM185 49h1v1H185zM189 49h1v1H189zM195 49h1v1H195zM203 49h1v1H203zM207 49h1v1H207zM209 49h1v1H209zM213 49h1v1H213zM221 49h1v1H221zM294 49h1v1H294zM1 50h1v1H1zM13 50h3v1H13zM19 50h6v1H19zM28 50h3v1H28zM34 50h3v1H34zM43 50h6v1H43zM52 50h3v1H52zM70 50h3v1H70zM79 50h3v1H79zM85 50h3v1H85zM91 50h6v1H91zM119 50h1v1H119zM121 50h1v1H121zM125 50h1v1H125zM129 50h1v1H129zM131 50h1v1H131zM135 50h1v1H135zM137 50h1v1H137zM143 50h1v1H143zM155 50h1v1H155zM157 50h1v1H157zM159 50h1v1H159zM161 50h1v1H161zM165 50h1v1H165zM167 50h1v1H167zM170 50h1v1H170zM175 50h1v1H175zM179 50h4v1H179zM186 50h1v1H186zM188 50h1v1H188zM194 50h1v1H194zM197 50h1v1H197zM201 50h1v1H201zM203 50h1v1H203zM207 50h1v1H207zM213 50h1v1H213zM215 50h1v1H215zM217 50h2v1H217zM221 50h1v1H221zM294 50h1v1H294zM1 51h1v1H1zM16 51h6v1H16zM28 51h6v1H28zM49 51h12v1H49zM64 51h6v1H64zM76 51h9v1H76zM88 51h3v1H88zM125 51h4v1H125zM131 51h1v1H131zM135 51h1v1H135zM138 51h3v1H138zM144 51h3v1H144zM155 51h1v1H155zM157 51h1v1H157zM159 51h1v1H159zM162 51h4v1H162zM167 51h1v1H167zM169 51h1v1H169zM176 51h1v1H176zM179 51h1v1H179zM183 51h1v1H183zM187 51h1v1H187zM193 51h1v1H193zM197 51h1v1H197zM201 51h1v1H201zM203 51h1v1H203zM207 51h1v1H207zM212 51h1v1H212zM215 51h2v1H215zM219 51h1v1H219zM221 51h1v1H221zM294 51h1v1H294zM1 52h1v1H1zM16 52h6v1H16zM28 52h6v1H28zM49 52h12v1H49zM64 52h6v1H64zM76 52h9v1H76zM88 52h3v1H88zM125 52h1v1H125zM131 52h5v1H131zM141 52h1v1H141zM147 52h1v1H147zM155 52h1v1H155zM159 52h1v1H159zM165 52h1v1H165zM167 52h2v1H167zM177 52h1v1H177zM179 52h4v1H179zM186 52h1v1H186zM188 52h1v1H188zM192 52h1v1H192zM197 52h1v1H197zM201 52h1v1H201zM203 52h1v1H203zM205 52h1v1H205zM207 52h1v1H207zM211 52h1v1H211zM215 52h1v1H215zM219 52h1v1H219zM221 52h1v1H221zM294 52h1v1H294zM1 53h1v1H1zM16 53h6v1H16zM28 53h6v1H28zM49 53h12v1H49zM64 53h6v1H64zM76 53h9v1H76zM88 53h3v1H88zM125 53h1v1H125zM131 53h1v1H131zM135 53h1v1H135zM141 53h1v1H141zM147 53h1v1H147zM155 53h1v1H155zM159 53h1v1H159zM164 53h1v1H164zM167 53h1v1H167zM169 53h1v1H169zM173 53h1v1H173zM177 53h1v1H177zM179 53h1v1H179zM185 53h1v1H185zM189 53h1v1H189zM192 53h1v1H192zM198 53h1v1H198zM200 53h1v1H200zM203 53h1v1H203zM206 53h1v1H206zM210 53h1v1H210zM215 53h1v1H215zM219 53h1v1H219zM221 53h1v1H221zM294 53h1v1H294zM1 54h1v1H1zM13 54h6v1H13zM28 54h3v1H28zM34 54h3v1H34zM58 54h3v1H58zM67 54h3v1H67zM76 54h6v1H76zM85 54h3v1H85zM94 54h6v1H94zM125 54h1v1H125zM131 54h1v1H131zM135 54h1v1H135zM137 54h4v1H137zM143 54h4v1H143zM155 54h1v1H155zM159 54h1v1H159zM162 54h2v1H162zM167 54h1v1H167zM170 54h1v1H170zM174 54h3v1H174zM179 54h1v1H179zM185 54h1v1H185zM189 54h1v1H189zM192 54h1v1H192zM199 54h1v1H199zM204 54h2v1H204zM207 54h1v1H207zM209 54h5v1H209zM215 54h1v1H215zM219 54h1v1H219zM221 54h5v1H221zM294 54h1v1H294zM1 55h1v1H1zM13 55h6v1H13zM28 55h3v1H28zM34 55h3v1H34zM58 55h3v1H58zM67 55h3v1H67zM76 55h6v1H76zM85 55h3v1H85zM94 55h6v1H94zM294 55h1v1H294zM1 56h1v1H1zM13 56h6v1H13zM28 56h3v1H28zM34 56h3v1H34zM58 56h3v1H58zM67 56h3v1H67zM76 56h6v1H76zM85 56h3v1H85zM94 56h6v1H94zM294 56h1v1H294zM1 57h1v1H1zM13 57h24v1H13zM43 57h9v1H43zM55 57h3v1H55zM61 57h12v1H61zM82 57h12v1H82zM294 57h1v1H294zM1 58h1v1H1zM13 58h24v1H13zM43 58h9v1H43zM55 58h3v1H55zM61 58h12v1H61zM82 58h12v1H82zM294 58h1v1H294zM1 59h1v1H1zM13 59h24v1H13zM43 59h9v1H43zM55 59h3v1H55zM61 59h12v1H61zM82 59h12v1H82zM294 59h1v1H294zM1 60h1v1H1zM13 60h9v1H13zM37 60h3v1H37zM43 60h12v1H43zM58 60h9v1H58zM70 60h18v1H70zM91 60h6v1H91zM294 60h1v1H294zM1 61h1v1H1zM13 61h9v1H13zM37 61h3v1H37zM43 61h12v1H43zM58 61h9v1H58zM70 61h18v1H70zM91 61h6v1H91zM294 61h1v1H294zM1 62h1v1H1zM13 62h9v1H13zM37 62h3v1H37zM43 62h12v1H43zM58 62h9v1H58zM70 62h18v1H70zM91 62h6v1H91zM294 62h1v1H294zM1 63h1v1H1zM13 63h3v1H13zM19 63h3v1H19zM28 63h6v1H28zM37 63h3v1H37zM43 63h9v1H43zM55 63h6v1H55zM64 63h6v1H64zM73 63h3v1H73zM82 63h3v1H82zM91 63h3v1H91zM294 63h1v1H294zM1 64h1v1H1zM13 64h3v1H13zM19 64h3v1H19zM28 64h6v1H28zM37 64h3v1H37zM43 64h9v1H43zM55 64h6v1H55zM64 64h6v1H64zM73 64h3v1H73zM82 64h3v1H82zM91 64h3v1H91zM294 64h1v1H294zM1 65h1v1H1zM13 65h3v1H13zM19 65h3v1H19zM28 65h6v1H28zM37 65h3v1H37zM43 65h9v1H43zM55 65h6v1H55zM64 65h6v1H64zM73 65h3v1H73zM82 65h3v1H82zM91 65h3v1H91zM294 65h1v1H294zM1 66h1v1H1zM13 66h6v1H13zM25 66h3v1H25zM37 66h3v1H37zM58 66h3v1H58zM70 66h3v1H70zM76 66h3v1H76zM88 66h3v1H88zM116 66h4v1H116zM294 66h1v1H294zM1 67h1v1H1zM13 67h6v1H13zM25 67h3v1H25zM37 67h3v1H37zM58 67h3v1H58zM70 67h3v1H70zM76 67h3v1H76zM88 67h3v1H88zM115 67h6v1H115zM294 67h1v1H294zM1 68h1v1H1zM13 68h6v1H13zM25 68h3v1H25zM37 68h3v1H37zM58 68h3v1H58zM70 68h3v1H70zM76 68h3v1H76zM88 68h3v1H88zM114 68h2v1H114zM120 68h2v1H120zM294 68h1v1H294zM1 69h1v1H1zM13 69h3v1H13zM25 69h9v1H25zM43 69h6v1H43zM52 69h3v1H52zM58 69h6v1H58zM73 69h3v1H73zM82 69h3v1H82zM88 69h3v1H88zM94 69h6v1H94zM114 69h8v1H114zM294 69h1v1H294zM1 70h1v1H1zM13 70h3v1H13zM25 70h9v1H25zM43 70h6v1H43zM52 70h3v1H52zM58 70h6v1H58zM73 70h3v1H73zM82 70h3v1H82zM88 70h3v1H88zM94 70h6v1H94zM114 70h2v1H114zM120 70h2v1H120zM125 70h1v1H125zM129 70h1v1H129zM131 70h4v1H131zM137 70h1v1H137zM157 70h1v1H157zM162 70h3v1H162zM168 70h3v1H168zM181 70h1v1H181zM187 70h2v1H187zM192 70h3v1H192zM206 70h1v1H206zM217 70h1v1H217zM294 70h1v1H294zM1 71h1v1H1zM13 71h3v1H13zM25 71h9v1H25zM43 71h6v1H43zM52 71h3v1H52zM58 71h6v1H58zM73 71h3v1H73zM82 71h3v1H82zM88 71h3v1H88zM94 71h6v1H94zM114 71h2v1H114zM120 71h2v1H120zM125 71h1v1H125zM129 71h1v1H129zM131 71h1v1H131zM135 71h1v1H135zM137 71h1v1H137zM156 71h2v1H156zM161 71h1v1H161zM165 71h1v1H165zM167 71h1v1H167zM171 71h1v1H171zM180 71h2v1H180zM186 71h1v1H186zM191 71h1v1H191zM195 71h1v1H195zM205 71h2v1H205zM216 71h2v1H216zM294 71h1v1H294zM1 72h1v1H1zM13 72h6v1H13zM25 72h3v1H25zM34 72h9v1H34zM46 72h12v1H46zM61 72h3v1H61zM70 72h12v1H70zM85 72h6v1H85zM94 72h3v1H94zM114 72h8v1H114zM125 72h1v1H125zM129 72h1v1H129zM131 72h1v1H131zM135 72h1v1H135zM137 72h1v1H137zM157 72h1v1H157zM161 72h1v1H161zM165 72h1v1H165zM171 72h1v1H171zM181 72h1v1H181zM185 72h1v1H185zM191 72h1v1H191zM195 72h1v1H195zM204 72h1v1H204zM206 72h1v1H206zM217 72h1v1H217zM294 72h1v1H294zM1 73h1v1H1zM13 73h6v1H13zM25 73h3v1H25zM34 73h9v1H34zM46 73h12v1H46zM61 73h3v1H61zM70 73h12v1H70zM85 73h6v1H85zM94 73h3v1H94zM114 73h2v1H114zM120 73h2v1H120zM125 73h1v1H125zM129 73h1v1H129zM131 73h4v1H131zM137 73h1v1H137zM157 73h1v1H157zM162 73h4v1H162zM170 73h1v1H170zM181 73h1v1H181zM185 73h4v1H185zM192 73h3v1H192zM203 73h1v1H203zM206 73h1v1H206zM217 73h1v1H217zM294 73h1v1H294zM1 74h1v1H1zM13 74h6v1H13zM25 74h3v1H25zM34 74h9v1H34zM46 74h12v1H46zM61 74h3v1H61zM70 74h12v1H70zM85 74h6v1H85zM94 74h3v1H94zM115 74h6v1H115zM125 74h1v1H125zM129 74h1v1H129zM131 74h1v1H131zM133 74h1v1H133zM137 74h1v1H137zM157 74h1v1H157zM165 74h1v1H165zM169 74h1v1H169zM181 74h1v1H181zM185 74h1v1H185zM189 74h1v1H189zM191 74h1v1H191zM195 74h1v1H195zM203 74h5v1H203zM217 74h1v1H217zM294 74h1v1H294zM1 75h1v1H1zM13 75h3v1H13zM22 75h15v1H22zM46 75h9v1H46zM58 75h6v1H58zM67 75h3v1H67zM73 75h3v1H73zM82 75h6v1H82zM116 75h4v1H116zM125 75h1v1H125zM129 75h1v1H129zM131 75h1v1H131zM134 75h1v1H134zM137 75h1v1H137zM157 75h1v1H157zM164 75h1v1H164zM168 75h1v1H168zM174 75h2v1H174zM181 75h1v1H181zM185 75h1v1H185zM189 75h1v1H189zM191 75h1v1H191zM195 75h1v1H195zM198 75h2v1H198zM206 75h1v1H206zM210 75h2v1H210zM217 75h1v1H217zM294 75h1v1H294zM1 76h1v1H1zM13 76h3v1H13zM22 76h15v1H22zM46 76h9v1H46zM58 76h6v1H58zM67 76h3v1H67zM73 76h3v1H73zM82 76h6v1H82zM126 76h3v1H126zM131 76h1v1H131zM135 76h1v1H135zM137 76h5v1H137zM156 76h3v1H156zM162 76h2v1H162zM167 76h5v1H167zM174 76h2v1H174zM180 76h3v1H180zM186 76h3v1H186zM192 76h3v1H192zM198 76h2v1H198zM206 76h1v1H206zM210 76h2v1H210zM216 76h3v1H216zM294 76h1v1H294zM1 77h1v1H1zM13 77h3v1H13zM22 77h15v1H22zM46 77h9v1H46zM58 77h6v1H58zM67 77h3v1H67zM73 77h3v1H73zM82 77h6v1H82zM294 77h1v1H294zM1 78h1v1H1zM13 78h3v1H13zM19 78h3v1H19zM25 78h6v1H25zM34 78h3v1H34zM49 78h3v1H49zM55 78h3v1H55zM67 78h3v1H67zM85 78h3v1H85zM97 78h3v1H97zM294 78h1v1H294zM1 79h1v1H1zM13 79h3v1H13zM19 79h3v1H19zM25 79h6v1H25zM34 79h3v1H34zM49 79h3v1H49zM55 79h3v1H55zM67 79h3v1H67zM85 79h3v1H85zM97 79h3v1H97zM294 79h1v1H294zM1 80h1v1H1zM13 80h3v1H13zM19 80h3v1H19zM25 80h6v1H25zM34 80h3v1H34zM49 80h3v1H49zM55 80h3v1H55zM67 80h3v1H67zM85 80h3v1H85zM97 80h3v1H97zM294 80h1v1H294zM1 81h1v1H1zM13 81h3v1H13zM19 81h6v1H19zM31 81h9v1H31zM43 81h3v1H43zM52 81h3v1H52zM58 81h12v1H58zM73 81h21v1H73zM294 81h1v1H294zM1 82h1v1H1zM13 82h3v1H13zM19 82h6v1H19zM31 82h9v1H31zM43 82h3v1H43zM52 82h3v1H52zM58 82h12v1H58zM73 82h21v1H73zM294 82h1v1H294zM1 83h1v1H1zM13 83h3v1H13zM19 83h6v1H19zM31 83h9v1H31zM43 83h3v1H43zM52 83h3v1H52zM58 83h12v1H58zM73 83h21v1H73zM294 83h1v1H294zM1 84h1v1H1zM37 84h12v1H37zM52 84h6v1H52zM64 84h3v1H64zM73 84h3v1H73zM85 84h3v1H85zM91 84h3v1H91zM294 84h1v1H294zM1 85h1v1H1zM37 85h12v1H37zM52 85h6v1H52zM64 85h3v1H64zM73 85h3v1H73zM85 85h3v1H85zM91 85h3v1H91zM294 85h1v1H294zM1 86h1v1H1zM37 86h12v1H37zM52 86h6v1H52zM64 86h3v1H64zM73 86h3v1H73zM85 86h3v1H85zM91 86h3v1H91zM294 86h1v1H294zM1 87h1v1H1zM13 87h21v1H13zM40 87h3v1H40zM49 87h6v1H49zM58 87h18v1H58zM79 87h3v1H79zM85 87h3v1H85zM91 87h3v1H91zM294 87h1v1H294zM1 88h1v1H1zM13 88h21v1H13zM40 88h3v1H40zM49 88h6v1H49zM58 88h18v1H58zM79 88h3v1H79zM85 88h3v1H85zM91 88h3v1H91zM294 88h1v1H294zM1 89h1v1H1zM13 89h21v1H13zM40 89h3v1H40zM49 89h6v1H49zM58 89h18v1H58zM79 89h3v1H79zM85 89h3v1H85zM91 89h3v1H91zM294 89h1v1H294zM1 90h1v1H1zM13 90h3v1H13zM31 90h3v1H31zM37 90h3v1H37zM43 90h6v1H43zM55 90h3v1H55zM67 90h9v1H67zM85 90h6v1H85zM94 90h6v1H94zM294 90h1v1H294zM1 91h1v1H1zM13 91h3v1H13zM31 91h3v1H31zM37 91h3v1H37zM43 91h6v1H43zM55 91h3v1H55zM67 91h9v1H67zM85 91h6v1H85zM94 91h6v1H94zM294 91h1v1H294zM1 92h1v1H1zM13 92h3v1H13zM31 92h3v1H31zM37 92h3v1H37zM43 92h6v1H43zM55 92h3v1H55zM67 92h9v1H67zM85 92h6v1H85zM94 92h6v1H94zM118 92h1v1H118zM129 92h1v1H129zM146 92h2v1H146zM294 92h1v1H294zM1 93h1v1H1zM13 93h3v1H13zM19 93h9v1H19zM31 93h3v1H31zM37 93h6v1H37zM46 93h6v1H46zM73 93h18v1H73zM94 93h6v1H94zM145 93h1v1H145zM148 93h1v1H148zM294 93h1v1H294zM1 94h1v1H1zM13 94h3v1H13zM19 94h9v1H19zM31 94h3v1H31zM37 94h6v1H37zM46 94h6v1H46zM73 94h18v1H73zM94 94h6v1H94zM117 94h2v1H117zM122 94h3v1H122zM128 94h2v1H128zM133 94h1v1H133zM135 94h2v1H135zM145 94h1v1H145zM147 94h1v1H147zM157 94h4v1H157zM164 94h3v1H164zM169 94h4v1H169zM175 94h1v1H175zM179 94h1v1H179zM181 94h4v1H181zM194 94h3v1H194zM199 94h4v1H199zM206 94h3v1H206zM211 94h1v1H211zM213 94h2v1H213zM218 94h3v1H218zM294 94h1v1H294zM1 95h1v1H1zM13 95h3v1H13zM19 95h9v1H19zM31 95h3v1H31zM37 95h6v1H37zM46 95h6v1H46zM73 95h18v1H73zM94 95h6v1H94zM118 95h1v1H118zM121 95h1v1H121zM125 95h1v1H125zM129 95h1v1H129zM133 95h2v1H133zM137 95h1v1H137zM146 95h1v1H146zM157 95h1v1H157zM161 95h1v1H161zM163 95h1v1H163zM167 95h1v1H167zM169 95h1v1H169zM173 95h1v1H173zM175 95h1v1H175zM179 95h1v1H179zM181 95h1v1H181zM185 95h1v1H185zM193 95h1v1H193zM197 95h1v1H197zM199 95h1v1H199zM203 95h1v1H203zM205 95h1v1H205zM209 95h1v1H209zM211 95h2v1H211zM215 95h1v1H215zM217 95h1v1H217zM294 95h1v1H294zM1 96h1v1H1zM13 96h3v1H13zM19 96h9v1H19zM31 96h3v1H31zM37 96h3v1H37zM43 96h6v1H43zM52 96h3v1H52zM61 96h9v1H61zM85 96h6v1H85zM94 96h6v1H94zM118 96h1v1H118zM121 96h1v1H121zM125 96h1v1H125zM129 96h1v1H129zM133 96h1v1H133zM137 96h1v1H137zM145 96h1v1H145zM147 96h1v1H147zM149 96h1v1H149zM157 96h4v1H157zM163 96h1v1H163zM167 96h1v1H167zM169 96h4v1H169zM175 96h1v1H175zM179 96h1v1H179zM181 96h4v1H181zM193 96h1v1H193zM197 96h1v1H197zM199 96h4v1H199zM205 96h5v1H205zM211 96h1v1H211zM215 96h1v1H215zM218 96h3v1H218zM294 96h1v1H294zM1 97h1v1H1zM13 97h3v1H13zM19 97h9v1H19zM31 97h3v1H31zM37 97h3v1H37zM43 97h6v1H43zM52 97h3v1H52zM61 97h9v1H61zM85 97h6v1H85zM94 97h6v1H94zM115 97h1v1H115zM118 97h1v1H118zM121 97h1v1H121zM125 97h1v1H125zM129 97h1v1H129zM133 97h1v1H133zM137 97h1v1H137zM145 97h1v1H145zM148 97h1v1H148zM157 97h1v1H157zM163 97h1v1H163zM167 97h1v1H167zM169 97h1v1H169zM175 97h1v1H175zM178 97h2v1H178zM181 97h1v1H181zM193 97h1v1H193zM197 97h1v1H197zM199 97h1v1H199zM205 97h1v1H205zM211 97h1v1H211zM215 97h1v1H215zM221 97h1v1H221zM294 97h1v1H294zM1 98h1v1H1zM13 98h3v1H13zM19 98h9v1H19zM31 98h3v1H31zM37 98h3v1H37zM43 98h6v1H43zM52 98h3v1H52zM61 98h9v1H61zM85 98h6v1H85zM94 98h6v1H94zM116 98h2v1H116zM122 98h3v1H122zM128 98h3v1H128zM133 98h1v1H133zM137 98h1v1H137zM146 98h2v1H146zM149 98h1v1H149zM157 98h1v1H157zM164 98h3v1H164zM169 98h1v1H169zM176 98h2v1H176zM179 98h1v1H179zM181 98h1v1H181zM194 98h3v1H194zM199 98h1v1H199zM206 98h3v1H206zM211 98h1v1H211zM215 98h1v1H215zM217 98h4v1H217zM294 98h1v1H294zM1 99h1v1H1zM13 99h3v1H13zM19 99h9v1H19zM31 99h3v1H31zM37 99h15v1H37zM55 99h9v1H55zM70 99h3v1H70zM79 99h18v1H79zM294 99h1v1H294zM1 100h1v1H1zM13 100h3v1H13zM19 100h9v1H19zM31 100h3v1H31zM37 100h15v1H37zM55 100h9v1H55zM70 100h3v1H70zM79 100h18v1H79zM294 100h1v1H294zM1 101h1v1H1zM13 101h3v1H13zM19 101h9v1H19zM31 101h3v1H31zM37 101h15v1H37zM55 101h9v1H55zM70 101h3v1H70zM79 101h18v1H79zM153 101h1v1H153zM165 101h1v1H165zM170 101h1v1H170zM181 101h1v1H181zM185 101h1v1H185zM187 101h4v1H187zM193 101h1v1H193zM294 101h1v1H294zM1 102h1v1H1zM13 102h3v1H13zM31 102h3v1H31zM40 102h6v1H40zM58 102h3v1H58zM73 102h3v1H73zM85 102h6v1H85zM94 102h3v1H94zM170 102h1v1H170zM181 102h1v1H181zM185 102h1v1H185zM187 102h1v1H187zM191 102h1v1H191zM193 102h1v1H193zM294 102h1v1H294zM1 103h1v1H1zM13 103h3v1H13zM31 103h3v1H31zM40 103h6v1H40zM58 103h3v1H58zM73 103h3v1H73zM85 103h6v1H85zM94 103h3v1H94zM128 103h3v1H128zM133 103h1v1H133zM135 103h2v1H135zM145 103h1v1H145zM149 103h1v1H149zM152 103h2v1H152zM158 103h3v1H158zM164 103h2v1H164zM169 103h3v1H169zM181 103h1v1H181zM185 103h1v1H185zM187 103h1v1H187zM191 103h1v1H191zM193 103h1v1H193zM294 103h1v1H294zM1 104h1v1H1zM13 104h3v1H13zM31 104h3v1H31zM40 104h6v1H40zM58 104h3v1H58zM73 104h3v1H73zM85 104h6v1H85zM94 104h3v1H94zM115 104h5v1H115zM127 104h1v1H127zM131 104h1v1H131zM133 104h2v1H133zM137 104h1v1H137zM145 104h1v1H145zM149 104h1v1H149zM153 104h1v1H153zM157 104h1v1H157zM165 104h1v1H165zM170 104h1v1H170zM181 104h1v1H181zM185 104h1v1H185zM187 104h4v1H187zM193 104h1v1H193zM294 104h1v1H294zM1 105h1v1H1zM13 105h21v1H13zM37 105h3v1H37zM46 105h3v1H46zM55 105h3v1H55zM61 105h12v1H61zM76 105h6v1H76zM85 105h6v1H85zM127 105h1v1H127zM131 105h1v1H131zM133 105h1v1H133zM145 105h1v1H145zM149 105h1v1H149zM153 105h1v1H153zM158 105h3v1H158zM165 105h1v1H165zM170 105h1v1H170zM181 105h1v1H181zM185 105h1v1H185zM187 105h1v1H187zM189 105h1v1H189zM193 105h1v1H193zM294 105h1v1H294zM1 106h1v1H1zM13 106h21v1H13zM37 106h3v1H37zM46 106h3v1H46zM55 106h3v1H55zM61 106h12v1H61zM76 106h6v1H76zM85 106h6v1H85zM127 106h1v1H127zM131 106h1v1H131zM133 106h1v1H133zM146 106h1v1H146zM148 106h1v1H148zM153 106h1v1H153zM161 106h1v1H161zM165 106h1v1H165zM170 106h1v1H170zM173 106h1v1H173zM181 106h1v1H181zM185 106h1v1H185zM187 106h1v1H187zM190 106h1v1H190zM193 106h1v1H193zM200 106h2v1H200zM294 106h1v1H294zM1 107h1v1H1zM13 107h21v1H13zM37 107h3v1H37zM46 107h3v1H46zM55 107h3v1H55zM61 107h12v1H61zM76 107h6v1H76zM85 107h6v1H85zM128 107h3v1H128zM133 107h1v1H133zM147 107h1v1H147zM152 107h3v1H152zM157 107h4v1H157zM164 107h3v1H164zM171 107h2v1H171zM182 107h3v1H182zM187 107h1v1H187zM191 107h1v1H191zM193 107h5v1H193zM200 107h2v1H200zM294 107h1v1H294zM1 108h1v1H1zM294 108h1v1H294zM1 109h1v1H1zM294 109h1v1H294zM1 110h1v1H1zM294 110h1v1H294zM1 111h1v1H1zM294 111h1v1H294zM1 112h1v1H1zM294 112h1v1H294zM1 113h294v1H1zM1 114h1v1H1zM294 114h1v1H294zM1 115h1v1H1zM294 115h1v1H294zM1 116h1v1H1zM294 116h1v1H294zM1 117h1v1H1zM83 117h4v1H83zM120 117h1v1H120zM125 117h1v1H125zM130 117h1v1H130zM148 117h1v1H148zM294 117h1v1H294zM1 118h1v1H1zM82 118h1v1H82zM125 118h1v1H125zM130 118h1v1H130zM148 118h1v1H148zM294 118h1v1H294zM1 119h1v1H1zM82 119h1v1H82zM89 119h3v1H89zM95 119h3v1H95zM100 119h1v1H100zM102 119h2v1H102zM112 119h1v1H112zM116 119h1v1H116zM119 119h2v1H119zM124 119h3v1H124zM130 119h1v1H130zM132 119h2v1H132zM142 119h4v1H142zM148 119h1v1H148zM150 119h2v1H150zM155 119h3v1H155zM160 119h1v1H160zM162 119h2v1H162zM167 119h3v1H167zM179 119h3v1H179zM185 119h3v1H185zM190 119h2v1H190zM193 119h1v1H193zM197 119h3v1H197zM202 119h1v1H202zM204 119h2v1H204zM209 119h3v1H209zM294 119h1v1H294zM1 120h1v1H1zM83 120h3v1H83zM88 120h1v1H88zM98 120h1v1H98zM100 120h2v1H100zM104 120h1v1H104zM112 120h1v1H112zM116 120h1v1H116zM120 120h1v1H120zM125 120h1v1H125zM130 120h2v1H130zM134 120h1v1H134zM142 120h1v1H142zM146 120h1v1H146zM148 120h2v1H148zM152 120h1v1H152zM154 120h1v1H154zM158 120h1v1H158zM160 120h2v1H160zM164 120h1v1H164zM166 120h1v1H166zM170 120h1v1H170zM178 120h1v1H178zM188 120h1v1H188zM190 120h1v1H190zM192 120h1v1H192zM194 120h1v1H194zM196 120h1v1H196zM200 120h1v1H200zM202 120h2v1H202zM206 120h1v1H206zM212 120h1v1H212zM294 120h1v1H294zM1 121h1v1H1zM86 121h1v1H86zM88 121h1v1H88zM95 121h4v1H95zM100 121h1v1H100zM104 121h1v1H104zM112 121h1v1H112zM116 121h1v1H116zM120 121h1v1H120zM125 121h1v1H125zM130 121h1v1H130zM134 121h1v1H134zM142 121h4v1H142zM148 121h1v1H148zM152 121h1v1H152zM154 121h1v1H154zM158 121h1v1H158zM160 121h1v1H160zM164 121h1v1H164zM166 121h5v1H166zM178 121h1v1H178zM185 121h4v1H185zM190 121h1v1H190zM192 121h1v1H192zM194 121h1v1H194zM196 121h5v1H196zM202 121h1v1H202zM209 121h4v1H209zM294 121h1v1H294zM1 122h1v1H1zM86 122h1v1H86zM88 122h1v1H88zM92 122h1v1H92zM94 122h1v1H94zM98 122h1v1H98zM100 122h1v1H100zM104 122h1v1H104zM112 122h1v1H112zM114 122h1v1H114zM116 122h1v1H116zM120 122h1v1H120zM125 122h1v1H125zM128 122h1v1H128zM130 122h1v1H130zM134 122h1v1H134zM142 122h1v1H142zM148 122h1v1H148zM152 122h1v1H152zM154 122h1v1H154zM158 122h1v1H158zM160 122h1v1H160zM164 122h1v1H164zM166 122h1v1H166zM178 122h1v1H178zM182 122h1v1H182zM184 122h1v1H184zM188 122h1v1H188zM190 122h1v1H190zM194 122h1v1H194zM196 122h1v1H196zM202 122h1v1H202zM208 122h1v1H208zM212 122h1v1H212zM294 122h1v1H294zM1 123h1v1H1zM82 123h4v1H82zM89 123h3v1H89zM95 123h4v1H95zM100 123h1v1H100zM104 123h1v1H104zM113 123h1v1H113zM115 123h1v1H115zM119 123h3v1H119zM126 123h2v1H126zM130 123h1v1H130zM134 123h1v1H134zM142 123h1v1H142zM148 123h1v1H148zM152 123h1v1H152zM155 123h3v1H155zM160 123h1v1H160zM164 123h1v1H164zM167 123h3v1H167zM179 123h3v1H179zM185 123h4v1H185zM190 123h1v1H190zM194 123h1v1H194zM197 123h3v1H197zM202 123h1v1H202zM209 123h4v1H209zM294 123h1v1H294zM1 124h1v1H1zM294 124h1v1H294zM1 125h1v1H1zM294 125h1v1H294zM1 126h294v1H1z"/>

</g>
</svg>
