<svg xmlns="http://www.w3.org/2000/svg" width="888" height="384" viewBox="0 0 296 128" role="img" aria-labelledby="title">
<title id="title">DevDash dashboard screen</title>
<rect width="296" height="128" fill="#fff"/>
<g shape-rendering="crispEdges">
<path fill="#111" d="M0 0h296v1H0zM0 1h1v1H0zM295 1h1v1H295zM0 2h1v1H0zM295 2h1v1H295zM0 3h1v1H0zM295 3h1v1H295zM0 4h1v1H0zM6 4h9v1H6zM234 4h1v1H234zM295 4h1v1H295zM0 5h1v1H0zM6 5h9v1H6zM19 5h3v1H19zM25 5h5v1H25zM31 5h1v1H31zM35 5h1v1H35zM37 5h3v1H37zM44 5h3v1H44zM50 5h4v1H50zM55 5h1v1H55zM59 5h1v1H59zM130 5h6v1H130zM143 5h1v1H143zM164 5h1v1H164zM230 5h5v1H230zM242 5h1v1H242zM249 5h1v1H249zM258 5h5v1H258zM265 5h3v1H265zM278 5h5v1H278zM295 5h1v1H295zM0 6h1v1H0zM6 6h2v1H6zM13 6h2v1H13zM19 6h1v1H19zM22 6h1v1H22zM25 6h1v1H25zM31 6h1v1H31zM35 6h1v1H35zM37 6h1v1H37zM40 6h1v1H40zM43 6h1v1H43zM47 6h1v1H47zM49 6h1v1H49zM55 6h1v1H55zM59 6h1v1H59zM129 6h1v1H129zM136 6h1v1H136zM142 6h2v1H142zM156 6h1v1H156zM163 6h2v1H163zM229 6h1v1H229zM234 6h1v1H234zM241 6h2v1H241zM248 6h2v1H248zM253 6h2v1H253zM261 6h1v1H261zM264 6h1v1H264zM268 6h1v1H268zM274 6h1v1H274zM278 6h1v1H278zM295 6h1v1H295zM0 7h1v1H0zM6 7h2v1H6zM9 7h3v1H9zM13 7h2v1H13zM19 7h1v1H19zM23 7h1v1H23zM25 7h1v1H25zM31 7h1v1H31zM35 7h1v1H35zM37 7h1v1H37zM41 7h1v1H41zM43 7h1v1H43zM47 7h1v1H47zM49 7h1v1H49zM55 7h1v1H55zM59 7h1v1H59zM143 7h1v1H143zM157 7h1v1H157zM164 7h1v1H164zM229 7h1v1H229zM242 7h1v1H242zM247 7h1v1H247zM249 7h1v1H249zM253 7h2v1H253zM260 7h1v1H260zM264 7h1v1H264zM268 7h1v1H268zM274 7h1v1H274zM278 7h4v1H278zM284 7h2v1H284zM287 7h1v1H287zM295 7h1v1H295zM0 8h1v1H0zM6 8h2v1H6zM9 8h3v1H9zM13 8h2v1H13zM19 8h1v1H19zM23 8h1v1H23zM25 8h4v1H25zM31 8h1v1H31zM35 8h1v1H35zM37 8h1v1H37zM41 8h1v1H41zM43 8h1v1H43zM47 8h1v1H47zM50 8h3v1H50zM55 8h5v1H55zM130 8h6v1H130zM143 8h1v1H143zM150 8h9v1H150zM164 8h1v1H164zM229 8h1v1H229zM235 8h1v1H235zM242 8h1v1H242zM246 8h1v1H246zM249 8h1v1H249zM261 8h1v1H261zM265 8h3v1H265zM272 8h5v1H272zM282 8h1v1H282zM284 8h1v1H284zM286 8h1v1H286zM288 8h1v1H288zM295 8h1v1H295zM0 9h1v1H0zM6 9h2v1H6zM9 9h3v1H9zM13 9h2v1H13zM19 9h1v1H19zM23 9h1v1H23zM25 9h1v1H25zM31 9h1v1H31zM35 9h1v1H35zM37 9h1v1H37zM41 9h1v1H41zM43 9h5v1H43zM53 9h1v1H53zM55 9h1v1H55zM59 9h1v1H59zM143 9h1v1H143zM157 9h1v1H157zM164 9h1v1H164zM235 9h1v1H235zM242 9h1v1H242zM246 9h5v1H246zM253 9h2v1H253zM262 9h1v1H262zM264 9h1v1H264zM268 9h1v1H268zM274 9h1v1H274zM282 9h1v1H282zM284 9h1v1H284zM286 9h1v1H286zM288 9h1v1H288zM295 9h1v1H295zM0 10h1v1H0zM6 10h2v1H6zM13 10h2v1H13zM19 10h1v1H19zM22 10h1v1H22zM25 10h1v1H25zM32 10h1v1H32zM34 10h1v1H34zM37 10h1v1H37zM40 10h1v1H40zM43 10h1v1H43zM47 10h1v1H47zM53 10h1v1H53zM55 10h1v1H55zM59 10h1v1H59zM132 10h2v1H132zM143 10h1v1H143zM156 10h1v1H156zM164 10h1v1H164zM230 10h1v1H230zM235 10h1v1H235zM242 10h1v1H242zM249 10h1v1H249zM253 10h2v1H253zM258 10h1v1H258zM262 10h1v1H262zM264 10h1v1H264zM268 10h1v1H268zM274 10h1v1H274zM278 10h1v1H278zM282 10h1v1H282zM284 10h1v1H284zM288 10h1v1H288zM295 10h1v1H295zM0 11h1v1H0zM6 11h9v1H6zM19 11h3v1H19zM25 11h5v1H25zM33 11h1v1H33zM37 11h3v1H37zM43 11h1v1H43zM47 11h1v1H47zM49 11h4v1H49zM55 11h1v1H55zM59 11h1v1H59zM142 11h3v1H142zM163 11h3v1H163zM230 11h5v1H230zM241 11h3v1H241zM249 11h1v1H249zM259 11h3v1H259zM265 11h3v1H265zM279 11h3v1H279zM284 11h1v1H284zM288 11h1v1H288zM295 11h1v1H295zM0 12h1v1H0zM6 12h9v1H6zM132 12h2v1H132zM230 12h1v1H230zM295 12h1v1H295zM0 13h1v1H0zM295 13h1v1H295zM0 14h294v1H0zM295 14h1v1H295zM0 15h1v1H0zM295 15h1v1H295zM0 16h1v1H0zM295 16h1v1H295zM0 17h1v1H0zM295 17h1v1H295zM0 18h1v1H0zM41 18h4v1H41zM98 18h2v1H98zM104 18h2v1H104zM231 18h6v1H231zM295 18h1v1H295zM0 19h1v1H0zM7 19h6v1H7zM40 19h6v1H40zM98 19h2v1H98zM104 19h2v1H104zM152 19h8v1H152zM230 19h8v1H230zM295 19h1v1H295zM0 20h1v1H0zM6 20h8v1H6zM20 20h3v1H20zM25 20h1v1H25zM29 20h1v1H29zM39 20h2v1H39zM45 20h2v1H45zM53 20h3v1H53zM59 20h4v1H59zM65 20h4v1H65zM84 20h1v1H84zM89 20h3v1H89zM98 20h1v1H98zM105 20h1v1H105zM111 20h4v1H111zM117 20h4v1H117zM145 20h1v1H145zM151 20h1v1H151zM160 20h1v1H160zM166 20h3v1H166zM171 20h1v1H171zM175 20h1v1H175zM177 20h4v1H177zM184 20h3v1H184zM189 20h1v1H189zM193 20h1v1H193zM222 20h1v1H222zM230 20h8v1H230zM243 20h3v1H243zM249 20h5v1H249zM255 20h4v1H255zM286 20h3v1H286zM295 20h1v1H295zM0 21h1v1H0zM6 21h8v1H6zM19 21h1v1H19zM23 21h1v1H23zM25 21h1v1H25zM29 21h1v1H29zM39 21h2v1H39zM45 21h2v1H45zM54 21h1v1H54zM58 21h1v1H58zM64 21h1v1H64zM83 21h2v1H83zM88 21h1v1H88zM92 21h1v1H92zM98 21h1v1H98zM105 21h1v1H105zM111 21h1v1H111zM115 21h1v1H115zM117 21h1v1H117zM121 21h1v1H121zM144 21h2v1H144zM151 21h1v1H151zM160 21h1v1H160zM167 21h1v1H167zM171 21h1v1H171zM175 21h1v1H175zM177 21h1v1H177zM181 21h1v1H181zM183 21h1v1H183zM187 21h1v1H187zM189 21h1v1H189zM193 21h1v1H193zM221 21h2v1H221zM230 21h8v1H230zM243 21h1v1H243zM246 21h1v1H246zM249 21h1v1H249zM255 21h1v1H255zM259 21h1v1H259zM285 21h1v1H285zM289 21h1v1H289zM295 21h1v1H295zM0 22h1v1H0zM6 22h2v1H6zM9 22h2v1H9zM12 22h2v1H12zM19 22h1v1H19zM25 22h1v1H25zM29 22h1v1H29zM39 22h2v1H39zM42 22h2v1H42zM45 22h2v1H45zM54 22h1v1H54zM58 22h1v1H58zM64 22h1v1H64zM84 22h1v1H84zM92 22h1v1H92zM98 22h1v1H98zM101 22h1v1H101zM105 22h1v1H105zM111 22h1v1H111zM115 22h1v1H115zM117 22h1v1H117zM121 22h1v1H121zM143 22h1v1H143zM145 22h1v1H145zM151 22h1v1H151zM160 22h1v1H160zM167 22h1v1H167zM171 22h2v1H171zM175 22h1v1H175zM177 22h1v1H177zM181 22h1v1H181zM183 22h1v1H183zM187 22h1v1H187zM190 22h1v1H190zM192 22h1v1H192zM222 22h1v1H222zM230 22h8v1H230zM243 22h1v1H243zM247 22h1v1H247zM249 22h1v1H249zM255 22h1v1H255zM259 22h1v1H259zM285 22h1v1H285zM288 22h2v1H288zM295 22h1v1H295zM0 23h1v1H0zM6 23h8v1H6zM19 23h1v1H19zM21 23h3v1H21zM25 23h5v1H25zM39 23h2v1H39zM42 23h2v1H42zM45 23h2v1H45zM54 23h1v1H54zM59 23h3v1H59zM65 23h3v1H65zM84 23h1v1H84zM91 23h1v1H91zM98 23h1v1H98zM101 23h4v1H101zM111 23h4v1H111zM117 23h4v1H117zM142 23h1v1H142zM145 23h1v1H145zM151 23h1v1H151zM153 23h2v1H153zM157 23h2v1H157zM160 23h1v1H160zM167 23h1v1H167zM171 23h1v1H171zM173 23h1v1H173zM175 23h1v1H175zM177 23h4v1H177zM183 23h1v1H183zM187 23h1v1H187zM191 23h1v1H191zM222 23h1v1H222zM230 23h8v1H230zM243 23h1v1H243zM247 23h1v1H247zM249 23h4v1H249zM255 23h4v1H255zM285 23h1v1H285zM287 23h1v1H287zM289 23h1v1H289zM295 23h1v1H295zM0 24h1v1H0zM7 24h6v1H7zM19 24h1v1H19zM23 24h1v1H23zM25 24h1v1H25zM29 24h1v1H29zM39 24h2v1H39zM45 24h2v1H45zM54 24h1v1H54zM62 24h1v1H62zM68 24h1v1H68zM84 24h1v1H84zM90 24h1v1H90zM98 24h1v1H98zM111 24h1v1H111zM117 24h1v1H117zM119 24h1v1H119zM142 24h5v1H142zM151 24h1v1H151zM155 24h2v1H155zM160 24h1v1H160zM167 24h1v1H167zM171 24h1v1H171zM174 24h2v1H174zM177 24h1v1H177zM181 24h1v1H181zM183 24h1v1H183zM187 24h1v1H187zM190 24h1v1H190zM192 24h1v1H192zM222 24h1v1H222zM231 24h6v1H231zM243 24h1v1H243zM247 24h1v1H247zM249 24h1v1H249zM255 24h1v1H255zM285 24h2v1H285zM289 24h1v1H289zM295 24h1v1H295zM0 25h1v1H0zM7 25h6v1H7zM19 25h1v1H19zM23 25h1v1H23zM25 25h1v1H25zM29 25h1v1H29zM39 25h2v1H39zM45 25h2v1H45zM54 25h1v1H54zM62 25h1v1H62zM68 25h1v1H68zM84 25h1v1H84zM89 25h1v1H89zM98 25h1v1H98zM111 25h1v1H111zM117 25h1v1H117zM120 25h1v1H120zM145 25h1v1H145zM151 25h10v1H151zM167 25h1v1H167zM171 25h1v1H171zM175 25h1v1H175zM177 25h1v1H177zM181 25h1v1H181zM183 25h1v1H183zM187 25h1v1H187zM189 25h1v1H189zM193 25h1v1H193zM222 25h1v1H222zM232 25h4v1H232zM243 25h1v1H243zM246 25h1v1H246zM249 25h1v1H249zM255 25h1v1H255zM285 25h1v1H285zM289 25h1v1H289zM295 25h1v1H295zM0 26h1v1H0zM8 26h1v1H8zM11 26h1v1H11zM20 26h4v1H20zM25 26h1v1H25zM29 26h1v1H29zM40 26h6v1H40zM53 26h3v1H53zM58 26h4v1H58zM64 26h4v1H64zM83 26h3v1H83zM88 26h5v1H88zM98 26h2v1H98zM111 26h1v1H111zM117 26h1v1H117zM121 26h1v1H121zM145 26h1v1H145zM166 26h3v1H166zM171 26h1v1H171zM175 26h1v1H175zM177 26h4v1H177zM184 26h3v1H184zM189 26h1v1H189zM193 26h1v1H193zM221 26h3v1H221zM233 26h2v1H233zM243 26h3v1H243zM249 26h5v1H249zM255 26h1v1H255zM286 26h3v1H286zM295 26h1v1H295zM0 27h1v1H0zM8 27h1v1H8zM11 27h1v1H11zM41 27h4v1H41zM98 27h2v1H98zM295 27h1v1H295zM0 28h1v1H0zM295 28h1v1H295zM0 29h1v1H0zM295 29h1v1H295zM0 30h1v1H0zM295 30h1v1H295zM0 31h1v1H0zM295 31h1v1H295zM0 32h1v1H0zM2 32h292v1H2zM295 32h1v1H295zM0 33h1v1H0zM295 33h1v1H295zM0 34h1v1H0zM295 34h1v1H295zM0 35h1v1H0zM148 35h1v1H148zM295 35h1v1H295zM0 36h1v1H0zM148 36h1v1H148zM295 36h1v1H295zM0 37h1v1H0zM6 37h1v1H6zM9 37h1v1H9zM12 37h1v1H12zM18 37h3v1H18zM23 37h1v1H23zM30 37h3v1H30zM35 37h1v1H35zM39 37h1v1H39zM41 37h3v1H41zM47 37h5v1H47zM85 37h3v1H85zM90 37h1v1H90zM98 37h1v1H98zM104 37h2v1H104zM114 37h5v1H114zM124 37h1v1H124zM128 37h1v1H128zM133 37h3v1H133zM138 37h1v1H138zM148 37h1v1H148zM158 37h3v1H158zM168 37h3v1H168zM174 37h3v1H174zM179 37h3v1H179zM185 37h5v1H185zM191 37h1v1H191zM195 37h1v1H195zM236 37h1v1H236zM240 37h1v1H240zM247 37h3v1H247zM253 37h3v1H253zM264 37h5v1H264zM274 37h1v1H274zM278 37h1v1H278zM282 37h5v1H282zM288 37h1v1H288zM295 37h1v1H295zM0 38h1v1H0zM7 38h1v1H7zM9 38h1v1H9zM11 38h1v1H11zM17 38h1v1H17zM21 38h1v1H21zM23 38h1v1H23zM29 38h1v1H29zM33 38h1v1H33zM35 38h1v1H35zM39 38h1v1H39zM41 38h1v1H41zM44 38h1v1H44zM47 38h1v1H47zM84 38h1v1H84zM88 38h1v1H88zM90 38h1v1H90zM97 38h2v1H97zM103 38h1v1H103zM112 38h1v1H112zM117 38h1v1H117zM124 38h1v1H124zM127 38h2v1H127zM132 38h1v1H132zM136 38h1v1H136zM138 38h1v1H138zM148 38h1v1H148zM157 38h1v1H157zM161 38h1v1H161zM167 38h1v1H167zM171 38h1v1H171zM173 38h1v1H173zM177 38h1v1H177zM179 38h1v1H179zM182 38h1v1H182zM185 38h1v1H185zM191 38h1v1H191zM195 38h1v1H195zM235 38h2v1H235zM240 38h1v1H240zM246 38h1v1H246zM250 38h1v1H250zM252 38h1v1H252zM256 38h1v1H256zM262 38h1v1H262zM267 38h1v1H267zM274 38h1v1H274zM277 38h2v1H277zM282 38h1v1H282zM288 38h1v1H288zM295 38h1v1H295zM0 39h1v1H0zM8 39h3v1H8zM17 39h1v1H17zM23 39h1v1H23zM29 39h1v1H29zM33 39h1v1H33zM35 39h1v1H35zM39 39h1v1H39zM41 39h1v1H41zM45 39h1v1H45zM47 39h1v1H47zM88 39h1v1H88zM90 39h1v1H90zM92 39h2v1H92zM98 39h1v1H98zM102 39h1v1H102zM111 39h1v1H111zM116 39h1v1H116zM121 39h2v1H121zM124 39h1v1H124zM128 39h1v1H128zM136 39h1v1H136zM138 39h1v1H138zM140 39h2v1H140zM148 39h1v1H148zM156 39h1v1H156zM162 39h1v1H162zM167 39h1v1H167zM173 39h1v1H173zM177 39h1v1H177zM179 39h1v1H179zM183 39h1v1H183zM185 39h1v1H185zM192 39h1v1H192zM194 39h1v1H194zM236 39h1v1H236zM240 39h1v1H240zM242 39h2v1H242zM246 39h1v1H246zM249 39h2v1H249zM252 39h1v1H252zM255 39h2v1H255zM261 39h1v1H261zM266 39h1v1H266zM271 39h2v1H271zM274 39h1v1H274zM278 39h1v1H278zM282 39h4v1H282zM288 39h1v1H288zM290 39h2v1H290zM295 39h1v1H295zM0 40h1v1H0zM6 40h3v1H6zM10 40h3v1H10zM17 40h1v1H17zM23 40h1v1H23zM29 40h1v1H29zM33 40h1v1H33zM35 40h1v1H35zM39 40h1v1H39zM41 40h1v1H41zM45 40h1v1H45zM47 40h4v1H47zM87 40h1v1H87zM90 40h2v1H90zM94 40h1v1H94zM98 40h1v1H98zM102 40h4v1H102zM110 40h1v1H110zM117 40h1v1H117zM120 40h1v1H120zM123 40h2v1H123zM128 40h1v1H128zM135 40h1v1H135zM138 40h2v1H138zM142 40h1v1H142zM148 40h1v1H148zM156 40h1v1H156zM162 40h1v1H162zM167 40h1v1H167zM173 40h1v1H173zM177 40h1v1H177zM179 40h1v1H179zM183 40h1v1H183zM185 40h4v1H185zM193 40h1v1H193zM236 40h1v1H236zM240 40h2v1H240zM244 40h1v1H244zM246 40h1v1H246zM248 40h1v1H248zM250 40h1v1H250zM252 40h1v1H252zM254 40h1v1H254zM256 40h1v1H256zM260 40h1v1H260zM267 40h1v1H267zM270 40h1v1H270zM273 40h2v1H273zM278 40h1v1H278zM286 40h1v1H286zM288 40h2v1H288zM292 40h1v1H292zM295 40h1v1H295zM0 41h1v1H0zM8 41h3v1H8zM17 41h1v1H17zM23 41h1v1H23zM29 41h5v1H29zM35 41h1v1H35zM39 41h1v1H39zM41 41h1v1H41zM45 41h1v1H45zM47 41h1v1H47zM86 41h1v1H86zM90 41h1v1H90zM94 41h1v1H94zM98 41h1v1H98zM102 41h1v1H102zM106 41h1v1H106zM109 41h1v1H109zM118 41h1v1H118zM120 41h1v1H120zM124 41h1v1H124zM128 41h1v1H128zM134 41h1v1H134zM138 41h1v1H138zM142 41h1v1H142zM148 41h1v1H148zM156 41h1v1H156zM162 41h1v1H162zM167 41h1v1H167zM173 41h1v1H173zM177 41h1v1H177zM179 41h1v1H179zM183 41h1v1H183zM185 41h1v1H185zM192 41h1v1H192zM194 41h1v1H194zM236 41h1v1H236zM240 41h1v1H240zM244 41h1v1H244zM246 41h2v1H246zM250 41h1v1H250zM252 41h2v1H252zM256 41h1v1H256zM259 41h1v1H259zM268 41h1v1H268zM270 41h1v1H270zM274 41h1v1H274zM278 41h1v1H278zM286 41h1v1H286zM288 41h1v1H288zM292 41h1v1H292zM295 41h1v1H295zM0 42h1v1H0zM7 42h1v1H7zM9 42h1v1H9zM11 42h1v1H11zM17 42h1v1H17zM21 42h1v1H21zM23 42h1v1H23zM29 42h1v1H29zM33 42h1v1H33zM35 42h1v1H35zM39 42h1v1H39zM41 42h1v1H41zM44 42h1v1H44zM47 42h1v1H47zM85 42h1v1H85zM90 42h1v1H90zM94 42h1v1H94zM98 42h1v1H98zM102 42h1v1H102zM106 42h1v1H106zM108 42h1v1H108zM114 42h1v1H114zM118 42h1v1H118zM120 42h1v1H120zM124 42h1v1H124zM128 42h1v1H128zM133 42h1v1H133zM138 42h1v1H138zM142 42h1v1H142zM148 42h1v1H148zM157 42h1v1H157zM161 42h1v1H161zM167 42h1v1H167zM171 42h1v1H171zM173 42h1v1H173zM177 42h1v1H177zM179 42h1v1H179zM182 42h1v1H182zM185 42h1v1H185zM191 42h1v1H191zM195 42h1v1H195zM236 42h1v1H236zM240 42h1v1H240zM244 42h1v1H244zM246 42h1v1H246zM250 42h1v1H250zM252 42h1v1H252zM256 42h1v1H256zM258 42h1v1H258zM264 42h1v1H264zM268 42h1v1H268zM270 42h1v1H270zM274 42h1v1H274zM278 42h1v1H278zM282 42h1v1H282zM286 42h1v1H286zM288 42h1v1H288zM292 42h1v1H292zM295 42h1v1H295zM0 43h1v1H0zM6 43h1v1H6zM9 43h1v1H9zM12 43h1v1H12zM18 43h3v1H18zM23 43h5v1H23zM29 43h1v1H29zM33 43h1v1H33zM36 43h3v1H36zM41 43h3v1H41zM47 43h5v1H47zM84 43h5v1H84zM90 43h1v1H90zM94 43h1v1H94zM97 43h3v1H97zM103 43h3v1H103zM115 43h3v1H115zM121 43h4v1H121zM127 43h3v1H127zM132 43h5v1H132zM138 43h1v1H138zM142 43h1v1H142zM148 43h1v1H148zM158 43h3v1H158zM168 43h3v1H168zM174 43h3v1H174zM179 43h3v1H179zM185 43h5v1H185zM191 43h1v1H191zM195 43h1v1H195zM235 43h3v1H235zM240 43h1v1H240zM244 43h1v1H244zM247 43h3v1H247zM253 43h3v1H253zM265 43h3v1H265zM271 43h4v1H271zM277 43h3v1H277zM283 43h3v1H283zM288 43h1v1H288zM292 43h1v1H292zM295 43h1v1H295zM0 44h1v1H0zM148 44h1v1H148zM295 44h1v1H295zM0 45h1v1H0zM148 45h1v1H148zM295 45h1v1H295zM0 46h1v1H0zM148 46h1v1H148zM295 46h1v1H295zM0 47h1v1H0zM148 47h1v1H148zM295 47h1v1H295zM0 48h1v1H0zM148 48h1v1H148zM295 48h1v1H295zM0 49h1v1H0zM148 49h1v1H148zM295 49h1v1H295zM0 50h1v1H0zM6 50h5v1H6zM12 50h1v1H12zM16 50h1v1H16zM21 50h3v1H21zM25 50h3v1H25zM29 50h3v1H29zM33 50h3v1H33zM37 50h3v1H37zM41 50h3v1H41zM45 50h3v1H45zM49 50h3v1H49zM53 50h3v1H53zM57 50h3v1H57zM61 50h3v1H61zM65 50h3v1H65zM69 50h3v1H69zM73 50h3v1H73zM77 50h3v1H77zM81 50h3v1H81zM85 50h3v1H85zM89 50h3v1H89zM93 50h3v1H93zM97 50h3v1H97zM101 50h3v1H101zM105 50h3v1H105zM109 50h3v1H109zM113 50h3v1H113zM117 50h3v1H117zM121 50h3v1H121zM125 50h3v1H125zM133 50h3v1H133zM138 50h2v1H138zM148 50h1v1H148zM156 50h5v1H156zM162 50h1v1H162zM166 50h1v1H166zM171 50h3v1H171zM175 50h3v1H175zM179 50h3v1H179zM183 50h3v1H183zM187 50h3v1H187zM191 50h3v1H191zM195 50h3v1H195zM199 50h3v1H199zM203 50h3v1H203zM207 50h3v1H207zM211 50h3v1H211zM215 50h3v1H215zM219 50h3v1H219zM223 50h3v1H223zM227 50h3v1H227zM231 50h3v1H231zM235 50h3v1H235zM239 50h3v1H239zM243 50h3v1H243zM247 50h3v1H247zM251 50h3v1H251zM255 50h3v1H255zM259 50h3v1H259zM263 50h3v1H263zM267 50h3v1H267zM271 50h3v1H271zM276 50h5v1H276zM283 50h3v1H283zM288 50h2v1H288zM295 50h1v1H295zM0 51h1v1H0zM6 51h1v1H6zM12 51h1v1H12zM16 51h1v1H16zM21 51h3v1H21zM25 51h3v1H25zM29 51h1v1H29zM31 51h1v1H31zM33 51h1v1H33zM35 51h1v1H35zM37 51h1v1H37zM39 51h1v1H39zM41 51h1v1H41zM43 51h1v1H43zM45 51h1v1H45zM47 51h1v1H47zM49 51h1v1H49zM51 51h1v1H51zM53 51h1v1H53zM55 51h1v1H55zM57 51h1v1H57zM59 51h1v1H59zM61 51h1v1H61zM63 51h1v1H63zM65 51h1v1H65zM67 51h1v1H67zM69 51h1v1H69zM71 51h1v1H71zM73 51h1v1H73zM75 51h1v1H75zM77 51h1v1H77zM79 51h1v1H79zM81 51h1v1H81zM83 51h1v1H83zM85 51h1v1H85zM87 51h1v1H87zM89 51h1v1H89zM91 51h1v1H91zM93 51h1v1H93zM95 51h1v1H95zM97 51h1v1H97zM99 51h1v1H99zM101 51h1v1H101zM103 51h1v1H103zM105 51h1v1H105zM107 51h1v1H107zM109 51h1v1H109zM111 51h1v1H111zM113 51h1v1H113zM115 51h1v1H115zM117 51h1v1H117zM119 51h1v1H119zM121 51h1v1H121zM123 51h1v1H123zM125 51h1v1H125zM127 51h1v1H127zM132 51h1v1H132zM136 51h1v1H136zM138 51h2v1H138zM142 51h1v1H142zM148 51h1v1H148zM156 51h1v1H156zM162 51h1v1H162zM166 51h1v1H166zM171 51h3v1H171zM175 51h3v1H175zM179 51h3v1H179zM183 51h3v1H183zM187 51h3v1H187zM191 51h3v1H191zM195 51h3v1H195zM199 51h3v1H199zM203 51h1v1H203zM205 51h1v1H205zM207 51h1v1H207zM209 51h1v1H209zM211 51h1v1H211zM213 51h1v1H213zM215 51h1v1H215zM217 51h1v1H217zM219 51h1v1H219zM221 51h1v1H221zM223 51h1v1H223zM225 51h1v1H225zM227 51h1v1H227zM229 51h1v1H229zM231 51h1v1H231zM233 51h1v1H233zM235 51h1v1H235zM237 51h1v1H237zM239 51h1v1H239zM241 51h1v1H241zM243 51h1v1H243zM245 51h1v1H245zM247 51h1v1H247zM249 51h1v1H249zM251 51h1v1H251zM253 51h1v1H253zM255 51h1v1H255zM257 51h1v1H257zM259 51h1v1H259zM261 51h1v1H261zM263 51h1v1H263zM265 51h1v1H265zM267 51h1v1H267zM269 51h1v1H269zM271 51h1v1H271zM273 51h1v1H273zM279 51h1v1H279zM282 51h1v1H282zM286 51h1v1H286zM288 51h2v1H288zM292 51h1v1H292zM295 51h1v1H295zM0 52h1v1H0zM6 52h4v1H6zM12 52h1v1H12zM16 52h1v1H16zM21 52h3v1H21zM25 52h3v1H25zM29 52h1v1H29zM31 52h1v1H31zM33 52h1v1H33zM35 52h1v1H35zM37 52h1v1H37zM39 52h1v1H39zM41 52h1v1H41zM43 52h1v1H43zM45 52h1v1H45zM47 52h1v1H47zM49 52h1v1H49zM51 52h1v1H51zM53 52h1v1H53zM55 52h1v1H55zM57 52h1v1H57zM59 52h1v1H59zM61 52h1v1H61zM63 52h1v1H63zM65 52h1v1H65zM67 52h1v1H67zM69 52h1v1H69zM71 52h1v1H71zM73 52h1v1H73zM75 52h1v1H75zM77 52h1v1H77zM79 52h1v1H79zM81 52h1v1H81zM83 52h1v1H83zM85 52h1v1H85zM87 52h1v1H87zM89 52h1v1H89zM91 52h1v1H91zM93 52h1v1H93zM95 52h1v1H95zM97 52h1v1H97zM99 52h1v1H99zM101 52h1v1H101zM103 52h1v1H103zM105 52h1v1H105zM107 52h1v1H107zM109 52h1v1H109zM111 52h1v1H111zM113 52h1v1H113zM115 52h1v1H115zM117 52h1v1H117zM119 52h1v1H119zM121 52h1v1H121zM123 52h1v1H123zM125 52h1v1H125zM127 52h1v1H127zM132 52h1v1H132zM136 52h1v1H136zM141 52h1v1H141zM148 52h1v1H148zM156 52h4v1H156zM162 52h1v1H162zM166 52h1v1H166zM171 52h3v1H171zM175 52h3v1H175zM179 52h3v1H179zM183 52h3v1H183zM187 52h3v1H187zM191 52h3v1H191zM195 52h3v1H195zM199 52h3v1H199zM203 52h1v1H203zM205 52h1v1H205zM207 52h1v1H207zM209 52h1v1H209zM211 52h1v1H211zM213 52h1v1H213zM215 52h1v1H215zM217 52h1v1H217zM219 52h1v1H219zM221 52h1v1H221zM223 52h1v1H223zM225 52h1v1H225zM227 52h1v1H227zM229 52h1v1H229zM231 52h1v1H231zM233 52h1v1H233zM235 52h1v1H235zM237 52h1v1H237zM239 52h1v1H239zM241 52h1v1H241zM243 52h1v1H243zM245 52h1v1H245zM247 52h1v1H247zM249 52h1v1H249zM251 52h1v1H251zM253 52h1v1H253zM255 52h1v1H255zM257 52h1v1H257zM259 52h1v1H259zM261 52h1v1H261zM263 52h1v1H263zM265 52h1v1H265zM267 52h1v1H267zM269 52h1v1H269zM271 52h1v1H271zM273 52h1v1H273zM278 52h1v1H278zM286 52h1v1H286zM291 52h1v1H291zM295 52h1v1H295zM0 53h1v1H0zM10 53h1v1H10zM12 53h5v1H12zM21 53h3v1H21zM25 53h3v1H25zM29 53h1v1H29zM31 53h1v1H31zM33 53h1v1H33zM35 53h1v1H35zM37 53h1v1H37zM39 53h1v1H39zM41 53h1v1H41zM43 53h1v1H43zM45 53h1v1H45zM47 53h1v1H47zM49 53h1v1H49zM51 53h1v1H51zM53 53h1v1H53zM55 53h1v1H55zM57 53h1v1H57zM59 53h1v1H59zM61 53h1v1H61zM63 53h1v1H63zM65 53h1v1H65zM67 53h1v1H67zM69 53h1v1H69zM71 53h1v1H71zM73 53h1v1H73zM75 53h1v1H75zM77 53h1v1H77zM79 53h1v1H79zM81 53h1v1H81zM83 53h1v1H83zM85 53h1v1H85zM87 53h1v1H87zM89 53h1v1H89zM91 53h1v1H91zM93 53h1v1H93zM95 53h1v1H95zM97 53h1v1H97zM99 53h1v1H99zM101 53h1v1H101zM103 53h1v1H103zM105 53h1v1H105zM107 53h1v1H107zM109 53h1v1H109zM111 53h1v1H111zM113 53h1v1H113zM115 53h1v1H115zM117 53h1v1H117zM119 53h1v1H119zM121 53h1v1H121zM123 53h1v1H123zM125 53h1v1H125zM127 53h1v1H127zM133 53h4v1H133zM140 53h1v1H140zM148 53h1v1H148zM160 53h1v1H160zM162 53h5v1H162zM171 53h3v1H171zM175 53h3v1H175zM179 53h3v1H179zM183 53h3v1H183zM187 53h3v1H187zM191 53h3v1H191zM195 53h3v1H195zM199 53h3v1H199zM203 53h1v1H203zM205 53h1v1H205zM207 53h1v1H207zM209 53h1v1H209zM211 53h1v1H211zM213 53h1v1H213zM215 53h1v1H215zM217 53h1v1H217zM219 53h1v1H219zM221 53h1v1H221zM223 53h1v1H223zM225 53h1v1H225zM227 53h1v1H227zM229 53h1v1H229zM231 53h1v1H231zM233 53h1v1H233zM235 53h1v1H235zM237 53h1v1H237zM239 53h1v1H239zM241 53h1v1H241zM243 53h1v1H243zM245 53h1v1H245zM247 53h1v1H247zM249 53h1v1H249zM251 53h1v1H251zM253 53h1v1H253zM255 53h1v1H255zM257 53h1v1H257zM259 53h1v1H259zM261 53h1v1H261zM263 53h1v1H263zM265 53h1v1H265zM267 53h1v1H267zM269 53h1v1H269zM271 53h1v1H271zM273 53h1v1H273zM279 53h1v1H279zM285 53h1v1H285zM290 53h1v1H290zM295 53h1v1H295zM0 54h1v1H0zM10 54h1v1H10zM12 54h1v1H12zM16 54h1v1H16zM21 54h3v1H21zM25 54h3v1H25zM29 54h1v1H29zM31 54h1v1H31zM33 54h1v1H33zM35 54h1v1H35zM37 54h1v1H37zM39 54h1v1H39zM41 54h1v1H41zM43 54h1v1H43zM45 54h1v1H45zM47 54h1v1H47zM49 54h1v1H49zM51 54h1v1H51zM53 54h1v1H53zM55 54h1v1H55zM57 54h1v1H57zM59 54h1v1H59zM61 54h1v1H61zM63 54h1v1H63zM65 54h1v1H65zM67 54h1v1H67zM69 54h1v1H69zM71 54h1v1H71zM73 54h1v1H73zM75 54h1v1H75zM77 54h1v1H77zM79 54h1v1H79zM81 54h1v1H81zM83 54h1v1H83zM85 54h1v1H85zM87 54h1v1H87zM89 54h1v1H89zM91 54h1v1H91zM93 54h1v1H93zM95 54h1v1H95zM97 54h1v1H97zM99 54h1v1H99zM101 54h1v1H101zM103 54h1v1H103zM105 54h1v1H105zM107 54h1v1H107zM109 54h1v1H109zM111 54h1v1H111zM113 54h1v1H113zM115 54h1v1H115zM117 54h1v1H117zM119 54h1v1H119zM121 54h1v1H121zM123 54h1v1H123zM125 54h1v1H125zM127 54h1v1H127zM136 54h1v1H136zM139 54h1v1H139zM148 54h1v1H148zM160 54h1v1H160zM162 54h1v1H162zM166 54h1v1H166zM171 54h3v1H171zM175 54h3v1H175zM179 54h3v1H179zM183 54h3v1H183zM187 54h3v1H187zM191 54h3v1H191zM195 54h3v1H195zM199 54h3v1H199zM203 54h1v1H203zM205 54h1v1H205zM207 54h1v1H207zM209 54h1v1H209zM211 54h1v1H211zM213 54h1v1H213zM215 54h1v1H215zM217 54h1v1H217zM219 54h1v1H219zM221 54h1v1H221zM223 54h1v1H223zM225 54h1v1H225zM227 54h1v1H227zM229 54h1v1H229zM231 54h1v1H231zM233 54h1v1H233zM235 54h1v1H235zM237 54h1v1H237zM239 54h1v1H239zM241 54h1v1H241zM243 54h1v1H243zM245 54h1v1H245zM247 54h1v1H247zM249 54h1v1H249zM251 54h1v1H251zM253 54h1v1H253zM255 54h1v1H255zM257 54h1v1H257zM259 54h1v1H259zM261 54h1v1H261zM263 54h1v1H263zM265 54h1v1H265zM267 54h1v1H267zM269 54h1v1H269zM271 54h1v1H271zM273 54h1v1H273zM280 54h1v1H280zM284 54h1v1H284zM289 54h1v1H289zM295 54h1v1H295zM0 55h1v1H0zM6 55h1v1H6zM10 55h1v1H10zM12 55h1v1H12zM16 55h1v1H16zM21 55h3v1H21zM25 55h3v1H25zM29 55h3v1H29zM33 55h3v1H33zM37 55h3v1H37zM41 55h3v1H41zM45 55h3v1H45zM49 55h3v1H49zM53 55h3v1H53zM57 55h3v1H57zM61 55h3v1H61zM65 55h3v1H65zM69 55h3v1H69zM73 55h3v1H73zM77 55h3v1H77zM81 55h3v1H81zM85 55h3v1H85zM89 55h3v1H89zM93 55h3v1H93zM97 55h3v1H97zM101 55h3v1H101zM105 55h3v1H105zM109 55h3v1H109zM113 55h3v1H113zM117 55h3v1H117zM121 55h3v1H121zM125 55h3v1H125zM135 55h1v1H135zM138 55h1v1H138zM141 55h2v1H141zM148 55h1v1H148zM156 55h1v1H156zM160 55h1v1H160zM162 55h1v1H162zM166 55h1v1H166zM171 55h3v1H171zM175 55h3v1H175zM179 55h3v1H179zM183 55h3v1H183zM187 55h3v1H187zM191 55h3v1H191zM195 55h3v1H195zM199 55h3v1H199zM203 55h3v1H203zM207 55h3v1H207zM211 55h3v1H211zM215 55h3v1H215zM219 55h3v1H219zM223 55h3v1H223zM227 55h3v1H227zM231 55h3v1H231zM235 55h3v1H235zM239 55h3v1H239zM243 55h3v1H243zM247 55h3v1H247zM251 55h3v1H251zM255 55h3v1H255zM259 55h3v1H259zM263 55h3v1H263zM267 55h3v1H267zM271 55h3v1H271zM276 55h1v1H276zM280 55h1v1H280zM283 55h1v1H283zM288 55h1v1H288zM291 55h2v1H291zM295 55h1v1H295zM0 56h1v1H0zM7 56h3v1H7zM12 56h1v1H12zM16 56h1v1H16zM133 56h2v1H133zM141 56h2v1H141zM148 56h1v1H148zM157 56h3v1H157zM162 56h1v1H162zM166 56h1v1H166zM277 56h3v1H277zM282 56h5v1H282zM291 56h2v1H291zM295 56h1v1H295zM0 57h1v1H0zM148 57h1v1H148zM295 57h1v1H295zM0 58h1v1H0zM148 58h1v1H148zM295 58h1v1H295zM0 59h1v1H0zM6 59h5v1H6zM12 59h3v1H12zM21 59h3v1H21zM25 59h3v1H25zM29 59h3v1H29zM33 59h3v1H33zM37 59h3v1H37zM41 59h3v1H41zM45 59h3v1H45zM49 59h3v1H49zM53 59h3v1H53zM57 59h3v1H57zM61 59h3v1H61zM65 59h3v1H65zM69 59h3v1H69zM73 59h3v1H73zM77 59h3v1H77zM81 59h3v1H81zM85 59h3v1H85zM89 59h3v1H89zM93 59h3v1H93zM97 59h3v1H97zM101 59h3v1H101zM105 59h3v1H105zM109 59h3v1H109zM113 59h3v1H113zM117 59h3v1H117zM121 59h3v1H121zM129 59h1v1H129zM134 59h1v1H134zM138 59h2v1H138zM148 59h1v1H148zM156 59h5v1H156zM162 59h3v1H162zM171 59h3v1H171zM175 59h3v1H175zM179 59h3v1H179zM183 59h3v1H183zM187 59h3v1H187zM191 59h3v1H191zM195 59h3v1H195zM199 59h3v1H199zM203 59h3v1H203zM207 59h3v1H207zM211 59h3v1H211zM215 59h3v1H215zM219 59h3v1H219zM223 59h3v1H223zM227 59h3v1H227zM231 59h3v1H231zM235 59h3v1H235zM239 59h3v1H239zM243 59h3v1H243zM247 59h3v1H247zM251 59h3v1H251zM255 59h3v1H255zM259 59h3v1H259zM263 59h3v1H263zM267 59h3v1H267zM271 59h3v1H271zM276 59h5v1H276zM283 59h3v1H283zM288 59h2v1H288zM295 59h1v1H295zM0 60h1v1H0zM10 60h1v1H10zM12 60h1v1H12zM15 60h1v1H15zM21 60h3v1H21zM25 60h3v1H25zM29 60h3v1H29zM33 60h3v1H33zM37 60h3v1H37zM41 60h3v1H41zM45 60h3v1H45zM49 60h3v1H49zM53 60h3v1H53zM57 60h3v1H57zM61 60h3v1H61zM65 60h1v1H65zM67 60h1v1H67zM69 60h1v1H69zM71 60h1v1H71zM73 60h1v1H73zM75 60h1v1H75zM77 60h1v1H77zM79 60h1v1H79zM81 60h1v1H81zM83 60h1v1H83zM85 60h1v1H85zM87 60h1v1H87zM89 60h1v1H89zM91 60h1v1H91zM93 60h1v1H93zM95 60h1v1H95zM97 60h1v1H97zM99 60h1v1H99zM101 60h1v1H101zM103 60h1v1H103zM105 60h1v1H105zM107 60h1v1H107zM109 60h1v1H109zM111 60h1v1H111zM113 60h1v1H113zM115 60h1v1H115zM117 60h1v1H117zM119 60h1v1H119zM121 60h1v1H121zM123 60h1v1H123zM128 60h2v1H128zM133 60h2v1H133zM138 60h2v1H138zM142 60h1v1H142zM148 60h1v1H148zM160 60h1v1H160zM162 60h1v1H162zM165 60h1v1H165zM171 60h3v1H171zM175 60h3v1H175zM179 60h3v1H179zM183 60h3v1H183zM187 60h3v1H187zM191 60h3v1H191zM195 60h3v1H195zM199 60h3v1H199zM203 60h3v1H203zM207 60h3v1H207zM211 60h1v1H211zM213 60h1v1H213zM215 60h1v1H215zM217 60h1v1H217zM219 60h1v1H219zM221 60h1v1H221zM223 60h1v1H223zM225 60h1v1H225zM227 60h1v1H227zM229 60h1v1H229zM231 60h1v1H231zM233 60h1v1H233zM235 60h1v1H235zM237 60h1v1H237zM239 60h1v1H239zM241 60h1v1H241zM243 60h1v1H243zM245 60h1v1H245zM247 60h1v1H247zM249 60h1v1H249zM251 60h1v1H251zM253 60h1v1H253zM255 60h1v1H255zM257 60h1v1H257zM259 60h1v1H259zM261 60h1v1H261zM263 60h1v1H263zM265 60h1v1H265zM267 60h1v1H267zM269 60h1v1H269zM271 60h1v1H271zM273 60h1v1H273zM279 60h1v1H279zM282 60h1v1H282zM286 60h1v1H286zM288 60h2v1H288zM292 60h1v1H292zM295 60h1v1H295zM0 61h1v1H0zM9 61h1v1H9zM12 61h1v1H12zM16 61h1v1H16zM21 61h3v1H21zM25 61h3v1H25zM29 61h3v1H29zM33 61h3v1H33zM37 61h3v1H37zM41 61h3v1H41zM45 61h3v1H45zM49 61h3v1H49zM53 61h3v1H53zM57 61h3v1H57zM61 61h3v1H61zM65 61h1v1H65zM67 61h1v1H67zM69 61h1v1H69zM71 61h1v1H71zM73 61h1v1H73zM75 61h1v1H75zM77 61h1v1H77zM79 61h1v1H79zM81 61h1v1H81zM83 61h1v1H83zM85 61h1v1H85zM87 61h1v1H87zM89 61h1v1H89zM91 61h1v1H91zM93 61h1v1H93zM95 61h1v1H95zM97 61h1v1H97zM99 61h1v1H99zM101 61h1v1H101zM103 61h1v1H103zM105 61h1v1H105zM107 61h1v1H107zM109 61h1v1H109zM111 61h1v1H111zM113 61h1v1H113zM115 61h1v1H115zM117 61h1v1H117zM119 61h1v1H119zM121 61h1v1H121zM123 61h1v1H123zM127 61h1v1H127zM129 61h1v1H129zM134 61h1v1H134zM141 61h1v1H141zM148 61h1v1H148zM159 61h1v1H159zM162 61h1v1H162zM166 61h1v1H166zM171 61h3v1H171zM175 61h3v1H175zM179 61h3v1H179zM183 61h3v1H183zM187 61h3v1H187zM191 61h3v1H191zM195 61h3v1H195zM199 61h3v1H199zM203 61h3v1H203zM207 61h3v1H207zM211 61h1v1H211zM213 61h1v1H213zM215 61h1v1H215zM217 61h1v1H217zM219 61h1v1H219zM221 61h1v1H221zM223 61h1v1H223zM225 61h1v1H225zM227 61h1v1H227zM229 61h1v1H229zM231 61h1v1H231zM233 61h1v1H233zM235 61h1v1H235zM237 61h1v1H237zM239 61h1v1H239zM241 61h1v1H241zM243 61h1v1H243zM245 61h1v1H245zM247 61h1v1H247zM249 61h1v1H249zM251 61h1v1H251zM253 61h1v1H253zM255 61h1v1H255zM257 61h1v1H257zM259 61h1v1H259zM261 61h1v1H261zM263 61h1v1H263zM265 61h1v1H265zM267 61h1v1H267zM269 61h1v1H269zM271 61h1v1H271zM273 61h1v1H273zM278 61h1v1H278zM282 61h1v1H282zM286 61h1v1H286zM291 61h1v1H291zM295 61h1v1H295zM0 62h1v1H0zM8 62h1v1H8zM12 62h1v1H12zM16 62h1v1H16zM21 62h3v1H21zM25 62h3v1H25zM29 62h3v1H29zM33 62h3v1H33zM37 62h3v1H37zM41 62h3v1H41zM45 62h3v1H45zM49 62h3v1H49zM53 62h3v1H53zM57 62h3v1H57zM61 62h3v1H61zM65 62h1v1H65zM67 62h1v1H67zM69 62h1v1H69zM71 62h1v1H71zM73 62h1v1H73zM75 62h1v1H75zM77 62h1v1H77zM79 62h1v1H79zM81 62h1v1H81zM83 62h1v1H83zM85 62h1v1H85zM87 62h1v1H87zM89 62h1v1H89zM91 62h1v1H91zM93 62h1v1H93zM95 62h1v1H95zM97 62h1v1H97zM99 62h1v1H99zM101 62h1v1H101zM103 62h1v1H103zM105 62h1v1H105zM107 62h1v1H107zM109 62h1v1H109zM111 62h1v1H111zM113 62h1v1H113zM115 62h1v1H115zM117 62h1v1H117zM119 62h1v1H119zM121 62h1v1H121zM123 62h1v1H123zM126 62h1v1H126zM129 62h1v1H129zM134 62h1v1H134zM140 62h1v1H140zM148 62h1v1H148zM158 62h1v1H158zM162 62h1v1H162zM166 62h1v1H166zM171 62h3v1H171zM175 62h3v1H175zM179 62h3v1H179zM183 62h3v1H183zM187 62h3v1H187zM191 62h3v1H191zM195 62h3v1H195zM199 62h3v1H199zM203 62h3v1H203zM207 62h3v1H207zM211 62h1v1H211zM213 62h1v1H213zM215 62h1v1H215zM217 62h1v1H217zM219 62h1v1H219zM221 62h1v1H221zM223 62h1v1H223zM225 62h1v1H225zM227 62h1v1H227zM229 62h1v1H229zM231 62h1v1H231zM233 62h1v1H233zM235 62h1v1H235zM237 62h1v1H237zM239 62h1v1H239zM241 62h1v1H241zM243 62h1v1H243zM245 62h1v1H245zM247 62h1v1H247zM249 62h1v1H249zM251 62h1v1H251zM253 62h1v1H253zM255 62h1v1H255zM257 62h1v1H257zM259 62h1v1H259zM261 62h1v1H261zM263 62h1v1H263zM265 62h1v1H265zM267 62h1v1H267zM269 62h1v1H269zM271 62h1v1H271zM273 62h1v1H273zM279 62h1v1H279zM283 62h3v1H283zM290 62h1v1H290zM295 62h1v1H295zM0 63h1v1H0zM7 63h1v1H7zM12 63h1v1H12zM16 63h1v1H16zM21 63h3v1H21zM25 63h3v1H25zM29 63h3v1H29zM33 63h3v1H33zM37 63h3v1H37zM41 63h3v1H41zM45 63h3v1H45zM49 63h3v1H49zM53 63h3v1H53zM57 63h3v1H57zM61 63h3v1H61zM65 63h1v1H65zM67 63h1v1H67zM69 63h1v1H69zM71 63h1v1H71zM73 63h1v1H73zM75 63h1v1H75zM77 63h1v1H77zM79 63h1v1H79zM81 63h1v1H81zM83 63h1v1H83zM85 63h1v1H85zM87 63h1v1H87zM89 63h1v1H89zM91 63h1v1H91zM93 63h1v1H93zM95 63h1v1H95zM97 63h1v1H97zM99 63h1v1H99zM101 63h1v1H101zM103 63h1v1H103zM105 63h1v1H105zM107 63h1v1H107zM109 63h1v1H109zM111 63h1v1H111zM113 63h1v1H113zM115 63h1v1H115zM117 63h1v1H117zM119 63h1v1H119zM121 63h1v1H121zM123 63h1v1H123zM126 63h5v1H126zM134 63h1v1H134zM139 63h1v1H139zM148 63h1v1H148zM157 63h1v1H157zM162 63h1v1H162zM166 63h1v1H166zM171 63h3v1H171zM175 63h3v1H175zM179 63h3v1H179zM183 63h3v1H183zM187 63h3v1H187zM191 63h3v1H191zM195 63h3v1H195zM199 63h3v1H199zM203 63h3v1H203zM207 63h3v1H207zM211 63h1v1H211zM213 63h1v1H213zM215 63h1v1H215zM217 63h1v1H217zM219 63h1v1H219zM221 63h1v1H221zM223 63h1v1H223zM225 63h1v1H225zM227 63h1v1H227zM229 63h1v1H229zM231 63h1v1H231zM233 63h1v1H233zM235 63h1v1H235zM237 63h1v1H237zM239 63h1v1H239zM241 63h1v1H241zM243 63h1v1H243zM245 63h1v1H245zM247 63h1v1H247zM249 63h1v1H249zM251 63h1v1H251zM253 63h1v1H253zM255 63h1v1H255zM257 63h1v1H257zM259 63h1v1H259zM261 63h1v1H261zM263 63h1v1H263zM265 63h1v1H265zM267 63h1v1H267zM269 63h1v1H269zM271 63h1v1H271zM273 63h1v1H273zM280 63h1v1H280zM282 63h1v1H282zM286 63h1v1H286zM289 63h1v1H289zM295 63h1v1H295zM0 64h1v1H0zM7 64h1v1H7zM12 64h1v1H12zM15 64h1v1H15zM21 64h3v1H21zM25 64h3v1H25zM29 64h3v1H29zM33 64h3v1H33zM37 64h3v1H37zM41 64h3v1H41zM45 64h3v1H45zM49 64h3v1H49zM53 64h3v1H53zM57 64h3v1H57zM61 64h3v1H61zM65 64h3v1H65zM69 64h3v1H69zM73 64h3v1H73zM77 64h3v1H77zM81 64h3v1H81zM85 64h3v1H85zM89 64h3v1H89zM93 64h3v1H93zM97 64h3v1H97zM101 64h3v1H101zM105 64h3v1H105zM109 64h3v1H109zM113 64h3v1H113zM117 64h3v1H117zM121 64h3v1H121zM129 64h1v1H129zM134 64h1v1H134zM138 64h1v1H138zM141 64h2v1H141zM148 64h1v1H148zM157 64h1v1H157zM162 64h1v1H162zM165 64h1v1H165zM171 64h3v1H171zM175 64h3v1H175zM179 64h3v1H179zM183 64h3v1H183zM187 64h3v1H187zM191 64h3v1H191zM195 64h3v1H195zM199 64h3v1H199zM203 64h3v1H203zM207 64h3v1H207zM211 64h3v1H211zM215 64h3v1H215zM219 64h3v1H219zM223 64h3v1H223zM227 64h3v1H227zM231 64h3v1H231zM235 64h3v1H235zM239 64h3v1H239zM243 64h3v1H243zM247 64h3v1H247zM251 64h3v1H251zM255 64h3v1H255zM259 64h3v1H259zM263 64h3v1H263zM267 64h3v1H267zM271 64h3v1H271zM276 64h1v1H276zM280 64h1v1H280zM282 64h1v1H282zM286 64h1v1H286zM288 64h1v1H288zM291 64h2v1H291zM295 64h1v1H295zM0 65h1v1H0zM7 65h1v1H7zM12 65h3v1H12zM129 65h1v1H129zM133 65h3v1H133zM141 65h2v1H141zM148 65h1v1H148zM157 65h1v1H157zM162 65h3v1H162zM277 65h3v1H277zM283 65h3v1H283zM291 65h2v1H291zM295 65h1v1H295zM0 66h1v1H0zM148 66h1v1H148zM295 66h1v1H295zM0 67h1v1H0zM148 67h1v1H148zM295 67h1v1H295zM0 68h1v1H0zM7 68h3v1H7zM25 68h3v1H25zM29 68h3v1H29zM33 68h3v1H33zM37 68h3v1H37zM41 68h3v1H41zM45 68h3v1H45zM49 68h3v1H49zM53 68h3v1H53zM57 68h3v1H57zM61 68h3v1H61zM65 68h3v1H65zM69 68h3v1H69zM73 68h3v1H73zM77 68h3v1H77zM81 68h3v1H81zM85 68h3v1H85zM89 68h3v1H89zM93 68h3v1H93zM97 68h3v1H97zM101 68h3v1H101zM105 68h3v1H105zM109 68h3v1H109zM113 68h3v1H113zM148 68h1v1H148zM158 68h1v1H158zM175 68h3v1H175zM179 68h3v1H179zM183 68h3v1H183zM187 68h3v1H187zM191 68h3v1H191zM195 68h3v1H195zM199 68h3v1H199zM203 68h3v1H203zM207 68h3v1H207zM211 68h3v1H211zM215 68h3v1H215zM219 68h3v1H219zM223 68h3v1H223zM227 68h3v1H227zM231 68h3v1H231zM235 68h3v1H235zM239 68h3v1H239zM243 68h3v1H243zM247 68h3v1H247zM251 68h3v1H251zM255 68h3v1H255zM259 68h3v1H259zM263 68h3v1H263zM267 68h3v1H267zM271 68h3v1H271zM275 68h3v1H275zM279 68h3v1H279zM283 68h3v1H283zM295 68h1v1H295zM0 69h1v1H0zM6 69h1v1H6zM25 69h1v1H25zM27 69h1v1H27zM29 69h1v1H29zM31 69h1v1H31zM33 69h1v1H33zM35 69h1v1H35zM37 69h1v1H37zM39 69h1v1H39zM41 69h1v1H41zM43 69h1v1H43zM45 69h1v1H45zM47 69h1v1H47zM49 69h1v1H49zM51 69h1v1H51zM53 69h1v1H53zM55 69h1v1H55zM57 69h1v1H57zM59 69h1v1H59zM61 69h1v1H61zM63 69h1v1H63zM65 69h1v1H65zM67 69h1v1H67zM69 69h1v1H69zM71 69h1v1H71zM73 69h1v1H73zM75 69h1v1H75zM77 69h1v1H77zM79 69h1v1H79zM81 69h1v1H81zM83 69h1v1H83zM85 69h1v1H85zM87 69h1v1H87zM89 69h1v1H89zM91 69h1v1H91zM93 69h1v1H93zM95 69h1v1H95zM97 69h1v1H97zM99 69h1v1H99zM101 69h1v1H101zM103 69h1v1H103zM105 69h1v1H105zM107 69h1v1H107zM109 69h1v1H109zM111 69h1v1H111zM113 69h1v1H113zM115 69h1v1H115zM148 69h1v1H148zM157 69h4v1H157zM175 69h1v1H175zM177 69h1v1H177zM179 69h1v1H179zM181 69h1v1H181zM183 69h1v1H183zM185 69h1v1H185zM187 69h1v1H187zM189 69h1v1H189zM191 69h1v1H191zM193 69h1v1H193zM195 69h1v1H195zM197 69h1v1H197zM199 69h1v1H199zM201 69h1v1H201zM203 69h1v1H203zM205 69h1v1H205zM207 69h1v1H207zM209 69h1v1H209zM211 69h1v1H211zM213 69h1v1H213zM215 69h1v1H215zM217 69h1v1H217zM219 69h1v1H219zM221 69h1v1H221zM223 69h1v1H223zM225 69h1v1H225zM227 69h1v1H227zM229 69h1v1H229zM231 69h1v1H231zM233 69h1v1H233zM235 69h1v1H235zM237 69h1v1H237zM239 69h1v1H239zM241 69h1v1H241zM243 69h1v1H243zM245 69h1v1H245zM247 69h1v1H247zM249 69h1v1H249zM251 69h1v1H251zM253 69h1v1H253zM255 69h1v1H255zM257 69h1v1H257zM259 69h1v1H259zM261 69h1v1H261zM263 69h1v1H263zM265 69h1v1H265zM267 69h1v1H267zM269 69h1v1H269zM271 69h1v1H271zM273 69h1v1H273zM275 69h1v1H275zM277 69h1v1H277zM279 69h1v1H279zM281 69h1v1H281zM283 69h1v1H283zM285 69h1v1H285zM295 69h1v1H295zM0 70h1v1H0zM6 70h3v1H6zM25 70h1v1H25zM27 70h1v1H27zM29 70h1v1H29zM31 70h1v1H31zM33 70h1v1H33zM35 70h1v1H35zM37 70h1v1H37zM39 70h1v1H39zM41 70h1v1H41zM43 70h1v1H43zM45 70h1v1H45zM47 70h1v1H47zM49 70h1v1H49zM51 70h1v1H51zM53 70h1v1H53zM55 70h1v1H55zM57 70h1v1H57zM59 70h1v1H59zM61 70h1v1H61zM63 70h1v1H63zM65 70h1v1H65zM67 70h1v1H67zM69 70h1v1H69zM71 70h1v1H71zM73 70h1v1H73zM75 70h1v1H75zM77 70h1v1H77zM79 70h1v1H79zM81 70h1v1H81zM83 70h1v1H83zM85 70h1v1H85zM87 70h1v1H87zM89 70h1v1H89zM91 70h1v1H91zM93 70h1v1H93zM95 70h1v1H95zM97 70h1v1H97zM99 70h1v1H99zM101 70h1v1H101zM103 70h1v1H103zM105 70h1v1H105zM107 70h1v1H107zM109 70h1v1H109zM111 70h1v1H111zM113 70h1v1H113zM115 70h1v1H115zM148 70h1v1H148zM156 70h1v1H156zM158 70h1v1H158zM175 70h1v1H175zM177 70h1v1H177zM179 70h1v1H179zM181 70h1v1H181zM183 70h1v1H183zM185 70h1v1H185zM187 70h1v1H187zM189 70h1v1H189zM191 70h1v1H191zM193 70h1v1H193zM195 70h1v1H195zM197 70h1v1H197zM199 70h1v1H199zM201 70h1v1H201zM203 70h1v1H203zM205 70h1v1H205zM207 70h1v1H207zM209 70h1v1H209zM211 70h1v1H211zM213 70h1v1H213zM215 70h1v1H215zM217 70h1v1H217zM219 70h1v1H219zM221 70h1v1H221zM223 70h1v1H223zM225 70h1v1H225zM227 70h1v1H227zM229 70h1v1H229zM231 70h1v1H231zM233 70h1v1H233zM235 70h1v1H235zM237 70h1v1H237zM239 70h1v1H239zM241 70h1v1H241zM243 70h1v1H243zM245 70h1v1H245zM247 70h1v1H247zM249 70h1v1H249zM251 70h1v1H251zM253 70h1v1H253zM255 70h1v1H255zM257 70h1v1H257zM259 70h1v1H259zM261 70h1v1H261zM263 70h1v1H263zM265 70h1v1H265zM267 70h1v1H267zM269 70h1v1H269zM271 70h1v1H271zM273 70h1v1H273zM275 70h1v1H275zM277 70h1v1H277zM279 70h1v1H279zM281 70h1v1H281zM283 70h1v1H283zM285 70h1v1H285zM295 70h1v1H295zM0 71h1v1H0zM6 71h1v1H6zM25 71h1v1H25zM27 71h1v1H27zM29 71h1v1H29zM31 71h1v1H31zM33 71h1v1H33zM35 71h1v1H35zM37 71h1v1H37zM39 71h1v1H39zM41 71h1v1H41zM43 71h1v1H43zM45 71h1v1H45zM47 71h1v1H47zM49 71h1v1H49zM51 71h1v1H51zM53 71h1v1H53zM55 71h1v1H55zM57 71h1v1H57zM59 71h1v1H59zM61 71h1v1H61zM63 71h1v1H63zM65 71h1v1H65zM67 71h1v1H67zM69 71h1v1H69zM71 71h1v1H71zM73 71h1v1H73zM75 71h1v1H75zM77 71h1v1H77zM79 71h1v1H79zM81 71h1v1H81zM83 71h1v1H83zM85 71h1v1H85zM87 71h1v1H87zM89 71h1v1H89zM91 71h1v1H91zM93 71h1v1H93zM95 71h1v1H95zM97 71h1v1H97zM99 71h1v1H99zM101 71h1v1H101zM103 71h1v1H103zM105 71h1v1H105zM107 71h1v1H107zM109 71h1v1H109zM111 71h1v1H111zM113 71h1v1H113zM115 71h1v1H115zM148 71h1v1H148zM157 71h3v1H157zM175 71h1v1H175zM177 71h1v1H177zM179 71h1v1H179zM181 71h1v1H181zM183 71h1v1H183zM185 71h1v1H185zM187 71h1v1H187zM189 71h1v1H189zM191 71h1v1H191zM193 71h1v1H193zM195 71h1v1H195zM197 71h1v1H197zM199 71h1v1H199zM201 71h1v1H201zM203 71h1v1H203zM205 71h1v1H205zM207 71h1v1H207zM209 71h1v1H209zM211 71h1v1H211zM213 71h1v1H213zM215 71h1v1H215zM217 71h1v1H217zM219 71h1v1H219zM221 71h1v1H221zM223 71h1v1H223zM225 71h1v1H225zM227 71h1v1H227zM229 71h1v1H229zM231 71h1v1H231zM233 71h1v1H233zM235 71h1v1H235zM237 71h1v1H237zM239 71h1v1H239zM241 71h1v1H241zM243 71h1v1H243zM245 71h1v1H245zM247 71h1v1H247zM249 71h1v1H249zM251 71h1v1H251zM253 71h1v1H253zM255 71h1v1H255zM257 71h1v1H257zM259 71h1v1H259zM261 71h1v1H261zM263 71h1v1H263zM265 71h1v1H265zM267 71h1v1H267zM269 71h1v1H269zM271 71h1v1H271zM273 71h1v1H273zM275 71h1v1H275zM277 71h1v1H277zM279 71h1v1H279zM281 71h1v1H281zM283 71h1v1H283zM285 71h1v1H285zM295 71h1v1H295zM0 72h1v1H0zM6 72h3v1H6zM25 72h1v1H25zM27 72h1v1H27zM29 72h1v1H29zM31 72h1v1H31zM33 72h1v1H33zM35 72h1v1H35zM37 72h1v1H37zM39 72h1v1H39zM41 72h1v1H41zM43 72h1v1H43zM45 72h1v1H45zM47 72h1v1H47zM49 72h1v1H49zM51 72h1v1H51zM53 72h1v1H53zM55 72h1v1H55zM57 72h1v1H57zM59 72h1v1H59zM61 72h1v1H61zM63 72h1v1H63zM65 72h1v1H65zM67 72h1v1H67zM69 72h1v1H69zM71 72h1v1H71zM73 72h1v1H73zM75 72h1v1H75zM77 72h1v1H77zM79 72h1v1H79zM81 72h1v1H81zM83 72h1v1H83zM85 72h1v1H85zM87 72h1v1H87zM89 72h1v1H89zM91 72h1v1H91zM93 72h1v1H93zM95 72h1v1H95zM97 72h1v1H97zM99 72h1v1H99zM101 72h1v1H101zM103 72h1v1H103zM105 72h1v1H105zM107 72h1v1H107zM109 72h1v1H109zM111 72h1v1H111zM113 72h1v1H113zM115 72h1v1H115zM148 72h1v1H148zM158 72h1v1H158zM160 72h1v1H160zM175 72h1v1H175zM177 72h1v1H177zM179 72h1v1H179zM181 72h1v1H181zM183 72h1v1H183zM185 72h1v1H185zM187 72h1v1H187zM189 72h1v1H189zM191 72h1v1H191zM193 72h1v1H193zM195 72h1v1H195zM197 72h1v1H197zM199 72h1v1H199zM201 72h1v1H201zM203 72h1v1H203zM205 72h1v1H205zM207 72h1v1H207zM209 72h1v1H209zM211 72h1v1H211zM213 72h1v1H213zM215 72h1v1H215zM217 72h1v1H217zM219 72h1v1H219zM221 72h1v1H221zM223 72h1v1H223zM225 72h1v1H225zM227 72h1v1H227zM229 72h1v1H229zM231 72h1v1H231zM233 72h1v1H233zM235 72h1v1H235zM237 72h1v1H237zM239 72h1v1H239zM241 72h1v1H241zM243 72h1v1H243zM245 72h1v1H245zM247 72h1v1H247zM249 72h1v1H249zM251 72h1v1H251zM253 72h1v1H253zM255 72h1v1H255zM257 72h1v1H257zM259 72h1v1H259zM261 72h1v1H261zM263 72h1v1H263zM265 72h1v1H265zM267 72h1v1H267zM269 72h1v1H269zM271 72h1v1H271zM273 72h1v1H273zM275 72h1v1H275zM277 72h1v1H277zM279 72h1v1H279zM281 72h1v1H281zM283 72h1v1H283zM285 72h1v1H285zM295 72h1v1H295zM0 73h1v1H0zM6 73h1v1H6zM25 73h3v1H25zM29 73h3v1H29zM33 73h3v1H33zM37 73h3v1H37zM41 73h3v1H41zM45 73h3v1H45zM49 73h3v1H49zM53 73h3v1H53zM57 73h3v1H57zM61 73h3v1H61zM65 73h3v1H65zM69 73h3v1H69zM73 73h3v1H73zM77 73h3v1H77zM81 73h3v1H81zM85 73h3v1H85zM89 73h3v1H89zM93 73h3v1H93zM97 73h3v1H97zM101 73h3v1H101zM105 73h3v1H105zM109 73h3v1H109zM113 73h3v1H113zM148 73h1v1H148zM156 73h4v1H156zM175 73h3v1H175zM179 73h3v1H179zM183 73h3v1H183zM187 73h3v1H187zM191 73h3v1H191zM195 73h3v1H195zM199 73h3v1H199zM203 73h3v1H203zM207 73h3v1H207zM211 73h3v1H211zM215 73h3v1H215zM219 73h3v1H219zM223 73h3v1H223zM227 73h3v1H227zM231 73h3v1H231zM235 73h3v1H235zM239 73h3v1H239zM243 73h3v1H243zM247 73h3v1H247zM251 73h3v1H251zM255 73h3v1H255zM259 73h3v1H259zM263 73h3v1H263zM267 73h3v1H267zM271 73h3v1H271zM275 73h3v1H275zM279 73h3v1H279zM283 73h3v1H283zM295 73h1v1H295zM0 74h1v1H0zM7 74h3v1H7zM148 74h1v1H148zM158 74h1v1H158zM295 74h1v1H295zM0 75h1v1H0zM148 75h1v1H148zM295 75h1v1H295zM0 76h1v1H0zM148 76h1v1H148zM295 76h1v1H295zM0 77h1v1H0zM148 77h1v1H148zM295 77h1v1H295zM0 78h1v1H0zM148 78h1v1H148zM295 78h1v1H295zM0 79h1v1H0zM148 79h1v1H148zM295 79h1v1H295zM0 80h1v1H0zM148 80h1v1H148zM295 80h1v1H295zM0 81h1v1H0zM6 81h282v1H6zM295 81h1v1H295zM0 82h1v1H0zM148 82h1v1H148zM295 82h1v1H295zM0 83h1v1H0zM9 83h1v1H9zM18 83h3v1H18zM23 83h5v1H23zM29 83h1v1H29zM33 83h1v1H33zM36 83h3v1H36zM41 83h1v1H41zM45 83h1v1H45zM48 83h3v1H48zM84 83h5v1H84zM90 83h1v1H90zM97 83h3v1H97zM103 83h3v1H103zM116 83h2v1H116zM124 83h1v1H124zM134 83h2v1H134zM138 83h1v1H138zM148 83h1v1H148zM159 83h1v1H159zM168 83h3v1H168zM173 83h1v1H173zM180 83h3v1H180zM185 83h1v1H185zM189 83h1v1H189zM191 83h3v1H191zM197 83h5v1H197zM210 83h3v1H210zM215 83h4v1H215zM221 83h5v1H221zM234 83h5v1H234zM240 83h1v1H240zM247 83h3v1H247zM253 83h3v1H253zM266 83h2v1H266zM274 83h1v1H274zM282 83h5v1H282zM288 83h1v1H288zM295 83h1v1H295zM0 84h1v1H0zM17 84h1v1H17zM21 84h1v1H21zM23 84h1v1H23zM29 84h2v1H29zM32 84h2v1H32zM37 84h1v1H37zM41 84h1v1H41zM45 84h1v1H45zM49 84h1v1H49zM84 84h1v1H84zM90 84h1v1H90zM96 84h1v1H96zM100 84h1v1H100zM102 84h1v1H102zM106 84h1v1H106zM112 84h1v1H112zM115 84h1v1H115zM124 84h1v1H124zM133 84h1v1H133zM138 84h1v1H138zM148 84h1v1H148zM167 84h1v1H167zM171 84h1v1H171zM173 84h1v1H173zM179 84h1v1H179zM183 84h1v1H183zM185 84h1v1H185zM189 84h1v1H189zM191 84h1v1H191zM194 84h1v1H194zM197 84h1v1H197zM207 84h1v1H207zM209 84h1v1H209zM213 84h1v1H213zM215 84h1v1H215zM219 84h1v1H219zM223 84h1v1H223zM234 84h1v1H234zM240 84h1v1H240zM246 84h1v1H246zM250 84h1v1H250zM252 84h1v1H252zM256 84h1v1H256zM262 84h1v1H262zM265 84h1v1H265zM274 84h1v1H274zM286 84h1v1H286zM288 84h1v1H288zM295 84h1v1H295zM0 85h1v1H0zM9 85h1v1H9zM17 85h1v1H17zM23 85h1v1H23zM29 85h1v1H29zM31 85h1v1H31zM33 85h1v1H33zM37 85h1v1H37zM41 85h2v1H41zM45 85h1v1H45zM49 85h1v1H49zM84 85h4v1H84zM90 85h1v1H90zM92 85h2v1H92zM96 85h1v1H96zM99 85h2v1H99zM102 85h1v1H102zM105 85h2v1H105zM111 85h1v1H111zM114 85h1v1H114zM121 85h2v1H121zM124 85h1v1H124zM132 85h1v1H132zM138 85h1v1H138zM140 85h2v1H140zM148 85h1v1H148zM159 85h1v1H159zM167 85h1v1H167zM173 85h1v1H173zM179 85h1v1H179zM183 85h1v1H183zM185 85h1v1H185zM189 85h1v1H189zM191 85h1v1H191zM195 85h1v1H195zM197 85h1v1H197zM206 85h1v1H206zM209 85h1v1H209zM215 85h1v1H215zM219 85h1v1H219zM223 85h1v1H223zM234 85h4v1H234zM240 85h1v1H240zM242 85h2v1H242zM246 85h1v1H246zM249 85h2v1H249zM252 85h1v1H252zM255 85h2v1H255zM261 85h1v1H261zM264 85h1v1H264zM271 85h2v1H271zM274 85h1v1H274zM285 85h1v1H285zM288 85h1v1H288zM290 85h2v1H290zM295 85h1v1H295zM0 86h1v1H0zM8 86h1v1H8zM10 86h1v1H10zM17 86h1v1H17zM19 86h3v1H19zM23 86h4v1H23zM29 86h1v1H29zM31 86h1v1H31zM33 86h1v1H33zM37 86h1v1H37zM41 86h1v1H41zM43 86h1v1H43zM45 86h1v1H45zM49 86h1v1H49zM88 86h1v1H88zM90 86h2v1H90zM94 86h1v1H94zM96 86h1v1H96zM98 86h1v1H98zM100 86h1v1H100zM102 86h1v1H102zM104 86h1v1H104zM106 86h1v1H106zM110 86h1v1H110zM114 86h4v1H114zM120 86h1v1H120zM123 86h2v1H123zM132 86h4v1H132zM138 86h2v1H138zM142 86h1v1H142zM148 86h1v1H148zM158 86h1v1H158zM160 86h1v1H160zM167 86h1v1H167zM173 86h1v1H173zM179 86h1v1H179zM183 86h1v1H183zM185 86h1v1H185zM189 86h1v1H189zM191 86h1v1H191zM195 86h1v1H195zM197 86h4v1H197zM205 86h1v1H205zM209 86h1v1H209zM211 86h3v1H211zM215 86h4v1H215zM223 86h1v1H223zM238 86h1v1H238zM240 86h2v1H240zM244 86h1v1H244zM246 86h1v1H246zM248 86h1v1H248zM250 86h1v1H250zM252 86h1v1H252zM254 86h1v1H254zM256 86h1v1H256zM260 86h1v1H260zM264 86h4v1H264zM270 86h1v1H270zM273 86h2v1H273zM284 86h1v1H284zM288 86h2v1H288zM292 86h1v1H292zM295 86h1v1H295zM0 87h1v1H0zM7 87h1v1H7zM11 87h1v1H11zM17 87h1v1H17zM21 87h1v1H21zM23 87h1v1H23zM29 87h1v1H29zM33 87h1v1H33zM37 87h1v1H37zM41 87h1v1H41zM44 87h2v1H44zM49 87h1v1H49zM88 87h1v1H88zM90 87h1v1H90zM94 87h1v1H94zM96 87h2v1H96zM100 87h1v1H100zM102 87h2v1H102zM106 87h1v1H106zM109 87h1v1H109zM114 87h1v1H114zM118 87h1v1H118zM120 87h1v1H120zM124 87h1v1H124zM132 87h1v1H132zM136 87h1v1H136zM138 87h1v1H138zM142 87h1v1H142zM148 87h1v1H148zM157 87h1v1H157zM161 87h1v1H161zM167 87h1v1H167zM173 87h1v1H173zM179 87h5v1H179zM185 87h1v1H185zM189 87h1v1H189zM191 87h1v1H191zM195 87h1v1H195zM197 87h1v1H197zM204 87h1v1H204zM209 87h1v1H209zM213 87h1v1H213zM215 87h1v1H215zM223 87h1v1H223zM238 87h1v1H238zM240 87h1v1H240zM244 87h1v1H244zM246 87h2v1H246zM250 87h1v1H250zM252 87h2v1H252zM256 87h1v1H256zM259 87h1v1H259zM264 87h1v1H264zM268 87h1v1H268zM270 87h1v1H270zM274 87h1v1H274zM283 87h1v1H283zM288 87h1v1H288zM292 87h1v1H292zM295 87h1v1H295zM0 88h1v1H0zM6 88h1v1H6zM12 88h1v1H12zM17 88h1v1H17zM21 88h1v1H21zM23 88h1v1H23zM29 88h1v1H29zM33 88h1v1H33zM37 88h1v1H37zM41 88h1v1H41zM45 88h1v1H45zM49 88h1v1H49zM84 88h1v1H84zM88 88h1v1H88zM90 88h1v1H90zM94 88h1v1H94zM96 88h1v1H96zM100 88h1v1H100zM102 88h1v1H102zM106 88h1v1H106zM108 88h1v1H108zM114 88h1v1H114zM118 88h1v1H118zM120 88h1v1H120zM124 88h1v1H124zM132 88h1v1H132zM136 88h1v1H136zM138 88h1v1H138zM142 88h1v1H142zM148 88h1v1H148zM156 88h1v1H156zM162 88h1v1H162zM167 88h1v1H167zM171 88h1v1H171zM173 88h1v1H173zM179 88h1v1H179zM183 88h1v1H183zM185 88h1v1H185zM189 88h1v1H189zM191 88h1v1H191zM194 88h1v1H194zM197 88h1v1H197zM203 88h1v1H203zM209 88h1v1H209zM213 88h1v1H213zM215 88h1v1H215zM223 88h1v1H223zM234 88h1v1H234zM238 88h1v1H238zM240 88h1v1H240zM244 88h1v1H244zM246 88h1v1H246zM250 88h1v1H250zM252 88h1v1H252zM256 88h1v1H256zM258 88h1v1H258zM264 88h1v1H264zM268 88h1v1H268zM270 88h1v1H270zM274 88h1v1H274zM283 88h1v1H283zM288 88h1v1H288zM292 88h1v1H292zM295 88h1v1H295zM0 89h1v1H0zM6 89h7v1H6zM18 89h4v1H18zM23 89h5v1H23zM29 89h1v1H29zM33 89h1v1H33zM36 89h3v1H36zM41 89h1v1H41zM45 89h1v1H45zM48 89h3v1H48zM85 89h3v1H85zM90 89h1v1H90zM94 89h1v1H94zM97 89h3v1H97zM103 89h3v1H103zM115 89h3v1H115zM121 89h4v1H121zM133 89h3v1H133zM138 89h1v1H138zM142 89h1v1H142zM148 89h1v1H148zM156 89h7v1H156zM168 89h3v1H168zM173 89h5v1H173zM179 89h1v1H179zM183 89h1v1H183zM186 89h3v1H186zM191 89h3v1H191zM197 89h5v1H197zM210 89h4v1H210zM215 89h1v1H215zM223 89h1v1H223zM235 89h3v1H235zM240 89h1v1H240zM244 89h1v1H244zM247 89h3v1H247zM253 89h3v1H253zM265 89h3v1H265zM271 89h4v1H271zM283 89h1v1H283zM288 89h1v1H288zM292 89h1v1H292zM295 89h1v1H295zM0 90h1v1H0zM148 90h1v1H148zM295 90h1v1H295zM0 91h1v1H0zM148 91h1v1H148zM295 91h1v1H295zM0 92h1v1H0zM148 92h1v1H148zM295 92h1v1H295zM0 93h1v1H0zM148 93h1v1H148zM295 93h1v1H295zM0 94h1v1H0zM148 94h1v1H148zM295 94h1v1H295zM0 95h1v1H0zM148 95h1v1H148zM295 95h1v1H295zM0 96h1v1H0zM6 96h5v1H6zM12 96h1v1H12zM16 96h1v1H16zM21 96h3v1H21zM25 96h3v1H25zM29 96h3v1H29zM33 96h3v1H33zM37 96h3v1H37zM41 96h3v1H41zM45 96h3v1H45zM49 96h3v1H49zM53 96h3v1H53zM57 96h3v1H57zM61 96h3v1H61zM65 96h3v1H65zM69 96h3v1H69zM73 96h3v1H73zM77 96h3v1H77zM81 96h3v1H81zM85 96h3v1H85zM89 96h3v1H89zM93 96h3v1H93zM97 96h3v1H97zM101 96h3v1H101zM105 96h3v1H105zM109 96h3v1H109zM113 96h3v1H113zM117 96h3v1H117zM121 96h3v1H121zM125 96h3v1H125zM133 96h3v1H133zM138 96h2v1H138zM148 96h1v1H148zM156 96h5v1H156zM162 96h1v1H162zM166 96h1v1H166zM171 96h3v1H171zM175 96h3v1H175zM179 96h3v1H179zM183 96h3v1H183zM187 96h3v1H187zM191 96h3v1H191zM195 96h3v1H195zM199 96h3v1H199zM203 96h3v1H203zM207 96h3v1H207zM211 96h3v1H211zM215 96h3v1H215zM219 96h3v1H219zM223 96h3v1H223zM227 96h3v1H227zM231 96h3v1H231zM235 96h3v1H235zM239 96h3v1H239zM243 96h3v1H243zM247 96h3v1H247zM251 96h3v1H251zM255 96h3v1H255zM259 96h3v1H259zM263 96h3v1H263zM267 96h3v1H267zM271 96h3v1H271zM275 96h3v1H275zM283 96h3v1H283zM288 96h2v1H288zM295 96h1v1H295zM0 97h1v1H0zM6 97h1v1H6zM12 97h1v1H12zM16 97h1v1H16zM21 97h1v1H21zM23 97h1v1H23zM25 97h1v1H25zM27 97h1v1H27zM29 97h1v1H29zM31 97h1v1H31zM33 97h1v1H33zM35 97h1v1H35zM37 97h1v1H37zM39 97h1v1H39zM41 97h1v1H41zM43 97h1v1H43zM45 97h1v1H45zM47 97h1v1H47zM49 97h1v1H49zM51 97h1v1H51zM53 97h1v1H53zM55 97h1v1H55zM57 97h1v1H57zM59 97h1v1H59zM61 97h1v1H61zM63 97h1v1H63zM65 97h1v1H65zM67 97h1v1H67zM69 97h1v1H69zM71 97h1v1H71zM73 97h1v1H73zM75 97h1v1H75zM77 97h1v1H77zM79 97h1v1H79zM81 97h1v1H81zM83 97h1v1H83zM85 97h1v1H85zM87 97h1v1H87zM89 97h1v1H89zM91 97h1v1H91zM93 97h1v1H93zM95 97h1v1H95zM97 97h1v1H97zM99 97h1v1H99zM101 97h1v1H101zM103 97h1v1H103zM105 97h1v1H105zM107 97h1v1H107zM109 97h1v1H109zM111 97h1v1H111zM113 97h1v1H113zM115 97h1v1H115zM117 97h1v1H117zM119 97h1v1H119zM121 97h1v1H121zM123 97h1v1H123zM125 97h1v1H125zM127 97h1v1H127zM132 97h1v1H132zM136 97h1v1H136zM138 97h2v1H138zM142 97h1v1H142zM148 97h1v1H148zM156 97h1v1H156zM162 97h1v1H162zM166 97h1v1H166zM171 97h1v1H171zM173 97h1v1H173zM175 97h1v1H175zM177 97h1v1H177zM179 97h1v1H179zM181 97h1v1H181zM183 97h1v1H183zM185 97h1v1H185zM187 97h1v1H187zM189 97h1v1H189zM191 97h1v1H191zM193 97h1v1H193zM195 97h1v1H195zM197 97h1v1H197zM199 97h1v1H199zM201 97h1v1H201zM203 97h1v1H203zM205 97h1v1H205zM207 97h1v1H207zM209 97h1v1H209zM211 97h1v1H211zM213 97h1v1H213zM215 97h1v1H215zM217 97h1v1H217zM219 97h1v1H219zM221 97h1v1H221zM223 97h1v1H223zM225 97h1v1H225zM227 97h1v1H227zM229 97h1v1H229zM231 97h1v1H231zM233 97h1v1H233zM235 97h1v1H235zM237 97h1v1H237zM239 97h1v1H239zM241 97h1v1H241zM243 97h1v1H243zM245 97h1v1H245zM247 97h1v1H247zM249 97h1v1H249zM251 97h1v1H251zM253 97h1v1H253zM255 97h1v1H255zM257 97h1v1H257zM259 97h1v1H259zM261 97h1v1H261zM263 97h1v1H263zM265 97h1v1H265zM267 97h1v1H267zM269 97h1v1H269zM271 97h1v1H271zM273 97h1v1H273zM275 97h1v1H275zM277 97h1v1H277zM282 97h1v1H282zM286 97h1v1H286zM288 97h2v1H288zM292 97h1v1H292zM295 97h1v1H295zM0 98h1v1H0zM6 98h4v1H6zM12 98h1v1H12zM16 98h1v1H16zM21 98h1v1H21zM23 98h1v1H23zM25 98h1v1H25zM27 98h1v1H27zM29 98h1v1H29zM31 98h1v1H31zM33 98h1v1H33zM35 98h1v1H35zM37 98h1v1H37zM39 98h1v1H39zM41 98h1v1H41zM43 98h1v1H43zM45 98h1v1H45zM47 98h1v1H47zM49 98h1v1H49zM51 98h1v1H51zM53 98h1v1H53zM55 98h1v1H55zM57 98h1v1H57zM59 98h1v1H59zM61 98h1v1H61zM63 98h1v1H63zM65 98h1v1H65zM67 98h1v1H67zM69 98h1v1H69zM71 98h1v1H71zM73 98h1v1H73zM75 98h1v1H75zM77 98h1v1H77zM79 98h1v1H79zM81 98h1v1H81zM83 98h1v1H83zM85 98h1v1H85zM87 98h1v1H87zM89 98h1v1H89zM91 98h1v1H91zM93 98h1v1H93zM95 98h1v1H95zM97 98h1v1H97zM99 98h1v1H99zM101 98h1v1H101zM103 98h1v1H103zM105 98h1v1H105zM107 98h1v1H107zM109 98h1v1H109zM111 98h1v1H111zM113 98h1v1H113zM115 98h1v1H115zM117 98h1v1H117zM119 98h1v1H119zM121 98h1v1H121zM123 98h1v1H123zM125 98h1v1H125zM127 98h1v1H127zM132 98h1v1H132zM135 98h2v1H135zM141 98h1v1H141zM148 98h1v1H148zM156 98h4v1H156zM162 98h1v1H162zM166 98h1v1H166zM171 98h1v1H171zM173 98h1v1H173zM175 98h1v1H175zM177 98h1v1H177zM179 98h1v1H179zM181 98h1v1H181zM183 98h1v1H183zM185 98h1v1H185zM187 98h1v1H187zM189 98h1v1H189zM191 98h1v1H191zM193 98h1v1H193zM195 98h1v1H195zM197 98h1v1H197zM199 98h1v1H199zM201 98h1v1H201zM203 98h1v1H203zM205 98h1v1H205zM207 98h1v1H207zM209 98h1v1H209zM211 98h1v1H211zM213 98h1v1H213zM215 98h1v1H215zM217 98h1v1H217zM219 98h1v1H219zM221 98h1v1H221zM223 98h1v1H223zM225 98h1v1H225zM227 98h1v1H227zM229 98h1v1H229zM231 98h1v1H231zM233 98h1v1H233zM235 98h1v1H235zM237 98h1v1H237zM239 98h1v1H239zM241 98h1v1H241zM243 98h1v1H243zM245 98h1v1H245zM247 98h1v1H247zM249 98h1v1H249zM251 98h1v1H251zM253 98h1v1H253zM255 98h1v1H255zM257 98h1v1H257zM259 98h1v1H259zM261 98h1v1H261zM263 98h1v1H263zM265 98h1v1H265zM267 98h1v1H267zM269 98h1v1H269zM271 98h1v1H271zM273 98h1v1H273zM275 98h1v1H275zM277 98h1v1H277zM282 98h1v1H282zM285 98h2v1H285zM291 98h1v1H291zM295 98h1v1H295zM0 99h1v1H0zM10 99h1v1H10zM12 99h5v1H12zM21 99h1v1H21zM23 99h1v1H23zM25 99h1v1H25zM27 99h1v1H27zM29 99h1v1H29zM31 99h1v1H31zM33 99h1v1H33zM35 99h1v1H35zM37 99h1v1H37zM39 99h1v1H39zM41 99h1v1H41zM43 99h1v1H43zM45 99h1v1H45zM47 99h1v1H47zM49 99h1v1H49zM51 99h1v1H51zM53 99h1v1H53zM55 99h1v1H55zM57 99h1v1H57zM59 99h1v1H59zM61 99h1v1H61zM63 99h1v1H63zM65 99h1v1H65zM67 99h1v1H67zM69 99h1v1H69zM71 99h1v1H71zM73 99h1v1H73zM75 99h1v1H75zM77 99h1v1H77zM79 99h1v1H79zM81 99h1v1H81zM83 99h1v1H83zM85 99h1v1H85zM87 99h1v1H87zM89 99h1v1H89zM91 99h1v1H91zM93 99h1v1H93zM95 99h1v1H95zM97 99h1v1H97zM99 99h1v1H99zM101 99h1v1H101zM103 99h1v1H103zM105 99h1v1H105zM107 99h1v1H107zM109 99h1v1H109zM111 99h1v1H111zM113 99h1v1H113zM115 99h1v1H115zM117 99h1v1H117zM119 99h1v1H119zM121 99h1v1H121zM123 99h1v1H123zM125 99h1v1H125zM127 99h1v1H127zM132 99h1v1H132zM134 99h1v1H134zM136 99h1v1H136zM140 99h1v1H140zM148 99h1v1H148zM160 99h1v1H160zM162 99h5v1H162zM171 99h1v1H171zM173 99h1v1H173zM175 99h1v1H175zM177 99h1v1H177zM179 99h1v1H179zM181 99h1v1H181zM183 99h1v1H183zM185 99h1v1H185zM187 99h1v1H187zM189 99h1v1H189zM191 99h1v1H191zM193 99h1v1H193zM195 99h1v1H195zM197 99h1v1H197zM199 99h1v1H199zM201 99h1v1H201zM203 99h1v1H203zM205 99h1v1H205zM207 99h1v1H207zM209 99h1v1H209zM211 99h1v1H211zM213 99h1v1H213zM215 99h1v1H215zM217 99h1v1H217zM219 99h1v1H219zM221 99h1v1H221zM223 99h1v1H223zM225 99h1v1H225zM227 99h1v1H227zM229 99h1v1H229zM231 99h1v1H231zM233 99h1v1H233zM235 99h1v1H235zM237 99h1v1H237zM239 99h1v1H239zM241 99h1v1H241zM243 99h1v1H243zM245 99h1v1H245zM247 99h1v1H247zM249 99h1v1H249zM251 99h1v1H251zM253 99h1v1H253zM255 99h1v1H255zM257 99h1v1H257zM259 99h1v1H259zM261 99h1v1H261zM263 99h1v1H263zM265 99h1v1H265zM267 99h1v1H267zM269 99h1v1H269zM271 99h1v1H271zM273 99h1v1H273zM275 99h1v1H275zM277 99h1v1H277zM282 99h1v1H282zM284 99h1v1H284zM286 99h1v1H286zM290 99h1v1H290zM295 99h1v1H295zM0 100h1v1H0zM10 100h1v1H10zM12 100h1v1H12zM16 100h1v1H16zM21 100h1v1H21zM23 100h1v1H23zM25 100h1v1H25zM27 100h1v1H27zM29 100h1v1H29zM31 100h1v1H31zM33 100h1v1H33zM35 100h1v1H35zM37 100h1v1H37zM39 100h1v1H39zM41 100h1v1H41zM43 100h1v1H43zM45 100h1v1H45zM47 100h1v1H47zM49 100h1v1H49zM51 100h1v1H51zM53 100h1v1H53zM55 100h1v1H55zM57 100h1v1H57zM59 100h1v1H59zM61 100h1v1H61zM63 100h1v1H63zM65 100h1v1H65zM67 100h1v1H67zM69 100h1v1H69zM71 100h1v1H71zM73 100h1v1H73zM75 100h1v1H75zM77 100h1v1H77zM79 100h1v1H79zM81 100h1v1H81zM83 100h1v1H83zM85 100h1v1H85zM87 100h1v1H87zM89 100h1v1H89zM91 100h1v1H91zM93 100h1v1H93zM95 100h1v1H95zM97 100h1v1H97zM99 100h1v1H99zM101 100h1v1H101zM103 100h1v1H103zM105 100h1v1H105zM107 100h1v1H107zM109 100h1v1H109zM111 100h1v1H111zM113 100h1v1H113zM115 100h1v1H115zM117 100h1v1H117zM119 100h1v1H119zM121 100h1v1H121zM123 100h1v1H123zM125 100h1v1H125zM127 100h1v1H127zM132 100h2v1H132zM136 100h1v1H136zM139 100h1v1H139zM148 100h1v1H148zM160 100h1v1H160zM162 100h1v1H162zM166 100h1v1H166zM171 100h1v1H171zM173 100h1v1H173zM175 100h1v1H175zM177 100h1v1H177zM179 100h1v1H179zM181 100h1v1H181zM183 100h1v1H183zM185 100h1v1H185zM187 100h1v1H187zM189 100h1v1H189zM191 100h1v1H191zM193 100h1v1H193zM195 100h1v1H195zM197 100h1v1H197zM199 100h1v1H199zM201 100h1v1H201zM203 100h1v1H203zM205 100h1v1H205zM207 100h1v1H207zM209 100h1v1H209zM211 100h1v1H211zM213 100h1v1H213zM215 100h1v1H215zM217 100h1v1H217zM219 100h1v1H219zM221 100h1v1H221zM223 100h1v1H223zM225 100h1v1H225zM227 100h1v1H227zM229 100h1v1H229zM231 100h1v1H231zM233 100h1v1H233zM235 100h1v1H235zM237 100h1v1H237zM239 100h1v1H239zM241 100h1v1H241zM243 100h1v1H243zM245 100h1v1H245zM247 100h1v1H247zM249 100h1v1H249zM251 100h1v1H251zM253 100h1v1H253zM255 100h1v1H255zM257 100h1v1H257zM259 100h1v1H259zM261 100h1v1H261zM263 100h1v1H263zM265 100h1v1H265zM267 100h1v1H267zM269 100h1v1H269zM271 100h1v1H271zM273 100h1v1H273zM275 100h1v1H275zM277 100h1v1H277zM282 100h2v1H282zM286 100h1v1H286zM289 100h1v1H289zM295 100h1v1H295zM0 101h1v1H0zM6 101h1v1H6zM10 101h1v1H10zM12 101h1v1H12zM16 101h1v1H16zM21 101h3v1H21zM25 101h3v1H25zM29 101h3v1H29zM33 101h3v1H33zM37 101h3v1H37zM41 101h3v1H41zM45 101h3v1H45zM49 101h3v1H49zM53 101h3v1H53zM57 101h3v1H57zM61 101h3v1H61zM65 101h3v1H65zM69 101h3v1H69zM73 101h3v1H73zM77 101h3v1H77zM81 101h3v1H81zM85 101h3v1H85zM89 101h3v1H89zM93 101h3v1H93zM97 101h3v1H97zM101 101h3v1H101zM105 101h3v1H105zM109 101h3v1H109zM113 101h3v1H113zM117 101h3v1H117zM121 101h3v1H121zM125 101h3v1H125zM132 101h1v1H132zM136 101h1v1H136zM138 101h1v1H138zM141 101h2v1H141zM148 101h1v1H148zM156 101h1v1H156zM160 101h1v1H160zM162 101h1v1H162zM166 101h1v1H166zM171 101h3v1H171zM175 101h3v1H175zM179 101h3v1H179zM183 101h3v1H183zM187 101h3v1H187zM191 101h3v1H191zM195 101h3v1H195zM199 101h3v1H199zM203 101h3v1H203zM207 101h3v1H207zM211 101h3v1H211zM215 101h3v1H215zM219 101h3v1H219zM223 101h3v1H223zM227 101h3v1H227zM231 101h3v1H231zM235 101h3v1H235zM239 101h3v1H239zM243 101h3v1H243zM247 101h3v1H247zM251 101h3v1H251zM255 101h3v1H255zM259 101h3v1H259zM263 101h3v1H263zM267 101h3v1H267zM271 101h3v1H271zM275 101h3v1H275zM282 101h1v1H282zM286 101h1v1H286zM288 101h1v1H288zM291 101h2v1H291zM295 101h1v1H295zM0 102h1v1H0zM7 102h3v1H7zM12 102h1v1H12zM16 102h1v1H16zM133 102h3v1H133zM141 102h2v1H141zM148 102h1v1H148zM157 102h3v1H157zM162 102h1v1H162zM166 102h1v1H166zM283 102h3v1H283zM291 102h2v1H291zM295 102h1v1H295zM0 103h1v1H0zM148 103h1v1H148zM295 103h1v1H295zM0 104h1v1H0zM148 104h1v1H148zM295 104h1v1H295zM0 105h1v1H0zM6 105h5v1H6zM12 105h3v1H12zM21 105h3v1H21zM25 105h3v1H25zM29 105h3v1H29zM33 105h3v1H33zM37 105h3v1H37zM41 105h3v1H41zM45 105h3v1H45zM49 105h3v1H49zM53 105h3v1H53zM57 105h3v1H57zM61 105h3v1H61zM65 105h3v1H65zM69 105h3v1H69zM73 105h3v1H73zM77 105h3v1H77zM81 105h3v1H81zM85 105h3v1H85zM89 105h3v1H89zM93 105h3v1H93zM97 105h3v1H97zM101 105h3v1H101zM105 105h3v1H105zM109 105h3v1H109zM113 105h3v1H113zM117 105h3v1H117zM121 105h3v1H121zM125 105h3v1H125zM133 105h3v1H133zM138 105h2v1H138zM148 105h1v1H148zM156 105h5v1H156zM162 105h3v1H162zM171 105h3v1H171zM175 105h3v1H175zM179 105h3v1H179zM183 105h3v1H183zM187 105h3v1H187zM191 105h3v1H191zM195 105h3v1H195zM199 105h3v1H199zM203 105h3v1H203zM207 105h3v1H207zM211 105h3v1H211zM215 105h3v1H215zM219 105h3v1H219zM223 105h3v1H223zM227 105h3v1H227zM231 105h3v1H231zM235 105h3v1H235zM239 105h3v1H239zM243 105h3v1H243zM247 105h3v1H247zM251 105h3v1H251zM255 105h3v1H255zM259 105h3v1H259zM263 105h3v1H263zM267 105h3v1H267zM271 105h3v1H271zM276 105h5v1H276zM285 105h1v1H285zM288 105h2v1H288zM295 105h1v1H295zM0 106h1v1H0zM10 106h1v1H10zM12 106h1v1H12zM15 106h1v1H15zM21 106h3v1H21zM25 106h3v1H25zM29 106h1v1H29zM31 106h1v1H31zM33 106h1v1H33zM35 106h1v1H35zM37 106h1v1H37zM39 106h1v1H39zM41 106h1v1H41zM43 106h1v1H43zM45 106h1v1H45zM47 106h1v1H47zM49 106h1v1H49zM51 106h1v1H51zM53 106h1v1H53zM55 106h1v1H55zM57 106h1v1H57zM59 106h1v1H59zM61 106h1v1H61zM63 106h1v1H63zM65 106h1v1H65zM67 106h1v1H67zM69 106h1v1H69zM71 106h1v1H71zM73 106h1v1H73zM75 106h1v1H75zM77 106h1v1H77zM79 106h1v1H79zM81 106h1v1H81zM83 106h1v1H83zM85 106h1v1H85zM87 106h1v1H87zM89 106h1v1H89zM91 106h1v1H91zM93 106h1v1H93zM95 106h1v1H95zM97 106h1v1H97zM99 106h1v1H99zM101 106h1v1H101zM103 106h1v1H103zM105 106h1v1H105zM107 106h1v1H107zM109 106h1v1H109zM111 106h1v1H111zM113 106h1v1H113zM115 106h1v1H115zM117 106h1v1H117zM119 106h1v1H119zM121 106h1v1H121zM123 106h1v1H123zM125 106h1v1H125zM127 106h1v1H127zM132 106h1v1H132zM136 106h1v1H136zM138 106h2v1H138zM142 106h1v1H142zM148 106h1v1H148zM160 106h1v1H160zM162 106h1v1H162zM165 106h1v1H165zM171 106h3v1H171zM175 106h3v1H175zM179 106h3v1H179zM183 106h3v1H183zM187 106h3v1H187zM191 106h3v1H191zM195 106h3v1H195zM199 106h3v1H199zM203 106h3v1H203zM207 106h1v1H207zM209 106h1v1H209zM211 106h1v1H211zM213 106h1v1H213zM215 106h1v1H215zM217 106h1v1H217zM219 106h1v1H219zM221 106h1v1H221zM223 106h1v1H223zM225 106h1v1H225zM227 106h1v1H227zM229 106h1v1H229zM231 106h1v1H231zM233 106h1v1H233zM235 106h1v1H235zM237 106h1v1H237zM239 106h1v1H239zM241 106h1v1H241zM243 106h1v1H243zM245 106h1v1H245zM247 106h1v1H247zM249 106h1v1H249zM251 106h1v1H251zM253 106h1v1H253zM255 106h1v1H255zM257 106h1v1H257zM259 106h1v1H259zM261 106h1v1H261zM263 106h1v1H263zM265 106h1v1H265zM267 106h1v1H267zM269 106h1v1H269zM271 106h1v1H271zM273 106h1v1H273zM279 106h1v1H279zM284 106h2v1H284zM288 106h2v1H288zM292 106h1v1H292zM295 106h1v1H295zM0 107h1v1H0zM9 107h1v1H9zM12 107h1v1H12zM16 107h1v1H16zM21 107h3v1H21zM25 107h3v1H25zM29 107h1v1H29zM31 107h1v1H31zM33 107h1v1H33zM35 107h1v1H35zM37 107h1v1H37zM39 107h1v1H39zM41 107h1v1H41zM43 107h1v1H43zM45 107h1v1H45zM47 107h1v1H47zM49 107h1v1H49zM51 107h1v1H51zM53 107h1v1H53zM55 107h1v1H55zM57 107h1v1H57zM59 107h1v1H59zM61 107h1v1H61zM63 107h1v1H63zM65 107h1v1H65zM67 107h1v1H67zM69 107h1v1H69zM71 107h1v1H71zM73 107h1v1H73zM75 107h1v1H75zM77 107h1v1H77zM79 107h1v1H79zM81 107h1v1H81zM83 107h1v1H83zM85 107h1v1H85zM87 107h1v1H87zM89 107h1v1H89zM91 107h1v1H91zM93 107h1v1H93zM95 107h1v1H95zM97 107h1v1H97zM99 107h1v1H99zM101 107h1v1H101zM103 107h1v1H103zM105 107h1v1H105zM107 107h1v1H107zM109 107h1v1H109zM111 107h1v1H111zM113 107h1v1H113zM115 107h1v1H115zM117 107h1v1H117zM119 107h1v1H119zM121 107h1v1H121zM123 107h1v1H123zM125 107h1v1H125zM127 107h1v1H127zM132 107h1v1H132zM136 107h1v1H136zM141 107h1v1H141zM148 107h1v1H148zM159 107h1v1H159zM162 107h1v1H162zM166 107h1v1H166zM171 107h3v1H171zM175 107h3v1H175zM179 107h3v1H179zM183 107h3v1H183zM187 107h3v1H187zM191 107h3v1H191zM195 107h3v1H195zM199 107h3v1H199zM203 107h3v1H203zM207 107h1v1H207zM209 107h1v1H209zM211 107h1v1H211zM213 107h1v1H213zM215 107h1v1H215zM217 107h1v1H217zM219 107h1v1H219zM221 107h1v1H221zM223 107h1v1H223zM225 107h1v1H225zM227 107h1v1H227zM229 107h1v1H229zM231 107h1v1H231zM233 107h1v1H233zM235 107h1v1H235zM237 107h1v1H237zM239 107h1v1H239zM241 107h1v1H241zM243 107h1v1H243zM245 107h1v1H245zM247 107h1v1H247zM249 107h1v1H249zM251 107h1v1H251zM253 107h1v1H253zM255 107h1v1H255zM257 107h1v1H257zM259 107h1v1H259zM261 107h1v1H261zM263 107h1v1H263zM265 107h1v1H265zM267 107h1v1H267zM269 107h1v1H269zM271 107h1v1H271zM273 107h1v1H273zM278 107h1v1H278zM283 107h1v1H283zM285 107h1v1H285zM291 107h1v1H291zM295 107h1v1H295zM0 108h1v1H0zM8 108h1v1H8zM12 108h1v1H12zM16 108h1v1H16zM21 108h3v1H21zM25 108h3v1H25zM29 108h1v1H29zM31 108h1v1H31zM33 108h1v1H33zM35 108h1v1H35zM37 108h1v1H37zM39 108h1v1H39zM41 108h1v1H41zM43 108h1v1H43zM45 108h1v1H45zM47 108h1v1H47zM49 108h1v1H49zM51 108h1v1H51zM53 108h1v1H53zM55 108h1v1H55zM57 108h1v1H57zM59 108h1v1H59zM61 108h1v1H61zM63 108h1v1H63zM65 108h1v1H65zM67 108h1v1H67zM69 108h1v1H69zM71 108h1v1H71zM73 108h1v1H73zM75 108h1v1H75zM77 108h1v1H77zM79 108h1v1H79zM81 108h1v1H81zM83 108h1v1H83zM85 108h1v1H85zM87 108h1v1H87zM89 108h1v1H89zM91 108h1v1H91zM93 108h1v1H93zM95 108h1v1H95zM97 108h1v1H97zM99 108h1v1H99zM101 108h1v1H101zM103 108h1v1H103zM105 108h1v1H105zM107 108h1v1H107zM109 108h1v1H109zM111 108h1v1H111zM113 108h1v1H113zM115 108h1v1H115zM117 108h1v1H117zM119 108h1v1H119zM121 108h1v1H121zM123 108h1v1H123zM125 108h1v1H125zM127 108h1v1H127zM133 108h3v1H133zM140 108h1v1H140zM148 108h1v1H148zM158 108h1v1H158zM162 108h1v1H162zM166 108h1v1H166zM171 108h3v1H171zM175 108h3v1H175zM179 108h3v1H179zM183 108h3v1H183zM187 108h3v1H187zM191 108h3v1H191zM195 108h3v1H195zM199 108h3v1H199zM203 108h3v1H203zM207 108h1v1H207zM209 108h1v1H209zM211 108h1v1H211zM213 108h1v1H213zM215 108h1v1H215zM217 108h1v1H217zM219 108h1v1H219zM221 108h1v1H221zM223 108h1v1H223zM225 108h1v1H225zM227 108h1v1H227zM229 108h1v1H229zM231 108h1v1H231zM233 108h1v1H233zM235 108h1v1H235zM237 108h1v1H237zM239 108h1v1H239zM241 108h1v1H241zM243 108h1v1H243zM245 108h1v1H245zM247 108h1v1H247zM249 108h1v1H249zM251 108h1v1H251zM253 108h1v1H253zM255 108h1v1H255zM257 108h1v1H257zM259 108h1v1H259zM261 108h1v1H261zM263 108h1v1H263zM265 108h1v1H265zM267 108h1v1H267zM269 108h1v1H269zM271 108h1v1H271zM273 108h1v1H273zM279 108h1v1H279zM282 108h1v1H282zM285 108h1v1H285zM290 108h1v1H290zM295 108h1v1H295zM0 109h1v1H0zM7 109h1v1H7zM12 109h1v1H12zM16 109h1v1H16zM21 109h3v1H21zM25 109h3v1H25zM29 109h1v1H29zM31 109h1v1H31zM33 109h1v1H33zM35 109h1v1H35zM37 109h1v1H37zM39 109h1v1H39zM41 109h1v1H41zM43 109h1v1H43zM45 109h1v1H45zM47 109h1v1H47zM49 109h1v1H49zM51 109h1v1H51zM53 109h1v1H53zM55 109h1v1H55zM57 109h1v1H57zM59 109h1v1H59zM61 109h1v1H61zM63 109h1v1H63zM65 109h1v1H65zM67 109h1v1H67zM69 109h1v1H69zM71 109h1v1H71zM73 109h1v1H73zM75 109h1v1H75zM77 109h1v1H77zM79 109h1v1H79zM81 109h1v1H81zM83 109h1v1H83zM85 109h1v1H85zM87 109h1v1H87zM89 109h1v1H89zM91 109h1v1H91zM93 109h1v1H93zM95 109h1v1H95zM97 109h1v1H97zM99 109h1v1H99zM101 109h1v1H101zM103 109h1v1H103zM105 109h1v1H105zM107 109h1v1H107zM109 109h1v1H109zM111 109h1v1H111zM113 109h1v1H113zM115 109h1v1H115zM117 109h1v1H117zM119 109h1v1H119zM121 109h1v1H121zM123 109h1v1H123zM125 109h1v1H125zM127 109h1v1H127zM132 109h1v1H132zM136 109h1v1H136zM139 109h1v1H139zM148 109h1v1H148zM157 109h1v1H157zM162 109h1v1H162zM166 109h1v1H166zM171 109h3v1H171zM175 109h3v1H175zM179 109h3v1H179zM183 109h3v1H183zM187 109h3v1H187zM191 109h3v1H191zM195 109h3v1H195zM199 109h3v1H199zM203 109h3v1H203zM207 109h1v1H207zM209 109h1v1H209zM211 109h1v1H211zM213 109h1v1H213zM215 109h1v1H215zM217 109h1v1H217zM219 109h1v1H219zM221 109h1v1H221zM223 109h1v1H223zM225 109h1v1H225zM227 109h1v1H227zM229 109h1v1H229zM231 109h1v1H231zM233 109h1v1H233zM235 109h1v1H235zM237 109h1v1H237zM239 109h1v1H239zM241 109h1v1H241zM243 109h1v1H243zM245 109h1v1H245zM247 109h1v1H247zM249 109h1v1H249zM251 109h1v1H251zM253 109h1v1H253zM255 109h1v1H255zM257 109h1v1H257zM259 109h1v1H259zM261 109h1v1H261zM263 109h1v1H263zM265 109h1v1H265zM267 109h1v1H267zM269 109h1v1H269zM271 109h1v1H271zM273 109h1v1H273zM280 109h1v1H280zM282 109h5v1H282zM289 109h1v1H289zM295 109h1v1H295zM0 110h1v1H0zM7 110h1v1H7zM12 110h1v1H12zM15 110h1v1H15zM21 110h3v1H21zM25 110h3v1H25zM29 110h3v1H29zM33 110h3v1H33zM37 110h3v1H37zM41 110h3v1H41zM45 110h3v1H45zM49 110h3v1H49zM53 110h3v1H53zM57 110h3v1H57zM61 110h3v1H61zM65 110h3v1H65zM69 110h3v1H69zM73 110h3v1H73zM77 110h3v1H77zM81 110h3v1H81zM85 110h3v1H85zM89 110h3v1H89zM93 110h3v1H93zM97 110h3v1H97zM101 110h3v1H101zM105 110h3v1H105zM109 110h3v1H109zM113 110h3v1H113zM117 110h3v1H117zM121 110h3v1H121zM125 110h3v1H125zM132 110h1v1H132zM136 110h1v1H136zM138 110h1v1H138zM141 110h2v1H141zM148 110h1v1H148zM157 110h1v1H157zM162 110h1v1H162zM165 110h1v1H165zM171 110h3v1H171zM175 110h3v1H175zM179 110h3v1H179zM183 110h3v1H183zM187 110h3v1H187zM191 110h3v1H191zM195 110h3v1H195zM199 110h3v1H199zM203 110h3v1H203zM207 110h3v1H207zM211 110h3v1H211zM215 110h3v1H215zM219 110h3v1H219zM223 110h3v1H223zM227 110h3v1H227zM231 110h3v1H231zM235 110h3v1H235zM239 110h3v1H239zM243 110h3v1H243zM247 110h3v1H247zM251 110h3v1H251zM255 110h3v1H255zM259 110h3v1H259zM263 110h3v1H263zM267 110h3v1H267zM271 110h3v1H271zM276 110h1v1H276zM280 110h1v1H280zM285 110h1v1H285zM288 110h1v1H288zM291 110h2v1H291zM295 110h1v1H295zM0 111h1v1H0zM7 111h1v1H7zM12 111h3v1H12zM133 111h3v1H133zM141 111h2v1H141zM148 111h1v1H148zM157 111h1v1H157zM162 111h3v1H162zM277 111h3v1H277zM285 111h1v1H285zM291 111h2v1H291zM295 111h1v1H295zM0 112h1v1H0zM148 112h1v1H148zM295 112h1v1H295zM0 113h1v1H0zM148 113h1v1H148zM295 113h1v1H295zM0 114h1v1H0zM148 114h1v1H148zM295 114h1v1H295zM0 115h1v1H0zM148 115h1v1H148zM295 115h1v1H295zM0 116h1v1H0zM148 116h1v1H148zM295 116h1v1H295zM0 117h1v1H0zM148 117h1v1H148zM295 117h1v1H295zM0 118h1v1H0zM148 118h1v1H148zM295 118h1v1H295zM0 119h1v1H0zM148 119h1v1H148zM295 119h1v1H295zM0 120h1v1H0zM148 120h1v1H148zM295 120h1v1H295zM0 121h1v1H0zM148 121h1v1H148zM295 121h1v1H295zM0 122h1v1H0zM148 122h1v1H148zM295 122h1v1H295zM0 123h1v1H0zM148 123h1v1H148zM295 123h1v1H295zM0 124h1v1H0zM148 124h1v1H148zM295 124h1v1H295zM0 125h1v1H0zM295 125h1v1H295zM0 126h1v1H0zM295 126h1v1H295zM0 127h295v1H0z"/>
<path fill="#d62518" d="M21 68h3v1H21zM121 68h3v1H121zM133 68h3v1H133zM140 68h1v1H140zM171 68h3v1H171zM288 68h5v1H288zM21 69h3v1H21zM120 69h1v1H120zM124 69h1v1H124zM132 69h1v1H132zM136 69h1v1H136zM139 69h2v1H139zM171 69h3v1H171zM291 69h1v1H291zM21 70h3v1H21zM120 70h1v1H120zM123 70h2v1H123zM132 70h1v1H132zM136 70h1v1H136zM140 70h1v1H140zM171 70h3v1H171zM290 70h1v1H290zM21 71h3v1H21zM120 71h1v1H120zM122 71h1v1H122zM124 71h1v1H124zM133 71h4v1H133zM140 71h1v1H140zM171 71h3v1H171zM291 71h1v1H291zM21 72h3v1H21zM120 72h2v1H120zM124 72h1v1H124zM127 72h2v1H127zM136 72h1v1H136zM140 72h1v1H140zM171 72h3v1H171zM292 72h1v1H292zM21 73h3v1H21zM120 73h1v1H120zM124 73h1v1H124zM128 73h1v1H128zM135 73h1v1H135zM140 73h1v1H140zM171 73h3v1H171zM288 73h1v1H288zM292 73h1v1H292zM121 74h3v1H121zM127 74h1v1H127zM133 74h2v1H133zM139 74h3v1H139zM289 74h3v1H289z"/>
</g>
</svg>
