<svg xmlns="http://www.w3.org/2000/svg" width="888" height="384" viewBox="0 0 296 128" role="img" aria-labelledby="title">
<title id="title">DevDash dashboard screen</title>
<rect width="296" height="128" fill="#fff"/>
<g shape-rendering="crispEdges">
<path fill="#111" d="M0 0h296v1H0zM0 1h1v1H0zM295 1h1v1H295zM0 2h1v1H0zM295 2h1v1H295zM0 3h1v1H0zM295 3h1v1H295zM0 4h1v1H0zM6 4h9v1H6zM234 4h1v1H234zM295 4h1v1H295zM0 5h1v1H0zM6 5h9v1H6zM19 5h3v1H19zM25 5h5v1H25zM31 5h1v1H31zM35 5h1v1H35zM37 5h3v1H37zM44 5h3v1H44zM50 5h4v1H50zM55 5h1v1H55zM59 5h1v1H59zM130 5h6v1H130zM143 5h1v1H143zM164 5h1v1H164zM230 5h5v1H230zM242 5h1v1H242zM249 5h1v1H249zM258 5h5v1H258zM265 5h3v1H265zM278 5h5v1H278zM295 5h1v1H295zM0 6h1v1H0zM6 6h2v1H6zM13 6h2v1H13zM19 6h1v1H19zM22 6h1v1H22zM25 6h1v1H25zM31 6h1v1H31zM35 6h1v1H35zM37 6h1v1H37zM40 6h1v1H40zM43 6h1v1H43zM47 6h1v1H47zM49 6h1v1H49zM55 6h1v1H55zM59 6h1v1H59zM129 6h1v1H129zM136 6h1v1H136zM142 6h2v1H142zM156 6h1v1H156zM163 6h2v1H163zM229 6h1v1H229zM234 6h1v1H234zM241 6h2v1H241zM248 6h2v1H248zM253 6h2v1H253zM261 6h1v1H261zM264 6h1v1H264zM268 6h1v1H268zM274 6h1v1H274zM278 6h1v1H278zM295 6h1v1H295zM0 7h1v1H0zM6 7h2v1H6zM9 7h3v1H9zM13 7h2v1H13zM19 7h1v1H19zM23 7h1v1H23zM25 7h1v1H25zM31 7h1v1H31zM35 7h1v1H35zM37 7h1v1H37zM41 7h1v1H41zM43 7h1v1H43zM47 7h1v1H47zM49 7h1v1H49zM55 7h1v1H55zM59 7h1v1H59zM143 7h1v1H143zM157 7h1v1H157zM164 7h1v1H164zM229 7h1v1H229zM242 7h1v1H242zM247 7h1v1H247zM249 7h1v1H249zM253 7h2v1H253zM260 7h1v1H260zM264 7h1v1H264zM268 7h1v1H268zM274 7h1v1H274zM278 7h4v1H278zM284 7h2v1H284zM287 7h1v1H287zM295 7h1v1H295zM0 8h1v1H0zM6 8h2v1H6zM9 8h3v1H9zM13 8h2v1H13zM19 8h1v1H19zM23 8h1v1H23zM25 8h4v1H25zM31 8h1v1H31zM35 8h1v1H35zM37 8h1v1H37zM41 8h1v1H41zM43 8h1v1H43zM47 8h1v1H47zM50 8h3v1H50zM55 8h5v1H55zM130 8h6v1H130zM143 8h1v1H143zM150 8h9v1H150zM164 8h1v1H164zM229 8h1v1H229zM235 8h1v1H235zM242 8h1v1H242zM246 8h1v1H246zM249 8h1v1H249zM261 8h1v1H261zM265 8h3v1H265zM272 8h5v1H272zM282 8h1v1H282zM284 8h1v1H284zM286 8h1v1H286zM288 8h1v1H288zM295 8h1v1H295zM0 9h1v1H0zM6 9h2v1H6zM9 9h3v1H9zM13 9h2v1H13zM19 9h1v1H19zM23 9h1v1H23zM25 9h1v1H25zM31 9h1v1H31zM35 9h1v1H35zM37 9h1v1H37zM41 9h1v1H41zM43 9h5v1H43zM53 9h1v1H53zM55 9h1v1H55zM59 9h1v1H59zM143 9h1v1H143zM157 9h1v1H157zM164 9h1v1H164zM235 9h1v1H235zM242 9h1v1H242zM246 9h5v1H246zM253 9h2v1H253zM262 9h1v1H262zM264 9h1v1H264zM268 9h1v1H268zM274 9h1v1H274zM282 9h1v1H282zM284 9h1v1H284zM286 9h1v1H286zM288 9h1v1H288zM295 9h1v1H295zM0 10h1v1H0zM6 10h2v1H6zM13 10h2v1H13zM19 10h1v1H19zM22 10h1v1H22zM25 10h1v1H25zM32 10h1v1H32zM34 10h1v1H34zM37 10h1v1H37zM40 10h1v1H40zM43 10h1v1H43zM47 10h1v1H47zM53 10h1v1H53zM55 10h1v1H55zM59 10h1v1H59zM132 10h2v1H132zM143 10h1v1H143zM156 10h1v1H156zM164 10h1v1H164zM230 10h1v1H230zM235 10h1v1H235zM242 10h1v1H242zM249 10h1v1H249zM253 10h2v1H253zM258 10h1v1H258zM262 10h1v1H262zM264 10h1v1H264zM268 10h1v1H268zM274 10h1v1H274zM278 10h1v1H278zM282 10h1v1H282zM284 10h1v1H284zM288 10h1v1H288zM295 10h1v1H295zM0 11h1v1H0zM6 11h9v1H6zM19 11h3v1H19zM25 11h5v1H25zM33 11h1v1H33zM37 11h3v1H37zM43 11h1v1H43zM47 11h1v1H47zM49 11h4v1H49zM55 11h1v1H55zM59 11h1v1H59zM142 11h3v1H142zM163 11h3v1H163zM230 11h5v1H230zM241 11h3v1H241zM249 11h1v1H249zM259 11h3v1H259zM265 11h3v1H265zM279 11h3v1H279zM284 11h1v1H284zM288 11h1v1H288zM295 11h1v1H295zM0 12h1v1H0zM6 12h9v1H6zM132 12h2v1H132zM230 12h1v1H230zM295 12h1v1H295zM0 13h1v1H0zM295 13h1v1H295zM0 14h294v1H0zM295 14h1v1H295zM0 15h1v1H0zM106 15h1v1H106zM295 15h1v1H295zM0 16h1v1H0zM106 16h1v1H106zM295 16h1v1H295zM0 17h1v1H0zM106 17h1v1H106zM113 17h3v1H113zM118 17h1v1H118zM125 17h3v1H125zM130 17h1v1H130zM134 17h1v1H134zM136 17h3v1H136zM142 17h5v1H142zM217 17h7v1H217zM229 17h3v1H229zM234 17h1v1H234zM242 17h1v1H242zM248 17h2v1H248zM262 17h5v1H262zM272 17h1v1H272zM276 17h1v1H276zM281 17h3v1H281zM286 17h1v1H286zM295 17h1v1H295zM0 18h1v1H0zM106 18h1v1H106zM112 18h1v1H112zM116 18h1v1H116zM118 18h1v1H118zM124 18h1v1H124zM128 18h1v1H128zM130 18h1v1H130zM134 18h1v1H134zM136 18h1v1H136zM139 18h1v1H139zM142 18h1v1H142zM218 18h5v1H218zM228 18h1v1H228zM232 18h1v1H232zM234 18h1v1H234zM241 18h2v1H241zM247 18h1v1H247zM258 18h1v1H258zM265 18h1v1H265zM272 18h1v1H272zM275 18h2v1H275zM280 18h1v1H280zM284 18h1v1H284zM286 18h1v1H286zM295 18h1v1H295zM0 19h1v1H0zM8 19h6v1H8zM106 19h1v1H106zM112 19h1v1H112zM118 19h1v1H118zM124 19h1v1H124zM128 19h1v1H128zM130 19h1v1H130zM134 19h1v1H134zM136 19h1v1H136zM140 19h1v1H140zM142 19h1v1H142zM219 19h3v1H219zM232 19h1v1H232zM234 19h1v1H234zM236 19h2v1H236zM242 19h1v1H242zM246 19h1v1H246zM257 19h1v1H257zM264 19h1v1H264zM269 19h2v1H269zM272 19h1v1H272zM276 19h1v1H276zM284 19h1v1H284zM286 19h1v1H286zM288 19h2v1H288zM295 19h1v1H295zM0 20h1v1H0zM7 20h8v1H7zM106 20h1v1H106zM112 20h1v1H112zM118 20h1v1H118zM124 20h1v1H124zM128 20h1v1H128zM130 20h1v1H130zM134 20h1v1H134zM136 20h1v1H136zM140 20h1v1H140zM142 20h4v1H142zM220 20h1v1H220zM231 20h1v1H231zM234 20h2v1H234zM238 20h1v1H238zM242 20h1v1H242zM246 20h4v1H246zM256 20h1v1H256zM265 20h1v1H265zM268 20h1v1H268zM271 20h2v1H271zM276 20h1v1H276zM283 20h1v1H283zM286 20h2v1H286zM290 20h1v1H290zM295 20h1v1H295zM0 21h1v1H0zM7 21h8v1H7zM21 21h3v1H21zM26 21h1v1H26zM30 21h1v1H30zM106 21h1v1H106zM112 21h1v1H112zM118 21h1v1H118zM124 21h5v1H124zM130 21h1v1H130zM134 21h1v1H134zM136 21h1v1H136zM140 21h1v1H140zM142 21h1v1H142zM219 21h3v1H219zM230 21h1v1H230zM234 21h1v1H234zM238 21h1v1H238zM242 21h1v1H242zM246 21h1v1H246zM250 21h1v1H250zM255 21h1v1H255zM266 21h1v1H266zM268 21h1v1H268zM272 21h1v1H272zM276 21h1v1H276zM282 21h1v1H282zM286 21h1v1H286zM290 21h1v1H290zM295 21h1v1H295zM0 22h1v1H0zM7 22h2v1H7zM10 22h2v1H10zM13 22h2v1H13zM20 22h1v1H20zM24 22h1v1H24zM26 22h1v1H26zM30 22h1v1H30zM106 22h1v1H106zM112 22h1v1H112zM116 22h1v1H116zM118 22h1v1H118zM124 22h1v1H124zM128 22h1v1H128zM130 22h1v1H130zM134 22h1v1H134zM136 22h1v1H136zM139 22h1v1H139zM142 22h1v1H142zM218 22h5v1H218zM229 22h1v1H229zM234 22h1v1H234zM238 22h1v1H238zM242 22h1v1H242zM246 22h1v1H246zM250 22h1v1H250zM254 22h1v1H254zM262 22h1v1H262zM266 22h1v1H266zM268 22h1v1H268zM272 22h1v1H272zM276 22h1v1H276zM281 22h1v1H281zM286 22h1v1H286zM290 22h1v1H290zM295 22h1v1H295zM0 23h1v1H0zM7 23h8v1H7zM20 23h1v1H20zM26 23h1v1H26zM30 23h1v1H30zM106 23h1v1H106zM113 23h3v1H113zM118 23h5v1H118zM124 23h1v1H124zM128 23h1v1H128zM131 23h3v1H131zM136 23h3v1H136zM142 23h5v1H142zM217 23h7v1H217zM228 23h5v1H228zM234 23h1v1H234zM238 23h1v1H238zM241 23h3v1H241zM247 23h3v1H247zM263 23h3v1H263zM269 23h4v1H269zM275 23h3v1H275zM280 23h5v1H280zM286 23h1v1H286zM290 23h1v1H290zM295 23h1v1H295zM0 24h1v1H0zM8 24h6v1H8zM20 24h1v1H20zM22 24h3v1H22zM26 24h5v1H26zM106 24h1v1H106zM295 24h1v1H295zM0 25h1v1H0zM8 25h6v1H8zM20 25h1v1H20zM24 25h1v1H24zM26 25h1v1H26zM30 25h1v1H30zM106 25h1v1H106zM295 25h1v1H295zM0 26h1v1H0zM9 26h1v1H9zM12 26h1v1H12zM20 26h1v1H20zM24 26h1v1H24zM26 26h1v1H26zM30 26h1v1H30zM106 26h1v1H106zM130 26h3v1H130zM134 26h3v1H134zM138 26h3v1H138zM142 26h3v1H142zM146 26h3v1H146zM150 26h3v1H150zM154 26h3v1H154zM158 26h3v1H158zM162 26h3v1H162zM166 26h3v1H166zM170 26h3v1H170zM174 26h3v1H174zM178 26h3v1H178zM182 26h3v1H182zM186 26h3v1H186zM190 26h3v1H190zM194 26h3v1H194zM198 26h3v1H198zM202 26h3v1H202zM206 26h3v1H206zM210 26h3v1H210zM214 26h3v1H214zM218 26h3v1H218zM222 26h3v1H222zM226 26h3v1H226zM230 26h3v1H230zM234 26h3v1H234zM238 26h3v1H238zM242 26h3v1H242zM246 26h3v1H246zM250 26h3v1H250zM254 26h3v1H254zM258 26h3v1H258zM262 26h3v1H262zM295 26h1v1H295zM0 27h1v1H0zM9 27h1v1H9zM12 27h1v1H12zM21 27h4v1H21zM26 27h1v1H26zM30 27h1v1H30zM106 27h1v1H106zM112 27h5v1H112zM118 27h1v1H118zM122 27h1v1H122zM130 27h3v1H130zM134 27h3v1H134zM138 27h3v1H138zM142 27h1v1H142zM144 27h1v1H144zM146 27h1v1H146zM148 27h1v1H148zM150 27h1v1H150zM152 27h1v1H152zM154 27h1v1H154zM156 27h1v1H156zM158 27h1v1H158zM160 27h1v1H160zM162 27h1v1H162zM164 27h1v1H164zM166 27h1v1H166zM168 27h1v1H168zM170 27h1v1H170zM172 27h1v1H172zM174 27h1v1H174zM176 27h1v1H176zM178 27h1v1H178zM180 27h1v1H180zM182 27h1v1H182zM184 27h1v1H184zM186 27h1v1H186zM188 27h1v1H188zM190 27h1v1H190zM192 27h1v1H192zM194 27h1v1H194zM196 27h1v1H196zM198 27h1v1H198zM200 27h1v1H200zM202 27h1v1H202zM204 27h1v1H204zM206 27h1v1H206zM208 27h1v1H208zM210 27h1v1H210zM212 27h1v1H212zM214 27h1v1H214zM216 27h1v1H216zM218 27h1v1H218zM220 27h1v1H220zM222 27h1v1H222zM224 27h1v1H224zM226 27h1v1H226zM228 27h1v1H228zM230 27h1v1H230zM232 27h1v1H232zM234 27h1v1H234zM236 27h1v1H236zM238 27h1v1H238zM240 27h1v1H240zM242 27h1v1H242zM244 27h1v1H244zM246 27h1v1H246zM248 27h1v1H248zM250 27h1v1H250zM252 27h1v1H252zM254 27h1v1H254zM256 27h1v1H256zM258 27h1v1H258zM260 27h1v1H260zM262 27h1v1H262zM264 27h1v1H264zM281 27h3v1H281zM286 27h2v1H286zM295 27h1v1H295zM0 28h1v1H0zM106 28h1v1H106zM112 28h1v1H112zM118 28h1v1H118zM122 28h1v1H122zM130 28h3v1H130zM134 28h3v1H134zM138 28h3v1H138zM142 28h1v1H142zM144 28h1v1H144zM146 28h1v1H146zM148 28h1v1H148zM150 28h1v1H150zM152 28h1v1H152zM154 28h1v1H154zM156 28h1v1H156zM158 28h1v1H158zM160 28h1v1H160zM162 28h1v1H162zM164 28h1v1H164zM166 28h1v1H166zM168 28h1v1H168zM170 28h1v1H170zM172 28h1v1H172zM174 28h1v1H174zM176 28h1v1H176zM178 28h1v1H178zM180 28h1v1H180zM182 28h1v1H182zM184 28h1v1H184zM186 28h1v1H186zM188 28h1v1H188zM190 28h1v1H190zM192 28h1v1H192zM194 28h1v1H194zM196 28h1v1H196zM198 28h1v1H198zM200 28h1v1H200zM202 28h1v1H202zM204 28h1v1H204zM206 28h1v1H206zM208 28h1v1H208zM210 28h1v1H210zM212 28h1v1H212zM214 28h1v1H214zM216 28h1v1H216zM218 28h1v1H218zM220 28h1v1H220zM222 28h1v1H222zM224 28h1v1H224zM226 28h1v1H226zM228 28h1v1H228zM230 28h1v1H230zM232 28h1v1H232zM234 28h1v1H234zM236 28h1v1H236zM238 28h1v1H238zM240 28h1v1H240zM242 28h1v1H242zM244 28h1v1H244zM246 28h1v1H246zM248 28h1v1H248zM250 28h1v1H250zM252 28h1v1H252zM254 28h1v1H254zM256 28h1v1H256zM258 28h1v1H258zM260 28h1v1H260zM262 28h1v1H262zM264 28h1v1H264zM280 28h1v1H280zM284 28h1v1H284zM286 28h2v1H286zM290 28h1v1H290zM295 28h1v1H295zM0 29h1v1H0zM106 29h1v1H106zM112 29h4v1H112zM118 29h1v1H118zM122 29h1v1H122zM130 29h3v1H130zM134 29h3v1H134zM138 29h3v1H138zM142 29h1v1H142zM144 29h1v1H144zM146 29h1v1H146zM148 29h1v1H148zM150 29h1v1H150zM152 29h1v1H152zM154 29h1v1H154zM156 29h1v1H156zM158 29h1v1H158zM160 29h1v1H160zM162 29h1v1H162zM164 29h1v1H164zM166 29h1v1H166zM168 29h1v1H168zM170 29h1v1H170zM172 29h1v1H172zM174 29h1v1H174zM176 29h1v1H176zM178 29h1v1H178zM180 29h1v1H180zM182 29h1v1H182zM184 29h1v1H184zM186 29h1v1H186zM188 29h1v1H188zM190 29h1v1H190zM192 29h1v1H192zM194 29h1v1H194zM196 29h1v1H196zM198 29h1v1H198zM200 29h1v1H200zM202 29h1v1H202zM204 29h1v1H204zM206 29h1v1H206zM208 29h1v1H208zM210 29h1v1H210zM212 29h1v1H212zM214 29h1v1H214zM216 29h1v1H216zM218 29h1v1H218zM220 29h1v1H220zM222 29h1v1H222zM224 29h1v1H224zM226 29h1v1H226zM228 29h1v1H228zM230 29h1v1H230zM232 29h1v1H232zM234 29h1v1H234zM236 29h1v1H236zM238 29h1v1H238zM240 29h1v1H240zM242 29h1v1H242zM244 29h1v1H244zM246 29h1v1H246zM248 29h1v1H248zM250 29h1v1H250zM252 29h1v1H252zM254 29h1v1H254zM256 29h1v1H256zM258 29h1v1H258zM260 29h1v1H260zM262 29h1v1H262zM264 29h1v1H264zM280 29h1v1H280zM284 29h1v1H284zM289 29h1v1H289zM295 29h1v1H295zM0 30h1v1H0zM106 30h1v1H106zM116 30h1v1H116zM118 30h5v1H118zM130 30h3v1H130zM134 30h3v1H134zM138 30h3v1H138zM142 30h1v1H142zM144 30h1v1H144zM146 30h1v1H146zM148 30h1v1H148zM150 30h1v1H150zM152 30h1v1H152zM154 30h1v1H154zM156 30h1v1H156zM158 30h1v1H158zM160 30h1v1H160zM162 30h1v1H162zM164 30h1v1H164zM166 30h1v1H166zM168 30h1v1H168zM170 30h1v1H170zM172 30h1v1H172zM174 30h1v1H174zM176 30h1v1H176zM178 30h1v1H178zM180 30h1v1H180zM182 30h1v1H182zM184 30h1v1H184zM186 30h1v1H186zM188 30h1v1H188zM190 30h1v1H190zM192 30h1v1H192zM194 30h1v1H194zM196 30h1v1H196zM198 30h1v1H198zM200 30h1v1H200zM202 30h1v1H202zM204 30h1v1H204zM206 30h1v1H206zM208 30h1v1H208zM210 30h1v1H210zM212 30h1v1H212zM214 30h1v1H214zM216 30h1v1H216zM218 30h1v1H218zM220 30h1v1H220zM222 30h1v1H222zM224 30h1v1H224zM226 30h1v1H226zM228 30h1v1H228zM230 30h1v1H230zM232 30h1v1H232zM234 30h1v1H234zM236 30h1v1H236zM238 30h1v1H238zM240 30h1v1H240zM242 30h1v1H242zM244 30h1v1H244zM246 30h1v1H246zM248 30h1v1H248zM250 30h1v1H250zM252 30h1v1H252zM254 30h1v1H254zM256 30h1v1H256zM258 30h1v1H258zM260 30h1v1H260zM262 30h1v1H262zM264 30h1v1H264zM281 30h4v1H281zM288 30h1v1H288zM295 30h1v1H295zM0 31h1v1H0zM106 31h1v1H106zM116 31h1v1H116zM118 31h1v1H118zM122 31h1v1H122zM130 31h3v1H130zM134 31h3v1H134zM138 31h3v1H138zM142 31h3v1H142zM146 31h3v1H146zM150 31h3v1H150zM154 31h3v1H154zM158 31h3v1H158zM162 31h3v1H162zM166 31h3v1H166zM170 31h3v1H170zM174 31h3v1H174zM178 31h3v1H178zM182 31h3v1H182zM186 31h3v1H186zM190 31h3v1H190zM194 31h3v1H194zM198 31h3v1H198zM202 31h3v1H202zM206 31h3v1H206zM210 31h3v1H210zM214 31h3v1H214zM218 31h3v1H218zM222 31h3v1H222zM226 31h3v1H226zM230 31h3v1H230zM234 31h3v1H234zM238 31h3v1H238zM242 31h3v1H242zM246 31h3v1H246zM250 31h3v1H250zM254 31h3v1H254zM258 31h3v1H258zM262 31h3v1H262zM284 31h1v1H284zM287 31h1v1H287zM295 31h1v1H295zM0 32h1v1H0zM106 32h1v1H106zM112 32h1v1H112zM116 32h1v1H116zM118 32h1v1H118zM122 32h1v1H122zM283 32h1v1H283zM286 32h1v1H286zM289 32h2v1H289zM295 32h1v1H295zM0 33h1v1H0zM106 33h1v1H106zM113 33h3v1H113zM118 33h1v1H118zM122 33h1v1H122zM281 33h2v1H281zM289 33h2v1H289zM295 33h1v1H295zM0 34h1v1H0zM106 34h1v1H106zM295 34h1v1H295zM0 35h1v1H0zM106 35h1v1H106zM295 35h1v1H295zM0 36h1v1H0zM106 36h1v1H106zM130 36h3v1H130zM134 36h3v1H134zM138 36h3v1H138zM142 36h3v1H142zM146 36h3v1H146zM150 36h3v1H150zM154 36h3v1H154zM158 36h3v1H158zM162 36h3v1H162zM166 36h3v1H166zM170 36h3v1H170zM174 36h3v1H174zM178 36h3v1H178zM182 36h3v1H182zM186 36h3v1H186zM190 36h3v1H190zM194 36h3v1H194zM198 36h3v1H198zM202 36h3v1H202zM206 36h3v1H206zM210 36h3v1H210zM214 36h3v1H214zM218 36h3v1H218zM222 36h3v1H222zM226 36h3v1H226zM230 36h3v1H230zM234 36h3v1H234zM238 36h3v1H238zM242 36h3v1H242zM246 36h3v1H246zM250 36h3v1H250zM254 36h3v1H254zM258 36h3v1H258zM262 36h3v1H262zM295 36h1v1H295zM0 37h1v1H0zM106 37h1v1H106zM112 37h1v1H112zM116 37h1v1H116zM118 37h1v1H118zM122 37h1v1H122zM130 37h3v1H130zM134 37h3v1H134zM138 37h3v1H138zM142 37h3v1H142zM146 37h3v1H146zM150 37h3v1H150zM154 37h3v1H154zM158 37h3v1H158zM162 37h3v1H162zM166 37h3v1H166zM170 37h3v1H170zM174 37h3v1H174zM178 37h3v1H178zM182 37h3v1H182zM186 37h1v1H186zM188 37h1v1H188zM190 37h1v1H190zM192 37h1v1H192zM194 37h1v1H194zM196 37h1v1H196zM198 37h1v1H198zM200 37h1v1H200zM202 37h1v1H202zM204 37h1v1H204zM206 37h1v1H206zM208 37h1v1H208zM210 37h1v1H210zM212 37h1v1H212zM214 37h1v1H214zM216 37h1v1H216zM218 37h1v1H218zM220 37h1v1H220zM222 37h1v1H222zM224 37h1v1H224zM226 37h1v1H226zM228 37h1v1H228zM230 37h1v1H230zM232 37h1v1H232zM234 37h1v1H234zM236 37h1v1H236zM238 37h1v1H238zM240 37h1v1H240zM242 37h1v1H242zM244 37h1v1H244zM246 37h1v1H246zM248 37h1v1H248zM250 37h1v1H250zM252 37h1v1H252zM254 37h1v1H254zM256 37h1v1H256zM258 37h1v1H258zM260 37h1v1H260zM262 37h1v1H262zM264 37h1v1H264zM277 37h1v1H277zM282 37h1v1H282zM286 37h2v1H286zM295 37h1v1H295zM0 38h1v1H0zM106 38h1v1H106zM112 38h1v1H112zM116 38h1v1H116zM118 38h1v1H118zM121 38h1v1H121zM130 38h3v1H130zM134 38h3v1H134zM138 38h3v1H138zM142 38h3v1H142zM146 38h3v1H146zM150 38h3v1H150zM154 38h3v1H154zM158 38h3v1H158zM162 38h3v1H162zM166 38h3v1H166zM170 38h3v1H170zM174 38h3v1H174zM178 38h3v1H178zM182 38h3v1H182zM186 38h1v1H186zM188 38h1v1H188zM190 38h1v1H190zM192 38h1v1H192zM194 38h1v1H194zM196 38h1v1H196zM198 38h1v1H198zM200 38h1v1H200zM202 38h1v1H202zM204 38h1v1H204zM206 38h1v1H206zM208 38h1v1H208zM210 38h1v1H210zM212 38h1v1H212zM214 38h1v1H214zM216 38h1v1H216zM218 38h1v1H218zM220 38h1v1H220zM222 38h1v1H222zM224 38h1v1H224zM226 38h1v1H226zM228 38h1v1H228zM230 38h1v1H230zM232 38h1v1H232zM234 38h1v1H234zM236 38h1v1H236zM238 38h1v1H238zM240 38h1v1H240zM242 38h1v1H242zM244 38h1v1H244zM246 38h1v1H246zM248 38h1v1H248zM250 38h1v1H250zM252 38h1v1H252zM254 38h1v1H254zM256 38h1v1H256zM258 38h1v1H258zM260 38h1v1H260zM262 38h1v1H262zM264 38h1v1H264zM276 38h2v1H276zM281 38h2v1H281zM286 38h2v1H286zM290 38h1v1H290zM295 38h1v1H295zM0 39h1v1H0zM106 39h1v1H106zM112 39h1v1H112zM116 39h1v1H116zM118 39h1v1H118zM120 39h1v1H120zM130 39h3v1H130zM134 39h3v1H134zM138 39h3v1H138zM142 39h3v1H142zM146 39h3v1H146zM150 39h3v1H150zM154 39h3v1H154zM158 39h3v1H158zM162 39h3v1H162zM166 39h3v1H166zM170 39h3v1H170zM174 39h3v1H174zM178 39h3v1H178zM182 39h3v1H182zM186 39h1v1H186zM188 39h1v1H188zM190 39h1v1H190zM192 39h1v1H192zM194 39h1v1H194zM196 39h1v1H196zM198 39h1v1H198zM200 39h1v1H200zM202 39h1v1H202zM204 39h1v1H204zM206 39h1v1H206zM208 39h1v1H208zM210 39h1v1H210zM212 39h1v1H212zM214 39h1v1H214zM216 39h1v1H216zM218 39h1v1H218zM220 39h1v1H220zM222 39h1v1H222zM224 39h1v1H224zM226 39h1v1H226zM228 39h1v1H228zM230 39h1v1H230zM232 39h1v1H232zM234 39h1v1H234zM236 39h1v1H236zM238 39h1v1H238zM240 39h1v1H240zM242 39h1v1H242zM244 39h1v1H244zM246 39h1v1H246zM248 39h1v1H248zM250 39h1v1H250zM252 39h1v1H252zM254 39h1v1H254zM256 39h1v1H256zM258 39h1v1H258zM260 39h1v1H260zM262 39h1v1H262zM264 39h1v1H264zM275 39h1v1H275zM277 39h1v1H277zM282 39h1v1H282zM289 39h1v1H289zM295 39h1v1H295zM0 40h1v1H0zM106 40h1v1H106zM112 40h1v1H112zM114 40h1v1H114zM116 40h1v1H116zM118 40h2v1H118zM130 40h3v1H130zM134 40h3v1H134zM138 40h3v1H138zM142 40h3v1H142zM146 40h3v1H146zM150 40h3v1H150zM154 40h3v1H154zM158 40h3v1H158zM162 40h3v1H162zM166 40h3v1H166zM170 40h3v1H170zM174 40h3v1H174zM178 40h3v1H178zM182 40h3v1H182zM186 40h1v1H186zM188 40h1v1H188zM190 40h1v1H190zM192 40h1v1H192zM194 40h1v1H194zM196 40h1v1H196zM198 40h1v1H198zM200 40h1v1H200zM202 40h1v1H202zM204 40h1v1H204zM206 40h1v1H206zM208 40h1v1H208zM210 40h1v1H210zM212 40h1v1H212zM214 40h1v1H214zM216 40h1v1H216zM218 40h1v1H218zM220 40h1v1H220zM222 40h1v1H222zM224 40h1v1H224zM226 40h1v1H226zM228 40h1v1H228zM230 40h1v1H230zM232 40h1v1H232zM234 40h1v1H234zM236 40h1v1H236zM238 40h1v1H238zM240 40h1v1H240zM242 40h1v1H242zM244 40h1v1H244zM246 40h1v1H246zM248 40h1v1H248zM250 40h1v1H250zM252 40h1v1H252zM254 40h1v1H254zM256 40h1v1H256zM258 40h1v1H258zM260 40h1v1H260zM262 40h1v1H262zM264 40h1v1H264zM274 40h1v1H274zM277 40h1v1H277zM282 40h1v1H282zM288 40h1v1H288zM295 40h1v1H295zM0 41h1v1H0zM106 41h1v1H106zM112 41h1v1H112zM114 41h1v1H114zM116 41h1v1H116zM118 41h1v1H118zM120 41h1v1H120zM130 41h3v1H130zM134 41h3v1H134zM138 41h3v1H138zM142 41h3v1H142zM146 41h3v1H146zM150 41h3v1H150zM154 41h3v1H154zM158 41h3v1H158zM162 41h3v1H162zM166 41h3v1H166zM170 41h3v1H170zM174 41h3v1H174zM178 41h3v1H178zM182 41h3v1H182zM186 41h3v1H186zM190 41h3v1H190zM194 41h3v1H194zM198 41h3v1H198zM202 41h3v1H202zM206 41h3v1H206zM210 41h3v1H210zM214 41h3v1H214zM218 41h3v1H218zM222 41h3v1H222zM226 41h3v1H226zM230 41h3v1H230zM234 41h3v1H234zM238 41h3v1H238zM242 41h3v1H242zM246 41h3v1H246zM250 41h3v1H250zM254 41h3v1H254zM258 41h3v1H258zM262 41h3v1H262zM274 41h5v1H274zM282 41h1v1H282zM287 41h1v1H287zM295 41h1v1H295zM0 42h1v1H0zM106 42h1v1H106zM112 42h1v1H112zM114 42h1v1H114zM116 42h1v1H116zM118 42h1v1H118zM121 42h1v1H121zM277 42h1v1H277zM282 42h1v1H282zM286 42h1v1H286zM289 42h2v1H289zM295 42h1v1H295zM0 43h1v1H0zM106 43h1v1H106zM113 43h1v1H113zM115 43h1v1H115zM118 43h1v1H118zM122 43h1v1H122zM277 43h1v1H277zM281 43h3v1H281zM289 43h2v1H289zM295 43h1v1H295zM0 44h1v1H0zM9 44h4v1H9zM106 44h1v1H106zM295 44h1v1H295zM0 45h1v1H0zM8 45h6v1H8zM23 45h3v1H23zM29 45h4v1H29zM35 45h4v1H35zM92 45h1v1H92zM97 45h3v1H97zM106 45h1v1H106zM113 45h3v1H113zM138 45h3v1H138zM142 45h3v1H142zM146 45h3v1H146zM150 45h3v1H150zM154 45h3v1H154zM158 45h3v1H158zM162 45h3v1H162zM166 45h3v1H166zM170 45h3v1H170zM174 45h3v1H174zM178 45h3v1H178zM182 45h3v1H182zM186 45h3v1H186zM190 45h3v1H190zM194 45h3v1H194zM198 45h3v1H198zM202 45h3v1H202zM206 45h3v1H206zM210 45h3v1H210zM214 45h3v1H214zM218 45h3v1H218zM222 45h3v1H222zM226 45h3v1H226zM230 45h3v1H230zM234 45h3v1H234zM238 45h3v1H238zM242 45h3v1H242zM246 45h3v1H246zM250 45h3v1H250zM254 45h3v1H254zM258 45h3v1H258zM262 45h3v1H262zM295 45h1v1H295zM0 46h1v1H0zM7 46h2v1H7zM13 46h2v1H13zM24 46h1v1H24zM28 46h1v1H28zM34 46h1v1H34zM91 46h2v1H91zM96 46h1v1H96zM100 46h1v1H100zM106 46h1v1H106zM112 46h1v1H112zM138 46h1v1H138zM140 46h1v1H140zM142 46h1v1H142zM144 46h1v1H144zM146 46h1v1H146zM148 46h1v1H148zM150 46h1v1H150zM152 46h1v1H152zM154 46h1v1H154zM156 46h1v1H156zM158 46h1v1H158zM160 46h1v1H160zM162 46h1v1H162zM164 46h1v1H164zM166 46h1v1H166zM168 46h1v1H168zM170 46h1v1H170zM172 46h1v1H172zM174 46h1v1H174zM176 46h1v1H176zM178 46h1v1H178zM180 46h1v1H180zM182 46h1v1H182zM184 46h1v1H184zM186 46h1v1H186zM188 46h1v1H188zM190 46h1v1H190zM192 46h1v1H192zM194 46h1v1H194zM196 46h1v1H196zM198 46h1v1H198zM200 46h1v1H200zM202 46h1v1H202zM204 46h1v1H204zM206 46h1v1H206zM208 46h1v1H208zM210 46h1v1H210zM212 46h1v1H212zM214 46h1v1H214zM216 46h1v1H216zM218 46h1v1H218zM220 46h1v1H220zM222 46h1v1H222zM224 46h1v1H224zM226 46h1v1H226zM228 46h1v1H228zM230 46h1v1H230zM232 46h1v1H232zM234 46h1v1H234zM236 46h1v1H236zM238 46h1v1H238zM240 46h1v1H240zM242 46h1v1H242zM244 46h1v1H244zM246 46h1v1H246zM248 46h1v1H248zM250 46h1v1H250zM252 46h1v1H252zM254 46h1v1H254zM256 46h1v1H256zM258 46h1v1H258zM260 46h1v1H260zM262 46h1v1H262zM264 46h1v1H264zM295 46h1v1H295zM0 47h1v1H0zM7 47h2v1H7zM13 47h2v1H13zM24 47h1v1H24zM28 47h1v1H28zM34 47h1v1H34zM92 47h1v1H92zM100 47h1v1H100zM106 47h1v1H106zM112 47h3v1H112zM138 47h1v1H138zM140 47h1v1H140zM142 47h1v1H142zM144 47h1v1H144zM146 47h1v1H146zM148 47h1v1H148zM150 47h1v1H150zM152 47h1v1H152zM154 47h1v1H154zM156 47h1v1H156zM158 47h1v1H158zM160 47h1v1H160zM162 47h1v1H162zM164 47h1v1H164zM166 47h1v1H166zM168 47h1v1H168zM170 47h1v1H170zM172 47h1v1H172zM174 47h1v1H174zM176 47h1v1H176zM178 47h1v1H178zM180 47h1v1H180zM182 47h1v1H182zM184 47h1v1H184zM186 47h1v1H186zM188 47h1v1H188zM190 47h1v1H190zM192 47h1v1H192zM194 47h1v1H194zM196 47h1v1H196zM198 47h1v1H198zM200 47h1v1H200zM202 47h1v1H202zM204 47h1v1H204zM206 47h1v1H206zM208 47h1v1H208zM210 47h1v1H210zM212 47h1v1H212zM214 47h1v1H214zM216 47h1v1H216zM218 47h1v1H218zM220 47h1v1H220zM222 47h1v1H222zM224 47h1v1H224zM226 47h1v1H226zM228 47h1v1H228zM230 47h1v1H230zM232 47h1v1H232zM234 47h1v1H234zM236 47h1v1H236zM238 47h1v1H238zM240 47h1v1H240zM242 47h1v1H242zM244 47h1v1H244zM246 47h1v1H246zM248 47h1v1H248zM250 47h1v1H250zM252 47h1v1H252zM254 47h1v1H254zM256 47h1v1H256zM258 47h1v1H258zM260 47h1v1H260zM262 47h1v1H262zM264 47h1v1H264zM295 47h1v1H295zM0 48h1v1H0zM7 48h2v1H7zM10 48h2v1H10zM13 48h2v1H13zM24 48h1v1H24zM29 48h3v1H29zM35 48h3v1H35zM92 48h1v1H92zM99 48h1v1H99zM106 48h1v1H106zM112 48h1v1H112zM138 48h1v1H138zM140 48h1v1H140zM142 48h1v1H142zM144 48h1v1H144zM146 48h1v1H146zM148 48h1v1H148zM150 48h1v1H150zM152 48h1v1H152zM154 48h1v1H154zM156 48h1v1H156zM158 48h1v1H158zM160 48h1v1H160zM162 48h1v1H162zM164 48h1v1H164zM166 48h1v1H166zM168 48h1v1H168zM170 48h1v1H170zM172 48h1v1H172zM174 48h1v1H174zM176 48h1v1H176zM178 48h1v1H178zM180 48h1v1H180zM182 48h1v1H182zM184 48h1v1H184zM186 48h1v1H186zM188 48h1v1H188zM190 48h1v1H190zM192 48h1v1H192zM194 48h1v1H194zM196 48h1v1H196zM198 48h1v1H198zM200 48h1v1H200zM202 48h1v1H202zM204 48h1v1H204zM206 48h1v1H206zM208 48h1v1H208zM210 48h1v1H210zM212 48h1v1H212zM214 48h1v1H214zM216 48h1v1H216zM218 48h1v1H218zM220 48h1v1H220zM222 48h1v1H222zM224 48h1v1H224zM226 48h1v1H226zM228 48h1v1H228zM230 48h1v1H230zM232 48h1v1H232zM234 48h1v1H234zM236 48h1v1H236zM238 48h1v1H238zM240 48h1v1H240zM242 48h1v1H242zM244 48h1v1H244zM246 48h1v1H246zM248 48h1v1H248zM250 48h1v1H250zM252 48h1v1H252zM254 48h1v1H254zM256 48h1v1H256zM258 48h1v1H258zM260 48h1v1H260zM262 48h1v1H262zM264 48h1v1H264zM295 48h1v1H295zM0 49h1v1H0zM7 49h2v1H7zM10 49h2v1H10zM13 49h2v1H13zM24 49h1v1H24zM32 49h1v1H32zM38 49h1v1H38zM92 49h1v1H92zM98 49h1v1H98zM106 49h1v1H106zM112 49h3v1H112zM138 49h1v1H138zM140 49h1v1H140zM142 49h1v1H142zM144 49h1v1H144zM146 49h1v1H146zM148 49h1v1H148zM150 49h1v1H150zM152 49h1v1H152zM154 49h1v1H154zM156 49h1v1H156zM158 49h1v1H158zM160 49h1v1H160zM162 49h1v1H162zM164 49h1v1H164zM166 49h1v1H166zM168 49h1v1H168zM170 49h1v1H170zM172 49h1v1H172zM174 49h1v1H174zM176 49h1v1H176zM178 49h1v1H178zM180 49h1v1H180zM182 49h1v1H182zM184 49h1v1H184zM186 49h1v1H186zM188 49h1v1H188zM190 49h1v1H190zM192 49h1v1H192zM194 49h1v1H194zM196 49h1v1H196zM198 49h1v1H198zM200 49h1v1H200zM202 49h1v1H202zM204 49h1v1H204zM206 49h1v1H206zM208 49h1v1H208zM210 49h1v1H210zM212 49h1v1H212zM214 49h1v1H214zM216 49h1v1H216zM218 49h1v1H218zM220 49h1v1H220zM222 49h1v1H222zM224 49h1v1H224zM226 49h1v1H226zM228 49h1v1H228zM230 49h1v1H230zM232 49h1v1H232zM234 49h1v1H234zM236 49h1v1H236zM238 49h1v1H238zM240 49h1v1H240zM242 49h1v1H242zM244 49h1v1H244zM246 49h1v1H246zM248 49h1v1H248zM250 49h1v1H250zM252 49h1v1H252zM254 49h1v1H254zM256 49h1v1H256zM258 49h1v1H258zM260 49h1v1H260zM262 49h1v1H262zM264 49h1v1H264zM295 49h1v1H295zM0 50h1v1H0zM7 50h2v1H7zM13 50h2v1H13zM24 50h1v1H24zM32 50h1v1H32zM38 50h1v1H38zM92 50h1v1H92zM97 50h1v1H97zM106 50h1v1H106zM112 50h1v1H112zM138 50h3v1H138zM142 50h3v1H142zM146 50h3v1H146zM150 50h3v1H150zM154 50h3v1H154zM158 50h3v1H158zM162 50h3v1H162zM166 50h3v1H166zM170 50h3v1H170zM174 50h3v1H174zM178 50h3v1H178zM182 50h3v1H182zM186 50h3v1H186zM190 50h3v1H190zM194 50h3v1H194zM198 50h3v1H198zM202 50h3v1H202zM206 50h3v1H206zM210 50h3v1H210zM214 50h3v1H214zM218 50h3v1H218zM222 50h3v1H222zM226 50h3v1H226zM230 50h3v1H230zM234 50h3v1H234zM238 50h3v1H238zM242 50h3v1H242zM246 50h3v1H246zM250 50h3v1H250zM254 50h3v1H254zM258 50h3v1H258zM262 50h3v1H262zM295 50h1v1H295zM0 51h1v1H0zM7 51h2v1H7zM13 51h2v1H13zM23 51h3v1H23zM28 51h4v1H28zM34 51h4v1H34zM91 51h3v1H91zM96 51h5v1H96zM106 51h1v1H106zM113 51h3v1H113zM295 51h1v1H295zM0 52h1v1H0zM8 52h6v1H8zM106 52h1v1H106zM295 52h1v1H295zM0 53h1v1H0zM9 53h4v1H9zM106 53h1v1H106zM113 53h3v1H113zM119 53h3v1H119zM124 53h3v1H124zM130 53h5v1H130zM136 53h1v1H136zM140 53h1v1H140zM217 53h7v1H217zM230 53h1v1H230zM234 53h1v1H234zM241 53h3v1H241zM247 53h3v1H247zM262 53h5v1H262zM272 53h1v1H272zM276 53h1v1H276zM280 53h5v1H280zM286 53h1v1H286zM295 53h1v1H295zM0 54h1v1H0zM106 54h1v1H106zM112 54h1v1H112zM116 54h1v1H116zM118 54h1v1H118zM122 54h1v1H122zM124 54h1v1H124zM127 54h1v1H127zM130 54h1v1H130zM136 54h1v1H136zM140 54h1v1H140zM218 54h5v1H218zM229 54h2v1H229zM234 54h1v1H234zM240 54h1v1H240zM244 54h1v1H244zM246 54h1v1H246zM250 54h1v1H250zM258 54h1v1H258zM265 54h1v1H265zM272 54h1v1H272zM275 54h2v1H275zM280 54h1v1H280zM286 54h1v1H286zM295 54h1v1H295zM0 55h1v1H0zM106 55h1v1H106zM112 55h1v1H112zM118 55h1v1H118zM122 55h1v1H122zM124 55h1v1H124zM128 55h1v1H128zM130 55h1v1H130zM137 55h1v1H137zM139 55h1v1H139zM219 55h3v1H219zM230 55h1v1H230zM234 55h1v1H234zM236 55h2v1H236zM240 55h1v1H240zM243 55h2v1H243zM246 55h1v1H246zM249 55h2v1H249zM257 55h1v1H257zM264 55h1v1H264zM269 55h2v1H269zM272 55h1v1H272zM276 55h1v1H276zM280 55h4v1H280zM286 55h1v1H286zM288 55h2v1H288zM295 55h1v1H295zM0 56h1v1H0zM106 56h1v1H106zM112 56h1v1H112zM118 56h1v1H118zM122 56h1v1H122zM124 56h1v1H124zM128 56h1v1H128zM130 56h4v1H130zM138 56h1v1H138zM220 56h1v1H220zM230 56h1v1H230zM234 56h2v1H234zM238 56h1v1H238zM240 56h1v1H240zM242 56h1v1H242zM244 56h1v1H244zM246 56h1v1H246zM248 56h1v1H248zM250 56h1v1H250zM256 56h1v1H256zM265 56h1v1H265zM268 56h1v1H268zM271 56h2v1H271zM276 56h1v1H276zM284 56h1v1H284zM286 56h2v1H286zM290 56h1v1H290zM295 56h1v1H295zM0 57h1v1H0zM106 57h1v1H106zM112 57h1v1H112zM118 57h1v1H118zM122 57h1v1H122zM124 57h1v1H124zM128 57h1v1H128zM130 57h1v1H130zM137 57h1v1H137zM139 57h1v1H139zM219 57h3v1H219zM230 57h1v1H230zM234 57h1v1H234zM238 57h1v1H238zM240 57h2v1H240zM244 57h1v1H244zM246 57h2v1H246zM250 57h1v1H250zM255 57h1v1H255zM266 57h1v1H266zM268 57h1v1H268zM272 57h1v1H272zM276 57h1v1H276zM284 57h1v1H284zM286 57h1v1H286zM290 57h1v1H290zM295 57h1v1H295zM0 58h1v1H0zM106 58h1v1H106zM112 58h1v1H112zM116 58h1v1H116zM118 58h1v1H118zM122 58h1v1H122zM124 58h1v1H124zM127 58h1v1H127zM130 58h1v1H130zM136 58h1v1H136zM140 58h1v1H140zM218 58h5v1H218zM230 58h1v1H230zM234 58h1v1H234zM238 58h1v1H238zM240 58h1v1H240zM244 58h1v1H244zM246 58h1v1H246zM250 58h1v1H250zM254 58h1v1H254zM262 58h1v1H262zM266 58h1v1H266zM268 58h1v1H268zM272 58h1v1H272zM276 58h1v1H276zM280 58h1v1H280zM284 58h1v1H284zM286 58h1v1H286zM290 58h1v1H290zM295 58h1v1H295zM0 59h1v1H0zM106 59h1v1H106zM113 59h3v1H113zM119 59h3v1H119zM124 59h3v1H124zM130 59h5v1H130zM136 59h1v1H136zM140 59h1v1H140zM217 59h7v1H217zM229 59h3v1H229zM234 59h1v1H234zM238 59h1v1H238zM241 59h3v1H241zM247 59h3v1H247zM263 59h3v1H263zM269 59h4v1H269zM275 59h3v1H275zM281 59h3v1H281zM286 59h1v1H286zM290 59h1v1H290zM295 59h1v1H295zM0 60h1v1H0zM106 60h1v1H106zM295 60h1v1H295zM0 61h1v1H0zM106 61h1v1H106zM295 61h1v1H295zM0 62h1v1H0zM106 62h1v1H106zM130 62h3v1H130zM134 62h3v1H134zM138 62h3v1H138zM142 62h3v1H142zM146 62h3v1H146zM150 62h3v1H150zM154 62h3v1H154zM158 62h3v1H158zM162 62h3v1H162zM166 62h3v1H166zM170 62h3v1H170zM174 62h3v1H174zM178 62h3v1H178zM182 62h3v1H182zM186 62h3v1H186zM190 62h3v1H190zM194 62h3v1H194zM198 62h3v1H198zM202 62h3v1H202zM206 62h3v1H206zM210 62h3v1H210zM214 62h3v1H214zM218 62h3v1H218zM222 62h3v1H222zM226 62h3v1H226zM230 62h3v1H230zM234 62h3v1H234zM238 62h3v1H238zM242 62h3v1H242zM246 62h3v1H246zM250 62h3v1H250zM254 62h3v1H254zM258 62h3v1H258zM262 62h3v1H262zM295 62h1v1H295zM0 63h1v1H0zM106 63h1v1H106zM112 63h5v1H112zM118 63h1v1H118zM122 63h1v1H122zM130 63h3v1H130zM134 63h3v1H134zM138 63h3v1H138zM142 63h3v1H142zM146 63h3v1H146zM150 63h3v1H150zM154 63h3v1H154zM158 63h3v1H158zM162 63h3v1H162zM166 63h3v1H166zM170 63h3v1H170zM174 63h1v1H174zM176 63h1v1H176zM178 63h1v1H178zM180 63h1v1H180zM182 63h1v1H182zM184 63h1v1H184zM186 63h1v1H186zM188 63h1v1H188zM190 63h1v1H190zM192 63h1v1H192zM194 63h1v1H194zM196 63h1v1H196zM198 63h1v1H198zM200 63h1v1H200zM202 63h1v1H202zM204 63h1v1H204zM206 63h1v1H206zM208 63h1v1H208zM210 63h1v1H210zM212 63h1v1H212zM214 63h1v1H214zM216 63h1v1H216zM218 63h1v1H218zM220 63h1v1H220zM222 63h1v1H222zM224 63h1v1H224zM226 63h1v1H226zM228 63h1v1H228zM230 63h1v1H230zM232 63h1v1H232zM234 63h1v1H234zM236 63h1v1H236zM238 63h1v1H238zM240 63h1v1H240zM242 63h1v1H242zM244 63h1v1H244zM246 63h1v1H246zM248 63h1v1H248zM250 63h1v1H250zM252 63h1v1H252zM254 63h1v1H254zM256 63h1v1H256zM258 63h1v1H258zM260 63h1v1H260zM262 63h1v1H262zM264 63h1v1H264zM274 63h5v1H274zM281 63h3v1H281zM286 63h2v1H286zM295 63h1v1H295zM0 64h1v1H0zM106 64h1v1H106zM112 64h1v1H112zM118 64h1v1H118zM122 64h1v1H122zM130 64h3v1H130zM134 64h3v1H134zM138 64h3v1H138zM142 64h3v1H142zM146 64h3v1H146zM150 64h3v1H150zM154 64h3v1H154zM158 64h3v1H158zM162 64h3v1H162zM166 64h3v1H166zM170 64h3v1H170zM174 64h1v1H174zM176 64h1v1H176zM178 64h1v1H178zM180 64h1v1H180zM182 64h1v1H182zM184 64h1v1H184zM186 64h1v1H186zM188 64h1v1H188zM190 64h1v1H190zM192 64h1v1H192zM194 64h1v1H194zM196 64h1v1H196zM198 64h1v1H198zM200 64h1v1H200zM202 64h1v1H202zM204 64h1v1H204zM206 64h1v1H206zM208 64h1v1H208zM210 64h1v1H210zM212 64h1v1H212zM214 64h1v1H214zM216 64h1v1H216zM218 64h1v1H218zM220 64h1v1H220zM222 64h1v1H222zM224 64h1v1H224zM226 64h1v1H226zM228 64h1v1H228zM230 64h1v1H230zM232 64h1v1H232zM234 64h1v1H234zM236 64h1v1H236zM238 64h1v1H238zM240 64h1v1H240zM242 64h1v1H242zM244 64h1v1H244zM246 64h1v1H246zM248 64h1v1H248zM250 64h1v1H250zM252 64h1v1H252zM254 64h1v1H254zM256 64h1v1H256zM258 64h1v1H258zM260 64h1v1H260zM262 64h1v1H262zM264 64h1v1H264zM277 64h1v1H277zM280 64h1v1H280zM284 64h1v1H284zM286 64h2v1H286zM290 64h1v1H290zM295 64h1v1H295zM0 65h1v1H0zM106 65h1v1H106zM112 65h4v1H112zM118 65h1v1H118zM122 65h1v1H122zM130 65h3v1H130zM134 65h3v1H134zM138 65h3v1H138zM142 65h3v1H142zM146 65h3v1H146zM150 65h3v1H150zM154 65h3v1H154zM158 65h3v1H158zM162 65h3v1H162zM166 65h3v1H166zM170 65h3v1H170zM174 65h1v1H174zM176 65h1v1H176zM178 65h1v1H178zM180 65h1v1H180zM182 65h1v1H182zM184 65h1v1H184zM186 65h1v1H186zM188 65h1v1H188zM190 65h1v1H190zM192 65h1v1H192zM194 65h1v1H194zM196 65h1v1H196zM198 65h1v1H198zM200 65h1v1H200zM202 65h1v1H202zM204 65h1v1H204zM206 65h1v1H206zM208 65h1v1H208zM210 65h1v1H210zM212 65h1v1H212zM214 65h1v1H214zM216 65h1v1H216zM218 65h1v1H218zM220 65h1v1H220zM222 65h1v1H222zM224 65h1v1H224zM226 65h1v1H226zM228 65h1v1H228zM230 65h1v1H230zM232 65h1v1H232zM234 65h1v1H234zM236 65h1v1H236zM238 65h1v1H238zM240 65h1v1H240zM242 65h1v1H242zM244 65h1v1H244zM246 65h1v1H246zM248 65h1v1H248zM250 65h1v1H250zM252 65h1v1H252zM254 65h1v1H254zM256 65h1v1H256zM258 65h1v1H258zM260 65h1v1H260zM262 65h1v1H262zM264 65h1v1H264zM276 65h1v1H276zM284 65h1v1H284zM289 65h1v1H289zM295 65h1v1H295zM0 66h1v1H0zM7 66h2v1H7zM13 66h2v1H13zM106 66h1v1H106zM116 66h1v1H116zM118 66h5v1H118zM130 66h3v1H130zM134 66h3v1H134zM138 66h3v1H138zM142 66h3v1H142zM146 66h3v1H146zM150 66h3v1H150zM154 66h3v1H154zM158 66h3v1H158zM162 66h3v1H162zM166 66h3v1H166zM170 66h3v1H170zM174 66h1v1H174zM176 66h1v1H176zM178 66h1v1H178zM180 66h1v1H180zM182 66h1v1H182zM184 66h1v1H184zM186 66h1v1H186zM188 66h1v1H188zM190 66h1v1H190zM192 66h1v1H192zM194 66h1v1H194zM196 66h1v1H196zM198 66h1v1H198zM200 66h1v1H200zM202 66h1v1H202zM204 66h1v1H204zM206 66h1v1H206zM208 66h1v1H208zM210 66h1v1H210zM212 66h1v1H212zM214 66h1v1H214zM216 66h1v1H216zM218 66h1v1H218zM220 66h1v1H220zM222 66h1v1H222zM224 66h1v1H224zM226 66h1v1H226zM228 66h1v1H228zM230 66h1v1H230zM232 66h1v1H232zM234 66h1v1H234zM236 66h1v1H236zM238 66h1v1H238zM240 66h1v1H240zM242 66h1v1H242zM244 66h1v1H244zM246 66h1v1H246zM248 66h1v1H248zM250 66h1v1H250zM252 66h1v1H252zM254 66h1v1H254zM256 66h1v1H256zM258 66h1v1H258zM260 66h1v1H260zM262 66h1v1H262zM264 66h1v1H264zM277 66h1v1H277zM283 66h1v1H283zM288 66h1v1H288zM295 66h1v1H295zM0 67h1v1H0zM7 67h2v1H7zM13 67h2v1H13zM22 67h4v1H22zM28 67h4v1H28zM99 67h1v1H99zM106 67h1v1H106zM116 67h1v1H116zM118 67h1v1H118zM122 67h1v1H122zM130 67h3v1H130zM134 67h3v1H134zM138 67h3v1H138zM142 67h3v1H142zM146 67h3v1H146zM150 67h3v1H150zM154 67h3v1H154zM158 67h3v1H158zM162 67h3v1H162zM166 67h3v1H166zM170 67h3v1H170zM174 67h3v1H174zM178 67h3v1H178zM182 67h3v1H182zM186 67h3v1H186zM190 67h3v1H190zM194 67h3v1H194zM198 67h3v1H198zM202 67h3v1H202zM206 67h3v1H206zM210 67h3v1H210zM214 67h3v1H214zM218 67h3v1H218zM222 67h3v1H222zM226 67h3v1H226zM230 67h3v1H230zM234 67h3v1H234zM238 67h3v1H238zM242 67h3v1H242zM246 67h3v1H246zM250 67h3v1H250zM254 67h3v1H254zM258 67h3v1H258zM262 67h3v1H262zM278 67h1v1H278zM282 67h1v1H282zM287 67h1v1H287zM295 67h1v1H295zM0 68h1v1H0zM7 68h1v1H7zM14 68h1v1H14zM22 68h1v1H22zM26 68h1v1H26zM28 68h1v1H28zM32 68h1v1H32zM98 68h2v1H98zM106 68h1v1H106zM112 68h1v1H112zM116 68h1v1H116zM118 68h1v1H118zM122 68h1v1H122zM274 68h1v1H274zM278 68h1v1H278zM281 68h1v1H281zM286 68h1v1H286zM289 68h2v1H289zM295 68h1v1H295zM0 69h1v1H0zM7 69h1v1H7zM14 69h1v1H14zM22 69h1v1H22zM26 69h1v1H26zM28 69h1v1H28zM32 69h1v1H32zM97 69h1v1H97zM99 69h1v1H99zM106 69h1v1H106zM113 69h3v1H113zM118 69h1v1H118zM122 69h1v1H122zM275 69h3v1H275zM280 69h5v1H280zM289 69h2v1H289zM295 69h1v1H295zM0 70h1v1H0zM7 70h1v1H7zM10 70h1v1H10zM14 70h1v1H14zM22 70h4v1H22zM28 70h4v1H28zM96 70h1v1H96zM99 70h1v1H99zM106 70h1v1H106zM295 70h1v1H295zM0 71h1v1H0zM7 71h1v1H7zM10 71h4v1H10zM22 71h1v1H22zM28 71h1v1H28zM30 71h1v1H30zM96 71h5v1H96zM106 71h1v1H106zM295 71h1v1H295zM0 72h1v1H0zM7 72h1v1H7zM22 72h1v1H22zM28 72h1v1H28zM31 72h1v1H31zM99 72h1v1H99zM106 72h1v1H106zM130 72h3v1H130zM134 72h3v1H134zM138 72h3v1H138zM142 72h3v1H142zM146 72h3v1H146zM150 72h3v1H150zM154 72h3v1H154zM158 72h3v1H158zM162 72h3v1H162zM166 72h3v1H166zM170 72h3v1H170zM174 72h3v1H174zM178 72h3v1H178zM182 72h3v1H182zM186 72h3v1H186zM190 72h3v1H190zM194 72h3v1H194zM198 72h3v1H198zM202 72h3v1H202zM206 72h3v1H206zM210 72h3v1H210zM214 72h3v1H214zM218 72h3v1H218zM222 72h3v1H222zM226 72h3v1H226zM230 72h3v1H230zM234 72h3v1H234zM238 72h3v1H238zM242 72h3v1H242zM246 72h3v1H246zM250 72h3v1H250zM254 72h3v1H254zM258 72h3v1H258zM262 72h3v1H262zM295 72h1v1H295zM0 73h1v1H0zM7 73h1v1H7zM22 73h1v1H22zM28 73h1v1H28zM32 73h1v1H32zM99 73h1v1H99zM106 73h1v1H106zM112 73h1v1H112zM116 73h1v1H116zM118 73h1v1H118zM122 73h1v1H122zM130 73h3v1H130zM134 73h3v1H134zM138 73h3v1H138zM142 73h3v1H142zM146 73h3v1H146zM150 73h3v1H150zM154 73h3v1H154zM158 73h3v1H158zM162 73h3v1H162zM166 73h3v1H166zM170 73h3v1H170zM174 73h3v1H174zM178 73h3v1H178zM182 73h1v1H182zM184 73h1v1H184zM186 73h1v1H186zM188 73h1v1H188zM190 73h1v1H190zM192 73h1v1H192zM194 73h1v1H194zM196 73h1v1H196zM198 73h1v1H198zM200 73h1v1H200zM202 73h1v1H202zM204 73h1v1H204zM206 73h1v1H206zM208 73h1v1H208zM210 73h1v1H210zM212 73h1v1H212zM214 73h1v1H214zM216 73h1v1H216zM218 73h1v1H218zM220 73h1v1H220zM222 73h1v1H222zM224 73h1v1H224zM226 73h1v1H226zM228 73h1v1H228zM230 73h1v1H230zM232 73h1v1H232zM234 73h1v1H234zM236 73h1v1H236zM238 73h1v1H238zM240 73h1v1H240zM242 73h1v1H242zM244 73h1v1H244zM246 73h1v1H246zM248 73h1v1H248zM250 73h1v1H250zM252 73h1v1H252zM254 73h1v1H254zM256 73h1v1H256zM258 73h1v1H258zM260 73h1v1H260zM262 73h1v1H262zM264 73h1v1H264zM274 73h5v1H274zM281 73h3v1H281zM286 73h2v1H286zM295 73h1v1H295zM0 74h1v1H0zM7 74h2v1H7zM106 74h1v1H106zM112 74h1v1H112zM116 74h1v1H116zM118 74h1v1H118zM121 74h1v1H121zM130 74h3v1H130zM134 74h3v1H134zM138 74h3v1H138zM142 74h3v1H142zM146 74h3v1H146zM150 74h3v1H150zM154 74h3v1H154zM158 74h3v1H158zM162 74h3v1H162zM166 74h3v1H166zM170 74h3v1H170zM174 74h3v1H174zM178 74h3v1H178zM182 74h1v1H182zM184 74h1v1H184zM186 74h1v1H186zM188 74h1v1H188zM190 74h1v1H190zM192 74h1v1H192zM194 74h1v1H194zM196 74h1v1H196zM198 74h1v1H198zM200 74h1v1H200zM202 74h1v1H202zM204 74h1v1H204zM206 74h1v1H206zM208 74h1v1H208zM210 74h1v1H210zM212 74h1v1H212zM214 74h1v1H214zM216 74h1v1H216zM218 74h1v1H218zM220 74h1v1H220zM222 74h1v1H222zM224 74h1v1H224zM226 74h1v1H226zM228 74h1v1H228zM230 74h1v1H230zM232 74h1v1H232zM234 74h1v1H234zM236 74h1v1H236zM238 74h1v1H238zM240 74h1v1H240zM242 74h1v1H242zM244 74h1v1H244zM246 74h1v1H246zM248 74h1v1H248zM250 74h1v1H250zM252 74h1v1H252zM254 74h1v1H254zM256 74h1v1H256zM258 74h1v1H258zM260 74h1v1H260zM262 74h1v1H262zM264 74h1v1H264zM277 74h1v1H277zM280 74h1v1H280zM284 74h1v1H284zM286 74h2v1H286zM290 74h1v1H290zM295 74h1v1H295zM0 75h1v1H0zM7 75h2v1H7zM106 75h1v1H106zM112 75h1v1H112zM116 75h1v1H116zM118 75h1v1H118zM120 75h1v1H120zM130 75h3v1H130zM134 75h3v1H134zM138 75h3v1H138zM142 75h3v1H142zM146 75h3v1H146zM150 75h3v1H150zM154 75h3v1H154zM158 75h3v1H158zM162 75h3v1H162zM166 75h3v1H166zM170 75h3v1H170zM174 75h3v1H174zM178 75h3v1H178zM182 75h1v1H182zM184 75h1v1H184zM186 75h1v1H186zM188 75h1v1H188zM190 75h1v1H190zM192 75h1v1H192zM194 75h1v1H194zM196 75h1v1H196zM198 75h1v1H198zM200 75h1v1H200zM202 75h1v1H202zM204 75h1v1H204zM206 75h1v1H206zM208 75h1v1H208zM210 75h1v1H210zM212 75h1v1H212zM214 75h1v1H214zM216 75h1v1H216zM218 75h1v1H218zM220 75h1v1H220zM222 75h1v1H222zM224 75h1v1H224zM226 75h1v1H226zM228 75h1v1H228zM230 75h1v1H230zM232 75h1v1H232zM234 75h1v1H234zM236 75h1v1H236zM238 75h1v1H238zM240 75h1v1H240zM242 75h1v1H242zM244 75h1v1H244zM246 75h1v1H246zM248 75h1v1H248zM250 75h1v1H250zM252 75h1v1H252zM254 75h1v1H254zM256 75h1v1H256zM258 75h1v1H258zM260 75h1v1H260zM262 75h1v1H262zM264 75h1v1H264zM276 75h1v1H276zM280 75h1v1H280zM284 75h1v1H284zM289 75h1v1H289zM295 75h1v1H295zM0 76h1v1H0zM106 76h1v1H106zM112 76h1v1H112zM114 76h1v1H114zM116 76h1v1H116zM118 76h2v1H118zM130 76h3v1H130zM134 76h3v1H134zM138 76h3v1H138zM142 76h3v1H142zM146 76h3v1H146zM150 76h3v1H150zM154 76h3v1H154zM158 76h3v1H158zM162 76h3v1H162zM166 76h3v1H166zM170 76h3v1H170zM174 76h3v1H174zM178 76h3v1H178zM182 76h1v1H182zM184 76h1v1H184zM186 76h1v1H186zM188 76h1v1H188zM190 76h1v1H190zM192 76h1v1H192zM194 76h1v1H194zM196 76h1v1H196zM198 76h1v1H198zM200 76h1v1H200zM202 76h1v1H202zM204 76h1v1H204zM206 76h1v1H206zM208 76h1v1H208zM210 76h1v1H210zM212 76h1v1H212zM214 76h1v1H214zM216 76h1v1H216zM218 76h1v1H218zM220 76h1v1H220zM222 76h1v1H222zM224 76h1v1H224zM226 76h1v1H226zM228 76h1v1H228zM230 76h1v1H230zM232 76h1v1H232zM234 76h1v1H234zM236 76h1v1H236zM238 76h1v1H238zM240 76h1v1H240zM242 76h1v1H242zM244 76h1v1H244zM246 76h1v1H246zM248 76h1v1H248zM250 76h1v1H250zM252 76h1v1H252zM254 76h1v1H254zM256 76h1v1H256zM258 76h1v1H258zM260 76h1v1H260zM262 76h1v1H262zM264 76h1v1H264zM277 76h1v1H277zM281 76h3v1H281zM288 76h1v1H288zM295 76h1v1H295zM0 77h1v1H0zM106 77h1v1H106zM112 77h1v1H112zM114 77h1v1H114zM116 77h1v1H116zM118 77h1v1H118zM120 77h1v1H120zM130 77h3v1H130zM134 77h3v1H134zM138 77h3v1H138zM142 77h3v1H142zM146 77h3v1H146zM150 77h3v1H150zM154 77h3v1H154zM158 77h3v1H158zM162 77h3v1H162zM166 77h3v1H166zM170 77h3v1H170zM174 77h3v1H174zM178 77h3v1H178zM182 77h3v1H182zM186 77h3v1H186zM190 77h3v1H190zM194 77h3v1H194zM198 77h3v1H198zM202 77h3v1H202zM206 77h3v1H206zM210 77h3v1H210zM214 77h3v1H214zM218 77h3v1H218zM222 77h3v1H222zM226 77h3v1H226zM230 77h3v1H230zM234 77h3v1H234zM238 77h3v1H238zM242 77h3v1H242zM246 77h3v1H246zM250 77h3v1H250zM254 77h3v1H254zM258 77h3v1H258zM262 77h3v1H262zM278 77h1v1H278zM280 77h1v1H280zM284 77h1v1H284zM287 77h1v1H287zM295 77h1v1H295zM0 78h1v1H0zM106 78h1v1H106zM112 78h1v1H112zM114 78h1v1H114zM116 78h1v1H116zM118 78h1v1H118zM121 78h1v1H121zM274 78h1v1H274zM278 78h1v1H278zM280 78h1v1H280zM284 78h1v1H284zM286 78h1v1H286zM289 78h2v1H289zM295 78h1v1H295zM0 79h1v1H0zM106 79h1v1H106zM113 79h1v1H113zM115 79h1v1H115zM118 79h1v1H118zM122 79h1v1H122zM275 79h3v1H275zM281 79h3v1H281zM289 79h2v1H289zM295 79h1v1H295zM0 80h1v1H0zM106 80h1v1H106zM295 80h1v1H295zM0 81h1v1H0zM106 81h1v1H106zM114 81h1v1H114zM134 81h3v1H134zM138 81h3v1H138zM142 81h3v1H142zM146 81h3v1H146zM150 81h3v1H150zM154 81h3v1H154zM158 81h3v1H158zM162 81h3v1H162zM166 81h3v1H166zM170 81h3v1H170zM174 81h3v1H174zM178 81h3v1H178zM182 81h3v1H182zM186 81h3v1H186zM190 81h3v1H190zM194 81h3v1H194zM198 81h3v1H198zM202 81h3v1H202zM206 81h3v1H206zM210 81h3v1H210zM214 81h3v1H214zM218 81h3v1H218zM222 81h3v1H222zM226 81h3v1H226zM230 81h3v1H230zM234 81h3v1H234zM238 81h3v1H238zM242 81h3v1H242zM246 81h3v1H246zM250 81h3v1H250zM254 81h3v1H254zM258 81h3v1H258zM262 81h3v1H262zM295 81h1v1H295zM0 82h1v1H0zM106 82h1v1H106zM113 82h4v1H113zM134 82h1v1H134zM136 82h1v1H136zM138 82h1v1H138zM140 82h1v1H140zM142 82h1v1H142zM144 82h1v1H144zM146 82h1v1H146zM148 82h1v1H148zM150 82h1v1H150zM152 82h1v1H152zM154 82h1v1H154zM156 82h1v1H156zM158 82h1v1H158zM160 82h1v1H160zM162 82h1v1H162zM164 82h1v1H164zM166 82h1v1H166zM168 82h1v1H168zM170 82h1v1H170zM172 82h1v1H172zM174 82h1v1H174zM176 82h1v1H176zM178 82h1v1H178zM180 82h1v1H180zM182 82h1v1H182zM184 82h1v1H184zM186 82h1v1H186zM188 82h1v1H188zM190 82h1v1H190zM192 82h1v1H192zM194 82h1v1H194zM196 82h1v1H196zM198 82h1v1H198zM200 82h1v1H200zM202 82h1v1H202zM204 82h1v1H204zM206 82h1v1H206zM208 82h1v1H208zM210 82h1v1H210zM212 82h1v1H212zM214 82h1v1H214zM216 82h1v1H216zM218 82h1v1H218zM220 82h1v1H220zM222 82h1v1H222zM224 82h1v1H224zM226 82h1v1H226zM228 82h1v1H228zM230 82h1v1H230zM232 82h1v1H232zM234 82h1v1H234zM236 82h1v1H236zM238 82h1v1H238zM240 82h1v1H240zM242 82h1v1H242zM244 82h1v1H244zM246 82h1v1H246zM248 82h1v1H248zM250 82h1v1H250zM252 82h1v1H252zM254 82h1v1H254zM256 82h1v1H256zM258 82h1v1H258zM260 82h1v1H260zM262 82h1v1H262zM264 82h1v1H264zM295 82h1v1H295zM0 83h1v1H0zM106 83h1v1H106zM112 83h1v1H112zM114 83h1v1H114zM134 83h1v1H134zM136 83h1v1H136zM138 83h1v1H138zM140 83h1v1H140zM142 83h1v1H142zM144 83h1v1H144zM146 83h1v1H146zM148 83h1v1H148zM150 83h1v1H150zM152 83h1v1H152zM154 83h1v1H154zM156 83h1v1H156zM158 83h1v1H158zM160 83h1v1H160zM162 83h1v1H162zM164 83h1v1H164zM166 83h1v1H166zM168 83h1v1H168zM170 83h1v1H170zM172 83h1v1H172zM174 83h1v1H174zM176 83h1v1H176zM178 83h1v1H178zM180 83h1v1H180zM182 83h1v1H182zM184 83h1v1H184zM186 83h1v1H186zM188 83h1v1H188zM190 83h1v1H190zM192 83h1v1H192zM194 83h1v1H194zM196 83h1v1H196zM198 83h1v1H198zM200 83h1v1H200zM202 83h1v1H202zM204 83h1v1H204zM206 83h1v1H206zM208 83h1v1H208zM210 83h1v1H210zM212 83h1v1H212zM214 83h1v1H214zM216 83h1v1H216zM218 83h1v1H218zM220 83h1v1H220zM222 83h1v1H222zM224 83h1v1H224zM226 83h1v1H226zM228 83h1v1H228zM230 83h1v1H230zM232 83h1v1H232zM234 83h1v1H234zM236 83h1v1H236zM238 83h1v1H238zM240 83h1v1H240zM242 83h1v1H242zM244 83h1v1H244zM246 83h1v1H246zM248 83h1v1H248zM250 83h1v1H250zM252 83h1v1H252zM254 83h1v1H254zM256 83h1v1H256zM258 83h1v1H258zM260 83h1v1H260zM262 83h1v1H262zM264 83h1v1H264zM295 83h1v1H295zM0 84h1v1H0zM106 84h1v1H106zM113 84h3v1H113zM134 84h1v1H134zM136 84h1v1H136zM138 84h1v1H138zM140 84h1v1H140zM142 84h1v1H142zM144 84h1v1H144zM146 84h1v1H146zM148 84h1v1H148zM150 84h1v1H150zM152 84h1v1H152zM154 84h1v1H154zM156 84h1v1H156zM158 84h1v1H158zM160 84h1v1H160zM162 84h1v1H162zM164 84h1v1H164zM166 84h1v1H166zM168 84h1v1H168zM170 84h1v1H170zM172 84h1v1H172zM174 84h1v1H174zM176 84h1v1H176zM178 84h1v1H178zM180 84h1v1H180zM182 84h1v1H182zM184 84h1v1H184zM186 84h1v1H186zM188 84h1v1H188zM190 84h1v1H190zM192 84h1v1H192zM194 84h1v1H194zM196 84h1v1H196zM198 84h1v1H198zM200 84h1v1H200zM202 84h1v1H202zM204 84h1v1H204zM206 84h1v1H206zM208 84h1v1H208zM210 84h1v1H210zM212 84h1v1H212zM214 84h1v1H214zM216 84h1v1H216zM218 84h1v1H218zM220 84h1v1H220zM222 84h1v1H222zM224 84h1v1H224zM226 84h1v1H226zM228 84h1v1H228zM230 84h1v1H230zM232 84h1v1H232zM234 84h1v1H234zM236 84h1v1H236zM238 84h1v1H238zM240 84h1v1H240zM242 84h1v1H242zM244 84h1v1H244zM246 84h1v1H246zM248 84h1v1H248zM250 84h1v1H250zM252 84h1v1H252zM254 84h1v1H254zM256 84h1v1H256zM258 84h1v1H258zM260 84h1v1H260zM262 84h1v1H262zM264 84h1v1H264zM295 84h1v1H295zM0 85h1v1H0zM106 85h1v1H106zM114 85h1v1H114zM116 85h1v1H116zM134 85h1v1H134zM136 85h1v1H136zM138 85h1v1H138zM140 85h1v1H140zM142 85h1v1H142zM144 85h1v1H144zM146 85h1v1H146zM148 85h1v1H148zM150 85h1v1H150zM152 85h1v1H152zM154 85h1v1H154zM156 85h1v1H156zM158 85h1v1H158zM160 85h1v1H160zM162 85h1v1H162zM164 85h1v1H164zM166 85h1v1H166zM168 85h1v1H168zM170 85h1v1H170zM172 85h1v1H172zM174 85h1v1H174zM176 85h1v1H176zM178 85h1v1H178zM180 85h1v1H180zM182 85h1v1H182zM184 85h1v1H184zM186 85h1v1H186zM188 85h1v1H188zM190 85h1v1H190zM192 85h1v1H192zM194 85h1v1H194zM196 85h1v1H196zM198 85h1v1H198zM200 85h1v1H200zM202 85h1v1H202zM204 85h1v1H204zM206 85h1v1H206zM208 85h1v1H208zM210 85h1v1H210zM212 85h1v1H212zM214 85h1v1H214zM216 85h1v1H216zM218 85h1v1H218zM220 85h1v1H220zM222 85h1v1H222zM224 85h1v1H224zM226 85h1v1H226zM228 85h1v1H228zM230 85h1v1H230zM232 85h1v1H232zM234 85h1v1H234zM236 85h1v1H236zM238 85h1v1H238zM240 85h1v1H240zM242 85h1v1H242zM244 85h1v1H244zM246 85h1v1H246zM248 85h1v1H248zM250 85h1v1H250zM252 85h1v1H252zM254 85h1v1H254zM256 85h1v1H256zM258 85h1v1H258zM260 85h1v1H260zM262 85h1v1H262zM264 85h1v1H264zM295 85h1v1H295zM0 86h1v1H0zM106 86h1v1H106zM112 86h4v1H112zM134 86h3v1H134zM138 86h3v1H138zM142 86h3v1H142zM146 86h3v1H146zM150 86h3v1H150zM154 86h3v1H154zM158 86h3v1H158zM162 86h3v1H162zM166 86h3v1H166zM170 86h3v1H170zM174 86h3v1H174zM178 86h3v1H178zM182 86h3v1H182zM186 86h3v1H186zM190 86h3v1H190zM194 86h3v1H194zM198 86h3v1H198zM202 86h3v1H202zM206 86h3v1H206zM210 86h3v1H210zM214 86h3v1H214zM218 86h3v1H218zM222 86h3v1H222zM226 86h3v1H226zM230 86h3v1H230zM234 86h3v1H234zM238 86h3v1H238zM242 86h3v1H242zM246 86h3v1H246zM250 86h3v1H250zM254 86h3v1H254zM258 86h3v1H258zM262 86h3v1H262zM295 86h1v1H295zM0 87h1v1H0zM106 87h1v1H106zM114 87h1v1H114zM295 87h1v1H295zM0 88h1v1H0zM106 88h1v1H106zM295 88h1v1H295zM0 89h1v1H0zM7 89h8v1H7zM23 89h3v1H23zM28 89h1v1H28zM32 89h1v1H32zM34 89h4v1H34zM41 89h3v1H41zM46 89h1v1H46zM50 89h1v1H50zM98 89h1v1H98zM106 89h1v1H106zM113 89h3v1H113zM119 89h3v1H119zM124 89h1v1H124zM128 89h1v1H128zM217 89h7v1H217zM229 89h3v1H229zM234 89h1v1H234zM241 89h3v1H241zM247 89h3v1H247zM264 89h1v1H264zM272 89h1v1H272zM281 89h3v1H281zM286 89h1v1H286zM295 89h1v1H295zM0 90h1v1H0zM6 90h1v1H6zM15 90h1v1H15zM24 90h1v1H24zM28 90h1v1H28zM32 90h1v1H32zM34 90h1v1H34zM38 90h1v1H38zM40 90h1v1H40zM44 90h1v1H44zM46 90h1v1H46zM50 90h1v1H50zM97 90h2v1H97zM106 90h1v1H106zM112 90h1v1H112zM116 90h1v1H116zM118 90h1v1H118zM122 90h1v1H122zM124 90h1v1H124zM128 90h1v1H128zM218 90h5v1H218zM228 90h1v1H228zM232 90h1v1H232zM234 90h1v1H234zM240 90h1v1H240zM244 90h1v1H244zM246 90h1v1H246zM250 90h1v1H250zM258 90h1v1H258zM263 90h2v1H263zM272 90h1v1H272zM280 90h1v1H280zM284 90h1v1H284zM286 90h1v1H286zM295 90h1v1H295zM0 91h1v1H0zM6 91h1v1H6zM15 91h1v1H15zM24 91h1v1H24zM28 91h2v1H28zM32 91h1v1H32zM34 91h1v1H34zM38 91h1v1H38zM40 91h1v1H40zM44 91h1v1H44zM47 91h1v1H47zM49 91h1v1H49zM98 91h1v1H98zM106 91h1v1H106zM112 91h1v1H112zM116 91h1v1H116zM118 91h1v1H118zM124 91h1v1H124zM128 91h1v1H128zM219 91h3v1H219zM232 91h1v1H232zM234 91h1v1H234zM236 91h2v1H236zM240 91h1v1H240zM243 91h2v1H243zM246 91h1v1H246zM249 91h2v1H249zM257 91h1v1H257zM264 91h1v1H264zM269 91h2v1H269zM272 91h1v1H272zM280 91h1v1H280zM283 91h2v1H283zM286 91h1v1H286zM288 91h2v1H288zM295 91h1v1H295zM0 92h1v1H0zM6 92h1v1H6zM15 92h1v1H15zM24 92h1v1H24zM28 92h1v1H28zM30 92h1v1H30zM32 92h1v1H32zM34 92h4v1H34zM40 92h1v1H40zM44 92h1v1H44zM48 92h1v1H48zM98 92h1v1H98zM106 92h1v1H106zM112 92h1v1H112zM116 92h1v1H116zM118 92h1v1H118zM120 92h3v1H120zM125 92h1v1H125zM127 92h1v1H127zM220 92h1v1H220zM231 92h1v1H231zM234 92h2v1H234zM238 92h1v1H238zM240 92h1v1H240zM242 92h1v1H242zM244 92h1v1H244zM246 92h1v1H246zM248 92h1v1H248zM250 92h1v1H250zM256 92h1v1H256zM264 92h1v1H264zM268 92h1v1H268zM271 92h2v1H271zM280 92h1v1H280zM282 92h1v1H282zM284 92h1v1H284zM286 92h2v1H286zM290 92h1v1H290zM295 92h1v1H295zM0 93h1v1H0zM6 93h1v1H6zM8 93h2v1H8zM12 93h2v1H12zM15 93h1v1H15zM24 93h1v1H24zM28 93h1v1H28zM31 93h2v1H31zM34 93h1v1H34zM38 93h1v1H38zM40 93h1v1H40zM44 93h1v1H44zM47 93h1v1H47zM49 93h1v1H49zM98 93h1v1H98zM106 93h1v1H106zM112 93h5v1H112zM118 93h1v1H118zM122 93h1v1H122zM126 93h1v1H126zM219 93h3v1H219zM230 93h1v1H230zM234 93h1v1H234zM238 93h1v1H238zM240 93h2v1H240zM244 93h1v1H244zM246 93h2v1H246zM250 93h1v1H250zM255 93h1v1H255zM264 93h1v1H264zM268 93h1v1H268zM272 93h1v1H272zM280 93h2v1H280zM284 93h1v1H284zM286 93h1v1H286zM290 93h1v1H290zM295 93h1v1H295zM0 94h1v1H0zM6 94h1v1H6zM10 94h2v1H10zM15 94h1v1H15zM24 94h1v1H24zM28 94h1v1H28zM32 94h1v1H32zM34 94h1v1H34zM38 94h1v1H38zM40 94h1v1H40zM44 94h1v1H44zM46 94h1v1H46zM50 94h1v1H50zM98 94h1v1H98zM106 94h1v1H106zM112 94h1v1H112zM116 94h1v1H116zM118 94h1v1H118zM122 94h1v1H122zM126 94h1v1H126zM218 94h5v1H218zM229 94h1v1H229zM234 94h1v1H234zM238 94h1v1H238zM240 94h1v1H240zM244 94h1v1H244zM246 94h1v1H246zM250 94h1v1H250zM254 94h1v1H254zM264 94h1v1H264zM268 94h1v1H268zM272 94h1v1H272zM280 94h1v1H280zM284 94h1v1H284zM286 94h1v1H286zM290 94h1v1H290zM295 94h1v1H295zM0 95h1v1H0zM6 95h10v1H6zM23 95h3v1H23zM28 95h1v1H28zM32 95h1v1H32zM34 95h4v1H34zM41 95h3v1H41zM46 95h1v1H46zM50 95h1v1H50zM97 95h3v1H97zM106 95h1v1H106zM112 95h1v1H112zM116 95h1v1H116zM119 95h4v1H119zM126 95h1v1H126zM217 95h7v1H217zM228 95h5v1H228zM234 95h1v1H234zM238 95h1v1H238zM241 95h3v1H241zM247 95h3v1H247zM263 95h3v1H263zM269 95h4v1H269zM281 95h3v1H281zM286 95h1v1H286zM290 95h1v1H290zM295 95h1v1H295zM0 96h1v1H0zM106 96h1v1H106zM295 96h1v1H295zM0 97h1v1H0zM106 97h1v1H106zM295 97h1v1H295zM0 98h1v1H0zM106 98h1v1H106zM130 98h3v1H130zM134 98h3v1H134zM138 98h3v1H138zM142 98h3v1H142zM146 98h3v1H146zM150 98h3v1H150zM154 98h3v1H154zM158 98h3v1H158zM162 98h3v1H162zM166 98h3v1H166zM170 98h3v1H170zM174 98h3v1H174zM178 98h3v1H178zM182 98h3v1H182zM186 98h3v1H186zM190 98h3v1H190zM194 98h3v1H194zM198 98h3v1H198zM202 98h3v1H202zM206 98h3v1H206zM210 98h3v1H210zM214 98h3v1H214zM218 98h3v1H218zM222 98h3v1H222zM226 98h3v1H226zM230 98h3v1H230zM234 98h3v1H234zM238 98h3v1H238zM242 98h3v1H242zM246 98h3v1H246zM250 98h3v1H250zM254 98h3v1H254zM258 98h3v1H258zM262 98h3v1H262zM295 98h1v1H295zM0 99h1v1H0zM106 99h1v1H106zM112 99h5v1H112zM118 99h1v1H118zM122 99h1v1H122zM130 99h3v1H130zM134 99h3v1H134zM138 99h3v1H138zM142 99h3v1H142zM146 99h3v1H146zM150 99h3v1H150zM154 99h3v1H154zM158 99h3v1H158zM162 99h3v1H162zM166 99h3v1H166zM170 99h3v1H170zM174 99h3v1H174zM178 99h3v1H178zM182 99h3v1H182zM186 99h3v1H186zM190 99h1v1H190zM192 99h1v1H192zM194 99h1v1H194zM196 99h1v1H196zM198 99h1v1H198zM200 99h1v1H200zM202 99h1v1H202zM204 99h1v1H204zM206 99h1v1H206zM208 99h1v1H208zM210 99h1v1H210zM212 99h1v1H212zM214 99h1v1H214zM216 99h1v1H216zM218 99h1v1H218zM220 99h1v1H220zM222 99h1v1H222zM224 99h1v1H224zM226 99h1v1H226zM228 99h1v1H228zM230 99h1v1H230zM232 99h1v1H232zM234 99h1v1H234zM236 99h1v1H236zM238 99h1v1H238zM240 99h1v1H240zM242 99h1v1H242zM244 99h1v1H244zM246 99h1v1H246zM248 99h1v1H248zM250 99h1v1H250zM252 99h1v1H252zM254 99h1v1H254zM256 99h1v1H256zM258 99h1v1H258zM260 99h1v1H260zM262 99h1v1H262zM264 99h1v1H264zM277 99h1v1H277zM280 99h5v1H280zM286 99h2v1H286zM295 99h1v1H295zM0 100h1v1H0zM106 100h1v1H106zM112 100h1v1H112zM118 100h1v1H118zM122 100h1v1H122zM130 100h3v1H130zM134 100h3v1H134zM138 100h3v1H138zM142 100h3v1H142zM146 100h3v1H146zM150 100h3v1H150zM154 100h3v1H154zM158 100h3v1H158zM162 100h3v1H162zM166 100h3v1H166zM170 100h3v1H170zM174 100h3v1H174zM178 100h3v1H178zM182 100h3v1H182zM186 100h3v1H186zM190 100h1v1H190zM192 100h1v1H192zM194 100h1v1H194zM196 100h1v1H196zM198 100h1v1H198zM200 100h1v1H200zM202 100h1v1H202zM204 100h1v1H204zM206 100h1v1H206zM208 100h1v1H208zM210 100h1v1H210zM212 100h1v1H212zM214 100h1v1H214zM216 100h1v1H216zM218 100h1v1H218zM220 100h1v1H220zM222 100h1v1H222zM224 100h1v1H224zM226 100h1v1H226zM228 100h1v1H228zM230 100h1v1H230zM232 100h1v1H232zM234 100h1v1H234zM236 100h1v1H236zM238 100h1v1H238zM240 100h1v1H240zM242 100h1v1H242zM244 100h1v1H244zM246 100h1v1H246zM248 100h1v1H248zM250 100h1v1H250zM252 100h1v1H252zM254 100h1v1H254zM256 100h1v1H256zM258 100h1v1H258zM260 100h1v1H260zM262 100h1v1H262zM264 100h1v1H264zM276 100h2v1H276zM280 100h1v1H280zM286 100h2v1H286zM290 100h1v1H290zM295 100h1v1H295zM0 101h1v1H0zM106 101h1v1H106zM112 101h4v1H112zM118 101h1v1H118zM122 101h1v1H122zM130 101h3v1H130zM134 101h3v1H134zM138 101h3v1H138zM142 101h3v1H142zM146 101h3v1H146zM150 101h3v1H150zM154 101h3v1H154zM158 101h3v1H158zM162 101h3v1H162zM166 101h3v1H166zM170 101h3v1H170zM174 101h3v1H174zM178 101h3v1H178zM182 101h3v1H182zM186 101h3v1H186zM190 101h1v1H190zM192 101h1v1H192zM194 101h1v1H194zM196 101h1v1H196zM198 101h1v1H198zM200 101h1v1H200zM202 101h1v1H202zM204 101h1v1H204zM206 101h1v1H206zM208 101h1v1H208zM210 101h1v1H210zM212 101h1v1H212zM214 101h1v1H214zM216 101h1v1H216zM218 101h1v1H218zM220 101h1v1H220zM222 101h1v1H222zM224 101h1v1H224zM226 101h1v1H226zM228 101h1v1H228zM230 101h1v1H230zM232 101h1v1H232zM234 101h1v1H234zM236 101h1v1H236zM238 101h1v1H238zM240 101h1v1H240zM242 101h1v1H242zM244 101h1v1H244zM246 101h1v1H246zM248 101h1v1H248zM250 101h1v1H250zM252 101h1v1H252zM254 101h1v1H254zM256 101h1v1H256zM258 101h1v1H258zM260 101h1v1H260zM262 101h1v1H262zM264 101h1v1H264zM275 101h1v1H275zM277 101h1v1H277zM280 101h4v1H280zM289 101h1v1H289zM295 101h1v1H295zM0 102h1v1H0zM106 102h1v1H106zM116 102h1v1H116zM118 102h5v1H118zM130 102h3v1H130zM134 102h3v1H134zM138 102h3v1H138zM142 102h3v1H142zM146 102h3v1H146zM150 102h3v1H150zM154 102h3v1H154zM158 102h3v1H158zM162 102h3v1H162zM166 102h3v1H166zM170 102h3v1H170zM174 102h3v1H174zM178 102h3v1H178zM182 102h3v1H182zM186 102h3v1H186zM190 102h1v1H190zM192 102h1v1H192zM194 102h1v1H194zM196 102h1v1H196zM198 102h1v1H198zM200 102h1v1H200zM202 102h1v1H202zM204 102h1v1H204zM206 102h1v1H206zM208 102h1v1H208zM210 102h1v1H210zM212 102h1v1H212zM214 102h1v1H214zM216 102h1v1H216zM218 102h1v1H218zM220 102h1v1H220zM222 102h1v1H222zM224 102h1v1H224zM226 102h1v1H226zM228 102h1v1H228zM230 102h1v1H230zM232 102h1v1H232zM234 102h1v1H234zM236 102h1v1H236zM238 102h1v1H238zM240 102h1v1H240zM242 102h1v1H242zM244 102h1v1H244zM246 102h1v1H246zM248 102h1v1H248zM250 102h1v1H250zM252 102h1v1H252zM254 102h1v1H254zM256 102h1v1H256zM258 102h1v1H258zM260 102h1v1H260zM262 102h1v1H262zM264 102h1v1H264zM274 102h1v1H274zM277 102h1v1H277zM284 102h1v1H284zM288 102h1v1H288zM295 102h1v1H295zM0 103h1v1H0zM106 103h1v1H106zM116 103h1v1H116zM118 103h1v1H118zM122 103h1v1H122zM130 103h3v1H130zM134 103h3v1H134zM138 103h3v1H138zM142 103h3v1H142zM146 103h3v1H146zM150 103h3v1H150zM154 103h3v1H154zM158 103h3v1H158zM162 103h3v1H162zM166 103h3v1H166zM170 103h3v1H170zM174 103h3v1H174zM178 103h3v1H178zM182 103h3v1H182zM186 103h3v1H186zM190 103h3v1H190zM194 103h3v1H194zM198 103h3v1H198zM202 103h3v1H202zM206 103h3v1H206zM210 103h3v1H210zM214 103h3v1H214zM218 103h3v1H218zM222 103h3v1H222zM226 103h3v1H226zM230 103h3v1H230zM234 103h3v1H234zM238 103h3v1H238zM242 103h3v1H242zM246 103h3v1H246zM250 103h3v1H250zM254 103h3v1H254zM258 103h3v1H258zM262 103h3v1H262zM274 103h5v1H274zM284 103h1v1H284zM287 103h1v1H287zM295 103h1v1H295zM0 104h1v1H0zM106 104h1v1H106zM112 104h1v1H112zM116 104h1v1H116zM118 104h1v1H118zM122 104h1v1H122zM277 104h1v1H277zM280 104h1v1H280zM284 104h1v1H284zM286 104h1v1H286zM289 104h2v1H289zM295 104h1v1H295zM0 105h1v1H0zM106 105h1v1H106zM113 105h3v1H113zM118 105h1v1H118zM122 105h1v1H122zM277 105h1v1H277zM281 105h3v1H281zM289 105h2v1H289zM295 105h1v1H295zM0 106h1v1H0zM106 106h1v1H106zM295 106h1v1H295zM0 107h1v1H0zM106 107h1v1H106zM295 107h1v1H295zM0 108h1v1H0zM106 108h1v1H106zM130 108h3v1H130zM134 108h3v1H134zM138 108h3v1H138zM142 108h3v1H142zM146 108h3v1H146zM150 108h3v1H150zM154 108h3v1H154zM158 108h3v1H158zM162 108h3v1H162zM166 108h3v1H166zM170 108h3v1H170zM174 108h3v1H174zM178 108h3v1H178zM182 108h3v1H182zM186 108h3v1H186zM190 108h3v1H190zM194 108h3v1H194zM198 108h3v1H198zM202 108h3v1H202zM206 108h3v1H206zM210 108h3v1H210zM214 108h3v1H214zM218 108h3v1H218zM222 108h3v1H222zM226 108h3v1H226zM230 108h3v1H230zM234 108h3v1H234zM238 108h3v1H238zM242 108h3v1H242zM246 108h3v1H246zM250 108h3v1H250zM254 108h3v1H254zM258 108h3v1H258zM262 108h3v1H262zM295 108h1v1H295zM0 109h1v1H0zM106 109h1v1H106zM112 109h1v1H112zM116 109h1v1H116zM118 109h1v1H118zM122 109h1v1H122zM130 109h3v1H130zM134 109h3v1H134zM138 109h3v1H138zM142 109h3v1H142zM146 109h1v1H146zM148 109h1v1H148zM150 109h1v1H150zM152 109h1v1H152zM154 109h1v1H154zM156 109h1v1H156zM158 109h1v1H158zM160 109h1v1H160zM162 109h1v1H162zM164 109h1v1H164zM166 109h1v1H166zM168 109h1v1H168zM170 109h1v1H170zM172 109h1v1H172zM174 109h1v1H174zM176 109h1v1H176zM178 109h1v1H178zM180 109h1v1H180zM182 109h1v1H182zM184 109h1v1H184zM186 109h1v1H186zM188 109h1v1H188zM190 109h1v1H190zM192 109h1v1H192zM194 109h1v1H194zM196 109h1v1H196zM198 109h1v1H198zM200 109h1v1H200zM202 109h1v1H202zM204 109h1v1H204zM206 109h1v1H206zM208 109h1v1H208zM210 109h1v1H210zM212 109h1v1H212zM214 109h1v1H214zM216 109h1v1H216zM218 109h1v1H218zM220 109h1v1H220zM222 109h1v1H222zM224 109h1v1H224zM226 109h1v1H226zM228 109h1v1H228zM230 109h1v1H230zM232 109h1v1H232zM234 109h1v1H234zM236 109h1v1H236zM238 109h1v1H238zM240 109h1v1H240zM242 109h1v1H242zM244 109h1v1H244zM246 109h1v1H246zM248 109h1v1H248zM250 109h1v1H250zM252 109h1v1H252zM254 109h1v1H254zM256 109h1v1H256zM258 109h1v1H258zM260 109h1v1H260zM262 109h1v1H262zM264 109h1v1H264zM276 109h1v1H276zM281 109h3v1H281zM286 109h2v1H286zM295 109h1v1H295zM0 110h1v1H0zM8 110h6v1H8zM106 110h1v1H106zM112 110h1v1H112zM116 110h1v1H116zM118 110h1v1H118zM121 110h1v1H121zM130 110h3v1H130zM134 110h3v1H134zM138 110h3v1H138zM142 110h3v1H142zM146 110h1v1H146zM148 110h1v1H148zM150 110h1v1H150zM152 110h1v1H152zM154 110h1v1H154zM156 110h1v1H156zM158 110h1v1H158zM160 110h1v1H160zM162 110h1v1H162zM164 110h1v1H164zM166 110h1v1H166zM168 110h1v1H168zM170 110h1v1H170zM172 110h1v1H172zM174 110h1v1H174zM176 110h1v1H176zM178 110h1v1H178zM180 110h1v1H180zM182 110h1v1H182zM184 110h1v1H184zM186 110h1v1H186zM188 110h1v1H188zM190 110h1v1H190zM192 110h1v1H192zM194 110h1v1H194zM196 110h1v1H196zM198 110h1v1H198zM200 110h1v1H200zM202 110h1v1H202zM204 110h1v1H204zM206 110h1v1H206zM208 110h1v1H208zM210 110h1v1H210zM212 110h1v1H212zM214 110h1v1H214zM216 110h1v1H216zM218 110h1v1H218zM220 110h1v1H220zM222 110h1v1H222zM224 110h1v1H224zM226 110h1v1H226zM228 110h1v1H228zM230 110h1v1H230zM232 110h1v1H232zM234 110h1v1H234zM236 110h1v1H236zM238 110h1v1H238zM240 110h1v1H240zM242 110h1v1H242zM244 110h1v1H244zM246 110h1v1H246zM248 110h1v1H248zM250 110h1v1H250zM252 110h1v1H252zM254 110h1v1H254zM256 110h1v1H256zM258 110h1v1H258zM260 110h1v1H260zM262 110h1v1H262zM264 110h1v1H264zM275 110h2v1H275zM280 110h1v1H280zM284 110h1v1H284zM286 110h2v1H286zM290 110h1v1H290zM295 110h1v1H295zM0 111h1v1H0zM7 111h8v1H7zM22 111h3v1H22zM28 111h5v1H28zM34 111h4v1H34zM97 111h3v1H97zM106 111h1v1H106zM112 111h1v1H112zM116 111h1v1H116zM118 111h1v1H118zM120 111h1v1H120zM130 111h3v1H130zM134 111h3v1H134zM138 111h3v1H138zM142 111h3v1H142zM146 111h1v1H146zM148 111h1v1H148zM150 111h1v1H150zM152 111h1v1H152zM154 111h1v1H154zM156 111h1v1H156zM158 111h1v1H158zM160 111h1v1H160zM162 111h1v1H162zM164 111h1v1H164zM166 111h1v1H166zM168 111h1v1H168zM170 111h1v1H170zM172 111h1v1H172zM174 111h1v1H174zM176 111h1v1H176zM178 111h1v1H178zM180 111h1v1H180zM182 111h1v1H182zM184 111h1v1H184zM186 111h1v1H186zM188 111h1v1H188zM190 111h1v1H190zM192 111h1v1H192zM194 111h1v1H194zM196 111h1v1H196zM198 111h1v1H198zM200 111h1v1H200zM202 111h1v1H202zM204 111h1v1H204zM206 111h1v1H206zM208 111h1v1H208zM210 111h1v1H210zM212 111h1v1H212zM214 111h1v1H214zM216 111h1v1H216zM218 111h1v1H218zM220 111h1v1H220zM222 111h1v1H222zM224 111h1v1H224zM226 111h1v1H226zM228 111h1v1H228zM230 111h1v1H230zM232 111h1v1H232zM234 111h1v1H234zM236 111h1v1H236zM238 111h1v1H238zM240 111h1v1H240zM242 111h1v1H242zM244 111h1v1H244zM246 111h1v1H246zM248 111h1v1H248zM250 111h1v1H250zM252 111h1v1H252zM254 111h1v1H254zM256 111h1v1H256zM258 111h1v1H258zM260 111h1v1H260zM262 111h1v1H262zM264 111h1v1H264zM276 111h1v1H276zM284 111h1v1H284zM289 111h1v1H289zM295 111h1v1H295zM0 112h1v1H0zM7 112h8v1H7zM22 112h1v1H22zM25 112h1v1H25zM28 112h1v1H28zM34 112h1v1H34zM38 112h1v1H38zM96 112h1v1H96zM100 112h1v1H100zM106 112h1v1H106zM112 112h1v1H112zM114 112h1v1H114zM116 112h1v1H116zM118 112h2v1H118zM130 112h3v1H130zM134 112h3v1H134zM138 112h3v1H138zM142 112h3v1H142zM146 112h1v1H146zM148 112h1v1H148zM150 112h1v1H150zM152 112h1v1H152zM154 112h1v1H154zM156 112h1v1H156zM158 112h1v1H158zM160 112h1v1H160zM162 112h1v1H162zM164 112h1v1H164zM166 112h1v1H166zM168 112h1v1H168zM170 112h1v1H170zM172 112h1v1H172zM174 112h1v1H174zM176 112h1v1H176zM178 112h1v1H178zM180 112h1v1H180zM182 112h1v1H182zM184 112h1v1H184zM186 112h1v1H186zM188 112h1v1H188zM190 112h1v1H190zM192 112h1v1H192zM194 112h1v1H194zM196 112h1v1H196zM198 112h1v1H198zM200 112h1v1H200zM202 112h1v1H202zM204 112h1v1H204zM206 112h1v1H206zM208 112h1v1H208zM210 112h1v1H210zM212 112h1v1H212zM214 112h1v1H214zM216 112h1v1H216zM218 112h1v1H218zM220 112h1v1H220zM222 112h1v1H222zM224 112h1v1H224zM226 112h1v1H226zM228 112h1v1H228zM230 112h1v1H230zM232 112h1v1H232zM234 112h1v1H234zM236 112h1v1H236zM238 112h1v1H238zM240 112h1v1H240zM242 112h1v1H242zM244 112h1v1H244zM246 112h1v1H246zM248 112h1v1H248zM250 112h1v1H250zM252 112h1v1H252zM254 112h1v1H254zM256 112h1v1H256zM258 112h1v1H258zM260 112h1v1H260zM262 112h1v1H262zM264 112h1v1H264zM276 112h1v1H276zM283 112h1v1H283zM288 112h1v1H288zM295 112h1v1H295zM0 113h1v1H0zM7 113h8v1H7zM22 113h1v1H22zM26 113h1v1H26zM28 113h1v1H28zM34 113h1v1H34zM38 113h1v1H38zM96 113h1v1H96zM99 113h2v1H99zM106 113h1v1H106zM112 113h1v1H112zM114 113h1v1H114zM116 113h1v1H116zM118 113h1v1H118zM120 113h1v1H120zM130 113h3v1H130zM134 113h3v1H134zM138 113h3v1H138zM142 113h3v1H142zM146 113h3v1H146zM150 113h3v1H150zM154 113h3v1H154zM158 113h3v1H158zM162 113h3v1H162zM166 113h3v1H166zM170 113h3v1H170zM174 113h3v1H174zM178 113h3v1H178zM182 113h3v1H182zM186 113h3v1H186zM190 113h3v1H190zM194 113h3v1H194zM198 113h3v1H198zM202 113h3v1H202zM206 113h3v1H206zM210 113h3v1H210zM214 113h3v1H214zM218 113h3v1H218zM222 113h3v1H222zM226 113h3v1H226zM230 113h3v1H230zM234 113h3v1H234zM238 113h3v1H238zM242 113h3v1H242zM246 113h3v1H246zM250 113h3v1H250zM254 113h3v1H254zM258 113h3v1H258zM262 113h3v1H262zM276 113h1v1H276zM282 113h1v1H282zM287 113h1v1H287zM295 113h1v1H295zM0 114h1v1H0zM7 114h8v1H7zM22 114h1v1H22zM26 114h1v1H26zM28 114h4v1H28zM34 114h4v1H34zM96 114h1v1H96zM98 114h1v1H98zM100 114h1v1H100zM106 114h1v1H106zM112 114h1v1H112zM114 114h1v1H114zM116 114h1v1H116zM118 114h1v1H118zM121 114h1v1H121zM276 114h1v1H276zM281 114h1v1H281zM286 114h1v1H286zM289 114h2v1H289zM295 114h1v1H295zM0 115h1v1H0zM7 115h8v1H7zM22 115h1v1H22zM26 115h1v1H26zM28 115h1v1H28zM34 115h1v1H34zM96 115h2v1H96zM100 115h1v1H100zM106 115h1v1H106zM113 115h1v1H113zM115 115h1v1H115zM118 115h1v1H118zM122 115h1v1H122zM275 115h3v1H275zM280 115h5v1H280zM289 115h2v1H289zM295 115h1v1H295zM0 116h1v1H0zM8 116h6v1H8zM22 116h1v1H22zM25 116h1v1H25zM28 116h1v1H28zM34 116h1v1H34zM96 116h1v1H96zM100 116h1v1H100zM106 116h1v1H106zM295 116h1v1H295zM0 117h1v1H0zM9 117h4v1H9zM22 117h3v1H22zM28 117h5v1H28zM34 117h1v1H34zM97 117h3v1H97zM106 117h1v1H106zM295 117h1v1H295zM0 118h1v1H0zM10 118h2v1H10zM106 118h1v1H106zM295 118h1v1H295zM0 119h1v1H0zM106 119h1v1H106zM295 119h1v1H295zM0 120h1v1H0zM106 120h1v1H106zM295 120h1v1H295zM0 121h1v1H0zM106 121h1v1H106zM295 121h1v1H295zM0 122h1v1H0zM106 122h1v1H106zM295 122h1v1H295zM0 123h1v1H0zM106 123h1v1H106zM295 123h1v1H295zM0 124h1v1H0zM106 124h1v1H106zM295 124h1v1H295zM0 125h1v1H0zM106 125h1v1H106zM295 125h1v1H295zM0 126h1v1H0zM295 126h1v1H295zM0 127h295v1H0z"/>
<path fill="#d62518" d="M130 45h3v1H130zM134 45h3v1H134zM269 45h3v1H269zM281 45h3v1H281zM288 45h1v1H288zM130 46h3v1H130zM134 46h3v1H134zM268 46h1v1H268zM272 46h1v1H272zM280 46h1v1H280zM284 46h1v1H284zM287 46h2v1H287zM130 47h3v1H130zM134 47h3v1H134zM268 47h1v1H268zM271 47h2v1H271zM280 47h1v1H280zM284 47h1v1H284zM288 47h1v1H288zM130 48h3v1H130zM134 48h3v1H134zM268 48h1v1H268zM270 48h1v1H270zM272 48h1v1H272zM281 48h4v1H281zM288 48h1v1H288zM130 49h3v1H130zM134 49h3v1H134zM268 49h2v1H268zM272 49h1v1H272zM275 49h2v1H275zM284 49h1v1H284zM288 49h1v1H288zM130 50h3v1H130zM134 50h3v1H134zM268 50h1v1H268zM272 50h1v1H272zM276 50h1v1H276zM283 50h1v1H283zM288 50h1v1H288zM269 51h3v1H269zM275 51h1v1H275zM281 51h2v1H281zM287 51h3v1H287zM130 81h3v1H130zM286 81h5v1H286zM130 82h3v1H130zM289 82h1v1H289zM130 83h3v1H130zM288 83h1v1H288zM130 84h3v1H130zM289 84h1v1H289zM130 85h3v1H130zM290 85h1v1H290zM130 86h3v1H130zM286 86h1v1H286zM290 86h1v1H290zM287 87h3v1H287z"/>
</g>
</svg>
