<svg xmlns="http://www.w3.org/2000/svg" width="888" height="384" viewBox="0 0 296 128" role="img" aria-labelledby="title">
<title id="title">DevDash no WiFi screen</title>
<rect width="296" height="128" fill="#fff"/>
<g shape-rendering="crispEdges">
<path fill="#111" d="M1 1h294v1H1zM1 2h1v1H1zM294 2h1v1H294zM1 3h1v1H1zM294 3h1v1H294zM1 4h1v1H1zM6 4h9v1H6zM19 4h3v1H19zM25 4h5v1H25zM31 4h1v1H31zM35 4h1v1H35zM37 4h3v1H37zM44 4h3v1H44zM50 4h4v1H50zM55 4h1v1H55zM59 4h1v1H59zM294 4h1v1H294zM1 5h1v1H1zM6 5h9v1H6zM19 5h1v1H19zM22 5h1v1H22zM25 5h1v1H25zM31 5h1v1H31zM35 5h1v1H35zM37 5h1v1H37zM40 5h1v1H40zM43 5h1v1H43zM47 5h1v1H47zM49 5h1v1H49zM55 5h1v1H55zM59 5h1v1H59zM294 5h1v1H294zM1 6h1v1H1zM6 6h2v1H6zM13 6h2v1H13zM19 6h1v1H19zM23 6h1v1H23zM25 6h1v1H25zM31 6h1v1H31zM35 6h1v1H35zM37 6h1v1H37zM41 6h1v1H41zM43 6h1v1H43zM47 6h1v1H47zM49 6h1v1H49zM55 6h1v1H55zM59 6h1v1H59zM294 6h1v1H294zM1 7h1v1H1zM6 7h2v1H6zM9 7h3v1H9zM13 7h2v1H13zM19 7h1v1H19zM23 7h1v1H23zM25 7h4v1H25zM31 7h1v1H31zM35 7h1v1H35zM37 7h1v1H37zM41 7h1v1H41zM43 7h1v1H43zM47 7h1v1H47zM50 7h3v1H50zM55 7h5v1H55zM294 7h1v1H294zM1 8h1v1H1zM6 8h2v1H6zM9 8h3v1H9zM13 8h2v1H13zM19 8h1v1H19zM23 8h1v1H23zM25 8h1v1H25zM31 8h1v1H31zM35 8h1v1H35zM37 8h1v1H37zM41 8h1v1H41zM43 8h5v1H43zM53 8h1v1H53zM55 8h1v1H55zM59 8h1v1H59zM294 8h1v1H294zM1 9h1v1H1zM6 9h2v1H6zM9 9h3v1H9zM13 9h2v1H13zM19 9h1v1H19zM22 9h1v1H22zM25 9h1v1H25zM32 9h1v1H32zM34 9h1v1H34zM37 9h1v1H37zM40 9h1v1H40zM43 9h1v1H43zM47 9h1v1H47zM53 9h1v1H53zM55 9h1v1H55zM59 9h1v1H59zM294 9h1v1H294zM1 10h1v1H1zM6 10h2v1H6zM13 10h2v1H13zM19 10h3v1H19zM25 10h5v1H25zM33 10h1v1H33zM37 10h3v1H37zM43 10h1v1H43zM47 10h1v1H47zM49 10h4v1H49zM55 10h1v1H55zM59 10h1v1H59zM294 10h1v1H294zM1 11h1v1H1zM6 11h9v1H6zM294 11h1v1H294zM1 12h1v1H1zM6 12h9v1H6zM294 12h1v1H294zM1 13h1v1H1zM294 13h1v1H294zM1 14h294v1H1zM1 15h1v1H1zM294 15h1v1H294zM1 16h1v1H1zM294 16h1v1H294zM1 17h1v1H1zM294 17h1v1H294zM1 18h1v1H1zM294 18h1v1H294zM1 19h1v1H1zM294 19h1v1H294zM1 20h1v1H1zM294 20h1v1H294zM1 21h1v1H1zM294 21h1v1H294zM1 22h1v1H1zM122 22h1v1H122zM126 22h1v1H126zM128 22h5v1H128zM134 22h5v1H134zM140 22h1v1H140zM144 22h1v1H144zM147 22h3v1H147zM152 22h4v1H152zM158 22h1v1H158zM162 22h1v1H162zM165 22h4v1H165zM187 22h3v1H187zM192 22h1v1H192zM198 22h1v1H198zM210 22h5v1H210zM217 22h3v1H217zM223 22h3v1H223zM228 22h1v1H228zM234 22h5v1H234zM240 22h3v1H240zM294 22h1v1H294zM1 23h1v1H1zM122 23h1v1H122zM126 23h1v1H126zM128 23h1v1H128zM136 23h1v1H136zM140 23h1v1H140zM144 23h1v1H144zM146 23h1v1H146zM150 23h1v1H150zM152 23h1v1H152zM156 23h1v1H156zM158 23h1v1H158zM161 23h1v1H161zM164 23h1v1H164zM186 23h1v1H186zM190 23h1v1H190zM192 23h1v1H192zM198 23h1v1H198zM210 23h1v1H210zM216 23h1v1H216zM220 23h1v1H220zM224 23h1v1H224zM228 23h1v1H228zM234 23h1v1H234zM240 23h1v1H240zM243 23h1v1H243zM294 23h1v1H294zM1 24h1v1H1zM122 24h2v1H122zM126 24h1v1H126zM128 24h1v1H128zM136 24h1v1H136zM140 24h1v1H140zM144 24h1v1H144zM146 24h1v1H146zM150 24h1v1H150zM152 24h1v1H152zM156 24h1v1H156zM158 24h1v1H158zM160 24h1v1H160zM164 24h1v1H164zM186 24h1v1H186zM190 24h1v1H190zM192 24h1v1H192zM198 24h1v1H198zM210 24h1v1H210zM216 24h1v1H216zM220 24h1v1H220zM224 24h1v1H224zM228 24h1v1H228zM234 24h1v1H234zM240 24h1v1H240zM244 24h1v1H244zM294 24h1v1H294zM1 25h1v1H1zM122 25h1v1H122zM124 25h1v1H124zM126 25h1v1H126zM128 25h4v1H128zM136 25h1v1H136zM140 25h1v1H140zM142 25h1v1H142zM144 25h1v1H144zM146 25h1v1H146zM150 25h1v1H150zM152 25h4v1H152zM158 25h2v1H158zM165 25h3v1H165zM177 25h2v1H177zM186 25h1v1H186zM190 25h1v1H190zM192 25h1v1H192zM198 25h1v1H198zM210 25h4v1H210zM216 25h1v1H216zM220 25h1v1H220zM224 25h1v1H224zM228 25h1v1H228zM234 25h4v1H234zM240 25h1v1H240zM244 25h1v1H244zM294 25h1v1H294zM1 26h1v1H1zM122 26h1v1H122zM125 26h2v1H125zM128 26h1v1H128zM136 26h1v1H136zM140 26h1v1H140zM142 26h1v1H142zM144 26h1v1H144zM146 26h1v1H146zM150 26h1v1H150zM152 26h1v1H152zM154 26h1v1H154zM158 26h1v1H158zM160 26h1v1H160zM168 26h1v1H168zM177 26h2v1H177zM186 26h5v1H186zM192 26h1v1H192zM198 26h1v1H198zM210 26h1v1H210zM216 26h5v1H216zM224 26h1v1H224zM228 26h1v1H228zM234 26h1v1H234zM240 26h1v1H240zM244 26h1v1H244zM294 26h1v1H294zM1 27h1v1H1zM122 27h1v1H122zM126 27h1v1H126zM128 27h1v1H128zM136 27h1v1H136zM140 27h1v1H140zM142 27h1v1H142zM144 27h1v1H144zM146 27h1v1H146zM150 27h1v1H150zM152 27h1v1H152zM155 27h1v1H155zM158 27h1v1H158zM161 27h1v1H161zM168 27h1v1H168zM186 27h1v1H186zM190 27h1v1H190zM192 27h1v1H192zM198 27h1v1H198zM210 27h1v1H210zM216 27h1v1H216zM220 27h1v1H220zM224 27h1v1H224zM228 27h1v1H228zM234 27h1v1H234zM240 27h1v1H240zM243 27h1v1H243zM294 27h1v1H294zM1 28h1v1H1zM122 28h1v1H122zM126 28h1v1H126zM128 28h5v1H128zM136 28h1v1H136zM141 28h1v1H141zM143 28h1v1H143zM147 28h3v1H147zM152 28h1v1H152zM156 28h1v1H156zM158 28h1v1H158zM162 28h1v1H162zM164 28h4v1H164zM186 28h1v1H186zM190 28h1v1H190zM192 28h5v1H192zM198 28h5v1H198zM210 28h1v1H210zM216 28h1v1H216zM220 28h1v1H220zM223 28h3v1H223zM228 28h5v1H228zM234 28h5v1H234zM240 28h3v1H240zM294 28h1v1H294zM1 29h1v1H1zM294 29h1v1H294zM1 30h1v1H1zM294 30h1v1H294zM1 31h1v1H1zM294 31h1v1H294zM1 32h1v1H1zM294 32h1v1H294zM1 33h1v1H1zM294 33h1v1H294zM1 34h1v1H1zM294 34h1v1H294zM1 35h1v1H1zM122 35h169v1H122zM294 35h1v1H294zM1 36h1v1H1zM294 36h1v1H294zM1 37h1v1H1zM294 37h1v1H294zM1 38h1v1H1zM294 38h1v1H294zM1 39h1v1H1zM294 39h1v1H294zM1 40h1v1H1zM294 40h1v1H294zM1 41h1v1H1zM120 41h1v1H120zM142 41h1v1H142zM159 41h2v1H159zM164 41h1v1H164zM195 41h3v1H195zM294 41h1v1H294zM1 42h1v1H1zM119 42h2v1H119zM160 42h1v1H160zM164 42h1v1H164zM194 42h1v1H194zM198 42h1v1H198zM201 42h4v1H201zM294 42h1v1H294zM1 43h1v1H1zM120 43h1v1H120zM134 43h4v1H134zM141 43h2v1H141zM146 43h1v1H146zM150 43h1v1H150zM153 43h3v1H153zM160 43h1v1H160zM164 43h1v1H164zM166 43h2v1H166zM171 43h3v1H171zM176 43h1v1H176zM180 43h1v1H180zM183 43h3v1H183zM198 43h1v1H198zM200 43h1v1H200zM204 43h1v1H204zM294 43h1v1H294zM1 44h1v1H1zM120 44h1v1H120zM134 44h1v1H134zM138 44h1v1H138zM142 44h1v1H142zM147 44h1v1H147zM149 44h1v1H149zM152 44h1v1H152zM156 44h1v1H156zM160 44h1v1H160zM164 44h2v1H164zM168 44h1v1H168zM174 44h1v1H174zM176 44h1v1H176zM180 44h1v1H180zM182 44h1v1H182zM188 44h5v1H188zM197 44h1v1H197zM200 44h1v1H200zM204 44h1v1H204zM294 44h1v1H294zM1 45h1v1H1zM120 45h1v1H120zM134 45h4v1H134zM142 45h1v1H142zM148 45h1v1H148zM152 45h5v1H152zM160 45h1v1H160zM164 45h1v1H164zM168 45h1v1H168zM171 45h4v1H171zM176 45h1v1H176zM180 45h1v1H180zM183 45h3v1H183zM196 45h1v1H196zM201 45h4v1H201zM294 45h1v1H294zM1 46h1v1H1zM120 46h1v1H120zM125 46h2v1H125zM134 46h1v1H134zM142 46h1v1H142zM147 46h1v1H147zM149 46h1v1H149zM152 46h1v1H152zM160 46h1v1H160zM164 46h1v1H164zM168 46h1v1H168zM170 46h1v1H170zM174 46h1v1H174zM176 46h1v1H176zM179 46h2v1H179zM186 46h1v1H186zM195 46h1v1H195zM204 46h1v1H204zM294 46h1v1H294zM1 47h1v1H1zM119 47h3v1H119zM125 47h2v1H125zM134 47h1v1H134zM141 47h3v1H141zM146 47h1v1H146zM150 47h1v1H150zM153 47h3v1H153zM159 47h3v1H159zM164 47h1v1H164zM168 47h1v1H168zM171 47h4v1H171zM177 47h2v1H177zM180 47h1v1H180zM182 47h4v1H182zM194 47h5v1H194zM201 47h3v1H201zM294 47h1v1H294zM1 48h1v1H1zM294 48h1v1H294zM1 49h1v1H1zM294 49h1v1H294zM1 50h1v1H1zM294 50h1v1H294zM1 51h1v1H1zM119 51h3v1H119zM141 51h1v1H141zM156 51h1v1H156zM160 51h1v1H160zM194 51h1v1H194zM294 51h1v1H294zM1 52h1v1H1zM118 52h1v1H118zM122 52h1v1H122zM141 52h1v1H141zM156 52h1v1H156zM194 52h1v1H194zM294 52h1v1H294zM1 53h1v1H1zM122 53h1v1H122zM135 53h3v1H135zM140 53h3v1H140zM146 53h1v1H146zM150 53h1v1H150zM153 53h2v1H153zM156 53h1v1H156zM159 53h2v1H159zM165 53h3v1H165zM176 53h2v1H176zM179 53h1v1H179zM183 53h3v1H183zM189 53h3v1H189zM194 53h1v1H194zM196 53h2v1H196zM294 53h1v1H294zM1 54h1v1H1zM121 54h1v1H121zM134 54h1v1H134zM141 54h1v1H141zM146 54h1v1H146zM150 54h1v1H150zM152 54h1v1H152zM155 54h2v1H155zM160 54h1v1H160zM164 54h1v1H164zM168 54h1v1H168zM170 54h5v1H170zM176 54h1v1H176zM178 54h1v1H178zM180 54h1v1H180zM182 54h1v1H182zM186 54h1v1H186zM188 54h1v1H188zM194 54h2v1H194zM198 54h1v1H198zM294 54h1v1H294zM1 55h1v1H1zM120 55h1v1H120zM135 55h3v1H135zM141 55h1v1H141zM146 55h1v1H146zM150 55h1v1H150zM152 55h1v1H152zM156 55h1v1H156zM160 55h1v1H160zM164 55h1v1H164zM168 55h1v1H168zM176 55h1v1H176zM178 55h1v1H178zM180 55h1v1H180zM182 55h5v1H182zM189 55h3v1H189zM194 55h1v1H194zM198 55h1v1H198zM294 55h1v1H294zM1 56h1v1H1zM119 56h1v1H119zM125 56h2v1H125zM138 56h1v1H138zM141 56h1v1H141zM144 56h1v1H144zM146 56h1v1H146zM149 56h2v1H149zM152 56h1v1H152zM156 56h1v1H156zM160 56h1v1H160zM164 56h1v1H164zM168 56h1v1H168zM176 56h1v1H176zM180 56h1v1H180zM182 56h1v1H182zM192 56h1v1H192zM194 56h1v1H194zM198 56h1v1H198zM294 56h1v1H294zM1 57h1v1H1zM118 57h5v1H118zM125 57h2v1H125zM134 57h4v1H134zM142 57h2v1H142zM147 57h2v1H147zM150 57h1v1H150zM153 57h4v1H153zM159 57h3v1H159zM165 57h3v1H165zM176 57h1v1H176zM180 57h1v1H180zM183 57h3v1H183zM188 57h4v1H188zM194 57h1v1H194zM198 57h1v1H198zM294 57h1v1H294zM1 58h1v1H1zM294 58h1v1H294zM1 59h1v1H1zM294 59h1v1H294zM1 60h1v1H1zM294 60h1v1H294zM1 61h1v1H1zM118 61h5v1H118zM136 61h1v1H136zM146 61h1v1H146zM176 61h1v1H176zM189 61h1v1H189zM213 61h1v1H213zM294 61h1v1H294zM1 62h1v1H1zM121 62h1v1H121zM146 62h1v1H146zM176 62h1v1H176zM189 62h1v1H189zM213 62h1v1H213zM294 62h1v1H294zM1 63h1v1H1zM120 63h1v1H120zM135 63h2v1H135zM140 63h4v1H140zM146 63h1v1H146zM148 63h2v1H148zM153 63h3v1H153zM158 63h1v1H158zM160 63h2v1H160zM165 63h3v1H165zM176 63h1v1H176zM178 63h2v1H178zM183 63h3v1H183zM188 63h3v1H188zM195 63h3v1H195zM200 63h4v1H200zM207 63h3v1H207zM212 63h3v1H212zM294 63h1v1H294zM1 64h1v1H1zM121 64h1v1H121zM136 64h1v1H136zM140 64h1v1H140zM144 64h1v1H144zM146 64h2v1H146zM150 64h1v1H150zM152 64h1v1H152zM156 64h1v1H156zM158 64h2v1H158zM162 64h1v1H162zM164 64h1v1H164zM168 64h1v1H168zM170 64h5v1H170zM176 64h2v1H176zM180 64h1v1H180zM182 64h1v1H182zM186 64h1v1H186zM189 64h1v1H189zM194 64h1v1H194zM200 64h1v1H200zM204 64h1v1H204zM206 64h1v1H206zM210 64h1v1H210zM213 64h1v1H213zM294 64h1v1H294zM1 65h1v1H1zM122 65h1v1H122zM136 65h1v1H136zM140 65h4v1H140zM146 65h1v1H146zM150 65h1v1H150zM152 65h1v1H152zM156 65h1v1H156zM158 65h1v1H158zM162 65h1v1H162zM164 65h5v1H164zM176 65h1v1H176zM180 65h1v1H180zM182 65h1v1H182zM186 65h1v1H186zM189 65h1v1H189zM195 65h3v1H195zM200 65h4v1H200zM206 65h1v1H206zM210 65h1v1H210zM213 65h1v1H213zM294 65h1v1H294zM1 66h1v1H1zM118 66h1v1H118zM122 66h1v1H122zM125 66h2v1H125zM136 66h1v1H136zM140 66h1v1H140zM146 66h1v1H146zM150 66h1v1H150zM152 66h1v1H152zM156 66h1v1H156zM158 66h1v1H158zM162 66h1v1H162zM164 66h1v1H164zM176 66h1v1H176zM180 66h1v1H180zM182 66h1v1H182zM186 66h1v1H186zM189 66h1v1H189zM192 66h1v1H192zM198 66h1v1H198zM200 66h1v1H200zM206 66h1v1H206zM210 66h1v1H210zM213 66h1v1H213zM216 66h1v1H216zM294 66h1v1H294zM1 67h1v1H1zM119 67h3v1H119zM125 67h2v1H125zM135 67h3v1H135zM140 67h1v1H140zM146 67h1v1H146zM150 67h1v1H150zM153 67h3v1H153zM158 67h1v1H158zM162 67h1v1H162zM165 67h3v1H165zM176 67h1v1H176zM180 67h1v1H180zM183 67h3v1H183zM190 67h2v1H190zM194 67h4v1H194zM200 67h1v1H200zM207 67h3v1H207zM214 67h2v1H214zM294 67h1v1H294zM1 68h1v1H1zM294 68h1v1H294zM1 69h1v1H1zM294 69h1v1H294zM1 70h1v1H1zM294 70h1v1H294zM1 71h1v1H1zM121 71h1v1H121zM142 71h2v1H142zM148 71h2v1H148zM154 71h1v1H154zM201 71h1v1H201zM294 71h1v1H294zM1 72h1v1H1zM120 72h2v1H120zM141 72h1v1H141zM144 72h1v1H144zM147 72h1v1H147zM150 72h1v1H150zM177 72h4v1H177zM201 72h1v1H201zM294 72h1v1H294zM1 73h1v1H1zM119 73h1v1H119zM121 73h1v1H121zM135 73h3v1H135zM141 73h1v1H141zM147 73h1v1H147zM153 73h2v1H153zM159 73h3v1H159zM165 73h3v1H165zM176 73h1v1H176zM180 73h1v1H180zM182 73h1v1H182zM186 73h1v1H186zM189 73h3v1H189zM195 73h3v1H195zM200 73h3v1H200zM294 73h1v1H294zM1 74h1v1H1zM118 74h1v1H118zM121 74h1v1H121zM134 74h1v1H134zM138 74h1v1H138zM140 74h3v1H140zM146 74h3v1H146zM154 74h1v1H154zM158 74h1v1H158zM164 74h1v1H164zM168 74h1v1H168zM170 74h5v1H170zM176 74h1v1H176zM180 74h1v1H180zM182 74h1v1H182zM186 74h1v1H186zM188 74h1v1H188zM192 74h1v1H192zM194 74h1v1H194zM201 74h1v1H201zM294 74h1v1H294zM1 75h1v1H1zM118 75h5v1H118zM134 75h1v1H134zM138 75h1v1H138zM141 75h1v1H141zM147 75h1v1H147zM154 75h1v1H154zM158 75h1v1H158zM164 75h5v1H164zM177 75h4v1H177zM182 75h1v1H182zM186 75h1v1H186zM188 75h5v1H188zM195 75h3v1H195zM201 75h1v1H201zM294 75h1v1H294zM1 76h1v1H1zM121 76h1v1H121zM125 76h2v1H125zM134 76h1v1H134zM138 76h1v1H138zM141 76h1v1H141zM147 76h1v1H147zM154 76h1v1H154zM158 76h1v1H158zM162 76h1v1H162zM164 76h1v1H164zM180 76h1v1H180zM182 76h1v1H182zM185 76h2v1H185zM188 76h1v1H188zM198 76h1v1H198zM201 76h1v1H201zM204 76h1v1H204zM294 76h1v1H294zM1 77h1v1H1zM121 77h1v1H121zM125 77h2v1H125zM135 77h3v1H135zM141 77h1v1H141zM147 77h1v1H147zM153 77h3v1H153zM159 77h3v1H159zM165 77h3v1H165zM177 77h3v1H177zM183 77h2v1H183zM186 77h1v1H186zM189 77h3v1H189zM194 77h4v1H194zM202 77h2v1H202zM294 77h1v1H294zM1 78h1v1H1zM294 78h1v1H294zM1 79h1v1H1zM294 79h1v1H294zM1 80h1v1H1zM294 80h1v1H294zM1 81h1v1H1zM118 81h5v1H118zM135 81h1v1H135zM165 81h2v1H165zM195 81h1v1H195zM294 81h1v1H294zM1 82h1v1H1zM118 82h1v1H118zM135 82h1v1H135zM166 82h1v1H166zM195 82h1v1H195zM294 82h1v1H294zM1 83h1v1H1zM118 83h4v1H118zM134 83h3v1H134zM140 83h1v1H140zM142 83h2v1H142zM147 83h3v1H147zM152 83h1v1H152zM156 83h1v1H156zM159 83h3v1H159zM166 83h1v1H166zM176 83h1v1H176zM178 83h2v1H178zM183 83h3v1H183zM188 83h1v1H188zM192 83h1v1H192zM194 83h3v1H194zM201 83h3v1H201zM206 83h1v1H206zM208 83h2v1H208zM294 83h1v1H294zM1 84h1v1H1zM122 84h1v1H122zM135 84h1v1H135zM140 84h2v1H140zM144 84h1v1H144zM150 84h1v1H150zM152 84h1v1H152zM156 84h1v1H156zM158 84h1v1H158zM162 84h1v1H162zM166 84h1v1H166zM170 84h5v1H170zM176 84h2v1H176zM180 84h1v1H180zM182 84h1v1H182zM186 84h1v1H186zM188 84h1v1H188zM192 84h1v1H192zM195 84h1v1H195zM200 84h1v1H200zM204 84h1v1H204zM206 84h2v1H206zM210 84h1v1H210zM294 84h1v1H294zM1 85h1v1H1zM122 85h1v1H122zM135 85h1v1H135zM140 85h1v1H140zM147 85h4v1H147zM152 85h1v1H152zM156 85h1v1H156zM158 85h5v1H158zM166 85h1v1H166zM176 85h1v1H176zM182 85h1v1H182zM186 85h1v1H186zM188 85h1v1H188zM192 85h1v1H192zM195 85h1v1H195zM200 85h5v1H200zM206 85h1v1H206zM294 85h1v1H294zM1 86h1v1H1zM118 86h1v1H118zM122 86h1v1H122zM125 86h2v1H125zM135 86h1v1H135zM138 86h1v1H138zM140 86h1v1H140zM146 86h1v1H146zM150 86h1v1H150zM153 86h1v1H153zM155 86h1v1H155zM158 86h1v1H158zM166 86h1v1H166zM176 86h1v1H176zM182 86h1v1H182zM186 86h1v1H186zM188 86h1v1H188zM191 86h2v1H191zM195 86h1v1H195zM198 86h1v1H198zM200 86h1v1H200zM206 86h1v1H206zM294 86h1v1H294zM1 87h1v1H1zM119 87h3v1H119zM125 87h2v1H125zM136 87h2v1H136zM140 87h1v1H140zM147 87h4v1H147zM154 87h1v1H154zM159 87h3v1H159zM165 87h3v1H165zM176 87h1v1H176zM183 87h3v1H183zM189 87h2v1H189zM192 87h1v1H192zM196 87h2v1H196zM201 87h3v1H201zM206 87h1v1H206zM294 87h1v1H294zM1 88h1v1H1zM294 88h1v1H294zM1 89h1v1H1zM294 89h1v1H294zM1 90h1v1H1zM294 90h1v1H294zM1 91h1v1H1zM294 91h1v1H294zM1 92h1v1H1zM294 92h1v1H294zM1 93h1v1H1zM294 93h1v1H294zM1 94h1v1H1zM294 94h1v1H294zM1 95h1v1H1zM294 95h1v1H294zM1 96h1v1H1zM294 96h1v1H294zM1 97h1v1H1zM294 97h1v1H294zM1 98h1v1H1zM294 98h1v1H294zM1 99h1v1H1zM294 99h1v1H294zM1 100h1v1H1zM294 100h1v1H294zM1 101h1v1H1zM294 101h1v1H294zM1 102h1v1H1zM294 102h1v1H294zM1 103h1v1H1zM294 103h1v1H294zM1 104h1v1H1zM294 104h1v1H294zM1 105h1v1H1zM294 105h1v1H294zM1 106h1v1H1zM294 106h1v1H294zM1 107h1v1H1zM294 107h1v1H294zM1 108h1v1H1zM294 108h1v1H294zM1 109h1v1H1zM294 109h1v1H294zM1 110h1v1H1zM294 110h1v1H294zM1 111h1v1H1zM294 111h1v1H294zM1 112h1v1H1zM294 112h1v1H294zM1 113h1v1H1zM294 113h1v1H294zM1 114h294v1H1zM1 115h1v1H1zM294 115h1v1H294zM1 116h1v1H1zM294 116h1v1H294zM1 117h1v1H1zM164 117h1v1H164zM177 117h2v1H177zM186 117h1v1H186zM194 117h4v1H194zM201 117h3v1H201zM207 117h3v1H207zM212 117h5v1H212zM224 117h5v1H224zM249 117h1v1H249zM273 117h1v1H273zM294 117h1v1H294zM1 118h1v1H1zM164 118h1v1H164zM178 118h1v1H178zM186 118h1v1H186zM194 118h1v1H194zM198 118h1v1H198zM200 118h1v1H200zM204 118h1v1H204zM206 118h1v1H206zM210 118h1v1H210zM214 118h1v1H214zM224 118h1v1H224zM250 118h1v1H250zM273 118h1v1H273zM294 118h1v1H294zM1 119h1v1H1zM164 119h1v1H164zM166 119h2v1H166zM171 119h3v1H171zM178 119h1v1H178zM183 119h2v1H183zM186 119h1v1H186zM194 119h1v1H194zM198 119h1v1H198zM200 119h1v1H200zM204 119h1v1H204zM206 119h1v1H206zM210 119h1v1H210zM214 119h1v1H214zM224 119h4v1H224zM231 119h3v1H231zM251 119h1v1H251zM261 119h3v1H261zM267 119h3v1H267zM272 119h3v1H272zM278 119h1v1H278zM282 119h1v1H282zM284 119h4v1H284zM294 119h1v1H294zM1 120h1v1H1zM164 120h2v1H164zM168 120h1v1H168zM170 120h1v1H170zM174 120h1v1H174zM178 120h1v1H178zM182 120h1v1H182zM185 120h2v1H185zM194 120h4v1H194zM200 120h1v1H200zM204 120h1v1H204zM206 120h1v1H206zM210 120h1v1H210zM214 120h1v1H214zM228 120h1v1H228zM230 120h1v1H230zM242 120h5v1H242zM252 120h1v1H252zM260 120h1v1H260zM266 120h1v1H266zM270 120h1v1H270zM273 120h1v1H273zM278 120h1v1H278zM282 120h1v1H282zM284 120h1v1H284zM288 120h1v1H288zM294 120h1v1H294zM1 121h1v1H1zM164 121h1v1H164zM168 121h1v1H168zM170 121h1v1H170zM174 121h1v1H174zM178 121h1v1H178zM182 121h1v1H182zM186 121h1v1H186zM194 121h1v1H194zM198 121h1v1H198zM200 121h1v1H200zM204 121h1v1H204zM206 121h1v1H206zM210 121h1v1H210zM214 121h1v1H214zM228 121h1v1H228zM231 121h3v1H231zM251 121h1v1H251zM261 121h3v1H261zM266 121h5v1H266zM273 121h1v1H273zM278 121h1v1H278zM282 121h1v1H282zM284 121h4v1H284zM294 121h1v1H294zM1 122h1v1H1zM164 122h1v1H164zM168 122h1v1H168zM170 122h1v1H170zM174 122h1v1H174zM178 122h1v1H178zM182 122h1v1H182zM186 122h1v1H186zM194 122h1v1H194zM198 122h1v1H198zM200 122h1v1H200zM204 122h1v1H204zM206 122h1v1H206zM210 122h1v1H210zM214 122h1v1H214zM224 122h1v1H224zM228 122h1v1H228zM234 122h1v1H234zM250 122h1v1H250zM264 122h1v1H264zM266 122h1v1H266zM273 122h1v1H273zM276 122h1v1H276zM278 122h1v1H278zM281 122h2v1H281zM284 122h1v1H284zM294 122h1v1H294zM1 123h1v1H1zM164 123h1v1H164zM168 123h1v1H168zM171 123h3v1H171zM177 123h3v1H177zM183 123h4v1H183zM194 123h4v1H194zM201 123h3v1H201zM207 123h3v1H207zM214 123h1v1H214zM225 123h3v1H225zM230 123h4v1H230zM249 123h1v1H249zM260 123h4v1H260zM267 123h3v1H267zM274 123h2v1H274zM279 123h2v1H279zM282 123h1v1H282zM284 123h1v1H284zM294 123h1v1H294zM1 124h1v1H1zM294 124h1v1H294zM1 125h1v1H1zM294 125h1v1H294zM1 126h294v1H1z"/>
<path fill="#d62518" d="M235 4h1v1H235zM248 4h1v1H248zM252 4h1v1H252zM255 4h3v1H255zM266 4h1v1H266zM270 4h1v1H270zM273 4h3v1H273zM278 4h5v1H278zM285 4h3v1H285zM236 5h1v1H236zM242 5h1v1H242zM248 5h1v1H248zM252 5h1v1H252zM254 5h1v1H254zM258 5h1v1H258zM266 5h1v1H266zM270 5h1v1H270zM274 5h1v1H274zM278 5h1v1H278zM286 5h1v1H286zM237 6h1v1H237zM241 6h1v1H241zM248 6h2v1H248zM252 6h1v1H252zM254 6h1v1H254zM258 6h1v1H258zM266 6h1v1H266zM270 6h1v1H270zM274 6h1v1H274zM278 6h1v1H278zM286 6h1v1H286zM238 7h1v1H238zM240 7h1v1H240zM248 7h1v1H248zM250 7h1v1H250zM252 7h1v1H252zM254 7h1v1H254zM258 7h1v1H258zM266 7h1v1H266zM268 7h1v1H268zM270 7h1v1H270zM274 7h1v1H274zM278 7h4v1H278zM286 7h1v1H286zM238 8h2v1H238zM248 8h1v1H248zM251 8h2v1H251zM254 8h1v1H254zM258 8h1v1H258zM266 8h1v1H266zM268 8h1v1H268zM270 8h1v1H270zM274 8h1v1H274zM278 8h1v1H278zM286 8h1v1H286zM237 9h1v1H237zM240 9h1v1H240zM248 9h1v1H248zM252 9h1v1H252zM254 9h1v1H254zM258 9h1v1H258zM266 9h1v1H266zM268 9h1v1H268zM270 9h1v1H270zM274 9h1v1H274zM278 9h1v1H278zM286 9h1v1H286zM236 10h1v1H236zM241 10h1v1H241zM248 10h1v1H248zM252 10h1v1H252zM255 10h3v1H255zM267 10h1v1H267zM269 10h1v1H269zM273 10h3v1H273zM278 10h1v1H278zM285 10h3v1H285zM235 11h1v1H235zM242 11h1v1H242zM6 20h108v1H6zM6 21h108v1H6zM6 22h108v1H6zM6 23h108v1H6zM6 24h108v1H6zM6 25h108v1H6zM6 26h108v1H6zM6 27h108v1H6zM6 28h108v1H6zM6 29h108v1H6zM6 30h8v1H6zM18 30h12v1H18zM34 30h7v1H34zM53 30h61v1H53zM6 31h8v1H6zM18 31h12v1H18zM34 31h7v1H34zM53 31h61v1H53zM6 32h8v1H6zM18 32h12v1H18zM34 32h7v1H34zM53 32h61v1H53zM6 33h8v1H6zM18 33h12v1H18zM34 33h7v1H34zM53 33h61v1H53zM6 34h8v1H6zM18 34h12v1H18zM34 34h3v1H34zM41 34h12v1H41zM57 34h57v1H57zM6 35h8v1H6zM18 35h12v1H18zM34 35h3v1H34zM41 35h12v1H41zM57 35h57v1H57zM6 36h8v1H6zM18 36h12v1H18zM34 36h3v1H34zM41 36h12v1H41zM57 36h57v1H57zM6 37h8v1H6zM18 37h12v1H18zM34 37h3v1H34zM41 37h12v1H41zM57 37h57v1H57zM6 38h8v1H6zM22 38h8v1H22zM34 38h3v1H34zM41 38h12v1H41zM57 38h57v1H57zM6 39h8v1H6zM22 39h8v1H22zM34 39h3v1H34zM41 39h12v1H41zM57 39h57v1H57zM6 40h8v1H6zM22 40h8v1H22zM34 40h3v1H34zM41 40h12v1H41zM57 40h57v1H57zM6 41h8v1H6zM22 41h8v1H22zM34 41h3v1H34zM41 41h12v1H41zM57 41h57v1H57zM6 42h8v1H6zM18 42h4v1H18zM26 42h4v1H26zM34 42h3v1H34zM41 42h12v1H41zM57 42h57v1H57zM6 43h8v1H6zM18 43h4v1H18zM26 43h4v1H26zM34 43h3v1H34zM41 43h12v1H41zM57 43h57v1H57zM260 43h1v1H260zM262 43h2v1H262zM267 43h3v1H267zM279 43h3v1H279zM284 43h4v1H284zM6 44h8v1H6zM18 44h4v1H18zM26 44h4v1H26zM34 44h3v1H34zM41 44h12v1H41zM57 44h57v1H57zM260 44h2v1H260zM264 44h1v1H264zM266 44h1v1H266zM270 44h1v1H270zM272 44h5v1H272zM282 44h1v1H282zM284 44h1v1H284zM288 44h1v1H288zM6 45h8v1H6zM18 45h4v1H18zM26 45h4v1H26zM34 45h3v1H34zM41 45h12v1H41zM57 45h57v1H57zM260 45h1v1H260zM264 45h1v1H264zM266 45h1v1H266zM270 45h1v1H270zM279 45h4v1H279zM284 45h4v1H284zM6 46h8v1H6zM18 46h8v1H18zM34 46h3v1H34zM41 46h12v1H41zM57 46h57v1H57zM260 46h1v1H260zM264 46h1v1H264zM266 46h1v1H266zM270 46h1v1H270zM278 46h1v1H278zM282 46h1v1H282zM284 46h1v1H284zM6 47h8v1H6zM18 47h8v1H18zM34 47h3v1H34zM41 47h12v1H41zM57 47h57v1H57zM260 47h1v1H260zM264 47h1v1H264zM267 47h3v1H267zM279 47h4v1H279zM284 47h1v1H284zM6 48h8v1H6zM18 48h8v1H18zM34 48h3v1H34zM41 48h12v1H41zM57 48h57v1H57zM6 49h8v1H6zM18 49h8v1H18zM34 49h3v1H34zM41 49h12v1H41zM57 49h57v1H57zM6 50h8v1H6zM18 50h12v1H18zM34 50h3v1H34zM41 50h12v1H41zM57 50h57v1H57zM6 51h8v1H6zM18 51h12v1H18zM34 51h3v1H34zM41 51h12v1H41zM57 51h57v1H57zM255 51h1v1H255zM260 51h1v1H260zM6 52h8v1H6zM18 52h12v1H18zM34 52h3v1H34zM41 52h12v1H41zM57 52h57v1H57zM255 52h1v1H255zM260 52h1v1H260zM6 53h8v1H6zM18 53h12v1H18zM34 53h3v1H34zM41 53h12v1H41zM57 53h57v1H57zM243 53h3v1H243zM248 53h1v1H248zM252 53h1v1H252zM254 53h3v1H254zM260 53h1v1H260zM262 53h2v1H262zM273 53h3v1H273zM278 53h1v1H278zM280 53h2v1H280zM284 53h1v1H284zM286 53h2v1H286zM6 54h8v1H6zM18 54h12v1H18zM34 54h7v1H34zM53 54h61v1H53zM246 54h1v1H246zM248 54h1v1H248zM252 54h1v1H252zM255 54h1v1H255zM260 54h2v1H260zM264 54h1v1H264zM266 54h5v1H266zM272 54h1v1H272zM276 54h1v1H276zM278 54h2v1H278zM282 54h1v1H282zM284 54h2v1H284zM288 54h1v1H288zM6 55h8v1H6zM18 55h12v1H18zM34 55h7v1H34zM53 55h61v1H53zM243 55h4v1H243zM248 55h1v1H248zM252 55h1v1H252zM255 55h1v1H255zM260 55h1v1H260zM264 55h1v1H264zM272 55h5v1H272zM278 55h1v1H278zM284 55h1v1H284zM6 56h8v1H6zM18 56h12v1H18zM34 56h7v1H34zM53 56h61v1H53zM242 56h1v1H242zM246 56h1v1H246zM248 56h1v1H248zM251 56h2v1H251zM255 56h1v1H255zM258 56h1v1H258zM260 56h1v1H260zM264 56h1v1H264zM272 56h1v1H272zM278 56h1v1H278zM284 56h1v1H284zM6 57h8v1H6zM18 57h12v1H18zM34 57h7v1H34zM53 57h61v1H53zM243 57h4v1H243zM249 57h2v1H249zM252 57h1v1H252zM256 57h2v1H256zM260 57h1v1H260zM264 57h1v1H264zM273 57h3v1H273zM278 57h1v1H278zM284 57h1v1H284zM6 58h108v1H6zM6 59h108v1H6zM6 60h8v1H6zM18 60h12v1H18zM34 60h7v1H34zM53 60h7v1H53zM80 60h7v1H80zM99 60h15v1H99zM6 61h8v1H6zM18 61h12v1H18zM34 61h7v1H34zM53 61h7v1H53zM80 61h7v1H80zM99 61h15v1H99zM6 62h8v1H6zM18 62h12v1H18zM34 62h7v1H34zM53 62h7v1H53zM80 62h7v1H80zM99 62h15v1H99zM6 63h8v1H6zM18 63h12v1H18zM34 63h7v1H34zM53 63h7v1H53zM80 63h7v1H80zM99 63h15v1H99zM260 63h1v1H260zM262 63h2v1H262zM267 63h3v1H267zM279 63h3v1H279zM284 63h4v1H284zM6 64h8v1H6zM18 64h12v1H18zM34 64h11v1H34zM49 64h11v1H49zM64 64h27v1H64zM95 64h19v1H95zM260 64h2v1H260zM264 64h1v1H264zM266 64h1v1H266zM270 64h1v1H270zM272 64h5v1H272zM282 64h1v1H282zM284 64h1v1H284zM288 64h1v1H288zM6 65h8v1H6zM18 65h12v1H18zM34 65h11v1H34zM49 65h11v1H49zM64 65h27v1H64zM95 65h19v1H95zM260 65h1v1H260zM264 65h1v1H264zM266 65h1v1H266zM270 65h1v1H270zM279 65h4v1H279zM284 65h4v1H284zM6 66h8v1H6zM18 66h12v1H18zM34 66h11v1H34zM49 66h11v1H49zM64 66h27v1H64zM95 66h19v1H95zM260 66h1v1H260zM264 66h1v1H264zM266 66h1v1H266zM270 66h1v1H270zM278 66h1v1H278zM282 66h1v1H282zM284 66h1v1H284zM6 67h8v1H6zM18 67h12v1H18zM34 67h11v1H34zM49 67h11v1H49zM64 67h27v1H64zM95 67h19v1H95zM260 67h1v1H260zM264 67h1v1H264zM267 67h3v1H267zM279 67h4v1H279zM284 67h1v1H284zM6 68h8v1H6zM18 68h12v1H18zM34 68h11v1H34zM49 68h11v1H49zM64 68h27v1H64zM95 68h19v1H95zM6 69h8v1H6zM18 69h12v1H18zM34 69h11v1H34zM49 69h11v1H49zM64 69h27v1H64zM95 69h19v1H95zM6 70h8v1H6zM18 70h12v1H18zM34 70h11v1H34zM49 70h11v1H49zM64 70h27v1H64zM95 70h19v1H95zM6 71h8v1H6zM18 71h12v1H18zM34 71h11v1H34zM49 71h11v1H49zM64 71h27v1H64zM95 71h19v1H95zM249 71h1v1H249zM256 71h1v1H256zM285 71h1v1H285zM6 72h8v1H6zM18 72h4v1H18zM26 72h4v1H26zM34 72h11v1H34zM49 72h11v1H49zM76 72h15v1H76zM95 72h19v1H95zM249 72h1v1H249zM285 72h1v1H285zM6 73h8v1H6zM18 73h4v1H18zM26 73h4v1H26zM34 73h11v1H34zM49 73h11v1H49zM76 73h15v1H76zM95 73h19v1H95zM248 73h3v1H248zM255 73h2v1H255zM260 73h2v1H260zM263 73h1v1H263zM267 73h3v1H267zM273 73h3v1H273zM278 73h1v1H278zM282 73h1v1H282zM284 73h3v1H284zM6 74h8v1H6zM18 74h4v1H18zM26 74h4v1H26zM34 74h11v1H34zM49 74h11v1H49zM76 74h15v1H76zM95 74h19v1H95zM249 74h1v1H249zM256 74h1v1H256zM260 74h1v1H260zM262 74h1v1H262zM264 74h1v1H264zM266 74h1v1H266zM270 74h1v1H270zM272 74h1v1H272zM276 74h1v1H276zM278 74h1v1H278zM282 74h1v1H282zM285 74h1v1H285zM6 75h8v1H6zM18 75h4v1H18zM26 75h4v1H26zM34 75h11v1H34zM49 75h11v1H49zM76 75h15v1H76zM95 75h19v1H95zM249 75h1v1H249zM256 75h1v1H256zM260 75h1v1H260zM262 75h1v1H262zM264 75h1v1H264zM266 75h5v1H266zM272 75h1v1H272zM276 75h1v1H276zM278 75h1v1H278zM282 75h1v1H282zM285 75h1v1H285zM6 76h8v1H6zM18 76h4v1H18zM26 76h4v1H26zM34 76h11v1H34zM49 76h11v1H49zM64 76h27v1H64zM95 76h19v1H95zM249 76h1v1H249zM252 76h1v1H252zM256 76h1v1H256zM260 76h1v1H260zM264 76h1v1H264zM266 76h1v1H266zM272 76h1v1H272zM276 76h1v1H276zM278 76h1v1H278zM281 76h2v1H281zM285 76h1v1H285zM288 76h1v1H288zM6 77h8v1H6zM18 77h4v1H18zM26 77h4v1H26zM34 77h11v1H34zM49 77h11v1H49zM64 77h27v1H64zM95 77h19v1H95zM250 77h2v1H250zM255 77h3v1H255zM260 77h1v1H260zM264 77h1v1H264zM267 77h3v1H267zM273 77h3v1H273zM279 77h2v1H279zM282 77h1v1H282zM286 77h2v1H286zM6 78h8v1H6zM18 78h4v1H18zM26 78h4v1H26zM34 78h11v1H34zM49 78h11v1H49zM64 78h27v1H64zM95 78h19v1H95zM6 79h8v1H6zM18 79h4v1H18zM26 79h4v1H26zM34 79h11v1H34zM49 79h11v1H49zM64 79h27v1H64zM95 79h19v1H95zM6 80h8v1H6zM18 80h4v1H18zM26 80h4v1H26zM34 80h11v1H34zM49 80h11v1H49zM64 80h27v1H64zM95 80h19v1H95zM6 81h8v1H6zM18 81h4v1H18zM26 81h4v1H26zM34 81h11v1H34zM49 81h11v1H49zM64 81h27v1H64zM95 81h19v1H95zM6 82h8v1H6zM18 82h4v1H18zM26 82h4v1H26zM34 82h11v1H34zM49 82h11v1H49zM64 82h27v1H64zM95 82h19v1H95zM6 83h8v1H6zM18 83h4v1H18zM26 83h4v1H26zM34 83h11v1H34zM49 83h11v1H49zM64 83h27v1H64zM95 83h19v1H95zM260 83h1v1H260zM262 83h2v1H262zM267 83h3v1H267zM279 83h3v1H279zM284 83h4v1H284zM6 84h12v1H6zM22 84h4v1H22zM30 84h11v1H30zM53 84h7v1H53zM64 84h23v1H64zM99 84h15v1H99zM260 84h2v1H260zM264 84h1v1H264zM266 84h1v1H266zM270 84h1v1H270zM272 84h5v1H272zM282 84h1v1H282zM284 84h1v1H284zM288 84h1v1H288zM6 85h12v1H6zM22 85h4v1H22zM30 85h11v1H30zM53 85h7v1H53zM64 85h23v1H64zM99 85h15v1H99zM260 85h1v1H260zM264 85h1v1H264zM266 85h1v1H266zM270 85h1v1H270zM279 85h4v1H279zM284 85h4v1H284zM6 86h12v1H6zM22 86h4v1H22zM30 86h11v1H30zM53 86h7v1H53zM64 86h23v1H64zM99 86h15v1H99zM260 86h1v1H260zM264 86h1v1H264zM266 86h1v1H266zM270 86h1v1H270zM278 86h1v1H278zM282 86h1v1H282zM284 86h1v1H284zM6 87h12v1H6zM22 87h4v1H22zM30 87h11v1H30zM53 87h7v1H53zM64 87h23v1H64zM99 87h15v1H99zM260 87h1v1H260zM264 87h1v1H264zM267 87h3v1H267zM279 87h4v1H279zM284 87h1v1H284zM6 88h108v1H6zM6 89h108v1H6zM6 90h108v1H6zM6 91h108v1H6zM6 92h108v1H6zM6 93h108v1H6zM6 94h108v1H6zM6 95h108v1H6zM6 96h108v1H6zM6 97h108v1H6zM6 98h9v1H6zM18 98h8v1H18zM31 98h10v1H31zM42 98h10v1H42zM53 98h19v1H53zM73 98h41v1H73zM6 99h8v1H6zM15 99h3v1H15zM19 99h5v1H19zM25 99h1v1H25zM27 99h45v1H27zM73 99h41v1H73zM6 100h8v1H6zM15 100h2v1H15zM19 100h4v1H19zM24 100h2v1H24zM30 100h10v1H30zM42 100h3v1H42zM48 100h3v1H48zM53 100h3v1H53zM57 100h1v1H57zM60 100h3v1H60zM66 100h3v1H66zM71 100h1v1H71zM73 100h41v1H73zM6 101h8v1H6zM15 101h1v1H15zM17 101h1v1H17zM19 101h3v1H19zM23 101h7v1H23zM31 101h10v1H31zM42 101h2v1H42zM45 101h3v1H45zM49 101h3v1H49zM53 101h3v1H53zM58 101h2v1H58zM61 101h1v1H61zM63 101h3v1H63zM67 101h1v1H67zM69 101h2v1H69zM73 101h41v1H73zM6 102h8v1H6zM16 102h2v1H16zM19 102h2v1H19zM22 102h8v1H22zM31 102h10v1H31zM42 102h2v1H42zM45 102h3v1H45zM49 102h3v1H49zM53 102h3v1H53zM57 102h3v1H57zM61 102h1v1H61zM67 102h1v1H67zM69 102h3v1H69zM73 102h41v1H73zM6 103h8v1H6zM15 103h3v1H15zM19 103h1v1H19zM21 103h5v1H21zM27 103h3v1H27zM31 103h7v1H31zM39 103h2v1H39zM42 103h2v1H42zM45 103h3v1H45zM49 103h3v1H49zM53 103h3v1H53zM57 103h3v1H57zM61 103h1v1H61zM63 103h5v1H63zM69 103h3v1H69zM73 103h41v1H73zM6 104h9v1H6zM18 104h9v1H18zM30 104h9v1H30zM41 104h4v1H41zM48 104h3v1H48zM54 104h2v1H54zM57 104h3v1H57zM61 104h2v1H61zM66 104h3v1H66zM73 104h41v1H73zM6 105h108v1H6zM6 106h108v1H6zM6 107h108v1H6zM6 108h108v1H6zM6 109h108v1H6zM19 117h1v1H19zM42 117h5v1H42zM49 117h3v1H49zM19 118h1v1H19zM45 118h1v1H45zM48 118h1v1H48zM52 118h1v1H52zM6 119h1v1H6zM8 119h2v1H8zM13 119h3v1H13zM18 119h3v1H18zM24 119h1v1H24zM26 119h2v1H26zM30 119h1v1H30zM34 119h1v1H34zM44 119h1v1H44zM48 119h1v1H48zM51 119h2v1H51zM55 119h3v1H55zM6 120h2v1H6zM10 120h1v1H10zM12 120h1v1H12zM16 120h1v1H16zM19 120h1v1H19zM24 120h2v1H24zM28 120h1v1H28zM30 120h1v1H30zM34 120h1v1H34zM45 120h1v1H45zM48 120h1v1H48zM50 120h1v1H50zM52 120h1v1H52zM54 120h1v1H54zM6 121h1v1H6zM12 121h5v1H12zM19 121h1v1H19zM24 121h1v1H24zM31 121h4v1H31zM46 121h1v1H46zM48 121h2v1H48zM52 121h1v1H52zM55 121h3v1H55zM6 122h1v1H6zM12 122h1v1H12zM19 122h1v1H19zM22 122h1v1H22zM24 122h1v1H24zM34 122h1v1H34zM42 122h1v1H42zM46 122h1v1H46zM48 122h1v1H48zM52 122h1v1H52zM58 122h1v1H58zM6 123h1v1H6zM13 123h3v1H13zM20 123h2v1H20zM24 123h1v1H24zM31 123h3v1H31zM43 123h3v1H43zM49 123h3v1H49zM54 123h4v1H54z"/>
</g>
</svg>
