<svg xmlns="http://www.w3.org/2000/svg" width="888" height="384" viewBox="0 0 296 128" role="img" aria-labelledby="title">
<title id="title">DevDash dashboard screen</title>
<rect width="296" height="128" fill="#fff"/>
<g shape-rendering="crispEdges">
<path fill="#111" d="M1 1h294v1H1zM1 2h1v1H1zM294 2h1v1H294zM1 3h1v1H1zM294 3h1v1H294zM1 4h1v1H1zM6 4h9v1H6zM234 4h1v1H234zM294 4h1v1H294zM1 5h1v1H1zM6 5h9v1H6zM19 5h3v1H19zM25 5h5v1H25zM31 5h1v1H31zM35 5h1v1H35zM37 5h3v1H37zM44 5h3v1H44zM50 5h4v1H50zM55 5h1v1H55zM59 5h1v1H59zM130 5h6v1H130zM143 5h1v1H143zM164 5h1v1H164zM230 5h5v1H230zM241 5h3v1H241zM248 5h1v1H248zM258 5h5v1H258zM264 5h5v1H264zM278 5h5v1H278zM294 5h1v1H294zM1 6h1v1H1zM6 6h2v1H6zM13 6h2v1H13zM19 6h1v1H19zM22 6h1v1H22zM25 6h1v1H25zM31 6h1v1H31zM35 6h1v1H35zM37 6h1v1H37zM40 6h1v1H40zM43 6h1v1H43zM47 6h1v1H47zM49 6h1v1H49zM55 6h1v1H55zM59 6h1v1H59zM129 6h1v1H129zM136 6h1v1H136zM142 6h2v1H142zM156 6h1v1H156zM163 6h2v1H163zM229 6h1v1H229zM234 6h1v1H234zM240 6h1v1H240zM244 6h1v1H244zM247 6h2v1H247zM253 6h2v1H253zM261 6h1v1H261zM264 6h1v1H264zM274 6h1v1H274zM278 6h1v1H278zM294 6h1v1H294zM1 7h1v1H1zM6 7h2v1H6zM9 7h3v1H9zM13 7h2v1H13zM19 7h1v1H19zM23 7h1v1H23zM25 7h1v1H25zM31 7h1v1H31zM35 7h1v1H35zM37 7h1v1H37zM41 7h1v1H41zM43 7h1v1H43zM47 7h1v1H47zM49 7h1v1H49zM55 7h1v1H55zM59 7h1v1H59zM143 7h1v1H143zM157 7h1v1H157zM164 7h1v1H164zM229 7h1v1H229zM244 7h1v1H244zM248 7h1v1H248zM253 7h2v1H253zM260 7h1v1H260zM264 7h4v1H264zM274 7h1v1H274zM278 7h4v1H278zM284 7h2v1H284zM287 7h1v1H287zM294 7h1v1H294zM1 8h1v1H1zM6 8h2v1H6zM9 8h3v1H9zM13 8h2v1H13zM19 8h1v1H19zM23 8h1v1H23zM25 8h4v1H25zM31 8h1v1H31zM35 8h1v1H35zM37 8h1v1H37zM41 8h1v1H41zM43 8h1v1H43zM47 8h1v1H47zM50 8h3v1H50zM55 8h5v1H55zM130 8h6v1H130zM143 8h1v1H143zM150 8h9v1H150zM164 8h1v1H164zM229 8h1v1H229zM235 8h1v1H235zM243 8h1v1H243zM248 8h1v1H248zM261 8h1v1H261zM268 8h1v1H268zM272 8h5v1H272zM282 8h1v1H282zM284 8h1v1H284zM286 8h1v1H286zM288 8h1v1H288zM294 8h1v1H294zM1 9h1v1H1zM6 9h2v1H6zM9 9h3v1H9zM13 9h2v1H13zM19 9h1v1H19zM23 9h1v1H23zM25 9h1v1H25zM31 9h1v1H31zM35 9h1v1H35zM37 9h1v1H37zM41 9h1v1H41zM43 9h5v1H43zM53 9h1v1H53zM55 9h1v1H55zM59 9h1v1H59zM143 9h1v1H143zM157 9h1v1H157zM164 9h1v1H164zM235 9h1v1H235zM242 9h1v1H242zM248 9h1v1H248zM253 9h2v1H253zM262 9h1v1H262zM268 9h1v1H268zM274 9h1v1H274zM282 9h1v1H282zM284 9h1v1H284zM286 9h1v1H286zM288 9h1v1H288zM294 9h1v1H294zM1 10h1v1H1zM6 10h2v1H6zM13 10h2v1H13zM19 10h1v1H19zM22 10h1v1H22zM25 10h1v1H25zM32 10h1v1H32zM34 10h1v1H34zM37 10h1v1H37zM40 10h1v1H40zM43 10h1v1H43zM47 10h1v1H47zM53 10h1v1H53zM55 10h1v1H55zM59 10h1v1H59zM132 10h2v1H132zM143 10h1v1H143zM156 10h1v1H156zM164 10h1v1H164zM230 10h1v1H230zM235 10h1v1H235zM241 10h1v1H241zM248 10h1v1H248zM253 10h2v1H253zM258 10h1v1H258zM262 10h1v1H262zM264 10h1v1H264zM268 10h1v1H268zM274 10h1v1H274zM278 10h1v1H278zM282 10h1v1H282zM284 10h1v1H284zM288 10h1v1H288zM294 10h1v1H294zM1 11h1v1H1zM6 11h9v1H6zM19 11h3v1H19zM25 11h5v1H25zM33 11h1v1H33zM37 11h3v1H37zM43 11h1v1H43zM47 11h1v1H47zM49 11h4v1H49zM55 11h1v1H55zM59 11h1v1H59zM142 11h3v1H142zM163 11h3v1H163zM230 11h5v1H230zM240 11h5v1H240zM247 11h3v1H247zM259 11h3v1H259zM265 11h3v1H265zM279 11h3v1H279zM284 11h1v1H284zM288 11h1v1H288zM294 11h1v1H294zM1 12h1v1H1zM6 12h9v1H6zM132 12h2v1H132zM230 12h1v1H230zM294 12h1v1H294zM1 13h1v1H1zM294 13h1v1H294zM1 14h1v1H1zM294 14h1v1H294zM1 15h294v1H1zM1 16h1v1H1zM106 16h1v1H106zM294 16h1v1H294zM1 17h1v1H1zM106 17h1v1H106zM294 17h1v1H294zM1 18h1v1H1zM106 18h1v1H106zM294 18h1v1H294zM1 19h1v1H1zM106 19h1v1H106zM294 19h1v1H294zM1 20h1v1H1zM106 20h1v1H106zM113 20h3v1H113zM118 20h1v1H118zM125 20h3v1H125zM130 20h1v1H130zM134 20h1v1H134zM136 20h3v1H136zM142 20h5v1H142zM217 20h7v1H217zM230 20h1v1H230zM234 20h1v1H234zM240 20h5v1H240zM247 20h3v1H247zM263 20h3v1H263zM272 20h1v1H272zM281 20h3v1H281zM286 20h1v1H286zM294 20h1v1H294zM1 21h1v1H1zM90 21h10v1H90zM106 21h1v1H106zM112 21h1v1H112zM116 21h1v1H116zM118 21h1v1H118zM124 21h1v1H124zM128 21h1v1H128zM130 21h1v1H130zM134 21h1v1H134zM136 21h1v1H136zM139 21h1v1H139zM142 21h1v1H142zM218 21h5v1H218zM229 21h2v1H229zM234 21h1v1H234zM243 21h1v1H243zM246 21h1v1H246zM250 21h1v1H250zM258 21h1v1H258zM262 21h1v1H262zM266 21h1v1H266zM272 21h1v1H272zM280 21h1v1H280zM284 21h1v1H284zM286 21h1v1H286zM294 21h1v1H294zM1 22h1v1H1zM90 22h10v1H90zM106 22h1v1H106zM112 22h1v1H112zM118 22h1v1H118zM124 22h1v1H124zM128 22h1v1H128zM130 22h1v1H130zM134 22h1v1H134zM136 22h1v1H136zM140 22h1v1H140zM142 22h1v1H142zM219 22h3v1H219zM230 22h1v1H230zM234 22h1v1H234zM236 22h2v1H236zM242 22h1v1H242zM246 22h1v1H246zM249 22h2v1H249zM257 22h1v1H257zM266 22h1v1H266zM269 22h2v1H269zM272 22h1v1H272zM280 22h1v1H280zM284 22h1v1H284zM286 22h1v1H286zM288 22h2v1H288zM294 22h1v1H294zM1 23h1v1H1zM9 23h4v1H9zM98 23h2v1H98zM106 23h1v1H106zM112 23h1v1H112zM118 23h1v1H118zM124 23h1v1H124zM128 23h1v1H128zM130 23h1v1H130zM134 23h1v1H134zM136 23h1v1H136zM140 23h1v1H140zM142 23h4v1H142zM220 23h1v1H220zM230 23h1v1H230zM234 23h2v1H234zM238 23h1v1H238zM243 23h1v1H243zM246 23h1v1H246zM248 23h1v1H248zM250 23h1v1H250zM256 23h1v1H256zM265 23h1v1H265zM268 23h1v1H268zM271 23h2v1H271zM281 23h4v1H281zM286 23h2v1H286zM290 23h1v1H290zM294 23h1v1H294zM1 24h1v1H1zM8 24h6v1H8zM23 24h3v1H23zM29 24h4v1H29zM35 24h4v1H35zM40 24h1v1H40zM44 24h1v1H44zM46 24h5v1H46zM53 24h4v1H53zM98 24h2v1H98zM106 24h1v1H106zM112 24h1v1H112zM118 24h1v1H118zM124 24h5v1H124zM130 24h1v1H130zM134 24h1v1H134zM136 24h1v1H136zM140 24h1v1H140zM142 24h1v1H142zM219 24h3v1H219zM230 24h1v1H230zM234 24h1v1H234zM238 24h1v1H238zM244 24h1v1H244zM246 24h2v1H246zM250 24h1v1H250zM255 24h1v1H255zM264 24h1v1H264zM268 24h1v1H268zM272 24h1v1H272zM284 24h1v1H284zM286 24h1v1H286zM290 24h1v1H290zM294 24h1v1H294zM1 25h1v1H1zM7 25h2v1H7zM13 25h2v1H13zM24 25h1v1H24zM28 25h1v1H28zM34 25h1v1H34zM40 25h1v1H40zM44 25h1v1H44zM46 25h1v1H46zM52 25h1v1H52zM96 25h2v1H96zM106 25h1v1H106zM112 25h1v1H112zM116 25h1v1H116zM118 25h1v1H118zM124 25h1v1H124zM128 25h1v1H128zM130 25h1v1H130zM134 25h1v1H134zM136 25h1v1H136zM139 25h1v1H139zM142 25h1v1H142zM218 25h5v1H218zM230 25h1v1H230zM234 25h1v1H234zM238 25h1v1H238zM240 25h1v1H240zM244 25h1v1H244zM246 25h1v1H246zM250 25h1v1H250zM254 25h1v1H254zM263 25h1v1H263zM268 25h1v1H268zM272 25h1v1H272zM283 25h1v1H283zM286 25h1v1H286zM290 25h1v1H290zM294 25h1v1H294zM1 26h1v1H1zM7 26h2v1H7zM13 26h2v1H13zM24 26h1v1H24zM28 26h1v1H28zM34 26h1v1H34zM40 26h1v1H40zM44 26h1v1H44zM46 26h1v1H46zM52 26h1v1H52zM96 26h2v1H96zM106 26h1v1H106zM113 26h3v1H113zM118 26h5v1H118zM124 26h1v1H124zM128 26h1v1H128zM131 26h3v1H131zM136 26h3v1H136zM142 26h5v1H142zM217 26h7v1H217zM229 26h3v1H229zM234 26h1v1H234zM238 26h1v1H238zM241 26h3v1H241zM247 26h3v1H247zM262 26h5v1H262zM269 26h4v1H269zM281 26h2v1H281zM286 26h1v1H286zM290 26h1v1H290zM294 26h1v1H294zM1 27h1v1H1zM7 27h2v1H7zM10 27h2v1H10zM13 27h2v1H13zM24 27h1v1H24zM29 27h3v1H29zM35 27h3v1H35zM40 27h1v1H40zM44 27h1v1H44zM46 27h4v1H46zM53 27h3v1H53zM94 27h2v1H94zM106 27h1v1H106zM294 27h1v1H294zM1 28h1v1H1zM7 28h2v1H7zM10 28h2v1H10zM13 28h2v1H13zM24 28h1v1H24zM32 28h1v1H32zM38 28h1v1H38zM40 28h1v1H40zM44 28h1v1H44zM46 28h1v1H46zM56 28h1v1H56zM94 28h2v1H94zM106 28h1v1H106zM294 28h1v1H294zM1 29h1v1H1zM7 29h2v1H7zM13 29h2v1H13zM24 29h1v1H24zM32 29h1v1H32zM38 29h1v1H38zM40 29h1v1H40zM44 29h1v1H44zM46 29h1v1H46zM56 29h1v1H56zM92 29h2v1H92zM106 29h1v1H106zM294 29h1v1H294zM1 30h1v1H1zM7 30h2v1H7zM13 30h2v1H13zM23 30h3v1H23zM28 30h4v1H28zM34 30h4v1H34zM41 30h3v1H41zM46 30h5v1H46zM52 30h4v1H52zM92 30h2v1H92zM106 30h1v1H106zM294 30h1v1H294zM1 31h1v1H1zM8 31h6v1H8zM92 31h2v1H92zM106 31h1v1H106zM294 31h1v1H294zM1 32h1v1H1zM9 32h4v1H9zM92 32h2v1H92zM106 32h1v1H106zM294 32h1v1H294zM1 33h1v1H1zM92 33h2v1H92zM106 33h1v1H106zM294 33h1v1H294zM1 34h1v1H1zM92 34h2v1H92zM106 34h1v1H106zM294 34h1v1H294zM1 35h1v1H1zM106 35h1v1H106zM294 35h1v1H294zM1 36h1v1H1zM106 36h1v1H106zM294 36h1v1H294zM1 37h1v1H1zM106 37h1v1H106zM130 37h3v1H130zM134 37h3v1H134zM138 37h3v1H138zM142 37h3v1H142zM146 37h3v1H146zM150 37h3v1H150zM154 37h3v1H154zM158 37h3v1H158zM162 37h3v1H162zM166 37h3v1H166zM170 37h3v1H170zM174 37h3v1H174zM178 37h3v1H178zM182 37h3v1H182zM186 37h3v1H186zM190 37h3v1H190zM194 37h3v1H194zM198 37h3v1H198zM202 37h3v1H202zM206 37h3v1H206zM210 37h3v1H210zM214 37h3v1H214zM218 37h3v1H218zM222 37h3v1H222zM226 37h3v1H226zM230 37h3v1H230zM234 37h3v1H234zM238 37h3v1H238zM242 37h3v1H242zM246 37h3v1H246zM250 37h3v1H250zM254 37h3v1H254zM258 37h3v1H258zM262 37h3v1H262zM294 37h1v1H294zM1 38h1v1H1zM106 38h1v1H106zM112 38h5v1H112zM118 38h1v1H118zM122 38h1v1H122zM130 38h3v1H130zM134 38h3v1H134zM138 38h3v1H138zM142 38h3v1H142zM146 38h3v1H146zM150 38h3v1H150zM154 38h3v1H154zM158 38h3v1H158zM162 38h3v1H162zM166 38h3v1H166zM170 38h3v1H170zM174 38h3v1H174zM178 38h3v1H178zM182 38h3v1H182zM186 38h1v1H186zM188 38h1v1H188zM190 38h1v1H190zM192 38h1v1H192zM194 38h1v1H194zM196 38h1v1H196zM198 38h1v1H198zM200 38h1v1H200zM202 38h1v1H202zM204 38h1v1H204zM206 38h1v1H206zM208 38h1v1H208zM210 38h1v1H210zM212 38h1v1H212zM214 38h1v1H214zM216 38h1v1H216zM218 38h1v1H218zM220 38h1v1H220zM222 38h1v1H222zM224 38h1v1H224zM226 38h1v1H226zM228 38h1v1H228zM230 38h1v1H230zM232 38h1v1H232zM234 38h1v1H234zM236 38h1v1H236zM238 38h1v1H238zM240 38h1v1H240zM242 38h1v1H242zM244 38h1v1H244zM246 38h1v1H246zM248 38h1v1H248zM250 38h1v1H250zM252 38h1v1H252zM254 38h1v1H254zM256 38h1v1H256zM258 38h1v1H258zM260 38h1v1H260zM262 38h1v1H262zM264 38h1v1H264zM277 38h1v1H277zM281 38h3v1H281zM286 38h2v1H286zM294 38h1v1H294zM1 39h1v1H1zM106 39h1v1H106zM112 39h1v1H112zM118 39h1v1H118zM122 39h1v1H122zM130 39h3v1H130zM134 39h3v1H134zM138 39h3v1H138zM142 39h3v1H142zM146 39h3v1H146zM150 39h3v1H150zM154 39h3v1H154zM158 39h3v1H158zM162 39h3v1H162zM166 39h3v1H166zM170 39h3v1H170zM174 39h3v1H174zM178 39h3v1H178zM182 39h3v1H182zM186 39h1v1H186zM188 39h1v1H188zM190 39h1v1H190zM192 39h1v1H192zM194 39h1v1H194zM196 39h1v1H196zM198 39h1v1H198zM200 39h1v1H200zM202 39h1v1H202zM204 39h1v1H204zM206 39h1v1H206zM208 39h1v1H208zM210 39h1v1H210zM212 39h1v1H212zM214 39h1v1H214zM216 39h1v1H216zM218 39h1v1H218zM220 39h1v1H220zM222 39h1v1H222zM224 39h1v1H224zM226 39h1v1H226zM228 39h1v1H228zM230 39h1v1H230zM232 39h1v1H232zM234 39h1v1H234zM236 39h1v1H236zM238 39h1v1H238zM240 39h1v1H240zM242 39h1v1H242zM244 39h1v1H244zM246 39h1v1H246zM248 39h1v1H248zM250 39h1v1H250zM252 39h1v1H252zM254 39h1v1H254zM256 39h1v1H256zM258 39h1v1H258zM260 39h1v1H260zM262 39h1v1H262zM264 39h1v1H264zM276 39h2v1H276zM280 39h1v1H280zM284 39h1v1H284zM286 39h2v1H286zM290 39h1v1H290zM294 39h1v1H294zM1 40h1v1H1zM106 40h1v1H106zM112 40h4v1H112zM118 40h1v1H118zM122 40h1v1H122zM130 40h3v1H130zM134 40h3v1H134zM138 40h3v1H138zM142 40h3v1H142zM146 40h3v1H146zM150 40h3v1H150zM154 40h3v1H154zM158 40h3v1H158zM162 40h3v1H162zM166 40h3v1H166zM170 40h3v1H170zM174 40h3v1H174zM178 40h3v1H178zM182 40h3v1H182zM186 40h1v1H186zM188 40h1v1H188zM190 40h1v1H190zM192 40h1v1H192zM194 40h1v1H194zM196 40h1v1H196zM198 40h1v1H198zM200 40h1v1H200zM202 40h1v1H202zM204 40h1v1H204zM206 40h1v1H206zM208 40h1v1H208zM210 40h1v1H210zM212 40h1v1H212zM214 40h1v1H214zM216 40h1v1H216zM218 40h1v1H218zM220 40h1v1H220zM222 40h1v1H222zM224 40h1v1H224zM226 40h1v1H226zM228 40h1v1H228zM230 40h1v1H230zM232 40h1v1H232zM234 40h1v1H234zM236 40h1v1H236zM238 40h1v1H238zM240 40h1v1H240zM242 40h1v1H242zM244 40h1v1H244zM246 40h1v1H246zM248 40h1v1H248zM250 40h1v1H250zM252 40h1v1H252zM254 40h1v1H254zM256 40h1v1H256zM258 40h1v1H258zM260 40h1v1H260zM262 40h1v1H262zM264 40h1v1H264zM275 40h1v1H275zM277 40h1v1H277zM284 40h1v1H284zM289 40h1v1H289zM294 40h1v1H294zM1 41h1v1H1zM106 41h1v1H106zM116 41h1v1H116zM118 41h5v1H118zM130 41h3v1H130zM134 41h3v1H134zM138 41h3v1H138zM142 41h3v1H142zM146 41h3v1H146zM150 41h3v1H150zM154 41h3v1H154zM158 41h3v1H158zM162 41h3v1H162zM166 41h3v1H166zM170 41h3v1H170zM174 41h3v1H174zM178 41h3v1H178zM182 41h3v1H182zM186 41h1v1H186zM188 41h1v1H188zM190 41h1v1H190zM192 41h1v1H192zM194 41h1v1H194zM196 41h1v1H196zM198 41h1v1H198zM200 41h1v1H200zM202 41h1v1H202zM204 41h1v1H204zM206 41h1v1H206zM208 41h1v1H208zM210 41h1v1H210zM212 41h1v1H212zM214 41h1v1H214zM216 41h1v1H216zM218 41h1v1H218zM220 41h1v1H220zM222 41h1v1H222zM224 41h1v1H224zM226 41h1v1H226zM228 41h1v1H228zM230 41h1v1H230zM232 41h1v1H232zM234 41h1v1H234zM236 41h1v1H236zM238 41h1v1H238zM240 41h1v1H240zM242 41h1v1H242zM244 41h1v1H244zM246 41h1v1H246zM248 41h1v1H248zM250 41h1v1H250zM252 41h1v1H252zM254 41h1v1H254zM256 41h1v1H256zM258 41h1v1H258zM260 41h1v1H260zM262 41h1v1H262zM264 41h1v1H264zM274 41h1v1H274zM277 41h1v1H277zM283 41h1v1H283zM288 41h1v1H288zM294 41h1v1H294zM1 42h1v1H1zM106 42h1v1H106zM116 42h1v1H116zM118 42h1v1H118zM122 42h1v1H122zM130 42h3v1H130zM134 42h3v1H134zM138 42h3v1H138zM142 42h3v1H142zM146 42h3v1H146zM150 42h3v1H150zM154 42h3v1H154zM158 42h3v1H158zM162 42h3v1H162zM166 42h3v1H166zM170 42h3v1H170zM174 42h3v1H174zM178 42h3v1H178zM182 42h3v1H182zM186 42h1v1H186zM188 42h1v1H188zM190 42h1v1H190zM192 42h1v1H192zM194 42h1v1H194zM196 42h1v1H196zM198 42h1v1H198zM200 42h1v1H200zM202 42h1v1H202zM204 42h1v1H204zM206 42h1v1H206zM208 42h1v1H208zM210 42h1v1H210zM212 42h1v1H212zM214 42h1v1H214zM216 42h1v1H216zM218 42h1v1H218zM220 42h1v1H220zM222 42h1v1H222zM224 42h1v1H224zM226 42h1v1H226zM228 42h1v1H228zM230 42h1v1H230zM232 42h1v1H232zM234 42h1v1H234zM236 42h1v1H236zM238 42h1v1H238zM240 42h1v1H240zM242 42h1v1H242zM244 42h1v1H244zM246 42h1v1H246zM248 42h1v1H248zM250 42h1v1H250zM252 42h1v1H252zM254 42h1v1H254zM256 42h1v1H256zM258 42h1v1H258zM260 42h1v1H260zM262 42h1v1H262zM264 42h1v1H264zM274 42h5v1H274zM282 42h1v1H282zM287 42h1v1H287zM294 42h1v1H294zM1 43h1v1H1zM90 43h10v1H90zM106 43h1v1H106zM112 43h1v1H112zM116 43h1v1H116zM118 43h1v1H118zM122 43h1v1H122zM130 43h3v1H130zM134 43h3v1H134zM138 43h3v1H138zM142 43h3v1H142zM146 43h3v1H146zM150 43h3v1H150zM154 43h3v1H154zM158 43h3v1H158zM162 43h3v1H162zM166 43h3v1H166zM170 43h3v1H170zM174 43h3v1H174zM178 43h3v1H178zM182 43h3v1H182zM186 43h1v1H186zM188 43h1v1H188zM190 43h1v1H190zM192 43h1v1H192zM194 43h1v1H194zM196 43h1v1H196zM198 43h1v1H198zM200 43h1v1H200zM202 43h1v1H202zM204 43h1v1H204zM206 43h1v1H206zM208 43h1v1H208zM210 43h1v1H210zM212 43h1v1H212zM214 43h1v1H214zM216 43h1v1H216zM218 43h1v1H218zM220 43h1v1H220zM222 43h1v1H222zM224 43h1v1H224zM226 43h1v1H226zM228 43h1v1H228zM230 43h1v1H230zM232 43h1v1H232zM234 43h1v1H234zM236 43h1v1H236zM238 43h1v1H238zM240 43h1v1H240zM242 43h1v1H242zM244 43h1v1H244zM246 43h1v1H246zM248 43h1v1H248zM250 43h1v1H250zM252 43h1v1H252zM254 43h1v1H254zM256 43h1v1H256zM258 43h1v1H258zM260 43h1v1H260zM262 43h1v1H262zM264 43h1v1H264zM277 43h1v1H277zM281 43h1v1H281zM286 43h1v1H286zM289 43h2v1H289zM294 43h1v1H294zM1 44h1v1H1zM90 44h10v1H90zM106 44h1v1H106zM113 44h3v1H113zM118 44h1v1H118zM122 44h1v1H122zM130 44h3v1H130zM134 44h3v1H134zM138 44h3v1H138zM142 44h3v1H142zM146 44h3v1H146zM150 44h3v1H150zM154 44h3v1H154zM158 44h3v1H158zM162 44h3v1H162zM166 44h3v1H166zM170 44h3v1H170zM174 44h3v1H174zM178 44h3v1H178zM182 44h3v1H182zM186 44h1v1H186zM188 44h1v1H188zM190 44h1v1H190zM192 44h1v1H192zM194 44h1v1H194zM196 44h1v1H196zM198 44h1v1H198zM200 44h1v1H200zM202 44h1v1H202zM204 44h1v1H204zM206 44h1v1H206zM208 44h1v1H208zM210 44h1v1H210zM212 44h1v1H212zM214 44h1v1H214zM216 44h1v1H216zM218 44h1v1H218zM220 44h1v1H220zM222 44h1v1H222zM224 44h1v1H224zM226 44h1v1H226zM228 44h1v1H228zM230 44h1v1H230zM232 44h1v1H232zM234 44h1v1H234zM236 44h1v1H236zM238 44h1v1H238zM240 44h1v1H240zM242 44h1v1H242zM244 44h1v1H244zM246 44h1v1H246zM248 44h1v1H248zM250 44h1v1H250zM252 44h1v1H252zM254 44h1v1H254zM256 44h1v1H256zM258 44h1v1H258zM260 44h1v1H260zM262 44h1v1H262zM264 44h1v1H264zM277 44h1v1H277zM280 44h5v1H280zM289 44h2v1H289zM294 44h1v1H294zM1 45h1v1H1zM7 45h2v1H7zM13 45h2v1H13zM96 45h2v1H96zM106 45h1v1H106zM130 45h3v1H130zM134 45h3v1H134zM138 45h3v1H138zM142 45h3v1H142zM146 45h3v1H146zM150 45h3v1H150zM154 45h3v1H154zM158 45h3v1H158zM162 45h3v1H162zM166 45h3v1H166zM170 45h3v1H170zM174 45h3v1H174zM178 45h3v1H178zM182 45h3v1H182zM186 45h1v1H186zM188 45h1v1H188zM190 45h1v1H190zM192 45h1v1H192zM194 45h1v1H194zM196 45h1v1H196zM198 45h1v1H198zM200 45h1v1H200zM202 45h1v1H202zM204 45h1v1H204zM206 45h1v1H206zM208 45h1v1H208zM210 45h1v1H210zM212 45h1v1H212zM214 45h1v1H214zM216 45h1v1H216zM218 45h1v1H218zM220 45h1v1H220zM222 45h1v1H222zM224 45h1v1H224zM226 45h1v1H226zM228 45h1v1H228zM230 45h1v1H230zM232 45h1v1H232zM234 45h1v1H234zM236 45h1v1H236zM238 45h1v1H238zM240 45h1v1H240zM242 45h1v1H242zM244 45h1v1H244zM246 45h1v1H246zM248 45h1v1H248zM250 45h1v1H250zM252 45h1v1H252zM254 45h1v1H254zM256 45h1v1H256zM258 45h1v1H258zM260 45h1v1H260zM262 45h1v1H262zM264 45h1v1H264zM294 45h1v1H294zM1 46h1v1H1zM7 46h2v1H7zM13 46h2v1H13zM22 46h4v1H22zM28 46h4v1H28zM96 46h2v1H96zM106 46h1v1H106zM130 46h3v1H130zM134 46h3v1H134zM138 46h3v1H138zM142 46h3v1H142zM146 46h3v1H146zM150 46h3v1H150zM154 46h3v1H154zM158 46h3v1H158zM162 46h3v1H162zM166 46h3v1H166zM170 46h3v1H170zM174 46h3v1H174zM178 46h3v1H178zM182 46h3v1H182zM186 46h3v1H186zM190 46h3v1H190zM194 46h3v1H194zM198 46h3v1H198zM202 46h3v1H202zM206 46h3v1H206zM210 46h3v1H210zM214 46h3v1H214zM218 46h3v1H218zM222 46h3v1H222zM226 46h3v1H226zM230 46h3v1H230zM234 46h3v1H234zM238 46h3v1H238zM242 46h3v1H242zM246 46h3v1H246zM250 46h3v1H250zM254 46h3v1H254zM258 46h3v1H258zM262 46h3v1H262zM294 46h1v1H294zM1 47h1v1H1zM7 47h1v1H7zM14 47h1v1H14zM22 47h1v1H22zM26 47h1v1H26zM28 47h1v1H28zM32 47h1v1H32zM94 47h2v1H94zM106 47h1v1H106zM294 47h1v1H294zM1 48h1v1H1zM7 48h1v1H7zM14 48h1v1H14zM22 48h1v1H22zM26 48h1v1H26zM28 48h1v1H28zM32 48h1v1H32zM35 48h3v1H35zM94 48h2v1H94zM106 48h1v1H106zM294 48h1v1H294zM1 49h1v1H1zM7 49h1v1H7zM10 49h1v1H10zM14 49h1v1H14zM22 49h4v1H22zM28 49h4v1H28zM34 49h1v1H34zM96 49h2v1H96zM106 49h1v1H106zM294 49h1v1H294zM1 50h1v1H1zM7 50h1v1H7zM10 50h4v1H10zM22 50h1v1H22zM28 50h1v1H28zM30 50h1v1H30zM35 50h3v1H35zM96 50h2v1H96zM106 50h1v1H106zM294 50h1v1H294zM1 51h1v1H1zM7 51h1v1H7zM22 51h1v1H22zM28 51h1v1H28zM31 51h1v1H31zM38 51h1v1H38zM98 51h2v1H98zM106 51h1v1H106zM130 51h3v1H130zM134 51h3v1H134zM138 51h3v1H138zM142 51h3v1H142zM146 51h3v1H146zM150 51h3v1H150zM154 51h3v1H154zM158 51h3v1H158zM162 51h3v1H162zM166 51h3v1H166zM170 51h3v1H170zM174 51h3v1H174zM178 51h3v1H178zM182 51h3v1H182zM186 51h3v1H186zM190 51h3v1H190zM194 51h3v1H194zM198 51h3v1H198zM202 51h3v1H202zM206 51h3v1H206zM210 51h3v1H210zM214 51h3v1H214zM218 51h3v1H218zM222 51h3v1H222zM226 51h3v1H226zM230 51h3v1H230zM234 51h3v1H234zM238 51h3v1H238zM242 51h3v1H242zM246 51h3v1H246zM250 51h3v1H250zM254 51h3v1H254zM258 51h3v1H258zM262 51h3v1H262zM294 51h1v1H294zM1 52h1v1H1zM7 52h1v1H7zM22 52h1v1H22zM28 52h1v1H28zM32 52h1v1H32zM34 52h4v1H34zM98 52h2v1H98zM106 52h1v1H106zM112 52h1v1H112zM116 52h1v1H116zM118 52h1v1H118zM122 52h1v1H122zM130 52h3v1H130zM134 52h3v1H134zM138 52h3v1H138zM142 52h3v1H142zM146 52h3v1H146zM150 52h3v1H150zM154 52h3v1H154zM158 52h3v1H158zM162 52h1v1H162zM164 52h1v1H164zM166 52h1v1H166zM168 52h1v1H168zM170 52h1v1H170zM172 52h1v1H172zM174 52h1v1H174zM176 52h1v1H176zM178 52h1v1H178zM180 52h1v1H180zM182 52h1v1H182zM184 52h1v1H184zM186 52h1v1H186zM188 52h1v1H188zM190 52h1v1H190zM192 52h1v1H192zM194 52h1v1H194zM196 52h1v1H196zM198 52h1v1H198zM200 52h1v1H200zM202 52h1v1H202zM204 52h1v1H204zM206 52h1v1H206zM208 52h1v1H208zM210 52h1v1H210zM212 52h1v1H212zM214 52h1v1H214zM216 52h1v1H216zM218 52h1v1H218zM220 52h1v1H220zM222 52h1v1H222zM224 52h1v1H224zM226 52h1v1H226zM228 52h1v1H228zM230 52h1v1H230zM232 52h1v1H232zM234 52h1v1H234zM236 52h1v1H236zM238 52h1v1H238zM240 52h1v1H240zM242 52h1v1H242zM244 52h1v1H244zM246 52h1v1H246zM248 52h1v1H248zM250 52h1v1H250zM252 52h1v1H252zM254 52h1v1H254zM256 52h1v1H256zM258 52h1v1H258zM260 52h1v1H260zM262 52h1v1H262zM264 52h1v1H264zM275 52h3v1H275zM283 52h1v1H283zM286 52h2v1H286zM294 52h1v1H294zM1 53h1v1H1zM7 53h2v1H7zM90 53h2v1H90zM98 53h2v1H98zM106 53h1v1H106zM112 53h1v1H112zM116 53h1v1H116zM118 53h1v1H118zM121 53h1v1H121zM130 53h3v1H130zM134 53h3v1H134zM138 53h3v1H138zM142 53h3v1H142zM146 53h3v1H146zM150 53h3v1H150zM154 53h3v1H154zM158 53h3v1H158zM162 53h1v1H162zM164 53h1v1H164zM166 53h1v1H166zM168 53h1v1H168zM170 53h1v1H170zM172 53h1v1H172zM174 53h1v1H174zM176 53h1v1H176zM178 53h1v1H178zM180 53h1v1H180zM182 53h1v1H182zM184 53h1v1H184zM186 53h1v1H186zM188 53h1v1H188zM190 53h1v1H190zM192 53h1v1H192zM194 53h1v1H194zM196 53h1v1H196zM198 53h1v1H198zM200 53h1v1H200zM202 53h1v1H202zM204 53h1v1H204zM206 53h1v1H206zM208 53h1v1H208zM210 53h1v1H210zM212 53h1v1H212zM214 53h1v1H214zM216 53h1v1H216zM218 53h1v1H218zM220 53h1v1H220zM222 53h1v1H222zM224 53h1v1H224zM226 53h1v1H226zM228 53h1v1H228zM230 53h1v1H230zM232 53h1v1H232zM234 53h1v1H234zM236 53h1v1H236zM238 53h1v1H238zM240 53h1v1H240zM242 53h1v1H242zM244 53h1v1H244zM246 53h1v1H246zM248 53h1v1H248zM250 53h1v1H250zM252 53h1v1H252zM254 53h1v1H254zM256 53h1v1H256zM258 53h1v1H258zM260 53h1v1H260zM262 53h1v1H262zM264 53h1v1H264zM274 53h1v1H274zM278 53h1v1H278zM282 53h2v1H282zM286 53h2v1H286zM290 53h1v1H290zM294 53h1v1H294zM1 54h1v1H1zM7 54h2v1H7zM90 54h2v1H90zM98 54h2v1H98zM106 54h1v1H106zM112 54h1v1H112zM116 54h1v1H116zM118 54h1v1H118zM120 54h1v1H120zM130 54h3v1H130zM134 54h3v1H134zM138 54h3v1H138zM142 54h3v1H142zM146 54h3v1H146zM150 54h3v1H150zM154 54h3v1H154zM158 54h3v1H158zM162 54h1v1H162zM164 54h1v1H164zM166 54h1v1H166zM168 54h1v1H168zM170 54h1v1H170zM172 54h1v1H172zM174 54h1v1H174zM176 54h1v1H176zM178 54h1v1H178zM180 54h1v1H180zM182 54h1v1H182zM184 54h1v1H184zM186 54h1v1H186zM188 54h1v1H188zM190 54h1v1H190zM192 54h1v1H192zM194 54h1v1H194zM196 54h1v1H196zM198 54h1v1H198zM200 54h1v1H200zM202 54h1v1H202zM204 54h1v1H204zM206 54h1v1H206zM208 54h1v1H208zM210 54h1v1H210zM212 54h1v1H212zM214 54h1v1H214zM216 54h1v1H216zM218 54h1v1H218zM220 54h1v1H220zM222 54h1v1H222zM224 54h1v1H224zM226 54h1v1H226zM228 54h1v1H228zM230 54h1v1H230zM232 54h1v1H232zM234 54h1v1H234zM236 54h1v1H236zM238 54h1v1H238zM240 54h1v1H240zM242 54h1v1H242zM244 54h1v1H244zM246 54h1v1H246zM248 54h1v1H248zM250 54h1v1H250zM252 54h1v1H252zM254 54h1v1H254zM256 54h1v1H256zM258 54h1v1H258zM260 54h1v1H260zM262 54h1v1H262zM264 54h1v1H264zM278 54h1v1H278zM281 54h1v1H281zM283 54h1v1H283zM289 54h1v1H289zM294 54h1v1H294zM1 55h1v1H1zM92 55h6v1H92zM106 55h1v1H106zM112 55h1v1H112zM114 55h1v1H114zM116 55h1v1H116zM118 55h2v1H118zM130 55h3v1H130zM134 55h3v1H134zM138 55h3v1H138zM142 55h3v1H142zM146 55h3v1H146zM150 55h3v1H150zM154 55h3v1H154zM158 55h3v1H158zM162 55h1v1H162zM164 55h1v1H164zM166 55h1v1H166zM168 55h1v1H168zM170 55h1v1H170zM172 55h1v1H172zM174 55h1v1H174zM176 55h1v1H176zM178 55h1v1H178zM180 55h1v1H180zM182 55h1v1H182zM184 55h1v1H184zM186 55h1v1H186zM188 55h1v1H188zM190 55h1v1H190zM192 55h1v1H192zM194 55h1v1H194zM196 55h1v1H196zM198 55h1v1H198zM200 55h1v1H200zM202 55h1v1H202zM204 55h1v1H204zM206 55h1v1H206zM208 55h1v1H208zM210 55h1v1H210zM212 55h1v1H212zM214 55h1v1H214zM216 55h1v1H216zM218 55h1v1H218zM220 55h1v1H220zM222 55h1v1H222zM224 55h1v1H224zM226 55h1v1H226zM228 55h1v1H228zM230 55h1v1H230zM232 55h1v1H232zM234 55h1v1H234zM236 55h1v1H236zM238 55h1v1H238zM240 55h1v1H240zM242 55h1v1H242zM244 55h1v1H244zM246 55h1v1H246zM248 55h1v1H248zM250 55h1v1H250zM252 55h1v1H252zM254 55h1v1H254zM256 55h1v1H256zM258 55h1v1H258zM260 55h1v1H260zM262 55h1v1H262zM264 55h1v1H264zM277 55h1v1H277zM280 55h1v1H280zM283 55h1v1H283zM288 55h1v1H288zM294 55h1v1H294zM1 56h1v1H1zM92 56h6v1H92zM106 56h1v1H106zM112 56h1v1H112zM114 56h1v1H114zM116 56h1v1H116zM118 56h1v1H118zM120 56h1v1H120zM130 56h3v1H130zM134 56h3v1H134zM138 56h3v1H138zM142 56h3v1H142zM146 56h3v1H146zM150 56h3v1H150zM154 56h3v1H154zM158 56h3v1H158zM162 56h1v1H162zM164 56h1v1H164zM166 56h1v1H166zM168 56h1v1H168zM170 56h1v1H170zM172 56h1v1H172zM174 56h1v1H174zM176 56h1v1H176zM178 56h1v1H178zM180 56h1v1H180zM182 56h1v1H182zM184 56h1v1H184zM186 56h1v1H186zM188 56h1v1H188zM190 56h1v1H190zM192 56h1v1H192zM194 56h1v1H194zM196 56h1v1H196zM198 56h1v1H198zM200 56h1v1H200zM202 56h1v1H202zM204 56h1v1H204zM206 56h1v1H206zM208 56h1v1H208zM210 56h1v1H210zM212 56h1v1H212zM214 56h1v1H214zM216 56h1v1H216zM218 56h1v1H218zM220 56h1v1H220zM222 56h1v1H222zM224 56h1v1H224zM226 56h1v1H226zM228 56h1v1H228zM230 56h1v1H230zM232 56h1v1H232zM234 56h1v1H234zM236 56h1v1H236zM238 56h1v1H238zM240 56h1v1H240zM242 56h1v1H242zM244 56h1v1H244zM246 56h1v1H246zM248 56h1v1H248zM250 56h1v1H250zM252 56h1v1H252zM254 56h1v1H254zM256 56h1v1H256zM258 56h1v1H258zM260 56h1v1H260zM262 56h1v1H262zM264 56h1v1H264zM276 56h1v1H276zM280 56h5v1H280zM287 56h1v1H287zM294 56h1v1H294zM1 57h1v1H1zM106 57h1v1H106zM112 57h1v1H112zM114 57h1v1H114zM116 57h1v1H116zM118 57h1v1H118zM121 57h1v1H121zM130 57h3v1H130zM134 57h3v1H134zM138 57h3v1H138zM142 57h3v1H142zM146 57h3v1H146zM150 57h3v1H150zM154 57h3v1H154zM158 57h3v1H158zM162 57h1v1H162zM164 57h1v1H164zM166 57h1v1H166zM168 57h1v1H168zM170 57h1v1H170zM172 57h1v1H172zM174 57h1v1H174zM176 57h1v1H176zM178 57h1v1H178zM180 57h1v1H180zM182 57h1v1H182zM184 57h1v1H184zM186 57h1v1H186zM188 57h1v1H188zM190 57h1v1H190zM192 57h1v1H192zM194 57h1v1H194zM196 57h1v1H196zM198 57h1v1H198zM200 57h1v1H200zM202 57h1v1H202zM204 57h1v1H204zM206 57h1v1H206zM208 57h1v1H208zM210 57h1v1H210zM212 57h1v1H212zM214 57h1v1H214zM216 57h1v1H216zM218 57h1v1H218zM220 57h1v1H220zM222 57h1v1H222zM224 57h1v1H224zM226 57h1v1H226zM228 57h1v1H228zM230 57h1v1H230zM232 57h1v1H232zM234 57h1v1H234zM236 57h1v1H236zM238 57h1v1H238zM240 57h1v1H240zM242 57h1v1H242zM244 57h1v1H244zM246 57h1v1H246zM248 57h1v1H248zM250 57h1v1H250zM252 57h1v1H252zM254 57h1v1H254zM256 57h1v1H256zM258 57h1v1H258zM260 57h1v1H260zM262 57h1v1H262zM264 57h1v1H264zM275 57h1v1H275zM283 57h1v1H283zM286 57h1v1H286zM289 57h2v1H289zM294 57h1v1H294zM1 58h1v1H1zM106 58h1v1H106zM113 58h1v1H113zM115 58h1v1H115zM118 58h1v1H118zM122 58h1v1H122zM130 58h3v1H130zM134 58h3v1H134zM138 58h3v1H138zM142 58h3v1H142zM146 58h3v1H146zM150 58h3v1H150zM154 58h3v1H154zM158 58h3v1H158zM162 58h1v1H162zM164 58h1v1H164zM166 58h1v1H166zM168 58h1v1H168zM170 58h1v1H170zM172 58h1v1H172zM174 58h1v1H174zM176 58h1v1H176zM178 58h1v1H178zM180 58h1v1H180zM182 58h1v1H182zM184 58h1v1H184zM186 58h1v1H186zM188 58h1v1H188zM190 58h1v1H190zM192 58h1v1H192zM194 58h1v1H194zM196 58h1v1H196zM198 58h1v1H198zM200 58h1v1H200zM202 58h1v1H202zM204 58h1v1H204zM206 58h1v1H206zM208 58h1v1H208zM210 58h1v1H210zM212 58h1v1H212zM214 58h1v1H214zM216 58h1v1H216zM218 58h1v1H218zM220 58h1v1H220zM222 58h1v1H222zM224 58h1v1H224zM226 58h1v1H226zM228 58h1v1H228zM230 58h1v1H230zM232 58h1v1H232zM234 58h1v1H234zM236 58h1v1H236zM238 58h1v1H238zM240 58h1v1H240zM242 58h1v1H242zM244 58h1v1H244zM246 58h1v1H246zM248 58h1v1H248zM250 58h1v1H250zM252 58h1v1H252zM254 58h1v1H254zM256 58h1v1H256zM258 58h1v1H258zM260 58h1v1H260zM262 58h1v1H262zM264 58h1v1H264zM274 58h5v1H274zM283 58h1v1H283zM289 58h2v1H289zM294 58h1v1H294zM1 59h1v1H1zM106 59h1v1H106zM130 59h3v1H130zM134 59h3v1H134zM138 59h3v1H138zM142 59h3v1H142zM146 59h3v1H146zM150 59h3v1H150zM154 59h3v1H154zM158 59h3v1H158zM162 59h1v1H162zM164 59h1v1H164zM166 59h1v1H166zM168 59h1v1H168zM170 59h1v1H170zM172 59h1v1H172zM174 59h1v1H174zM176 59h1v1H176zM178 59h1v1H178zM180 59h1v1H180zM182 59h1v1H182zM184 59h1v1H184zM186 59h1v1H186zM188 59h1v1H188zM190 59h1v1H190zM192 59h1v1H192zM194 59h1v1H194zM196 59h1v1H196zM198 59h1v1H198zM200 59h1v1H200zM202 59h1v1H202zM204 59h1v1H204zM206 59h1v1H206zM208 59h1v1H208zM210 59h1v1H210zM212 59h1v1H212zM214 59h1v1H214zM216 59h1v1H216zM218 59h1v1H218zM220 59h1v1H220zM222 59h1v1H222zM224 59h1v1H224zM226 59h1v1H226zM228 59h1v1H228zM230 59h1v1H230zM232 59h1v1H232zM234 59h1v1H234zM236 59h1v1H236zM238 59h1v1H238zM240 59h1v1H240zM242 59h1v1H242zM244 59h1v1H244zM246 59h1v1H246zM248 59h1v1H248zM250 59h1v1H250zM252 59h1v1H252zM254 59h1v1H254zM256 59h1v1H256zM258 59h1v1H258zM260 59h1v1H260zM262 59h1v1H262zM264 59h1v1H264zM294 59h1v1H294zM1 60h1v1H1zM106 60h1v1H106zM130 60h3v1H130zM134 60h3v1H134zM138 60h3v1H138zM142 60h3v1H142zM146 60h3v1H146zM150 60h3v1H150zM154 60h3v1H154zM158 60h3v1H158zM162 60h3v1H162zM166 60h3v1H166zM170 60h3v1H170zM174 60h3v1H174zM178 60h3v1H178zM182 60h3v1H182zM186 60h3v1H186zM190 60h3v1H190zM194 60h3v1H194zM198 60h3v1H198zM202 60h3v1H202zM206 60h3v1H206zM210 60h3v1H210zM214 60h3v1H214zM218 60h3v1H218zM222 60h3v1H222zM226 60h3v1H226zM230 60h3v1H230zM234 60h3v1H234zM238 60h3v1H238zM242 60h3v1H242zM246 60h3v1H246zM250 60h3v1H250zM254 60h3v1H254zM258 60h3v1H258zM262 60h3v1H262zM294 60h1v1H294zM1 61h1v1H1zM106 61h1v1H106zM294 61h1v1H294zM1 62h1v1H1zM106 62h1v1H106zM294 62h1v1H294zM1 63h1v1H1zM106 63h1v1H106zM294 63h1v1H294zM1 64h1v1H1zM106 64h1v1H106zM294 64h1v1H294zM1 65h1v1H1zM106 65h1v1H106zM294 65h1v1H294zM1 66h1v1H1zM106 66h1v1H106zM113 66h3v1H113zM119 66h3v1H119zM124 66h3v1H124zM130 66h5v1H130zM136 66h1v1H136zM140 66h1v1H140zM217 66h7v1H217zM229 66h3v1H229zM234 66h1v1H234zM240 66h5v1H240zM247 66h3v1H247zM262 66h5v1H262zM272 66h1v1H272zM276 66h1v1H276zM281 66h3v1H281zM286 66h1v1H286zM294 66h1v1H294zM1 67h1v1H1zM106 67h1v1H106zM112 67h1v1H112zM116 67h1v1H116zM118 67h1v1H118zM122 67h1v1H122zM124 67h1v1H124zM127 67h1v1H127zM130 67h1v1H130zM136 67h1v1H136zM140 67h1v1H140zM218 67h5v1H218zM228 67h1v1H228zM232 67h1v1H232zM234 67h1v1H234zM243 67h1v1H243zM246 67h1v1H246zM250 67h1v1H250zM258 67h1v1H258zM265 67h1v1H265zM272 67h1v1H272zM275 67h2v1H275zM280 67h1v1H280zM284 67h1v1H284zM286 67h1v1H286zM294 67h1v1H294zM1 68h1v1H1zM22 68h3v1H22zM28 68h5v1H28zM34 68h4v1H34zM41 68h4v1H41zM106 68h1v1H106zM112 68h1v1H112zM118 68h1v1H118zM122 68h1v1H122zM124 68h1v1H124zM128 68h1v1H128zM130 68h1v1H130zM137 68h1v1H137zM139 68h1v1H139zM219 68h3v1H219zM228 68h1v1H228zM231 68h2v1H231zM234 68h1v1H234zM236 68h2v1H236zM242 68h1v1H242zM246 68h1v1H246zM249 68h2v1H249zM257 68h1v1H257zM264 68h1v1H264zM269 68h2v1H269zM272 68h1v1H272zM276 68h1v1H276zM284 68h1v1H284zM286 68h1v1H286zM288 68h2v1H288zM294 68h1v1H294zM1 69h1v1H1zM22 69h1v1H22zM25 69h1v1H25zM28 69h1v1H28zM34 69h1v1H34zM38 69h1v1H38zM40 69h1v1H40zM106 69h1v1H106zM112 69h1v1H112zM118 69h1v1H118zM122 69h1v1H122zM124 69h1v1H124zM128 69h1v1H128zM130 69h4v1H130zM138 69h1v1H138zM220 69h1v1H220zM228 69h1v1H228zM230 69h1v1H230zM232 69h1v1H232zM234 69h2v1H234zM238 69h1v1H238zM243 69h1v1H243zM246 69h1v1H246zM248 69h1v1H248zM250 69h1v1H250zM256 69h1v1H256zM265 69h1v1H265zM268 69h1v1H268zM271 69h2v1H271zM276 69h1v1H276zM283 69h1v1H283zM286 69h2v1H286zM290 69h1v1H290zM294 69h1v1H294zM1 70h1v1H1zM22 70h1v1H22zM26 70h1v1H26zM28 70h1v1H28zM34 70h1v1H34zM38 70h1v1H38zM40 70h1v1H40zM106 70h1v1H106zM112 70h1v1H112zM118 70h1v1H118zM122 70h1v1H122zM124 70h1v1H124zM128 70h1v1H128zM130 70h1v1H130zM137 70h1v1H137zM139 70h1v1H139zM219 70h3v1H219zM228 70h2v1H228zM232 70h1v1H232zM234 70h1v1H234zM238 70h1v1H238zM244 70h1v1H244zM246 70h2v1H246zM250 70h1v1H250zM255 70h1v1H255zM266 70h1v1H266zM268 70h1v1H268zM272 70h1v1H272zM276 70h1v1H276zM282 70h1v1H282zM286 70h1v1H286zM290 70h1v1H290zM294 70h1v1H294zM1 71h1v1H1zM22 71h1v1H22zM26 71h1v1H26zM28 71h4v1H28zM34 71h4v1H34zM41 71h3v1H41zM106 71h1v1H106zM112 71h1v1H112zM116 71h1v1H116zM118 71h1v1H118zM122 71h1v1H122zM124 71h1v1H124zM127 71h1v1H127zM130 71h1v1H130zM136 71h1v1H136zM140 71h1v1H140zM218 71h5v1H218zM228 71h1v1H228zM232 71h1v1H232zM234 71h1v1H234zM238 71h1v1H238zM240 71h1v1H240zM244 71h1v1H244zM246 71h1v1H246zM250 71h1v1H250zM254 71h1v1H254zM262 71h1v1H262zM266 71h1v1H266zM268 71h1v1H268zM272 71h1v1H272zM276 71h1v1H276zM281 71h1v1H281zM286 71h1v1H286zM290 71h1v1H290zM294 71h1v1H294zM1 72h1v1H1zM22 72h1v1H22zM26 72h1v1H26zM28 72h1v1H28zM34 72h1v1H34zM44 72h1v1H44zM106 72h1v1H106zM113 72h3v1H113zM119 72h3v1H119zM124 72h3v1H124zM130 72h5v1H130zM136 72h1v1H136zM140 72h1v1H140zM217 72h7v1H217zM229 72h3v1H229zM234 72h1v1H234zM238 72h1v1H238zM241 72h3v1H241zM247 72h3v1H247zM263 72h3v1H263zM269 72h4v1H269zM275 72h3v1H275zM280 72h5v1H280zM286 72h1v1H286zM290 72h1v1H290zM294 72h1v1H294zM1 73h1v1H1zM22 73h1v1H22zM25 73h1v1H25zM28 73h1v1H28zM34 73h1v1H34zM44 73h1v1H44zM106 73h1v1H106zM294 73h1v1H294zM1 74h1v1H1zM22 74h3v1H22zM28 74h5v1H28zM34 74h1v1H34zM40 74h4v1H40zM106 74h1v1H106zM294 74h1v1H294zM1 75h1v1H1zM106 75h1v1H106zM294 75h1v1H294zM1 76h1v1H1zM106 76h1v1H106zM294 76h1v1H294zM1 77h1v1H1zM106 77h1v1H106zM294 77h1v1H294zM1 78h1v1H1zM106 78h1v1H106zM294 78h1v1H294zM1 79h1v1H1zM106 79h1v1H106zM294 79h1v1H294zM1 80h1v1H1zM106 80h1v1H106zM294 80h1v1H294zM1 81h1v1H1zM106 81h1v1H106zM294 81h1v1H294zM1 82h1v1H1zM106 82h1v1H106zM294 82h1v1H294zM1 83h1v1H1zM106 83h1v1H106zM130 83h3v1H130zM134 83h3v1H134zM138 83h3v1H138zM142 83h3v1H142zM146 83h3v1H146zM150 83h3v1H150zM154 83h3v1H154zM158 83h3v1H158zM162 83h3v1H162zM166 83h3v1H166zM170 83h3v1H170zM174 83h3v1H174zM178 83h3v1H178zM182 83h3v1H182zM186 83h3v1H186zM190 83h3v1H190zM194 83h3v1H194zM198 83h3v1H198zM202 83h3v1H202zM206 83h3v1H206zM210 83h3v1H210zM214 83h3v1H214zM218 83h3v1H218zM222 83h3v1H222zM226 83h3v1H226zM230 83h3v1H230zM234 83h3v1H234zM238 83h3v1H238zM242 83h3v1H242zM246 83h3v1H246zM250 83h3v1H250zM254 83h3v1H254zM258 83h3v1H258zM262 83h3v1H262zM294 83h1v1H294zM1 84h1v1H1zM106 84h1v1H106zM112 84h5v1H112zM118 84h1v1H118zM122 84h1v1H122zM130 84h3v1H130zM134 84h3v1H134zM138 84h3v1H138zM142 84h3v1H142zM146 84h3v1H146zM150 84h3v1H150zM154 84h3v1H154zM158 84h3v1H158zM162 84h3v1H162zM166 84h3v1H166zM170 84h3v1H170zM174 84h3v1H174zM178 84h3v1H178zM182 84h1v1H182zM184 84h1v1H184zM186 84h1v1H186zM188 84h1v1H188zM190 84h1v1H190zM192 84h1v1H192zM194 84h1v1H194zM196 84h1v1H196zM198 84h1v1H198zM200 84h1v1H200zM202 84h1v1H202zM204 84h1v1H204zM206 84h1v1H206zM208 84h1v1H208zM210 84h1v1H210zM212 84h1v1H212zM214 84h1v1H214zM216 84h1v1H216zM218 84h1v1H218zM220 84h1v1H220zM222 84h1v1H222zM224 84h1v1H224zM226 84h1v1H226zM228 84h1v1H228zM230 84h1v1H230zM232 84h1v1H232zM234 84h1v1H234zM236 84h1v1H236zM238 84h1v1H238zM240 84h1v1H240zM242 84h1v1H242zM244 84h1v1H244zM246 84h1v1H246zM248 84h1v1H248zM250 84h1v1H250zM252 84h1v1H252zM254 84h1v1H254zM256 84h1v1H256zM258 84h1v1H258zM260 84h1v1H260zM262 84h1v1H262zM264 84h1v1H264zM274 84h5v1H274zM280 84h5v1H280zM286 84h2v1H286zM294 84h1v1H294zM1 85h1v1H1zM106 85h1v1H106zM112 85h1v1H112zM118 85h1v1H118zM122 85h1v1H122zM130 85h3v1H130zM134 85h3v1H134zM138 85h3v1H138zM142 85h3v1H142zM146 85h3v1H146zM150 85h3v1H150zM154 85h3v1H154zM158 85h3v1H158zM162 85h3v1H162zM166 85h3v1H166zM170 85h3v1H170zM174 85h3v1H174zM178 85h3v1H178zM182 85h1v1H182zM184 85h1v1H184zM186 85h1v1H186zM188 85h1v1H188zM190 85h1v1H190zM192 85h1v1H192zM194 85h1v1H194zM196 85h1v1H196zM198 85h1v1H198zM200 85h1v1H200zM202 85h1v1H202zM204 85h1v1H204zM206 85h1v1H206zM208 85h1v1H208zM210 85h1v1H210zM212 85h1v1H212zM214 85h1v1H214zM216 85h1v1H216zM218 85h1v1H218zM220 85h1v1H220zM222 85h1v1H222zM224 85h1v1H224zM226 85h1v1H226zM228 85h1v1H228zM230 85h1v1H230zM232 85h1v1H232zM234 85h1v1H234zM236 85h1v1H236zM238 85h1v1H238zM240 85h1v1H240zM242 85h1v1H242zM244 85h1v1H244zM246 85h1v1H246zM248 85h1v1H248zM250 85h1v1H250zM252 85h1v1H252zM254 85h1v1H254zM256 85h1v1H256zM258 85h1v1H258zM260 85h1v1H260zM262 85h1v1H262zM264 85h1v1H264zM277 85h1v1H277zM284 85h1v1H284zM286 85h2v1H286zM290 85h1v1H290zM294 85h1v1H294zM1 86h1v1H1zM106 86h1v1H106zM112 86h4v1H112zM118 86h1v1H118zM122 86h1v1H122zM130 86h3v1H130zM134 86h3v1H134zM138 86h3v1H138zM142 86h3v1H142zM146 86h3v1H146zM150 86h3v1H150zM154 86h3v1H154zM158 86h3v1H158zM162 86h3v1H162zM166 86h3v1H166zM170 86h3v1H170zM174 86h3v1H174zM178 86h3v1H178zM182 86h1v1H182zM184 86h1v1H184zM186 86h1v1H186zM188 86h1v1H188zM190 86h1v1H190zM192 86h1v1H192zM194 86h1v1H194zM196 86h1v1H196zM198 86h1v1H198zM200 86h1v1H200zM202 86h1v1H202zM204 86h1v1H204zM206 86h1v1H206zM208 86h1v1H208zM210 86h1v1H210zM212 86h1v1H212zM214 86h1v1H214zM216 86h1v1H216zM218 86h1v1H218zM220 86h1v1H220zM222 86h1v1H222zM224 86h1v1H224zM226 86h1v1H226zM228 86h1v1H228zM230 86h1v1H230zM232 86h1v1H232zM234 86h1v1H234zM236 86h1v1H236zM238 86h1v1H238zM240 86h1v1H240zM242 86h1v1H242zM244 86h1v1H244zM246 86h1v1H246zM248 86h1v1H248zM250 86h1v1H250zM252 86h1v1H252zM254 86h1v1H254zM256 86h1v1H256zM258 86h1v1H258zM260 86h1v1H260zM262 86h1v1H262zM264 86h1v1H264zM276 86h1v1H276zM283 86h1v1H283zM289 86h1v1H289zM294 86h1v1H294zM1 87h1v1H1zM80 87h6v1H80zM90 87h2v1H90zM98 87h2v1H98zM106 87h1v1H106zM116 87h1v1H116zM118 87h5v1H118zM130 87h3v1H130zM134 87h3v1H134zM138 87h3v1H138zM142 87h3v1H142zM146 87h3v1H146zM150 87h3v1H150zM154 87h3v1H154zM158 87h3v1H158zM162 87h3v1H162zM166 87h3v1H166zM170 87h3v1H170zM174 87h3v1H174zM178 87h3v1H178zM182 87h1v1H182zM184 87h1v1H184zM186 87h1v1H186zM188 87h1v1H188zM190 87h1v1H190zM192 87h1v1H192zM194 87h1v1H194zM196 87h1v1H196zM198 87h1v1H198zM200 87h1v1H200zM202 87h1v1H202zM204 87h1v1H204zM206 87h1v1H206zM208 87h1v1H208zM210 87h1v1H210zM212 87h1v1H212zM214 87h1v1H214zM216 87h1v1H216zM218 87h1v1H218zM220 87h1v1H220zM222 87h1v1H222zM224 87h1v1H224zM226 87h1v1H226zM228 87h1v1H228zM230 87h1v1H230zM232 87h1v1H232zM234 87h1v1H234zM236 87h1v1H236zM238 87h1v1H238zM240 87h1v1H240zM242 87h1v1H242zM244 87h1v1H244zM246 87h1v1H246zM248 87h1v1H248zM250 87h1v1H250zM252 87h1v1H252zM254 87h1v1H254zM256 87h1v1H256zM258 87h1v1H258zM260 87h1v1H260zM262 87h1v1H262zM264 87h1v1H264zM277 87h1v1H277zM282 87h1v1H282zM288 87h1v1H288zM294 87h1v1H294zM1 88h1v1H1zM80 88h6v1H80zM90 88h2v1H90zM98 88h2v1H98zM106 88h1v1H106zM116 88h1v1H116zM118 88h1v1H118zM122 88h1v1H122zM130 88h3v1H130zM134 88h3v1H134zM138 88h3v1H138zM142 88h3v1H142zM146 88h3v1H146zM150 88h3v1H150zM154 88h3v1H154zM158 88h3v1H158zM162 88h3v1H162zM166 88h3v1H166zM170 88h3v1H170zM174 88h3v1H174zM178 88h3v1H178zM182 88h1v1H182zM184 88h1v1H184zM186 88h1v1H186zM188 88h1v1H188zM190 88h1v1H190zM192 88h1v1H192zM194 88h1v1H194zM196 88h1v1H196zM198 88h1v1H198zM200 88h1v1H200zM202 88h1v1H202zM204 88h1v1H204zM206 88h1v1H206zM208 88h1v1H208zM210 88h1v1H210zM212 88h1v1H212zM214 88h1v1H214zM216 88h1v1H216zM218 88h1v1H218zM220 88h1v1H220zM222 88h1v1H222zM224 88h1v1H224zM226 88h1v1H226zM228 88h1v1H228zM230 88h1v1H230zM232 88h1v1H232zM234 88h1v1H234zM236 88h1v1H236zM238 88h1v1H238zM240 88h1v1H240zM242 88h1v1H242zM244 88h1v1H244zM246 88h1v1H246zM248 88h1v1H248zM250 88h1v1H250zM252 88h1v1H252zM254 88h1v1H254zM256 88h1v1H256zM258 88h1v1H258zM260 88h1v1H260zM262 88h1v1H262zM264 88h1v1H264zM278 88h1v1H278zM281 88h1v1H281zM287 88h1v1H287zM294 88h1v1H294zM1 89h1v1H1zM78 89h2v1H78zM86 89h2v1H86zM90 89h2v1H90zM96 89h2v1H96zM106 89h1v1H106zM112 89h1v1H112zM116 89h1v1H116zM118 89h1v1H118zM122 89h1v1H122zM130 89h3v1H130zM134 89h3v1H134zM138 89h3v1H138zM142 89h3v1H142zM146 89h3v1H146zM150 89h3v1H150zM154 89h3v1H154zM158 89h3v1H158zM162 89h3v1H162zM166 89h3v1H166zM170 89h3v1H170zM174 89h3v1H174zM178 89h3v1H178zM182 89h1v1H182zM184 89h1v1H184zM186 89h1v1H186zM188 89h1v1H188zM190 89h1v1H190zM192 89h1v1H192zM194 89h1v1H194zM196 89h1v1H196zM198 89h1v1H198zM200 89h1v1H200zM202 89h1v1H202zM204 89h1v1H204zM206 89h1v1H206zM208 89h1v1H208zM210 89h1v1H210zM212 89h1v1H212zM214 89h1v1H214zM216 89h1v1H216zM218 89h1v1H218zM220 89h1v1H220zM222 89h1v1H222zM224 89h1v1H224zM226 89h1v1H226zM228 89h1v1H228zM230 89h1v1H230zM232 89h1v1H232zM234 89h1v1H234zM236 89h1v1H236zM238 89h1v1H238zM240 89h1v1H240zM242 89h1v1H242zM244 89h1v1H244zM246 89h1v1H246zM248 89h1v1H248zM250 89h1v1H250zM252 89h1v1H252zM254 89h1v1H254zM256 89h1v1H256zM258 89h1v1H258zM260 89h1v1H260zM262 89h1v1H262zM264 89h1v1H264zM274 89h1v1H274zM278 89h1v1H278zM281 89h1v1H281zM286 89h1v1H286zM289 89h2v1H289zM294 89h1v1H294zM1 90h1v1H1zM23 90h3v1H23zM28 90h1v1H28zM32 90h1v1H32zM34 90h5v1H34zM40 90h1v1H40zM44 90h1v1H44zM78 90h2v1H78zM86 90h2v1H86zM90 90h2v1H90zM96 90h2v1H96zM106 90h1v1H106zM113 90h3v1H113zM118 90h1v1H118zM122 90h1v1H122zM130 90h3v1H130zM134 90h3v1H134zM138 90h3v1H138zM142 90h3v1H142zM146 90h3v1H146zM150 90h3v1H150zM154 90h3v1H154zM158 90h3v1H158zM162 90h3v1H162zM166 90h3v1H166zM170 90h3v1H170zM174 90h3v1H174zM178 90h3v1H178zM182 90h1v1H182zM184 90h1v1H184zM186 90h1v1H186zM188 90h1v1H188zM190 90h1v1H190zM192 90h1v1H192zM194 90h1v1H194zM196 90h1v1H196zM198 90h1v1H198zM200 90h1v1H200zM202 90h1v1H202zM204 90h1v1H204zM206 90h1v1H206zM208 90h1v1H208zM210 90h1v1H210zM212 90h1v1H212zM214 90h1v1H214zM216 90h1v1H216zM218 90h1v1H218zM220 90h1v1H220zM222 90h1v1H222zM224 90h1v1H224zM226 90h1v1H226zM228 90h1v1H228zM230 90h1v1H230zM232 90h1v1H232zM234 90h1v1H234zM236 90h1v1H236zM238 90h1v1H238zM240 90h1v1H240zM242 90h1v1H242zM244 90h1v1H244zM246 90h1v1H246zM248 90h1v1H248zM250 90h1v1H250zM252 90h1v1H252zM254 90h1v1H254zM256 90h1v1H256zM258 90h1v1H258zM260 90h1v1H260zM262 90h1v1H262zM264 90h1v1H264zM275 90h3v1H275zM281 90h1v1H281zM289 90h2v1H289zM294 90h1v1H294zM1 91h1v1H1zM22 91h1v1H22zM26 91h1v1H26zM28 91h1v1H28zM32 91h1v1H32zM36 91h1v1H36zM40 91h1v1H40zM44 91h1v1H44zM78 91h2v1H78zM86 91h2v1H86zM90 91h2v1H90zM94 91h2v1H94zM106 91h1v1H106zM130 91h3v1H130zM134 91h3v1H134zM138 91h3v1H138zM142 91h3v1H142zM146 91h3v1H146zM150 91h3v1H150zM154 91h3v1H154zM158 91h3v1H158zM162 91h3v1H162zM166 91h3v1H166zM170 91h3v1H170zM174 91h3v1H174zM178 91h3v1H178zM182 91h1v1H182zM184 91h1v1H184zM186 91h1v1H186zM188 91h1v1H188zM190 91h1v1H190zM192 91h1v1H192zM194 91h1v1H194zM196 91h1v1H196zM198 91h1v1H198zM200 91h1v1H200zM202 91h1v1H202zM204 91h1v1H204zM206 91h1v1H206zM208 91h1v1H208zM210 91h1v1H210zM212 91h1v1H212zM214 91h1v1H214zM216 91h1v1H216zM218 91h1v1H218zM220 91h1v1H220zM222 91h1v1H222zM224 91h1v1H224zM226 91h1v1H226zM228 91h1v1H228zM230 91h1v1H230zM232 91h1v1H232zM234 91h1v1H234zM236 91h1v1H236zM238 91h1v1H238zM240 91h1v1H240zM242 91h1v1H242zM244 91h1v1H244zM246 91h1v1H246zM248 91h1v1H248zM250 91h1v1H250zM252 91h1v1H252zM254 91h1v1H254zM256 91h1v1H256zM258 91h1v1H258zM260 91h1v1H260zM262 91h1v1H262zM264 91h1v1H264zM294 91h1v1H294zM1 92h1v1H1zM6 92h3v1H6zM22 92h1v1H22zM26 92h1v1H26zM28 92h1v1H28zM32 92h1v1H32zM36 92h1v1H36zM40 92h1v1H40zM44 92h1v1H44zM78 92h2v1H78zM86 92h2v1H86zM90 92h2v1H90zM94 92h2v1H94zM106 92h1v1H106zM130 92h3v1H130zM134 92h3v1H134zM138 92h3v1H138zM142 92h3v1H142zM146 92h3v1H146zM150 92h3v1H150zM154 92h3v1H154zM158 92h3v1H158zM162 92h3v1H162zM166 92h3v1H166zM170 92h3v1H170zM174 92h3v1H174zM178 92h3v1H178zM182 92h3v1H182zM186 92h3v1H186zM190 92h3v1H190zM194 92h3v1H194zM198 92h3v1H198zM202 92h3v1H202zM206 92h3v1H206zM210 92h3v1H210zM214 92h3v1H214zM218 92h3v1H218zM222 92h3v1H222zM226 92h3v1H226zM230 92h3v1H230zM234 92h3v1H234zM238 92h3v1H238zM242 92h3v1H242zM246 92h3v1H246zM250 92h3v1H250zM254 92h3v1H254zM258 92h3v1H258zM262 92h3v1H262zM294 92h1v1H294zM1 93h1v1H1zM6 93h1v1H6zM8 93h7v1H8zM22 93h1v1H22zM26 93h1v1H26zM28 93h1v1H28zM32 93h1v1H32zM36 93h1v1H36zM40 93h5v1H40zM78 93h2v1H78zM86 93h2v1H86zM90 93h4v1H90zM106 93h1v1H106zM294 93h1v1H294zM1 94h1v1H1zM6 94h3v1H6zM12 94h1v1H12zM14 94h1v1H14zM22 94h5v1H22zM28 94h1v1H28zM32 94h1v1H32zM36 94h1v1H36zM40 94h1v1H40zM44 94h1v1H44zM78 94h2v1H78zM86 94h2v1H86zM90 94h4v1H90zM106 94h1v1H106zM294 94h1v1H294zM1 95h1v1H1zM12 95h1v1H12zM14 95h1v1H14zM22 95h1v1H22zM26 95h1v1H26zM28 95h1v1H28zM32 95h1v1H32zM36 95h1v1H36zM40 95h1v1H40zM44 95h1v1H44zM78 95h2v1H78zM86 95h2v1H86zM90 95h2v1H90zM94 95h2v1H94zM106 95h1v1H106zM294 95h1v1H294zM1 96h1v1H1zM22 96h1v1H22zM26 96h1v1H26zM29 96h3v1H29zM36 96h1v1H36zM40 96h1v1H40zM44 96h1v1H44zM78 96h2v1H78zM86 96h2v1H86zM90 96h2v1H90zM94 96h2v1H94zM106 96h1v1H106zM294 96h1v1H294zM1 97h1v1H1zM78 97h2v1H78zM86 97h2v1H86zM90 97h2v1H90zM96 97h2v1H96zM106 97h1v1H106zM130 97h3v1H130zM134 97h3v1H134zM138 97h3v1H138zM142 97h3v1H142zM146 97h3v1H146zM150 97h3v1H150zM154 97h3v1H154zM158 97h3v1H158zM162 97h3v1H162zM166 97h3v1H166zM170 97h3v1H170zM174 97h3v1H174zM178 97h3v1H178zM182 97h3v1H182zM186 97h3v1H186zM190 97h3v1H190zM194 97h3v1H194zM198 97h3v1H198zM202 97h3v1H202zM206 97h3v1H206zM210 97h3v1H210zM214 97h3v1H214zM218 97h3v1H218zM222 97h3v1H222zM226 97h3v1H226zM230 97h3v1H230zM234 97h3v1H234zM238 97h3v1H238zM242 97h3v1H242zM246 97h3v1H246zM250 97h3v1H250zM254 97h3v1H254zM258 97h3v1H258zM262 97h3v1H262zM294 97h1v1H294zM1 98h1v1H1zM78 98h2v1H78zM86 98h2v1H86zM90 98h2v1H90zM96 98h2v1H96zM106 98h1v1H106zM112 98h1v1H112zM116 98h1v1H116zM118 98h1v1H118zM122 98h1v1H122zM130 98h3v1H130zM134 98h3v1H134zM138 98h3v1H138zM142 98h3v1H142zM146 98h3v1H146zM150 98h3v1H150zM154 98h3v1H154zM158 98h3v1H158zM162 98h3v1H162zM166 98h1v1H166zM168 98h1v1H168zM170 98h1v1H170zM172 98h1v1H172zM174 98h1v1H174zM176 98h1v1H176zM178 98h1v1H178zM180 98h1v1H180zM182 98h1v1H182zM184 98h1v1H184zM186 98h1v1H186zM188 98h1v1H188zM190 98h1v1H190zM192 98h1v1H192zM194 98h1v1H194zM196 98h1v1H196zM198 98h1v1H198zM200 98h1v1H200zM202 98h1v1H202zM204 98h1v1H204zM206 98h1v1H206zM208 98h1v1H208zM210 98h1v1H210zM212 98h1v1H212zM214 98h1v1H214zM216 98h1v1H216zM218 98h1v1H218zM220 98h1v1H220zM222 98h1v1H222zM224 98h1v1H224zM226 98h1v1H226zM228 98h1v1H228zM230 98h1v1H230zM232 98h1v1H232zM234 98h1v1H234zM236 98h1v1H236zM238 98h1v1H238zM240 98h1v1H240zM242 98h1v1H242zM244 98h1v1H244zM246 98h1v1H246zM248 98h1v1H248zM250 98h1v1H250zM252 98h1v1H252zM254 98h1v1H254zM256 98h1v1H256zM258 98h1v1H258zM260 98h1v1H260zM262 98h1v1H262zM264 98h1v1H264zM275 98h3v1H275zM280 98h5v1H280zM286 98h2v1H286zM294 98h1v1H294zM1 99h1v1H1zM80 99h6v1H80zM90 99h2v1H90zM98 99h2v1H98zM106 99h1v1H106zM112 99h1v1H112zM116 99h1v1H116zM118 99h1v1H118zM121 99h1v1H121zM130 99h3v1H130zM134 99h3v1H134zM138 99h3v1H138zM142 99h3v1H142zM146 99h3v1H146zM150 99h3v1H150zM154 99h3v1H154zM158 99h3v1H158zM162 99h3v1H162zM166 99h1v1H166zM168 99h1v1H168zM170 99h1v1H170zM172 99h1v1H172zM174 99h1v1H174zM176 99h1v1H176zM178 99h1v1H178zM180 99h1v1H180zM182 99h1v1H182zM184 99h1v1H184zM186 99h1v1H186zM188 99h1v1H188zM190 99h1v1H190zM192 99h1v1H192zM194 99h1v1H194zM196 99h1v1H196zM198 99h1v1H198zM200 99h1v1H200zM202 99h1v1H202zM204 99h1v1H204zM206 99h1v1H206zM208 99h1v1H208zM210 99h1v1H210zM212 99h1v1H212zM214 99h1v1H214zM216 99h1v1H216zM218 99h1v1H218zM220 99h1v1H220zM222 99h1v1H222zM224 99h1v1H224zM226 99h1v1H226zM228 99h1v1H228zM230 99h1v1H230zM232 99h1v1H232zM234 99h1v1H234zM236 99h1v1H236zM238 99h1v1H238zM240 99h1v1H240zM242 99h1v1H242zM244 99h1v1H244zM246 99h1v1H246zM248 99h1v1H248zM250 99h1v1H250zM252 99h1v1H252zM254 99h1v1H254zM256 99h1v1H256zM258 99h1v1H258zM260 99h1v1H260zM262 99h1v1H262zM264 99h1v1H264zM274 99h1v1H274zM278 99h1v1H278zM284 99h1v1H284zM286 99h2v1H286zM290 99h1v1H290zM294 99h1v1H294zM1 100h1v1H1zM80 100h6v1H80zM90 100h2v1H90zM98 100h2v1H98zM106 100h1v1H106zM112 100h1v1H112zM116 100h1v1H116zM118 100h1v1H118zM120 100h1v1H120zM130 100h3v1H130zM134 100h3v1H134zM138 100h3v1H138zM142 100h3v1H142zM146 100h3v1H146zM150 100h3v1H150zM154 100h3v1H154zM158 100h3v1H158zM162 100h3v1H162zM166 100h1v1H166zM168 100h1v1H168zM170 100h1v1H170zM172 100h1v1H172zM174 100h1v1H174zM176 100h1v1H176zM178 100h1v1H178zM180 100h1v1H180zM182 100h1v1H182zM184 100h1v1H184zM186 100h1v1H186zM188 100h1v1H188zM190 100h1v1H190zM192 100h1v1H192zM194 100h1v1H194zM196 100h1v1H196zM198 100h1v1H198zM200 100h1v1H200zM202 100h1v1H202zM204 100h1v1H204zM206 100h1v1H206zM208 100h1v1H208zM210 100h1v1H210zM212 100h1v1H212zM214 100h1v1H214zM216 100h1v1H216zM218 100h1v1H218zM220 100h1v1H220zM222 100h1v1H222zM224 100h1v1H224zM226 100h1v1H226zM228 100h1v1H228zM230 100h1v1H230zM232 100h1v1H232zM234 100h1v1H234zM236 100h1v1H236zM238 100h1v1H238zM240 100h1v1H240zM242 100h1v1H242zM244 100h1v1H244zM246 100h1v1H246zM248 100h1v1H248zM250 100h1v1H250zM252 100h1v1H252zM254 100h1v1H254zM256 100h1v1H256zM258 100h1v1H258zM260 100h1v1H260zM262 100h1v1H262zM264 100h1v1H264zM278 100h1v1H278zM283 100h1v1H283zM289 100h1v1H289zM294 100h1v1H294zM1 101h1v1H1zM106 101h1v1H106zM112 101h1v1H112zM114 101h1v1H114zM116 101h1v1H116zM118 101h2v1H118zM130 101h3v1H130zM134 101h3v1H134zM138 101h3v1H138zM142 101h3v1H142zM146 101h3v1H146zM150 101h3v1H150zM154 101h3v1H154zM158 101h3v1H158zM162 101h3v1H162zM166 101h1v1H166zM168 101h1v1H168zM170 101h1v1H170zM172 101h1v1H172zM174 101h1v1H174zM176 101h1v1H176zM178 101h1v1H178zM180 101h1v1H180zM182 101h1v1H182zM184 101h1v1H184zM186 101h1v1H186zM188 101h1v1H188zM190 101h1v1H190zM192 101h1v1H192zM194 101h1v1H194zM196 101h1v1H196zM198 101h1v1H198zM200 101h1v1H200zM202 101h1v1H202zM204 101h1v1H204zM206 101h1v1H206zM208 101h1v1H208zM210 101h1v1H210zM212 101h1v1H212zM214 101h1v1H214zM216 101h1v1H216zM218 101h1v1H218zM220 101h1v1H220zM222 101h1v1H222zM224 101h1v1H224zM226 101h1v1H226zM228 101h1v1H228zM230 101h1v1H230zM232 101h1v1H232zM234 101h1v1H234zM236 101h1v1H236zM238 101h1v1H238zM240 101h1v1H240zM242 101h1v1H242zM244 101h1v1H244zM246 101h1v1H246zM248 101h1v1H248zM250 101h1v1H250zM252 101h1v1H252zM254 101h1v1H254zM256 101h1v1H256zM258 101h1v1H258zM260 101h1v1H260zM262 101h1v1H262zM264 101h1v1H264zM277 101h1v1H277zM282 101h1v1H282zM288 101h1v1H288zM294 101h1v1H294zM1 102h1v1H1zM106 102h1v1H106zM112 102h1v1H112zM114 102h1v1H114zM116 102h1v1H116zM118 102h1v1H118zM120 102h1v1H120zM130 102h3v1H130zM134 102h3v1H134zM138 102h3v1H138zM142 102h3v1H142zM146 102h3v1H146zM150 102h3v1H150zM154 102h3v1H154zM158 102h3v1H158zM162 102h3v1H162zM166 102h1v1H166zM168 102h1v1H168zM170 102h1v1H170zM172 102h1v1H172zM174 102h1v1H174zM176 102h1v1H176zM178 102h1v1H178zM180 102h1v1H180zM182 102h1v1H182zM184 102h1v1H184zM186 102h1v1H186zM188 102h1v1H188zM190 102h1v1H190zM192 102h1v1H192zM194 102h1v1H194zM196 102h1v1H196zM198 102h1v1H198zM200 102h1v1H200zM202 102h1v1H202zM204 102h1v1H204zM206 102h1v1H206zM208 102h1v1H208zM210 102h1v1H210zM212 102h1v1H212zM214 102h1v1H214zM216 102h1v1H216zM218 102h1v1H218zM220 102h1v1H220zM222 102h1v1H222zM224 102h1v1H224zM226 102h1v1H226zM228 102h1v1H228zM230 102h1v1H230zM232 102h1v1H232zM234 102h1v1H234zM236 102h1v1H236zM238 102h1v1H238zM240 102h1v1H240zM242 102h1v1H242zM244 102h1v1H244zM246 102h1v1H246zM248 102h1v1H248zM250 102h1v1H250zM252 102h1v1H252zM254 102h1v1H254zM256 102h1v1H256zM258 102h1v1H258zM260 102h1v1H260zM262 102h1v1H262zM264 102h1v1H264zM276 102h1v1H276zM281 102h1v1H281zM287 102h1v1H287zM294 102h1v1H294zM1 103h1v1H1zM106 103h1v1H106zM112 103h1v1H112zM114 103h1v1H114zM116 103h1v1H116zM118 103h1v1H118zM121 103h1v1H121zM130 103h3v1H130zM134 103h3v1H134zM138 103h3v1H138zM142 103h3v1H142zM146 103h3v1H146zM150 103h3v1H150zM154 103h3v1H154zM158 103h3v1H158zM162 103h3v1H162zM166 103h1v1H166zM168 103h1v1H168zM170 103h1v1H170zM172 103h1v1H172zM174 103h1v1H174zM176 103h1v1H176zM178 103h1v1H178zM180 103h1v1H180zM182 103h1v1H182zM184 103h1v1H184zM186 103h1v1H186zM188 103h1v1H188zM190 103h1v1H190zM192 103h1v1H192zM194 103h1v1H194zM196 103h1v1H196zM198 103h1v1H198zM200 103h1v1H200zM202 103h1v1H202zM204 103h1v1H204zM206 103h1v1H206zM208 103h1v1H208zM210 103h1v1H210zM212 103h1v1H212zM214 103h1v1H214zM216 103h1v1H216zM218 103h1v1H218zM220 103h1v1H220zM222 103h1v1H222zM224 103h1v1H224zM226 103h1v1H226zM228 103h1v1H228zM230 103h1v1H230zM232 103h1v1H232zM234 103h1v1H234zM236 103h1v1H236zM238 103h1v1H238zM240 103h1v1H240zM242 103h1v1H242zM244 103h1v1H244zM246 103h1v1H246zM248 103h1v1H248zM250 103h1v1H250zM252 103h1v1H252zM254 103h1v1H254zM256 103h1v1H256zM258 103h1v1H258zM260 103h1v1H260zM262 103h1v1H262zM264 103h1v1H264zM275 103h1v1H275zM281 103h1v1H281zM286 103h1v1H286zM289 103h2v1H289zM294 103h1v1H294zM1 104h1v1H1zM106 104h1v1H106zM113 104h1v1H113zM115 104h1v1H115zM118 104h1v1H118zM122 104h1v1H122zM130 104h3v1H130zM134 104h3v1H134zM138 104h3v1H138zM142 104h3v1H142zM146 104h3v1H146zM150 104h3v1H150zM154 104h3v1H154zM158 104h3v1H158zM162 104h3v1H162zM166 104h1v1H166zM168 104h1v1H168zM170 104h1v1H170zM172 104h1v1H172zM174 104h1v1H174zM176 104h1v1H176zM178 104h1v1H178zM180 104h1v1H180zM182 104h1v1H182zM184 104h1v1H184zM186 104h1v1H186zM188 104h1v1H188zM190 104h1v1H190zM192 104h1v1H192zM194 104h1v1H194zM196 104h1v1H196zM198 104h1v1H198zM200 104h1v1H200zM202 104h1v1H202zM204 104h1v1H204zM206 104h1v1H206zM208 104h1v1H208zM210 104h1v1H210zM212 104h1v1H212zM214 104h1v1H214zM216 104h1v1H216zM218 104h1v1H218zM220 104h1v1H220zM222 104h1v1H222zM224 104h1v1H224zM226 104h1v1H226zM228 104h1v1H228zM230 104h1v1H230zM232 104h1v1H232zM234 104h1v1H234zM236 104h1v1H236zM238 104h1v1H238zM240 104h1v1H240zM242 104h1v1H242zM244 104h1v1H244zM246 104h1v1H246zM248 104h1v1H248zM250 104h1v1H250zM252 104h1v1H252zM254 104h1v1H254zM256 104h1v1H256zM258 104h1v1H258zM260 104h1v1H260zM262 104h1v1H262zM264 104h1v1H264zM274 104h5v1H274zM281 104h1v1H281zM289 104h2v1H289zM294 104h1v1H294zM1 105h1v1H1zM106 105h1v1H106zM130 105h3v1H130zM134 105h3v1H134zM138 105h3v1H138zM142 105h3v1H142zM146 105h3v1H146zM150 105h3v1H150zM154 105h3v1H154zM158 105h3v1H158zM162 105h3v1H162zM166 105h1v1H166zM168 105h1v1H168zM170 105h1v1H170zM172 105h1v1H172zM174 105h1v1H174zM176 105h1v1H176zM178 105h1v1H178zM180 105h1v1H180zM182 105h1v1H182zM184 105h1v1H184zM186 105h1v1H186zM188 105h1v1H188zM190 105h1v1H190zM192 105h1v1H192zM194 105h1v1H194zM196 105h1v1H196zM198 105h1v1H198zM200 105h1v1H200zM202 105h1v1H202zM204 105h1v1H204zM206 105h1v1H206zM208 105h1v1H208zM210 105h1v1H210zM212 105h1v1H212zM214 105h1v1H214zM216 105h1v1H216zM218 105h1v1H218zM220 105h1v1H220zM222 105h1v1H222zM224 105h1v1H224zM226 105h1v1H226zM228 105h1v1H228zM230 105h1v1H230zM232 105h1v1H232zM234 105h1v1H234zM236 105h1v1H236zM238 105h1v1H238zM240 105h1v1H240zM242 105h1v1H242zM244 105h1v1H244zM246 105h1v1H246zM248 105h1v1H248zM250 105h1v1H250zM252 105h1v1H252zM254 105h1v1H254zM256 105h1v1H256zM258 105h1v1H258zM260 105h1v1H260zM262 105h1v1H262zM264 105h1v1H264zM294 105h1v1H294zM1 106h1v1H1zM106 106h1v1H106zM130 106h3v1H130zM134 106h3v1H134zM138 106h3v1H138zM142 106h3v1H142zM146 106h3v1H146zM150 106h3v1H150zM154 106h3v1H154zM158 106h3v1H158zM162 106h3v1H162zM166 106h3v1H166zM170 106h3v1H170zM174 106h3v1H174zM178 106h3v1H178zM182 106h3v1H182zM186 106h3v1H186zM190 106h3v1H190zM194 106h3v1H194zM198 106h3v1H198zM202 106h3v1H202zM206 106h3v1H206zM210 106h3v1H210zM214 106h3v1H214zM218 106h3v1H218zM222 106h3v1H222zM226 106h3v1H226zM230 106h3v1H230zM234 106h3v1H234zM238 106h3v1H238zM242 106h3v1H242zM246 106h3v1H246zM250 106h3v1H250zM254 106h3v1H254zM258 106h3v1H258zM262 106h3v1H262zM294 106h1v1H294zM1 107h1v1H1zM106 107h1v1H106zM294 107h1v1H294zM1 108h1v1H1zM106 108h1v1H106zM294 108h1v1H294zM1 109h1v1H1zM106 109h1v1H106zM294 109h1v1H294zM1 110h1v1H1zM106 110h1v1H106zM294 110h1v1H294zM1 111h1v1H1zM106 111h1v1H106zM294 111h1v1H294zM1 112h1v1H1zM106 112h1v1H106zM294 112h1v1H294zM1 113h1v1H1zM106 113h1v1H106zM294 113h1v1H294zM1 114h1v1H1zM106 114h1v1H106zM294 114h1v1H294zM1 115h1v1H1zM106 115h1v1H106zM294 115h1v1H294zM1 116h1v1H1zM106 116h1v1H106zM294 116h1v1H294zM1 117h1v1H1zM106 117h1v1H106zM294 117h1v1H294zM1 118h1v1H1zM106 118h1v1H106zM294 118h1v1H294zM1 119h1v1H1zM106 119h1v1H106zM294 119h1v1H294zM1 120h1v1H1zM106 120h1v1H106zM294 120h1v1H294zM1 121h1v1H1zM106 121h1v1H106zM294 121h1v1H294zM1 122h1v1H1zM106 122h1v1H106zM294 122h1v1H294zM1 123h1v1H1zM106 123h1v1H106zM294 123h1v1H294zM1 124h1v1H1zM106 124h1v1H106zM294 124h1v1H294zM1 125h1v1H1zM106 125h1v1H106zM294 125h1v1H294zM1 126h294v1H1z"/>
<path fill="#d62518" d="M80 65h6v1H80zM94 65h2v1H94zM80 66h6v1H80zM94 66h2v1H94zM8 67h6v1H8zM78 67h2v1H78zM86 67h2v1H86zM94 67h2v1H94zM7 68h8v1H7zM78 68h2v1H78zM86 68h2v1H86zM94 68h2v1H94zM7 69h3v1H7zM12 69h3v1H12zM86 69h2v1H86zM94 69h2v1H94zM7 70h3v1H7zM12 70h3v1H12zM86 70h2v1H86zM94 70h2v1H94zM7 71h8v1H7zM84 71h2v1H84zM94 71h2v1H94zM7 72h3v1H7zM12 72h3v1H12zM84 72h2v1H84zM94 72h2v1H94zM8 73h6v1H8zM82 73h2v1H82zM94 73h2v1H94zM9 74h4v1H9zM82 74h2v1H82zM94 74h2v1H94zM10 75h2v1H10zM80 75h2v1H80zM80 76h2v1H80zM78 77h10v1H78zM94 77h2v1H94zM78 78h10v1H78zM94 78h2v1H94z"/>
</g>
</svg>
