<svg xmlns="http://www.w3.org/2000/svg" width="888" height="384" viewBox="0 0 296 128" role="img" aria-labelledby="title">
<title id="title">DevDash dashboard screen</title>
<rect width="296" height="128" fill="#fff"/>
<g shape-rendering="crispEdges">
<path fill="#111" d="M1 1h294v1H1zM1 2h1v1H1zM294 2h1v1H294zM1 3h1v1H1zM294 3h1v1H294zM1 4h1v1H1zM6 4h9v1H6zM234 4h1v1H234zM294 4h1v1H294zM1 5h1v1H1zM6 5h9v1H6zM19 5h3v1H19zM25 5h5v1H25zM31 5h1v1H31zM35 5h1v1H35zM37 5h3v1H37zM44 5h3v1H44zM50 5h4v1H50zM55 5h1v1H55zM59 5h1v1H59zM130 5h6v1H130zM143 5h1v1H143zM164 5h1v1H164zM230 5h5v1H230zM242 5h1v1H242zM249 5h1v1H249zM258 5h5v1H258zM265 5h3v1H265zM278 5h5v1H278zM294 5h1v1H294zM1 6h1v1H1zM6 6h2v1H6zM13 6h2v1H13zM19 6h1v1H19zM22 6h1v1H22zM25 6h1v1H25zM31 6h1v1H31zM35 6h1v1H35zM37 6h1v1H37zM40 6h1v1H40zM43 6h1v1H43zM47 6h1v1H47zM49 6h1v1H49zM55 6h1v1H55zM59 6h1v1H59zM129 6h1v1H129zM136 6h1v1H136zM142 6h2v1H142zM156 6h1v1H156zM163 6h2v1H163zM229 6h1v1H229zM234 6h1v1H234zM241 6h2v1H241zM248 6h2v1H248zM253 6h2v1H253zM261 6h1v1H261zM264 6h1v1H264zM268 6h1v1H268zM274 6h1v1H274zM278 6h1v1H278zM294 6h1v1H294zM1 7h1v1H1zM6 7h2v1H6zM9 7h3v1H9zM13 7h2v1H13zM19 7h1v1H19zM23 7h1v1H23zM25 7h1v1H25zM31 7h1v1H31zM35 7h1v1H35zM37 7h1v1H37zM41 7h1v1H41zM43 7h1v1H43zM47 7h1v1H47zM49 7h1v1H49zM55 7h1v1H55zM59 7h1v1H59zM143 7h1v1H143zM157 7h1v1H157zM164 7h1v1H164zM229 7h1v1H229zM242 7h1v1H242zM247 7h1v1H247zM249 7h1v1H249zM253 7h2v1H253zM260 7h1v1H260zM264 7h1v1H264zM268 7h1v1H268zM274 7h1v1H274zM278 7h4v1H278zM284 7h2v1H284zM287 7h1v1H287zM294 7h1v1H294zM1 8h1v1H1zM6 8h2v1H6zM9 8h3v1H9zM13 8h2v1H13zM19 8h1v1H19zM23 8h1v1H23zM25 8h4v1H25zM31 8h1v1H31zM35 8h1v1H35zM37 8h1v1H37zM41 8h1v1H41zM43 8h1v1H43zM47 8h1v1H47zM50 8h3v1H50zM55 8h5v1H55zM130 8h6v1H130zM143 8h1v1H143zM150 8h9v1H150zM164 8h1v1H164zM229 8h1v1H229zM235 8h1v1H235zM242 8h1v1H242zM246 8h1v1H246zM249 8h1v1H249zM261 8h1v1H261zM265 8h3v1H265zM272 8h5v1H272zM282 8h1v1H282zM284 8h1v1H284zM286 8h1v1H286zM288 8h1v1H288zM294 8h1v1H294zM1 9h1v1H1zM6 9h2v1H6zM9 9h3v1H9zM13 9h2v1H13zM19 9h1v1H19zM23 9h1v1H23zM25 9h1v1H25zM31 9h1v1H31zM35 9h1v1H35zM37 9h1v1H37zM41 9h1v1H41zM43 9h5v1H43zM53 9h1v1H53zM55 9h1v1H55zM59 9h1v1H59zM143 9h1v1H143zM157 9h1v1H157zM164 9h1v1H164zM235 9h1v1H235zM242 9h1v1H242zM246 9h5v1H246zM253 9h2v1H253zM262 9h1v1H262zM264 9h1v1H264zM268 9h1v1H268zM274 9h1v1H274zM282 9h1v1H282zM284 9h1v1H284zM286 9h1v1H286zM288 9h1v1H288zM294 9h1v1H294zM1 10h1v1H1zM6 10h2v1H6zM13 10h2v1H13zM19 10h1v1H19zM22 10h1v1H22zM25 10h1v1H25zM32 10h1v1H32zM34 10h1v1H34zM37 10h1v1H37zM40 10h1v1H40zM43 10h1v1H43zM47 10h1v1H47zM53 10h1v1H53zM55 10h1v1H55zM59 10h1v1H59zM132 10h2v1H132zM143 10h1v1H143zM156 10h1v1H156zM164 10h1v1H164zM230 10h1v1H230zM235 10h1v1H235zM242 10h1v1H242zM249 10h1v1H249zM253 10h2v1H253zM258 10h1v1H258zM262 10h1v1H262zM264 10h1v1H264zM268 10h1v1H268zM274 10h1v1H274zM278 10h1v1H278zM282 10h1v1H282zM284 10h1v1H284zM288 10h1v1H288zM294 10h1v1H294zM1 11h1v1H1zM6 11h9v1H6zM19 11h3v1H19zM25 11h5v1H25zM33 11h1v1H33zM37 11h3v1H37zM43 11h1v1H43zM47 11h1v1H47zM49 11h4v1H49zM55 11h1v1H55zM59 11h1v1H59zM142 11h3v1H142zM163 11h3v1H163zM230 11h5v1H230zM241 11h3v1H241zM249 11h1v1H249zM259 11h3v1H259zM265 11h3v1H265zM279 11h3v1H279zM284 11h1v1H284zM288 11h1v1H288zM294 11h1v1H294zM1 12h1v1H1zM6 12h9v1H6zM132 12h2v1H132zM230 12h1v1H230zM294 12h1v1H294zM1 13h1v1H1zM294 13h1v1H294zM1 14h1v1H1zM294 14h1v1H294zM1 15h294v1H1zM1 16h1v1H1zM106 16h1v1H106zM294 16h1v1H294zM1 17h1v1H1zM106 17h1v1H106zM294 17h1v1H294zM1 18h1v1H1zM106 18h1v1H106zM294 18h1v1H294zM1 19h1v1H1zM106 19h1v1H106zM294 19h1v1H294zM1 20h1v1H1zM8 20h6v1H8zM106 20h1v1H106zM294 20h1v1H294zM1 21h1v1H1zM7 21h8v1H7zM106 21h1v1H106zM294 21h1v1H294zM1 22h1v1H1zM7 22h8v1H7zM21 22h3v1H21zM26 22h1v1H26zM30 22h1v1H30zM106 22h1v1H106zM113 22h3v1H113zM118 22h1v1H118zM125 22h3v1H125zM130 22h1v1H130zM134 22h1v1H134zM136 22h3v1H136zM142 22h5v1H142zM217 22h7v1H217zM229 22h3v1H229zM234 22h1v1H234zM242 22h1v1H242zM248 22h2v1H248zM262 22h5v1H262zM272 22h1v1H272zM276 22h1v1H276zM281 22h3v1H281zM286 22h1v1H286zM294 22h1v1H294zM1 23h1v1H1zM7 23h2v1H7zM10 23h2v1H10zM13 23h2v1H13zM20 23h1v1H20zM24 23h1v1H24zM26 23h1v1H26zM30 23h1v1H30zM106 23h1v1H106zM112 23h1v1H112zM116 23h1v1H116zM118 23h1v1H118zM124 23h1v1H124zM128 23h1v1H128zM130 23h1v1H130zM134 23h1v1H134zM136 23h1v1H136zM139 23h1v1H139zM142 23h1v1H142zM218 23h5v1H218zM228 23h1v1H228zM232 23h1v1H232zM234 23h1v1H234zM241 23h2v1H241zM247 23h1v1H247zM258 23h1v1H258zM265 23h1v1H265zM272 23h1v1H272zM275 23h2v1H275zM280 23h1v1H280zM284 23h1v1H284zM286 23h1v1H286zM294 23h1v1H294zM1 24h1v1H1zM7 24h8v1H7zM20 24h1v1H20zM26 24h1v1H26zM30 24h1v1H30zM106 24h1v1H106zM112 24h1v1H112zM118 24h1v1H118zM124 24h1v1H124zM128 24h1v1H128zM130 24h1v1H130zM134 24h1v1H134zM136 24h1v1H136zM140 24h1v1H140zM142 24h1v1H142zM219 24h3v1H219zM232 24h1v1H232zM234 24h1v1H234zM236 24h2v1H236zM242 24h1v1H242zM246 24h1v1H246zM257 24h1v1H257zM264 24h1v1H264zM269 24h2v1H269zM272 24h1v1H272zM276 24h1v1H276zM284 24h1v1H284zM286 24h1v1H286zM288 24h2v1H288zM294 24h1v1H294zM1 25h1v1H1zM8 25h6v1H8zM20 25h1v1H20zM22 25h3v1H22zM26 25h5v1H26zM106 25h1v1H106zM112 25h1v1H112zM118 25h1v1H118zM124 25h1v1H124zM128 25h1v1H128zM130 25h1v1H130zM134 25h1v1H134zM136 25h1v1H136zM140 25h1v1H140zM142 25h4v1H142zM220 25h1v1H220zM231 25h1v1H231zM234 25h2v1H234zM238 25h1v1H238zM242 25h1v1H242zM246 25h4v1H246zM256 25h1v1H256zM265 25h1v1H265zM268 25h1v1H268zM271 25h2v1H271zM276 25h1v1H276zM283 25h1v1H283zM286 25h2v1H286zM290 25h1v1H290zM294 25h1v1H294zM1 26h1v1H1zM8 26h6v1H8zM20 26h1v1H20zM24 26h1v1H24zM26 26h1v1H26zM30 26h1v1H30zM106 26h1v1H106zM112 26h1v1H112zM118 26h1v1H118zM124 26h5v1H124zM130 26h1v1H130zM134 26h1v1H134zM136 26h1v1H136zM140 26h1v1H140zM142 26h1v1H142zM219 26h3v1H219zM230 26h1v1H230zM234 26h1v1H234zM238 26h1v1H238zM242 26h1v1H242zM246 26h1v1H246zM250 26h1v1H250zM255 26h1v1H255zM266 26h1v1H266zM268 26h1v1H268zM272 26h1v1H272zM276 26h1v1H276zM282 26h1v1H282zM286 26h1v1H286zM290 26h1v1H290zM294 26h1v1H294zM1 27h1v1H1zM9 27h1v1H9zM12 27h1v1H12zM20 27h1v1H20zM24 27h1v1H24zM26 27h1v1H26zM30 27h1v1H30zM106 27h1v1H106zM112 27h1v1H112zM116 27h1v1H116zM118 27h1v1H118zM124 27h1v1H124zM128 27h1v1H128zM130 27h1v1H130zM134 27h1v1H134zM136 27h1v1H136zM139 27h1v1H139zM142 27h1v1H142zM218 27h5v1H218zM229 27h1v1H229zM234 27h1v1H234zM238 27h1v1H238zM242 27h1v1H242zM246 27h1v1H246zM250 27h1v1H250zM254 27h1v1H254zM262 27h1v1H262zM266 27h1v1H266zM268 27h1v1H268zM272 27h1v1H272zM276 27h1v1H276zM281 27h1v1H281zM286 27h1v1H286zM290 27h1v1H290zM294 27h1v1H294zM1 28h1v1H1zM9 28h1v1H9zM12 28h1v1H12zM21 28h4v1H21zM26 28h1v1H26zM30 28h1v1H30zM106 28h1v1H106zM113 28h3v1H113zM118 28h5v1H118zM124 28h1v1H124zM128 28h1v1H128zM131 28h3v1H131zM136 28h3v1H136zM142 28h5v1H142zM217 28h7v1H217zM228 28h5v1H228zM234 28h1v1H234zM238 28h1v1H238zM241 28h3v1H241zM247 28h3v1H247zM263 28h3v1H263zM269 28h4v1H269zM275 28h3v1H275zM280 28h5v1H280zM286 28h1v1H286zM290 28h1v1H290zM294 28h1v1H294zM1 29h1v1H1zM106 29h1v1H106zM294 29h1v1H294zM1 30h1v1H1zM106 30h1v1H106zM294 30h1v1H294zM1 31h1v1H1zM106 31h1v1H106zM294 31h1v1H294zM1 32h1v1H1zM106 32h1v1H106zM294 32h1v1H294zM1 33h1v1H1zM106 33h1v1H106zM130 33h3v1H130zM134 33h3v1H134zM138 33h3v1H138zM142 33h3v1H142zM146 33h3v1H146zM150 33h3v1H150zM154 33h3v1H154zM158 33h3v1H158zM162 33h3v1H162zM166 33h3v1H166zM170 33h3v1H170zM174 33h3v1H174zM178 33h3v1H178zM182 33h3v1H182zM186 33h3v1H186zM190 33h3v1H190zM194 33h3v1H194zM198 33h3v1H198zM202 33h3v1H202zM206 33h3v1H206zM210 33h3v1H210zM214 33h3v1H214zM218 33h3v1H218zM222 33h3v1H222zM226 33h3v1H226zM230 33h3v1H230zM234 33h3v1H234zM238 33h3v1H238zM242 33h3v1H242zM246 33h3v1H246zM250 33h3v1H250zM254 33h3v1H254zM258 33h3v1H258zM262 33h3v1H262zM294 33h1v1H294zM1 34h1v1H1zM106 34h1v1H106zM112 34h5v1H112zM118 34h1v1H118zM122 34h1v1H122zM130 34h3v1H130zM134 34h3v1H134zM138 34h3v1H138zM142 34h1v1H142zM144 34h1v1H144zM146 34h1v1H146zM148 34h1v1H148zM150 34h1v1H150zM152 34h1v1H152zM154 34h1v1H154zM156 34h1v1H156zM158 34h1v1H158zM160 34h1v1H160zM162 34h1v1H162zM164 34h1v1H164zM166 34h1v1H166zM168 34h1v1H168zM170 34h1v1H170zM172 34h1v1H172zM174 34h1v1H174zM176 34h1v1H176zM178 34h1v1H178zM180 34h1v1H180zM182 34h1v1H182zM184 34h1v1H184zM186 34h1v1H186zM188 34h1v1H188zM190 34h1v1H190zM192 34h1v1H192zM194 34h1v1H194zM196 34h1v1H196zM198 34h1v1H198zM200 34h1v1H200zM202 34h1v1H202zM204 34h1v1H204zM206 34h1v1H206zM208 34h1v1H208zM210 34h1v1H210zM212 34h1v1H212zM214 34h1v1H214zM216 34h1v1H216zM218 34h1v1H218zM220 34h1v1H220zM222 34h1v1H222zM224 34h1v1H224zM226 34h1v1H226zM228 34h1v1H228zM230 34h1v1H230zM232 34h1v1H232zM234 34h1v1H234zM236 34h1v1H236zM238 34h1v1H238zM240 34h1v1H240zM242 34h1v1H242zM244 34h1v1H244zM246 34h1v1H246zM248 34h1v1H248zM250 34h1v1H250zM252 34h1v1H252zM254 34h1v1H254zM256 34h1v1H256zM258 34h1v1H258zM260 34h1v1H260zM262 34h1v1H262zM264 34h1v1H264zM281 34h3v1H281zM286 34h2v1H286zM294 34h1v1H294zM1 35h1v1H1zM106 35h1v1H106zM112 35h1v1H112zM118 35h1v1H118zM122 35h1v1H122zM130 35h3v1H130zM134 35h3v1H134zM138 35h3v1H138zM142 35h1v1H142zM144 35h1v1H144zM146 35h1v1H146zM148 35h1v1H148zM150 35h1v1H150zM152 35h1v1H152zM154 35h1v1H154zM156 35h1v1H156zM158 35h1v1H158zM160 35h1v1H160zM162 35h1v1H162zM164 35h1v1H164zM166 35h1v1H166zM168 35h1v1H168zM170 35h1v1H170zM172 35h1v1H172zM174 35h1v1H174zM176 35h1v1H176zM178 35h1v1H178zM180 35h1v1H180zM182 35h1v1H182zM184 35h1v1H184zM186 35h1v1H186zM188 35h1v1H188zM190 35h1v1H190zM192 35h1v1H192zM194 35h1v1H194zM196 35h1v1H196zM198 35h1v1H198zM200 35h1v1H200zM202 35h1v1H202zM204 35h1v1H204zM206 35h1v1H206zM208 35h1v1H208zM210 35h1v1H210zM212 35h1v1H212zM214 35h1v1H214zM216 35h1v1H216zM218 35h1v1H218zM220 35h1v1H220zM222 35h1v1H222zM224 35h1v1H224zM226 35h1v1H226zM228 35h1v1H228zM230 35h1v1H230zM232 35h1v1H232zM234 35h1v1H234zM236 35h1v1H236zM238 35h1v1H238zM240 35h1v1H240zM242 35h1v1H242zM244 35h1v1H244zM246 35h1v1H246zM248 35h1v1H248zM250 35h1v1H250zM252 35h1v1H252zM254 35h1v1H254zM256 35h1v1H256zM258 35h1v1H258zM260 35h1v1H260zM262 35h1v1H262zM264 35h1v1H264zM280 35h1v1H280zM284 35h1v1H284zM286 35h2v1H286zM290 35h1v1H290zM294 35h1v1H294zM1 36h1v1H1zM106 36h1v1H106zM112 36h4v1H112zM118 36h1v1H118zM122 36h1v1H122zM130 36h3v1H130zM134 36h3v1H134zM138 36h3v1H138zM142 36h1v1H142zM144 36h1v1H144zM146 36h1v1H146zM148 36h1v1H148zM150 36h1v1H150zM152 36h1v1H152zM154 36h1v1H154zM156 36h1v1H156zM158 36h1v1H158zM160 36h1v1H160zM162 36h1v1H162zM164 36h1v1H164zM166 36h1v1H166zM168 36h1v1H168zM170 36h1v1H170zM172 36h1v1H172zM174 36h1v1H174zM176 36h1v1H176zM178 36h1v1H178zM180 36h1v1H180zM182 36h1v1H182zM184 36h1v1H184zM186 36h1v1H186zM188 36h1v1H188zM190 36h1v1H190zM192 36h1v1H192zM194 36h1v1H194zM196 36h1v1H196zM198 36h1v1H198zM200 36h1v1H200zM202 36h1v1H202zM204 36h1v1H204zM206 36h1v1H206zM208 36h1v1H208zM210 36h1v1H210zM212 36h1v1H212zM214 36h1v1H214zM216 36h1v1H216zM218 36h1v1H218zM220 36h1v1H220zM222 36h1v1H222zM224 36h1v1H224zM226 36h1v1H226zM228 36h1v1H228zM230 36h1v1H230zM232 36h1v1H232zM234 36h1v1H234zM236 36h1v1H236zM238 36h1v1H238zM240 36h1v1H240zM242 36h1v1H242zM244 36h1v1H244zM246 36h1v1H246zM248 36h1v1H248zM250 36h1v1H250zM252 36h1v1H252zM254 36h1v1H254zM256 36h1v1H256zM258 36h1v1H258zM260 36h1v1H260zM262 36h1v1H262zM264 36h1v1H264zM280 36h1v1H280zM284 36h1v1H284zM289 36h1v1H289zM294 36h1v1H294zM1 37h1v1H1zM106 37h1v1H106zM116 37h1v1H116zM118 37h5v1H118zM130 37h3v1H130zM134 37h3v1H134zM138 37h3v1H138zM142 37h1v1H142zM144 37h1v1H144zM146 37h1v1H146zM148 37h1v1H148zM150 37h1v1H150zM152 37h1v1H152zM154 37h1v1H154zM156 37h1v1H156zM158 37h1v1H158zM160 37h1v1H160zM162 37h1v1H162zM164 37h1v1H164zM166 37h1v1H166zM168 37h1v1H168zM170 37h1v1H170zM172 37h1v1H172zM174 37h1v1H174zM176 37h1v1H176zM178 37h1v1H178zM180 37h1v1H180zM182 37h1v1H182zM184 37h1v1H184zM186 37h1v1H186zM188 37h1v1H188zM190 37h1v1H190zM192 37h1v1H192zM194 37h1v1H194zM196 37h1v1H196zM198 37h1v1H198zM200 37h1v1H200zM202 37h1v1H202zM204 37h1v1H204zM206 37h1v1H206zM208 37h1v1H208zM210 37h1v1H210zM212 37h1v1H212zM214 37h1v1H214zM216 37h1v1H216zM218 37h1v1H218zM220 37h1v1H220zM222 37h1v1H222zM224 37h1v1H224zM226 37h1v1H226zM228 37h1v1H228zM230 37h1v1H230zM232 37h1v1H232zM234 37h1v1H234zM236 37h1v1H236zM238 37h1v1H238zM240 37h1v1H240zM242 37h1v1H242zM244 37h1v1H244zM246 37h1v1H246zM248 37h1v1H248zM250 37h1v1H250zM252 37h1v1H252zM254 37h1v1H254zM256 37h1v1H256zM258 37h1v1H258zM260 37h1v1H260zM262 37h1v1H262zM264 37h1v1H264zM281 37h4v1H281zM288 37h1v1H288zM294 37h1v1H294zM1 38h1v1H1zM106 38h1v1H106zM116 38h1v1H116zM118 38h1v1H118zM122 38h1v1H122zM130 38h3v1H130zM134 38h3v1H134zM138 38h3v1H138zM142 38h1v1H142zM144 38h1v1H144zM146 38h1v1H146zM148 38h1v1H148zM150 38h1v1H150zM152 38h1v1H152zM154 38h1v1H154zM156 38h1v1H156zM158 38h1v1H158zM160 38h1v1H160zM162 38h1v1H162zM164 38h1v1H164zM166 38h1v1H166zM168 38h1v1H168zM170 38h1v1H170zM172 38h1v1H172zM174 38h1v1H174zM176 38h1v1H176zM178 38h1v1H178zM180 38h1v1H180zM182 38h1v1H182zM184 38h1v1H184zM186 38h1v1H186zM188 38h1v1H188zM190 38h1v1H190zM192 38h1v1H192zM194 38h1v1H194zM196 38h1v1H196zM198 38h1v1H198zM200 38h1v1H200zM202 38h1v1H202zM204 38h1v1H204zM206 38h1v1H206zM208 38h1v1H208zM210 38h1v1H210zM212 38h1v1H212zM214 38h1v1H214zM216 38h1v1H216zM218 38h1v1H218zM220 38h1v1H220zM222 38h1v1H222zM224 38h1v1H224zM226 38h1v1H226zM228 38h1v1H228zM230 38h1v1H230zM232 38h1v1H232zM234 38h1v1H234zM236 38h1v1H236zM238 38h1v1H238zM240 38h1v1H240zM242 38h1v1H242zM244 38h1v1H244zM246 38h1v1H246zM248 38h1v1H248zM250 38h1v1H250zM252 38h1v1H252zM254 38h1v1H254zM256 38h1v1H256zM258 38h1v1H258zM260 38h1v1H260zM262 38h1v1H262zM264 38h1v1H264zM284 38h1v1H284zM287 38h1v1H287zM294 38h1v1H294zM1 39h1v1H1zM106 39h1v1H106zM112 39h1v1H112zM116 39h1v1H116zM118 39h1v1H118zM122 39h1v1H122zM130 39h3v1H130zM134 39h3v1H134zM138 39h3v1H138zM142 39h1v1H142zM144 39h1v1H144zM146 39h1v1H146zM148 39h1v1H148zM150 39h1v1H150zM152 39h1v1H152zM154 39h1v1H154zM156 39h1v1H156zM158 39h1v1H158zM160 39h1v1H160zM162 39h1v1H162zM164 39h1v1H164zM166 39h1v1H166zM168 39h1v1H168zM170 39h1v1H170zM172 39h1v1H172zM174 39h1v1H174zM176 39h1v1H176zM178 39h1v1H178zM180 39h1v1H180zM182 39h1v1H182zM184 39h1v1H184zM186 39h1v1H186zM188 39h1v1H188zM190 39h1v1H190zM192 39h1v1H192zM194 39h1v1H194zM196 39h1v1H196zM198 39h1v1H198zM200 39h1v1H200zM202 39h1v1H202zM204 39h1v1H204zM206 39h1v1H206zM208 39h1v1H208zM210 39h1v1H210zM212 39h1v1H212zM214 39h1v1H214zM216 39h1v1H216zM218 39h1v1H218zM220 39h1v1H220zM222 39h1v1H222zM224 39h1v1H224zM226 39h1v1H226zM228 39h1v1H228zM230 39h1v1H230zM232 39h1v1H232zM234 39h1v1H234zM236 39h1v1H236zM238 39h1v1H238zM240 39h1v1H240zM242 39h1v1H242zM244 39h1v1H244zM246 39h1v1H246zM248 39h1v1H248zM250 39h1v1H250zM252 39h1v1H252zM254 39h1v1H254zM256 39h1v1H256zM258 39h1v1H258zM260 39h1v1H260zM262 39h1v1H262zM264 39h1v1H264zM283 39h1v1H283zM286 39h1v1H286zM289 39h2v1H289zM294 39h1v1H294zM1 40h1v1H1zM106 40h1v1H106zM113 40h3v1H113zM118 40h1v1H118zM122 40h1v1H122zM130 40h3v1H130zM134 40h3v1H134zM138 40h3v1H138zM142 40h1v1H142zM144 40h1v1H144zM146 40h1v1H146zM148 40h1v1H148zM150 40h1v1H150zM152 40h1v1H152zM154 40h1v1H154zM156 40h1v1H156zM158 40h1v1H158zM160 40h1v1H160zM162 40h1v1H162zM164 40h1v1H164zM166 40h1v1H166zM168 40h1v1H168zM170 40h1v1H170zM172 40h1v1H172zM174 40h1v1H174zM176 40h1v1H176zM178 40h1v1H178zM180 40h1v1H180zM182 40h1v1H182zM184 40h1v1H184zM186 40h1v1H186zM188 40h1v1H188zM190 40h1v1H190zM192 40h1v1H192zM194 40h1v1H194zM196 40h1v1H196zM198 40h1v1H198zM200 40h1v1H200zM202 40h1v1H202zM204 40h1v1H204zM206 40h1v1H206zM208 40h1v1H208zM210 40h1v1H210zM212 40h1v1H212zM214 40h1v1H214zM216 40h1v1H216zM218 40h1v1H218zM220 40h1v1H220zM222 40h1v1H222zM224 40h1v1H224zM226 40h1v1H226zM228 40h1v1H228zM230 40h1v1H230zM232 40h1v1H232zM234 40h1v1H234zM236 40h1v1H236zM238 40h1v1H238zM240 40h1v1H240zM242 40h1v1H242zM244 40h1v1H244zM246 40h1v1H246zM248 40h1v1H248zM250 40h1v1H250zM252 40h1v1H252zM254 40h1v1H254zM256 40h1v1H256zM258 40h1v1H258zM260 40h1v1H260zM262 40h1v1H262zM264 40h1v1H264zM281 40h2v1H281zM289 40h2v1H289zM294 40h1v1H294zM1 41h1v1H1zM106 41h1v1H106zM130 41h3v1H130zM134 41h3v1H134zM138 41h3v1H138zM142 41h3v1H142zM146 41h3v1H146zM150 41h3v1H150zM154 41h3v1H154zM158 41h3v1H158zM162 41h3v1H162zM166 41h3v1H166zM170 41h3v1H170zM174 41h3v1H174zM178 41h3v1H178zM182 41h3v1H182zM186 41h3v1H186zM190 41h3v1H190zM194 41h3v1H194zM198 41h3v1H198zM202 41h3v1H202zM206 41h3v1H206zM210 41h3v1H210zM214 41h3v1H214zM218 41h3v1H218zM222 41h3v1H222zM226 41h3v1H226zM230 41h3v1H230zM234 41h3v1H234zM238 41h3v1H238zM242 41h3v1H242zM246 41h3v1H246zM250 41h3v1H250zM254 41h3v1H254zM258 41h3v1H258zM262 41h3v1H262zM294 41h1v1H294zM1 42h1v1H1zM106 42h1v1H106zM294 42h1v1H294zM1 43h1v1H1zM106 43h1v1H106zM294 43h1v1H294zM1 44h1v1H1zM106 44h1v1H106zM294 44h1v1H294zM1 45h1v1H1zM9 45h4v1H9zM106 45h1v1H106zM294 45h1v1H294zM1 46h1v1H1zM8 46h6v1H8zM23 46h3v1H23zM29 46h4v1H29zM35 46h4v1H35zM92 46h1v1H92zM97 46h3v1H97zM106 46h1v1H106zM130 46h3v1H130zM134 46h3v1H134zM138 46h3v1H138zM142 46h3v1H142zM146 46h3v1H146zM150 46h3v1H150zM154 46h3v1H154zM158 46h3v1H158zM162 46h3v1H162zM166 46h3v1H166zM170 46h3v1H170zM174 46h3v1H174zM178 46h3v1H178zM182 46h3v1H182zM186 46h3v1H186zM190 46h3v1H190zM194 46h3v1H194zM198 46h3v1H198zM202 46h3v1H202zM206 46h3v1H206zM210 46h3v1H210zM214 46h3v1H214zM218 46h3v1H218zM222 46h3v1H222zM226 46h3v1H226zM230 46h3v1H230zM234 46h3v1H234zM238 46h3v1H238zM242 46h3v1H242zM246 46h3v1H246zM250 46h3v1H250zM254 46h3v1H254zM258 46h3v1H258zM262 46h3v1H262zM294 46h1v1H294zM1 47h1v1H1zM7 47h2v1H7zM13 47h2v1H13zM24 47h1v1H24zM28 47h1v1H28zM34 47h1v1H34zM91 47h2v1H91zM96 47h1v1H96zM100 47h1v1H100zM106 47h1v1H106zM112 47h1v1H112zM116 47h1v1H116zM118 47h1v1H118zM122 47h1v1H122zM130 47h3v1H130zM134 47h3v1H134zM138 47h3v1H138zM142 47h3v1H142zM146 47h3v1H146zM150 47h3v1H150zM154 47h3v1H154zM158 47h3v1H158zM162 47h3v1H162zM166 47h3v1H166zM170 47h3v1H170zM174 47h3v1H174zM178 47h3v1H178zM182 47h3v1H182zM186 47h1v1H186zM188 47h1v1H188zM190 47h1v1H190zM192 47h1v1H192zM194 47h1v1H194zM196 47h1v1H196zM198 47h1v1H198zM200 47h1v1H200zM202 47h1v1H202zM204 47h1v1H204zM206 47h1v1H206zM208 47h1v1H208zM210 47h1v1H210zM212 47h1v1H212zM214 47h1v1H214zM216 47h1v1H216zM218 47h1v1H218zM220 47h1v1H220zM222 47h1v1H222zM224 47h1v1H224zM226 47h1v1H226zM228 47h1v1H228zM230 47h1v1H230zM232 47h1v1H232zM234 47h1v1H234zM236 47h1v1H236zM238 47h1v1H238zM240 47h1v1H240zM242 47h1v1H242zM244 47h1v1H244zM246 47h1v1H246zM248 47h1v1H248zM250 47h1v1H250zM252 47h1v1H252zM254 47h1v1H254zM256 47h1v1H256zM258 47h1v1H258zM260 47h1v1H260zM262 47h1v1H262zM264 47h1v1H264zM277 47h1v1H277zM282 47h1v1H282zM286 47h2v1H286zM294 47h1v1H294zM1 48h1v1H1zM7 48h2v1H7zM13 48h2v1H13zM24 48h1v1H24zM28 48h1v1H28zM34 48h1v1H34zM92 48h1v1H92zM100 48h1v1H100zM106 48h1v1H106zM112 48h1v1H112zM116 48h1v1H116zM118 48h1v1H118zM121 48h1v1H121zM130 48h3v1H130zM134 48h3v1H134zM138 48h3v1H138zM142 48h3v1H142zM146 48h3v1H146zM150 48h3v1H150zM154 48h3v1H154zM158 48h3v1H158zM162 48h3v1H162zM166 48h3v1H166zM170 48h3v1H170zM174 48h3v1H174zM178 48h3v1H178zM182 48h3v1H182zM186 48h1v1H186zM188 48h1v1H188zM190 48h1v1H190zM192 48h1v1H192zM194 48h1v1H194zM196 48h1v1H196zM198 48h1v1H198zM200 48h1v1H200zM202 48h1v1H202zM204 48h1v1H204zM206 48h1v1H206zM208 48h1v1H208zM210 48h1v1H210zM212 48h1v1H212zM214 48h1v1H214zM216 48h1v1H216zM218 48h1v1H218zM220 48h1v1H220zM222 48h1v1H222zM224 48h1v1H224zM226 48h1v1H226zM228 48h1v1H228zM230 48h1v1H230zM232 48h1v1H232zM234 48h1v1H234zM236 48h1v1H236zM238 48h1v1H238zM240 48h1v1H240zM242 48h1v1H242zM244 48h1v1H244zM246 48h1v1H246zM248 48h1v1H248zM250 48h1v1H250zM252 48h1v1H252zM254 48h1v1H254zM256 48h1v1H256zM258 48h1v1H258zM260 48h1v1H260zM262 48h1v1H262zM264 48h1v1H264zM276 48h2v1H276zM281 48h2v1H281zM286 48h2v1H286zM290 48h1v1H290zM294 48h1v1H294zM1 49h1v1H1zM7 49h2v1H7zM10 49h2v1H10zM13 49h2v1H13zM24 49h1v1H24zM29 49h3v1H29zM35 49h3v1H35zM92 49h1v1H92zM99 49h1v1H99zM106 49h1v1H106zM112 49h1v1H112zM116 49h1v1H116zM118 49h1v1H118zM120 49h1v1H120zM130 49h3v1H130zM134 49h3v1H134zM138 49h3v1H138zM142 49h3v1H142zM146 49h3v1H146zM150 49h3v1H150zM154 49h3v1H154zM158 49h3v1H158zM162 49h3v1H162zM166 49h3v1H166zM170 49h3v1H170zM174 49h3v1H174zM178 49h3v1H178zM182 49h3v1H182zM186 49h1v1H186zM188 49h1v1H188zM190 49h1v1H190zM192 49h1v1H192zM194 49h1v1H194zM196 49h1v1H196zM198 49h1v1H198zM200 49h1v1H200zM202 49h1v1H202zM204 49h1v1H204zM206 49h1v1H206zM208 49h1v1H208zM210 49h1v1H210zM212 49h1v1H212zM214 49h1v1H214zM216 49h1v1H216zM218 49h1v1H218zM220 49h1v1H220zM222 49h1v1H222zM224 49h1v1H224zM226 49h1v1H226zM228 49h1v1H228zM230 49h1v1H230zM232 49h1v1H232zM234 49h1v1H234zM236 49h1v1H236zM238 49h1v1H238zM240 49h1v1H240zM242 49h1v1H242zM244 49h1v1H244zM246 49h1v1H246zM248 49h1v1H248zM250 49h1v1H250zM252 49h1v1H252zM254 49h1v1H254zM256 49h1v1H256zM258 49h1v1H258zM260 49h1v1H260zM262 49h1v1H262zM264 49h1v1H264zM275 49h1v1H275zM277 49h1v1H277zM282 49h1v1H282zM289 49h1v1H289zM294 49h1v1H294zM1 50h1v1H1zM7 50h2v1H7zM10 50h2v1H10zM13 50h2v1H13zM24 50h1v1H24zM32 50h1v1H32zM38 50h1v1H38zM92 50h1v1H92zM98 50h1v1H98zM106 50h1v1H106zM112 50h1v1H112zM114 50h1v1H114zM116 50h1v1H116zM118 50h2v1H118zM130 50h3v1H130zM134 50h3v1H134zM138 50h3v1H138zM142 50h3v1H142zM146 50h3v1H146zM150 50h3v1H150zM154 50h3v1H154zM158 50h3v1H158zM162 50h3v1H162zM166 50h3v1H166zM170 50h3v1H170zM174 50h3v1H174zM178 50h3v1H178zM182 50h3v1H182zM186 50h1v1H186zM188 50h1v1H188zM190 50h1v1H190zM192 50h1v1H192zM194 50h1v1H194zM196 50h1v1H196zM198 50h1v1H198zM200 50h1v1H200zM202 50h1v1H202zM204 50h1v1H204zM206 50h1v1H206zM208 50h1v1H208zM210 50h1v1H210zM212 50h1v1H212zM214 50h1v1H214zM216 50h1v1H216zM218 50h1v1H218zM220 50h1v1H220zM222 50h1v1H222zM224 50h1v1H224zM226 50h1v1H226zM228 50h1v1H228zM230 50h1v1H230zM232 50h1v1H232zM234 50h1v1H234zM236 50h1v1H236zM238 50h1v1H238zM240 50h1v1H240zM242 50h1v1H242zM244 50h1v1H244zM246 50h1v1H246zM248 50h1v1H248zM250 50h1v1H250zM252 50h1v1H252zM254 50h1v1H254zM256 50h1v1H256zM258 50h1v1H258zM260 50h1v1H260zM262 50h1v1H262zM264 50h1v1H264zM274 50h1v1H274zM277 50h1v1H277zM282 50h1v1H282zM288 50h1v1H288zM294 50h1v1H294zM1 51h1v1H1zM7 51h2v1H7zM13 51h2v1H13zM24 51h1v1H24zM32 51h1v1H32zM38 51h1v1H38zM92 51h1v1H92zM97 51h1v1H97zM106 51h1v1H106zM112 51h1v1H112zM114 51h1v1H114zM116 51h1v1H116zM118 51h1v1H118zM120 51h1v1H120zM130 51h3v1H130zM134 51h3v1H134zM138 51h3v1H138zM142 51h3v1H142zM146 51h3v1H146zM150 51h3v1H150zM154 51h3v1H154zM158 51h3v1H158zM162 51h3v1H162zM166 51h3v1H166zM170 51h3v1H170zM174 51h3v1H174zM178 51h3v1H178zM182 51h3v1H182zM186 51h1v1H186zM188 51h1v1H188zM190 51h1v1H190zM192 51h1v1H192zM194 51h1v1H194zM196 51h1v1H196zM198 51h1v1H198zM200 51h1v1H200zM202 51h1v1H202zM204 51h1v1H204zM206 51h1v1H206zM208 51h1v1H208zM210 51h1v1H210zM212 51h1v1H212zM214 51h1v1H214zM216 51h1v1H216zM218 51h1v1H218zM220 51h1v1H220zM222 51h1v1H222zM224 51h1v1H224zM226 51h1v1H226zM228 51h1v1H228zM230 51h1v1H230zM232 51h1v1H232zM234 51h1v1H234zM236 51h1v1H236zM238 51h1v1H238zM240 51h1v1H240zM242 51h1v1H242zM244 51h1v1H244zM246 51h1v1H246zM248 51h1v1H248zM250 51h1v1H250zM252 51h1v1H252zM254 51h1v1H254zM256 51h1v1H256zM258 51h1v1H258zM260 51h1v1H260zM262 51h1v1H262zM264 51h1v1H264zM274 51h5v1H274zM282 51h1v1H282zM287 51h1v1H287zM294 51h1v1H294zM1 52h1v1H1zM7 52h2v1H7zM13 52h2v1H13zM23 52h3v1H23zM28 52h4v1H28zM34 52h4v1H34zM91 52h3v1H91zM96 52h5v1H96zM106 52h1v1H106zM112 52h1v1H112zM114 52h1v1H114zM116 52h1v1H116zM118 52h1v1H118zM121 52h1v1H121zM130 52h3v1H130zM134 52h3v1H134zM138 52h3v1H138zM142 52h3v1H142zM146 52h3v1H146zM150 52h3v1H150zM154 52h3v1H154zM158 52h3v1H158zM162 52h3v1H162zM166 52h3v1H166zM170 52h3v1H170zM174 52h3v1H174zM178 52h3v1H178zM182 52h3v1H182zM186 52h1v1H186zM188 52h1v1H188zM190 52h1v1H190zM192 52h1v1H192zM194 52h1v1H194zM196 52h1v1H196zM198 52h1v1H198zM200 52h1v1H200zM202 52h1v1H202zM204 52h1v1H204zM206 52h1v1H206zM208 52h1v1H208zM210 52h1v1H210zM212 52h1v1H212zM214 52h1v1H214zM216 52h1v1H216zM218 52h1v1H218zM220 52h1v1H220zM222 52h1v1H222zM224 52h1v1H224zM226 52h1v1H226zM228 52h1v1H228zM230 52h1v1H230zM232 52h1v1H232zM234 52h1v1H234zM236 52h1v1H236zM238 52h1v1H238zM240 52h1v1H240zM242 52h1v1H242zM244 52h1v1H244zM246 52h1v1H246zM248 52h1v1H248zM250 52h1v1H250zM252 52h1v1H252zM254 52h1v1H254zM256 52h1v1H256zM258 52h1v1H258zM260 52h1v1H260zM262 52h1v1H262zM264 52h1v1H264zM277 52h1v1H277zM282 52h1v1H282zM286 52h1v1H286zM289 52h2v1H289zM294 52h1v1H294zM1 53h1v1H1zM8 53h6v1H8zM106 53h1v1H106zM113 53h1v1H113zM115 53h1v1H115zM118 53h1v1H118zM122 53h1v1H122zM130 53h3v1H130zM134 53h3v1H134zM138 53h3v1H138zM142 53h3v1H142zM146 53h3v1H146zM150 53h3v1H150zM154 53h3v1H154zM158 53h3v1H158zM162 53h3v1H162zM166 53h3v1H166zM170 53h3v1H170zM174 53h3v1H174zM178 53h3v1H178zM182 53h3v1H182zM186 53h1v1H186zM188 53h1v1H188zM190 53h1v1H190zM192 53h1v1H192zM194 53h1v1H194zM196 53h1v1H196zM198 53h1v1H198zM200 53h1v1H200zM202 53h1v1H202zM204 53h1v1H204zM206 53h1v1H206zM208 53h1v1H208zM210 53h1v1H210zM212 53h1v1H212zM214 53h1v1H214zM216 53h1v1H216zM218 53h1v1H218zM220 53h1v1H220zM222 53h1v1H222zM224 53h1v1H224zM226 53h1v1H226zM228 53h1v1H228zM230 53h1v1H230zM232 53h1v1H232zM234 53h1v1H234zM236 53h1v1H236zM238 53h1v1H238zM240 53h1v1H240zM242 53h1v1H242zM244 53h1v1H244zM246 53h1v1H246zM248 53h1v1H248zM250 53h1v1H250zM252 53h1v1H252zM254 53h1v1H254zM256 53h1v1H256zM258 53h1v1H258zM260 53h1v1H260zM262 53h1v1H262zM264 53h1v1H264zM277 53h1v1H277zM281 53h3v1H281zM289 53h2v1H289zM294 53h1v1H294zM1 54h1v1H1zM9 54h4v1H9zM106 54h1v1H106zM130 54h3v1H130zM134 54h3v1H134zM138 54h3v1H138zM142 54h3v1H142zM146 54h3v1H146zM150 54h3v1H150zM154 54h3v1H154zM158 54h3v1H158zM162 54h3v1H162zM166 54h3v1H166zM170 54h3v1H170zM174 54h3v1H174zM178 54h3v1H178zM182 54h3v1H182zM186 54h3v1H186zM190 54h3v1H190zM194 54h3v1H194zM198 54h3v1H198zM202 54h3v1H202zM206 54h3v1H206zM210 54h3v1H210zM214 54h3v1H214zM218 54h3v1H218zM222 54h3v1H222zM226 54h3v1H226zM230 54h3v1H230zM234 54h3v1H234zM238 54h3v1H238zM242 54h3v1H242zM246 54h3v1H246zM250 54h3v1H250zM254 54h3v1H254zM258 54h3v1H258zM262 54h3v1H262zM294 54h1v1H294zM1 55h1v1H1zM106 55h1v1H106zM294 55h1v1H294zM1 56h1v1H1zM106 56h1v1H106zM294 56h1v1H294zM1 57h1v1H1zM106 57h1v1H106zM294 57h1v1H294zM1 58h1v1H1zM106 58h1v1H106zM113 58h3v1H113zM138 58h3v1H138zM142 58h3v1H142zM146 58h3v1H146zM150 58h3v1H150zM154 58h3v1H154zM158 58h3v1H158zM162 58h3v1H162zM166 58h3v1H166zM170 58h3v1H170zM174 58h3v1H174zM178 58h3v1H178zM182 58h3v1H182zM186 58h3v1H186zM190 58h3v1H190zM194 58h3v1H194zM198 58h3v1H198zM202 58h3v1H202zM206 58h3v1H206zM210 58h3v1H210zM214 58h3v1H214zM218 58h3v1H218zM222 58h3v1H222zM226 58h3v1H226zM230 58h3v1H230zM234 58h3v1H234zM238 58h3v1H238zM242 58h3v1H242zM246 58h3v1H246zM250 58h3v1H250zM254 58h3v1H254zM258 58h3v1H258zM262 58h3v1H262zM294 58h1v1H294zM1 59h1v1H1zM106 59h1v1H106zM112 59h1v1H112zM138 59h1v1H138zM140 59h1v1H140zM142 59h1v1H142zM144 59h1v1H144zM146 59h1v1H146zM148 59h1v1H148zM150 59h1v1H150zM152 59h1v1H152zM154 59h1v1H154zM156 59h1v1H156zM158 59h1v1H158zM160 59h1v1H160zM162 59h1v1H162zM164 59h1v1H164zM166 59h1v1H166zM168 59h1v1H168zM170 59h1v1H170zM172 59h1v1H172zM174 59h1v1H174zM176 59h1v1H176zM178 59h1v1H178zM180 59h1v1H180zM182 59h1v1H182zM184 59h1v1H184zM186 59h1v1H186zM188 59h1v1H188zM190 59h1v1H190zM192 59h1v1H192zM194 59h1v1H194zM196 59h1v1H196zM198 59h1v1H198zM200 59h1v1H200zM202 59h1v1H202zM204 59h1v1H204zM206 59h1v1H206zM208 59h1v1H208zM210 59h1v1H210zM212 59h1v1H212zM214 59h1v1H214zM216 59h1v1H216zM218 59h1v1H218zM220 59h1v1H220zM222 59h1v1H222zM224 59h1v1H224zM226 59h1v1H226zM228 59h1v1H228zM230 59h1v1H230zM232 59h1v1H232zM234 59h1v1H234zM236 59h1v1H236zM238 59h1v1H238zM240 59h1v1H240zM242 59h1v1H242zM244 59h1v1H244zM246 59h1v1H246zM248 59h1v1H248zM250 59h1v1H250zM252 59h1v1H252zM254 59h1v1H254zM256 59h1v1H256zM258 59h1v1H258zM260 59h1v1H260zM262 59h1v1H262zM264 59h1v1H264zM294 59h1v1H294zM1 60h1v1H1zM106 60h1v1H106zM112 60h3v1H112zM138 60h1v1H138zM140 60h1v1H140zM142 60h1v1H142zM144 60h1v1H144zM146 60h1v1H146zM148 60h1v1H148zM150 60h1v1H150zM152 60h1v1H152zM154 60h1v1H154zM156 60h1v1H156zM158 60h1v1H158zM160 60h1v1H160zM162 60h1v1H162zM164 60h1v1H164zM166 60h1v1H166zM168 60h1v1H168zM170 60h1v1H170zM172 60h1v1H172zM174 60h1v1H174zM176 60h1v1H176zM178 60h1v1H178zM180 60h1v1H180zM182 60h1v1H182zM184 60h1v1H184zM186 60h1v1H186zM188 60h1v1H188zM190 60h1v1H190zM192 60h1v1H192zM194 60h1v1H194zM196 60h1v1H196zM198 60h1v1H198zM200 60h1v1H200zM202 60h1v1H202zM204 60h1v1H204zM206 60h1v1H206zM208 60h1v1H208zM210 60h1v1H210zM212 60h1v1H212zM214 60h1v1H214zM216 60h1v1H216zM218 60h1v1H218zM220 60h1v1H220zM222 60h1v1H222zM224 60h1v1H224zM226 60h1v1H226zM228 60h1v1H228zM230 60h1v1H230zM232 60h1v1H232zM234 60h1v1H234zM236 60h1v1H236zM238 60h1v1H238zM240 60h1v1H240zM242 60h1v1H242zM244 60h1v1H244zM246 60h1v1H246zM248 60h1v1H248zM250 60h1v1H250zM252 60h1v1H252zM254 60h1v1H254zM256 60h1v1H256zM258 60h1v1H258zM260 60h1v1H260zM262 60h1v1H262zM264 60h1v1H264zM294 60h1v1H294zM1 61h1v1H1zM106 61h1v1H106zM112 61h1v1H112zM138 61h1v1H138zM140 61h1v1H140zM142 61h1v1H142zM144 61h1v1H144zM146 61h1v1H146zM148 61h1v1H148zM150 61h1v1H150zM152 61h1v1H152zM154 61h1v1H154zM156 61h1v1H156zM158 61h1v1H158zM160 61h1v1H160zM162 61h1v1H162zM164 61h1v1H164zM166 61h1v1H166zM168 61h1v1H168zM170 61h1v1H170zM172 61h1v1H172zM174 61h1v1H174zM176 61h1v1H176zM178 61h1v1H178zM180 61h1v1H180zM182 61h1v1H182zM184 61h1v1H184zM186 61h1v1H186zM188 61h1v1H188zM190 61h1v1H190zM192 61h1v1H192zM194 61h1v1H194zM196 61h1v1H196zM198 61h1v1H198zM200 61h1v1H200zM202 61h1v1H202zM204 61h1v1H204zM206 61h1v1H206zM208 61h1v1H208zM210 61h1v1H210zM212 61h1v1H212zM214 61h1v1H214zM216 61h1v1H216zM218 61h1v1H218zM220 61h1v1H220zM222 61h1v1H222zM224 61h1v1H224zM226 61h1v1H226zM228 61h1v1H228zM230 61h1v1H230zM232 61h1v1H232zM234 61h1v1H234zM236 61h1v1H236zM238 61h1v1H238zM240 61h1v1H240zM242 61h1v1H242zM244 61h1v1H244zM246 61h1v1H246zM248 61h1v1H248zM250 61h1v1H250zM252 61h1v1H252zM254 61h1v1H254zM256 61h1v1H256zM258 61h1v1H258zM260 61h1v1H260zM262 61h1v1H262zM264 61h1v1H264zM294 61h1v1H294zM1 62h1v1H1zM106 62h1v1H106zM112 62h3v1H112zM138 62h1v1H138zM140 62h1v1H140zM142 62h1v1H142zM144 62h1v1H144zM146 62h1v1H146zM148 62h1v1H148zM150 62h1v1H150zM152 62h1v1H152zM154 62h1v1H154zM156 62h1v1H156zM158 62h1v1H158zM160 62h1v1H160zM162 62h1v1H162zM164 62h1v1H164zM166 62h1v1H166zM168 62h1v1H168zM170 62h1v1H170zM172 62h1v1H172zM174 62h1v1H174zM176 62h1v1H176zM178 62h1v1H178zM180 62h1v1H180zM182 62h1v1H182zM184 62h1v1H184zM186 62h1v1H186zM188 62h1v1H188zM190 62h1v1H190zM192 62h1v1H192zM194 62h1v1H194zM196 62h1v1H196zM198 62h1v1H198zM200 62h1v1H200zM202 62h1v1H202zM204 62h1v1H204zM206 62h1v1H206zM208 62h1v1H208zM210 62h1v1H210zM212 62h1v1H212zM214 62h1v1H214zM216 62h1v1H216zM218 62h1v1H218zM220 62h1v1H220zM222 62h1v1H222zM224 62h1v1H224zM226 62h1v1H226zM228 62h1v1H228zM230 62h1v1H230zM232 62h1v1H232zM234 62h1v1H234zM236 62h1v1H236zM238 62h1v1H238zM240 62h1v1H240zM242 62h1v1H242zM244 62h1v1H244zM246 62h1v1H246zM248 62h1v1H248zM250 62h1v1H250zM252 62h1v1H252zM254 62h1v1H254zM256 62h1v1H256zM258 62h1v1H258zM260 62h1v1H260zM262 62h1v1H262zM264 62h1v1H264zM294 62h1v1H294zM1 63h1v1H1zM106 63h1v1H106zM112 63h1v1H112zM138 63h1v1H138zM140 63h1v1H140zM142 63h1v1H142zM144 63h1v1H144zM146 63h1v1H146zM148 63h1v1H148zM150 63h1v1H150zM152 63h1v1H152zM154 63h1v1H154zM156 63h1v1H156zM158 63h1v1H158zM160 63h1v1H160zM162 63h1v1H162zM164 63h1v1H164zM166 63h1v1H166zM168 63h1v1H168zM170 63h1v1H170zM172 63h1v1H172zM174 63h1v1H174zM176 63h1v1H176zM178 63h1v1H178zM180 63h1v1H180zM182 63h1v1H182zM184 63h1v1H184zM186 63h1v1H186zM188 63h1v1H188zM190 63h1v1H190zM192 63h1v1H192zM194 63h1v1H194zM196 63h1v1H196zM198 63h1v1H198zM200 63h1v1H200zM202 63h1v1H202zM204 63h1v1H204zM206 63h1v1H206zM208 63h1v1H208zM210 63h1v1H210zM212 63h1v1H212zM214 63h1v1H214zM216 63h1v1H216zM218 63h1v1H218zM220 63h1v1H220zM222 63h1v1H222zM224 63h1v1H224zM226 63h1v1H226zM228 63h1v1H228zM230 63h1v1H230zM232 63h1v1H232zM234 63h1v1H234zM236 63h1v1H236zM238 63h1v1H238zM240 63h1v1H240zM242 63h1v1H242zM244 63h1v1H244zM246 63h1v1H246zM248 63h1v1H248zM250 63h1v1H250zM252 63h1v1H252zM254 63h1v1H254zM256 63h1v1H256zM258 63h1v1H258zM260 63h1v1H260zM262 63h1v1H262zM264 63h1v1H264zM294 63h1v1H294zM1 64h1v1H1zM106 64h1v1H106zM113 64h3v1H113zM138 64h1v1H138zM140 64h1v1H140zM142 64h1v1H142zM144 64h1v1H144zM146 64h1v1H146zM148 64h1v1H148zM150 64h1v1H150zM152 64h1v1H152zM154 64h1v1H154zM156 64h1v1H156zM158 64h1v1H158zM160 64h1v1H160zM162 64h1v1H162zM164 64h1v1H164zM166 64h1v1H166zM168 64h1v1H168zM170 64h1v1H170zM172 64h1v1H172zM174 64h1v1H174zM176 64h1v1H176zM178 64h1v1H178zM180 64h1v1H180zM182 64h1v1H182zM184 64h1v1H184zM186 64h1v1H186zM188 64h1v1H188zM190 64h1v1H190zM192 64h1v1H192zM194 64h1v1H194zM196 64h1v1H196zM198 64h1v1H198zM200 64h1v1H200zM202 64h1v1H202zM204 64h1v1H204zM206 64h1v1H206zM208 64h1v1H208zM210 64h1v1H210zM212 64h1v1H212zM214 64h1v1H214zM216 64h1v1H216zM218 64h1v1H218zM220 64h1v1H220zM222 64h1v1H222zM224 64h1v1H224zM226 64h1v1H226zM228 64h1v1H228zM230 64h1v1H230zM232 64h1v1H232zM234 64h1v1H234zM236 64h1v1H236zM238 64h1v1H238zM240 64h1v1H240zM242 64h1v1H242zM244 64h1v1H244zM246 64h1v1H246zM248 64h1v1H248zM250 64h1v1H250zM252 64h1v1H252zM254 64h1v1H254zM256 64h1v1H256zM258 64h1v1H258zM260 64h1v1H260zM262 64h1v1H262zM264 64h1v1H264zM294 64h1v1H294zM1 65h1v1H1zM106 65h1v1H106zM138 65h1v1H138zM140 65h1v1H140zM142 65h1v1H142zM144 65h1v1H144zM146 65h1v1H146zM148 65h1v1H148zM150 65h1v1H150zM152 65h1v1H152zM154 65h1v1H154zM156 65h1v1H156zM158 65h1v1H158zM160 65h1v1H160zM162 65h1v1H162zM164 65h1v1H164zM166 65h1v1H166zM168 65h1v1H168zM170 65h1v1H170zM172 65h1v1H172zM174 65h1v1H174zM176 65h1v1H176zM178 65h1v1H178zM180 65h1v1H180zM182 65h1v1H182zM184 65h1v1H184zM186 65h1v1H186zM188 65h1v1H188zM190 65h1v1H190zM192 65h1v1H192zM194 65h1v1H194zM196 65h1v1H196zM198 65h1v1H198zM200 65h1v1H200zM202 65h1v1H202zM204 65h1v1H204zM206 65h1v1H206zM208 65h1v1H208zM210 65h1v1H210zM212 65h1v1H212zM214 65h1v1H214zM216 65h1v1H216zM218 65h1v1H218zM220 65h1v1H220zM222 65h1v1H222zM224 65h1v1H224zM226 65h1v1H226zM228 65h1v1H228zM230 65h1v1H230zM232 65h1v1H232zM234 65h1v1H234zM236 65h1v1H236zM238 65h1v1H238zM240 65h1v1H240zM242 65h1v1H242zM244 65h1v1H244zM246 65h1v1H246zM248 65h1v1H248zM250 65h1v1H250zM252 65h1v1H252zM254 65h1v1H254zM256 65h1v1H256zM258 65h1v1H258zM260 65h1v1H260zM262 65h1v1H262zM264 65h1v1H264zM294 65h1v1H294zM1 66h1v1H1zM106 66h1v1H106zM138 66h3v1H138zM142 66h3v1H142zM146 66h3v1H146zM150 66h3v1H150zM154 66h3v1H154zM158 66h3v1H158zM162 66h3v1H162zM166 66h3v1H166zM170 66h3v1H170zM174 66h3v1H174zM178 66h3v1H178zM182 66h3v1H182zM186 66h3v1H186zM190 66h3v1H190zM194 66h3v1H194zM198 66h3v1H198zM202 66h3v1H202zM206 66h3v1H206zM210 66h3v1H210zM214 66h3v1H214zM218 66h3v1H218zM222 66h3v1H222zM226 66h3v1H226zM230 66h3v1H230zM234 66h3v1H234zM238 66h3v1H238zM242 66h3v1H242zM246 66h3v1H246zM250 66h3v1H250zM254 66h3v1H254zM258 66h3v1H258zM262 66h3v1H262zM294 66h1v1H294zM1 67h1v1H1zM7 67h2v1H7zM13 67h2v1H13zM106 67h1v1H106zM294 67h1v1H294zM1 68h1v1H1zM7 68h2v1H7zM13 68h2v1H13zM22 68h4v1H22zM28 68h4v1H28zM99 68h1v1H99zM106 68h1v1H106zM294 68h1v1H294zM1 69h1v1H1zM7 69h1v1H7zM14 69h1v1H14zM22 69h1v1H22zM26 69h1v1H26zM28 69h1v1H28zM32 69h1v1H32zM98 69h2v1H98zM106 69h1v1H106zM294 69h1v1H294zM1 70h1v1H1zM7 70h1v1H7zM14 70h1v1H14zM22 70h1v1H22zM26 70h1v1H26zM28 70h1v1H28zM32 70h1v1H32zM97 70h1v1H97zM99 70h1v1H99zM106 70h1v1H106zM294 70h1v1H294zM1 71h1v1H1zM7 71h1v1H7zM10 71h1v1H10zM14 71h1v1H14zM22 71h4v1H22zM28 71h4v1H28zM96 71h1v1H96zM99 71h1v1H99zM106 71h1v1H106zM294 71h1v1H294zM1 72h1v1H1zM7 72h1v1H7zM10 72h4v1H10zM22 72h1v1H22zM28 72h1v1H28zM30 72h1v1H30zM96 72h5v1H96zM106 72h1v1H106zM294 72h1v1H294zM1 73h1v1H1zM7 73h1v1H7zM22 73h1v1H22zM28 73h1v1H28zM31 73h1v1H31zM99 73h1v1H99zM106 73h1v1H106zM294 73h1v1H294zM1 74h1v1H1zM7 74h1v1H7zM22 74h1v1H22zM28 74h1v1H28zM32 74h1v1H32zM99 74h1v1H99zM106 74h1v1H106zM294 74h1v1H294zM1 75h1v1H1zM7 75h2v1H7zM106 75h1v1H106zM294 75h1v1H294zM1 76h1v1H1zM7 76h2v1H7zM106 76h1v1H106zM113 76h3v1H113zM119 76h3v1H119zM124 76h3v1H124zM130 76h5v1H130zM136 76h1v1H136zM140 76h1v1H140zM217 76h7v1H217zM230 76h1v1H230zM234 76h1v1H234zM241 76h3v1H241zM247 76h3v1H247zM262 76h5v1H262zM272 76h1v1H272zM276 76h1v1H276zM280 76h5v1H280zM286 76h1v1H286zM294 76h1v1H294zM1 77h1v1H1zM106 77h1v1H106zM112 77h1v1H112zM116 77h1v1H116zM118 77h1v1H118zM122 77h1v1H122zM124 77h1v1H124zM127 77h1v1H127zM130 77h1v1H130zM136 77h1v1H136zM140 77h1v1H140zM218 77h5v1H218zM229 77h2v1H229zM234 77h1v1H234zM240 77h1v1H240zM244 77h1v1H244zM246 77h1v1H246zM250 77h1v1H250zM258 77h1v1H258zM265 77h1v1H265zM272 77h1v1H272zM275 77h2v1H275zM280 77h1v1H280zM286 77h1v1H286zM294 77h1v1H294zM1 78h1v1H1zM106 78h1v1H106zM112 78h1v1H112zM118 78h1v1H118zM122 78h1v1H122zM124 78h1v1H124zM128 78h1v1H128zM130 78h1v1H130zM137 78h1v1H137zM139 78h1v1H139zM219 78h3v1H219zM230 78h1v1H230zM234 78h1v1H234zM236 78h2v1H236zM240 78h1v1H240zM243 78h2v1H243zM246 78h1v1H246zM249 78h2v1H249zM257 78h1v1H257zM264 78h1v1H264zM269 78h2v1H269zM272 78h1v1H272zM276 78h1v1H276zM280 78h4v1H280zM286 78h1v1H286zM288 78h2v1H288zM294 78h1v1H294zM1 79h1v1H1zM106 79h1v1H106zM112 79h1v1H112zM118 79h1v1H118zM122 79h1v1H122zM124 79h1v1H124zM128 79h1v1H128zM130 79h4v1H130zM138 79h1v1H138zM220 79h1v1H220zM230 79h1v1H230zM234 79h2v1H234zM238 79h1v1H238zM240 79h1v1H240zM242 79h1v1H242zM244 79h1v1H244zM246 79h1v1H246zM248 79h1v1H248zM250 79h1v1H250zM256 79h1v1H256zM265 79h1v1H265zM268 79h1v1H268zM271 79h2v1H271zM276 79h1v1H276zM284 79h1v1H284zM286 79h2v1H286zM290 79h1v1H290zM294 79h1v1H294zM1 80h1v1H1zM106 80h1v1H106zM112 80h1v1H112zM118 80h1v1H118zM122 80h1v1H122zM124 80h1v1H124zM128 80h1v1H128zM130 80h1v1H130zM137 80h1v1H137zM139 80h1v1H139zM219 80h3v1H219zM230 80h1v1H230zM234 80h1v1H234zM238 80h1v1H238zM240 80h2v1H240zM244 80h1v1H244zM246 80h2v1H246zM250 80h1v1H250zM255 80h1v1H255zM266 80h1v1H266zM268 80h1v1H268zM272 80h1v1H272zM276 80h1v1H276zM284 80h1v1H284zM286 80h1v1H286zM290 80h1v1H290zM294 80h1v1H294zM1 81h1v1H1zM106 81h1v1H106zM112 81h1v1H112zM116 81h1v1H116zM118 81h1v1H118zM122 81h1v1H122zM124 81h1v1H124zM127 81h1v1H127zM130 81h1v1H130zM136 81h1v1H136zM140 81h1v1H140zM218 81h5v1H218zM230 81h1v1H230zM234 81h1v1H234zM238 81h1v1H238zM240 81h1v1H240zM244 81h1v1H244zM246 81h1v1H246zM250 81h1v1H250zM254 81h1v1H254zM262 81h1v1H262zM266 81h1v1H266zM268 81h1v1H268zM272 81h1v1H272zM276 81h1v1H276zM280 81h1v1H280zM284 81h1v1H284zM286 81h1v1H286zM290 81h1v1H290zM294 81h1v1H294zM1 82h1v1H1zM106 82h1v1H106zM113 82h3v1H113zM119 82h3v1H119zM124 82h3v1H124zM130 82h5v1H130zM136 82h1v1H136zM140 82h1v1H140zM217 82h7v1H217zM229 82h3v1H229zM234 82h1v1H234zM238 82h1v1H238zM241 82h3v1H241zM247 82h3v1H247zM263 82h3v1H263zM269 82h4v1H269zM275 82h3v1H275zM281 82h3v1H281zM286 82h1v1H286zM290 82h1v1H290zM294 82h1v1H294zM1 83h1v1H1zM106 83h1v1H106zM294 83h1v1H294zM1 84h1v1H1zM106 84h1v1H106zM294 84h1v1H294zM1 85h1v1H1zM106 85h1v1H106zM294 85h1v1H294zM1 86h1v1H1zM106 86h1v1H106zM294 86h1v1H294zM1 87h1v1H1zM106 87h1v1H106zM130 87h3v1H130zM134 87h3v1H134zM138 87h3v1H138zM142 87h3v1H142zM146 87h3v1H146zM150 87h3v1H150zM154 87h3v1H154zM158 87h3v1H158zM162 87h3v1H162zM166 87h3v1H166zM170 87h3v1H170zM174 87h3v1H174zM178 87h3v1H178zM182 87h3v1H182zM186 87h3v1H186zM190 87h3v1H190zM194 87h3v1H194zM198 87h3v1H198zM202 87h3v1H202zM206 87h3v1H206zM210 87h3v1H210zM214 87h3v1H214zM218 87h3v1H218zM222 87h3v1H222zM226 87h3v1H226zM230 87h3v1H230zM234 87h3v1H234zM238 87h3v1H238zM242 87h3v1H242zM246 87h3v1H246zM250 87h3v1H250zM254 87h3v1H254zM258 87h3v1H258zM262 87h3v1H262zM294 87h1v1H294zM1 88h1v1H1zM106 88h1v1H106zM112 88h5v1H112zM118 88h1v1H118zM122 88h1v1H122zM130 88h3v1H130zM134 88h3v1H134zM138 88h3v1H138zM142 88h3v1H142zM146 88h3v1H146zM150 88h3v1H150zM154 88h3v1H154zM158 88h3v1H158zM162 88h3v1H162zM166 88h3v1H166zM170 88h3v1H170zM174 88h1v1H174zM176 88h1v1H176zM178 88h1v1H178zM180 88h1v1H180zM182 88h1v1H182zM184 88h1v1H184zM186 88h1v1H186zM188 88h1v1H188zM190 88h1v1H190zM192 88h1v1H192zM194 88h1v1H194zM196 88h1v1H196zM198 88h1v1H198zM200 88h1v1H200zM202 88h1v1H202zM204 88h1v1H204zM206 88h1v1H206zM208 88h1v1H208zM210 88h1v1H210zM212 88h1v1H212zM214 88h1v1H214zM216 88h1v1H216zM218 88h1v1H218zM220 88h1v1H220zM222 88h1v1H222zM224 88h1v1H224zM226 88h1v1H226zM228 88h1v1H228zM230 88h1v1H230zM232 88h1v1H232zM234 88h1v1H234zM236 88h1v1H236zM238 88h1v1H238zM240 88h1v1H240zM242 88h1v1H242zM244 88h1v1H244zM246 88h1v1H246zM248 88h1v1H248zM250 88h1v1H250zM252 88h1v1H252zM254 88h1v1H254zM256 88h1v1H256zM258 88h1v1H258zM260 88h1v1H260zM262 88h1v1H262zM264 88h1v1H264zM274 88h5v1H274zM281 88h3v1H281zM286 88h2v1H286zM294 88h1v1H294zM1 89h1v1H1zM106 89h1v1H106zM112 89h1v1H112zM118 89h1v1H118zM122 89h1v1H122zM130 89h3v1H130zM134 89h3v1H134zM138 89h3v1H138zM142 89h3v1H142zM146 89h3v1H146zM150 89h3v1H150zM154 89h3v1H154zM158 89h3v1H158zM162 89h3v1H162zM166 89h3v1H166zM170 89h3v1H170zM174 89h1v1H174zM176 89h1v1H176zM178 89h1v1H178zM180 89h1v1H180zM182 89h1v1H182zM184 89h1v1H184zM186 89h1v1H186zM188 89h1v1H188zM190 89h1v1H190zM192 89h1v1H192zM194 89h1v1H194zM196 89h1v1H196zM198 89h1v1H198zM200 89h1v1H200zM202 89h1v1H202zM204 89h1v1H204zM206 89h1v1H206zM208 89h1v1H208zM210 89h1v1H210zM212 89h1v1H212zM214 89h1v1H214zM216 89h1v1H216zM218 89h1v1H218zM220 89h1v1H220zM222 89h1v1H222zM224 89h1v1H224zM226 89h1v1H226zM228 89h1v1H228zM230 89h1v1H230zM232 89h1v1H232zM234 89h1v1H234zM236 89h1v1H236zM238 89h1v1H238zM240 89h1v1H240zM242 89h1v1H242zM244 89h1v1H244zM246 89h1v1H246zM248 89h1v1H248zM250 89h1v1H250zM252 89h1v1H252zM254 89h1v1H254zM256 89h1v1H256zM258 89h1v1H258zM260 89h1v1H260zM262 89h1v1H262zM264 89h1v1H264zM277 89h1v1H277zM280 89h1v1H280zM284 89h1v1H284zM286 89h2v1H286zM290 89h1v1H290zM294 89h1v1H294zM1 90h1v1H1zM7 90h8v1H7zM23 90h3v1H23zM28 90h1v1H28zM32 90h1v1H32zM34 90h4v1H34zM41 90h3v1H41zM46 90h1v1H46zM50 90h1v1H50zM98 90h1v1H98zM106 90h1v1H106zM112 90h4v1H112zM118 90h1v1H118zM122 90h1v1H122zM130 90h3v1H130zM134 90h3v1H134zM138 90h3v1H138zM142 90h3v1H142zM146 90h3v1H146zM150 90h3v1H150zM154 90h3v1H154zM158 90h3v1H158zM162 90h3v1H162zM166 90h3v1H166zM170 90h3v1H170zM174 90h1v1H174zM176 90h1v1H176zM178 90h1v1H178zM180 90h1v1H180zM182 90h1v1H182zM184 90h1v1H184zM186 90h1v1H186zM188 90h1v1H188zM190 90h1v1H190zM192 90h1v1H192zM194 90h1v1H194zM196 90h1v1H196zM198 90h1v1H198zM200 90h1v1H200zM202 90h1v1H202zM204 90h1v1H204zM206 90h1v1H206zM208 90h1v1H208zM210 90h1v1H210zM212 90h1v1H212zM214 90h1v1H214zM216 90h1v1H216zM218 90h1v1H218zM220 90h1v1H220zM222 90h1v1H222zM224 90h1v1H224zM226 90h1v1H226zM228 90h1v1H228zM230 90h1v1H230zM232 90h1v1H232zM234 90h1v1H234zM236 90h1v1H236zM238 90h1v1H238zM240 90h1v1H240zM242 90h1v1H242zM244 90h1v1H244zM246 90h1v1H246zM248 90h1v1H248zM250 90h1v1H250zM252 90h1v1H252zM254 90h1v1H254zM256 90h1v1H256zM258 90h1v1H258zM260 90h1v1H260zM262 90h1v1H262zM264 90h1v1H264zM276 90h1v1H276zM284 90h1v1H284zM289 90h1v1H289zM294 90h1v1H294zM1 91h1v1H1zM6 91h1v1H6zM15 91h1v1H15zM24 91h1v1H24zM28 91h1v1H28zM32 91h1v1H32zM34 91h1v1H34zM38 91h1v1H38zM40 91h1v1H40zM44 91h1v1H44zM46 91h1v1H46zM50 91h1v1H50zM97 91h2v1H97zM106 91h1v1H106zM116 91h1v1H116zM118 91h5v1H118zM130 91h3v1H130zM134 91h3v1H134zM138 91h3v1H138zM142 91h3v1H142zM146 91h3v1H146zM150 91h3v1H150zM154 91h3v1H154zM158 91h3v1H158zM162 91h3v1H162zM166 91h3v1H166zM170 91h3v1H170zM174 91h1v1H174zM176 91h1v1H176zM178 91h1v1H178zM180 91h1v1H180zM182 91h1v1H182zM184 91h1v1H184zM186 91h1v1H186zM188 91h1v1H188zM190 91h1v1H190zM192 91h1v1H192zM194 91h1v1H194zM196 91h1v1H196zM198 91h1v1H198zM200 91h1v1H200zM202 91h1v1H202zM204 91h1v1H204zM206 91h1v1H206zM208 91h1v1H208zM210 91h1v1H210zM212 91h1v1H212zM214 91h1v1H214zM216 91h1v1H216zM218 91h1v1H218zM220 91h1v1H220zM222 91h1v1H222zM224 91h1v1H224zM226 91h1v1H226zM228 91h1v1H228zM230 91h1v1H230zM232 91h1v1H232zM234 91h1v1H234zM236 91h1v1H236zM238 91h1v1H238zM240 91h1v1H240zM242 91h1v1H242zM244 91h1v1H244zM246 91h1v1H246zM248 91h1v1H248zM250 91h1v1H250zM252 91h1v1H252zM254 91h1v1H254zM256 91h1v1H256zM258 91h1v1H258zM260 91h1v1H260zM262 91h1v1H262zM264 91h1v1H264zM277 91h1v1H277zM283 91h1v1H283zM288 91h1v1H288zM294 91h1v1H294zM1 92h1v1H1zM6 92h1v1H6zM15 92h1v1H15zM24 92h1v1H24zM28 92h2v1H28zM32 92h1v1H32zM34 92h1v1H34zM38 92h1v1H38zM40 92h1v1H40zM44 92h1v1H44zM47 92h1v1H47zM49 92h1v1H49zM98 92h1v1H98zM106 92h1v1H106zM116 92h1v1H116zM118 92h1v1H118zM122 92h1v1H122zM130 92h3v1H130zM134 92h3v1H134zM138 92h3v1H138zM142 92h3v1H142zM146 92h3v1H146zM150 92h3v1H150zM154 92h3v1H154zM158 92h3v1H158zM162 92h3v1H162zM166 92h3v1H166zM170 92h3v1H170zM174 92h1v1H174zM176 92h1v1H176zM178 92h1v1H178zM180 92h1v1H180zM182 92h1v1H182zM184 92h1v1H184zM186 92h1v1H186zM188 92h1v1H188zM190 92h1v1H190zM192 92h1v1H192zM194 92h1v1H194zM196 92h1v1H196zM198 92h1v1H198zM200 92h1v1H200zM202 92h1v1H202zM204 92h1v1H204zM206 92h1v1H206zM208 92h1v1H208zM210 92h1v1H210zM212 92h1v1H212zM214 92h1v1H214zM216 92h1v1H216zM218 92h1v1H218zM220 92h1v1H220zM222 92h1v1H222zM224 92h1v1H224zM226 92h1v1H226zM228 92h1v1H228zM230 92h1v1H230zM232 92h1v1H232zM234 92h1v1H234zM236 92h1v1H236zM238 92h1v1H238zM240 92h1v1H240zM242 92h1v1H242zM244 92h1v1H244zM246 92h1v1H246zM248 92h1v1H248zM250 92h1v1H250zM252 92h1v1H252zM254 92h1v1H254zM256 92h1v1H256zM258 92h1v1H258zM260 92h1v1H260zM262 92h1v1H262zM264 92h1v1H264zM278 92h1v1H278zM282 92h1v1H282zM287 92h1v1H287zM294 92h1v1H294zM1 93h1v1H1zM6 93h1v1H6zM15 93h1v1H15zM24 93h1v1H24zM28 93h1v1H28zM30 93h1v1H30zM32 93h1v1H32zM34 93h4v1H34zM40 93h1v1H40zM44 93h1v1H44zM48 93h1v1H48zM98 93h1v1H98zM106 93h1v1H106zM112 93h1v1H112zM116 93h1v1H116zM118 93h1v1H118zM122 93h1v1H122zM130 93h3v1H130zM134 93h3v1H134zM138 93h3v1H138zM142 93h3v1H142zM146 93h3v1H146zM150 93h3v1H150zM154 93h3v1H154zM158 93h3v1H158zM162 93h3v1H162zM166 93h3v1H166zM170 93h3v1H170zM174 93h1v1H174zM176 93h1v1H176zM178 93h1v1H178zM180 93h1v1H180zM182 93h1v1H182zM184 93h1v1H184zM186 93h1v1H186zM188 93h1v1H188zM190 93h1v1H190zM192 93h1v1H192zM194 93h1v1H194zM196 93h1v1H196zM198 93h1v1H198zM200 93h1v1H200zM202 93h1v1H202zM204 93h1v1H204zM206 93h1v1H206zM208 93h1v1H208zM210 93h1v1H210zM212 93h1v1H212zM214 93h1v1H214zM216 93h1v1H216zM218 93h1v1H218zM220 93h1v1H220zM222 93h1v1H222zM224 93h1v1H224zM226 93h1v1H226zM228 93h1v1H228zM230 93h1v1H230zM232 93h1v1H232zM234 93h1v1H234zM236 93h1v1H236zM238 93h1v1H238zM240 93h1v1H240zM242 93h1v1H242zM244 93h1v1H244zM246 93h1v1H246zM248 93h1v1H248zM250 93h1v1H250zM252 93h1v1H252zM254 93h1v1H254zM256 93h1v1H256zM258 93h1v1H258zM260 93h1v1H260zM262 93h1v1H262zM264 93h1v1H264zM274 93h1v1H274zM278 93h1v1H278zM281 93h1v1H281zM286 93h1v1H286zM289 93h2v1H289zM294 93h1v1H294zM1 94h1v1H1zM6 94h1v1H6zM8 94h2v1H8zM12 94h2v1H12zM15 94h1v1H15zM24 94h1v1H24zM28 94h1v1H28zM31 94h2v1H31zM34 94h1v1H34zM38 94h1v1H38zM40 94h1v1H40zM44 94h1v1H44zM47 94h1v1H47zM49 94h1v1H49zM98 94h1v1H98zM106 94h1v1H106zM113 94h3v1H113zM118 94h1v1H118zM122 94h1v1H122zM130 94h3v1H130zM134 94h3v1H134zM138 94h3v1H138zM142 94h3v1H142zM146 94h3v1H146zM150 94h3v1H150zM154 94h3v1H154zM158 94h3v1H158zM162 94h3v1H162zM166 94h3v1H166zM170 94h3v1H170zM174 94h1v1H174zM176 94h1v1H176zM178 94h1v1H178zM180 94h1v1H180zM182 94h1v1H182zM184 94h1v1H184zM186 94h1v1H186zM188 94h1v1H188zM190 94h1v1H190zM192 94h1v1H192zM194 94h1v1H194zM196 94h1v1H196zM198 94h1v1H198zM200 94h1v1H200zM202 94h1v1H202zM204 94h1v1H204zM206 94h1v1H206zM208 94h1v1H208zM210 94h1v1H210zM212 94h1v1H212zM214 94h1v1H214zM216 94h1v1H216zM218 94h1v1H218zM220 94h1v1H220zM222 94h1v1H222zM224 94h1v1H224zM226 94h1v1H226zM228 94h1v1H228zM230 94h1v1H230zM232 94h1v1H232zM234 94h1v1H234zM236 94h1v1H236zM238 94h1v1H238zM240 94h1v1H240zM242 94h1v1H242zM244 94h1v1H244zM246 94h1v1H246zM248 94h1v1H248zM250 94h1v1H250zM252 94h1v1H252zM254 94h1v1H254zM256 94h1v1H256zM258 94h1v1H258zM260 94h1v1H260zM262 94h1v1H262zM264 94h1v1H264zM275 94h3v1H275zM280 94h5v1H280zM289 94h2v1H289zM294 94h1v1H294zM1 95h1v1H1zM6 95h1v1H6zM10 95h2v1H10zM15 95h1v1H15zM24 95h1v1H24zM28 95h1v1H28zM32 95h1v1H32zM34 95h1v1H34zM38 95h1v1H38zM40 95h1v1H40zM44 95h1v1H44zM46 95h1v1H46zM50 95h1v1H50zM98 95h1v1H98zM106 95h1v1H106zM130 95h3v1H130zM134 95h3v1H134zM138 95h3v1H138zM142 95h3v1H142zM146 95h3v1H146zM150 95h3v1H150zM154 95h3v1H154zM158 95h3v1H158zM162 95h3v1H162zM166 95h3v1H166zM170 95h3v1H170zM174 95h3v1H174zM178 95h3v1H178zM182 95h3v1H182zM186 95h3v1H186zM190 95h3v1H190zM194 95h3v1H194zM198 95h3v1H198zM202 95h3v1H202zM206 95h3v1H206zM210 95h3v1H210zM214 95h3v1H214zM218 95h3v1H218zM222 95h3v1H222zM226 95h3v1H226zM230 95h3v1H230zM234 95h3v1H234zM238 95h3v1H238zM242 95h3v1H242zM246 95h3v1H246zM250 95h3v1H250zM254 95h3v1H254zM258 95h3v1H258zM262 95h3v1H262zM294 95h1v1H294zM1 96h1v1H1zM6 96h10v1H6zM23 96h3v1H23zM28 96h1v1H28zM32 96h1v1H32zM34 96h4v1H34zM41 96h3v1H41zM46 96h1v1H46zM50 96h1v1H50zM97 96h3v1H97zM106 96h1v1H106zM294 96h1v1H294zM1 97h1v1H1zM106 97h1v1H106zM294 97h1v1H294zM1 98h1v1H1zM106 98h1v1H106zM294 98h1v1H294zM1 99h1v1H1zM106 99h1v1H106zM294 99h1v1H294zM1 100h1v1H1zM106 100h1v1H106zM130 100h3v1H130zM134 100h3v1H134zM138 100h3v1H138zM142 100h3v1H142zM146 100h3v1H146zM150 100h3v1H150zM154 100h3v1H154zM158 100h3v1H158zM162 100h3v1H162zM166 100h3v1H166zM170 100h3v1H170zM174 100h3v1H174zM178 100h3v1H178zM182 100h3v1H182zM186 100h3v1H186zM190 100h3v1H190zM194 100h3v1H194zM198 100h3v1H198zM202 100h3v1H202zM206 100h3v1H206zM210 100h3v1H210zM214 100h3v1H214zM218 100h3v1H218zM222 100h3v1H222zM226 100h3v1H226zM230 100h3v1H230zM234 100h3v1H234zM238 100h3v1H238zM242 100h3v1H242zM246 100h3v1H246zM250 100h3v1H250zM254 100h3v1H254zM258 100h3v1H258zM262 100h3v1H262zM294 100h1v1H294zM1 101h1v1H1zM106 101h1v1H106zM112 101h1v1H112zM116 101h1v1H116zM118 101h1v1H118zM122 101h1v1H122zM130 101h3v1H130zM134 101h3v1H134zM138 101h3v1H138zM142 101h3v1H142zM146 101h3v1H146zM150 101h3v1H150zM154 101h3v1H154zM158 101h3v1H158zM162 101h3v1H162zM166 101h3v1H166zM170 101h3v1H170zM174 101h3v1H174zM178 101h3v1H178zM182 101h1v1H182zM184 101h1v1H184zM186 101h1v1H186zM188 101h1v1H188zM190 101h1v1H190zM192 101h1v1H192zM194 101h1v1H194zM196 101h1v1H196zM198 101h1v1H198zM200 101h1v1H200zM202 101h1v1H202zM204 101h1v1H204zM206 101h1v1H206zM208 101h1v1H208zM210 101h1v1H210zM212 101h1v1H212zM214 101h1v1H214zM216 101h1v1H216zM218 101h1v1H218zM220 101h1v1H220zM222 101h1v1H222zM224 101h1v1H224zM226 101h1v1H226zM228 101h1v1H228zM230 101h1v1H230zM232 101h1v1H232zM234 101h1v1H234zM236 101h1v1H236zM238 101h1v1H238zM240 101h1v1H240zM242 101h1v1H242zM244 101h1v1H244zM246 101h1v1H246zM248 101h1v1H248zM250 101h1v1H250zM252 101h1v1H252zM254 101h1v1H254zM256 101h1v1H256zM258 101h1v1H258zM260 101h1v1H260zM262 101h1v1H262zM264 101h1v1H264zM274 101h5v1H274zM281 101h3v1H281zM286 101h2v1H286zM294 101h1v1H294zM1 102h1v1H1zM106 102h1v1H106zM112 102h1v1H112zM116 102h1v1H116zM118 102h1v1H118zM121 102h1v1H121zM130 102h3v1H130zM134 102h3v1H134zM138 102h3v1H138zM142 102h3v1H142zM146 102h3v1H146zM150 102h3v1H150zM154 102h3v1H154zM158 102h3v1H158zM162 102h3v1H162zM166 102h3v1H166zM170 102h3v1H170zM174 102h3v1H174zM178 102h3v1H178zM182 102h1v1H182zM184 102h1v1H184zM186 102h1v1H186zM188 102h1v1H188zM190 102h1v1H190zM192 102h1v1H192zM194 102h1v1H194zM196 102h1v1H196zM198 102h1v1H198zM200 102h1v1H200zM202 102h1v1H202zM204 102h1v1H204zM206 102h1v1H206zM208 102h1v1H208zM210 102h1v1H210zM212 102h1v1H212zM214 102h1v1H214zM216 102h1v1H216zM218 102h1v1H218zM220 102h1v1H220zM222 102h1v1H222zM224 102h1v1H224zM226 102h1v1H226zM228 102h1v1H228zM230 102h1v1H230zM232 102h1v1H232zM234 102h1v1H234zM236 102h1v1H236zM238 102h1v1H238zM240 102h1v1H240zM242 102h1v1H242zM244 102h1v1H244zM246 102h1v1H246zM248 102h1v1H248zM250 102h1v1H250zM252 102h1v1H252zM254 102h1v1H254zM256 102h1v1H256zM258 102h1v1H258zM260 102h1v1H260zM262 102h1v1H262zM264 102h1v1H264zM277 102h1v1H277zM280 102h1v1H280zM284 102h1v1H284zM286 102h2v1H286zM290 102h1v1H290zM294 102h1v1H294zM1 103h1v1H1zM106 103h1v1H106zM112 103h1v1H112zM116 103h1v1H116zM118 103h1v1H118zM120 103h1v1H120zM130 103h3v1H130zM134 103h3v1H134zM138 103h3v1H138zM142 103h3v1H142zM146 103h3v1H146zM150 103h3v1H150zM154 103h3v1H154zM158 103h3v1H158zM162 103h3v1H162zM166 103h3v1H166zM170 103h3v1H170zM174 103h3v1H174zM178 103h3v1H178zM182 103h1v1H182zM184 103h1v1H184zM186 103h1v1H186zM188 103h1v1H188zM190 103h1v1H190zM192 103h1v1H192zM194 103h1v1H194zM196 103h1v1H196zM198 103h1v1H198zM200 103h1v1H200zM202 103h1v1H202zM204 103h1v1H204zM206 103h1v1H206zM208 103h1v1H208zM210 103h1v1H210zM212 103h1v1H212zM214 103h1v1H214zM216 103h1v1H216zM218 103h1v1H218zM220 103h1v1H220zM222 103h1v1H222zM224 103h1v1H224zM226 103h1v1H226zM228 103h1v1H228zM230 103h1v1H230zM232 103h1v1H232zM234 103h1v1H234zM236 103h1v1H236zM238 103h1v1H238zM240 103h1v1H240zM242 103h1v1H242zM244 103h1v1H244zM246 103h1v1H246zM248 103h1v1H248zM250 103h1v1H250zM252 103h1v1H252zM254 103h1v1H254zM256 103h1v1H256zM258 103h1v1H258zM260 103h1v1H260zM262 103h1v1H262zM264 103h1v1H264zM276 103h1v1H276zM280 103h1v1H280zM284 103h1v1H284zM289 103h1v1H289zM294 103h1v1H294zM1 104h1v1H1zM106 104h1v1H106zM112 104h1v1H112zM114 104h1v1H114zM116 104h1v1H116zM118 104h2v1H118zM130 104h3v1H130zM134 104h3v1H134zM138 104h3v1H138zM142 104h3v1H142zM146 104h3v1H146zM150 104h3v1H150zM154 104h3v1H154zM158 104h3v1H158zM162 104h3v1H162zM166 104h3v1H166zM170 104h3v1H170zM174 104h3v1H174zM178 104h3v1H178zM182 104h1v1H182zM184 104h1v1H184zM186 104h1v1H186zM188 104h1v1H188zM190 104h1v1H190zM192 104h1v1H192zM194 104h1v1H194zM196 104h1v1H196zM198 104h1v1H198zM200 104h1v1H200zM202 104h1v1H202zM204 104h1v1H204zM206 104h1v1H206zM208 104h1v1H208zM210 104h1v1H210zM212 104h1v1H212zM214 104h1v1H214zM216 104h1v1H216zM218 104h1v1H218zM220 104h1v1H220zM222 104h1v1H222zM224 104h1v1H224zM226 104h1v1H226zM228 104h1v1H228zM230 104h1v1H230zM232 104h1v1H232zM234 104h1v1H234zM236 104h1v1H236zM238 104h1v1H238zM240 104h1v1H240zM242 104h1v1H242zM244 104h1v1H244zM246 104h1v1H246zM248 104h1v1H248zM250 104h1v1H250zM252 104h1v1H252zM254 104h1v1H254zM256 104h1v1H256zM258 104h1v1H258zM260 104h1v1H260zM262 104h1v1H262zM264 104h1v1H264zM277 104h1v1H277zM281 104h3v1H281zM288 104h1v1H288zM294 104h1v1H294zM1 105h1v1H1zM106 105h1v1H106zM112 105h1v1H112zM114 105h1v1H114zM116 105h1v1H116zM118 105h1v1H118zM120 105h1v1H120zM130 105h3v1H130zM134 105h3v1H134zM138 105h3v1H138zM142 105h3v1H142zM146 105h3v1H146zM150 105h3v1H150zM154 105h3v1H154zM158 105h3v1H158zM162 105h3v1H162zM166 105h3v1H166zM170 105h3v1H170zM174 105h3v1H174zM178 105h3v1H178zM182 105h1v1H182zM184 105h1v1H184zM186 105h1v1H186zM188 105h1v1H188zM190 105h1v1H190zM192 105h1v1H192zM194 105h1v1H194zM196 105h1v1H196zM198 105h1v1H198zM200 105h1v1H200zM202 105h1v1H202zM204 105h1v1H204zM206 105h1v1H206zM208 105h1v1H208zM210 105h1v1H210zM212 105h1v1H212zM214 105h1v1H214zM216 105h1v1H216zM218 105h1v1H218zM220 105h1v1H220zM222 105h1v1H222zM224 105h1v1H224zM226 105h1v1H226zM228 105h1v1H228zM230 105h1v1H230zM232 105h1v1H232zM234 105h1v1H234zM236 105h1v1H236zM238 105h1v1H238zM240 105h1v1H240zM242 105h1v1H242zM244 105h1v1H244zM246 105h1v1H246zM248 105h1v1H248zM250 105h1v1H250zM252 105h1v1H252zM254 105h1v1H254zM256 105h1v1H256zM258 105h1v1H258zM260 105h1v1H260zM262 105h1v1H262zM264 105h1v1H264zM278 105h1v1H278zM280 105h1v1H280zM284 105h1v1H284zM287 105h1v1H287zM294 105h1v1H294zM1 106h1v1H1zM106 106h1v1H106zM112 106h1v1H112zM114 106h1v1H114zM116 106h1v1H116zM118 106h1v1H118zM121 106h1v1H121zM130 106h3v1H130zM134 106h3v1H134zM138 106h3v1H138zM142 106h3v1H142zM146 106h3v1H146zM150 106h3v1H150zM154 106h3v1H154zM158 106h3v1H158zM162 106h3v1H162zM166 106h3v1H166zM170 106h3v1H170zM174 106h3v1H174zM178 106h3v1H178zM182 106h1v1H182zM184 106h1v1H184zM186 106h1v1H186zM188 106h1v1H188zM190 106h1v1H190zM192 106h1v1H192zM194 106h1v1H194zM196 106h1v1H196zM198 106h1v1H198zM200 106h1v1H200zM202 106h1v1H202zM204 106h1v1H204zM206 106h1v1H206zM208 106h1v1H208zM210 106h1v1H210zM212 106h1v1H212zM214 106h1v1H214zM216 106h1v1H216zM218 106h1v1H218zM220 106h1v1H220zM222 106h1v1H222zM224 106h1v1H224zM226 106h1v1H226zM228 106h1v1H228zM230 106h1v1H230zM232 106h1v1H232zM234 106h1v1H234zM236 106h1v1H236zM238 106h1v1H238zM240 106h1v1H240zM242 106h1v1H242zM244 106h1v1H244zM246 106h1v1H246zM248 106h1v1H248zM250 106h1v1H250zM252 106h1v1H252zM254 106h1v1H254zM256 106h1v1H256zM258 106h1v1H258zM260 106h1v1H260zM262 106h1v1H262zM264 106h1v1H264zM274 106h1v1H274zM278 106h1v1H278zM280 106h1v1H280zM284 106h1v1H284zM286 106h1v1H286zM289 106h2v1H289zM294 106h1v1H294zM1 107h1v1H1zM106 107h1v1H106zM113 107h1v1H113zM115 107h1v1H115zM118 107h1v1H118zM122 107h1v1H122zM130 107h3v1H130zM134 107h3v1H134zM138 107h3v1H138zM142 107h3v1H142zM146 107h3v1H146zM150 107h3v1H150zM154 107h3v1H154zM158 107h3v1H158zM162 107h3v1H162zM166 107h3v1H166zM170 107h3v1H170zM174 107h3v1H174zM178 107h3v1H178zM182 107h1v1H182zM184 107h1v1H184zM186 107h1v1H186zM188 107h1v1H188zM190 107h1v1H190zM192 107h1v1H192zM194 107h1v1H194zM196 107h1v1H196zM198 107h1v1H198zM200 107h1v1H200zM202 107h1v1H202zM204 107h1v1H204zM206 107h1v1H206zM208 107h1v1H208zM210 107h1v1H210zM212 107h1v1H212zM214 107h1v1H214zM216 107h1v1H216zM218 107h1v1H218zM220 107h1v1H220zM222 107h1v1H222zM224 107h1v1H224zM226 107h1v1H226zM228 107h1v1H228zM230 107h1v1H230zM232 107h1v1H232zM234 107h1v1H234zM236 107h1v1H236zM238 107h1v1H238zM240 107h1v1H240zM242 107h1v1H242zM244 107h1v1H244zM246 107h1v1H246zM248 107h1v1H248zM250 107h1v1H250zM252 107h1v1H252zM254 107h1v1H254zM256 107h1v1H256zM258 107h1v1H258zM260 107h1v1H260zM262 107h1v1H262zM264 107h1v1H264zM275 107h3v1H275zM281 107h3v1H281zM289 107h2v1H289zM294 107h1v1H294zM1 108h1v1H1zM106 108h1v1H106zM130 108h3v1H130zM134 108h3v1H134zM138 108h3v1H138zM142 108h3v1H142zM146 108h3v1H146zM150 108h3v1H150zM154 108h3v1H154zM158 108h3v1H158zM162 108h3v1H162zM166 108h3v1H166zM170 108h3v1H170zM174 108h3v1H174zM178 108h3v1H178zM182 108h3v1H182zM186 108h3v1H186zM190 108h3v1H190zM194 108h3v1H194zM198 108h3v1H198zM202 108h3v1H202zM206 108h3v1H206zM210 108h3v1H210zM214 108h3v1H214zM218 108h3v1H218zM222 108h3v1H222zM226 108h3v1H226zM230 108h3v1H230zM234 108h3v1H234zM238 108h3v1H238zM242 108h3v1H242zM246 108h3v1H246zM250 108h3v1H250zM254 108h3v1H254zM258 108h3v1H258zM262 108h3v1H262zM294 108h1v1H294zM1 109h1v1H1zM106 109h1v1H106zM294 109h1v1H294zM1 110h1v1H1zM106 110h1v1H106zM294 110h1v1H294zM1 111h1v1H1zM8 111h6v1H8zM106 111h1v1H106zM294 111h1v1H294zM1 112h1v1H1zM7 112h8v1H7zM22 112h3v1H22zM28 112h5v1H28zM34 112h4v1H34zM97 112h3v1H97zM106 112h1v1H106zM114 112h1v1H114zM134 112h3v1H134zM138 112h3v1H138zM142 112h3v1H142zM146 112h3v1H146zM150 112h3v1H150zM154 112h3v1H154zM158 112h3v1H158zM162 112h3v1H162zM166 112h3v1H166zM170 112h3v1H170zM174 112h3v1H174zM178 112h3v1H178zM182 112h3v1H182zM186 112h3v1H186zM190 112h3v1H190zM194 112h3v1H194zM198 112h3v1H198zM202 112h3v1H202zM206 112h3v1H206zM210 112h3v1H210zM214 112h3v1H214zM218 112h3v1H218zM222 112h3v1H222zM226 112h3v1H226zM230 112h3v1H230zM234 112h3v1H234zM238 112h3v1H238zM242 112h3v1H242zM246 112h3v1H246zM250 112h3v1H250zM254 112h3v1H254zM258 112h3v1H258zM262 112h3v1H262zM266 112h3v1H266zM270 112h3v1H270zM274 112h3v1H274zM278 112h3v1H278zM294 112h1v1H294zM1 113h1v1H1zM7 113h8v1H7zM22 113h1v1H22zM25 113h1v1H25zM28 113h1v1H28zM34 113h1v1H34zM38 113h1v1H38zM96 113h1v1H96zM100 113h1v1H100zM106 113h1v1H106zM113 113h4v1H113zM134 113h1v1H134zM136 113h1v1H136zM138 113h1v1H138zM140 113h1v1H140zM142 113h1v1H142zM144 113h1v1H144zM146 113h1v1H146zM148 113h1v1H148zM150 113h1v1H150zM152 113h1v1H152zM154 113h1v1H154zM156 113h1v1H156zM158 113h1v1H158zM160 113h1v1H160zM162 113h1v1H162zM164 113h1v1H164zM166 113h1v1H166zM168 113h1v1H168zM170 113h1v1H170zM172 113h1v1H172zM174 113h1v1H174zM176 113h1v1H176zM178 113h1v1H178zM180 113h1v1H180zM182 113h1v1H182zM184 113h1v1H184zM186 113h1v1H186zM188 113h1v1H188zM190 113h1v1H190zM192 113h1v1H192zM194 113h1v1H194zM196 113h1v1H196zM198 113h1v1H198zM200 113h1v1H200zM202 113h1v1H202zM204 113h1v1H204zM206 113h1v1H206zM208 113h1v1H208zM210 113h1v1H210zM212 113h1v1H212zM214 113h1v1H214zM216 113h1v1H216zM218 113h1v1H218zM220 113h1v1H220zM222 113h1v1H222zM224 113h1v1H224zM226 113h1v1H226zM228 113h1v1H228zM230 113h1v1H230zM232 113h1v1H232zM234 113h1v1H234zM236 113h1v1H236zM238 113h1v1H238zM240 113h1v1H240zM242 113h1v1H242zM244 113h1v1H244zM246 113h1v1H246zM248 113h1v1H248zM250 113h1v1H250zM252 113h1v1H252zM254 113h1v1H254zM256 113h1v1H256zM258 113h1v1H258zM260 113h1v1H260zM262 113h1v1H262zM264 113h1v1H264zM266 113h1v1H266zM268 113h1v1H268zM270 113h1v1H270zM272 113h1v1H272zM274 113h1v1H274zM276 113h1v1H276zM278 113h1v1H278zM280 113h1v1H280zM294 113h1v1H294zM1 114h1v1H1zM7 114h8v1H7zM22 114h1v1H22zM26 114h1v1H26zM28 114h1v1H28zM34 114h1v1H34zM38 114h1v1H38zM96 114h1v1H96zM99 114h2v1H99zM106 114h1v1H106zM112 114h1v1H112zM114 114h1v1H114zM134 114h1v1H134zM136 114h1v1H136zM138 114h1v1H138zM140 114h1v1H140zM142 114h1v1H142zM144 114h1v1H144zM146 114h1v1H146zM148 114h1v1H148zM150 114h1v1H150zM152 114h1v1H152zM154 114h1v1H154zM156 114h1v1H156zM158 114h1v1H158zM160 114h1v1H160zM162 114h1v1H162zM164 114h1v1H164zM166 114h1v1H166zM168 114h1v1H168zM170 114h1v1H170zM172 114h1v1H172zM174 114h1v1H174zM176 114h1v1H176zM178 114h1v1H178zM180 114h1v1H180zM182 114h1v1H182zM184 114h1v1H184zM186 114h1v1H186zM188 114h1v1H188zM190 114h1v1H190zM192 114h1v1H192zM194 114h1v1H194zM196 114h1v1H196zM198 114h1v1H198zM200 114h1v1H200zM202 114h1v1H202zM204 114h1v1H204zM206 114h1v1H206zM208 114h1v1H208zM210 114h1v1H210zM212 114h1v1H212zM214 114h1v1H214zM216 114h1v1H216zM218 114h1v1H218zM220 114h1v1H220zM222 114h1v1H222zM224 114h1v1H224zM226 114h1v1H226zM228 114h1v1H228zM230 114h1v1H230zM232 114h1v1H232zM234 114h1v1H234zM236 114h1v1H236zM238 114h1v1H238zM240 114h1v1H240zM242 114h1v1H242zM244 114h1v1H244zM246 114h1v1H246zM248 114h1v1H248zM250 114h1v1H250zM252 114h1v1H252zM254 114h1v1H254zM256 114h1v1H256zM258 114h1v1H258zM260 114h1v1H260zM262 114h1v1H262zM264 114h1v1H264zM266 114h1v1H266zM268 114h1v1H268zM270 114h1v1H270zM272 114h1v1H272zM274 114h1v1H274zM276 114h1v1H276zM278 114h1v1H278zM280 114h1v1H280zM294 114h1v1H294zM1 115h1v1H1zM7 115h8v1H7zM22 115h1v1H22zM26 115h1v1H26zM28 115h4v1H28zM34 115h4v1H34zM96 115h1v1H96zM98 115h1v1H98zM100 115h1v1H100zM106 115h1v1H106zM113 115h3v1H113zM134 115h1v1H134zM136 115h1v1H136zM138 115h1v1H138zM140 115h1v1H140zM142 115h1v1H142zM144 115h1v1H144zM146 115h1v1H146zM148 115h1v1H148zM150 115h1v1H150zM152 115h1v1H152zM154 115h1v1H154zM156 115h1v1H156zM158 115h1v1H158zM160 115h1v1H160zM162 115h1v1H162zM164 115h1v1H164zM166 115h1v1H166zM168 115h1v1H168zM170 115h1v1H170zM172 115h1v1H172zM174 115h1v1H174zM176 115h1v1H176zM178 115h1v1H178zM180 115h1v1H180zM182 115h1v1H182zM184 115h1v1H184zM186 115h1v1H186zM188 115h1v1H188zM190 115h1v1H190zM192 115h1v1H192zM194 115h1v1H194zM196 115h1v1H196zM198 115h1v1H198zM200 115h1v1H200zM202 115h1v1H202zM204 115h1v1H204zM206 115h1v1H206zM208 115h1v1H208zM210 115h1v1H210zM212 115h1v1H212zM214 115h1v1H214zM216 115h1v1H216zM218 115h1v1H218zM220 115h1v1H220zM222 115h1v1H222zM224 115h1v1H224zM226 115h1v1H226zM228 115h1v1H228zM230 115h1v1H230zM232 115h1v1H232zM234 115h1v1H234zM236 115h1v1H236zM238 115h1v1H238zM240 115h1v1H240zM242 115h1v1H242zM244 115h1v1H244zM246 115h1v1H246zM248 115h1v1H248zM250 115h1v1H250zM252 115h1v1H252zM254 115h1v1H254zM256 115h1v1H256zM258 115h1v1H258zM260 115h1v1H260zM262 115h1v1H262zM264 115h1v1H264zM266 115h1v1H266zM268 115h1v1H268zM270 115h1v1H270zM272 115h1v1H272zM274 115h1v1H274zM276 115h1v1H276zM278 115h1v1H278zM280 115h1v1H280zM294 115h1v1H294zM1 116h1v1H1zM7 116h8v1H7zM22 116h1v1H22zM26 116h1v1H26zM28 116h1v1H28zM34 116h1v1H34zM96 116h2v1H96zM100 116h1v1H100zM106 116h1v1H106zM114 116h1v1H114zM116 116h1v1H116zM134 116h1v1H134zM136 116h1v1H136zM138 116h1v1H138zM140 116h1v1H140zM142 116h1v1H142zM144 116h1v1H144zM146 116h1v1H146zM148 116h1v1H148zM150 116h1v1H150zM152 116h1v1H152zM154 116h1v1H154zM156 116h1v1H156zM158 116h1v1H158zM160 116h1v1H160zM162 116h1v1H162zM164 116h1v1H164zM166 116h1v1H166zM168 116h1v1H168zM170 116h1v1H170zM172 116h1v1H172zM174 116h1v1H174zM176 116h1v1H176zM178 116h1v1H178zM180 116h1v1H180zM182 116h1v1H182zM184 116h1v1H184zM186 116h1v1H186zM188 116h1v1H188zM190 116h1v1H190zM192 116h1v1H192zM194 116h1v1H194zM196 116h1v1H196zM198 116h1v1H198zM200 116h1v1H200zM202 116h1v1H202zM204 116h1v1H204zM206 116h1v1H206zM208 116h1v1H208zM210 116h1v1H210zM212 116h1v1H212zM214 116h1v1H214zM216 116h1v1H216zM218 116h1v1H218zM220 116h1v1H220zM222 116h1v1H222zM224 116h1v1H224zM226 116h1v1H226zM228 116h1v1H228zM230 116h1v1H230zM232 116h1v1H232zM234 116h1v1H234zM236 116h1v1H236zM238 116h1v1H238zM240 116h1v1H240zM242 116h1v1H242zM244 116h1v1H244zM246 116h1v1H246zM248 116h1v1H248zM250 116h1v1H250zM252 116h1v1H252zM254 116h1v1H254zM256 116h1v1H256zM258 116h1v1H258zM260 116h1v1H260zM262 116h1v1H262zM264 116h1v1H264zM266 116h1v1H266zM268 116h1v1H268zM270 116h1v1H270zM272 116h1v1H272zM274 116h1v1H274zM276 116h1v1H276zM278 116h1v1H278zM280 116h1v1H280zM294 116h1v1H294zM1 117h1v1H1zM8 117h6v1H8zM22 117h1v1H22zM25 117h1v1H25zM28 117h1v1H28zM34 117h1v1H34zM96 117h1v1H96zM100 117h1v1H100zM106 117h1v1H106zM112 117h4v1H112zM134 117h1v1H134zM136 117h1v1H136zM138 117h1v1H138zM140 117h1v1H140zM142 117h1v1H142zM144 117h1v1H144zM146 117h1v1H146zM148 117h1v1H148zM150 117h1v1H150zM152 117h1v1H152zM154 117h1v1H154zM156 117h1v1H156zM158 117h1v1H158zM160 117h1v1H160zM162 117h1v1H162zM164 117h1v1H164zM166 117h1v1H166zM168 117h1v1H168zM170 117h1v1H170zM172 117h1v1H172zM174 117h1v1H174zM176 117h1v1H176zM178 117h1v1H178zM180 117h1v1H180zM182 117h1v1H182zM184 117h1v1H184zM186 117h1v1H186zM188 117h1v1H188zM190 117h1v1H190zM192 117h1v1H192zM194 117h1v1H194zM196 117h1v1H196zM198 117h1v1H198zM200 117h1v1H200zM202 117h1v1H202zM204 117h1v1H204zM206 117h1v1H206zM208 117h1v1H208zM210 117h1v1H210zM212 117h1v1H212zM214 117h1v1H214zM216 117h1v1H216zM218 117h1v1H218zM220 117h1v1H220zM222 117h1v1H222zM224 117h1v1H224zM226 117h1v1H226zM228 117h1v1H228zM230 117h1v1H230zM232 117h1v1H232zM234 117h1v1H234zM236 117h1v1H236zM238 117h1v1H238zM240 117h1v1H240zM242 117h1v1H242zM244 117h1v1H244zM246 117h1v1H246zM248 117h1v1H248zM250 117h1v1H250zM252 117h1v1H252zM254 117h1v1H254zM256 117h1v1H256zM258 117h1v1H258zM260 117h1v1H260zM262 117h1v1H262zM264 117h1v1H264zM266 117h1v1H266zM268 117h1v1H268zM270 117h1v1H270zM272 117h1v1H272zM274 117h1v1H274zM276 117h1v1H276zM278 117h1v1H278zM280 117h1v1H280zM294 117h1v1H294zM1 118h1v1H1zM9 118h4v1H9zM22 118h3v1H22zM28 118h5v1H28zM34 118h1v1H34zM97 118h3v1H97zM106 118h1v1H106zM114 118h1v1H114zM134 118h1v1H134zM136 118h1v1H136zM138 118h1v1H138zM140 118h1v1H140zM142 118h1v1H142zM144 118h1v1H144zM146 118h1v1H146zM148 118h1v1H148zM150 118h1v1H150zM152 118h1v1H152zM154 118h1v1H154zM156 118h1v1H156zM158 118h1v1H158zM160 118h1v1H160zM162 118h1v1H162zM164 118h1v1H164zM166 118h1v1H166zM168 118h1v1H168zM170 118h1v1H170zM172 118h1v1H172zM174 118h1v1H174zM176 118h1v1H176zM178 118h1v1H178zM180 118h1v1H180zM182 118h1v1H182zM184 118h1v1H184zM186 118h1v1H186zM188 118h1v1H188zM190 118h1v1H190zM192 118h1v1H192zM194 118h1v1H194zM196 118h1v1H196zM198 118h1v1H198zM200 118h1v1H200zM202 118h1v1H202zM204 118h1v1H204zM206 118h1v1H206zM208 118h1v1H208zM210 118h1v1H210zM212 118h1v1H212zM214 118h1v1H214zM216 118h1v1H216zM218 118h1v1H218zM220 118h1v1H220zM222 118h1v1H222zM224 118h1v1H224zM226 118h1v1H226zM228 118h1v1H228zM230 118h1v1H230zM232 118h1v1H232zM234 118h1v1H234zM236 118h1v1H236zM238 118h1v1H238zM240 118h1v1H240zM242 118h1v1H242zM244 118h1v1H244zM246 118h1v1H246zM248 118h1v1H248zM250 118h1v1H250zM252 118h1v1H252zM254 118h1v1H254zM256 118h1v1H256zM258 118h1v1H258zM260 118h1v1H260zM262 118h1v1H262zM264 118h1v1H264zM266 118h1v1H266zM268 118h1v1H268zM270 118h1v1H270zM272 118h1v1H272zM274 118h1v1H274zM276 118h1v1H276zM278 118h1v1H278zM280 118h1v1H280zM294 118h1v1H294zM1 119h1v1H1zM10 119h2v1H10zM106 119h1v1H106zM134 119h1v1H134zM136 119h1v1H136zM138 119h1v1H138zM140 119h1v1H140zM142 119h1v1H142zM144 119h1v1H144zM146 119h1v1H146zM148 119h1v1H148zM150 119h1v1H150zM152 119h1v1H152zM154 119h1v1H154zM156 119h1v1H156zM158 119h1v1H158zM160 119h1v1H160zM162 119h1v1H162zM164 119h1v1H164zM166 119h1v1H166zM168 119h1v1H168zM170 119h1v1H170zM172 119h1v1H172zM174 119h1v1H174zM176 119h1v1H176zM178 119h1v1H178zM180 119h1v1H180zM182 119h1v1H182zM184 119h1v1H184zM186 119h1v1H186zM188 119h1v1H188zM190 119h1v1H190zM192 119h1v1H192zM194 119h1v1H194zM196 119h1v1H196zM198 119h1v1H198zM200 119h1v1H200zM202 119h1v1H202zM204 119h1v1H204zM206 119h1v1H206zM208 119h1v1H208zM210 119h1v1H210zM212 119h1v1H212zM214 119h1v1H214zM216 119h1v1H216zM218 119h1v1H218zM220 119h1v1H220zM222 119h1v1H222zM224 119h1v1H224zM226 119h1v1H226zM228 119h1v1H228zM230 119h1v1H230zM232 119h1v1H232zM234 119h1v1H234zM236 119h1v1H236zM238 119h1v1H238zM240 119h1v1H240zM242 119h1v1H242zM244 119h1v1H244zM246 119h1v1H246zM248 119h1v1H248zM250 119h1v1H250zM252 119h1v1H252zM254 119h1v1H254zM256 119h1v1H256zM258 119h1v1H258zM260 119h1v1H260zM262 119h1v1H262zM264 119h1v1H264zM266 119h1v1H266zM268 119h1v1H268zM270 119h1v1H270zM272 119h1v1H272zM274 119h1v1H274zM276 119h1v1H276zM278 119h1v1H278zM280 119h1v1H280zM294 119h1v1H294zM1 120h1v1H1zM106 120h1v1H106zM134 120h3v1H134zM138 120h3v1H138zM142 120h3v1H142zM146 120h3v1H146zM150 120h3v1H150zM154 120h3v1H154zM158 120h3v1H158zM162 120h3v1H162zM166 120h3v1H166zM170 120h3v1H170zM174 120h3v1H174zM178 120h3v1H178zM182 120h3v1H182zM186 120h3v1H186zM190 120h3v1H190zM194 120h3v1H194zM198 120h3v1H198zM202 120h3v1H202zM206 120h3v1H206zM210 120h3v1H210zM214 120h3v1H214zM218 120h3v1H218zM222 120h3v1H222zM226 120h3v1H226zM230 120h3v1H230zM234 120h3v1H234zM238 120h3v1H238zM242 120h3v1H242zM246 120h3v1H246zM250 120h3v1H250zM254 120h3v1H254zM258 120h3v1H258zM262 120h3v1H262zM266 120h3v1H266zM270 120h3v1H270zM274 120h3v1H274zM278 120h3v1H278zM294 120h1v1H294zM1 121h1v1H1zM106 121h1v1H106zM294 121h1v1H294zM1 122h1v1H1zM106 122h1v1H106zM294 122h1v1H294zM1 123h1v1H1zM106 123h1v1H106zM294 123h1v1H294zM1 124h1v1H1zM106 124h1v1H106zM294 124h1v1H294zM1 125h1v1H1zM106 125h1v1H106zM294 125h1v1H294zM1 126h294v1H1z"/>
<path fill="#d62518" d="M130 58h3v1H130zM134 58h3v1H134zM269 58h3v1H269zM281 58h3v1H281zM288 58h1v1H288zM130 59h3v1H130zM134 59h3v1H134zM268 59h1v1H268zM272 59h1v1H272zM280 59h1v1H280zM284 59h1v1H284zM287 59h2v1H287zM130 60h3v1H130zM134 60h3v1H134zM268 60h1v1H268zM271 60h2v1H271zM280 60h1v1H280zM284 60h1v1H284zM288 60h1v1H288zM130 61h3v1H130zM134 61h3v1H134zM268 61h1v1H268zM270 61h1v1H270zM272 61h1v1H272zM281 61h4v1H281zM288 61h1v1H288zM130 62h3v1H130zM134 62h3v1H134zM268 62h2v1H268zM272 62h1v1H272zM275 62h2v1H275zM284 62h1v1H284zM288 62h1v1H288zM130 63h3v1H130zM134 63h3v1H134zM268 63h1v1H268zM272 63h1v1H272zM276 63h1v1H276zM283 63h1v1H283zM288 63h1v1H288zM130 64h3v1H130zM134 64h3v1H134zM269 64h3v1H269zM275 64h1v1H275zM281 64h2v1H281zM287 64h3v1H287zM130 65h3v1H130zM134 65h3v1H134zM130 66h3v1H130zM134 66h3v1H134zM130 112h3v1H130zM286 112h5v1H286zM130 113h3v1H130zM289 113h1v1H289zM130 114h3v1H130zM288 114h1v1H288zM130 115h3v1H130zM289 115h1v1H289zM130 116h3v1H130zM290 116h1v1H290zM130 117h3v1H130zM286 117h1v1H286zM290 117h1v1H290zM130 118h3v1H130zM287 118h3v1H287zM130 119h3v1H130zM130 120h3v1H130z"/>
</g>
</svg>
