<svg xmlns="http://www.w3.org/2000/svg" width="888" height="384" viewBox="0 0 296 128" role="img" aria-labelledby="title">
<title id="title">DevDash dashboard screen with two providers</title>
<rect width="296" height="128" fill="#fff"/>
<g shape-rendering="crispEdges">
<path fill="#111" d="M0 0h296v1H0zM0 1h1v1H0zM295 1h1v1H295zM0 2h1v1H0zM295 2h1v1H295zM0 3h1v1H0zM295 3h1v1H295zM0 4h1v1H0zM6 4h9v1H6zM19 4h3v1H19zM25 4h5v1H25zM31 4h1v1H31zM35 4h1v1H35zM37 4h3v1H37zM44 4h3v1H44zM50 4h4v1H50zM55 4h1v1H55zM59 4h1v1H59zM143 4h1v1H143zM164 4h1v1H164zM234 4h1v1H234zM242 4h1v1H242zM249 4h1v1H249zM258 4h5v1H258zM265 4h3v1H265zM278 4h5v1H278zM295 4h1v1H295zM0 5h1v1H0zM6 5h9v1H6zM19 5h1v1H19zM22 5h1v1H22zM25 5h1v1H25zM31 5h1v1H31zM35 5h1v1H35zM37 5h1v1H37zM40 5h1v1H40zM43 5h1v1H43zM47 5h1v1H47zM49 5h1v1H49zM55 5h1v1H55zM59 5h1v1H59zM130 5h6v1H130zM142 5h2v1H142zM156 5h1v1H156zM163 5h2v1H163zM230 5h5v1H230zM241 5h2v1H241zM248 5h2v1H248zM253 5h2v1H253zM261 5h1v1H261zM264 5h1v1H264zM268 5h1v1H268zM274 5h1v1H274zM278 5h1v1H278zM295 5h1v1H295zM0 6h1v1H0zM6 6h2v1H6zM13 6h2v1H13zM19 6h1v1H19zM23 6h1v1H23zM25 6h1v1H25zM31 6h1v1H31zM35 6h1v1H35zM37 6h1v1H37zM41 6h1v1H41zM43 6h1v1H43zM47 6h1v1H47zM49 6h1v1H49zM55 6h1v1H55zM59 6h1v1H59zM129 6h1v1H129zM136 6h1v1H136zM143 6h1v1H143zM157 6h1v1H157zM164 6h1v1H164zM229 6h1v1H229zM234 6h1v1H234zM242 6h1v1H242zM247 6h1v1H247zM249 6h1v1H249zM253 6h2v1H253zM260 6h1v1H260zM264 6h1v1H264zM268 6h1v1H268zM274 6h1v1H274zM278 6h4v1H278zM284 6h2v1H284zM287 6h1v1H287zM295 6h1v1H295zM0 7h1v1H0zM6 7h2v1H6zM9 7h3v1H9zM13 7h2v1H13zM19 7h1v1H19zM23 7h1v1H23zM25 7h4v1H25zM31 7h1v1H31zM35 7h1v1H35zM37 7h1v1H37zM41 7h1v1H41zM43 7h1v1H43zM47 7h1v1H47zM50 7h3v1H50zM55 7h5v1H55zM143 7h1v1H143zM150 7h9v1H150zM164 7h1v1H164zM229 7h1v1H229zM242 7h1v1H242zM246 7h1v1H246zM249 7h1v1H249zM261 7h1v1H261zM265 7h3v1H265zM272 7h5v1H272zM282 7h1v1H282zM284 7h1v1H284zM286 7h1v1H286zM288 7h1v1H288zM295 7h1v1H295zM0 8h1v1H0zM6 8h2v1H6zM9 8h3v1H9zM13 8h2v1H13zM19 8h1v1H19zM23 8h1v1H23zM25 8h1v1H25zM31 8h1v1H31zM35 8h1v1H35zM37 8h1v1H37zM41 8h1v1H41zM43 8h5v1H43zM53 8h1v1H53zM55 8h1v1H55zM59 8h1v1H59zM130 8h6v1H130zM143 8h1v1H143zM157 8h1v1H157zM164 8h1v1H164zM229 8h1v1H229zM235 8h1v1H235zM242 8h1v1H242zM246 8h5v1H246zM253 8h2v1H253zM262 8h1v1H262zM264 8h1v1H264zM268 8h1v1H268zM274 8h1v1H274zM282 8h1v1H282zM284 8h1v1H284zM286 8h1v1H286zM288 8h1v1H288zM295 8h1v1H295zM0 9h1v1H0zM6 9h2v1H6zM9 9h3v1H9zM13 9h2v1H13zM19 9h1v1H19zM22 9h1v1H22zM25 9h1v1H25zM32 9h1v1H32zM34 9h1v1H34zM37 9h1v1H37zM40 9h1v1H40zM43 9h1v1H43zM47 9h1v1H47zM53 9h1v1H53zM55 9h1v1H55zM59 9h1v1H59zM143 9h1v1H143zM156 9h1v1H156zM164 9h1v1H164zM235 9h1v1H235zM242 9h1v1H242zM249 9h1v1H249zM253 9h2v1H253zM258 9h1v1H258zM262 9h1v1H262zM264 9h1v1H264zM268 9h1v1H268zM274 9h1v1H274zM278 9h1v1H278zM282 9h1v1H282zM284 9h1v1H284zM288 9h1v1H288zM295 9h1v1H295zM0 10h1v1H0zM6 10h2v1H6zM13 10h2v1H13zM19 10h3v1H19zM25 10h5v1H25zM33 10h1v1H33zM37 10h3v1H37zM43 10h1v1H43zM47 10h1v1H47zM49 10h4v1H49zM55 10h1v1H55zM59 10h1v1H59zM132 10h2v1H132zM142 10h3v1H142zM163 10h3v1H163zM230 10h1v1H230zM235 10h1v1H235zM241 10h3v1H241zM249 10h1v1H249zM259 10h3v1H259zM265 10h3v1H265zM279 10h3v1H279zM284 10h1v1H284zM288 10h1v1H288zM295 10h1v1H295zM0 11h1v1H0zM6 11h9v1H6zM230 11h5v1H230zM295 11h1v1H295zM0 12h1v1H0zM6 12h9v1H6zM132 12h2v1H132zM230 12h1v1H230zM295 12h1v1H295zM0 13h1v1H0zM295 13h1v1H295zM0 14h294v1H0zM295 14h1v1H295zM0 15h1v1H0zM295 15h1v1H295zM0 16h1v1H0zM295 16h1v1H295zM0 17h1v1H0zM295 17h1v1H295zM0 18h1v1H0zM295 18h1v1H295zM0 19h1v1H0zM6 19h1v1H6zM9 19h1v1H9zM12 19h1v1H12zM18 19h3v1H18zM23 19h1v1H23zM30 19h3v1H30zM35 19h1v1H35zM39 19h1v1H39zM41 19h3v1H41zM47 19h5v1H47zM224 19h7v1H224zM235 19h3v1H235zM240 19h1v1H240zM248 19h1v1H248zM254 19h2v1H254zM264 19h5v1H264zM274 19h1v1H274zM278 19h1v1H278zM283 19h3v1H283zM288 19h1v1H288zM295 19h1v1H295zM0 20h1v1H0zM7 20h1v1H7zM9 20h1v1H9zM11 20h1v1H11zM17 20h1v1H17zM21 20h1v1H21zM23 20h1v1H23zM29 20h1v1H29zM33 20h1v1H33zM35 20h1v1H35zM39 20h1v1H39zM41 20h1v1H41zM44 20h1v1H44zM47 20h1v1H47zM225 20h5v1H225zM234 20h1v1H234zM238 20h1v1H238zM240 20h1v1H240zM247 20h2v1H247zM253 20h1v1H253zM262 20h1v1H262zM267 20h1v1H267zM274 20h1v1H274zM277 20h2v1H277zM282 20h1v1H282zM286 20h1v1H286zM288 20h1v1H288zM295 20h1v1H295zM0 21h1v1H0zM8 21h3v1H8zM17 21h1v1H17zM23 21h1v1H23zM29 21h1v1H29zM33 21h1v1H33zM35 21h1v1H35zM39 21h1v1H39zM41 21h1v1H41zM45 21h1v1H45zM47 21h1v1H47zM226 21h3v1H226zM238 21h1v1H238zM240 21h1v1H240zM242 21h2v1H242zM248 21h1v1H248zM252 21h1v1H252zM261 21h1v1H261zM266 21h1v1H266zM271 21h2v1H271zM274 21h1v1H274zM278 21h1v1H278zM286 21h1v1H286zM288 21h1v1H288zM290 21h2v1H290zM295 21h1v1H295zM0 22h1v1H0zM6 22h3v1H6zM10 22h3v1H10zM17 22h1v1H17zM23 22h1v1H23zM29 22h1v1H29zM33 22h1v1H33zM35 22h1v1H35zM39 22h1v1H39zM41 22h1v1H41zM45 22h1v1H45zM47 22h4v1H47zM227 22h1v1H227zM237 22h1v1H237zM240 22h2v1H240zM244 22h1v1H244zM248 22h1v1H248zM252 22h4v1H252zM260 22h1v1H260zM267 22h1v1H267zM270 22h1v1H270zM273 22h2v1H273zM278 22h1v1H278zM285 22h1v1H285zM288 22h2v1H288zM292 22h1v1H292zM295 22h1v1H295zM0 23h1v1H0zM8 23h3v1H8zM17 23h1v1H17zM23 23h1v1H23zM29 23h5v1H29zM35 23h1v1H35zM39 23h1v1H39zM41 23h1v1H41zM45 23h1v1H45zM47 23h1v1H47zM226 23h3v1H226zM236 23h1v1H236zM240 23h1v1H240zM244 23h1v1H244zM248 23h1v1H248zM252 23h1v1H252zM256 23h1v1H256zM259 23h1v1H259zM268 23h1v1H268zM270 23h1v1H270zM274 23h1v1H274zM278 23h1v1H278zM284 23h1v1H284zM288 23h1v1H288zM292 23h1v1H292zM295 23h1v1H295zM0 24h1v1H0zM7 24h1v1H7zM9 24h1v1H9zM11 24h1v1H11zM17 24h1v1H17zM21 24h1v1H21zM23 24h1v1H23zM29 24h1v1H29zM33 24h1v1H33zM35 24h1v1H35zM39 24h1v1H39zM41 24h1v1H41zM44 24h1v1H44zM47 24h1v1H47zM225 24h5v1H225zM235 24h1v1H235zM240 24h1v1H240zM244 24h1v1H244zM248 24h1v1H248zM252 24h1v1H252zM256 24h1v1H256zM258 24h1v1H258zM264 24h1v1H264zM268 24h1v1H268zM270 24h1v1H270zM274 24h1v1H274zM278 24h1v1H278zM283 24h1v1H283zM288 24h1v1H288zM292 24h1v1H292zM295 24h1v1H295zM0 25h1v1H0zM6 25h1v1H6zM9 25h1v1H9zM12 25h1v1H12zM18 25h3v1H18zM23 25h5v1H23zM29 25h1v1H29zM33 25h1v1H33zM36 25h3v1H36zM41 25h3v1H41zM47 25h5v1H47zM224 25h7v1H224zM234 25h5v1H234zM240 25h1v1H240zM244 25h1v1H244zM247 25h3v1H247zM253 25h3v1H253zM265 25h3v1H265zM271 25h4v1H271zM277 25h3v1H277zM282 25h5v1H282zM288 25h1v1H288zM292 25h1v1H292zM295 25h1v1H295zM0 26h1v1H0zM295 26h1v1H295zM0 27h1v1H0zM295 27h1v1H295zM0 28h1v1H0zM295 28h1v1H295zM0 29h1v1H0zM295 29h1v1H295zM0 30h1v1H0zM6 30h5v1H6zM12 30h1v1H12zM16 30h1v1H16zM24 30h3v1H24zM28 30h3v1H28zM32 30h3v1H32zM36 30h3v1H36zM40 30h3v1H40zM44 30h3v1H44zM48 30h3v1H48zM52 30h3v1H52zM56 30h3v1H56zM60 30h3v1H60zM64 30h3v1H64zM68 30h3v1H68zM72 30h3v1H72zM76 30h3v1H76zM80 30h3v1H80zM84 30h3v1H84zM88 30h3v1H88zM92 30h3v1H92zM96 30h3v1H96zM100 30h3v1H100zM104 30h3v1H104zM108 30h3v1H108zM112 30h3v1H112zM116 30h3v1H116zM120 30h3v1H120zM124 30h3v1H124zM128 30h3v1H128zM132 30h3v1H132zM136 30h3v1H136zM140 30h3v1H140zM144 30h3v1H144zM148 30h3v1H148zM152 30h3v1H152zM156 30h3v1H156zM160 30h3v1H160zM164 30h3v1H164zM168 30h3v1H168zM172 30h3v1H172zM176 30h3v1H176zM180 30h3v1H180zM184 30h3v1H184zM188 30h3v1H188zM192 30h3v1H192zM196 30h3v1H196zM200 30h3v1H200zM204 30h3v1H204zM208 30h3v1H208zM212 30h3v1H212zM216 30h3v1H216zM220 30h3v1H220zM224 30h3v1H224zM228 30h3v1H228zM232 30h3v1H232zM236 30h3v1H236zM240 30h3v1H240zM244 30h3v1H244zM248 30h3v1H248zM252 30h3v1H252zM256 30h3v1H256zM260 30h3v1H260zM264 30h3v1H264zM283 30h3v1H283zM288 30h2v1H288zM295 30h1v1H295zM0 31h1v1H0zM6 31h1v1H6zM12 31h1v1H12zM16 31h1v1H16zM24 31h3v1H24zM28 31h3v1H28zM32 31h3v1H32zM36 31h3v1H36zM40 31h3v1H40zM44 31h1v1H44zM46 31h1v1H46zM48 31h1v1H48zM50 31h1v1H50zM52 31h1v1H52zM54 31h1v1H54zM56 31h1v1H56zM58 31h1v1H58zM60 31h1v1H60zM62 31h1v1H62zM64 31h1v1H64zM66 31h1v1H66zM68 31h1v1H68zM70 31h1v1H70zM72 31h1v1H72zM74 31h1v1H74zM76 31h1v1H76zM78 31h1v1H78zM80 31h1v1H80zM82 31h1v1H82zM84 31h1v1H84zM86 31h1v1H86zM88 31h1v1H88zM90 31h1v1H90zM92 31h1v1H92zM94 31h1v1H94zM96 31h1v1H96zM98 31h1v1H98zM100 31h1v1H100zM102 31h1v1H102zM104 31h1v1H104zM106 31h1v1H106zM108 31h1v1H108zM110 31h1v1H110zM112 31h1v1H112zM114 31h1v1H114zM116 31h1v1H116zM118 31h1v1H118zM120 31h1v1H120zM122 31h1v1H122zM124 31h1v1H124zM126 31h1v1H126zM128 31h1v1H128zM130 31h1v1H130zM132 31h1v1H132zM134 31h1v1H134zM136 31h1v1H136zM138 31h1v1H138zM140 31h1v1H140zM142 31h1v1H142zM144 31h1v1H144zM146 31h1v1H146zM148 31h1v1H148zM150 31h1v1H150zM152 31h1v1H152zM154 31h1v1H154zM156 31h1v1H156zM158 31h1v1H158zM160 31h1v1H160zM162 31h1v1H162zM164 31h1v1H164zM166 31h1v1H166zM168 31h1v1H168zM170 31h1v1H170zM172 31h1v1H172zM174 31h1v1H174zM176 31h1v1H176zM178 31h1v1H178zM180 31h1v1H180zM182 31h1v1H182zM184 31h1v1H184zM186 31h1v1H186zM188 31h1v1H188zM190 31h1v1H190zM192 31h1v1H192zM194 31h1v1H194zM196 31h1v1H196zM198 31h1v1H198zM200 31h1v1H200zM202 31h1v1H202zM204 31h1v1H204zM206 31h1v1H206zM208 31h1v1H208zM210 31h1v1H210zM212 31h1v1H212zM214 31h1v1H214zM216 31h1v1H216zM218 31h1v1H218zM220 31h1v1H220zM222 31h1v1H222zM224 31h1v1H224zM226 31h1v1H226zM228 31h1v1H228zM230 31h1v1H230zM232 31h1v1H232zM234 31h1v1H234zM236 31h1v1H236zM238 31h1v1H238zM240 31h1v1H240zM242 31h1v1H242zM244 31h1v1H244zM246 31h1v1H246zM248 31h1v1H248zM250 31h1v1H250zM252 31h1v1H252zM254 31h1v1H254zM256 31h1v1H256zM258 31h1v1H258zM260 31h1v1H260zM262 31h1v1H262zM264 31h1v1H264zM266 31h1v1H266zM282 31h1v1H282zM286 31h1v1H286zM288 31h2v1H288zM292 31h1v1H292zM295 31h1v1H295zM0 32h1v1H0zM6 32h4v1H6zM12 32h1v1H12zM16 32h1v1H16zM24 32h3v1H24zM28 32h3v1H28zM32 32h3v1H32zM36 32h3v1H36zM40 32h3v1H40zM44 32h1v1H44zM46 32h1v1H46zM48 32h1v1H48zM50 32h1v1H50zM52 32h1v1H52zM54 32h1v1H54zM56 32h1v1H56zM58 32h1v1H58zM60 32h1v1H60zM62 32h1v1H62zM64 32h1v1H64zM66 32h1v1H66zM68 32h1v1H68zM70 32h1v1H70zM72 32h1v1H72zM74 32h1v1H74zM76 32h1v1H76zM78 32h1v1H78zM80 32h1v1H80zM82 32h1v1H82zM84 32h1v1H84zM86 32h1v1H86zM88 32h1v1H88zM90 32h1v1H90zM92 32h1v1H92zM94 32h1v1H94zM96 32h1v1H96zM98 32h1v1H98zM100 32h1v1H100zM102 32h1v1H102zM104 32h1v1H104zM106 32h1v1H106zM108 32h1v1H108zM110 32h1v1H110zM112 32h1v1H112zM114 32h1v1H114zM116 32h1v1H116zM118 32h1v1H118zM120 32h1v1H120zM122 32h1v1H122zM124 32h1v1H124zM126 32h1v1H126zM128 32h1v1H128zM130 32h1v1H130zM132 32h1v1H132zM134 32h1v1H134zM136 32h1v1H136zM138 32h1v1H138zM140 32h1v1H140zM142 32h1v1H142zM144 32h1v1H144zM146 32h1v1H146zM148 32h1v1H148zM150 32h1v1H150zM152 32h1v1H152zM154 32h1v1H154zM156 32h1v1H156zM158 32h1v1H158zM160 32h1v1H160zM162 32h1v1H162zM164 32h1v1H164zM166 32h1v1H166zM168 32h1v1H168zM170 32h1v1H170zM172 32h1v1H172zM174 32h1v1H174zM176 32h1v1H176zM178 32h1v1H178zM180 32h1v1H180zM182 32h1v1H182zM184 32h1v1H184zM186 32h1v1H186zM188 32h1v1H188zM190 32h1v1H190zM192 32h1v1H192zM194 32h1v1H194zM196 32h1v1H196zM198 32h1v1H198zM200 32h1v1H200zM202 32h1v1H202zM204 32h1v1H204zM206 32h1v1H206zM208 32h1v1H208zM210 32h1v1H210zM212 32h1v1H212zM214 32h1v1H214zM216 32h1v1H216zM218 32h1v1H218zM220 32h1v1H220zM222 32h1v1H222zM224 32h1v1H224zM226 32h1v1H226zM228 32h1v1H228zM230 32h1v1H230zM232 32h1v1H232zM234 32h1v1H234zM236 32h1v1H236zM238 32h1v1H238zM240 32h1v1H240zM242 32h1v1H242zM244 32h1v1H244zM246 32h1v1H246zM248 32h1v1H248zM250 32h1v1H250zM252 32h1v1H252zM254 32h1v1H254zM256 32h1v1H256zM258 32h1v1H258zM260 32h1v1H260zM262 32h1v1H262zM264 32h1v1H264zM266 32h1v1H266zM282 32h1v1H282zM286 32h1v1H286zM291 32h1v1H291zM295 32h1v1H295zM0 33h1v1H0zM10 33h1v1H10zM12 33h5v1H12zM24 33h3v1H24zM28 33h3v1H28zM32 33h3v1H32zM36 33h1v1H36zM38 33h1v1H38zM40 33h1v1H40zM42 33h1v1H42zM44 33h1v1H44zM46 33h1v1H46zM48 33h1v1H48zM50 33h1v1H50zM52 33h1v1H52zM54 33h1v1H54zM56 33h1v1H56zM58 33h1v1H58zM60 33h1v1H60zM62 33h1v1H62zM64 33h1v1H64zM66 33h1v1H66zM68 33h1v1H68zM70 33h1v1H70zM72 33h1v1H72zM74 33h1v1H74zM76 33h1v1H76zM78 33h1v1H78zM80 33h1v1H80zM82 33h1v1H82zM84 33h1v1H84zM86 33h1v1H86zM88 33h1v1H88zM90 33h1v1H90zM92 33h1v1H92zM94 33h1v1H94zM96 33h1v1H96zM98 33h1v1H98zM100 33h1v1H100zM102 33h1v1H102zM104 33h1v1H104zM106 33h1v1H106zM108 33h1v1H108zM110 33h1v1H110zM112 33h1v1H112zM114 33h1v1H114zM116 33h1v1H116zM118 33h1v1H118zM120 33h1v1H120zM122 33h1v1H122zM124 33h1v1H124zM126 33h1v1H126zM128 33h1v1H128zM130 33h1v1H130zM132 33h1v1H132zM134 33h1v1H134zM136 33h1v1H136zM138 33h1v1H138zM140 33h1v1H140zM142 33h1v1H142zM144 33h1v1H144zM146 33h1v1H146zM148 33h1v1H148zM150 33h1v1H150zM152 33h1v1H152zM154 33h1v1H154zM156 33h1v1H156zM158 33h1v1H158zM160 33h1v1H160zM162 33h1v1H162zM164 33h1v1H164zM166 33h1v1H166zM168 33h1v1H168zM170 33h1v1H170zM172 33h1v1H172zM174 33h1v1H174zM176 33h1v1H176zM178 33h1v1H178zM180 33h1v1H180zM182 33h1v1H182zM184 33h1v1H184zM186 33h1v1H186zM188 33h1v1H188zM190 33h1v1H190zM192 33h1v1H192zM194 33h1v1H194zM196 33h1v1H196zM198 33h1v1H198zM200 33h1v1H200zM202 33h1v1H202zM204 33h1v1H204zM206 33h1v1H206zM208 33h1v1H208zM210 33h1v1H210zM212 33h1v1H212zM214 33h1v1H214zM216 33h1v1H216zM218 33h1v1H218zM220 33h1v1H220zM222 33h1v1H222zM224 33h1v1H224zM226 33h1v1H226zM228 33h1v1H228zM230 33h1v1H230zM232 33h1v1H232zM234 33h1v1H234zM236 33h1v1H236zM238 33h1v1H238zM240 33h1v1H240zM242 33h1v1H242zM244 33h1v1H244zM246 33h1v1H246zM248 33h1v1H248zM250 33h1v1H250zM252 33h1v1H252zM254 33h1v1H254zM256 33h1v1H256zM258 33h1v1H258zM260 33h1v1H260zM262 33h1v1H262zM264 33h1v1H264zM266 33h1v1H266zM283 33h4v1H283zM290 33h1v1H290zM295 33h1v1H295zM0 34h1v1H0zM10 34h1v1H10zM12 34h1v1H12zM16 34h1v1H16zM24 34h3v1H24zM28 34h3v1H28zM32 34h3v1H32zM36 34h1v1H36zM38 34h1v1H38zM40 34h1v1H40zM42 34h1v1H42zM44 34h1v1H44zM46 34h1v1H46zM48 34h1v1H48zM50 34h1v1H50zM52 34h1v1H52zM54 34h1v1H54zM56 34h1v1H56zM58 34h1v1H58zM60 34h1v1H60zM62 34h1v1H62zM64 34h1v1H64zM66 34h1v1H66zM68 34h1v1H68zM70 34h1v1H70zM72 34h1v1H72zM74 34h1v1H74zM76 34h1v1H76zM78 34h1v1H78zM80 34h1v1H80zM82 34h1v1H82zM84 34h1v1H84zM86 34h1v1H86zM88 34h1v1H88zM90 34h1v1H90zM92 34h1v1H92zM94 34h1v1H94zM96 34h1v1H96zM98 34h1v1H98zM100 34h1v1H100zM102 34h1v1H102zM104 34h1v1H104zM106 34h1v1H106zM108 34h1v1H108zM110 34h1v1H110zM112 34h1v1H112zM114 34h1v1H114zM116 34h1v1H116zM118 34h1v1H118zM120 34h1v1H120zM122 34h1v1H122zM124 34h1v1H124zM126 34h1v1H126zM128 34h1v1H128zM130 34h1v1H130zM132 34h1v1H132zM134 34h1v1H134zM136 34h1v1H136zM138 34h1v1H138zM140 34h1v1H140zM142 34h1v1H142zM144 34h1v1H144zM146 34h1v1H146zM148 34h1v1H148zM150 34h1v1H150zM152 34h1v1H152zM154 34h1v1H154zM156 34h1v1H156zM158 34h1v1H158zM160 34h1v1H160zM162 34h1v1H162zM164 34h1v1H164zM166 34h1v1H166zM168 34h1v1H168zM170 34h1v1H170zM172 34h1v1H172zM174 34h1v1H174zM176 34h1v1H176zM178 34h1v1H178zM180 34h1v1H180zM182 34h1v1H182zM184 34h1v1H184zM186 34h1v1H186zM188 34h1v1H188zM190 34h1v1H190zM192 34h1v1H192zM194 34h1v1H194zM196 34h1v1H196zM198 34h1v1H198zM200 34h1v1H200zM202 34h1v1H202zM204 34h1v1H204zM206 34h1v1H206zM208 34h1v1H208zM210 34h1v1H210zM212 34h1v1H212zM214 34h1v1H214zM216 34h1v1H216zM218 34h1v1H218zM220 34h1v1H220zM222 34h1v1H222zM224 34h1v1H224zM226 34h1v1H226zM228 34h1v1H228zM230 34h1v1H230zM232 34h1v1H232zM234 34h1v1H234zM236 34h1v1H236zM238 34h1v1H238zM240 34h1v1H240zM242 34h1v1H242zM244 34h1v1H244zM246 34h1v1H246zM248 34h1v1H248zM250 34h1v1H250zM252 34h1v1H252zM254 34h1v1H254zM256 34h1v1H256zM258 34h1v1H258zM260 34h1v1H260zM262 34h1v1H262zM264 34h1v1H264zM266 34h1v1H266zM286 34h1v1H286zM289 34h1v1H289zM295 34h1v1H295zM0 35h1v1H0zM6 35h1v1H6zM10 35h1v1H10zM12 35h1v1H12zM16 35h1v1H16zM24 35h3v1H24zM28 35h3v1H28zM32 35h3v1H32zM36 35h3v1H36zM40 35h3v1H40zM44 35h1v1H44zM46 35h1v1H46zM48 35h1v1H48zM50 35h1v1H50zM52 35h1v1H52zM54 35h1v1H54zM56 35h1v1H56zM58 35h1v1H58zM60 35h1v1H60zM62 35h1v1H62zM64 35h1v1H64zM66 35h1v1H66zM68 35h1v1H68zM70 35h1v1H70zM72 35h1v1H72zM74 35h1v1H74zM76 35h1v1H76zM78 35h1v1H78zM80 35h1v1H80zM82 35h1v1H82zM84 35h1v1H84zM86 35h1v1H86zM88 35h1v1H88zM90 35h1v1H90zM92 35h1v1H92zM94 35h1v1H94zM96 35h1v1H96zM98 35h1v1H98zM100 35h1v1H100zM102 35h1v1H102zM104 35h1v1H104zM106 35h1v1H106zM108 35h1v1H108zM110 35h1v1H110zM112 35h1v1H112zM114 35h1v1H114zM116 35h1v1H116zM118 35h1v1H118zM120 35h1v1H120zM122 35h1v1H122zM124 35h1v1H124zM126 35h1v1H126zM128 35h1v1H128zM130 35h1v1H130zM132 35h1v1H132zM134 35h1v1H134zM136 35h1v1H136zM138 35h1v1H138zM140 35h1v1H140zM142 35h1v1H142zM144 35h1v1H144zM146 35h1v1H146zM148 35h1v1H148zM150 35h1v1H150zM152 35h1v1H152zM154 35h1v1H154zM156 35h1v1H156zM158 35h1v1H158zM160 35h1v1H160zM162 35h1v1H162zM164 35h1v1H164zM166 35h1v1H166zM168 35h1v1H168zM170 35h1v1H170zM172 35h1v1H172zM174 35h1v1H174zM176 35h1v1H176zM178 35h1v1H178zM180 35h1v1H180zM182 35h1v1H182zM184 35h1v1H184zM186 35h1v1H186zM188 35h1v1H188zM190 35h1v1H190zM192 35h1v1H192zM194 35h1v1H194zM196 35h1v1H196zM198 35h1v1H198zM200 35h1v1H200zM202 35h1v1H202zM204 35h1v1H204zM206 35h1v1H206zM208 35h1v1H208zM210 35h1v1H210zM212 35h1v1H212zM214 35h1v1H214zM216 35h1v1H216zM218 35h1v1H218zM220 35h1v1H220zM222 35h1v1H222zM224 35h1v1H224zM226 35h1v1H226zM228 35h1v1H228zM230 35h1v1H230zM232 35h1v1H232zM234 35h1v1H234zM236 35h1v1H236zM238 35h1v1H238zM240 35h1v1H240zM242 35h1v1H242zM244 35h1v1H244zM246 35h1v1H246zM248 35h1v1H248zM250 35h1v1H250zM252 35h1v1H252zM254 35h1v1H254zM256 35h1v1H256zM258 35h1v1H258zM260 35h1v1H260zM262 35h1v1H262zM264 35h1v1H264zM266 35h1v1H266zM285 35h1v1H285zM288 35h1v1H288zM291 35h2v1H291zM295 35h1v1H295zM0 36h1v1H0zM7 36h3v1H7zM12 36h1v1H12zM16 36h1v1H16zM24 36h3v1H24zM28 36h3v1H28zM32 36h3v1H32zM36 36h3v1H36zM40 36h3v1H40zM44 36h1v1H44zM46 36h1v1H46zM48 36h1v1H48zM50 36h1v1H50zM52 36h1v1H52zM54 36h1v1H54zM56 36h1v1H56zM58 36h1v1H58zM60 36h1v1H60zM62 36h1v1H62zM64 36h1v1H64zM66 36h1v1H66zM68 36h1v1H68zM70 36h1v1H70zM72 36h1v1H72zM74 36h1v1H74zM76 36h1v1H76zM78 36h1v1H78zM80 36h1v1H80zM82 36h1v1H82zM84 36h1v1H84zM86 36h1v1H86zM88 36h1v1H88zM90 36h1v1H90zM92 36h1v1H92zM94 36h1v1H94zM96 36h1v1H96zM98 36h1v1H98zM100 36h1v1H100zM102 36h1v1H102zM104 36h1v1H104zM106 36h1v1H106zM108 36h1v1H108zM110 36h1v1H110zM112 36h1v1H112zM114 36h1v1H114zM116 36h1v1H116zM118 36h1v1H118zM120 36h1v1H120zM122 36h1v1H122zM124 36h1v1H124zM126 36h1v1H126zM128 36h1v1H128zM130 36h1v1H130zM132 36h1v1H132zM134 36h1v1H134zM136 36h1v1H136zM138 36h1v1H138zM140 36h1v1H140zM142 36h1v1H142zM144 36h1v1H144zM146 36h1v1H146zM148 36h1v1H148zM150 36h1v1H150zM152 36h1v1H152zM154 36h1v1H154zM156 36h1v1H156zM158 36h1v1H158zM160 36h1v1H160zM162 36h1v1H162zM164 36h1v1H164zM166 36h1v1H166zM168 36h1v1H168zM170 36h1v1H170zM172 36h1v1H172zM174 36h1v1H174zM176 36h1v1H176zM178 36h1v1H178zM180 36h1v1H180zM182 36h1v1H182zM184 36h1v1H184zM186 36h1v1H186zM188 36h1v1H188zM190 36h1v1H190zM192 36h1v1H192zM194 36h1v1H194zM196 36h1v1H196zM198 36h1v1H198zM200 36h1v1H200zM202 36h1v1H202zM204 36h1v1H204zM206 36h1v1H206zM208 36h1v1H208zM210 36h1v1H210zM212 36h1v1H212zM214 36h1v1H214zM216 36h1v1H216zM218 36h1v1H218zM220 36h1v1H220zM222 36h1v1H222zM224 36h1v1H224zM226 36h1v1H226zM228 36h1v1H228zM230 36h1v1H230zM232 36h1v1H232zM234 36h1v1H234zM236 36h1v1H236zM238 36h1v1H238zM240 36h1v1H240zM242 36h1v1H242zM244 36h1v1H244zM246 36h1v1H246zM248 36h1v1H248zM250 36h1v1H250zM252 36h1v1H252zM254 36h1v1H254zM256 36h1v1H256zM258 36h1v1H258zM260 36h1v1H260zM262 36h1v1H262zM264 36h1v1H264zM266 36h1v1H266zM283 36h2v1H283zM291 36h2v1H291zM295 36h1v1H295zM0 37h1v1H0zM24 37h3v1H24zM28 37h3v1H28zM32 37h3v1H32zM36 37h3v1H36zM40 37h3v1H40zM44 37h3v1H44zM48 37h3v1H48zM52 37h3v1H52zM56 37h3v1H56zM60 37h3v1H60zM64 37h3v1H64zM68 37h3v1H68zM72 37h3v1H72zM76 37h3v1H76zM80 37h3v1H80zM84 37h3v1H84zM88 37h3v1H88zM92 37h3v1H92zM96 37h3v1H96zM100 37h3v1H100zM104 37h3v1H104zM108 37h3v1H108zM112 37h3v1H112zM116 37h3v1H116zM120 37h3v1H120zM124 37h3v1H124zM128 37h3v1H128zM132 37h3v1H132zM136 37h3v1H136zM140 37h3v1H140zM144 37h3v1H144zM148 37h3v1H148zM152 37h3v1H152zM156 37h3v1H156zM160 37h3v1H160zM164 37h3v1H164zM168 37h3v1H168zM172 37h3v1H172zM176 37h3v1H176zM180 37h3v1H180zM184 37h3v1H184zM188 37h3v1H188zM192 37h3v1H192zM196 37h3v1H196zM200 37h3v1H200zM204 37h3v1H204zM208 37h3v1H208zM212 37h3v1H212zM216 37h3v1H216zM220 37h3v1H220zM224 37h3v1H224zM228 37h3v1H228zM232 37h3v1H232zM236 37h3v1H236zM240 37h3v1H240zM244 37h3v1H244zM248 37h3v1H248zM252 37h3v1H252zM256 37h3v1H256zM260 37h3v1H260zM264 37h3v1H264zM295 37h1v1H295zM0 38h1v1H0zM295 38h1v1H295zM0 39h1v1H0zM295 39h1v1H295zM0 40h1v1H0zM295 40h1v1H295zM0 41h1v1H0zM6 41h5v1H6zM12 41h3v1H12zM24 41h3v1H24zM28 41h3v1H28zM32 41h3v1H32zM36 41h3v1H36zM40 41h3v1H40zM44 41h3v1H44zM48 41h3v1H48zM52 41h3v1H52zM56 41h3v1H56zM60 41h3v1H60zM64 41h3v1H64zM68 41h3v1H68zM72 41h3v1H72zM76 41h3v1H76zM80 41h3v1H80zM84 41h3v1H84zM88 41h3v1H88zM92 41h3v1H92zM96 41h3v1H96zM100 41h3v1H100zM104 41h3v1H104zM108 41h3v1H108zM112 41h3v1H112zM116 41h3v1H116zM120 41h3v1H120zM124 41h3v1H124zM128 41h3v1H128zM132 41h3v1H132zM136 41h3v1H136zM140 41h3v1H140zM144 41h3v1H144zM148 41h3v1H148zM152 41h3v1H152zM156 41h3v1H156zM160 41h3v1H160zM164 41h3v1H164zM168 41h3v1H168zM172 41h3v1H172zM176 41h3v1H176zM180 41h3v1H180zM184 41h3v1H184zM188 41h3v1H188zM192 41h3v1H192zM196 41h3v1H196zM200 41h3v1H200zM204 41h3v1H204zM208 41h3v1H208zM212 41h3v1H212zM216 41h3v1H216zM220 41h3v1H220zM224 41h3v1H224zM228 41h3v1H228zM232 41h3v1H232zM236 41h3v1H236zM240 41h3v1H240zM244 41h3v1H244zM248 41h3v1H248zM252 41h3v1H252zM256 41h3v1H256zM260 41h3v1H260zM264 41h3v1H264zM279 41h1v1H279zM284 41h1v1H284zM288 41h2v1H288zM295 41h1v1H295zM0 42h1v1H0zM10 42h1v1H10zM12 42h1v1H12zM15 42h1v1H15zM24 42h3v1H24zM28 42h3v1H28zM32 42h3v1H32zM36 42h3v1H36zM40 42h3v1H40zM44 42h3v1H44zM48 42h3v1H48zM52 42h3v1H52zM56 42h3v1H56zM60 42h3v1H60zM64 42h3v1H64zM68 42h3v1H68zM72 42h3v1H72zM76 42h3v1H76zM80 42h3v1H80zM84 42h3v1H84zM88 42h3v1H88zM92 42h3v1H92zM96 42h3v1H96zM100 42h3v1H100zM104 42h3v1H104zM108 42h3v1H108zM112 42h3v1H112zM116 42h3v1H116zM120 42h3v1H120zM124 42h1v1H124zM126 42h1v1H126zM128 42h1v1H128zM130 42h1v1H130zM132 42h1v1H132zM134 42h1v1H134zM136 42h1v1H136zM138 42h1v1H138zM140 42h1v1H140zM142 42h1v1H142zM144 42h1v1H144zM146 42h1v1H146zM148 42h1v1H148zM150 42h1v1H150zM152 42h1v1H152zM154 42h1v1H154zM156 42h1v1H156zM158 42h1v1H158zM160 42h1v1H160zM162 42h1v1H162zM164 42h1v1H164zM166 42h1v1H166zM168 42h1v1H168zM170 42h1v1H170zM172 42h1v1H172zM174 42h1v1H174zM176 42h1v1H176zM178 42h1v1H178zM180 42h1v1H180zM182 42h1v1H182zM184 42h1v1H184zM186 42h1v1H186zM188 42h1v1H188zM190 42h1v1H190zM192 42h1v1H192zM194 42h1v1H194zM196 42h1v1H196zM198 42h1v1H198zM200 42h1v1H200zM202 42h1v1H202zM204 42h1v1H204zM206 42h1v1H206zM208 42h1v1H208zM210 42h1v1H210zM212 42h1v1H212zM214 42h1v1H214zM216 42h1v1H216zM218 42h1v1H218zM220 42h1v1H220zM222 42h1v1H222zM224 42h1v1H224zM226 42h1v1H226zM228 42h1v1H228zM230 42h1v1H230zM232 42h1v1H232zM234 42h1v1H234zM236 42h1v1H236zM238 42h1v1H238zM240 42h1v1H240zM242 42h1v1H242zM244 42h1v1H244zM246 42h1v1H246zM248 42h1v1H248zM250 42h1v1H250zM252 42h1v1H252zM254 42h1v1H254zM256 42h1v1H256zM258 42h1v1H258zM260 42h1v1H260zM262 42h1v1H262zM264 42h1v1H264zM266 42h1v1H266zM278 42h2v1H278zM283 42h2v1H283zM288 42h2v1H288zM292 42h1v1H292zM295 42h1v1H295zM0 43h1v1H0zM9 43h1v1H9zM12 43h1v1H12zM16 43h1v1H16zM24 43h3v1H24zM28 43h3v1H28zM32 43h3v1H32zM36 43h3v1H36zM40 43h3v1H40zM44 43h3v1H44zM48 43h3v1H48zM52 43h3v1H52zM56 43h3v1H56zM60 43h3v1H60zM64 43h3v1H64zM68 43h3v1H68zM72 43h3v1H72zM76 43h3v1H76zM80 43h3v1H80zM84 43h3v1H84zM88 43h3v1H88zM92 43h3v1H92zM96 43h3v1H96zM100 43h3v1H100zM104 43h3v1H104zM108 43h3v1H108zM112 43h3v1H112zM116 43h3v1H116zM120 43h3v1H120zM124 43h1v1H124zM126 43h1v1H126zM128 43h1v1H128zM130 43h1v1H130zM132 43h1v1H132zM134 43h1v1H134zM136 43h1v1H136zM138 43h1v1H138zM140 43h1v1H140zM142 43h1v1H142zM144 43h1v1H144zM146 43h1v1H146zM148 43h1v1H148zM150 43h1v1H150zM152 43h1v1H152zM154 43h1v1H154zM156 43h1v1H156zM158 43h1v1H158zM160 43h1v1H160zM162 43h1v1H162zM164 43h1v1H164zM166 43h1v1H166zM168 43h1v1H168zM170 43h1v1H170zM172 43h1v1H172zM174 43h1v1H174zM176 43h1v1H176zM178 43h1v1H178zM180 43h1v1H180zM182 43h1v1H182zM184 43h1v1H184zM186 43h1v1H186zM188 43h1v1H188zM190 43h1v1H190zM192 43h1v1H192zM194 43h1v1H194zM196 43h1v1H196zM198 43h1v1H198zM200 43h1v1H200zM202 43h1v1H202zM204 43h1v1H204zM206 43h1v1H206zM208 43h1v1H208zM210 43h1v1H210zM212 43h1v1H212zM214 43h1v1H214zM216 43h1v1H216zM218 43h1v1H218zM220 43h1v1H220zM222 43h1v1H222zM224 43h1v1H224zM226 43h1v1H226zM228 43h1v1H228zM230 43h1v1H230zM232 43h1v1H232zM234 43h1v1H234zM236 43h1v1H236zM238 43h1v1H238zM240 43h1v1H240zM242 43h1v1H242zM244 43h1v1H244zM246 43h1v1H246zM248 43h1v1H248zM250 43h1v1H250zM252 43h1v1H252zM254 43h1v1H254zM256 43h1v1H256zM258 43h1v1H258zM260 43h1v1H260zM262 43h1v1H262zM264 43h1v1H264zM266 43h1v1H266zM277 43h1v1H277zM279 43h1v1H279zM284 43h1v1H284zM291 43h1v1H291zM295 43h1v1H295zM0 44h1v1H0zM8 44h1v1H8zM12 44h1v1H12zM16 44h1v1H16zM24 44h3v1H24zM28 44h3v1H28zM32 44h3v1H32zM36 44h3v1H36zM40 44h3v1H40zM44 44h3v1H44zM48 44h3v1H48zM52 44h3v1H52zM56 44h3v1H56zM60 44h3v1H60zM64 44h3v1H64zM68 44h3v1H68zM72 44h3v1H72zM76 44h3v1H76zM80 44h3v1H80zM84 44h3v1H84zM88 44h3v1H88zM92 44h3v1H92zM96 44h3v1H96zM100 44h3v1H100zM104 44h3v1H104zM108 44h1v1H108zM110 44h1v1H110zM112 44h1v1H112zM114 44h1v1H114zM116 44h1v1H116zM118 44h1v1H118zM120 44h1v1H120zM122 44h1v1H122zM124 44h1v1H124zM126 44h1v1H126zM128 44h1v1H128zM130 44h1v1H130zM132 44h1v1H132zM134 44h1v1H134zM136 44h1v1H136zM138 44h1v1H138zM140 44h1v1H140zM142 44h1v1H142zM144 44h1v1H144zM146 44h1v1H146zM148 44h1v1H148zM150 44h1v1H150zM152 44h1v1H152zM154 44h1v1H154zM156 44h1v1H156zM158 44h1v1H158zM160 44h1v1H160zM162 44h1v1H162zM164 44h1v1H164zM166 44h1v1H166zM168 44h1v1H168zM170 44h1v1H170zM172 44h1v1H172zM174 44h1v1H174zM176 44h1v1H176zM178 44h1v1H178zM180 44h1v1H180zM182 44h1v1H182zM184 44h1v1H184zM186 44h1v1H186zM188 44h1v1H188zM190 44h1v1H190zM192 44h1v1H192zM194 44h1v1H194zM196 44h1v1H196zM198 44h1v1H198zM200 44h1v1H200zM202 44h1v1H202zM204 44h1v1H204zM206 44h1v1H206zM208 44h1v1H208zM210 44h1v1H210zM212 44h1v1H212zM214 44h1v1H214zM216 44h1v1H216zM218 44h1v1H218zM220 44h1v1H220zM222 44h1v1H222zM224 44h1v1H224zM226 44h1v1H226zM228 44h1v1H228zM230 44h1v1H230zM232 44h1v1H232zM234 44h1v1H234zM236 44h1v1H236zM238 44h1v1H238zM240 44h1v1H240zM242 44h1v1H242zM244 44h1v1H244zM246 44h1v1H246zM248 44h1v1H248zM250 44h1v1H250zM252 44h1v1H252zM254 44h1v1H254zM256 44h1v1H256zM258 44h1v1H258zM260 44h1v1H260zM262 44h1v1H262zM264 44h1v1H264zM266 44h1v1H266zM276 44h1v1H276zM279 44h1v1H279zM284 44h1v1H284zM290 44h1v1H290zM295 44h1v1H295zM0 45h1v1H0zM7 45h1v1H7zM12 45h1v1H12zM16 45h1v1H16zM24 45h3v1H24zM28 45h3v1H28zM32 45h3v1H32zM36 45h3v1H36zM40 45h3v1H40zM44 45h3v1H44zM48 45h3v1H48zM52 45h3v1H52zM56 45h3v1H56zM60 45h3v1H60zM64 45h3v1H64zM68 45h3v1H68zM72 45h3v1H72zM76 45h3v1H76zM80 45h3v1H80zM84 45h3v1H84zM88 45h3v1H88zM92 45h3v1H92zM96 45h3v1H96zM100 45h3v1H100zM104 45h3v1H104zM108 45h1v1H108zM110 45h1v1H110zM112 45h1v1H112zM114 45h1v1H114zM116 45h1v1H116zM118 45h1v1H118zM120 45h1v1H120zM122 45h1v1H122zM124 45h1v1H124zM126 45h1v1H126zM128 45h1v1H128zM130 45h1v1H130zM132 45h1v1H132zM134 45h1v1H134zM136 45h1v1H136zM138 45h1v1H138zM140 45h1v1H140zM142 45h1v1H142zM144 45h1v1H144zM146 45h1v1H146zM148 45h1v1H148zM150 45h1v1H150zM152 45h1v1H152zM154 45h1v1H154zM156 45h1v1H156zM158 45h1v1H158zM160 45h1v1H160zM162 45h1v1H162zM164 45h1v1H164zM166 45h1v1H166zM168 45h1v1H168zM170 45h1v1H170zM172 45h1v1H172zM174 45h1v1H174zM176 45h1v1H176zM178 45h1v1H178zM180 45h1v1H180zM182 45h1v1H182zM184 45h1v1H184zM186 45h1v1H186zM188 45h1v1H188zM190 45h1v1H190zM192 45h1v1H192zM194 45h1v1H194zM196 45h1v1H196zM198 45h1v1H198zM200 45h1v1H200zM202 45h1v1H202zM204 45h1v1H204zM206 45h1v1H206zM208 45h1v1H208zM210 45h1v1H210zM212 45h1v1H212zM214 45h1v1H214zM216 45h1v1H216zM218 45h1v1H218zM220 45h1v1H220zM222 45h1v1H222zM224 45h1v1H224zM226 45h1v1H226zM228 45h1v1H228zM230 45h1v1H230zM232 45h1v1H232zM234 45h1v1H234zM236 45h1v1H236zM238 45h1v1H238zM240 45h1v1H240zM242 45h1v1H242zM244 45h1v1H244zM246 45h1v1H246zM248 45h1v1H248zM250 45h1v1H250zM252 45h1v1H252zM254 45h1v1H254zM256 45h1v1H256zM258 45h1v1H258zM260 45h1v1H260zM262 45h1v1H262zM264 45h1v1H264zM266 45h1v1H266zM276 45h5v1H276zM284 45h1v1H284zM289 45h1v1H289zM295 45h1v1H295zM0 46h1v1H0zM7 46h1v1H7zM12 46h1v1H12zM15 46h1v1H15zM24 46h3v1H24zM28 46h3v1H28zM32 46h3v1H32zM36 46h3v1H36zM40 46h3v1H40zM44 46h3v1H44zM48 46h3v1H48zM52 46h3v1H52zM56 46h3v1H56zM60 46h3v1H60zM64 46h3v1H64zM68 46h3v1H68zM72 46h3v1H72zM76 46h3v1H76zM80 46h3v1H80zM84 46h3v1H84zM88 46h3v1H88zM92 46h3v1H92zM96 46h3v1H96zM100 46h3v1H100zM104 46h3v1H104zM108 46h3v1H108zM112 46h3v1H112zM116 46h3v1H116zM120 46h3v1H120zM124 46h1v1H124zM126 46h1v1H126zM128 46h1v1H128zM130 46h1v1H130zM132 46h1v1H132zM134 46h1v1H134zM136 46h1v1H136zM138 46h1v1H138zM140 46h1v1H140zM142 46h1v1H142zM144 46h1v1H144zM146 46h1v1H146zM148 46h1v1H148zM150 46h1v1H150zM152 46h1v1H152zM154 46h1v1H154zM156 46h1v1H156zM158 46h1v1H158zM160 46h1v1H160zM162 46h1v1H162zM164 46h1v1H164zM166 46h1v1H166zM168 46h1v1H168zM170 46h1v1H170zM172 46h1v1H172zM174 46h1v1H174zM176 46h1v1H176zM178 46h1v1H178zM180 46h1v1H180zM182 46h1v1H182zM184 46h1v1H184zM186 46h1v1H186zM188 46h1v1H188zM190 46h1v1H190zM192 46h1v1H192zM194 46h1v1H194zM196 46h1v1H196zM198 46h1v1H198zM200 46h1v1H200zM202 46h1v1H202zM204 46h1v1H204zM206 46h1v1H206zM208 46h1v1H208zM210 46h1v1H210zM212 46h1v1H212zM214 46h1v1H214zM216 46h1v1H216zM218 46h1v1H218zM220 46h1v1H220zM222 46h1v1H222zM224 46h1v1H224zM226 46h1v1H226zM228 46h1v1H228zM230 46h1v1H230zM232 46h1v1H232zM234 46h1v1H234zM236 46h1v1H236zM238 46h1v1H238zM240 46h1v1H240zM242 46h1v1H242zM244 46h1v1H244zM246 46h1v1H246zM248 46h1v1H248zM250 46h1v1H250zM252 46h1v1H252zM254 46h1v1H254zM256 46h1v1H256zM258 46h1v1H258zM260 46h1v1H260zM262 46h1v1H262zM264 46h1v1H264zM266 46h1v1H266zM279 46h1v1H279zM284 46h1v1H284zM288 46h1v1H288zM291 46h2v1H291zM295 46h1v1H295zM0 47h1v1H0zM7 47h1v1H7zM12 47h3v1H12zM24 47h3v1H24zM28 47h3v1H28zM32 47h3v1H32zM36 47h3v1H36zM40 47h3v1H40zM44 47h3v1H44zM48 47h3v1H48zM52 47h3v1H52zM56 47h3v1H56zM60 47h3v1H60zM64 47h3v1H64zM68 47h3v1H68zM72 47h3v1H72zM76 47h3v1H76zM80 47h3v1H80zM84 47h3v1H84zM88 47h3v1H88zM92 47h3v1H92zM96 47h3v1H96zM100 47h3v1H100zM104 47h3v1H104zM108 47h3v1H108zM112 47h3v1H112zM116 47h3v1H116zM120 47h3v1H120zM124 47h1v1H124zM126 47h1v1H126zM128 47h1v1H128zM130 47h1v1H130zM132 47h1v1H132zM134 47h1v1H134zM136 47h1v1H136zM138 47h1v1H138zM140 47h1v1H140zM142 47h1v1H142zM144 47h1v1H144zM146 47h1v1H146zM148 47h1v1H148zM150 47h1v1H150zM152 47h1v1H152zM154 47h1v1H154zM156 47h1v1H156zM158 47h1v1H158zM160 47h1v1H160zM162 47h1v1H162zM164 47h1v1H164zM166 47h1v1H166zM168 47h1v1H168zM170 47h1v1H170zM172 47h1v1H172zM174 47h1v1H174zM176 47h1v1H176zM178 47h1v1H178zM180 47h1v1H180zM182 47h1v1H182zM184 47h1v1H184zM186 47h1v1H186zM188 47h1v1H188zM190 47h1v1H190zM192 47h1v1H192zM194 47h1v1H194zM196 47h1v1H196zM198 47h1v1H198zM200 47h1v1H200zM202 47h1v1H202zM204 47h1v1H204zM206 47h1v1H206zM208 47h1v1H208zM210 47h1v1H210zM212 47h1v1H212zM214 47h1v1H214zM216 47h1v1H216zM218 47h1v1H218zM220 47h1v1H220zM222 47h1v1H222zM224 47h1v1H224zM226 47h1v1H226zM228 47h1v1H228zM230 47h1v1H230zM232 47h1v1H232zM234 47h1v1H234zM236 47h1v1H236zM238 47h1v1H238zM240 47h1v1H240zM242 47h1v1H242zM244 47h1v1H244zM246 47h1v1H246zM248 47h1v1H248zM250 47h1v1H250zM252 47h1v1H252zM254 47h1v1H254zM256 47h1v1H256zM258 47h1v1H258zM260 47h1v1H260zM262 47h1v1H262zM264 47h1v1H264zM266 47h1v1H266zM279 47h1v1H279zM283 47h3v1H283zM291 47h2v1H291zM295 47h1v1H295zM0 48h1v1H0zM24 48h3v1H24zM28 48h3v1H28zM32 48h3v1H32zM36 48h3v1H36zM40 48h3v1H40zM44 48h3v1H44zM48 48h3v1H48zM52 48h3v1H52zM56 48h3v1H56zM60 48h3v1H60zM64 48h3v1H64zM68 48h3v1H68zM72 48h3v1H72zM76 48h3v1H76zM80 48h3v1H80zM84 48h3v1H84zM88 48h3v1H88zM92 48h3v1H92zM96 48h3v1H96zM100 48h3v1H100zM104 48h3v1H104zM108 48h3v1H108zM112 48h3v1H112zM116 48h3v1H116zM120 48h3v1H120zM124 48h3v1H124zM128 48h3v1H128zM132 48h3v1H132zM136 48h3v1H136zM140 48h3v1H140zM144 48h3v1H144zM148 48h3v1H148zM152 48h3v1H152zM156 48h3v1H156zM160 48h3v1H160zM164 48h3v1H164zM168 48h3v1H168zM172 48h3v1H172zM176 48h3v1H176zM180 48h3v1H180zM184 48h3v1H184zM188 48h3v1H188zM192 48h3v1H192zM196 48h3v1H196zM200 48h3v1H200zM204 48h3v1H204zM208 48h3v1H208zM212 48h3v1H212zM216 48h3v1H216zM220 48h3v1H220zM224 48h3v1H224zM228 48h3v1H228zM232 48h3v1H232zM236 48h3v1H236zM240 48h3v1H240zM244 48h3v1H244zM248 48h3v1H248zM252 48h3v1H252zM256 48h3v1H256zM260 48h3v1H260zM264 48h3v1H264zM295 48h1v1H295zM0 49h1v1H0zM295 49h1v1H295zM0 50h1v1H0zM160 50h3v1H160zM295 50h1v1H295zM0 51h1v1H0zM295 51h1v1H295zM0 52h1v1H0zM7 52h3v1H7zM36 52h3v1H36zM40 52h3v1H40zM44 52h3v1H44zM48 52h3v1H48zM52 52h3v1H52zM56 52h3v1H56zM60 52h3v1H60zM64 52h3v1H64zM68 52h3v1H68zM72 52h3v1H72zM76 52h3v1H76zM80 52h3v1H80zM84 52h3v1H84zM88 52h3v1H88zM92 52h3v1H92zM96 52h3v1H96zM100 52h3v1H100zM104 52h3v1H104zM108 52h3v1H108zM112 52h3v1H112zM116 52h3v1H116zM120 52h3v1H120zM124 52h3v1H124zM128 52h3v1H128zM132 52h3v1H132zM136 52h3v1H136zM140 52h3v1H140zM144 52h3v1H144zM148 52h3v1H148zM152 52h3v1H152zM156 52h3v1H156zM160 52h3v1H160zM164 52h3v1H164zM168 52h3v1H168zM172 52h3v1H172zM176 52h3v1H176zM180 52h3v1H180zM184 52h3v1H184zM188 52h3v1H188zM192 52h3v1H192zM196 52h3v1H196zM200 52h3v1H200zM204 52h3v1H204zM208 52h3v1H208zM212 52h3v1H212zM216 52h3v1H216zM220 52h3v1H220zM224 52h3v1H224zM228 52h3v1H228zM232 52h3v1H232zM236 52h3v1H236zM240 52h3v1H240zM244 52h3v1H244zM248 52h3v1H248zM252 52h3v1H252zM256 52h3v1H256zM260 52h3v1H260zM264 52h3v1H264zM295 52h1v1H295zM0 53h1v1H0zM6 53h1v1H6zM36 53h1v1H36zM38 53h1v1H38zM40 53h1v1H40zM42 53h1v1H42zM44 53h1v1H44zM46 53h1v1H46zM48 53h1v1H48zM50 53h1v1H50zM52 53h1v1H52zM54 53h1v1H54zM56 53h1v1H56zM58 53h1v1H58zM60 53h1v1H60zM62 53h1v1H62zM64 53h1v1H64zM66 53h1v1H66zM68 53h1v1H68zM70 53h1v1H70zM72 53h1v1H72zM74 53h1v1H74zM76 53h1v1H76zM78 53h1v1H78zM80 53h1v1H80zM82 53h1v1H82zM84 53h1v1H84zM86 53h1v1H86zM88 53h1v1H88zM90 53h1v1H90zM92 53h1v1H92zM94 53h1v1H94zM96 53h1v1H96zM98 53h1v1H98zM100 53h1v1H100zM102 53h1v1H102zM104 53h1v1H104zM106 53h1v1H106zM108 53h1v1H108zM110 53h1v1H110zM112 53h1v1H112zM114 53h1v1H114zM116 53h1v1H116zM118 53h1v1H118zM120 53h1v1H120zM122 53h1v1H122zM124 53h1v1H124zM126 53h1v1H126zM128 53h1v1H128zM130 53h1v1H130zM132 53h1v1H132zM134 53h1v1H134zM136 53h1v1H136zM138 53h1v1H138zM140 53h1v1H140zM142 53h1v1H142zM144 53h1v1H144zM146 53h1v1H146zM148 53h1v1H148zM150 53h1v1H150zM152 53h1v1H152zM154 53h1v1H154zM156 53h1v1H156zM158 53h1v1H158zM160 53h1v1H160zM162 53h1v1H162zM164 53h1v1H164zM166 53h1v1H166zM168 53h1v1H168zM170 53h1v1H170zM172 53h1v1H172zM174 53h1v1H174zM176 53h1v1H176zM178 53h1v1H178zM180 53h1v1H180zM182 53h1v1H182zM184 53h1v1H184zM186 53h1v1H186zM188 53h1v1H188zM190 53h1v1H190zM192 53h1v1H192zM194 53h1v1H194zM196 53h1v1H196zM198 53h1v1H198zM200 53h1v1H200zM202 53h1v1H202zM204 53h1v1H204zM206 53h1v1H206zM208 53h1v1H208zM210 53h1v1H210zM212 53h1v1H212zM214 53h1v1H214zM216 53h1v1H216zM218 53h1v1H218zM220 53h1v1H220zM222 53h1v1H222zM224 53h1v1H224zM226 53h1v1H226zM228 53h1v1H228zM230 53h1v1H230zM232 53h1v1H232zM234 53h1v1H234zM236 53h1v1H236zM238 53h1v1H238zM240 53h1v1H240zM242 53h1v1H242zM244 53h1v1H244zM246 53h1v1H246zM248 53h1v1H248zM250 53h1v1H250zM252 53h1v1H252zM254 53h1v1H254zM256 53h1v1H256zM258 53h1v1H258zM260 53h1v1H260zM262 53h1v1H262zM264 53h1v1H264zM266 53h1v1H266zM295 53h1v1H295zM0 54h1v1H0zM6 54h3v1H6zM36 54h1v1H36zM38 54h1v1H38zM40 54h1v1H40zM42 54h1v1H42zM44 54h1v1H44zM46 54h1v1H46zM48 54h1v1H48zM50 54h1v1H50zM52 54h1v1H52zM54 54h1v1H54zM56 54h1v1H56zM58 54h1v1H58zM60 54h1v1H60zM62 54h1v1H62zM64 54h1v1H64zM66 54h1v1H66zM68 54h1v1H68zM70 54h1v1H70zM72 54h1v1H72zM74 54h1v1H74zM76 54h1v1H76zM78 54h1v1H78zM80 54h1v1H80zM82 54h1v1H82zM84 54h1v1H84zM86 54h1v1H86zM88 54h1v1H88zM90 54h1v1H90zM92 54h1v1H92zM94 54h1v1H94zM96 54h1v1H96zM98 54h1v1H98zM100 54h1v1H100zM102 54h1v1H102zM104 54h1v1H104zM106 54h1v1H106zM108 54h1v1H108zM110 54h1v1H110zM112 54h1v1H112zM114 54h1v1H114zM116 54h1v1H116zM118 54h1v1H118zM120 54h1v1H120zM122 54h1v1H122zM124 54h1v1H124zM126 54h1v1H126zM128 54h1v1H128zM130 54h1v1H130zM132 54h1v1H132zM134 54h1v1H134zM136 54h1v1H136zM138 54h1v1H138zM140 54h1v1H140zM142 54h1v1H142zM144 54h1v1H144zM146 54h1v1H146zM148 54h1v1H148zM150 54h1v1H150zM152 54h1v1H152zM154 54h1v1H154zM156 54h1v1H156zM158 54h1v1H158zM160 54h1v1H160zM162 54h1v1H162zM164 54h1v1H164zM166 54h1v1H166zM168 54h1v1H168zM170 54h1v1H170zM172 54h1v1H172zM174 54h1v1H174zM176 54h1v1H176zM178 54h1v1H178zM180 54h1v1H180zM182 54h1v1H182zM184 54h1v1H184zM186 54h1v1H186zM188 54h1v1H188zM190 54h1v1H190zM192 54h1v1H192zM194 54h1v1H194zM196 54h1v1H196zM198 54h1v1H198zM200 54h1v1H200zM202 54h1v1H202zM204 54h1v1H204zM206 54h1v1H206zM208 54h1v1H208zM210 54h1v1H210zM212 54h1v1H212zM214 54h1v1H214zM216 54h1v1H216zM218 54h1v1H218zM220 54h1v1H220zM222 54h1v1H222zM224 54h1v1H224zM226 54h1v1H226zM228 54h1v1H228zM230 54h1v1H230zM232 54h1v1H232zM234 54h1v1H234zM236 54h1v1H236zM238 54h1v1H238zM240 54h1v1H240zM242 54h1v1H242zM244 54h1v1H244zM246 54h1v1H246zM248 54h1v1H248zM250 54h1v1H250zM252 54h1v1H252zM254 54h1v1H254zM256 54h1v1H256zM258 54h1v1H258zM260 54h1v1H260zM262 54h1v1H262zM264 54h1v1H264zM266 54h1v1H266zM295 54h1v1H295zM0 55h1v1H0zM6 55h1v1H6zM36 55h1v1H36zM38 55h1v1H38zM40 55h1v1H40zM42 55h1v1H42zM44 55h1v1H44zM46 55h1v1H46zM48 55h1v1H48zM50 55h1v1H50zM52 55h1v1H52zM54 55h1v1H54zM56 55h1v1H56zM58 55h1v1H58zM60 55h1v1H60zM62 55h1v1H62zM64 55h1v1H64zM66 55h1v1H66zM68 55h1v1H68zM70 55h1v1H70zM72 55h1v1H72zM74 55h1v1H74zM76 55h1v1H76zM78 55h1v1H78zM80 55h1v1H80zM82 55h1v1H82zM84 55h1v1H84zM86 55h1v1H86zM88 55h1v1H88zM90 55h1v1H90zM92 55h1v1H92zM94 55h1v1H94zM96 55h1v1H96zM98 55h1v1H98zM100 55h1v1H100zM102 55h1v1H102zM104 55h1v1H104zM106 55h1v1H106zM108 55h1v1H108zM110 55h1v1H110zM112 55h1v1H112zM114 55h1v1H114zM116 55h1v1H116zM118 55h1v1H118zM120 55h1v1H120zM122 55h1v1H122zM124 55h1v1H124zM126 55h1v1H126zM128 55h1v1H128zM130 55h1v1H130zM132 55h1v1H132zM134 55h1v1H134zM136 55h1v1H136zM138 55h1v1H138zM140 55h1v1H140zM142 55h1v1H142zM144 55h1v1H144zM146 55h1v1H146zM148 55h1v1H148zM150 55h1v1H150zM152 55h1v1H152zM154 55h1v1H154zM156 55h1v1H156zM158 55h1v1H158zM160 55h1v1H160zM162 55h1v1H162zM164 55h1v1H164zM166 55h1v1H166zM168 55h1v1H168zM170 55h1v1H170zM172 55h1v1H172zM174 55h1v1H174zM176 55h1v1H176zM178 55h1v1H178zM180 55h1v1H180zM182 55h1v1H182zM184 55h1v1H184zM186 55h1v1H186zM188 55h1v1H188zM190 55h1v1H190zM192 55h1v1H192zM194 55h1v1H194zM196 55h1v1H196zM198 55h1v1H198zM200 55h1v1H200zM202 55h1v1H202zM204 55h1v1H204zM206 55h1v1H206zM208 55h1v1H208zM210 55h1v1H210zM212 55h1v1H212zM214 55h1v1H214zM216 55h1v1H216zM218 55h1v1H218zM220 55h1v1H220zM222 55h1v1H222zM224 55h1v1H224zM226 55h1v1H226zM228 55h1v1H228zM230 55h1v1H230zM232 55h1v1H232zM234 55h1v1H234zM236 55h1v1H236zM238 55h1v1H238zM240 55h1v1H240zM242 55h1v1H242zM244 55h1v1H244zM246 55h1v1H246zM248 55h1v1H248zM250 55h1v1H250zM252 55h1v1H252zM254 55h1v1H254zM256 55h1v1H256zM258 55h1v1H258zM260 55h1v1H260zM262 55h1v1H262zM264 55h1v1H264zM266 55h1v1H266zM295 55h1v1H295zM0 56h1v1H0zM6 56h3v1H6zM36 56h1v1H36zM38 56h1v1H38zM40 56h1v1H40zM42 56h1v1H42zM44 56h1v1H44zM46 56h1v1H46zM48 56h1v1H48zM50 56h1v1H50zM52 56h1v1H52zM54 56h1v1H54zM56 56h1v1H56zM58 56h1v1H58zM60 56h1v1H60zM62 56h1v1H62zM64 56h1v1H64zM66 56h1v1H66zM68 56h1v1H68zM70 56h1v1H70zM72 56h1v1H72zM74 56h1v1H74zM76 56h1v1H76zM78 56h1v1H78zM80 56h1v1H80zM82 56h1v1H82zM84 56h1v1H84zM86 56h1v1H86zM88 56h1v1H88zM90 56h1v1H90zM92 56h1v1H92zM94 56h1v1H94zM96 56h1v1H96zM98 56h1v1H98zM100 56h1v1H100zM102 56h1v1H102zM104 56h1v1H104zM106 56h1v1H106zM108 56h1v1H108zM110 56h1v1H110zM112 56h1v1H112zM114 56h1v1H114zM116 56h1v1H116zM118 56h1v1H118zM120 56h1v1H120zM122 56h1v1H122zM124 56h1v1H124zM126 56h1v1H126zM128 56h1v1H128zM130 56h1v1H130zM132 56h1v1H132zM134 56h1v1H134zM136 56h1v1H136zM138 56h1v1H138zM140 56h1v1H140zM142 56h1v1H142zM144 56h1v1H144zM146 56h1v1H146zM148 56h1v1H148zM150 56h1v1H150zM152 56h1v1H152zM154 56h1v1H154zM156 56h1v1H156zM158 56h1v1H158zM160 56h1v1H160zM162 56h1v1H162zM164 56h1v1H164zM166 56h1v1H166zM168 56h1v1H168zM170 56h1v1H170zM172 56h1v1H172zM174 56h1v1H174zM176 56h1v1H176zM178 56h1v1H178zM180 56h1v1H180zM182 56h1v1H182zM184 56h1v1H184zM186 56h1v1H186zM188 56h1v1H188zM190 56h1v1H190zM192 56h1v1H192zM194 56h1v1H194zM196 56h1v1H196zM198 56h1v1H198zM200 56h1v1H200zM202 56h1v1H202zM204 56h1v1H204zM206 56h1v1H206zM208 56h1v1H208zM210 56h1v1H210zM212 56h1v1H212zM214 56h1v1H214zM216 56h1v1H216zM218 56h1v1H218zM220 56h1v1H220zM222 56h1v1H222zM224 56h1v1H224zM226 56h1v1H226zM228 56h1v1H228zM230 56h1v1H230zM232 56h1v1H232zM234 56h1v1H234zM236 56h1v1H236zM238 56h1v1H238zM240 56h1v1H240zM242 56h1v1H242zM244 56h1v1H244zM246 56h1v1H246zM248 56h1v1H248zM250 56h1v1H250zM252 56h1v1H252zM254 56h1v1H254zM256 56h1v1H256zM258 56h1v1H258zM260 56h1v1H260zM262 56h1v1H262zM264 56h1v1H264zM266 56h1v1H266zM295 56h1v1H295zM0 57h1v1H0zM6 57h1v1H6zM36 57h1v1H36zM38 57h1v1H38zM40 57h1v1H40zM42 57h1v1H42zM44 57h1v1H44zM46 57h1v1H46zM48 57h1v1H48zM50 57h1v1H50zM52 57h1v1H52zM54 57h1v1H54zM56 57h1v1H56zM58 57h1v1H58zM60 57h1v1H60zM62 57h1v1H62zM64 57h1v1H64zM66 57h1v1H66zM68 57h1v1H68zM70 57h1v1H70zM72 57h1v1H72zM74 57h1v1H74zM76 57h1v1H76zM78 57h1v1H78zM80 57h1v1H80zM82 57h1v1H82zM84 57h1v1H84zM86 57h1v1H86zM88 57h1v1H88zM90 57h1v1H90zM92 57h1v1H92zM94 57h1v1H94zM96 57h1v1H96zM98 57h1v1H98zM100 57h1v1H100zM102 57h1v1H102zM104 57h1v1H104zM106 57h1v1H106zM108 57h1v1H108zM110 57h1v1H110zM112 57h1v1H112zM114 57h1v1H114zM116 57h1v1H116zM118 57h1v1H118zM120 57h1v1H120zM122 57h1v1H122zM124 57h1v1H124zM126 57h1v1H126zM128 57h1v1H128zM130 57h1v1H130zM132 57h1v1H132zM134 57h1v1H134zM136 57h1v1H136zM138 57h1v1H138zM140 57h1v1H140zM142 57h1v1H142zM144 57h1v1H144zM146 57h1v1H146zM148 57h1v1H148zM150 57h1v1H150zM152 57h1v1H152zM154 57h1v1H154zM156 57h1v1H156zM158 57h1v1H158zM160 57h1v1H160zM162 57h1v1H162zM164 57h1v1H164zM166 57h1v1H166zM168 57h1v1H168zM170 57h1v1H170zM172 57h1v1H172zM174 57h1v1H174zM176 57h1v1H176zM178 57h1v1H178zM180 57h1v1H180zM182 57h1v1H182zM184 57h1v1H184zM186 57h1v1H186zM188 57h1v1H188zM190 57h1v1H190zM192 57h1v1H192zM194 57h1v1H194zM196 57h1v1H196zM198 57h1v1H198zM200 57h1v1H200zM202 57h1v1H202zM204 57h1v1H204zM206 57h1v1H206zM208 57h1v1H208zM210 57h1v1H210zM212 57h1v1H212zM214 57h1v1H214zM216 57h1v1H216zM218 57h1v1H218zM220 57h1v1H220zM222 57h1v1H222zM224 57h1v1H224zM226 57h1v1H226zM228 57h1v1H228zM230 57h1v1H230zM232 57h1v1H232zM234 57h1v1H234zM236 57h1v1H236zM238 57h1v1H238zM240 57h1v1H240zM242 57h1v1H242zM244 57h1v1H244zM246 57h1v1H246zM248 57h1v1H248zM250 57h1v1H250zM252 57h1v1H252zM254 57h1v1H254zM256 57h1v1H256zM258 57h1v1H258zM260 57h1v1H260zM262 57h1v1H262zM264 57h1v1H264zM266 57h1v1H266zM295 57h1v1H295zM0 58h1v1H0zM7 58h3v1H7zM36 58h1v1H36zM38 58h1v1H38zM40 58h1v1H40zM42 58h1v1H42zM44 58h1v1H44zM46 58h1v1H46zM48 58h1v1H48zM50 58h1v1H50zM52 58h1v1H52zM54 58h1v1H54zM56 58h1v1H56zM58 58h1v1H58zM60 58h1v1H60zM62 58h1v1H62zM64 58h1v1H64zM66 58h1v1H66zM68 58h1v1H68zM70 58h1v1H70zM72 58h1v1H72zM74 58h1v1H74zM76 58h1v1H76zM78 58h1v1H78zM80 58h1v1H80zM82 58h1v1H82zM84 58h1v1H84zM86 58h1v1H86zM88 58h1v1H88zM90 58h1v1H90zM92 58h1v1H92zM94 58h1v1H94zM96 58h1v1H96zM98 58h1v1H98zM100 58h1v1H100zM102 58h1v1H102zM104 58h1v1H104zM106 58h1v1H106zM108 58h1v1H108zM110 58h1v1H110zM112 58h1v1H112zM114 58h1v1H114zM116 58h1v1H116zM118 58h1v1H118zM120 58h1v1H120zM122 58h1v1H122zM124 58h1v1H124zM126 58h1v1H126zM128 58h1v1H128zM130 58h1v1H130zM132 58h1v1H132zM134 58h1v1H134zM136 58h1v1H136zM138 58h1v1H138zM140 58h1v1H140zM142 58h1v1H142zM144 58h1v1H144zM146 58h1v1H146zM148 58h1v1H148zM150 58h1v1H150zM152 58h1v1H152zM154 58h1v1H154zM156 58h1v1H156zM158 58h1v1H158zM160 58h1v1H160zM162 58h1v1H162zM164 58h1v1H164zM166 58h1v1H166zM168 58h1v1H168zM170 58h1v1H170zM172 58h1v1H172zM174 58h1v1H174zM176 58h1v1H176zM178 58h1v1H178zM180 58h1v1H180zM182 58h1v1H182zM184 58h1v1H184zM186 58h1v1H186zM188 58h1v1H188zM190 58h1v1H190zM192 58h1v1H192zM194 58h1v1H194zM196 58h1v1H196zM198 58h1v1H198zM200 58h1v1H200zM202 58h1v1H202zM204 58h1v1H204zM206 58h1v1H206zM208 58h1v1H208zM210 58h1v1H210zM212 58h1v1H212zM214 58h1v1H214zM216 58h1v1H216zM218 58h1v1H218zM220 58h1v1H220zM222 58h1v1H222zM224 58h1v1H224zM226 58h1v1H226zM228 58h1v1H228zM230 58h1v1H230zM232 58h1v1H232zM234 58h1v1H234zM236 58h1v1H236zM238 58h1v1H238zM240 58h1v1H240zM242 58h1v1H242zM244 58h1v1H244zM246 58h1v1H246zM248 58h1v1H248zM250 58h1v1H250zM252 58h1v1H252zM254 58h1v1H254zM256 58h1v1H256zM258 58h1v1H258zM260 58h1v1H260zM262 58h1v1H262zM264 58h1v1H264zM266 58h1v1H266zM295 58h1v1H295zM0 59h1v1H0zM36 59h3v1H36zM40 59h3v1H40zM44 59h3v1H44zM48 59h3v1H48zM52 59h3v1H52zM56 59h3v1H56zM60 59h3v1H60zM64 59h3v1H64zM68 59h3v1H68zM72 59h3v1H72zM76 59h3v1H76zM80 59h3v1H80zM84 59h3v1H84zM88 59h3v1H88zM92 59h3v1H92zM96 59h3v1H96zM100 59h3v1H100zM104 59h3v1H104zM108 59h3v1H108zM112 59h3v1H112zM116 59h3v1H116zM120 59h3v1H120zM124 59h3v1H124zM128 59h3v1H128zM132 59h3v1H132zM136 59h3v1H136zM140 59h3v1H140zM144 59h3v1H144zM148 59h3v1H148zM152 59h3v1H152zM156 59h3v1H156zM160 59h3v1H160zM164 59h3v1H164zM168 59h3v1H168zM172 59h3v1H172zM176 59h3v1H176zM180 59h3v1H180zM184 59h3v1H184zM188 59h3v1H188zM192 59h3v1H192zM196 59h3v1H196zM200 59h3v1H200zM204 59h3v1H204zM208 59h3v1H208zM212 59h3v1H212zM216 59h3v1H216zM220 59h3v1H220zM224 59h3v1H224zM228 59h3v1H228zM232 59h3v1H232zM236 59h3v1H236zM240 59h3v1H240zM244 59h3v1H244zM248 59h3v1H248zM252 59h3v1H252zM256 59h3v1H256zM260 59h3v1H260zM264 59h3v1H264zM295 59h1v1H295zM0 60h1v1H0zM295 60h1v1H295zM0 61h1v1H0zM295 61h1v1H295zM0 62h1v1H0zM295 62h1v1H295zM0 63h1v1H0zM295 63h1v1H295zM0 64h1v1H0zM295 64h1v1H295zM0 65h1v1H0zM295 65h1v1H295zM0 66h1v1H0zM295 66h1v1H295zM0 67h1v1H0zM295 67h1v1H295zM0 68h1v1H0zM295 68h1v1H295zM0 69h1v1H0zM295 69h1v1H295zM0 70h1v1H0zM295 70h1v1H295zM0 71h1v1H0zM6 71h282v1H6zM295 71h1v1H295zM0 72h1v1H0zM295 72h1v1H295zM0 73h1v1H0zM295 73h1v1H295zM0 74h1v1H0zM295 74h1v1H295zM0 75h1v1H0zM295 75h1v1H295zM0 76h1v1H0zM8 76h3v1H8zM18 76h3v1H18zM24 76h3v1H24zM29 76h3v1H29zM35 76h5v1H35zM41 76h1v1H41zM45 76h1v1H45zM224 76h7v1H224zM236 76h1v1H236zM240 76h1v1H240zM247 76h3v1H247zM253 76h3v1H253zM264 76h5v1H264zM274 76h1v1H274zM278 76h1v1H278zM282 76h5v1H282zM288 76h1v1H288zM295 76h1v1H295zM0 77h1v1H0zM7 77h1v1H7zM11 77h1v1H11zM17 77h1v1H17zM21 77h1v1H21zM23 77h1v1H23zM27 77h1v1H27zM29 77h1v1H29zM32 77h1v1H32zM35 77h1v1H35zM41 77h1v1H41zM45 77h1v1H45zM225 77h5v1H225zM235 77h2v1H235zM240 77h1v1H240zM246 77h1v1H246zM250 77h1v1H250zM252 77h1v1H252zM256 77h1v1H256zM262 77h1v1H262zM267 77h1v1H267zM274 77h1v1H274zM277 77h2v1H277zM282 77h1v1H282zM288 77h1v1H288zM295 77h1v1H295zM0 78h1v1H0zM6 78h1v1H6zM12 78h1v1H12zM17 78h1v1H17zM23 78h1v1H23zM27 78h1v1H27zM29 78h1v1H29zM33 78h1v1H33zM35 78h1v1H35zM42 78h1v1H42zM44 78h1v1H44zM226 78h3v1H226zM236 78h1v1H236zM240 78h1v1H240zM242 78h2v1H242zM246 78h1v1H246zM249 78h2v1H249zM252 78h1v1H252zM255 78h2v1H255zM261 78h1v1H261zM266 78h1v1H266zM271 78h2v1H271zM274 78h1v1H274zM278 78h1v1H278zM282 78h4v1H282zM288 78h1v1H288zM290 78h2v1H290zM295 78h1v1H295zM0 79h1v1H0zM6 79h1v1H6zM12 79h1v1H12zM17 79h1v1H17zM23 79h1v1H23zM27 79h1v1H27zM29 79h1v1H29zM33 79h1v1H33zM35 79h4v1H35zM43 79h1v1H43zM227 79h1v1H227zM236 79h1v1H236zM240 79h2v1H240zM244 79h1v1H244zM246 79h1v1H246zM248 79h1v1H248zM250 79h1v1H250zM252 79h1v1H252zM254 79h1v1H254zM256 79h1v1H256zM260 79h1v1H260zM267 79h1v1H267zM270 79h1v1H270zM273 79h2v1H273zM278 79h1v1H278zM286 79h1v1H286zM288 79h2v1H288zM292 79h1v1H292zM295 79h1v1H295zM0 80h1v1H0zM6 80h1v1H6zM12 80h1v1H12zM17 80h1v1H17zM23 80h1v1H23zM27 80h1v1H27zM29 80h1v1H29zM33 80h1v1H33zM35 80h1v1H35zM42 80h1v1H42zM44 80h1v1H44zM226 80h3v1H226zM236 80h1v1H236zM240 80h1v1H240zM244 80h1v1H244zM246 80h2v1H246zM250 80h1v1H250zM252 80h2v1H252zM256 80h1v1H256zM259 80h1v1H259zM268 80h1v1H268zM270 80h1v1H270zM274 80h1v1H274zM278 80h1v1H278zM286 80h1v1H286zM288 80h1v1H288zM292 80h1v1H292zM295 80h1v1H295zM0 81h1v1H0zM7 81h1v1H7zM11 81h1v1H11zM17 81h1v1H17zM21 81h1v1H21zM23 81h1v1H23zM27 81h1v1H27zM29 81h1v1H29zM32 81h1v1H32zM35 81h1v1H35zM41 81h1v1H41zM45 81h1v1H45zM225 81h5v1H225zM236 81h1v1H236zM240 81h1v1H240zM244 81h1v1H244zM246 81h1v1H246zM250 81h1v1H250zM252 81h1v1H252zM256 81h1v1H256zM258 81h1v1H258zM264 81h1v1H264zM268 81h1v1H268zM270 81h1v1H270zM274 81h1v1H274zM278 81h1v1H278zM282 81h1v1H282zM286 81h1v1H286zM288 81h1v1H288zM292 81h1v1H292zM295 81h1v1H295zM0 82h1v1H0zM8 82h3v1H8zM18 82h3v1H18zM24 82h3v1H24zM29 82h3v1H29zM35 82h5v1H35zM41 82h1v1H41zM45 82h1v1H45zM224 82h7v1H224zM235 82h3v1H235zM240 82h1v1H240zM244 82h1v1H244zM247 82h3v1H247zM253 82h3v1H253zM265 82h3v1H265zM271 82h4v1H271zM277 82h3v1H277zM283 82h3v1H283zM288 82h1v1H288zM292 82h1v1H292zM295 82h1v1H295zM0 83h1v1H0zM295 83h1v1H295zM0 84h1v1H0zM295 84h1v1H295zM0 85h1v1H0zM295 85h1v1H295zM0 86h1v1H0zM295 86h1v1H295zM0 87h1v1H0zM6 87h5v1H6zM12 87h1v1H12zM16 87h1v1H16zM24 87h3v1H24zM28 87h3v1H28zM32 87h3v1H32zM36 87h3v1H36zM40 87h3v1H40zM44 87h3v1H44zM48 87h3v1H48zM52 87h3v1H52zM56 87h3v1H56zM60 87h3v1H60zM64 87h3v1H64zM68 87h3v1H68zM72 87h3v1H72zM76 87h3v1H76zM80 87h3v1H80zM84 87h3v1H84zM88 87h3v1H88zM92 87h3v1H92zM96 87h3v1H96zM100 87h3v1H100zM104 87h3v1H104zM108 87h3v1H108zM112 87h3v1H112zM116 87h3v1H116zM120 87h3v1H120zM124 87h3v1H124zM128 87h3v1H128zM132 87h3v1H132zM136 87h3v1H136zM140 87h3v1H140zM144 87h3v1H144zM148 87h3v1H148zM152 87h3v1H152zM156 87h3v1H156zM160 87h3v1H160zM164 87h3v1H164zM168 87h3v1H168zM172 87h3v1H172zM176 87h3v1H176zM180 87h3v1H180zM184 87h3v1H184zM188 87h3v1H188zM192 87h3v1H192zM196 87h3v1H196zM200 87h3v1H200zM204 87h3v1H204zM208 87h3v1H208zM212 87h3v1H212zM216 87h3v1H216zM220 87h3v1H220zM224 87h3v1H224zM228 87h3v1H228zM232 87h3v1H232zM236 87h3v1H236zM240 87h3v1H240zM244 87h3v1H244zM248 87h3v1H248zM252 87h3v1H252zM256 87h3v1H256zM260 87h3v1H260zM264 87h3v1H264zM276 87h5v1H276zM283 87h3v1H283zM288 87h2v1H288zM295 87h1v1H295zM0 88h1v1H0zM6 88h1v1H6zM12 88h1v1H12zM16 88h1v1H16zM24 88h3v1H24zM28 88h3v1H28zM32 88h3v1H32zM36 88h3v1H36zM40 88h3v1H40zM44 88h3v1H44zM48 88h3v1H48zM52 88h3v1H52zM56 88h3v1H56zM60 88h3v1H60zM64 88h3v1H64zM68 88h3v1H68zM72 88h3v1H72zM76 88h3v1H76zM80 88h3v1H80zM84 88h3v1H84zM88 88h3v1H88zM92 88h3v1H92zM96 88h3v1H96zM100 88h3v1H100zM104 88h1v1H104zM106 88h1v1H106zM108 88h1v1H108zM110 88h1v1H110zM112 88h1v1H112zM114 88h1v1H114zM116 88h1v1H116zM118 88h1v1H118zM120 88h1v1H120zM122 88h1v1H122zM124 88h1v1H124zM126 88h1v1H126zM128 88h1v1H128zM130 88h1v1H130zM132 88h1v1H132zM134 88h1v1H134zM136 88h1v1H136zM138 88h1v1H138zM140 88h1v1H140zM142 88h1v1H142zM144 88h1v1H144zM146 88h1v1H146zM148 88h1v1H148zM150 88h1v1H150zM152 88h1v1H152zM154 88h1v1H154zM156 88h1v1H156zM158 88h1v1H158zM160 88h1v1H160zM162 88h1v1H162zM164 88h1v1H164zM166 88h1v1H166zM168 88h1v1H168zM170 88h1v1H170zM172 88h1v1H172zM174 88h1v1H174zM176 88h1v1H176zM178 88h1v1H178zM180 88h1v1H180zM182 88h1v1H182zM184 88h1v1H184zM186 88h1v1H186zM188 88h1v1H188zM190 88h1v1H190zM192 88h1v1H192zM194 88h1v1H194zM196 88h1v1H196zM198 88h1v1H198zM200 88h1v1H200zM202 88h1v1H202zM204 88h1v1H204zM206 88h1v1H206zM208 88h1v1H208zM210 88h1v1H210zM212 88h1v1H212zM214 88h1v1H214zM216 88h1v1H216zM218 88h1v1H218zM220 88h1v1H220zM222 88h1v1H222zM224 88h1v1H224zM226 88h1v1H226zM228 88h1v1H228zM230 88h1v1H230zM232 88h1v1H232zM234 88h1v1H234zM236 88h1v1H236zM238 88h1v1H238zM240 88h1v1H240zM242 88h1v1H242zM244 88h1v1H244zM246 88h1v1H246zM248 88h1v1H248zM250 88h1v1H250zM252 88h1v1H252zM254 88h1v1H254zM256 88h1v1H256zM258 88h1v1H258zM260 88h1v1H260zM262 88h1v1H262zM264 88h1v1H264zM266 88h1v1H266zM279 88h1v1H279zM282 88h1v1H282zM286 88h1v1H286zM288 88h2v1H288zM292 88h1v1H292zM295 88h1v1H295zM0 89h1v1H0zM6 89h4v1H6zM12 89h1v1H12zM16 89h1v1H16zM24 89h3v1H24zM28 89h3v1H28zM32 89h3v1H32zM36 89h3v1H36zM40 89h3v1H40zM44 89h3v1H44zM48 89h3v1H48zM52 89h3v1H52zM56 89h3v1H56zM60 89h3v1H60zM64 89h3v1H64zM68 89h3v1H68zM72 89h3v1H72zM76 89h3v1H76zM80 89h3v1H80zM84 89h3v1H84zM88 89h3v1H88zM92 89h3v1H92zM96 89h3v1H96zM100 89h3v1H100zM104 89h1v1H104zM106 89h1v1H106zM108 89h1v1H108zM110 89h1v1H110zM112 89h1v1H112zM114 89h1v1H114zM116 89h1v1H116zM118 89h1v1H118zM120 89h1v1H120zM122 89h1v1H122zM124 89h1v1H124zM126 89h1v1H126zM128 89h1v1H128zM130 89h1v1H130zM132 89h1v1H132zM134 89h1v1H134zM136 89h1v1H136zM138 89h1v1H138zM140 89h1v1H140zM142 89h1v1H142zM144 89h1v1H144zM146 89h1v1H146zM148 89h1v1H148zM150 89h1v1H150zM152 89h1v1H152zM154 89h1v1H154zM156 89h1v1H156zM158 89h1v1H158zM160 89h1v1H160zM162 89h1v1H162zM164 89h1v1H164zM166 89h1v1H166zM168 89h1v1H168zM170 89h1v1H170zM172 89h1v1H172zM174 89h1v1H174zM176 89h1v1H176zM178 89h1v1H178zM180 89h1v1H180zM182 89h1v1H182zM184 89h1v1H184zM186 89h1v1H186zM188 89h1v1H188zM190 89h1v1H190zM192 89h1v1H192zM194 89h1v1H194zM196 89h1v1H196zM198 89h1v1H198zM200 89h1v1H200zM202 89h1v1H202zM204 89h1v1H204zM206 89h1v1H206zM208 89h1v1H208zM210 89h1v1H210zM212 89h1v1H212zM214 89h1v1H214zM216 89h1v1H216zM218 89h1v1H218zM220 89h1v1H220zM222 89h1v1H222zM224 89h1v1H224zM226 89h1v1H226zM228 89h1v1H228zM230 89h1v1H230zM232 89h1v1H232zM234 89h1v1H234zM236 89h1v1H236zM238 89h1v1H238zM240 89h1v1H240zM242 89h1v1H242zM244 89h1v1H244zM246 89h1v1H246zM248 89h1v1H248zM250 89h1v1H250zM252 89h1v1H252zM254 89h1v1H254zM256 89h1v1H256zM258 89h1v1H258zM260 89h1v1H260zM262 89h1v1H262zM264 89h1v1H264zM266 89h1v1H266zM278 89h1v1H278zM286 89h1v1H286zM291 89h1v1H291zM295 89h1v1H295zM0 90h1v1H0zM10 90h1v1H10zM12 90h5v1H12zM24 90h3v1H24zM28 90h3v1H28zM32 90h3v1H32zM36 90h3v1H36zM40 90h3v1H40zM44 90h3v1H44zM48 90h3v1H48zM52 90h3v1H52zM56 90h3v1H56zM60 90h3v1H60zM64 90h3v1H64zM68 90h3v1H68zM72 90h3v1H72zM76 90h3v1H76zM80 90h3v1H80zM84 90h1v1H84zM86 90h1v1H86zM88 90h1v1H88zM90 90h1v1H90zM92 90h1v1H92zM94 90h1v1H94zM96 90h1v1H96zM98 90h1v1H98zM100 90h1v1H100zM102 90h1v1H102zM104 90h1v1H104zM106 90h1v1H106zM108 90h1v1H108zM110 90h1v1H110zM112 90h1v1H112zM114 90h1v1H114zM116 90h1v1H116zM118 90h1v1H118zM120 90h1v1H120zM122 90h1v1H122zM124 90h1v1H124zM126 90h1v1H126zM128 90h1v1H128zM130 90h1v1H130zM132 90h1v1H132zM134 90h1v1H134zM136 90h1v1H136zM138 90h1v1H138zM140 90h1v1H140zM142 90h1v1H142zM144 90h1v1H144zM146 90h1v1H146zM148 90h1v1H148zM150 90h1v1H150zM152 90h1v1H152zM154 90h1v1H154zM156 90h1v1H156zM158 90h1v1H158zM160 90h1v1H160zM162 90h1v1H162zM164 90h1v1H164zM166 90h1v1H166zM168 90h1v1H168zM170 90h1v1H170zM172 90h1v1H172zM174 90h1v1H174zM176 90h1v1H176zM178 90h1v1H178zM180 90h1v1H180zM182 90h1v1H182zM184 90h1v1H184zM186 90h1v1H186zM188 90h1v1H188zM190 90h1v1H190zM192 90h1v1H192zM194 90h1v1H194zM196 90h1v1H196zM198 90h1v1H198zM200 90h1v1H200zM202 90h1v1H202zM204 90h1v1H204zM206 90h1v1H206zM208 90h1v1H208zM210 90h1v1H210zM212 90h1v1H212zM214 90h1v1H214zM216 90h1v1H216zM218 90h1v1H218zM220 90h1v1H220zM222 90h1v1H222zM224 90h1v1H224zM226 90h1v1H226zM228 90h1v1H228zM230 90h1v1H230zM232 90h1v1H232zM234 90h1v1H234zM236 90h1v1H236zM238 90h1v1H238zM240 90h1v1H240zM242 90h1v1H242zM244 90h1v1H244zM246 90h1v1H246zM248 90h1v1H248zM250 90h1v1H250zM252 90h1v1H252zM254 90h1v1H254zM256 90h1v1H256zM258 90h1v1H258zM260 90h1v1H260zM262 90h1v1H262zM264 90h1v1H264zM266 90h1v1H266zM279 90h1v1H279zM285 90h1v1H285zM290 90h1v1H290zM295 90h1v1H295zM0 91h1v1H0zM10 91h1v1H10zM12 91h1v1H12zM16 91h1v1H16zM24 91h3v1H24zM28 91h3v1H28zM32 91h3v1H32zM36 91h3v1H36zM40 91h3v1H40zM44 91h3v1H44zM48 91h3v1H48zM52 91h3v1H52zM56 91h3v1H56zM60 91h3v1H60zM64 91h3v1H64zM68 91h3v1H68zM72 91h3v1H72zM76 91h3v1H76zM80 91h3v1H80zM84 91h1v1H84zM86 91h1v1H86zM88 91h1v1H88zM90 91h1v1H90zM92 91h1v1H92zM94 91h1v1H94zM96 91h1v1H96zM98 91h1v1H98zM100 91h1v1H100zM102 91h1v1H102zM104 91h1v1H104zM106 91h1v1H106zM108 91h1v1H108zM110 91h1v1H110zM112 91h1v1H112zM114 91h1v1H114zM116 91h1v1H116zM118 91h1v1H118zM120 91h1v1H120zM122 91h1v1H122zM124 91h1v1H124zM126 91h1v1H126zM128 91h1v1H128zM130 91h1v1H130zM132 91h1v1H132zM134 91h1v1H134zM136 91h1v1H136zM138 91h1v1H138zM140 91h1v1H140zM142 91h1v1H142zM144 91h1v1H144zM146 91h1v1H146zM148 91h1v1H148zM150 91h1v1H150zM152 91h1v1H152zM154 91h1v1H154zM156 91h1v1H156zM158 91h1v1H158zM160 91h1v1H160zM162 91h1v1H162zM164 91h1v1H164zM166 91h1v1H166zM168 91h1v1H168zM170 91h1v1H170zM172 91h1v1H172zM174 91h1v1H174zM176 91h1v1H176zM178 91h1v1H178zM180 91h1v1H180zM182 91h1v1H182zM184 91h1v1H184zM186 91h1v1H186zM188 91h1v1H188zM190 91h1v1H190zM192 91h1v1H192zM194 91h1v1H194zM196 91h1v1H196zM198 91h1v1H198zM200 91h1v1H200zM202 91h1v1H202zM204 91h1v1H204zM206 91h1v1H206zM208 91h1v1H208zM210 91h1v1H210zM212 91h1v1H212zM214 91h1v1H214zM216 91h1v1H216zM218 91h1v1H218zM220 91h1v1H220zM222 91h1v1H222zM224 91h1v1H224zM226 91h1v1H226zM228 91h1v1H228zM230 91h1v1H230zM232 91h1v1H232zM234 91h1v1H234zM236 91h1v1H236zM238 91h1v1H238zM240 91h1v1H240zM242 91h1v1H242zM244 91h1v1H244zM246 91h1v1H246zM248 91h1v1H248zM250 91h1v1H250zM252 91h1v1H252zM254 91h1v1H254zM256 91h1v1H256zM258 91h1v1H258zM260 91h1v1H260zM262 91h1v1H262zM264 91h1v1H264zM266 91h1v1H266zM280 91h1v1H280zM284 91h1v1H284zM289 91h1v1H289zM295 91h1v1H295zM0 92h1v1H0zM6 92h1v1H6zM10 92h1v1H10zM12 92h1v1H12zM16 92h1v1H16zM24 92h3v1H24zM28 92h3v1H28zM32 92h3v1H32zM36 92h3v1H36zM40 92h3v1H40zM44 92h3v1H44zM48 92h3v1H48zM52 92h3v1H52zM56 92h3v1H56zM60 92h3v1H60zM64 92h3v1H64zM68 92h3v1H68zM72 92h3v1H72zM76 92h3v1H76zM80 92h3v1H80zM84 92h3v1H84zM88 92h3v1H88zM92 92h3v1H92zM96 92h3v1H96zM100 92h3v1H100zM104 92h1v1H104zM106 92h1v1H106zM108 92h1v1H108zM110 92h1v1H110zM112 92h1v1H112zM114 92h1v1H114zM116 92h1v1H116zM118 92h1v1H118zM120 92h1v1H120zM122 92h1v1H122zM124 92h1v1H124zM126 92h1v1H126zM128 92h1v1H128zM130 92h1v1H130zM132 92h1v1H132zM134 92h1v1H134zM136 92h1v1H136zM138 92h1v1H138zM140 92h1v1H140zM142 92h1v1H142zM144 92h1v1H144zM146 92h1v1H146zM148 92h1v1H148zM150 92h1v1H150zM152 92h1v1H152zM154 92h1v1H154zM156 92h1v1H156zM158 92h1v1H158zM160 92h1v1H160zM162 92h1v1H162zM164 92h1v1H164zM166 92h1v1H166zM168 92h1v1H168zM170 92h1v1H170zM172 92h1v1H172zM174 92h1v1H174zM176 92h1v1H176zM178 92h1v1H178zM180 92h1v1H180zM182 92h1v1H182zM184 92h1v1H184zM186 92h1v1H186zM188 92h1v1H188zM190 92h1v1H190zM192 92h1v1H192zM194 92h1v1H194zM196 92h1v1H196zM198 92h1v1H198zM200 92h1v1H200zM202 92h1v1H202zM204 92h1v1H204zM206 92h1v1H206zM208 92h1v1H208zM210 92h1v1H210zM212 92h1v1H212zM214 92h1v1H214zM216 92h1v1H216zM218 92h1v1H218zM220 92h1v1H220zM222 92h1v1H222zM224 92h1v1H224zM226 92h1v1H226zM228 92h1v1H228zM230 92h1v1H230zM232 92h1v1H232zM234 92h1v1H234zM236 92h1v1H236zM238 92h1v1H238zM240 92h1v1H240zM242 92h1v1H242zM244 92h1v1H244zM246 92h1v1H246zM248 92h1v1H248zM250 92h1v1H250zM252 92h1v1H252zM254 92h1v1H254zM256 92h1v1H256zM258 92h1v1H258zM260 92h1v1H260zM262 92h1v1H262zM264 92h1v1H264zM266 92h1v1H266zM276 92h1v1H276zM280 92h1v1H280zM283 92h1v1H283zM288 92h1v1H288zM291 92h2v1H291zM295 92h1v1H295zM0 93h1v1H0zM7 93h3v1H7zM12 93h1v1H12zM16 93h1v1H16zM24 93h3v1H24zM28 93h3v1H28zM32 93h3v1H32zM36 93h3v1H36zM40 93h3v1H40zM44 93h3v1H44zM48 93h3v1H48zM52 93h3v1H52zM56 93h3v1H56zM60 93h3v1H60zM64 93h3v1H64zM68 93h3v1H68zM72 93h3v1H72zM76 93h3v1H76zM80 93h3v1H80zM84 93h3v1H84zM88 93h3v1H88zM92 93h3v1H92zM96 93h3v1H96zM100 93h3v1H100zM104 93h1v1H104zM106 93h1v1H106zM108 93h1v1H108zM110 93h1v1H110zM112 93h1v1H112zM114 93h1v1H114zM116 93h1v1H116zM118 93h1v1H118zM120 93h1v1H120zM122 93h1v1H122zM124 93h1v1H124zM126 93h1v1H126zM128 93h1v1H128zM130 93h1v1H130zM132 93h1v1H132zM134 93h1v1H134zM136 93h1v1H136zM138 93h1v1H138zM140 93h1v1H140zM142 93h1v1H142zM144 93h1v1H144zM146 93h1v1H146zM148 93h1v1H148zM150 93h1v1H150zM152 93h1v1H152zM154 93h1v1H154zM156 93h1v1H156zM158 93h1v1H158zM160 93h1v1H160zM162 93h1v1H162zM164 93h1v1H164zM166 93h1v1H166zM168 93h1v1H168zM170 93h1v1H170zM172 93h1v1H172zM174 93h1v1H174zM176 93h1v1H176zM178 93h1v1H178zM180 93h1v1H180zM182 93h1v1H182zM184 93h1v1H184zM186 93h1v1H186zM188 93h1v1H188zM190 93h1v1H190zM192 93h1v1H192zM194 93h1v1H194zM196 93h1v1H196zM198 93h1v1H198zM200 93h1v1H200zM202 93h1v1H202zM204 93h1v1H204zM206 93h1v1H206zM208 93h1v1H208zM210 93h1v1H210zM212 93h1v1H212zM214 93h1v1H214zM216 93h1v1H216zM218 93h1v1H218zM220 93h1v1H220zM222 93h1v1H222zM224 93h1v1H224zM226 93h1v1H226zM228 93h1v1H228zM230 93h1v1H230zM232 93h1v1H232zM234 93h1v1H234zM236 93h1v1H236zM238 93h1v1H238zM240 93h1v1H240zM242 93h1v1H242zM244 93h1v1H244zM246 93h1v1H246zM248 93h1v1H248zM250 93h1v1H250zM252 93h1v1H252zM254 93h1v1H254zM256 93h1v1H256zM258 93h1v1H258zM260 93h1v1H260zM262 93h1v1H262zM264 93h1v1H264zM266 93h1v1H266zM277 93h3v1H277zM282 93h5v1H282zM291 93h2v1H291zM295 93h1v1H295zM0 94h1v1H0zM24 94h3v1H24zM28 94h3v1H28zM32 94h3v1H32zM36 94h3v1H36zM40 94h3v1H40zM44 94h3v1H44zM48 94h3v1H48zM52 94h3v1H52zM56 94h3v1H56zM60 94h3v1H60zM64 94h3v1H64zM68 94h3v1H68zM72 94h3v1H72zM76 94h3v1H76zM80 94h3v1H80zM84 94h3v1H84zM88 94h3v1H88zM92 94h3v1H92zM96 94h3v1H96zM100 94h3v1H100zM104 94h3v1H104zM108 94h3v1H108zM112 94h3v1H112zM116 94h3v1H116zM120 94h3v1H120zM124 94h3v1H124zM128 94h3v1H128zM132 94h3v1H132zM136 94h3v1H136zM140 94h3v1H140zM144 94h3v1H144zM148 94h3v1H148zM152 94h3v1H152zM156 94h3v1H156zM160 94h3v1H160zM164 94h3v1H164zM168 94h3v1H168zM172 94h3v1H172zM176 94h3v1H176zM180 94h3v1H180zM184 94h3v1H184zM188 94h3v1H188zM192 94h3v1H192zM196 94h3v1H196zM200 94h3v1H200zM204 94h3v1H204zM208 94h3v1H208zM212 94h3v1H212zM216 94h3v1H216zM220 94h3v1H220zM224 94h3v1H224zM228 94h3v1H228zM232 94h3v1H232zM236 94h3v1H236zM240 94h3v1H240zM244 94h3v1H244zM248 94h3v1H248zM252 94h3v1H252zM256 94h3v1H256zM260 94h3v1H260zM264 94h3v1H264zM295 94h1v1H295zM0 95h1v1H0zM295 95h1v1H295zM0 96h1v1H0zM295 96h1v1H295zM0 97h1v1H0zM295 97h1v1H295zM0 98h1v1H0zM6 98h5v1H6zM12 98h3v1H12zM24 98h3v1H24zM28 98h3v1H28zM32 98h3v1H32zM36 98h3v1H36zM40 98h3v1H40zM44 98h3v1H44zM48 98h3v1H48zM52 98h3v1H52zM56 98h3v1H56zM60 98h3v1H60zM64 98h3v1H64zM68 98h3v1H68zM72 98h3v1H72zM76 98h3v1H76zM80 98h3v1H80zM84 98h3v1H84zM88 98h3v1H88zM92 98h3v1H92zM96 98h3v1H96zM100 98h3v1H100zM104 98h3v1H104zM108 98h3v1H108zM112 98h3v1H112zM116 98h3v1H116zM120 98h3v1H120zM124 98h3v1H124zM128 98h3v1H128zM132 98h3v1H132zM136 98h3v1H136zM140 98h3v1H140zM144 98h3v1H144zM148 98h3v1H148zM152 98h3v1H152zM156 98h3v1H156zM160 98h3v1H160zM164 98h3v1H164zM168 98h3v1H168zM172 98h3v1H172zM176 98h3v1H176zM180 98h3v1H180zM184 98h3v1H184zM188 98h3v1H188zM192 98h3v1H192zM196 98h3v1H196zM200 98h3v1H200zM204 98h3v1H204zM208 98h3v1H208zM212 98h3v1H212zM216 98h3v1H216zM220 98h3v1H220zM224 98h3v1H224zM228 98h3v1H228zM232 98h3v1H232zM236 98h3v1H236zM240 98h3v1H240zM244 98h3v1H244zM248 98h3v1H248zM252 98h3v1H252zM256 98h3v1H256zM260 98h3v1H260zM264 98h3v1H264zM276 98h5v1H276zM283 98h3v1H283zM288 98h2v1H288zM295 98h1v1H295zM0 99h1v1H0zM10 99h1v1H10zM12 99h1v1H12zM15 99h1v1H15zM24 99h3v1H24zM28 99h3v1H28zM32 99h3v1H32zM36 99h3v1H36zM40 99h3v1H40zM44 99h3v1H44zM48 99h3v1H48zM52 99h3v1H52zM56 99h3v1H56zM60 99h3v1H60zM64 99h3v1H64zM68 99h3v1H68zM72 99h3v1H72zM76 99h3v1H76zM80 99h3v1H80zM84 99h3v1H84zM88 99h3v1H88zM92 99h3v1H92zM96 99h3v1H96zM100 99h3v1H100zM104 99h3v1H104zM108 99h3v1H108zM112 99h3v1H112zM116 99h1v1H116zM118 99h1v1H118zM120 99h1v1H120zM122 99h1v1H122zM124 99h1v1H124zM126 99h1v1H126zM128 99h1v1H128zM130 99h1v1H130zM132 99h1v1H132zM134 99h1v1H134zM136 99h1v1H136zM138 99h1v1H138zM140 99h1v1H140zM142 99h1v1H142zM144 99h1v1H144zM146 99h1v1H146zM148 99h1v1H148zM150 99h1v1H150zM152 99h1v1H152zM154 99h1v1H154zM156 99h1v1H156zM158 99h1v1H158zM160 99h1v1H160zM162 99h1v1H162zM164 99h1v1H164zM166 99h1v1H166zM168 99h1v1H168zM170 99h1v1H170zM172 99h1v1H172zM174 99h1v1H174zM176 99h1v1H176zM178 99h1v1H178zM180 99h1v1H180zM182 99h1v1H182zM184 99h1v1H184zM186 99h1v1H186zM188 99h1v1H188zM190 99h1v1H190zM192 99h1v1H192zM194 99h1v1H194zM196 99h1v1H196zM198 99h1v1H198zM200 99h1v1H200zM202 99h1v1H202zM204 99h1v1H204zM206 99h1v1H206zM208 99h1v1H208zM210 99h1v1H210zM212 99h1v1H212zM214 99h1v1H214zM216 99h1v1H216zM218 99h1v1H218zM220 99h1v1H220zM222 99h1v1H222zM224 99h1v1H224zM226 99h1v1H226zM228 99h1v1H228zM230 99h1v1H230zM232 99h1v1H232zM234 99h1v1H234zM236 99h1v1H236zM238 99h1v1H238zM240 99h1v1H240zM242 99h1v1H242zM244 99h1v1H244zM246 99h1v1H246zM248 99h1v1H248zM250 99h1v1H250zM252 99h1v1H252zM254 99h1v1H254zM256 99h1v1H256zM258 99h1v1H258zM260 99h1v1H260zM262 99h1v1H262zM264 99h1v1H264zM266 99h1v1H266zM279 99h1v1H279zM282 99h1v1H282zM286 99h1v1H286zM288 99h2v1H288zM292 99h1v1H292zM295 99h1v1H295zM0 100h1v1H0zM9 100h1v1H9zM12 100h1v1H12zM16 100h1v1H16zM24 100h3v1H24zM28 100h3v1H28zM32 100h3v1H32zM36 100h3v1H36zM40 100h3v1H40zM44 100h3v1H44zM48 100h3v1H48zM52 100h3v1H52zM56 100h3v1H56zM60 100h3v1H60zM64 100h3v1H64zM68 100h3v1H68zM72 100h3v1H72zM76 100h3v1H76zM80 100h3v1H80zM84 100h3v1H84zM88 100h3v1H88zM92 100h3v1H92zM96 100h3v1H96zM100 100h3v1H100zM104 100h3v1H104zM108 100h3v1H108zM112 100h3v1H112zM116 100h1v1H116zM118 100h1v1H118zM120 100h1v1H120zM122 100h1v1H122zM124 100h1v1H124zM126 100h1v1H126zM128 100h1v1H128zM130 100h1v1H130zM132 100h1v1H132zM134 100h1v1H134zM136 100h1v1H136zM138 100h1v1H138zM140 100h1v1H140zM142 100h1v1H142zM144 100h1v1H144zM146 100h1v1H146zM148 100h1v1H148zM150 100h1v1H150zM152 100h1v1H152zM154 100h1v1H154zM156 100h1v1H156zM158 100h1v1H158zM160 100h1v1H160zM162 100h1v1H162zM164 100h1v1H164zM166 100h1v1H166zM168 100h1v1H168zM170 100h1v1H170zM172 100h1v1H172zM174 100h1v1H174zM176 100h1v1H176zM178 100h1v1H178zM180 100h1v1H180zM182 100h1v1H182zM184 100h1v1H184zM186 100h1v1H186zM188 100h1v1H188zM190 100h1v1H190zM192 100h1v1H192zM194 100h1v1H194zM196 100h1v1H196zM198 100h1v1H198zM200 100h1v1H200zM202 100h1v1H202zM204 100h1v1H204zM206 100h1v1H206zM208 100h1v1H208zM210 100h1v1H210zM212 100h1v1H212zM214 100h1v1H214zM216 100h1v1H216zM218 100h1v1H218zM220 100h1v1H220zM222 100h1v1H222zM224 100h1v1H224zM226 100h1v1H226zM228 100h1v1H228zM230 100h1v1H230zM232 100h1v1H232zM234 100h1v1H234zM236 100h1v1H236zM238 100h1v1H238zM240 100h1v1H240zM242 100h1v1H242zM244 100h1v1H244zM246 100h1v1H246zM248 100h1v1H248zM250 100h1v1H250zM252 100h1v1H252zM254 100h1v1H254zM256 100h1v1H256zM258 100h1v1H258zM260 100h1v1H260zM262 100h1v1H262zM264 100h1v1H264zM266 100h1v1H266zM278 100h1v1H278zM282 100h1v1H282zM286 100h1v1H286zM291 100h1v1H291zM295 100h1v1H295zM0 101h1v1H0zM8 101h1v1H8zM12 101h1v1H12zM16 101h1v1H16zM24 101h3v1H24zM28 101h3v1H28zM32 101h3v1H32zM36 101h3v1H36zM40 101h3v1H40zM44 101h3v1H44zM48 101h3v1H48zM52 101h3v1H52zM56 101h3v1H56zM60 101h3v1H60zM64 101h3v1H64zM68 101h3v1H68zM72 101h3v1H72zM76 101h3v1H76zM80 101h3v1H80zM84 101h3v1H84zM88 101h3v1H88zM92 101h3v1H92zM96 101h3v1H96zM100 101h3v1H100zM104 101h1v1H104zM106 101h1v1H106zM108 101h1v1H108zM110 101h1v1H110zM112 101h1v1H112zM114 101h1v1H114zM116 101h1v1H116zM118 101h1v1H118zM120 101h1v1H120zM122 101h1v1H122zM124 101h1v1H124zM126 101h1v1H126zM128 101h1v1H128zM130 101h1v1H130zM132 101h1v1H132zM134 101h1v1H134zM136 101h1v1H136zM138 101h1v1H138zM140 101h1v1H140zM142 101h1v1H142zM144 101h1v1H144zM146 101h1v1H146zM148 101h1v1H148zM150 101h1v1H150zM152 101h1v1H152zM154 101h1v1H154zM156 101h1v1H156zM158 101h1v1H158zM160 101h1v1H160zM162 101h1v1H162zM164 101h1v1H164zM166 101h1v1H166zM168 101h1v1H168zM170 101h1v1H170zM172 101h1v1H172zM174 101h1v1H174zM176 101h1v1H176zM178 101h1v1H178zM180 101h1v1H180zM182 101h1v1H182zM184 101h1v1H184zM186 101h1v1H186zM188 101h1v1H188zM190 101h1v1H190zM192 101h1v1H192zM194 101h1v1H194zM196 101h1v1H196zM198 101h1v1H198zM200 101h1v1H200zM202 101h1v1H202zM204 101h1v1H204zM206 101h1v1H206zM208 101h1v1H208zM210 101h1v1H210zM212 101h1v1H212zM214 101h1v1H214zM216 101h1v1H216zM218 101h1v1H218zM220 101h1v1H220zM222 101h1v1H222zM224 101h1v1H224zM226 101h1v1H226zM228 101h1v1H228zM230 101h1v1H230zM232 101h1v1H232zM234 101h1v1H234zM236 101h1v1H236zM238 101h1v1H238zM240 101h1v1H240zM242 101h1v1H242zM244 101h1v1H244zM246 101h1v1H246zM248 101h1v1H248zM250 101h1v1H250zM252 101h1v1H252zM254 101h1v1H254zM256 101h1v1H256zM258 101h1v1H258zM260 101h1v1H260zM262 101h1v1H262zM264 101h1v1H264zM266 101h1v1H266zM279 101h1v1H279zM283 101h3v1H283zM290 101h1v1H290zM295 101h1v1H295zM0 102h1v1H0zM7 102h1v1H7zM12 102h1v1H12zM16 102h1v1H16zM24 102h3v1H24zM28 102h3v1H28zM32 102h3v1H32zM36 102h3v1H36zM40 102h3v1H40zM44 102h3v1H44zM48 102h3v1H48zM52 102h3v1H52zM56 102h3v1H56zM60 102h3v1H60zM64 102h3v1H64zM68 102h3v1H68zM72 102h3v1H72zM76 102h3v1H76zM80 102h3v1H80zM84 102h3v1H84zM88 102h3v1H88zM92 102h3v1H92zM96 102h3v1H96zM100 102h3v1H100zM104 102h1v1H104zM106 102h1v1H106zM108 102h1v1H108zM110 102h1v1H110zM112 102h1v1H112zM114 102h1v1H114zM116 102h1v1H116zM118 102h1v1H118zM120 102h1v1H120zM122 102h1v1H122zM124 102h1v1H124zM126 102h1v1H126zM128 102h1v1H128zM130 102h1v1H130zM132 102h1v1H132zM134 102h1v1H134zM136 102h1v1H136zM138 102h1v1H138zM140 102h1v1H140zM142 102h1v1H142zM144 102h1v1H144zM146 102h1v1H146zM148 102h1v1H148zM150 102h1v1H150zM152 102h1v1H152zM154 102h1v1H154zM156 102h1v1H156zM158 102h1v1H158zM160 102h1v1H160zM162 102h1v1H162zM164 102h1v1H164zM166 102h1v1H166zM168 102h1v1H168zM170 102h1v1H170zM172 102h1v1H172zM174 102h1v1H174zM176 102h1v1H176zM178 102h1v1H178zM180 102h1v1H180zM182 102h1v1H182zM184 102h1v1H184zM186 102h1v1H186zM188 102h1v1H188zM190 102h1v1H190zM192 102h1v1H192zM194 102h1v1H194zM196 102h1v1H196zM198 102h1v1H198zM200 102h1v1H200zM202 102h1v1H202zM204 102h1v1H204zM206 102h1v1H206zM208 102h1v1H208zM210 102h1v1H210zM212 102h1v1H212zM214 102h1v1H214zM216 102h1v1H216zM218 102h1v1H218zM220 102h1v1H220zM222 102h1v1H222zM224 102h1v1H224zM226 102h1v1H226zM228 102h1v1H228zM230 102h1v1H230zM232 102h1v1H232zM234 102h1v1H234zM236 102h1v1H236zM238 102h1v1H238zM240 102h1v1H240zM242 102h1v1H242zM244 102h1v1H244zM246 102h1v1H246zM248 102h1v1H248zM250 102h1v1H250zM252 102h1v1H252zM254 102h1v1H254zM256 102h1v1H256zM258 102h1v1H258zM260 102h1v1H260zM262 102h1v1H262zM264 102h1v1H264zM266 102h1v1H266zM280 102h1v1H280zM282 102h1v1H282zM286 102h1v1H286zM289 102h1v1H289zM295 102h1v1H295zM0 103h1v1H0zM7 103h1v1H7zM12 103h1v1H12zM15 103h1v1H15zM24 103h3v1H24zM28 103h3v1H28zM32 103h3v1H32zM36 103h3v1H36zM40 103h3v1H40zM44 103h3v1H44zM48 103h3v1H48zM52 103h3v1H52zM56 103h3v1H56zM60 103h3v1H60zM64 103h3v1H64zM68 103h3v1H68zM72 103h3v1H72zM76 103h3v1H76zM80 103h3v1H80zM84 103h3v1H84zM88 103h3v1H88zM92 103h3v1H92zM96 103h3v1H96zM100 103h3v1H100zM104 103h3v1H104zM108 103h3v1H108zM112 103h3v1H112zM116 103h1v1H116zM118 103h1v1H118zM120 103h1v1H120zM122 103h1v1H122zM124 103h1v1H124zM126 103h1v1H126zM128 103h1v1H128zM130 103h1v1H130zM132 103h1v1H132zM134 103h1v1H134zM136 103h1v1H136zM138 103h1v1H138zM140 103h1v1H140zM142 103h1v1H142zM144 103h1v1H144zM146 103h1v1H146zM148 103h1v1H148zM150 103h1v1H150zM152 103h1v1H152zM154 103h1v1H154zM156 103h1v1H156zM158 103h1v1H158zM160 103h1v1H160zM162 103h1v1H162zM164 103h1v1H164zM166 103h1v1H166zM168 103h1v1H168zM170 103h1v1H170zM172 103h1v1H172zM174 103h1v1H174zM176 103h1v1H176zM178 103h1v1H178zM180 103h1v1H180zM182 103h1v1H182zM184 103h1v1H184zM186 103h1v1H186zM188 103h1v1H188zM190 103h1v1H190zM192 103h1v1H192zM194 103h1v1H194zM196 103h1v1H196zM198 103h1v1H198zM200 103h1v1H200zM202 103h1v1H202zM204 103h1v1H204zM206 103h1v1H206zM208 103h1v1H208zM210 103h1v1H210zM212 103h1v1H212zM214 103h1v1H214zM216 103h1v1H216zM218 103h1v1H218zM220 103h1v1H220zM222 103h1v1H222zM224 103h1v1H224zM226 103h1v1H226zM228 103h1v1H228zM230 103h1v1H230zM232 103h1v1H232zM234 103h1v1H234zM236 103h1v1H236zM238 103h1v1H238zM240 103h1v1H240zM242 103h1v1H242zM244 103h1v1H244zM246 103h1v1H246zM248 103h1v1H248zM250 103h1v1H250zM252 103h1v1H252zM254 103h1v1H254zM256 103h1v1H256zM258 103h1v1H258zM260 103h1v1H260zM262 103h1v1H262zM264 103h1v1H264zM266 103h1v1H266zM276 103h1v1H276zM280 103h1v1H280zM282 103h1v1H282zM286 103h1v1H286zM288 103h1v1H288zM291 103h2v1H291zM295 103h1v1H295zM0 104h1v1H0zM7 104h1v1H7zM12 104h3v1H12zM24 104h3v1H24zM28 104h3v1H28zM32 104h3v1H32zM36 104h3v1H36zM40 104h3v1H40zM44 104h3v1H44zM48 104h3v1H48zM52 104h3v1H52zM56 104h3v1H56zM60 104h3v1H60zM64 104h3v1H64zM68 104h3v1H68zM72 104h3v1H72zM76 104h3v1H76zM80 104h3v1H80zM84 104h3v1H84zM88 104h3v1H88zM92 104h3v1H92zM96 104h3v1H96zM100 104h3v1H100zM104 104h3v1H104zM108 104h3v1H108zM112 104h3v1H112zM116 104h1v1H116zM118 104h1v1H118zM120 104h1v1H120zM122 104h1v1H122zM124 104h1v1H124zM126 104h1v1H126zM128 104h1v1H128zM130 104h1v1H130zM132 104h1v1H132zM134 104h1v1H134zM136 104h1v1H136zM138 104h1v1H138zM140 104h1v1H140zM142 104h1v1H142zM144 104h1v1H144zM146 104h1v1H146zM148 104h1v1H148zM150 104h1v1H150zM152 104h1v1H152zM154 104h1v1H154zM156 104h1v1H156zM158 104h1v1H158zM160 104h1v1H160zM162 104h1v1H162zM164 104h1v1H164zM166 104h1v1H166zM168 104h1v1H168zM170 104h1v1H170zM172 104h1v1H172zM174 104h1v1H174zM176 104h1v1H176zM178 104h1v1H178zM180 104h1v1H180zM182 104h1v1H182zM184 104h1v1H184zM186 104h1v1H186zM188 104h1v1H188zM190 104h1v1H190zM192 104h1v1H192zM194 104h1v1H194zM196 104h1v1H196zM198 104h1v1H198zM200 104h1v1H200zM202 104h1v1H202zM204 104h1v1H204zM206 104h1v1H206zM208 104h1v1H208zM210 104h1v1H210zM212 104h1v1H212zM214 104h1v1H214zM216 104h1v1H216zM218 104h1v1H218zM220 104h1v1H220zM222 104h1v1H222zM224 104h1v1H224zM226 104h1v1H226zM228 104h1v1H228zM230 104h1v1H230zM232 104h1v1H232zM234 104h1v1H234zM236 104h1v1H236zM238 104h1v1H238zM240 104h1v1H240zM242 104h1v1H242zM244 104h1v1H244zM246 104h1v1H246zM248 104h1v1H248zM250 104h1v1H250zM252 104h1v1H252zM254 104h1v1H254zM256 104h1v1H256zM258 104h1v1H258zM260 104h1v1H260zM262 104h1v1H262zM264 104h1v1H264zM266 104h1v1H266zM277 104h3v1H277zM283 104h3v1H283zM291 104h2v1H291zM295 104h1v1H295zM0 105h1v1H0zM24 105h3v1H24zM28 105h3v1H28zM32 105h3v1H32zM36 105h3v1H36zM40 105h3v1H40zM44 105h3v1H44zM48 105h3v1H48zM52 105h3v1H52zM56 105h3v1H56zM60 105h3v1H60zM64 105h3v1H64zM68 105h3v1H68zM72 105h3v1H72zM76 105h3v1H76zM80 105h3v1H80zM84 105h3v1H84zM88 105h3v1H88zM92 105h3v1H92zM96 105h3v1H96zM100 105h3v1H100zM104 105h3v1H104zM108 105h3v1H108zM112 105h3v1H112zM116 105h3v1H116zM120 105h3v1H120zM124 105h3v1H124zM128 105h3v1H128zM132 105h3v1H132zM136 105h3v1H136zM140 105h3v1H140zM144 105h3v1H144zM148 105h3v1H148zM152 105h3v1H152zM156 105h3v1H156zM160 105h3v1H160zM164 105h3v1H164zM168 105h3v1H168zM172 105h3v1H172zM176 105h3v1H176zM180 105h3v1H180zM184 105h3v1H184zM188 105h3v1H188zM192 105h3v1H192zM196 105h3v1H196zM200 105h3v1H200zM204 105h3v1H204zM208 105h3v1H208zM212 105h3v1H212zM216 105h3v1H216zM220 105h3v1H220zM224 105h3v1H224zM228 105h3v1H228zM232 105h3v1H232zM236 105h3v1H236zM240 105h3v1H240zM244 105h3v1H244zM248 105h3v1H248zM252 105h3v1H252zM256 105h3v1H256zM260 105h3v1H260zM264 105h3v1H264zM295 105h1v1H295zM0 106h1v1H0zM295 106h1v1H295zM0 107h1v1H0zM148 107h3v1H148zM295 107h1v1H295zM0 108h1v1H0zM295 108h1v1H295zM0 109h1v1H0zM8 109h1v1H8zM32 109h3v1H32zM36 109h3v1H36zM40 109h3v1H40zM44 109h3v1H44zM48 109h3v1H48zM52 109h3v1H52zM56 109h3v1H56zM60 109h3v1H60zM64 109h3v1H64zM68 109h3v1H68zM72 109h3v1H72zM76 109h3v1H76zM80 109h3v1H80zM84 109h3v1H84zM88 109h3v1H88zM92 109h3v1H92zM96 109h3v1H96zM100 109h3v1H100zM104 109h3v1H104zM108 109h3v1H108zM112 109h3v1H112zM116 109h3v1H116zM120 109h3v1H120zM124 109h3v1H124zM128 109h3v1H128zM132 109h3v1H132zM136 109h3v1H136zM140 109h3v1H140zM144 109h3v1H144zM148 109h3v1H148zM152 109h3v1H152zM156 109h3v1H156zM160 109h3v1H160zM164 109h3v1H164zM168 109h3v1H168zM172 109h3v1H172zM176 109h3v1H176zM180 109h3v1H180zM184 109h3v1H184zM188 109h3v1H188zM192 109h3v1H192zM196 109h3v1H196zM200 109h3v1H200zM204 109h3v1H204zM208 109h3v1H208zM212 109h3v1H212zM216 109h3v1H216zM220 109h3v1H220zM224 109h3v1H224zM228 109h3v1H228zM232 109h3v1H232zM236 109h3v1H236zM240 109h3v1H240zM244 109h3v1H244zM248 109h3v1H248zM252 109h3v1H252zM256 109h3v1H256zM260 109h3v1H260zM264 109h3v1H264zM295 109h1v1H295zM0 110h1v1H0zM7 110h4v1H7zM32 110h1v1H32zM34 110h1v1H34zM36 110h1v1H36zM38 110h1v1H38zM40 110h1v1H40zM42 110h1v1H42zM44 110h1v1H44zM46 110h1v1H46zM48 110h1v1H48zM50 110h1v1H50zM52 110h1v1H52zM54 110h1v1H54zM56 110h1v1H56zM58 110h1v1H58zM60 110h1v1H60zM62 110h1v1H62zM64 110h1v1H64zM66 110h1v1H66zM68 110h1v1H68zM70 110h1v1H70zM72 110h1v1H72zM74 110h1v1H74zM76 110h1v1H76zM78 110h1v1H78zM80 110h1v1H80zM82 110h1v1H82zM84 110h1v1H84zM86 110h1v1H86zM88 110h1v1H88zM90 110h1v1H90zM92 110h1v1H92zM94 110h1v1H94zM96 110h1v1H96zM98 110h1v1H98zM100 110h1v1H100zM102 110h1v1H102zM104 110h1v1H104zM106 110h1v1H106zM108 110h1v1H108zM110 110h1v1H110zM112 110h1v1H112zM114 110h1v1H114zM116 110h1v1H116zM118 110h1v1H118zM120 110h1v1H120zM122 110h1v1H122zM124 110h1v1H124zM126 110h1v1H126zM128 110h1v1H128zM130 110h1v1H130zM132 110h1v1H132zM134 110h1v1H134zM136 110h1v1H136zM138 110h1v1H138zM140 110h1v1H140zM142 110h1v1H142zM144 110h1v1H144zM146 110h1v1H146zM148 110h1v1H148zM150 110h1v1H150zM152 110h1v1H152zM154 110h1v1H154zM156 110h1v1H156zM158 110h1v1H158zM160 110h1v1H160zM162 110h1v1H162zM164 110h1v1H164zM166 110h1v1H166zM168 110h1v1H168zM170 110h1v1H170zM172 110h1v1H172zM174 110h1v1H174zM176 110h1v1H176zM178 110h1v1H178zM180 110h1v1H180zM182 110h1v1H182zM184 110h1v1H184zM186 110h1v1H186zM188 110h1v1H188zM190 110h1v1H190zM192 110h1v1H192zM194 110h1v1H194zM196 110h1v1H196zM198 110h1v1H198zM200 110h1v1H200zM202 110h1v1H202zM204 110h1v1H204zM206 110h1v1H206zM208 110h1v1H208zM210 110h1v1H210zM212 110h1v1H212zM214 110h1v1H214zM216 110h1v1H216zM218 110h1v1H218zM220 110h1v1H220zM222 110h1v1H222zM224 110h1v1H224zM226 110h1v1H226zM228 110h1v1H228zM230 110h1v1H230zM232 110h1v1H232zM234 110h1v1H234zM236 110h1v1H236zM238 110h1v1H238zM240 110h1v1H240zM242 110h1v1H242zM244 110h1v1H244zM246 110h1v1H246zM248 110h1v1H248zM250 110h1v1H250zM252 110h1v1H252zM254 110h1v1H254zM256 110h1v1H256zM258 110h1v1H258zM260 110h1v1H260zM262 110h1v1H262zM264 110h1v1H264zM266 110h1v1H266zM295 110h1v1H295zM0 111h1v1H0zM6 111h1v1H6zM8 111h1v1H8zM32 111h1v1H32zM34 111h1v1H34zM36 111h1v1H36zM38 111h1v1H38zM40 111h1v1H40zM42 111h1v1H42zM44 111h1v1H44zM46 111h1v1H46zM48 111h1v1H48zM50 111h1v1H50zM52 111h1v1H52zM54 111h1v1H54zM56 111h1v1H56zM58 111h1v1H58zM60 111h1v1H60zM62 111h1v1H62zM64 111h1v1H64zM66 111h1v1H66zM68 111h1v1H68zM70 111h1v1H70zM72 111h1v1H72zM74 111h1v1H74zM76 111h1v1H76zM78 111h1v1H78zM80 111h1v1H80zM82 111h1v1H82zM84 111h1v1H84zM86 111h1v1H86zM88 111h1v1H88zM90 111h1v1H90zM92 111h1v1H92zM94 111h1v1H94zM96 111h1v1H96zM98 111h1v1H98zM100 111h1v1H100zM102 111h1v1H102zM104 111h1v1H104zM106 111h1v1H106zM108 111h1v1H108zM110 111h1v1H110zM112 111h1v1H112zM114 111h1v1H114zM116 111h1v1H116zM118 111h1v1H118zM120 111h1v1H120zM122 111h1v1H122zM124 111h1v1H124zM126 111h1v1H126zM128 111h1v1H128zM130 111h1v1H130zM132 111h1v1H132zM134 111h1v1H134zM136 111h1v1H136zM138 111h1v1H138zM140 111h1v1H140zM142 111h1v1H142zM144 111h1v1H144zM146 111h1v1H146zM148 111h1v1H148zM150 111h1v1H150zM152 111h1v1H152zM154 111h1v1H154zM156 111h1v1H156zM158 111h1v1H158zM160 111h1v1H160zM162 111h1v1H162zM164 111h1v1H164zM166 111h1v1H166zM168 111h1v1H168zM170 111h1v1H170zM172 111h1v1H172zM174 111h1v1H174zM176 111h1v1H176zM178 111h1v1H178zM180 111h1v1H180zM182 111h1v1H182zM184 111h1v1H184zM186 111h1v1H186zM188 111h1v1H188zM190 111h1v1H190zM192 111h1v1H192zM194 111h1v1H194zM196 111h1v1H196zM198 111h1v1H198zM200 111h1v1H200zM202 111h1v1H202zM204 111h1v1H204zM206 111h1v1H206zM208 111h1v1H208zM210 111h1v1H210zM212 111h1v1H212zM214 111h1v1H214zM216 111h1v1H216zM218 111h1v1H218zM220 111h1v1H220zM222 111h1v1H222zM224 111h1v1H224zM226 111h1v1H226zM228 111h1v1H228zM230 111h1v1H230zM232 111h1v1H232zM234 111h1v1H234zM236 111h1v1H236zM238 111h1v1H238zM240 111h1v1H240zM242 111h1v1H242zM244 111h1v1H244zM246 111h1v1H246zM248 111h1v1H248zM250 111h1v1H250zM252 111h1v1H252zM254 111h1v1H254zM256 111h1v1H256zM258 111h1v1H258zM260 111h1v1H260zM262 111h1v1H262zM264 111h1v1H264zM266 111h1v1H266zM295 111h1v1H295zM0 112h1v1H0zM7 112h3v1H7zM32 112h1v1H32zM34 112h1v1H34zM36 112h1v1H36zM38 112h1v1H38zM40 112h1v1H40zM42 112h1v1H42zM44 112h1v1H44zM46 112h1v1H46zM48 112h1v1H48zM50 112h1v1H50zM52 112h1v1H52zM54 112h1v1H54zM56 112h1v1H56zM58 112h1v1H58zM60 112h1v1H60zM62 112h1v1H62zM64 112h1v1H64zM66 112h1v1H66zM68 112h1v1H68zM70 112h1v1H70zM72 112h1v1H72zM74 112h1v1H74zM76 112h1v1H76zM78 112h1v1H78zM80 112h1v1H80zM82 112h1v1H82zM84 112h1v1H84zM86 112h1v1H86zM88 112h1v1H88zM90 112h1v1H90zM92 112h1v1H92zM94 112h1v1H94zM96 112h1v1H96zM98 112h1v1H98zM100 112h1v1H100zM102 112h1v1H102zM104 112h1v1H104zM106 112h1v1H106zM108 112h1v1H108zM110 112h1v1H110zM112 112h1v1H112zM114 112h1v1H114zM116 112h1v1H116zM118 112h1v1H118zM120 112h1v1H120zM122 112h1v1H122zM124 112h1v1H124zM126 112h1v1H126zM128 112h1v1H128zM130 112h1v1H130zM132 112h1v1H132zM134 112h1v1H134zM136 112h1v1H136zM138 112h1v1H138zM140 112h1v1H140zM142 112h1v1H142zM144 112h1v1H144zM146 112h1v1H146zM148 112h1v1H148zM150 112h1v1H150zM152 112h1v1H152zM154 112h1v1H154zM156 112h1v1H156zM158 112h1v1H158zM160 112h1v1H160zM162 112h1v1H162zM164 112h1v1H164zM166 112h1v1H166zM168 112h1v1H168zM170 112h1v1H170zM172 112h1v1H172zM174 112h1v1H174zM176 112h1v1H176zM178 112h1v1H178zM180 112h1v1H180zM182 112h1v1H182zM184 112h1v1H184zM186 112h1v1H186zM188 112h1v1H188zM190 112h1v1H190zM192 112h1v1H192zM194 112h1v1H194zM196 112h1v1H196zM198 112h1v1H198zM200 112h1v1H200zM202 112h1v1H202zM204 112h1v1H204zM206 112h1v1H206zM208 112h1v1H208zM210 112h1v1H210zM212 112h1v1H212zM214 112h1v1H214zM216 112h1v1H216zM218 112h1v1H218zM220 112h1v1H220zM222 112h1v1H222zM224 112h1v1H224zM226 112h1v1H226zM228 112h1v1H228zM230 112h1v1H230zM232 112h1v1H232zM234 112h1v1H234zM236 112h1v1H236zM238 112h1v1H238zM240 112h1v1H240zM242 112h1v1H242zM244 112h1v1H244zM246 112h1v1H246zM248 112h1v1H248zM250 112h1v1H250zM252 112h1v1H252zM254 112h1v1H254zM256 112h1v1H256zM258 112h1v1H258zM260 112h1v1H260zM262 112h1v1H262zM264 112h1v1H264zM266 112h1v1H266zM295 112h1v1H295zM0 113h1v1H0zM8 113h1v1H8zM10 113h1v1H10zM32 113h1v1H32zM34 113h1v1H34zM36 113h1v1H36zM38 113h1v1H38zM40 113h1v1H40zM42 113h1v1H42zM44 113h1v1H44zM46 113h1v1H46zM48 113h1v1H48zM50 113h1v1H50zM52 113h1v1H52zM54 113h1v1H54zM56 113h1v1H56zM58 113h1v1H58zM60 113h1v1H60zM62 113h1v1H62zM64 113h1v1H64zM66 113h1v1H66zM68 113h1v1H68zM70 113h1v1H70zM72 113h1v1H72zM74 113h1v1H74zM76 113h1v1H76zM78 113h1v1H78zM80 113h1v1H80zM82 113h1v1H82zM84 113h1v1H84zM86 113h1v1H86zM88 113h1v1H88zM90 113h1v1H90zM92 113h1v1H92zM94 113h1v1H94zM96 113h1v1H96zM98 113h1v1H98zM100 113h1v1H100zM102 113h1v1H102zM104 113h1v1H104zM106 113h1v1H106zM108 113h1v1H108zM110 113h1v1H110zM112 113h1v1H112zM114 113h1v1H114zM116 113h1v1H116zM118 113h1v1H118zM120 113h1v1H120zM122 113h1v1H122zM124 113h1v1H124zM126 113h1v1H126zM128 113h1v1H128zM130 113h1v1H130zM132 113h1v1H132zM134 113h1v1H134zM136 113h1v1H136zM138 113h1v1H138zM140 113h1v1H140zM142 113h1v1H142zM144 113h1v1H144zM146 113h1v1H146zM148 113h1v1H148zM150 113h1v1H150zM152 113h1v1H152zM154 113h1v1H154zM156 113h1v1H156zM158 113h1v1H158zM160 113h1v1H160zM162 113h1v1H162zM164 113h1v1H164zM166 113h1v1H166zM168 113h1v1H168zM170 113h1v1H170zM172 113h1v1H172zM174 113h1v1H174zM176 113h1v1H176zM178 113h1v1H178zM180 113h1v1H180zM182 113h1v1H182zM184 113h1v1H184zM186 113h1v1H186zM188 113h1v1H188zM190 113h1v1H190zM192 113h1v1H192zM194 113h1v1H194zM196 113h1v1H196zM198 113h1v1H198zM200 113h1v1H200zM202 113h1v1H202zM204 113h1v1H204zM206 113h1v1H206zM208 113h1v1H208zM210 113h1v1H210zM212 113h1v1H212zM214 113h1v1H214zM216 113h1v1H216zM218 113h1v1H218zM220 113h1v1H220zM222 113h1v1H222zM224 113h1v1H224zM226 113h1v1H226zM228 113h1v1H228zM230 113h1v1H230zM232 113h1v1H232zM234 113h1v1H234zM236 113h1v1H236zM238 113h1v1H238zM240 113h1v1H240zM242 113h1v1H242zM244 113h1v1H244zM246 113h1v1H246zM248 113h1v1H248zM250 113h1v1H250zM252 113h1v1H252zM254 113h1v1H254zM256 113h1v1H256zM258 113h1v1H258zM260 113h1v1H260zM262 113h1v1H262zM264 113h1v1H264zM266 113h1v1H266zM295 113h1v1H295zM0 114h1v1H0zM6 114h4v1H6zM32 114h1v1H32zM34 114h1v1H34zM36 114h1v1H36zM38 114h1v1H38zM40 114h1v1H40zM42 114h1v1H42zM44 114h1v1H44zM46 114h1v1H46zM48 114h1v1H48zM50 114h1v1H50zM52 114h1v1H52zM54 114h1v1H54zM56 114h1v1H56zM58 114h1v1H58zM60 114h1v1H60zM62 114h1v1H62zM64 114h1v1H64zM66 114h1v1H66zM68 114h1v1H68zM70 114h1v1H70zM72 114h1v1H72zM74 114h1v1H74zM76 114h1v1H76zM78 114h1v1H78zM80 114h1v1H80zM82 114h1v1H82zM84 114h1v1H84zM86 114h1v1H86zM88 114h1v1H88zM90 114h1v1H90zM92 114h1v1H92zM94 114h1v1H94zM96 114h1v1H96zM98 114h1v1H98zM100 114h1v1H100zM102 114h1v1H102zM104 114h1v1H104zM106 114h1v1H106zM108 114h1v1H108zM110 114h1v1H110zM112 114h1v1H112zM114 114h1v1H114zM116 114h1v1H116zM118 114h1v1H118zM120 114h1v1H120zM122 114h1v1H122zM124 114h1v1H124zM126 114h1v1H126zM128 114h1v1H128zM130 114h1v1H130zM132 114h1v1H132zM134 114h1v1H134zM136 114h1v1H136zM138 114h1v1H138zM140 114h1v1H140zM142 114h1v1H142zM144 114h1v1H144zM146 114h1v1H146zM148 114h1v1H148zM150 114h1v1H150zM152 114h1v1H152zM154 114h1v1H154zM156 114h1v1H156zM158 114h1v1H158zM160 114h1v1H160zM162 114h1v1H162zM164 114h1v1H164zM166 114h1v1H166zM168 114h1v1H168zM170 114h1v1H170zM172 114h1v1H172zM174 114h1v1H174zM176 114h1v1H176zM178 114h1v1H178zM180 114h1v1H180zM182 114h1v1H182zM184 114h1v1H184zM186 114h1v1H186zM188 114h1v1H188zM190 114h1v1H190zM192 114h1v1H192zM194 114h1v1H194zM196 114h1v1H196zM198 114h1v1H198zM200 114h1v1H200zM202 114h1v1H202zM204 114h1v1H204zM206 114h1v1H206zM208 114h1v1H208zM210 114h1v1H210zM212 114h1v1H212zM214 114h1v1H214zM216 114h1v1H216zM218 114h1v1H218zM220 114h1v1H220zM222 114h1v1H222zM224 114h1v1H224zM226 114h1v1H226zM228 114h1v1H228zM230 114h1v1H230zM232 114h1v1H232zM234 114h1v1H234zM236 114h1v1H236zM238 114h1v1H238zM240 114h1v1H240zM242 114h1v1H242zM244 114h1v1H244zM246 114h1v1H246zM248 114h1v1H248zM250 114h1v1H250zM252 114h1v1H252zM254 114h1v1H254zM256 114h1v1H256zM258 114h1v1H258zM260 114h1v1H260zM262 114h1v1H262zM264 114h1v1H264zM266 114h1v1H266zM295 114h1v1H295zM0 115h1v1H0zM8 115h1v1H8zM32 115h1v1H32zM34 115h1v1H34zM36 115h1v1H36zM38 115h1v1H38zM40 115h1v1H40zM42 115h1v1H42zM44 115h1v1H44zM46 115h1v1H46zM48 115h1v1H48zM50 115h1v1H50zM52 115h1v1H52zM54 115h1v1H54zM56 115h1v1H56zM58 115h1v1H58zM60 115h1v1H60zM62 115h1v1H62zM64 115h1v1H64zM66 115h1v1H66zM68 115h1v1H68zM70 115h1v1H70zM72 115h1v1H72zM74 115h1v1H74zM76 115h1v1H76zM78 115h1v1H78zM80 115h1v1H80zM82 115h1v1H82zM84 115h1v1H84zM86 115h1v1H86zM88 115h1v1H88zM90 115h1v1H90zM92 115h1v1H92zM94 115h1v1H94zM96 115h1v1H96zM98 115h1v1H98zM100 115h1v1H100zM102 115h1v1H102zM104 115h1v1H104zM106 115h1v1H106zM108 115h1v1H108zM110 115h1v1H110zM112 115h1v1H112zM114 115h1v1H114zM116 115h1v1H116zM118 115h1v1H118zM120 115h1v1H120zM122 115h1v1H122zM124 115h1v1H124zM126 115h1v1H126zM128 115h1v1H128zM130 115h1v1H130zM132 115h1v1H132zM134 115h1v1H134zM136 115h1v1H136zM138 115h1v1H138zM140 115h1v1H140zM142 115h1v1H142zM144 115h1v1H144zM146 115h1v1H146zM148 115h1v1H148zM150 115h1v1H150zM152 115h1v1H152zM154 115h1v1H154zM156 115h1v1H156zM158 115h1v1H158zM160 115h1v1H160zM162 115h1v1H162zM164 115h1v1H164zM166 115h1v1H166zM168 115h1v1H168zM170 115h1v1H170zM172 115h1v1H172zM174 115h1v1H174zM176 115h1v1H176zM178 115h1v1H178zM180 115h1v1H180zM182 115h1v1H182zM184 115h1v1H184zM186 115h1v1H186zM188 115h1v1H188zM190 115h1v1H190zM192 115h1v1H192zM194 115h1v1H194zM196 115h1v1H196zM198 115h1v1H198zM200 115h1v1H200zM202 115h1v1H202zM204 115h1v1H204zM206 115h1v1H206zM208 115h1v1H208zM210 115h1v1H210zM212 115h1v1H212zM214 115h1v1H214zM216 115h1v1H216zM218 115h1v1H218zM220 115h1v1H220zM222 115h1v1H222zM224 115h1v1H224zM226 115h1v1H226zM228 115h1v1H228zM230 115h1v1H230zM232 115h1v1H232zM234 115h1v1H234zM236 115h1v1H236zM238 115h1v1H238zM240 115h1v1H240zM242 115h1v1H242zM244 115h1v1H244zM246 115h1v1H246zM248 115h1v1H248zM250 115h1v1H250zM252 115h1v1H252zM254 115h1v1H254zM256 115h1v1H256zM258 115h1v1H258zM260 115h1v1H260zM262 115h1v1H262zM264 115h1v1H264zM266 115h1v1H266zM295 115h1v1H295zM0 116h1v1H0zM32 116h3v1H32zM36 116h3v1H36zM40 116h3v1H40zM44 116h3v1H44zM48 116h3v1H48zM52 116h3v1H52zM56 116h3v1H56zM60 116h3v1H60zM64 116h3v1H64zM68 116h3v1H68zM72 116h3v1H72zM76 116h3v1H76zM80 116h3v1H80zM84 116h3v1H84zM88 116h3v1H88zM92 116h3v1H92zM96 116h3v1H96zM100 116h3v1H100zM104 116h3v1H104zM108 116h3v1H108zM112 116h3v1H112zM116 116h3v1H116zM120 116h3v1H120zM124 116h3v1H124zM128 116h3v1H128zM132 116h3v1H132zM136 116h3v1H136zM140 116h3v1H140zM144 116h3v1H144zM148 116h3v1H148zM152 116h3v1H152zM156 116h3v1H156zM160 116h3v1H160zM164 116h3v1H164zM168 116h3v1H168zM172 116h3v1H172zM176 116h3v1H176zM180 116h3v1H180zM184 116h3v1H184zM188 116h3v1H188zM192 116h3v1H192zM196 116h3v1H196zM200 116h3v1H200zM204 116h3v1H204zM208 116h3v1H208zM212 116h3v1H212zM216 116h3v1H216zM220 116h3v1H220zM224 116h3v1H224zM228 116h3v1H228zM232 116h3v1H232zM236 116h3v1H236zM240 116h3v1H240zM244 116h3v1H244zM248 116h3v1H248zM252 116h3v1H252zM256 116h3v1H256zM260 116h3v1H260zM264 116h3v1H264zM295 116h1v1H295zM0 117h1v1H0zM295 117h1v1H295zM0 118h1v1H0zM295 118h1v1H295zM0 119h1v1H0zM295 119h1v1H295zM0 120h1v1H0zM295 120h1v1H295zM0 121h1v1H0zM295 121h1v1H295zM0 122h1v1H0zM295 122h1v1H295zM0 123h1v1H0zM295 123h1v1H295zM0 124h1v1H0zM295 124h1v1H295zM0 125h1v1H0zM295 125h1v1H295zM0 126h1v1H0zM295 126h1v1H295zM0 127h295v1H0z"/>
<path fill="#d62518" d="M24 52h3v1H24zM28 52h3v1H28zM32 52h3v1H32zM271 52h3v1H271zM283 52h3v1H283zM290 52h1v1H290zM24 53h3v1H24zM28 53h3v1H28zM32 53h3v1H32zM270 53h1v1H270zM274 53h1v1H274zM282 53h1v1H282zM286 53h1v1H286zM289 53h2v1H289zM24 54h3v1H24zM28 54h3v1H28zM32 54h3v1H32zM270 54h1v1H270zM273 54h2v1H273zM282 54h1v1H282zM286 54h1v1H286zM290 54h1v1H290zM24 55h3v1H24zM28 55h3v1H28zM32 55h3v1H32zM270 55h1v1H270zM272 55h1v1H272zM274 55h1v1H274zM283 55h4v1H283zM290 55h1v1H290zM24 56h3v1H24zM28 56h3v1H28zM32 56h3v1H32zM270 56h2v1H270zM274 56h1v1H274zM277 56h2v1H277zM286 56h1v1H286zM290 56h1v1H290zM24 57h3v1H24zM28 57h3v1H28zM32 57h3v1H32zM270 57h1v1H270zM274 57h1v1H274zM278 57h1v1H278zM285 57h1v1H285zM290 57h1v1H290zM24 58h3v1H24zM28 58h3v1H28zM32 58h3v1H32zM271 58h3v1H271zM277 58h1v1H277zM283 58h2v1H283zM289 58h3v1H289zM24 59h3v1H24zM28 59h3v1H28zM32 59h3v1H32zM24 109h3v1H24zM28 109h3v1H28zM288 109h5v1H288zM24 110h3v1H24zM28 110h3v1H28zM291 110h1v1H291zM24 111h3v1H24zM28 111h3v1H28zM290 111h1v1H290zM24 112h3v1H24zM28 112h3v1H28zM291 112h1v1H291zM24 113h3v1H24zM28 113h3v1H28zM292 113h1v1H292zM24 114h3v1H24zM28 114h3v1H28zM288 114h1v1H288zM292 114h1v1H292zM24 115h3v1H24zM28 115h3v1H28zM289 115h3v1H289zM24 116h3v1H24zM28 116h3v1H28z"/>
</g>
</svg>
