<svg xmlns="http://www.w3.org/2000/svg" width="888" height="384" viewBox="0 0 296 128" role="img" aria-labelledby="title">
<title id="title">DevDash boot screen</title>
<rect width="296" height="128" fill="#fff"/>
<g shape-rendering="crispEdges">
<path fill="#111" d="M1 1h294v1H1zM1 2h1v1H1zM294 2h1v1H294zM1 3h1v1H1zM294 3h1v1H294zM1 4h1v1H1zM6 4h9v1H6zM19 4h3v1H19zM25 4h5v1H25zM31 4h1v1H31zM35 4h1v1H35zM37 4h3v1H37zM44 4h3v1H44zM50 4h4v1H50zM55 4h1v1H55zM59 4h1v1H59zM221 4h3v1H221zM226 4h3v1H226zM232 4h3v1H232zM237 4h1v1H237zM241 4h1v1H241zM244 4h3v1H244zM249 4h1v1H249zM253 4h1v1H253zM256 4h3v1H256zM267 4h1v1H267zM271 4h1v1H271zM274 4h3v1H274zM279 4h5v1H279zM286 4h3v1H286zM294 4h1v1H294zM1 5h1v1H1zM6 5h9v1H6zM19 5h1v1H19zM22 5h1v1H22zM25 5h1v1H25zM31 5h1v1H31zM35 5h1v1H35zM37 5h1v1H37zM40 5h1v1H40zM43 5h1v1H43zM47 5h1v1H47zM49 5h1v1H49zM55 5h1v1H55zM59 5h1v1H59zM222 5h1v1H222zM225 5h1v1H225zM229 5h1v1H229zM233 5h1v1H233zM237 5h1v1H237zM241 5h1v1H241zM245 5h1v1H245zM249 5h1v1H249zM253 5h1v1H253zM255 5h1v1H255zM259 5h1v1H259zM267 5h1v1H267zM271 5h1v1H271zM275 5h1v1H275zM279 5h1v1H279zM287 5h1v1H287zM294 5h1v1H294zM1 6h1v1H1zM6 6h2v1H6zM13 6h2v1H13zM19 6h1v1H19zM23 6h1v1H23zM25 6h1v1H25zM31 6h1v1H31zM35 6h1v1H35zM37 6h1v1H37zM41 6h1v1H41zM43 6h1v1H43zM47 6h1v1H47zM49 6h1v1H49zM55 6h1v1H55zM59 6h1v1H59zM222 6h1v1H222zM225 6h1v1H225zM229 6h1v1H229zM233 6h1v1H233zM237 6h2v1H237zM241 6h1v1H241zM245 6h1v1H245zM249 6h2v1H249zM253 6h1v1H253zM255 6h1v1H255zM267 6h1v1H267zM271 6h1v1H271zM275 6h1v1H275zM279 6h1v1H279zM287 6h1v1H287zM294 6h1v1H294zM1 7h1v1H1zM6 7h2v1H6zM9 7h3v1H9zM13 7h2v1H13zM19 7h1v1H19zM23 7h1v1H23zM25 7h4v1H25zM31 7h1v1H31zM35 7h1v1H35zM37 7h1v1H37zM41 7h1v1H41zM43 7h1v1H43zM47 7h1v1H47zM50 7h3v1H50zM55 7h5v1H55zM222 7h1v1H222zM225 7h1v1H225zM229 7h1v1H229zM233 7h1v1H233zM237 7h1v1H237zM239 7h1v1H239zM241 7h1v1H241zM245 7h1v1H245zM249 7h1v1H249zM251 7h1v1H251zM253 7h1v1H253zM255 7h1v1H255zM257 7h3v1H257zM267 7h1v1H267zM269 7h1v1H269zM271 7h1v1H271zM275 7h1v1H275zM279 7h4v1H279zM287 7h1v1H287zM294 7h1v1H294zM1 8h1v1H1zM6 8h2v1H6zM9 8h3v1H9zM13 8h2v1H13zM19 8h1v1H19zM23 8h1v1H23zM25 8h1v1H25zM31 8h1v1H31zM35 8h1v1H35zM37 8h1v1H37zM41 8h1v1H41zM43 8h5v1H43zM53 8h1v1H53zM55 8h1v1H55zM59 8h1v1H59zM222 8h1v1H222zM225 8h1v1H225zM229 8h1v1H229zM233 8h1v1H233zM237 8h1v1H237zM240 8h2v1H240zM245 8h1v1H245zM249 8h1v1H249zM252 8h2v1H252zM255 8h1v1H255zM259 8h1v1H259zM267 8h1v1H267zM269 8h1v1H269zM271 8h1v1H271zM275 8h1v1H275zM279 8h1v1H279zM287 8h1v1H287zM294 8h1v1H294zM1 9h1v1H1zM6 9h2v1H6zM9 9h3v1H9zM13 9h2v1H13zM19 9h1v1H19zM22 9h1v1H22zM25 9h1v1H25zM32 9h1v1H32zM34 9h1v1H34zM37 9h1v1H37zM40 9h1v1H40zM43 9h1v1H43zM47 9h1v1H47zM53 9h1v1H53zM55 9h1v1H55zM59 9h1v1H59zM219 9h1v1H219zM222 9h1v1H222zM225 9h1v1H225zM229 9h1v1H229zM233 9h1v1H233zM237 9h1v1H237zM241 9h1v1H241zM245 9h1v1H245zM249 9h1v1H249zM253 9h1v1H253zM255 9h1v1H255zM259 9h1v1H259zM267 9h1v1H267zM269 9h1v1H269zM271 9h1v1H271zM275 9h1v1H275zM279 9h1v1H279zM287 9h1v1H287zM294 9h1v1H294zM1 10h1v1H1zM6 10h2v1H6zM13 10h2v1H13zM19 10h3v1H19zM25 10h5v1H25zM33 10h1v1H33zM37 10h3v1H37zM43 10h1v1H43zM47 10h1v1H47zM49 10h4v1H49zM55 10h1v1H55zM59 10h1v1H59zM220 10h2v1H220zM226 10h3v1H226zM232 10h3v1H232zM237 10h1v1H237zM241 10h1v1H241zM244 10h3v1H244zM249 10h1v1H249zM253 10h1v1H253zM256 10h4v1H256zM268 10h1v1H268zM270 10h1v1H270zM274 10h3v1H274zM279 10h1v1H279zM286 10h3v1H286zM294 10h1v1H294zM1 11h1v1H1zM6 11h9v1H6zM294 11h1v1H294zM1 12h1v1H1zM6 12h9v1H6zM294 12h1v1H294zM1 13h1v1H1zM294 13h1v1H294zM1 14h294v1H1zM1 15h1v1H1zM294 15h1v1H294zM1 16h1v1H1zM294 16h1v1H294zM1 17h1v1H1zM294 17h1v1H294zM1 18h1v1H1zM294 18h1v1H294zM1 19h1v1H1zM294 19h1v1H294zM1 20h1v1H1zM6 20h108v1H6zM294 20h1v1H294zM1 21h1v1H1zM6 21h108v1H6zM294 21h1v1H294zM1 22h1v1H1zM6 22h108v1H6zM123 22h4v1H123zM129 22h3v1H129zM135 22h3v1H135zM140 22h1v1H140zM144 22h1v1H144zM146 22h1v1H146zM150 22h1v1H150zM153 22h3v1H153zM158 22h1v1H158zM162 22h1v1H162zM165 22h3v1H165zM177 22h4v1H177zM183 22h3v1H183zM188 22h1v1H188zM192 22h1v1H192zM194 22h5v1H194zM200 22h3v1H200zM212 22h1v1H212zM216 22h1v1H216zM218 22h5v1H218zM224 22h5v1H224zM230 22h1v1H230zM234 22h1v1H234zM237 22h3v1H237zM242 22h4v1H242zM248 22h1v1H248zM252 22h1v1H252zM255 22h4v1H255zM294 22h1v1H294zM1 23h1v1H1zM6 23h108v1H6zM122 23h1v1H122zM128 23h1v1H128zM132 23h1v1H132zM134 23h1v1H134zM138 23h1v1H138zM140 23h1v1H140zM144 23h1v1H144zM146 23h1v1H146zM150 23h1v1H150zM154 23h1v1H154zM158 23h1v1H158zM162 23h1v1H162zM164 23h1v1H164zM168 23h1v1H168zM176 23h1v1H176zM182 23h1v1H182zM186 23h1v1H186zM188 23h1v1H188zM192 23h1v1H192zM194 23h1v1H194zM200 23h1v1H200zM203 23h1v1H203zM212 23h1v1H212zM216 23h1v1H216zM218 23h1v1H218zM226 23h1v1H226zM230 23h1v1H230zM234 23h1v1H234zM236 23h1v1H236zM240 23h1v1H240zM242 23h1v1H242zM246 23h1v1H246zM248 23h1v1H248zM251 23h1v1H251zM254 23h1v1H254zM294 23h1v1H294zM1 24h1v1H1zM6 24h108v1H6zM122 24h1v1H122zM128 24h1v1H128zM134 24h1v1H134zM138 24h1v1H138zM140 24h2v1H140zM144 24h1v1H144zM146 24h2v1H146zM150 24h1v1H150zM154 24h1v1H154zM158 24h2v1H158zM162 24h1v1H162zM164 24h1v1H164zM176 24h1v1H176zM182 24h1v1H182zM186 24h1v1H186zM188 24h1v1H188zM192 24h1v1H192zM194 24h1v1H194zM200 24h1v1H200zM204 24h1v1H204zM212 24h2v1H212zM216 24h1v1H216zM218 24h1v1H218zM226 24h1v1H226zM230 24h1v1H230zM234 24h1v1H234zM236 24h1v1H236zM240 24h1v1H240zM242 24h1v1H242zM246 24h1v1H246zM248 24h1v1H248zM250 24h1v1H250zM254 24h1v1H254zM294 24h1v1H294zM1 25h1v1H1zM6 25h108v1H6zM123 25h3v1H123zM128 25h1v1H128zM134 25h1v1H134zM138 25h1v1H138zM140 25h1v1H140zM142 25h1v1H142zM144 25h1v1H144zM146 25h1v1H146zM148 25h1v1H148zM150 25h1v1H150zM154 25h1v1H154zM158 25h1v1H158zM160 25h1v1H160zM162 25h1v1H162zM164 25h1v1H164zM166 25h3v1H166zM177 25h3v1H177zM182 25h1v1H182zM186 25h1v1H186zM188 25h1v1H188zM192 25h1v1H192zM194 25h4v1H194zM200 25h1v1H200zM204 25h1v1H204zM212 25h1v1H212zM214 25h1v1H214zM216 25h1v1H216zM218 25h4v1H218zM226 25h1v1H226zM230 25h1v1H230zM232 25h1v1H232zM234 25h1v1H234zM236 25h1v1H236zM240 25h1v1H240zM242 25h4v1H242zM248 25h2v1H248zM255 25h3v1H255zM294 25h1v1H294zM1 26h1v1H1zM6 26h108v1H6zM126 26h1v1H126zM128 26h1v1H128zM134 26h5v1H134zM140 26h1v1H140zM143 26h2v1H143zM146 26h1v1H146zM149 26h2v1H149zM154 26h1v1H154zM158 26h1v1H158zM161 26h2v1H161zM164 26h1v1H164zM168 26h1v1H168zM180 26h1v1H180zM182 26h5v1H182zM188 26h1v1H188zM192 26h1v1H192zM194 26h1v1H194zM200 26h1v1H200zM204 26h1v1H204zM212 26h1v1H212zM215 26h2v1H215zM218 26h1v1H218zM226 26h1v1H226zM230 26h1v1H230zM232 26h1v1H232zM234 26h1v1H234zM236 26h1v1H236zM240 26h1v1H240zM242 26h1v1H242zM244 26h1v1H244zM248 26h1v1H248zM250 26h1v1H250zM258 26h1v1H258zM294 26h1v1H294zM1 27h1v1H1zM6 27h108v1H6zM126 27h1v1H126zM128 27h1v1H128zM132 27h1v1H132zM134 27h1v1H134zM138 27h1v1H138zM140 27h1v1H140zM144 27h1v1H144zM146 27h1v1H146zM150 27h1v1H150zM154 27h1v1H154zM158 27h1v1H158zM162 27h1v1H162zM164 27h1v1H164zM168 27h1v1H168zM180 27h1v1H180zM182 27h1v1H182zM186 27h1v1H186zM189 27h1v1H189zM191 27h1v1H191zM194 27h1v1H194zM200 27h1v1H200zM203 27h1v1H203zM212 27h1v1H212zM216 27h1v1H216zM218 27h1v1H218zM226 27h1v1H226zM230 27h1v1H230zM232 27h1v1H232zM234 27h1v1H234zM236 27h1v1H236zM240 27h1v1H240zM242 27h1v1H242zM245 27h1v1H245zM248 27h1v1H248zM251 27h1v1H251zM258 27h1v1H258zM294 27h1v1H294zM1 28h1v1H1zM6 28h108v1H6zM122 28h4v1H122zM129 28h3v1H129zM134 28h1v1H134zM138 28h1v1H138zM140 28h1v1H140zM144 28h1v1H144zM146 28h1v1H146zM150 28h1v1H150zM153 28h3v1H153zM158 28h1v1H158zM162 28h1v1H162zM165 28h4v1H165zM176 28h4v1H176zM182 28h1v1H182zM186 28h1v1H186zM190 28h1v1H190zM194 28h5v1H194zM200 28h3v1H200zM212 28h1v1H212zM216 28h1v1H216zM218 28h5v1H218zM226 28h1v1H226zM231 28h1v1H231zM233 28h1v1H233zM237 28h3v1H237zM242 28h1v1H242zM246 28h1v1H246zM248 28h1v1H248zM252 28h1v1H252zM254 28h4v1H254zM294 28h1v1H294zM1 29h1v1H1zM6 29h108v1H6zM294 29h1v1H294zM1 30h1v1H1zM6 30h8v1H6zM26 30h11v1H26zM57 30h3v1H57zM64 30h12v1H64zM80 30h34v1H80zM294 30h1v1H294zM1 31h1v1H1zM6 31h8v1H6zM26 31h11v1H26zM57 31h3v1H57zM64 31h12v1H64zM80 31h34v1H80zM294 31h1v1H294zM1 32h1v1H1zM6 32h8v1H6zM26 32h11v1H26zM57 32h3v1H57zM64 32h12v1H64zM80 32h34v1H80zM294 32h1v1H294zM1 33h1v1H1zM6 33h8v1H6zM26 33h11v1H26zM57 33h3v1H57zM64 33h12v1H64zM80 33h34v1H80zM294 33h1v1H294zM1 34h1v1H1zM6 34h8v1H6zM18 34h8v1H18zM30 34h7v1H30zM41 34h19v1H41zM64 34h12v1H64zM80 34h34v1H80zM294 34h1v1H294zM1 35h1v1H1zM6 35h8v1H6zM18 35h8v1H18zM30 35h7v1H30zM41 35h19v1H41zM64 35h12v1H64zM80 35h34v1H80zM124 35h1v1H124zM137 35h1v1H137zM141 35h1v1H141zM161 35h1v1H161zM173 35h1v1H173zM294 35h1v1H294zM1 36h1v1H1zM6 36h8v1H6zM18 36h8v1H18zM30 36h7v1H30zM41 36h19v1H41zM64 36h12v1H64zM80 36h34v1H80zM123 36h2v1H123zM137 36h1v1H137zM141 36h1v1H141zM161 36h1v1H161zM173 36h1v1H173zM294 36h1v1H294zM1 37h1v1H1zM6 37h8v1H6zM18 37h8v1H18zM30 37h7v1H30zM41 37h19v1H41zM64 37h12v1H64zM80 37h34v1H80zM124 37h1v1H124zM137 37h1v1H137zM141 37h1v1H141zM144 37h3v1H144zM149 37h2v1H149zM152 37h1v1H152zM156 37h3v1H156zM161 37h1v1H161zM168 37h3v1H168zM173 37h1v1H173zM175 37h2v1H175zM294 37h1v1H294zM1 38h1v1H1zM6 38h8v1H6zM18 38h12v1H18zM34 38h3v1H34zM41 38h19v1H41zM64 38h12v1H64zM80 38h34v1H80zM124 38h1v1H124zM137 38h5v1H137zM143 38h1v1H143zM147 38h1v1H147zM149 38h1v1H149zM151 38h1v1H151zM153 38h1v1H153zM155 38h1v1H155zM159 38h1v1H159zM161 38h1v1H161zM171 38h1v1H171zM173 38h2v1H173zM177 38h1v1H177zM294 38h1v1H294zM1 39h1v1H1zM6 39h8v1H6zM18 39h12v1H18zM34 39h3v1H34zM41 39h19v1H41zM64 39h12v1H64zM80 39h34v1H80zM124 39h1v1H124zM137 39h1v1H137zM141 39h1v1H141zM143 39h1v1H143zM147 39h1v1H147zM149 39h1v1H149zM151 39h1v1H151zM153 39h1v1H153zM155 39h5v1H155zM161 39h1v1H161zM168 39h4v1H168zM173 39h1v1H173zM177 39h1v1H177zM294 39h1v1H294zM1 40h1v1H1zM6 40h8v1H6zM18 40h12v1H18zM34 40h3v1H34zM41 40h19v1H41zM64 40h12v1H64zM80 40h34v1H80zM124 40h1v1H124zM129 40h2v1H129zM137 40h1v1H137zM141 40h1v1H141zM143 40h1v1H143zM147 40h1v1H147zM149 40h1v1H149zM153 40h1v1H153zM155 40h1v1H155zM161 40h1v1H161zM167 40h1v1H167zM171 40h1v1H171zM173 40h1v1H173zM177 40h1v1H177zM294 40h1v1H294zM1 41h1v1H1zM6 41h8v1H6zM18 41h12v1H18zM34 41h3v1H34zM41 41h19v1H41zM64 41h12v1H64zM80 41h34v1H80zM123 41h3v1H123zM129 41h2v1H129zM137 41h1v1H137zM141 41h1v1H141zM144 41h3v1H144zM149 41h1v1H149zM153 41h1v1H153zM156 41h3v1H156zM161 41h5v1H161zM168 41h4v1H168zM173 41h4v1H173zM294 41h1v1H294zM1 42h1v1H1zM6 42h8v1H6zM18 42h12v1H18zM34 42h3v1H34zM53 42h7v1H53zM64 42h12v1H64zM80 42h34v1H80zM294 42h1v1H294zM1 43h1v1H1zM6 43h8v1H6zM18 43h12v1H18zM34 43h3v1H34zM53 43h7v1H53zM64 43h12v1H64zM80 43h34v1H80zM294 43h1v1H294zM1 44h1v1H1zM6 44h8v1H6zM18 44h12v1H18zM34 44h3v1H34zM53 44h7v1H53zM64 44h12v1H64zM80 44h34v1H80zM123 44h3v1H123zM138 44h3v1H138zM145 44h2v1H145zM151 44h2v1H151zM157 44h1v1H157zM294 44h1v1H294zM1 45h1v1H1zM6 45h8v1H6zM18 45h12v1H18zM34 45h3v1H34zM53 45h7v1H53zM64 45h12v1H64zM80 45h34v1H80zM122 45h1v1H122zM126 45h1v1H126zM137 45h1v1H137zM141 45h1v1H141zM144 45h1v1H144zM147 45h1v1H147zM150 45h1v1H150zM153 45h1v1H153zM294 45h1v1H294zM1 46h1v1H1zM6 46h8v1H6zM18 46h12v1H18zM34 46h3v1H34zM41 46h19v1H41zM64 46h12v1H64zM80 46h34v1H80zM126 46h1v1H126zM137 46h1v1H137zM141 46h1v1H141zM144 46h1v1H144zM150 46h1v1H150zM156 46h2v1H156zM162 46h3v1H162zM168 46h3v1H168zM294 46h1v1H294zM1 47h1v1H1zM6 47h8v1H6zM18 47h12v1H18zM34 47h3v1H34zM41 47h19v1H41zM64 47h12v1H64zM80 47h34v1H80zM125 47h1v1H125zM137 47h1v1H137zM141 47h1v1H141zM143 47h3v1H143zM149 47h3v1H149zM157 47h1v1H157zM161 47h1v1H161zM167 47h1v1H167zM171 47h1v1H171zM294 47h1v1H294zM1 48h1v1H1zM6 48h8v1H6zM18 48h12v1H18zM34 48h3v1H34zM41 48h19v1H41zM64 48h12v1H64zM80 48h34v1H80zM124 48h1v1H124zM137 48h1v1H137zM141 48h1v1H141zM144 48h1v1H144zM150 48h1v1H150zM157 48h1v1H157zM161 48h1v1H161zM167 48h5v1H167zM294 48h1v1H294zM1 49h1v1H1zM6 49h8v1H6zM18 49h12v1H18zM34 49h3v1H34zM41 49h19v1H41zM64 49h12v1H64zM80 49h34v1H80zM123 49h1v1H123zM129 49h2v1H129zM137 49h1v1H137zM141 49h1v1H141zM144 49h1v1H144zM150 49h1v1H150zM157 49h1v1H157zM161 49h1v1H161zM165 49h1v1H165zM167 49h1v1H167zM294 49h1v1H294zM1 50h1v1H1zM6 50h8v1H6zM18 50h8v1H18zM30 50h7v1H30zM41 50h23v1H41zM68 50h4v1H68zM76 50h38v1H76zM122 50h5v1H122zM129 50h2v1H129zM138 50h3v1H138zM144 50h1v1H144zM150 50h1v1H150zM156 50h3v1H156zM162 50h3v1H162zM168 50h3v1H168zM294 50h1v1H294zM1 51h1v1H1zM6 51h8v1H6zM18 51h8v1H18zM30 51h7v1H30zM41 51h23v1H41zM68 51h4v1H68zM76 51h38v1H76zM294 51h1v1H294zM1 52h1v1H1zM6 52h8v1H6zM18 52h8v1H18zM30 52h7v1H30zM41 52h23v1H41zM68 52h4v1H68zM76 52h38v1H76zM294 52h1v1H294zM1 53h1v1H1zM6 53h8v1H6zM18 53h8v1H18zM30 53h7v1H30zM41 53h23v1H41zM68 53h4v1H68zM76 53h38v1H76zM294 53h1v1H294zM1 54h1v1H1zM6 54h8v1H6zM26 54h11v1H26zM57 54h11v1H57zM72 54h42v1H72zM294 54h1v1H294zM1 55h1v1H1zM6 55h8v1H6zM26 55h11v1H26zM57 55h11v1H57zM72 55h42v1H72zM294 55h1v1H294zM1 56h1v1H1zM6 56h8v1H6zM26 56h11v1H26zM57 56h11v1H57zM72 56h42v1H72zM294 56h1v1H294zM1 57h1v1H1zM6 57h8v1H6zM26 57h11v1H26zM57 57h11v1H57zM72 57h42v1H72zM294 57h1v1H294zM1 58h1v1H1zM6 58h108v1H6zM294 58h1v1H294zM1 59h1v1H1zM6 59h108v1H6zM294 59h1v1H294zM1 60h1v1H1zM6 60h108v1H6zM294 60h1v1H294zM1 61h1v1H1zM6 61h108v1H6zM294 61h1v1H294zM1 62h1v1H1zM6 62h108v1H6zM294 62h1v1H294zM1 63h1v1H1zM6 63h8v1H6zM26 63h15v1H26zM53 63h11v1H53zM80 63h3v1H80zM87 63h12v1H87zM103 63h11v1H103zM294 63h1v1H294zM1 64h1v1H1zM6 64h8v1H6zM26 64h15v1H26zM53 64h11v1H53zM80 64h3v1H80zM87 64h12v1H87zM103 64h11v1H103zM294 64h1v1H294zM1 65h1v1H1zM6 65h8v1H6zM26 65h15v1H26zM53 65h11v1H53zM80 65h3v1H80zM87 65h12v1H87zM103 65h11v1H103zM294 65h1v1H294zM1 66h1v1H1zM6 66h8v1H6zM26 66h15v1H26zM53 66h11v1H53zM80 66h3v1H80zM87 66h12v1H87zM103 66h11v1H103zM294 66h1v1H294zM1 67h1v1H1zM6 67h8v1H6zM18 67h8v1H18zM30 67h7v1H30zM41 67h12v1H41zM57 67h3v1H57zM64 67h19v1H64zM87 67h12v1H87zM103 67h11v1H103zM294 67h1v1H294zM1 68h1v1H1zM6 68h8v1H6zM18 68h8v1H18zM30 68h7v1H30zM41 68h12v1H41zM57 68h3v1H57zM64 68h19v1H64zM87 68h12v1H87zM103 68h11v1H103zM294 68h1v1H294zM1 69h1v1H1zM6 69h8v1H6zM18 69h8v1H18zM30 69h7v1H30zM41 69h12v1H41zM57 69h3v1H57zM64 69h19v1H64zM87 69h12v1H87zM103 69h11v1H103zM294 69h1v1H294zM1 70h1v1H1zM6 70h8v1H6zM18 70h8v1H18zM30 70h7v1H30zM41 70h12v1H41zM57 70h3v1H57zM64 70h19v1H64zM87 70h12v1H87zM103 70h11v1H103zM294 70h1v1H294zM1 71h1v1H1zM6 71h8v1H6zM18 71h12v1H18zM34 71h3v1H34zM41 71h12v1H41zM57 71h3v1H57zM64 71h19v1H64zM87 71h12v1H87zM103 71h11v1H103zM294 71h1v1H294zM1 72h1v1H1zM6 72h8v1H6zM18 72h12v1H18zM34 72h3v1H34zM41 72h12v1H41zM57 72h3v1H57zM64 72h19v1H64zM87 72h12v1H87zM103 72h11v1H103zM294 72h1v1H294zM1 73h1v1H1zM6 73h8v1H6zM18 73h12v1H18zM34 73h3v1H34zM41 73h12v1H41zM57 73h3v1H57zM64 73h19v1H64zM87 73h12v1H87zM103 73h11v1H103zM294 73h1v1H294zM1 74h1v1H1zM6 74h8v1H6zM18 74h12v1H18zM34 74h3v1H34zM41 74h12v1H41zM57 74h3v1H57zM64 74h19v1H64zM87 74h12v1H87zM103 74h11v1H103zM294 74h1v1H294zM1 75h1v1H1zM6 75h8v1H6zM18 75h12v1H18zM34 75h3v1H34zM41 75h12v1H41zM57 75h7v1H57zM76 75h7v1H76zM103 75h11v1H103zM294 75h1v1H294zM1 76h1v1H1zM6 76h8v1H6zM18 76h12v1H18zM34 76h3v1H34zM41 76h12v1H41zM57 76h7v1H57zM76 76h7v1H76zM103 76h11v1H103zM294 76h1v1H294zM1 77h1v1H1zM6 77h8v1H6zM18 77h12v1H18zM34 77h3v1H34zM41 77h12v1H41zM57 77h7v1H57zM76 77h7v1H76zM103 77h11v1H103zM294 77h1v1H294zM1 78h1v1H1zM6 78h8v1H6zM18 78h12v1H18zM34 78h3v1H34zM41 78h12v1H41zM57 78h7v1H57zM76 78h7v1H76zM103 78h11v1H103zM294 78h1v1H294zM1 79h1v1H1zM6 79h8v1H6zM18 79h12v1H18zM34 79h3v1H34zM57 79h19v1H57zM80 79h3v1H80zM87 79h12v1H87zM103 79h11v1H103zM294 79h1v1H294zM1 80h1v1H1zM6 80h8v1H6zM18 80h12v1H18zM34 80h3v1H34zM57 80h19v1H57zM80 80h3v1H80zM87 80h12v1H87zM103 80h11v1H103zM294 80h1v1H294zM1 81h1v1H1zM6 81h8v1H6zM18 81h12v1H18zM34 81h3v1H34zM57 81h19v1H57zM80 81h3v1H80zM87 81h12v1H87zM103 81h11v1H103zM294 81h1v1H294zM1 82h1v1H1zM6 82h8v1H6zM18 82h12v1H18zM34 82h3v1H34zM57 82h19v1H57zM80 82h3v1H80zM87 82h12v1H87zM103 82h11v1H103zM122 82h169v1H122zM294 82h1v1H294zM1 83h1v1H1zM6 83h8v1H6zM18 83h8v1H18zM30 83h7v1H30zM41 83h12v1H41zM57 83h19v1H57zM80 83h3v1H80zM87 83h12v1H87zM103 83h11v1H103zM294 83h1v1H294zM1 84h1v1H1zM6 84h8v1H6zM18 84h8v1H18zM30 84h7v1H30zM41 84h12v1H41zM57 84h19v1H57zM80 84h3v1H80zM87 84h12v1H87zM103 84h11v1H103zM294 84h1v1H294zM1 85h1v1H1zM6 85h8v1H6zM18 85h8v1H18zM30 85h7v1H30zM41 85h12v1H41zM57 85h19v1H57zM80 85h3v1H80zM87 85h12v1H87zM103 85h11v1H103zM294 85h1v1H294zM1 86h1v1H1zM6 86h8v1H6zM18 86h8v1H18zM30 86h7v1H30zM41 86h12v1H41zM57 86h19v1H57zM80 86h3v1H80zM87 86h12v1H87zM103 86h11v1H103zM294 86h1v1H294zM1 87h1v1H1zM6 87h8v1H6zM26 87h11v1H26zM41 87h12v1H41zM57 87h3v1H57zM76 87h7v1H76zM87 87h12v1H87zM103 87h11v1H103zM294 87h1v1H294zM1 88h1v1H1zM6 88h8v1H6zM26 88h11v1H26zM41 88h12v1H41zM57 88h3v1H57zM76 88h7v1H76zM87 88h12v1H87zM103 88h11v1H103zM122 88h5v1H122zM128 88h1v1H128zM132 88h1v1H132zM134 88h5v1H134zM140 88h1v1H140zM144 88h1v1H144zM152 88h5v1H152zM158 88h5v1H158zM164 88h5v1H164zM171 88h3v1H171zM176 88h1v1H176zM180 88h1v1H180zM294 88h1v1H294zM1 89h1v1H1zM6 89h8v1H6zM26 89h11v1H26zM41 89h12v1H41zM57 89h3v1H57zM76 89h7v1H76zM87 89h12v1H87zM103 89h11v1H103zM124 89h1v1H124zM128 89h1v1H128zM132 89h1v1H132zM134 89h1v1H134zM140 89h1v1H140zM144 89h1v1H144zM152 89h1v1H152zM158 89h1v1H158zM166 89h1v1H166zM170 89h1v1H170zM174 89h1v1H174zM176 89h1v1H176zM180 89h1v1H180zM294 89h1v1H294zM1 90h1v1H1zM6 90h8v1H6zM26 90h11v1H26zM41 90h12v1H41zM57 90h3v1H57zM76 90h7v1H76zM87 90h12v1H87zM103 90h11v1H103zM124 90h1v1H124zM128 90h1v1H128zM132 90h1v1H132zM134 90h1v1H134zM140 90h2v1H140zM144 90h1v1H144zM152 90h1v1H152zM158 90h1v1H158zM166 90h1v1H166zM170 90h1v1H170zM176 90h1v1H176zM180 90h1v1H180zM294 90h1v1H294zM1 91h1v1H1zM6 91h108v1H6zM124 91h1v1H124zM128 91h5v1H128zM134 91h4v1H134zM140 91h1v1H140zM142 91h1v1H142zM144 91h1v1H144zM152 91h4v1H152zM158 91h4v1H158zM166 91h1v1H166zM170 91h1v1H170zM176 91h5v1H176zM294 91h1v1H294zM1 92h1v1H1zM6 92h108v1H6zM124 92h1v1H124zM128 92h1v1H128zM132 92h1v1H132zM134 92h1v1H134zM140 92h1v1H140zM143 92h2v1H143zM152 92h1v1H152zM158 92h1v1H158zM166 92h1v1H166zM170 92h1v1H170zM176 92h1v1H176zM180 92h1v1H180zM294 92h1v1H294zM1 93h1v1H1zM6 93h108v1H6zM124 93h1v1H124zM128 93h1v1H128zM132 93h1v1H132zM134 93h1v1H134zM140 93h1v1H140zM144 93h1v1H144zM152 93h1v1H152zM158 93h1v1H158zM166 93h1v1H166zM170 93h1v1H170zM174 93h1v1H174zM176 93h1v1H176zM180 93h1v1H180zM294 93h1v1H294zM1 94h1v1H1zM6 94h108v1H6zM124 94h1v1H124zM128 94h1v1H128zM132 94h1v1H132zM134 94h5v1H134zM140 94h1v1H140zM144 94h1v1H144zM152 94h1v1H152zM158 94h5v1H158zM166 94h1v1H166zM171 94h3v1H171zM176 94h1v1H176zM180 94h1v1H180zM294 94h1v1H294zM1 95h1v1H1zM6 95h108v1H6zM294 95h1v1H294zM1 96h1v1H1zM6 96h108v1H6zM294 96h1v1H294zM1 97h1v1H1zM6 97h108v1H6zM294 97h1v1H294zM1 98h1v1H1zM6 98h29v1H6zM36 98h3v1H36zM42 98h10v1H42zM53 98h4v1H53zM60 98h9v1H60zM72 98h3v1H72zM78 98h36v1H78zM294 98h1v1H294zM1 99h1v1H1zM6 99h28v1H6zM36 99h2v1H36zM39 99h3v1H39zM43 99h8v1H43zM53 99h3v1H53zM57 99h3v1H57zM61 99h7v1H61zM69 99h3v1H69zM73 99h1v1H73zM75 99h3v1H75zM79 99h35v1H79zM294 99h1v1H294zM1 100h1v1H1zM6 100h9v1H6zM18 100h2v1H18zM21 100h1v1H21zM24 100h9v1H24zM34 100h1v1H34zM36 100h2v1H36zM39 100h13v1H39zM53 100h7v1H53zM61 100h7v1H61zM69 100h3v1H69zM73 100h1v1H73zM75 100h3v1H75zM79 100h35v1H79zM294 100h1v1H294zM1 101h1v1H1zM6 101h8v1H6zM15 101h5v1H15zM22 101h2v1H22zM25 101h7v1H25zM33 101h2v1H33zM36 101h2v1H36zM39 101h5v1H39zM49 101h3v1H49zM53 101h6v1H53zM60 101h2v1H60zM67 101h1v1H67zM69 101h3v1H69zM73 101h2v1H73zM79 101h35v1H79zM130 101h1v1H130zM135 101h1v1H135zM140 101h1v1H140zM152 101h1v1H152zM184 101h1v1H184zM294 101h1v1H294zM1 102h1v1H1zM6 102h9v1H6zM18 102h2v1H18zM21 102h3v1H21zM25 102h7v1H25zM37 102h1v1H37zM39 102h13v1H39zM53 102h5v1H53zM59 102h9v1H59zM73 102h5v1H73zM79 102h35v1H79zM123 102h4v1H123zM135 102h1v1H135zM140 102h1v1H140zM152 102h1v1H152zM213 102h4v1H213zM294 102h1v1H294zM1 103h1v1H1zM6 103h12v1H6zM19 103h1v1H19zM21 103h3v1H21zM25 103h10v1H25zM36 103h2v1H36zM39 103h3v1H39zM43 103h9v1H43zM53 103h4v1H53zM58 103h10v1H58zM69 103h3v1H69zM73 103h4v1H73zM78 103h36v1H78zM122 103h1v1H122zM126 103h1v1H126zM129 103h2v1H129zM134 103h3v1H134zM140 103h1v1H140zM142 103h2v1H142zM146 103h1v1H146zM150 103h1v1H150zM152 103h1v1H152zM154 103h2v1H154zM177 103h3v1H177zM183 103h2v1H183zM194 103h1v1H194zM198 103h1v1H198zM201 103h3v1H201zM207 103h3v1H207zM212 103h1v1H212zM216 103h1v1H216zM219 103h3v1H219zM294 103h1v1H294zM1 104h1v1H1zM6 104h8v1H6zM18 104h2v1H18zM21 104h3v1H21zM25 104h10v1H25zM36 104h3v1H36zM42 104h9v1H42zM54 104h2v1H54zM61 104h7v1H61zM69 104h3v1H69zM73 104h2v1H73zM77 104h37v1H77zM122 104h1v1H122zM126 104h1v1H126zM130 104h1v1H130zM135 104h1v1H135zM140 104h2v1H140zM144 104h1v1H144zM146 104h1v1H146zM150 104h1v1H150zM152 104h2v1H152zM156 104h1v1H156zM165 104h2v1H165zM180 104h1v1H180zM184 104h1v1H184zM194 104h1v1H194zM198 104h1v1H198zM200 104h1v1H200zM210 104h1v1H210zM212 104h1v1H212zM216 104h1v1H216zM218 104h1v1H218zM222 104h1v1H222zM294 104h1v1H294zM1 105h1v1H1zM6 105h108v1H6zM123 105h4v1H123zM130 105h1v1H130zM135 105h1v1H135zM140 105h1v1H140zM144 105h1v1H144zM146 105h1v1H146zM150 105h1v1H150zM152 105h1v1H152zM156 105h1v1H156zM165 105h2v1H165zM177 105h4v1H177zM184 105h1v1H184zM194 105h1v1H194zM198 105h1v1H198zM201 105h3v1H201zM207 105h4v1H207zM213 105h4v1H213zM218 105h5v1H218zM294 105h1v1H294zM1 106h1v1H1zM6 106h108v1H6zM126 106h1v1H126zM130 106h1v1H130zM135 106h1v1H135zM138 106h1v1H138zM140 106h1v1H140zM144 106h1v1H144zM146 106h1v1H146zM149 106h2v1H149zM152 106h1v1H152zM156 106h1v1H156zM176 106h1v1H176zM180 106h1v1H180zM184 106h1v1H184zM194 106h1v1H194zM197 106h2v1H197zM204 106h1v1H204zM206 106h1v1H206zM210 106h1v1H210zM216 106h1v1H216zM218 106h1v1H218zM294 106h1v1H294zM1 107h1v1H1zM6 107h108v1H6zM123 107h3v1H123zM129 107h3v1H129zM136 107h2v1H136zM140 107h1v1H140zM144 107h1v1H144zM147 107h2v1H147zM150 107h1v1H150zM152 107h4v1H152zM177 107h4v1H177zM183 107h3v1H183zM195 107h2v1H195zM198 107h1v1H198zM200 107h4v1H200zM207 107h4v1H207zM213 107h3v1H213zM219 107h3v1H219zM294 107h1v1H294zM1 108h1v1H1zM6 108h108v1H6zM294 108h1v1H294zM1 109h1v1H1zM6 109h108v1H6zM294 109h1v1H294zM1 110h1v1H1zM294 110h1v1H294zM1 111h1v1H1zM294 111h1v1H294zM1 112h1v1H1zM294 112h1v1H294zM1 113h1v1H1zM294 113h1v1H294zM1 114h294v1H1zM1 115h1v1H1zM294 115h1v1H294zM1 116h1v1H1zM294 116h1v1H294zM1 117h1v1H1zM8 117h2v1H8zM31 117h3v1H31zM44 117h1v1H44zM55 117h3v1H55zM165 117h1v1H165zM178 117h2v1H178zM187 117h1v1H187zM195 117h4v1H195zM202 117h3v1H202zM208 117h3v1H208zM213 117h5v1H213zM225 117h5v1H225zM250 117h1v1H250zM274 117h1v1H274zM294 117h1v1H294zM1 118h1v1H1zM7 118h1v1H7zM10 118h1v1H10zM30 118h1v1H30zM34 118h1v1H34zM43 118h2v1H43zM54 118h1v1H54zM58 118h1v1H58zM165 118h1v1H165zM179 118h1v1H179zM187 118h1v1H187zM195 118h1v1H195zM199 118h1v1H199zM201 118h1v1H201zM205 118h1v1H205zM207 118h1v1H207zM211 118h1v1H211zM215 118h1v1H215zM225 118h1v1H225zM251 118h1v1H251zM274 118h1v1H274zM294 118h1v1H294zM1 119h1v1H1zM7 119h1v1H7zM12 119h1v1H12zM16 119h1v1H16zM24 119h1v1H24zM28 119h1v1H28zM30 119h1v1H30zM33 119h2v1H33zM44 119h1v1H44zM54 119h1v1H54zM57 119h2v1H57zM165 119h1v1H165zM167 119h2v1H167zM172 119h3v1H172zM179 119h1v1H179zM184 119h2v1H184zM187 119h1v1H187zM195 119h1v1H195zM199 119h1v1H199zM201 119h1v1H201zM205 119h1v1H205zM207 119h1v1H207zM211 119h1v1H211zM215 119h1v1H215zM225 119h4v1H225zM232 119h3v1H232zM252 119h1v1H252zM262 119h3v1H262zM268 119h3v1H268zM273 119h3v1H273zM279 119h1v1H279zM283 119h1v1H283zM285 119h4v1H285zM294 119h1v1H294zM1 120h1v1H1zM6 120h3v1H6zM12 120h1v1H12zM16 120h1v1H16zM24 120h1v1H24zM28 120h1v1H28zM30 120h1v1H30zM32 120h1v1H32zM34 120h1v1H34zM44 120h1v1H44zM54 120h1v1H54zM56 120h1v1H56zM58 120h1v1H58zM165 120h2v1H165zM169 120h1v1H169zM171 120h1v1H171zM175 120h1v1H175zM179 120h1v1H179zM183 120h1v1H183zM186 120h2v1H186zM195 120h4v1H195zM201 120h1v1H201zM205 120h1v1H205zM207 120h1v1H207zM211 120h1v1H211zM215 120h1v1H215zM229 120h1v1H229zM231 120h1v1H231zM243 120h5v1H243zM253 120h1v1H253zM261 120h1v1H261zM267 120h1v1H267zM271 120h1v1H271zM274 120h1v1H274zM279 120h1v1H279zM283 120h1v1H283zM285 120h1v1H285zM289 120h1v1H289zM294 120h1v1H294zM1 121h1v1H1zM7 121h1v1H7zM12 121h1v1H12zM16 121h1v1H16zM24 121h1v1H24zM28 121h1v1H28zM30 121h2v1H30zM34 121h1v1H34zM44 121h1v1H44zM54 121h2v1H54zM58 121h1v1H58zM165 121h1v1H165zM169 121h1v1H169zM171 121h1v1H171zM175 121h1v1H175zM179 121h1v1H179zM183 121h1v1H183zM187 121h1v1H187zM195 121h1v1H195zM199 121h1v1H199zM201 121h1v1H201zM205 121h1v1H205zM207 121h1v1H207zM211 121h1v1H211zM215 121h1v1H215zM229 121h1v1H229zM232 121h3v1H232zM252 121h1v1H252zM262 121h3v1H262zM267 121h5v1H267zM274 121h1v1H274zM279 121h1v1H279zM283 121h1v1H283zM285 121h4v1H285zM294 121h1v1H294zM1 122h1v1H1zM7 122h1v1H7zM12 122h1v1H12zM14 122h1v1H14zM16 122h1v1H16zM25 122h1v1H25zM27 122h1v1H27zM30 122h1v1H30zM34 122h1v1H34zM37 122h2v1H37zM44 122h1v1H44zM49 122h2v1H49zM54 122h1v1H54zM58 122h1v1H58zM165 122h1v1H165zM169 122h1v1H169zM171 122h1v1H171zM175 122h1v1H175zM179 122h1v1H179zM183 122h1v1H183zM187 122h1v1H187zM195 122h1v1H195zM199 122h1v1H199zM201 122h1v1H201zM205 122h1v1H205zM207 122h1v1H207zM211 122h1v1H211zM215 122h1v1H215zM225 122h1v1H225zM229 122h1v1H229zM235 122h1v1H235zM251 122h1v1H251zM265 122h1v1H265zM267 122h1v1H267zM274 122h1v1H274zM277 122h1v1H277zM279 122h1v1H279zM282 122h2v1H282zM285 122h1v1H285zM294 122h1v1H294zM1 123h1v1H1zM7 123h1v1H7zM13 123h1v1H13zM15 123h1v1H15zM26 123h1v1H26zM31 123h3v1H31zM37 123h2v1H37zM43 123h3v1H43zM49 123h2v1H49zM55 123h3v1H55zM165 123h1v1H165zM169 123h1v1H169zM172 123h3v1H172zM178 123h3v1H178zM184 123h4v1H184zM195 123h4v1H195zM202 123h3v1H202zM208 123h3v1H208zM215 123h1v1H215zM226 123h3v1H226zM231 123h4v1H231zM250 123h1v1H250zM261 123h4v1H261zM268 123h3v1H268zM275 123h2v1H275zM280 123h2v1H280zM283 123h1v1H283zM285 123h1v1H285zM294 123h1v1H294zM1 124h1v1H1zM294 124h1v1H294zM1 125h1v1H1zM294 125h1v1H294zM1 126h294v1H1z"/>

</g>
</svg>
