<svg xmlns="http://www.w3.org/2000/svg" width="888" height="384" viewBox="0 0 296 128" role="img" aria-labelledby="title">
<title id="title">DevDash setup reset NVS failure</title>
<rect width="296" height="128" fill="#fff"/>
<g shape-rendering="crispEdges">
<path fill="#111" d="M1 1h294v1H1zM1 2h1v1H1zM294 2h1v1H294zM1 3h1v1H1zM294 3h1v1H294zM1 4h1v1H1zM6 4h9v1H6zM19 4h3v1H19zM25 4h5v1H25zM31 4h1v1H31zM35 4h1v1H35zM37 4h3v1H37zM44 4h3v1H44zM50 4h4v1H50zM55 4h1v1H55zM59 4h1v1H59zM225 4h4v1H225zM230 4h5v1H230zM236 4h5v1H236zM242 4h1v1H242zM246 4h1v1H246zM248 4h4v1H248zM260 4h4v1H260zM266 4h5v1H266zM273 4h4v1H273zM278 4h5v1H278zM284 4h5v1H284zM294 4h1v1H294zM1 5h1v1H1zM6 5h9v1H6zM19 5h1v1H19zM22 5h1v1H22zM25 5h1v1H25zM31 5h1v1H31zM35 5h1v1H35zM37 5h1v1H37zM40 5h1v1H40zM43 5h1v1H43zM47 5h1v1H47zM49 5h1v1H49zM55 5h1v1H55zM59 5h1v1H59zM224 5h1v1H224zM230 5h1v1H230zM238 5h1v1H238zM242 5h1v1H242zM246 5h1v1H246zM248 5h1v1H248zM252 5h1v1H252zM260 5h1v1H260zM264 5h1v1H264zM266 5h1v1H266zM272 5h1v1H272zM278 5h1v1H278zM286 5h1v1H286zM294 5h1v1H294zM1 6h1v1H1zM6 6h2v1H6zM13 6h2v1H13zM19 6h1v1H19zM23 6h1v1H23zM25 6h1v1H25zM31 6h1v1H31zM35 6h1v1H35zM37 6h1v1H37zM41 6h1v1H41zM43 6h1v1H43zM47 6h1v1H47zM49 6h1v1H49zM55 6h1v1H55zM59 6h1v1H59zM224 6h1v1H224zM230 6h1v1H230zM238 6h1v1H238zM242 6h1v1H242zM246 6h1v1H246zM248 6h1v1H248zM252 6h1v1H252zM260 6h1v1H260zM264 6h1v1H264zM266 6h1v1H266zM272 6h1v1H272zM278 6h1v1H278zM286 6h1v1H286zM294 6h1v1H294zM1 7h1v1H1zM6 7h2v1H6zM9 7h3v1H9zM13 7h2v1H13zM19 7h1v1H19zM23 7h1v1H23zM25 7h4v1H25zM31 7h1v1H31zM35 7h1v1H35zM37 7h1v1H37zM41 7h1v1H41zM43 7h1v1H43zM47 7h1v1H47zM50 7h3v1H50zM55 7h5v1H55zM225 7h3v1H225zM230 7h4v1H230zM238 7h1v1H238zM242 7h1v1H242zM246 7h1v1H246zM248 7h4v1H248zM260 7h4v1H260zM266 7h4v1H266zM273 7h3v1H273zM278 7h4v1H278zM286 7h1v1H286zM294 7h1v1H294zM1 8h1v1H1zM6 8h2v1H6zM9 8h3v1H9zM13 8h2v1H13zM19 8h1v1H19zM23 8h1v1H23zM25 8h1v1H25zM31 8h1v1H31zM35 8h1v1H35zM37 8h1v1H37zM41 8h1v1H41zM43 8h5v1H43zM53 8h1v1H53zM55 8h1v1H55zM59 8h1v1H59zM228 8h1v1H228zM230 8h1v1H230zM238 8h1v1H238zM242 8h1v1H242zM246 8h1v1H246zM248 8h1v1H248zM260 8h1v1H260zM262 8h1v1H262zM266 8h1v1H266zM276 8h1v1H276zM278 8h1v1H278zM286 8h1v1H286zM294 8h1v1H294zM1 9h1v1H1zM6 9h2v1H6zM9 9h3v1H9zM13 9h2v1H13zM19 9h1v1H19zM22 9h1v1H22zM25 9h1v1H25zM32 9h1v1H32zM34 9h1v1H34zM37 9h1v1H37zM40 9h1v1H40zM43 9h1v1H43zM47 9h1v1H47zM53 9h1v1H53zM55 9h1v1H55zM59 9h1v1H59zM228 9h1v1H228zM230 9h1v1H230zM238 9h1v1H238zM242 9h1v1H242zM246 9h1v1H246zM248 9h1v1H248zM260 9h1v1H260zM263 9h1v1H263zM266 9h1v1H266zM276 9h1v1H276zM278 9h1v1H278zM286 9h1v1H286zM294 9h1v1H294zM1 10h1v1H1zM6 10h2v1H6zM13 10h2v1H13zM19 10h3v1H19zM25 10h5v1H25zM33 10h1v1H33zM37 10h3v1H37zM43 10h1v1H43zM47 10h1v1H47zM49 10h4v1H49zM55 10h1v1H55zM59 10h1v1H59zM224 10h4v1H224zM230 10h5v1H230zM238 10h1v1H238zM243 10h3v1H243zM248 10h1v1H248zM260 10h1v1H260zM264 10h1v1H264zM266 10h5v1H266zM272 10h4v1H272zM278 10h5v1H278zM286 10h1v1H286zM294 10h1v1H294zM1 11h1v1H1zM6 11h9v1H6zM294 11h1v1H294zM1 12h1v1H1zM6 12h9v1H6zM294 12h1v1H294zM1 13h1v1H1zM294 13h1v1H294zM1 14h1v1H1zM294 14h1v1H294zM1 15h294v1H1zM1 16h1v1H1zM294 16h1v1H294zM1 17h1v1H1zM294 17h1v1H294zM1 18h1v1H1zM294 18h1v1H294zM1 19h1v1H1zM294 19h1v1H294zM1 20h1v1H1zM294 20h1v1H294zM1 21h1v1H1zM294 21h1v1H294zM1 22h1v1H1zM294 22h1v1H294zM1 23h1v1H1zM294 23h1v1H294zM1 24h1v1H1zM294 24h1v1H294zM1 25h1v1H1zM294 25h1v1H294zM1 26h1v1H1zM294 26h1v1H294zM1 27h1v1H1zM294 27h1v1H294zM1 28h1v1H1zM294 28h1v1H294zM1 29h1v1H1zM294 29h1v1H294zM1 30h1v1H1zM294 30h1v1H294zM1 31h1v1H1zM294 31h1v1H294zM1 32h1v1H1zM294 32h1v1H294zM1 33h1v1H1zM294 33h1v1H294zM1 34h1v1H1zM294 34h1v1H294zM1 35h1v1H1zM294 35h1v1H294zM1 36h1v1H1zM294 36h1v1H294zM1 37h1v1H1zM294 37h1v1H294zM1 38h1v1H1zM294 38h1v1H294zM1 39h1v1H1zM294 39h1v1H294zM1 40h1v1H1zM294 40h1v1H294zM1 41h1v1H1zM294 41h1v1H294zM1 42h1v1H1zM52 42h2v1H52zM60 42h2v1H60zM64 42h2v1H64zM72 42h2v1H72zM78 42h8v1H78zM100 42h2v1H100zM108 42h2v1H108zM112 42h8v1H112zM126 42h6v1H126zM136 42h10v1H136zM148 42h10v1H148zM172 42h10v1H172zM186 42h6v1H186zM198 42h6v1H198zM208 42h2v1H208zM220 42h10v1H220zM232 42h6v1H232zM294 42h1v1H294zM1 43h1v1H1zM52 43h2v1H52zM60 43h2v1H60zM64 43h2v1H64zM72 43h2v1H72zM78 43h8v1H78zM100 43h2v1H100zM108 43h2v1H108zM112 43h8v1H112zM126 43h6v1H126zM136 43h10v1H136zM148 43h10v1H148zM172 43h10v1H172zM186 43h6v1H186zM198 43h6v1H198zM208 43h2v1H208zM220 43h10v1H220zM232 43h6v1H232zM294 43h1v1H294zM1 44h1v1H1zM52 44h2v1H52zM60 44h2v1H60zM64 44h2v1H64zM72 44h2v1H72zM76 44h2v1H76zM100 44h2v1H100zM108 44h2v1H108zM112 44h2v1H112zM120 44h2v1H120zM128 44h2v1H128zM140 44h2v1H140zM148 44h2v1H148zM172 44h2v1H172zM184 44h2v1H184zM192 44h2v1H192zM200 44h2v1H200zM208 44h2v1H208zM220 44h2v1H220zM232 44h2v1H232zM238 44h2v1H238zM294 44h1v1H294zM1 45h1v1H1zM52 45h2v1H52zM60 45h2v1H60zM64 45h2v1H64zM72 45h2v1H72zM76 45h2v1H76zM100 45h2v1H100zM108 45h2v1H108zM112 45h2v1H112zM120 45h2v1H120zM128 45h2v1H128zM140 45h2v1H140zM148 45h2v1H148zM172 45h2v1H172zM184 45h2v1H184zM192 45h2v1H192zM200 45h2v1H200zM208 45h2v1H208zM220 45h2v1H220zM232 45h2v1H232zM238 45h2v1H238zM294 45h1v1H294zM1 46h1v1H1zM52 46h4v1H52zM60 46h2v1H60zM64 46h2v1H64zM72 46h2v1H72zM76 46h2v1H76zM100 46h2v1H100zM108 46h2v1H108zM112 46h2v1H112zM120 46h2v1H120zM128 46h2v1H128zM140 46h2v1H140zM148 46h2v1H148zM172 46h2v1H172zM184 46h2v1H184zM192 46h2v1H192zM200 46h2v1H200zM208 46h2v1H208zM220 46h2v1H220zM232 46h2v1H232zM240 46h2v1H240zM294 46h1v1H294zM1 47h1v1H1zM52 47h4v1H52zM60 47h2v1H60zM64 47h2v1H64zM72 47h2v1H72zM76 47h2v1H76zM100 47h2v1H100zM108 47h2v1H108zM112 47h2v1H112zM120 47h2v1H120zM128 47h2v1H128zM140 47h2v1H140zM148 47h2v1H148zM172 47h2v1H172zM184 47h2v1H184zM192 47h2v1H192zM200 47h2v1H200zM208 47h2v1H208zM220 47h2v1H220zM232 47h2v1H232zM240 47h2v1H240zM294 47h1v1H294zM1 48h1v1H1zM52 48h2v1H52zM56 48h2v1H56zM60 48h2v1H60zM64 48h2v1H64zM72 48h2v1H72zM78 48h6v1H78zM100 48h2v1H100zM104 48h2v1H104zM108 48h2v1H108zM112 48h8v1H112zM128 48h2v1H128zM140 48h2v1H140zM148 48h8v1H148zM172 48h8v1H172zM184 48h2v1H184zM192 48h2v1H192zM200 48h2v1H200zM208 48h2v1H208zM220 48h8v1H220zM232 48h2v1H232zM240 48h2v1H240zM294 48h1v1H294zM1 49h1v1H1zM52 49h2v1H52zM56 49h2v1H56zM60 49h2v1H60zM64 49h2v1H64zM72 49h2v1H72zM78 49h6v1H78zM100 49h2v1H100zM104 49h2v1H104zM108 49h2v1H108zM112 49h8v1H112zM128 49h2v1H128zM140 49h2v1H140zM148 49h8v1H148zM172 49h8v1H172zM184 49h2v1H184zM192 49h2v1H192zM200 49h2v1H200zM208 49h2v1H208zM220 49h8v1H220zM232 49h2v1H232zM240 49h2v1H240zM294 49h1v1H294zM1 50h1v1H1zM52 50h2v1H52zM58 50h4v1H58zM64 50h2v1H64zM72 50h2v1H72zM84 50h2v1H84zM100 50h2v1H100zM104 50h2v1H104zM108 50h2v1H108zM112 50h2v1H112zM116 50h2v1H116zM128 50h2v1H128zM140 50h2v1H140zM148 50h2v1H148zM172 50h2v1H172zM184 50h10v1H184zM200 50h2v1H200zM208 50h2v1H208zM220 50h2v1H220zM232 50h2v1H232zM240 50h2v1H240zM294 50h1v1H294zM1 51h1v1H1zM52 51h2v1H52zM58 51h4v1H58zM64 51h2v1H64zM72 51h2v1H72zM84 51h2v1H84zM100 51h2v1H100zM104 51h2v1H104zM108 51h2v1H108zM112 51h2v1H112zM116 51h2v1H116zM128 51h2v1H128zM140 51h2v1H140zM148 51h2v1H148zM172 51h2v1H172zM184 51h10v1H184zM200 51h2v1H200zM208 51h2v1H208zM220 51h2v1H220zM232 51h2v1H232zM240 51h2v1H240zM294 51h1v1H294zM1 52h1v1H1zM52 52h2v1H52zM60 52h2v1H60zM66 52h2v1H66zM70 52h2v1H70zM84 52h2v1H84zM100 52h2v1H100zM104 52h2v1H104zM108 52h2v1H108zM112 52h2v1H112zM118 52h2v1H118zM128 52h2v1H128zM140 52h2v1H140zM148 52h2v1H148zM172 52h2v1H172zM184 52h2v1H184zM192 52h2v1H192zM200 52h2v1H200zM208 52h2v1H208zM220 52h2v1H220zM232 52h2v1H232zM238 52h2v1H238zM294 52h1v1H294zM1 53h1v1H1zM52 53h2v1H52zM60 53h2v1H60zM66 53h2v1H66zM70 53h2v1H70zM84 53h2v1H84zM100 53h2v1H100zM104 53h2v1H104zM108 53h2v1H108zM112 53h2v1H112zM118 53h2v1H118zM128 53h2v1H128zM140 53h2v1H140zM148 53h2v1H148zM172 53h2v1H172zM184 53h2v1H184zM192 53h2v1H192zM200 53h2v1H200zM208 53h2v1H208zM220 53h2v1H220zM232 53h2v1H232zM238 53h2v1H238zM294 53h1v1H294zM1 54h1v1H1zM52 54h2v1H52zM60 54h2v1H60zM68 54h2v1H68zM76 54h8v1H76zM102 54h2v1H102zM106 54h2v1H106zM112 54h2v1H112zM120 54h2v1H120zM126 54h6v1H126zM140 54h2v1H140zM148 54h10v1H148zM172 54h2v1H172zM184 54h2v1H184zM192 54h2v1H192zM198 54h6v1H198zM208 54h10v1H208zM220 54h10v1H220zM232 54h6v1H232zM294 54h1v1H294zM1 55h1v1H1zM52 55h2v1H52zM60 55h2v1H60zM68 55h2v1H68zM76 55h8v1H76zM102 55h2v1H102zM106 55h2v1H106zM112 55h2v1H112zM120 55h2v1H120zM126 55h6v1H126zM140 55h2v1H140zM148 55h10v1H148zM172 55h2v1H172zM184 55h2v1H184zM192 55h2v1H192zM198 55h6v1H198zM208 55h10v1H208zM220 55h10v1H220zM232 55h6v1H232zM294 55h1v1H294zM1 56h1v1H1zM294 56h1v1H294zM1 57h1v1H1zM294 57h1v1H294zM1 58h1v1H1zM294 58h1v1H294zM1 59h1v1H1zM294 59h1v1H294zM1 60h1v1H1zM294 60h1v1H294zM1 61h1v1H1zM294 61h1v1H294zM1 62h1v1H1zM294 62h1v1H294zM1 63h1v1H1zM294 63h1v1H294zM1 64h1v1H1zM294 64h1v1H294zM1 65h1v1H1zM294 65h1v1H294zM1 66h1v1H1zM78 66h2v1H78zM84 66h1v1H84zM113 66h1v1H113zM131 66h2v1H131zM164 66h1v1H164zM210 66h2v1H210zM221 66h2v1H221zM227 66h2v1H227zM233 66h3v1H233zM294 66h1v1H294zM1 67h1v1H1zM77 67h1v1H77zM80 67h1v1H80zM89 67h4v1H89zM113 67h1v1H113zM132 67h1v1H132zM164 67h1v1H164zM209 67h1v1H209zM212 67h1v1H212zM222 67h1v1H222zM228 67h1v1H228zM232 67h1v1H232zM236 67h1v1H236zM294 67h1v1H294zM1 68h1v1H1zM59 68h3v1H59zM65 68h3v1H65zM70 68h1v1H70zM72 68h2v1H72zM77 68h1v1H77zM83 68h2v1H83zM88 68h1v1H88zM92 68h1v1H92zM100 68h1v1H100zM102 68h2v1H102zM107 68h3v1H107zM112 68h3v1H112zM125 68h3v1H125zM132 68h1v1H132zM137 68h3v1H137zM143 68h3v1H143zM148 68h1v1H148zM150 68h2v1H150zM155 68h3v1H155zM161 68h2v1H161zM164 68h1v1H164zM184 68h1v1H184zM186 68h2v1H186zM190 68h1v1H190zM194 68h1v1H194zM197 68h3v1H197zM209 68h1v1H209zM214 68h1v1H214zM218 68h1v1H218zM222 68h1v1H222zM228 68h1v1H228zM236 68h1v1H236zM294 68h1v1H294zM1 69h1v1H1zM58 69h1v1H58zM64 69h1v1H64zM68 69h1v1H68zM70 69h2v1H70zM74 69h1v1H74zM76 69h3v1H76zM84 69h1v1H84zM88 69h1v1H88zM92 69h1v1H92zM100 69h2v1H100zM104 69h1v1H104zM106 69h1v1H106zM110 69h1v1H110zM113 69h1v1H113zM124 69h1v1H124zM132 69h1v1H132zM136 69h1v1H136zM140 69h1v1H140zM146 69h1v1H146zM148 69h2v1H148zM152 69h1v1H152zM154 69h1v1H154zM158 69h1v1H158zM160 69h1v1H160zM163 69h2v1H163zM172 69h5v1H172zM184 69h2v1H184zM188 69h1v1H188zM190 69h1v1H190zM194 69h1v1H194zM196 69h1v1H196zM208 69h3v1H208zM214 69h1v1H214zM218 69h1v1H218zM222 69h1v1H222zM228 69h1v1H228zM235 69h1v1H235zM294 69h1v1H294zM1 70h1v1H1zM58 70h1v1H58zM64 70h1v1H64zM68 70h1v1H68zM70 70h1v1H70zM74 70h1v1H74zM77 70h1v1H77zM84 70h1v1H84zM89 70h4v1H89zM100 70h1v1H100zM104 70h1v1H104zM106 70h1v1H106zM110 70h1v1H110zM113 70h1v1H113zM124 70h1v1H124zM132 70h1v1H132zM136 70h5v1H136zM143 70h4v1H143zM148 70h1v1H148zM154 70h5v1H154zM160 70h1v1H160zM164 70h1v1H164zM184 70h1v1H184zM188 70h1v1H188zM190 70h1v1H190zM194 70h1v1H194zM197 70h3v1H197zM209 70h1v1H209zM214 70h1v1H214zM218 70h1v1H218zM222 70h1v1H222zM228 70h1v1H228zM234 70h1v1H234zM294 70h1v1H294zM1 71h1v1H1zM58 71h1v1H58zM62 71h1v1H62zM64 71h1v1H64zM68 71h1v1H68zM70 71h1v1H70zM74 71h1v1H74zM77 71h1v1H77zM84 71h1v1H84zM92 71h1v1H92zM100 71h1v1H100zM104 71h1v1H104zM106 71h1v1H106zM110 71h1v1H110zM113 71h1v1H113zM116 71h1v1H116zM124 71h1v1H124zM128 71h1v1H128zM132 71h1v1H132zM136 71h1v1H136zM142 71h1v1H142zM146 71h1v1H146zM148 71h1v1H148zM154 71h1v1H154zM160 71h1v1H160zM164 71h1v1H164zM184 71h1v1H184zM188 71h1v1H188zM191 71h1v1H191zM193 71h1v1H193zM200 71h1v1H200zM209 71h1v1H209zM214 71h1v1H214zM217 71h2v1H217zM222 71h1v1H222zM228 71h1v1H228zM294 71h1v1H294zM1 72h1v1H1zM59 72h3v1H59zM65 72h3v1H65zM70 72h1v1H70zM74 72h1v1H74zM77 72h1v1H77zM83 72h3v1H83zM89 72h3v1H89zM100 72h1v1H100zM104 72h1v1H104zM107 72h3v1H107zM114 72h2v1H114zM125 72h3v1H125zM131 72h3v1H131zM137 72h3v1H137zM143 72h4v1H143zM148 72h1v1H148zM155 72h3v1H155zM161 72h4v1H161zM184 72h1v1H184zM188 72h1v1H188zM192 72h1v1H192zM196 72h4v1H196zM209 72h1v1H209zM215 72h2v1H215zM218 72h1v1H218zM221 72h3v1H221zM227 72h3v1H227zM234 72h1v1H234zM294 72h1v1H294zM1 73h1v1H1zM294 73h1v1H294zM1 74h1v1H1zM294 74h1v1H294zM1 75h1v1H1zM294 75h1v1H294zM1 76h1v1H1zM294 76h1v1H294zM1 77h1v1H1zM294 77h1v1H294zM1 78h1v1H1zM294 78h1v1H294zM1 79h1v1H1zM294 79h1v1H294zM1 80h1v1H1zM294 80h1v1H294zM1 81h1v1H1zM294 81h1v1H294zM1 82h1v1H1zM294 82h1v1H294zM1 83h1v1H1zM294 83h1v1H294zM1 84h1v1H1zM294 84h1v1H294zM1 85h1v1H1zM294 85h1v1H294zM1 86h1v1H1zM294 86h1v1H294zM1 87h1v1H1zM294 87h1v1H294zM1 88h1v1H1zM294 88h1v1H294zM1 89h1v1H1zM294 89h1v1H294zM1 90h1v1H1zM294 90h1v1H294zM1 91h1v1H1zM294 91h1v1H294zM1 92h1v1H1zM294 92h1v1H294zM1 93h1v1H1zM294 93h1v1H294zM1 94h1v1H1zM294 94h1v1H294zM1 95h1v1H1zM294 95h1v1H294zM1 96h1v1H1zM294 96h1v1H294zM1 97h1v1H1zM294 97h1v1H294zM1 98h1v1H1zM294 98h1v1H294zM1 99h1v1H1zM294 99h1v1H294zM1 100h1v1H1zM294 100h1v1H294zM1 101h1v1H1zM294 101h1v1H294zM1 102h1v1H1zM294 102h1v1H294zM1 103h1v1H1zM294 103h1v1H294zM1 104h294v1H1zM1 105h1v1H1zM294 105h1v1H294zM1 106h1v1H1zM294 106h1v1H294zM1 107h1v1H1zM294 107h1v1H294zM1 108h1v1H1zM294 108h1v1H294zM1 109h1v1H1zM294 109h1v1H294zM1 110h1v1H1zM294 110h1v1H294zM1 111h1v1H1zM294 111h1v1H294zM1 112h1v1H1zM294 112h1v1H294zM1 113h1v1H1zM294 113h1v1H294zM1 114h1v1H1zM294 114h1v1H294zM1 115h1v1H1zM58 115h4v1H58zM65 115h3v1H65zM71 115h3v1H71zM76 115h5v1H76zM100 115h4v1H100zM106 115h5v1H106zM112 115h5v1H112zM118 115h4v1H118zM124 115h1v1H124zM128 115h1v1H128zM148 115h1v1H148zM152 115h1v1H152zM155 115h3v1H155zM161 115h3v1H161zM166 115h5v1H166zM180 115h1v1H180zM185 115h3v1H185zM214 115h4v1H214zM221 115h3v1H221zM227 115h3v1H227zM232 115h1v1H232zM236 115h1v1H236zM294 115h1v1H294zM1 116h1v1H1zM58 116h1v1H58zM62 116h1v1H62zM64 116h1v1H64zM68 116h1v1H68zM70 116h1v1H70zM74 116h1v1H74zM78 116h1v1H78zM100 116h1v1H100zM104 116h1v1H104zM106 116h1v1H106zM114 116h1v1H114zM118 116h1v1H118zM122 116h1v1H122zM124 116h1v1H124zM128 116h1v1H128zM140 116h1v1H140zM148 116h1v1H148zM152 116h1v1H152zM154 116h1v1H154zM158 116h1v1H158zM162 116h1v1H162zM168 116h1v1H168zM179 116h2v1H179zM184 116h1v1H184zM188 116h1v1H188zM214 116h1v1H214zM218 116h1v1H218zM220 116h1v1H220zM224 116h1v1H224zM226 116h1v1H226zM230 116h1v1H230zM232 116h1v1H232zM235 116h1v1H235zM294 116h1v1H294zM1 117h1v1H1zM58 117h1v1H58zM62 117h1v1H62zM64 117h1v1H64zM68 117h1v1H68zM70 117h1v1H70zM74 117h1v1H74zM78 117h1v1H78zM88 117h5v1H88zM100 117h1v1H100zM104 117h1v1H104zM106 117h1v1H106zM114 117h1v1H114zM118 117h1v1H118zM122 117h1v1H122zM124 117h1v1H124zM128 117h1v1H128zM139 117h1v1H139zM148 117h1v1H148zM152 117h1v1H152zM154 117h1v1H154zM158 117h1v1H158zM162 117h1v1H162zM168 117h1v1H168zM180 117h1v1H180zM184 117h1v1H184zM187 117h2v1H187zM191 117h3v1H191zM202 117h5v1H202zM214 117h1v1H214zM218 117h1v1H218zM220 117h1v1H220zM224 117h1v1H224zM226 117h1v1H226zM232 117h1v1H232zM234 117h1v1H234zM294 117h1v1H294zM1 118h1v1H1zM58 118h4v1H58zM64 118h1v1H64zM68 118h1v1H68zM70 118h1v1H70zM74 118h1v1H74zM78 118h1v1H78zM100 118h4v1H100zM106 118h4v1H106zM114 118h1v1H114zM118 118h4v1H118zM125 118h1v1H125zM127 118h1v1H127zM138 118h1v1H138zM148 118h1v1H148zM150 118h1v1H150zM152 118h1v1H152zM154 118h1v1H154zM158 118h1v1H158zM162 118h1v1H162zM168 118h1v1H168zM180 118h1v1H180zM184 118h1v1H184zM186 118h1v1H186zM188 118h1v1H188zM190 118h1v1H190zM214 118h4v1H214zM220 118h1v1H220zM224 118h1v1H224zM226 118h1v1H226zM232 118h2v1H232zM294 118h1v1H294zM1 119h1v1H1zM58 119h1v1H58zM62 119h1v1H62zM64 119h1v1H64zM68 119h1v1H68zM70 119h1v1H70zM74 119h1v1H74zM78 119h1v1H78zM88 119h5v1H88zM100 119h1v1H100zM102 119h1v1H102zM106 119h1v1H106zM114 119h1v1H114zM118 119h1v1H118zM120 119h1v1H120zM126 119h1v1H126zM137 119h1v1H137zM148 119h1v1H148zM150 119h1v1H150zM152 119h1v1H152zM154 119h5v1H154zM162 119h1v1H162zM168 119h1v1H168zM180 119h1v1H180zM184 119h2v1H184zM188 119h1v1H188zM191 119h3v1H191zM202 119h5v1H202zM214 119h1v1H214zM218 119h1v1H218zM220 119h5v1H220zM226 119h1v1H226zM232 119h1v1H232zM234 119h1v1H234zM294 119h1v1H294zM1 120h1v1H1zM58 120h1v1H58zM62 120h1v1H62zM64 120h1v1H64zM68 120h1v1H68zM70 120h1v1H70zM74 120h1v1H74zM78 120h1v1H78zM100 120h1v1H100zM103 120h1v1H103zM106 120h1v1H106zM114 120h1v1H114zM118 120h1v1H118zM121 120h1v1H121zM126 120h1v1H126zM136 120h1v1H136zM148 120h1v1H148zM150 120h1v1H150zM152 120h1v1H152zM154 120h1v1H154zM158 120h1v1H158zM162 120h1v1H162zM168 120h1v1H168zM180 120h1v1H180zM184 120h1v1H184zM188 120h1v1H188zM194 120h1v1H194zM214 120h1v1H214zM218 120h1v1H218zM220 120h1v1H220zM224 120h1v1H224zM226 120h1v1H226zM230 120h1v1H230zM232 120h1v1H232zM235 120h1v1H235zM294 120h1v1H294zM1 121h1v1H1zM58 121h4v1H58zM65 121h3v1H65zM71 121h3v1H71zM78 121h1v1H78zM100 121h1v1H100zM104 121h1v1H104zM106 121h5v1H106zM114 121h1v1H114zM118 121h1v1H118zM122 121h1v1H122zM126 121h1v1H126zM149 121h1v1H149zM151 121h1v1H151zM154 121h1v1H154zM158 121h1v1H158zM161 121h3v1H161zM168 121h1v1H168zM179 121h3v1H179zM185 121h3v1H185zM190 121h4v1H190zM214 121h4v1H214zM220 121h1v1H220zM224 121h1v1H224zM227 121h3v1H227zM232 121h1v1H232zM236 121h1v1H236zM294 121h1v1H294zM1 122h1v1H1zM294 122h1v1H294zM1 123h1v1H1zM294 123h1v1H294zM1 124h1v1H1zM294 124h1v1H294zM1 125h1v1H1zM294 125h1v1H294zM1 126h294v1H1z"/>

</g>
</svg>
