<svg xmlns="http://www.w3.org/2000/svg" width="888" height="384" viewBox="0 0 296 128" role="img" aria-labelledby="title">
<title id="title">DevDash config reset done</title>
<rect width="296" height="128" fill="#fff"/>
<g shape-rendering="crispEdges">
<path fill="#111" d="M1 1h294v1H1zM1 2h1v1H1zM294 2h1v1H294zM1 3h1v1H1zM294 3h1v1H294zM1 4h1v1H1zM6 4h9v1H6zM19 4h3v1H19zM25 4h5v1H25zM31 4h1v1H31zM35 4h1v1H35zM37 4h3v1H37zM44 4h3v1H44zM50 4h4v1H50zM55 4h1v1H55zM59 4h1v1H59zM219 4h3v1H219zM225 4h3v1H225zM230 4h1v1H230zM234 4h1v1H234zM236 4h5v1H236zM243 4h3v1H243zM249 4h3v1H249zM260 4h4v1H260zM266 4h5v1H266zM273 4h4v1H273zM278 4h5v1H278zM284 4h5v1H284zM294 4h1v1H294zM1 5h1v1H1zM6 5h9v1H6zM19 5h1v1H19zM22 5h1v1H22zM25 5h1v1H25zM31 5h1v1H31zM35 5h1v1H35zM37 5h1v1H37zM40 5h1v1H40zM43 5h1v1H43zM47 5h1v1H47zM49 5h1v1H49zM55 5h1v1H55zM59 5h1v1H59zM218 5h1v1H218zM222 5h1v1H222zM224 5h1v1H224zM228 5h1v1H228zM230 5h1v1H230zM234 5h1v1H234zM236 5h1v1H236zM244 5h1v1H244zM248 5h1v1H248zM252 5h1v1H252zM260 5h1v1H260zM264 5h1v1H264zM266 5h1v1H266zM272 5h1v1H272zM278 5h1v1H278zM286 5h1v1H286zM294 5h1v1H294zM1 6h1v1H1zM6 6h2v1H6zM13 6h2v1H13zM19 6h1v1H19zM23 6h1v1H23zM25 6h1v1H25zM31 6h1v1H31zM35 6h1v1H35zM37 6h1v1H37zM41 6h1v1H41zM43 6h1v1H43zM47 6h1v1H47zM49 6h1v1H49zM55 6h1v1H55zM59 6h1v1H59zM218 6h1v1H218zM224 6h1v1H224zM228 6h1v1H228zM230 6h2v1H230zM234 6h1v1H234zM236 6h1v1H236zM244 6h1v1H244zM248 6h1v1H248zM260 6h1v1H260zM264 6h1v1H264zM266 6h1v1H266zM272 6h1v1H272zM278 6h1v1H278zM286 6h1v1H286zM294 6h1v1H294zM1 7h1v1H1zM6 7h2v1H6zM9 7h3v1H9zM13 7h2v1H13zM19 7h1v1H19zM23 7h1v1H23zM25 7h4v1H25zM31 7h1v1H31zM35 7h1v1H35zM37 7h1v1H37zM41 7h1v1H41zM43 7h1v1H43zM47 7h1v1H47zM50 7h3v1H50zM55 7h5v1H55zM218 7h1v1H218zM224 7h1v1H224zM228 7h1v1H228zM230 7h1v1H230zM232 7h1v1H232zM234 7h1v1H234zM236 7h4v1H236zM244 7h1v1H244zM248 7h1v1H248zM250 7h3v1H250zM260 7h4v1H260zM266 7h4v1H266zM273 7h3v1H273zM278 7h4v1H278zM286 7h1v1H286zM294 7h1v1H294zM1 8h1v1H1zM6 8h2v1H6zM9 8h3v1H9zM13 8h2v1H13zM19 8h1v1H19zM23 8h1v1H23zM25 8h1v1H25zM31 8h1v1H31zM35 8h1v1H35zM37 8h1v1H37zM41 8h1v1H41zM43 8h5v1H43zM53 8h1v1H53zM55 8h1v1H55zM59 8h1v1H59zM218 8h1v1H218zM224 8h1v1H224zM228 8h1v1H228zM230 8h1v1H230zM233 8h2v1H233zM236 8h1v1H236zM244 8h1v1H244zM248 8h1v1H248zM252 8h1v1H252zM260 8h1v1H260zM262 8h1v1H262zM266 8h1v1H266zM276 8h1v1H276zM278 8h1v1H278zM286 8h1v1H286zM294 8h1v1H294zM1 9h1v1H1zM6 9h2v1H6zM9 9h3v1H9zM13 9h2v1H13zM19 9h1v1H19zM22 9h1v1H22zM25 9h1v1H25zM32 9h1v1H32zM34 9h1v1H34zM37 9h1v1H37zM40 9h1v1H40zM43 9h1v1H43zM47 9h1v1H47zM53 9h1v1H53zM55 9h1v1H55zM59 9h1v1H59zM218 9h1v1H218zM222 9h1v1H222zM224 9h1v1H224zM228 9h1v1H228zM230 9h1v1H230zM234 9h1v1H234zM236 9h1v1H236zM244 9h1v1H244zM248 9h1v1H248zM252 9h1v1H252zM260 9h1v1H260zM263 9h1v1H263zM266 9h1v1H266zM276 9h1v1H276zM278 9h1v1H278zM286 9h1v1H286zM294 9h1v1H294zM1 10h1v1H1zM6 10h2v1H6zM13 10h2v1H13zM19 10h3v1H19zM25 10h5v1H25zM33 10h1v1H33zM37 10h3v1H37zM43 10h1v1H43zM47 10h1v1H47zM49 10h4v1H49zM55 10h1v1H55zM59 10h1v1H59zM219 10h3v1H219zM225 10h3v1H225zM230 10h1v1H230zM234 10h1v1H234zM236 10h1v1H236zM243 10h3v1H243zM249 10h4v1H249zM260 10h1v1H260zM264 10h1v1H264zM266 10h5v1H266zM272 10h4v1H272zM278 10h5v1H278zM286 10h1v1H286zM294 10h1v1H294zM1 11h1v1H1zM6 11h9v1H6zM294 11h1v1H294zM1 12h1v1H1zM6 12h9v1H6zM294 12h1v1H294zM1 13h1v1H1zM294 13h1v1H294zM1 14h1v1H1zM294 14h1v1H294zM1 15h294v1H1zM1 16h1v1H1zM294 16h1v1H294zM1 17h1v1H1zM294 17h1v1H294zM1 18h1v1H1zM294 18h1v1H294zM1 19h1v1H1zM294 19h1v1H294zM1 20h1v1H1zM294 20h1v1H294zM1 21h1v1H1zM294 21h1v1H294zM1 22h1v1H1zM294 22h1v1H294zM1 23h1v1H1zM294 23h1v1H294zM1 24h1v1H1zM294 24h1v1H294zM1 25h1v1H1zM294 25h1v1H294zM1 26h1v1H1zM294 26h1v1H294zM1 27h1v1H1zM294 27h1v1H294zM1 28h1v1H1zM294 28h1v1H294zM1 29h1v1H1zM294 29h1v1H294zM1 30h1v1H1zM294 30h1v1H294zM1 31h1v1H1zM294 31h1v1H294zM1 32h1v1H1zM294 32h1v1H294zM1 33h1v1H1zM294 33h1v1H294zM1 34h1v1H1zM102 34h12v1H102zM129 34h12v1H129zM148 34h4v1H148zM164 34h4v1H164zM171 34h20v1H171zM294 34h1v1H294zM1 35h1v1H1zM102 35h12v1H102zM129 35h12v1H129zM148 35h4v1H148zM164 35h4v1H164zM171 35h20v1H171zM294 35h1v1H294zM1 36h1v1H1zM102 36h12v1H102zM129 36h12v1H129zM148 36h4v1H148zM164 36h4v1H164zM171 36h20v1H171zM294 36h1v1H294zM1 37h1v1H1zM102 37h12v1H102zM129 37h12v1H129zM148 37h4v1H148zM164 37h4v1H164zM171 37h20v1H171zM294 37h1v1H294zM1 38h1v1H1zM102 38h4v1H102zM114 38h4v1H114zM125 38h4v1H125zM141 38h4v1H141zM148 38h4v1H148zM164 38h4v1H164zM171 38h4v1H171zM294 38h1v1H294zM1 39h1v1H1zM102 39h4v1H102zM114 39h4v1H114zM125 39h4v1H125zM141 39h4v1H141zM148 39h4v1H148zM164 39h4v1H164zM171 39h4v1H171zM294 39h1v1H294zM1 40h1v1H1zM102 40h4v1H102zM114 40h4v1H114zM125 40h4v1H125zM141 40h4v1H141zM148 40h4v1H148zM164 40h4v1H164zM171 40h4v1H171zM294 40h1v1H294zM1 41h1v1H1zM102 41h4v1H102zM114 41h4v1H114zM125 41h4v1H125zM141 41h4v1H141zM148 41h4v1H148zM164 41h4v1H164zM171 41h4v1H171zM294 41h1v1H294zM1 42h1v1H1zM102 42h4v1H102zM118 42h4v1H118zM125 42h4v1H125zM141 42h4v1H141zM148 42h8v1H148zM164 42h4v1H164zM171 42h4v1H171zM294 42h1v1H294zM1 43h1v1H1zM102 43h4v1H102zM118 43h4v1H118zM125 43h4v1H125zM141 43h4v1H141zM148 43h8v1H148zM164 43h4v1H164zM171 43h4v1H171zM294 43h1v1H294zM1 44h1v1H1zM102 44h4v1H102zM118 44h4v1H118zM125 44h4v1H125zM141 44h4v1H141zM148 44h8v1H148zM164 44h4v1H164zM171 44h4v1H171zM294 44h1v1H294zM1 45h1v1H1zM102 45h4v1H102zM118 45h4v1H118zM125 45h4v1H125zM141 45h4v1H141zM148 45h8v1H148zM164 45h4v1H164zM171 45h4v1H171zM294 45h1v1H294zM1 46h1v1H1zM102 46h4v1H102zM118 46h4v1H118zM125 46h4v1H125zM141 46h4v1H141zM148 46h4v1H148zM156 46h4v1H156zM164 46h4v1H164zM171 46h16v1H171zM294 46h1v1H294zM1 47h1v1H1zM102 47h4v1H102zM118 47h4v1H118zM125 47h4v1H125zM141 47h4v1H141zM148 47h4v1H148zM156 47h4v1H156zM164 47h4v1H164zM171 47h16v1H171zM294 47h1v1H294zM1 48h1v1H1zM102 48h4v1H102zM118 48h4v1H118zM125 48h4v1H125zM141 48h4v1H141zM148 48h4v1H148zM156 48h4v1H156zM164 48h4v1H164zM171 48h16v1H171zM294 48h1v1H294zM1 49h1v1H1zM102 49h4v1H102zM118 49h4v1H118zM125 49h4v1H125zM141 49h4v1H141zM148 49h4v1H148zM156 49h4v1H156zM164 49h4v1H164zM171 49h16v1H171zM294 49h1v1H294zM1 50h1v1H1zM102 50h4v1H102zM118 50h4v1H118zM125 50h4v1H125zM141 50h4v1H141zM148 50h4v1H148zM160 50h8v1H160zM171 50h4v1H171zM294 50h1v1H294zM1 51h1v1H1zM102 51h4v1H102zM118 51h4v1H118zM125 51h4v1H125zM141 51h4v1H141zM148 51h4v1H148zM160 51h8v1H160zM171 51h4v1H171zM294 51h1v1H294zM1 52h1v1H1zM102 52h4v1H102zM118 52h4v1H118zM125 52h4v1H125zM141 52h4v1H141zM148 52h4v1H148zM160 52h8v1H160zM171 52h4v1H171zM294 52h1v1H294zM1 53h1v1H1zM102 53h4v1H102zM118 53h4v1H118zM125 53h4v1H125zM141 53h4v1H141zM148 53h4v1H148zM160 53h8v1H160zM171 53h4v1H171zM294 53h1v1H294zM1 54h1v1H1zM102 54h4v1H102zM114 54h4v1H114zM125 54h4v1H125zM141 54h4v1H141zM148 54h4v1H148zM164 54h4v1H164zM171 54h4v1H171zM294 54h1v1H294zM1 55h1v1H1zM102 55h4v1H102zM114 55h4v1H114zM125 55h4v1H125zM141 55h4v1H141zM148 55h4v1H148zM164 55h4v1H164zM171 55h4v1H171zM294 55h1v1H294zM1 56h1v1H1zM102 56h4v1H102zM114 56h4v1H114zM125 56h4v1H125zM141 56h4v1H141zM148 56h4v1H148zM164 56h4v1H164zM171 56h4v1H171zM294 56h1v1H294zM1 57h1v1H1zM102 57h4v1H102zM114 57h4v1H114zM125 57h4v1H125zM141 57h4v1H141zM148 57h4v1H148zM164 57h4v1H164zM171 57h4v1H171zM294 57h1v1H294zM1 58h1v1H1zM102 58h12v1H102zM129 58h12v1H129zM148 58h4v1H148zM164 58h4v1H164zM171 58h20v1H171zM294 58h1v1H294zM1 59h1v1H1zM102 59h12v1H102zM129 59h12v1H129zM148 59h4v1H148zM164 59h4v1H164zM171 59h20v1H171zM294 59h1v1H294zM1 60h1v1H1zM102 60h12v1H102zM129 60h12v1H129zM148 60h4v1H148zM164 60h4v1H164zM171 60h20v1H171zM294 60h1v1H294zM1 61h1v1H1zM102 61h12v1H102zM129 61h12v1H129zM148 61h4v1H148zM164 61h4v1H164zM171 61h20v1H171zM294 61h1v1H294zM1 62h1v1H1zM294 62h1v1H294zM1 63h1v1H1zM294 63h1v1H294zM1 64h1v1H1zM294 64h1v1H294zM1 65h1v1H1zM294 65h1v1H294zM1 66h1v1H1zM294 66h1v1H294zM1 67h1v1H1zM294 67h1v1H294zM1 68h1v1H1zM294 68h1v1H294zM1 69h1v1H1zM294 69h1v1H294zM1 70h1v1H1zM294 70h1v1H294zM1 71h1v1H1zM294 71h1v1H294zM1 72h1v1H1zM294 72h1v1H294zM1 73h1v1H1zM294 73h1v1H294zM1 74h1v1H1zM78 74h1v1H78zM84 74h2v1H84zM90 74h1v1H90zM126 74h1v1H126zM155 74h2v1H155zM191 74h2v1H191zM224 74h1v1H224zM294 74h1v1H294zM1 75h1v1H1zM83 75h1v1H83zM86 75h1v1H86zM102 75h1v1H102zM138 75h1v1H138zM156 75h1v1H156zM192 75h1v1H192zM224 75h1v1H224zM294 75h1v1H294zM1 76h1v1H1zM70 76h1v1H70zM74 76h1v1H74zM77 76h2v1H77zM83 76h1v1H83zM89 76h2v1H89zM102 76h1v1H102zM113 76h3v1H113zM118 76h4v1H118zM125 76h2v1H125zM138 76h1v1H138zM149 76h3v1H149zM156 76h1v1H156zM161 76h3v1H161zM167 76h3v1H167zM172 76h4v1H172zM185 76h3v1H185zM192 76h1v1H192zM197 76h3v1H197zM203 76h3v1H203zM208 76h1v1H208zM210 76h2v1H210zM215 76h3v1H215zM221 76h2v1H221zM224 76h1v1H224zM294 76h1v1H294zM1 77h1v1H1zM70 77h1v1H70zM74 77h1v1H74zM78 77h1v1H78zM82 77h3v1H82zM90 77h1v1H90zM100 77h5v1H100zM116 77h1v1H116zM118 77h1v1H118zM122 77h1v1H122zM126 77h1v1H126zM136 77h5v1H136zM148 77h1v1H148zM156 77h1v1H156zM160 77h1v1H160zM164 77h1v1H164zM166 77h1v1H166zM170 77h1v1H170zM172 77h1v1H172zM176 77h1v1H176zM184 77h1v1H184zM192 77h1v1H192zM196 77h1v1H196zM200 77h1v1H200zM206 77h1v1H206zM208 77h2v1H208zM212 77h1v1H212zM214 77h1v1H214zM218 77h1v1H218zM220 77h1v1H220zM223 77h2v1H223zM294 77h1v1H294zM1 78h1v1H1zM70 78h1v1H70zM74 78h1v1H74zM78 78h1v1H78zM83 78h1v1H83zM90 78h1v1H90zM102 78h1v1H102zM113 78h4v1H113zM118 78h4v1H118zM126 78h1v1H126zM138 78h1v1H138zM149 78h3v1H149zM156 78h1v1H156zM160 78h5v1H160zM166 78h5v1H166zM172 78h4v1H172zM184 78h1v1H184zM192 78h1v1H192zM196 78h5v1H196zM203 78h4v1H203zM208 78h1v1H208zM214 78h5v1H214zM220 78h1v1H220zM224 78h1v1H224zM294 78h1v1H294zM1 79h1v1H1zM70 79h1v1H70zM72 79h1v1H72zM74 79h1v1H74zM78 79h1v1H78zM83 79h1v1H83zM90 79h1v1H90zM102 79h1v1H102zM112 79h1v1H112zM116 79h1v1H116zM118 79h1v1H118zM126 79h1v1H126zM138 79h1v1H138zM152 79h1v1H152zM156 79h1v1H156zM160 79h1v1H160zM166 79h1v1H166zM172 79h1v1H172zM184 79h1v1H184zM188 79h1v1H188zM192 79h1v1H192zM196 79h1v1H196zM202 79h1v1H202zM206 79h1v1H206zM208 79h1v1H208zM214 79h1v1H214zM220 79h1v1H220zM224 79h1v1H224zM294 79h1v1H294zM1 80h1v1H1zM71 80h1v1H71zM73 80h1v1H73zM77 80h3v1H77zM83 80h1v1H83zM89 80h3v1H89zM113 80h4v1H113zM118 80h1v1H118zM125 80h3v1H125zM148 80h4v1H148zM155 80h3v1H155zM161 80h3v1H161zM167 80h3v1H167zM172 80h1v1H172zM185 80h3v1H185zM191 80h3v1H191zM197 80h3v1H197zM203 80h4v1H203zM208 80h1v1H208zM215 80h3v1H215zM221 80h4v1H221zM294 80h1v1H294zM1 81h1v1H1zM294 81h1v1H294zM1 82h1v1H1zM294 82h1v1H294zM1 83h1v1H1zM294 83h1v1H294zM1 84h1v1H1zM294 84h1v1H294zM1 85h1v1H1zM294 85h1v1H294zM1 86h1v1H1zM86 86h2v1H86zM123 86h2v1H123zM145 86h1v1H145zM170 86h1v1H170zM176 86h1v1H176zM183 86h1v1H183zM211 86h1v1H211zM230 86h1v1H230zM294 86h1v1H294zM1 87h1v1H1zM87 87h1v1H87zM99 87h1v1H99zM122 87h1v1H122zM125 87h1v1H125zM145 87h1v1H145zM170 87h1v1H170zM176 87h1v1H176zM194 87h4v1H194zM211 87h1v1H211zM230 87h1v1H230zM294 87h1v1H294zM1 88h1v1H1zM61 88h4v1H61zM68 88h3v1H68zM73 88h1v1H73zM75 88h2v1H75zM80 88h3v1H80zM87 88h1v1H87zM99 88h1v1H99zM109 88h1v1H109zM111 88h2v1H111zM116 88h3v1H116zM122 88h1v1H122zM127 88h1v1H127zM129 88h2v1H129zM134 88h3v1H134zM140 88h3v1H140zM145 88h1v1H145zM147 88h2v1H147zM158 88h3v1H158zM164 88h3v1H164zM169 88h3v1H169zM175 88h3v1H175zM182 88h2v1H182zM187 88h1v1H187zM189 88h2v1H189zM193 88h1v1H193zM197 88h1v1H197zM200 88h3v1H200zM211 88h1v1H211zM214 88h1v1H214zM218 88h3v1H218zM223 88h4v1H223zM229 88h3v1H229zM294 88h1v1H294zM1 89h1v1H1zM61 89h1v1H61zM65 89h1v1H65zM71 89h1v1H71zM73 89h2v1H73zM77 89h1v1H77zM79 89h1v1H79zM83 89h1v1H83zM87 89h1v1H87zM97 89h5v1H97zM109 89h2v1H109zM113 89h1v1H113zM115 89h1v1H115zM119 89h1v1H119zM121 89h3v1H121zM127 89h2v1H127zM131 89h1v1H131zM133 89h1v1H133zM137 89h1v1H137zM139 89h1v1H139zM145 89h2v1H145zM149 89h1v1H149zM157 89h1v1H157zM163 89h1v1H163zM167 89h1v1H167zM170 89h1v1H170zM176 89h1v1H176zM183 89h1v1H183zM187 89h2v1H187zM191 89h1v1H191zM193 89h1v1H193zM197 89h1v1H197zM199 89h1v1H199zM211 89h1v1H211zM213 89h1v1H213zM217 89h1v1H217zM221 89h1v1H221zM223 89h1v1H223zM227 89h1v1H227zM230 89h1v1H230zM294 89h1v1H294zM1 90h1v1H1zM61 90h4v1H61zM68 90h4v1H68zM73 90h1v1H73zM77 90h1v1H77zM79 90h5v1H79zM87 90h1v1H87zM99 90h1v1H99zM109 90h1v1H109zM115 90h5v1H115zM122 90h1v1H122zM127 90h1v1H127zM133 90h5v1H133zM140 90h3v1H140zM145 90h1v1H145zM149 90h1v1H149zM158 90h3v1H158zM163 90h5v1H163zM170 90h1v1H170zM176 90h1v1H176zM183 90h1v1H183zM187 90h1v1H187zM191 90h1v1H191zM194 90h4v1H194zM200 90h3v1H200zM211 90h2v1H211zM217 90h5v1H217zM223 90h4v1H223zM230 90h1v1H230zM294 90h1v1H294zM1 91h1v1H1zM61 91h1v1H61zM67 91h1v1H67zM71 91h1v1H71zM73 91h1v1H73zM77 91h1v1H77zM79 91h1v1H79zM87 91h1v1H87zM99 91h1v1H99zM109 91h1v1H109zM115 91h1v1H115zM122 91h1v1H122zM127 91h1v1H127zM133 91h1v1H133zM143 91h1v1H143zM145 91h1v1H145zM149 91h1v1H149zM161 91h1v1H161zM163 91h1v1H163zM170 91h1v1H170zM173 91h1v1H173zM176 91h1v1H176zM179 91h1v1H179zM183 91h1v1H183zM187 91h1v1H187zM191 91h1v1H191zM197 91h1v1H197zM203 91h1v1H203zM211 91h1v1H211zM213 91h1v1H213zM217 91h1v1H217zM223 91h1v1H223zM230 91h1v1H230zM233 91h1v1H233zM294 91h1v1H294zM1 92h1v1H1zM61 92h1v1H61zM68 92h4v1H68zM73 92h1v1H73zM77 92h1v1H77zM80 92h3v1H80zM86 92h3v1H86zM109 92h1v1H109zM116 92h3v1H116zM122 92h1v1H122zM127 92h1v1H127zM134 92h3v1H134zM139 92h4v1H139zM145 92h1v1H145zM149 92h1v1H149zM157 92h4v1H157zM164 92h3v1H164zM171 92h2v1H171zM177 92h2v1H177zM182 92h3v1H182zM187 92h1v1H187zM191 92h1v1H191zM194 92h3v1H194zM199 92h4v1H199zM211 92h1v1H211zM214 92h1v1H214zM218 92h3v1H218zM223 92h1v1H223zM231 92h2v1H231zM294 92h1v1H294zM1 93h1v1H1zM294 93h1v1H294zM1 94h1v1H1zM294 94h1v1H294zM1 95h1v1H1zM294 95h1v1H294zM1 96h1v1H1zM294 96h1v1H294zM1 97h1v1H1zM294 97h1v1H294zM1 98h1v1H1zM294 98h1v1H294zM1 99h1v1H1zM294 99h1v1H294zM1 100h1v1H1zM294 100h1v1H294zM1 101h1v1H1zM294 101h1v1H294zM1 102h1v1H1zM294 102h1v1H294zM1 103h1v1H1zM294 103h1v1H294zM1 104h294v1H1zM1 105h1v1H1zM294 105h1v1H294zM1 106h1v1H1zM294 106h1v1H294zM1 107h1v1H1zM294 107h1v1H294zM1 108h1v1H1zM294 108h1v1H294zM1 109h1v1H1zM294 109h1v1H294zM1 110h1v1H1zM294 110h1v1H294zM1 111h1v1H1zM294 111h1v1H294zM1 112h1v1H1zM294 112h1v1H294zM1 113h1v1H1zM294 113h1v1H294zM1 114h1v1H1zM294 114h1v1H294zM1 115h1v1H1zM98 115h1v1H98zM123 115h1v1H123zM146 115h1v1H146zM176 115h1v1H176zM294 115h1v1H294zM1 116h1v1H1zM98 116h1v1H98zM134 116h4v1H134zM146 116h1v1H146zM176 116h1v1H176zM294 116h1v1H294zM1 117h1v1H1zM85 117h1v1H85zM87 117h2v1H87zM92 117h3v1H92zM97 117h3v1H97zM103 117h1v1H103zM107 117h1v1H107zM109 117h1v1H109zM111 117h2v1H111zM115 117h1v1H115zM117 117h2v1H117zM122 117h2v1H122zM127 117h1v1H127zM129 117h2v1H129zM133 117h1v1H133zM137 117h1v1H137zM145 117h3v1H145zM152 117h3v1H152zM164 117h3v1H164zM170 117h3v1H170zM175 117h3v1H175zM181 117h1v1H181zM185 117h1v1H185zM187 117h4v1H187zM294 117h1v1H294zM1 118h1v1H1zM85 118h2v1H85zM89 118h1v1H89zM91 118h1v1H91zM95 118h1v1H95zM98 118h1v1H98zM103 118h1v1H103zM107 118h1v1H107zM109 118h2v1H109zM113 118h1v1H113zM115 118h2v1H115zM119 118h1v1H119zM123 118h1v1H123zM127 118h2v1H127zM131 118h1v1H131zM133 118h1v1H133zM137 118h1v1H137zM146 118h1v1H146zM151 118h1v1H151zM155 118h1v1H155zM163 118h1v1H163zM169 118h1v1H169zM173 118h1v1H173zM176 118h1v1H176zM181 118h1v1H181zM185 118h1v1H185zM187 118h1v1H187zM191 118h1v1H191zM294 118h1v1H294zM1 119h1v1H1zM85 119h1v1H85zM91 119h5v1H91zM98 119h1v1H98zM103 119h1v1H103zM107 119h1v1H107zM109 119h1v1H109zM115 119h1v1H115zM119 119h1v1H119zM123 119h1v1H123zM127 119h1v1H127zM131 119h1v1H131zM134 119h4v1H134zM146 119h1v1H146zM151 119h1v1H151zM155 119h1v1H155zM164 119h3v1H164zM169 119h5v1H169zM176 119h1v1H176zM181 119h1v1H181zM185 119h1v1H185zM187 119h4v1H187zM294 119h1v1H294zM1 120h1v1H1zM85 120h1v1H85zM91 120h1v1H91zM98 120h1v1H98zM101 120h1v1H101zM103 120h1v1H103zM106 120h2v1H106zM109 120h1v1H109zM115 120h1v1H115zM119 120h1v1H119zM123 120h1v1H123zM127 120h1v1H127zM131 120h1v1H131zM137 120h1v1H137zM146 120h1v1H146zM149 120h1v1H149zM151 120h1v1H151zM155 120h1v1H155zM167 120h1v1H167zM169 120h1v1H169zM176 120h1v1H176zM179 120h1v1H179zM181 120h1v1H181zM184 120h2v1H184zM187 120h1v1H187zM194 120h2v1H194zM200 120h2v1H200zM206 120h2v1H206zM294 120h1v1H294zM1 121h1v1H1zM85 121h1v1H85zM92 121h3v1H92zM99 121h2v1H99zM104 121h2v1H104zM107 121h1v1H107zM109 121h1v1H109zM115 121h1v1H115zM119 121h1v1H119zM122 121h3v1H122zM127 121h1v1H127zM131 121h1v1H131zM134 121h3v1H134zM147 121h2v1H147zM152 121h3v1H152zM163 121h4v1H163zM170 121h3v1H170zM177 121h2v1H177zM182 121h2v1H182zM185 121h1v1H185zM187 121h1v1H187zM194 121h2v1H194zM200 121h2v1H200zM206 121h2v1H206zM294 121h1v1H294zM1 122h1v1H1zM294 122h1v1H294zM1 123h1v1H1zM294 123h1v1H294zM1 124h1v1H1zM294 124h1v1H294zM1 125h1v1H1zM294 125h1v1H294zM1 126h294v1H1z"/>

</g>
</svg>
