<svg xmlns="http://www.w3.org/2000/svg" width="888" height="384" viewBox="0 0 296 128" role="img" aria-labelledby="title">
<title id="title">DevDash setup reset confirm</title>
<rect width="296" height="128" fill="#fff"/>
<g shape-rendering="crispEdges">
<path fill="#111" d="M1 1h294v1H1zM1 2h1v1H1zM294 2h1v1H294zM1 3h1v1H1zM294 3h1v1H294zM1 4h1v1H1zM6 4h9v1H6zM19 4h3v1H19zM25 4h5v1H25zM31 4h1v1H31zM35 4h1v1H35zM37 4h3v1H37zM44 4h3v1H44zM50 4h4v1H50zM55 4h1v1H55zM59 4h1v1H59zM225 4h4v1H225zM230 4h5v1H230zM236 4h5v1H236zM242 4h1v1H242zM246 4h1v1H246zM248 4h4v1H248zM260 4h4v1H260zM266 4h5v1H266zM273 4h4v1H273zM278 4h5v1H278zM284 4h5v1H284zM294 4h1v1H294zM1 5h1v1H1zM6 5h9v1H6zM19 5h1v1H19zM22 5h1v1H22zM25 5h1v1H25zM31 5h1v1H31zM35 5h1v1H35zM37 5h1v1H37zM40 5h1v1H40zM43 5h1v1H43zM47 5h1v1H47zM49 5h1v1H49zM55 5h1v1H55zM59 5h1v1H59zM224 5h1v1H224zM230 5h1v1H230zM238 5h1v1H238zM242 5h1v1H242zM246 5h1v1H246zM248 5h1v1H248zM252 5h1v1H252zM260 5h1v1H260zM264 5h1v1H264zM266 5h1v1H266zM272 5h1v1H272zM278 5h1v1H278zM286 5h1v1H286zM294 5h1v1H294zM1 6h1v1H1zM6 6h2v1H6zM13 6h2v1H13zM19 6h1v1H19zM23 6h1v1H23zM25 6h1v1H25zM31 6h1v1H31zM35 6h1v1H35zM37 6h1v1H37zM41 6h1v1H41zM43 6h1v1H43zM47 6h1v1H47zM49 6h1v1H49zM55 6h1v1H55zM59 6h1v1H59zM224 6h1v1H224zM230 6h1v1H230zM238 6h1v1H238zM242 6h1v1H242zM246 6h1v1H246zM248 6h1v1H248zM252 6h1v1H252zM260 6h1v1H260zM264 6h1v1H264zM266 6h1v1H266zM272 6h1v1H272zM278 6h1v1H278zM286 6h1v1H286zM294 6h1v1H294zM1 7h1v1H1zM6 7h2v1H6zM9 7h3v1H9zM13 7h2v1H13zM19 7h1v1H19zM23 7h1v1H23zM25 7h4v1H25zM31 7h1v1H31zM35 7h1v1H35zM37 7h1v1H37zM41 7h1v1H41zM43 7h1v1H43zM47 7h1v1H47zM50 7h3v1H50zM55 7h5v1H55zM225 7h3v1H225zM230 7h4v1H230zM238 7h1v1H238zM242 7h1v1H242zM246 7h1v1H246zM248 7h4v1H248zM260 7h4v1H260zM266 7h4v1H266zM273 7h3v1H273zM278 7h4v1H278zM286 7h1v1H286zM294 7h1v1H294zM1 8h1v1H1zM6 8h2v1H6zM9 8h3v1H9zM13 8h2v1H13zM19 8h1v1H19zM23 8h1v1H23zM25 8h1v1H25zM31 8h1v1H31zM35 8h1v1H35zM37 8h1v1H37zM41 8h1v1H41zM43 8h5v1H43zM53 8h1v1H53zM55 8h1v1H55zM59 8h1v1H59zM228 8h1v1H228zM230 8h1v1H230zM238 8h1v1H238zM242 8h1v1H242zM246 8h1v1H246zM248 8h1v1H248zM260 8h1v1H260zM262 8h1v1H262zM266 8h1v1H266zM276 8h1v1H276zM278 8h1v1H278zM286 8h1v1H286zM294 8h1v1H294zM1 9h1v1H1zM6 9h2v1H6zM9 9h3v1H9zM13 9h2v1H13zM19 9h1v1H19zM22 9h1v1H22zM25 9h1v1H25zM32 9h1v1H32zM34 9h1v1H34zM37 9h1v1H37zM40 9h1v1H40zM43 9h1v1H43zM47 9h1v1H47zM53 9h1v1H53zM55 9h1v1H55zM59 9h1v1H59zM228 9h1v1H228zM230 9h1v1H230zM238 9h1v1H238zM242 9h1v1H242zM246 9h1v1H246zM248 9h1v1H248zM260 9h1v1H260zM263 9h1v1H263zM266 9h1v1H266zM276 9h1v1H276zM278 9h1v1H278zM286 9h1v1H286zM294 9h1v1H294zM1 10h1v1H1zM6 10h2v1H6zM13 10h2v1H13zM19 10h3v1H19zM25 10h5v1H25zM33 10h1v1H33zM37 10h3v1H37zM43 10h1v1H43zM47 10h1v1H47zM49 10h4v1H49zM55 10h1v1H55zM59 10h1v1H59zM224 10h4v1H224zM230 10h5v1H230zM238 10h1v1H238zM243 10h3v1H243zM248 10h1v1H248zM260 10h1v1H260zM264 10h1v1H264zM266 10h5v1H266zM272 10h4v1H272zM278 10h5v1H278zM286 10h1v1H286zM294 10h1v1H294zM1 11h1v1H1zM6 11h9v1H6zM294 11h1v1H294zM1 12h1v1H1zM6 12h9v1H6zM294 12h1v1H294zM1 13h1v1H1zM294 13h1v1H294zM1 14h1v1H1zM294 14h1v1H294zM1 15h294v1H1zM1 16h1v1H1zM294 16h1v1H294zM1 17h1v1H1zM294 17h1v1H294zM1 18h1v1H1zM294 18h1v1H294zM1 19h1v1H1zM294 19h1v1H294zM1 20h1v1H1zM294 20h1v1H294zM1 21h1v1H1zM294 21h1v1H294zM1 22h1v1H1zM294 22h1v1H294zM1 23h1v1H1zM294 23h1v1H294zM1 24h1v1H1zM6 24h10v1H6zM20 24h6v1H20zM30 24h8v1H30zM80 24h6v1H80zM92 24h6v1H92zM102 24h2v1H102zM110 24h2v1H110zM114 24h10v1H114zM128 24h6v1H128zM140 24h6v1H140zM162 24h8v1H162zM174 24h10v1H174zM188 24h8v1H188zM198 24h10v1H198zM210 24h10v1H210zM294 24h1v1H294zM1 25h1v1H1zM6 25h10v1H6zM20 25h6v1H20zM30 25h8v1H30zM80 25h6v1H80zM92 25h6v1H92zM102 25h2v1H102zM110 25h2v1H110zM114 25h10v1H114zM128 25h6v1H128zM140 25h6v1H140zM162 25h8v1H162zM174 25h10v1H174zM188 25h8v1H188zM198 25h10v1H198zM210 25h10v1H210zM294 25h1v1H294zM1 26h1v1H1zM10 26h2v1H10zM18 26h2v1H18zM26 26h2v1H26zM30 26h2v1H30zM38 26h2v1H38zM78 26h2v1H78zM86 26h2v1H86zM90 26h2v1H90zM98 26h2v1H98zM102 26h2v1H102zM110 26h2v1H110zM114 26h2v1H114zM130 26h2v1H130zM138 26h2v1H138zM146 26h2v1H146zM162 26h2v1H162zM170 26h2v1H170zM174 26h2v1H174zM186 26h2v1H186zM198 26h2v1H198zM214 26h2v1H214zM294 26h1v1H294zM1 27h1v1H1zM10 27h2v1H10zM18 27h2v1H18zM26 27h2v1H26zM30 27h2v1H30zM38 27h2v1H38zM78 27h2v1H78zM86 27h2v1H86zM90 27h2v1H90zM98 27h2v1H98zM102 27h2v1H102zM110 27h2v1H110zM114 27h2v1H114zM130 27h2v1H130zM138 27h2v1H138zM146 27h2v1H146zM162 27h2v1H162zM170 27h2v1H170zM174 27h2v1H174zM186 27h2v1H186zM198 27h2v1H198zM214 27h2v1H214zM294 27h1v1H294zM1 28h1v1H1zM10 28h2v1H10zM18 28h2v1H18zM26 28h2v1H26zM30 28h2v1H30zM38 28h2v1H38zM54 28h10v1H54zM78 28h2v1H78zM90 28h2v1H90zM98 28h2v1H98zM102 28h4v1H102zM110 28h2v1H110zM114 28h2v1H114zM130 28h2v1H130zM138 28h2v1H138zM162 28h2v1H162zM170 28h2v1H170zM174 28h2v1H174zM186 28h2v1H186zM198 28h2v1H198zM214 28h2v1H214zM294 28h1v1H294zM1 29h1v1H1zM10 29h2v1H10zM18 29h2v1H18zM26 29h2v1H26zM30 29h2v1H30zM38 29h2v1H38zM54 29h10v1H54zM78 29h2v1H78zM90 29h2v1H90zM98 29h2v1H98zM102 29h4v1H102zM110 29h2v1H110zM114 29h2v1H114zM130 29h2v1H130zM138 29h2v1H138zM162 29h2v1H162zM170 29h2v1H170zM174 29h2v1H174zM186 29h2v1H186zM198 29h2v1H198zM214 29h2v1H214zM294 29h1v1H294zM1 30h1v1H1zM10 30h2v1H10zM18 30h2v1H18zM26 30h2v1H26zM30 30h8v1H30zM78 30h2v1H78zM90 30h2v1H90zM98 30h2v1H98zM102 30h2v1H102zM106 30h2v1H106zM110 30h2v1H110zM114 30h8v1H114zM130 30h2v1H130zM138 30h2v1H138zM142 30h6v1H142zM162 30h8v1H162zM174 30h8v1H174zM188 30h6v1H188zM198 30h8v1H198zM214 30h2v1H214zM294 30h1v1H294zM1 31h1v1H1zM10 31h2v1H10zM18 31h2v1H18zM26 31h2v1H26zM30 31h8v1H30zM78 31h2v1H78zM90 31h2v1H90zM98 31h2v1H98zM102 31h2v1H102zM106 31h2v1H106zM110 31h2v1H110zM114 31h8v1H114zM130 31h2v1H130zM138 31h2v1H138zM142 31h6v1H142zM162 31h8v1H162zM174 31h8v1H174zM188 31h6v1H188zM198 31h8v1H198zM214 31h2v1H214zM294 31h1v1H294zM1 32h1v1H1zM10 32h2v1H10zM18 32h10v1H18zM30 32h2v1H30zM54 32h10v1H54zM78 32h2v1H78zM90 32h2v1H90zM98 32h2v1H98zM102 32h2v1H102zM108 32h4v1H108zM114 32h2v1H114zM130 32h2v1H130zM138 32h2v1H138zM146 32h2v1H146zM162 32h2v1H162zM166 32h2v1H166zM174 32h2v1H174zM194 32h2v1H194zM198 32h2v1H198zM214 32h2v1H214zM294 32h1v1H294zM1 33h1v1H1zM10 33h2v1H10zM18 33h10v1H18zM30 33h2v1H30zM54 33h10v1H54zM78 33h2v1H78zM90 33h2v1H90zM98 33h2v1H98zM102 33h2v1H102zM108 33h4v1H108zM114 33h2v1H114zM130 33h2v1H130zM138 33h2v1H138zM146 33h2v1H146zM162 33h2v1H162zM166 33h2v1H166zM174 33h2v1H174zM194 33h2v1H194zM198 33h2v1H198zM214 33h2v1H214zM294 33h1v1H294zM1 34h1v1H1zM10 34h2v1H10zM18 34h2v1H18zM26 34h2v1H26zM30 34h2v1H30zM78 34h2v1H78zM86 34h2v1H86zM90 34h2v1H90zM98 34h2v1H98zM102 34h2v1H102zM110 34h2v1H110zM114 34h2v1H114zM130 34h2v1H130zM138 34h2v1H138zM146 34h2v1H146zM162 34h2v1H162zM168 34h2v1H168zM174 34h2v1H174zM194 34h2v1H194zM198 34h2v1H198zM214 34h2v1H214zM294 34h1v1H294zM1 35h1v1H1zM10 35h2v1H10zM18 35h2v1H18zM26 35h2v1H26zM30 35h2v1H30zM78 35h2v1H78zM86 35h2v1H86zM90 35h2v1H90zM98 35h2v1H98zM102 35h2v1H102zM110 35h2v1H110zM114 35h2v1H114zM130 35h2v1H130zM138 35h2v1H138zM146 35h2v1H146zM162 35h2v1H162zM168 35h2v1H168zM174 35h2v1H174zM194 35h2v1H194zM198 35h2v1H198zM214 35h2v1H214zM294 35h1v1H294zM1 36h1v1H1zM10 36h2v1H10zM18 36h2v1H18zM26 36h2v1H26zM30 36h2v1H30zM80 36h6v1H80zM92 36h6v1H92zM102 36h2v1H102zM110 36h2v1H110zM114 36h2v1H114zM128 36h6v1H128zM140 36h8v1H140zM162 36h2v1H162zM170 36h2v1H170zM174 36h10v1H174zM186 36h8v1H186zM198 36h10v1H198zM214 36h2v1H214zM294 36h1v1H294zM1 37h1v1H1zM10 37h2v1H10zM18 37h2v1H18zM26 37h2v1H26zM30 37h2v1H30zM80 37h6v1H80zM92 37h6v1H92zM102 37h2v1H102zM110 37h2v1H110zM114 37h2v1H114zM128 37h6v1H128zM140 37h8v1H140zM162 37h2v1H162zM170 37h2v1H170zM174 37h10v1H174zM186 37h8v1H186zM198 37h10v1H198zM214 37h2v1H214zM294 37h1v1H294zM1 38h1v1H1zM294 38h1v1H294zM1 39h1v1H1zM294 39h1v1H294zM1 40h1v1H1zM294 40h1v1H294zM1 41h1v1H1zM294 41h1v1H294zM1 42h1v1H1zM13 42h2v1H13zM56 42h1v1H56zM62 42h2v1H62zM68 42h1v1H68zM104 42h1v1H104zM133 42h2v1H133zM193 42h2v1H193zM204 42h1v1H204zM223 42h1v1H223zM294 42h1v1H294zM1 43h1v1H1zM14 43h1v1H14zM61 43h1v1H61zM64 43h1v1H64zM80 43h1v1H80zM116 43h1v1H116zM134 43h1v1H134zM157 43h2v1H157zM194 43h1v1H194zM204 43h1v1H204zM223 43h1v1H223zM294 43h1v1H294zM1 44h1v1H1zM7 44h3v1H7zM14 44h1v1H14zM19 44h3v1H19zM25 44h3v1H25zM30 44h1v1H30zM32 44h2v1H32zM37 44h3v1H37zM48 44h1v1H48zM52 44h1v1H52zM55 44h2v1H55zM61 44h1v1H61zM67 44h2v1H67zM80 44h1v1H80zM91 44h3v1H91zM96 44h4v1H96zM103 44h2v1H103zM116 44h1v1H116zM127 44h3v1H127zM134 44h1v1H134zM139 44h3v1H139zM145 44h3v1H145zM150 44h4v1H150zM157 44h2v1H157zM168 44h4v1H168zM175 44h3v1H175zM180 44h1v1H180zM182 44h2v1H182zM187 44h3v1H187zM194 44h1v1H194zM204 44h1v1H204zM207 44h1v1H207zM211 44h3v1H211zM216 44h4v1H216zM222 44h3v1H222zM294 44h1v1H294zM1 45h1v1H1zM6 45h1v1H6zM14 45h1v1H14zM18 45h1v1H18zM22 45h1v1H22zM28 45h1v1H28zM30 45h2v1H30zM34 45h1v1H34zM36 45h1v1H36zM48 45h1v1H48zM52 45h1v1H52zM56 45h1v1H56zM60 45h3v1H60zM68 45h1v1H68zM78 45h5v1H78zM94 45h1v1H94zM96 45h1v1H96zM100 45h1v1H100zM104 45h1v1H104zM114 45h5v1H114zM126 45h1v1H126zM134 45h1v1H134zM138 45h1v1H138zM142 45h1v1H142zM144 45h1v1H144zM148 45h1v1H148zM150 45h1v1H150zM154 45h1v1H154zM168 45h1v1H168zM172 45h1v1H172zM178 45h1v1H178zM180 45h2v1H180zM184 45h1v1H184zM186 45h1v1H186zM190 45h1v1H190zM194 45h1v1H194zM204 45h1v1H204zM206 45h1v1H206zM210 45h1v1H210zM214 45h1v1H214zM216 45h1v1H216zM220 45h1v1H220zM223 45h1v1H223zM294 45h1v1H294zM1 46h1v1H1zM6 46h1v1H6zM14 46h1v1H14zM18 46h5v1H18zM25 46h4v1H25zM30 46h1v1H30zM37 46h3v1H37zM48 46h1v1H48zM52 46h1v1H52zM56 46h1v1H56zM61 46h1v1H61zM68 46h1v1H68zM80 46h1v1H80zM91 46h4v1H91zM96 46h4v1H96zM104 46h1v1H104zM116 46h1v1H116zM127 46h3v1H127zM134 46h1v1H134zM138 46h5v1H138zM144 46h5v1H144zM150 46h4v1H150zM157 46h2v1H157zM168 46h4v1H168zM175 46h4v1H175zM180 46h1v1H180zM184 46h1v1H184zM186 46h5v1H186zM194 46h1v1H194zM204 46h2v1H204zM210 46h5v1H210zM216 46h4v1H216zM223 46h1v1H223zM294 46h1v1H294zM1 47h1v1H1zM6 47h1v1H6zM10 47h1v1H10zM14 47h1v1H14zM18 47h1v1H18zM24 47h1v1H24zM28 47h1v1H28zM30 47h1v1H30zM40 47h1v1H40zM48 47h1v1H48zM50 47h1v1H50zM52 47h1v1H52zM56 47h1v1H56zM61 47h1v1H61zM68 47h1v1H68zM80 47h1v1H80zM90 47h1v1H90zM94 47h1v1H94zM96 47h1v1H96zM104 47h1v1H104zM116 47h1v1H116zM130 47h1v1H130zM134 47h1v1H134zM138 47h1v1H138zM144 47h1v1H144zM150 47h1v1H150zM158 47h1v1H158zM168 47h1v1H168zM174 47h1v1H174zM178 47h1v1H178zM180 47h1v1H180zM184 47h1v1H184zM186 47h1v1H186zM194 47h1v1H194zM204 47h1v1H204zM206 47h1v1H206zM210 47h1v1H210zM216 47h1v1H216zM223 47h1v1H223zM226 47h1v1H226zM294 47h1v1H294zM1 48h1v1H1zM7 48h3v1H7zM13 48h3v1H13zM19 48h3v1H19zM25 48h4v1H25zM30 48h1v1H30zM36 48h4v1H36zM49 48h1v1H49zM51 48h1v1H51zM55 48h3v1H55zM61 48h1v1H61zM67 48h3v1H67zM91 48h4v1H91zM96 48h1v1H96zM103 48h3v1H103zM126 48h4v1H126zM133 48h3v1H133zM139 48h3v1H139zM145 48h3v1H145zM150 48h1v1H150zM157 48h1v1H157zM168 48h1v1H168zM175 48h4v1H175zM180 48h1v1H180zM184 48h1v1H184zM187 48h3v1H187zM193 48h3v1H193zM204 48h1v1H204zM207 48h1v1H207zM211 48h3v1H211zM216 48h1v1H216zM224 48h2v1H224zM294 48h1v1H294zM1 49h1v1H1zM294 49h1v1H294zM1 50h1v1H1zM294 50h1v1H294zM1 51h1v1H1zM294 51h1v1H294zM1 52h1v1H1zM294 52h1v1H294zM1 53h1v1H1zM294 53h1v1H294zM1 54h1v1H1zM294 54h1v1H294zM1 55h1v1H1zM294 55h1v1H294zM1 56h1v1H1zM294 56h1v1H294zM1 57h1v1H1zM294 57h1v1H294zM1 58h1v1H1zM294 58h1v1H294zM1 59h1v1H1zM294 59h1v1H294zM1 60h1v1H1zM294 60h1v1H294zM1 61h1v1H1zM294 61h1v1H294zM1 62h1v1H1zM294 62h1v1H294zM1 63h1v1H1zM294 63h1v1H294zM1 64h1v1H1zM6 64h2v1H6zM14 64h2v1H14zM20 64h6v1H20zM30 64h2v1H30zM42 64h6v1H42zM66 64h10v1H66zM126 64h10v1H126zM138 64h2v1H138zM146 64h2v1H146zM150 64h2v1H150zM162 64h2v1H162zM186 64h10v1H186zM198 64h8v1H198zM212 64h6v1H212zM224 64h8v1H224zM234 64h10v1H234zM294 64h1v1H294zM1 65h1v1H1zM6 65h2v1H6zM14 65h2v1H14zM20 65h6v1H20zM30 65h2v1H30zM42 65h6v1H42zM66 65h10v1H66zM126 65h10v1H126zM138 65h2v1H138zM146 65h2v1H146zM150 65h2v1H150zM162 65h2v1H162zM186 65h10v1H186zM198 65h8v1H198zM212 65h6v1H212zM224 65h8v1H224zM234 65h10v1H234zM294 65h1v1H294zM1 66h1v1H1zM6 66h2v1H6zM14 66h2v1H14zM18 66h2v1H18zM26 66h2v1H26zM30 66h2v1H30zM42 66h2v1H42zM48 66h2v1H48zM72 66h2v1H72zM126 66h2v1H126zM138 66h2v1H138zM146 66h2v1H146zM150 66h2v1H150zM162 66h2v1H162zM186 66h2v1H186zM198 66h2v1H198zM206 66h2v1H206zM210 66h2v1H210zM218 66h2v1H218zM222 66h2v1H222zM234 66h2v1H234zM294 66h1v1H294zM1 67h1v1H1zM6 67h2v1H6zM14 67h2v1H14zM18 67h2v1H18zM26 67h2v1H26zM30 67h2v1H30zM42 67h2v1H42zM48 67h2v1H48zM72 67h2v1H72zM126 67h2v1H126zM138 67h2v1H138zM146 67h2v1H146zM150 67h2v1H150zM162 67h2v1H162zM186 67h2v1H186zM198 67h2v1H198zM206 67h2v1H206zM210 67h2v1H210zM218 67h2v1H218zM222 67h2v1H222zM234 67h2v1H234zM294 67h1v1H294zM1 68h1v1H1zM6 68h2v1H6zM14 68h2v1H14zM18 68h2v1H18zM26 68h2v1H26zM30 68h2v1H30zM42 68h2v1H42zM50 68h2v1H50zM70 68h2v1H70zM80 68h6v1H80zM102 68h10v1H102zM126 68h2v1H126zM138 68h2v1H138zM146 68h2v1H146zM150 68h2v1H150zM162 68h2v1H162zM186 68h2v1H186zM198 68h2v1H198zM206 68h2v1H206zM210 68h2v1H210zM218 68h2v1H218zM222 68h2v1H222zM234 68h2v1H234zM294 68h1v1H294zM1 69h1v1H1zM6 69h2v1H6zM14 69h2v1H14zM18 69h2v1H18zM26 69h2v1H26zM30 69h2v1H30zM42 69h2v1H42zM50 69h2v1H50zM70 69h2v1H70zM80 69h6v1H80zM102 69h10v1H102zM126 69h2v1H126zM138 69h2v1H138zM146 69h2v1H146zM150 69h2v1H150zM162 69h2v1H162zM186 69h2v1H186zM198 69h2v1H198zM206 69h2v1H206zM210 69h2v1H210zM218 69h2v1H218zM222 69h2v1H222zM234 69h2v1H234zM294 69h1v1H294zM1 70h1v1H1zM6 70h10v1H6zM18 70h2v1H18zM26 70h2v1H26zM30 70h2v1H30zM42 70h2v1H42zM50 70h2v1H50zM72 70h2v1H72zM78 70h2v1H78zM126 70h8v1H126zM138 70h2v1H138zM146 70h2v1H146zM150 70h2v1H150zM162 70h2v1H162zM186 70h8v1H186zM198 70h8v1H198zM210 70h2v1H210zM218 70h2v1H218zM224 70h6v1H224zM234 70h8v1H234zM294 70h1v1H294zM1 71h1v1H1zM6 71h10v1H6zM18 71h2v1H18zM26 71h2v1H26zM30 71h2v1H30zM42 71h2v1H42zM50 71h2v1H50zM72 71h2v1H72zM78 71h2v1H78zM126 71h8v1H126zM138 71h2v1H138zM146 71h2v1H146zM150 71h2v1H150zM162 71h2v1H162zM186 71h8v1H186zM198 71h8v1H198zM210 71h2v1H210zM218 71h2v1H218zM224 71h6v1H224zM234 71h8v1H234zM294 71h1v1H294zM1 72h1v1H1zM6 72h2v1H6zM14 72h2v1H14zM18 72h2v1H18zM26 72h2v1H26zM30 72h2v1H30zM42 72h2v1H42zM50 72h2v1H50zM74 72h2v1H74zM80 72h6v1H80zM102 72h10v1H102zM126 72h2v1H126zM138 72h2v1H138zM146 72h2v1H146zM150 72h2v1H150zM162 72h2v1H162zM186 72h2v1H186zM198 72h2v1H198zM202 72h2v1H202zM210 72h10v1H210zM230 72h2v1H230zM234 72h2v1H234zM294 72h1v1H294zM1 73h1v1H1zM6 73h2v1H6zM14 73h2v1H14zM18 73h2v1H18zM26 73h2v1H26zM30 73h2v1H30zM42 73h2v1H42zM50 73h2v1H50zM74 73h2v1H74zM80 73h6v1H80zM102 73h10v1H102zM126 73h2v1H126zM138 73h2v1H138zM146 73h2v1H146zM150 73h2v1H150zM162 73h2v1H162zM186 73h2v1H186zM198 73h2v1H198zM202 73h2v1H202zM210 73h10v1H210zM230 73h2v1H230zM234 73h2v1H234zM294 73h1v1H294zM1 74h1v1H1zM6 74h2v1H6zM14 74h2v1H14zM18 74h2v1H18zM26 74h2v1H26zM30 74h2v1H30zM42 74h2v1H42zM48 74h2v1H48zM66 74h2v1H66zM74 74h2v1H74zM86 74h2v1H86zM126 74h2v1H126zM138 74h2v1H138zM146 74h2v1H146zM150 74h2v1H150zM162 74h2v1H162zM186 74h2v1H186zM198 74h2v1H198zM204 74h2v1H204zM210 74h2v1H210zM218 74h2v1H218zM230 74h2v1H230zM234 74h2v1H234zM294 74h1v1H294zM1 75h1v1H1zM6 75h2v1H6zM14 75h2v1H14zM18 75h2v1H18zM26 75h2v1H26zM30 75h2v1H30zM42 75h2v1H42zM48 75h2v1H48zM66 75h2v1H66zM74 75h2v1H74zM86 75h2v1H86zM126 75h2v1H126zM138 75h2v1H138zM146 75h2v1H146zM150 75h2v1H150zM162 75h2v1H162zM186 75h2v1H186zM198 75h2v1H198zM204 75h2v1H204zM210 75h2v1H210zM218 75h2v1H218zM230 75h2v1H230zM234 75h2v1H234zM294 75h1v1H294zM1 76h1v1H1zM6 76h2v1H6zM14 76h2v1H14zM20 76h6v1H20zM30 76h10v1H30zM42 76h6v1H42zM68 76h6v1H68zM78 76h8v1H78zM126 76h2v1H126zM140 76h6v1H140zM150 76h10v1H150zM162 76h10v1H162zM186 76h10v1H186zM198 76h2v1H198zM206 76h2v1H206zM210 76h2v1H210zM218 76h2v1H218zM222 76h8v1H222zM234 76h10v1H234zM294 76h1v1H294zM1 77h1v1H1zM6 77h2v1H6zM14 77h2v1H14zM20 77h6v1H20zM30 77h10v1H30zM42 77h6v1H42zM68 77h6v1H68zM78 77h8v1H78zM126 77h2v1H126zM140 77h6v1H140zM150 77h10v1H150zM162 77h10v1H162zM186 77h10v1H186zM198 77h2v1H198zM206 77h2v1H206zM210 77h2v1H210zM218 77h2v1H218zM222 77h8v1H222zM234 77h10v1H234zM294 77h1v1H294zM1 78h1v1H1zM294 78h1v1H294zM1 79h1v1H1zM294 79h1v1H294zM1 80h1v1H1zM294 80h1v1H294zM1 81h1v1H1zM294 81h1v1H294zM1 82h1v1H1zM14 82h1v1H14zM55 82h1v1H55zM62 82h1v1H62zM114 82h1v1H114zM132 82h1v1H132zM145 82h1v1H145zM164 82h2v1H164zM170 82h1v1H170zM187 82h1v1H187zM294 82h1v1H294zM1 83h1v1H1zM55 83h1v1H55zM103 83h2v1H103zM114 83h1v1H114zM132 83h1v1H132zM145 83h1v1H145zM163 83h1v1H163zM166 83h1v1H166zM187 83h1v1H187zM294 83h1v1H294zM1 84h1v1H1zM6 84h1v1H6zM10 84h1v1H10zM13 84h2v1H13zM18 84h4v1H18zM25 84h3v1H25zM31 84h3v1H31zM43 84h3v1H43zM48 84h1v1H48zM50 84h2v1H50zM54 84h3v1H54zM61 84h2v1H61zM66 84h1v1H66zM68 84h2v1H68zM73 84h3v1H73zM84 84h1v1H84zM86 84h2v1H86zM90 84h1v1H90zM94 84h1v1H94zM97 84h3v1H97zM103 84h2v1H103zM114 84h1v1H114zM116 84h2v1H116zM121 84h3v1H121zM127 84h3v1H127zM132 84h1v1H132zM135 84h1v1H135zM144 84h3v1H144zM151 84h3v1H151zM163 84h1v1H163zM169 84h2v1H169zM174 84h1v1H174zM176 84h2v1H176zM181 84h3v1H181zM186 84h3v1H186zM198 84h1v1H198zM200 84h2v1H200zM204 84h1v1H204zM208 84h1v1H208zM210 84h1v1H210zM212 84h2v1H212zM294 84h1v1H294zM1 85h1v1H1zM6 85h1v1H6zM10 85h1v1H10zM14 85h1v1H14zM18 85h1v1H18zM22 85h1v1H22zM24 85h1v1H24zM28 85h1v1H28zM30 85h1v1H30zM42 85h1v1H42zM46 85h1v1H46zM48 85h2v1H48zM52 85h1v1H52zM55 85h1v1H55zM62 85h1v1H62zM66 85h2v1H66zM70 85h1v1H70zM72 85h1v1H72zM76 85h1v1H76zM84 85h2v1H84zM88 85h1v1H88zM90 85h1v1H90zM94 85h1v1H94zM96 85h1v1H96zM114 85h2v1H114zM118 85h1v1H118zM124 85h1v1H124zM126 85h1v1H126zM132 85h1v1H132zM134 85h1v1H134zM145 85h1v1H145zM150 85h1v1H150zM154 85h1v1H154zM162 85h3v1H162zM170 85h1v1H170zM174 85h2v1H174zM178 85h1v1H178zM180 85h1v1H180zM187 85h1v1H187zM198 85h2v1H198zM202 85h1v1H202zM204 85h1v1H204zM208 85h1v1H208zM210 85h2v1H210zM214 85h1v1H214zM294 85h1v1H294zM1 86h1v1H1zM6 86h1v1H6zM10 86h1v1H10zM14 86h1v1H14zM18 86h4v1H18zM24 86h5v1H24zM31 86h3v1H31zM42 86h5v1H42zM48 86h1v1H48zM52 86h1v1H52zM55 86h1v1H55zM62 86h1v1H62zM66 86h1v1H66zM72 86h5v1H72zM84 86h1v1H84zM88 86h1v1H88zM90 86h1v1H90zM94 86h1v1H94zM97 86h3v1H97zM103 86h2v1H103zM114 86h1v1H114zM118 86h1v1H118zM121 86h4v1H121zM126 86h1v1H126zM132 86h2v1H132zM145 86h1v1H145zM150 86h1v1H150zM154 86h1v1H154zM163 86h1v1H163zM170 86h1v1H170zM174 86h1v1H174zM181 86h3v1H181zM187 86h1v1H187zM198 86h1v1H198zM204 86h1v1H204zM208 86h1v1H208zM210 86h1v1H210zM214 86h1v1H214zM294 86h1v1H294zM1 87h1v1H1zM6 87h1v1H6zM8 87h1v1H8zM10 87h1v1H10zM14 87h1v1H14zM18 87h1v1H18zM24 87h1v1H24zM34 87h1v1H34zM42 87h1v1H42zM48 87h1v1H48zM52 87h1v1H52zM55 87h1v1H55zM58 87h1v1H58zM62 87h1v1H62zM66 87h1v1H66zM72 87h1v1H72zM84 87h1v1H84zM88 87h1v1H88zM91 87h1v1H91zM93 87h1v1H93zM100 87h1v1H100zM104 87h1v1H104zM114 87h1v1H114zM118 87h1v1H118zM120 87h1v1H120zM124 87h1v1H124zM126 87h1v1H126zM130 87h1v1H130zM132 87h1v1H132zM134 87h1v1H134zM145 87h1v1H145zM148 87h1v1H148zM150 87h1v1H150zM154 87h1v1H154zM163 87h1v1H163zM170 87h1v1H170zM174 87h1v1H174zM184 87h1v1H184zM187 87h1v1H187zM190 87h1v1H190zM198 87h1v1H198zM204 87h1v1H204zM207 87h2v1H207zM210 87h1v1H210zM214 87h1v1H214zM294 87h1v1H294zM1 88h1v1H1zM7 88h1v1H7zM9 88h1v1H9zM13 88h3v1H13zM18 88h1v1H18zM25 88h3v1H25zM30 88h4v1H30zM43 88h3v1H43zM48 88h1v1H48zM52 88h1v1H52zM56 88h2v1H56zM61 88h3v1H61zM66 88h1v1H66zM73 88h3v1H73zM84 88h1v1H84zM88 88h1v1H88zM92 88h1v1H92zM96 88h4v1H96zM103 88h1v1H103zM114 88h4v1H114zM121 88h4v1H121zM127 88h3v1H127zM132 88h1v1H132zM135 88h1v1H135zM146 88h2v1H146zM151 88h3v1H151zM163 88h1v1H163zM169 88h3v1H169zM174 88h1v1H174zM180 88h4v1H180zM188 88h2v1H188zM198 88h1v1H198zM205 88h2v1H205zM208 88h1v1H208zM210 88h1v1H210zM214 88h1v1H214zM294 88h1v1H294zM1 89h1v1H1zM294 89h1v1H294zM1 90h1v1H1zM294 90h1v1H294zM1 91h1v1H1zM294 91h1v1H294zM1 92h1v1H1zM294 92h1v1H294zM1 93h1v1H1zM294 93h1v1H294zM1 94h1v1H1zM294 94h1v1H294zM1 95h1v1H1zM294 95h1v1H294zM1 96h1v1H1zM294 96h1v1H294zM1 97h1v1H1zM294 97h1v1H294zM1 98h1v1H1zM294 98h1v1H294zM1 99h1v1H1zM294 99h1v1H294zM1 100h294v1H1zM1 101h1v1H1zM294 101h1v1H294zM1 102h1v1H1zM294 102h1v1H294zM1 103h1v1H1zM294 103h1v1H294zM1 104h1v1H1zM294 104h1v1H294zM1 105h1v1H1zM294 105h1v1H294zM1 106h1v1H1zM6 106h1v1H6zM10 106h1v1H10zM13 106h3v1H13zM19 106h3v1H19zM24 106h5v1H24zM38 106h1v1H38zM42 106h5v1H42zM73 106h3v1H73zM79 106h3v1H79zM84 106h1v1H84zM88 106h1v1H88zM91 106h3v1H91zM96 106h5v1H96zM102 106h1v1H102zM294 106h1v1H294zM1 107h1v1H1zM6 107h1v1H6zM10 107h1v1H10zM12 107h1v1H12zM16 107h1v1H16zM20 107h1v1H20zM26 107h1v1H26zM37 107h2v1H37zM42 107h1v1H42zM72 107h1v1H72zM76 107h1v1H76zM78 107h1v1H78zM82 107h1v1H82zM84 107h1v1H84zM88 107h1v1H88zM90 107h1v1H90zM94 107h1v1H94zM96 107h1v1H96zM102 107h1v1H102zM294 107h1v1H294zM1 108h1v1H1zM6 108h1v1H6zM10 108h1v1H10zM12 108h1v1H12zM16 108h1v1H16zM20 108h1v1H20zM26 108h1v1H26zM38 108h1v1H38zM42 108h4v1H42zM49 108h3v1H49zM60 108h5v1H60zM72 108h1v1H72zM78 108h1v1H78zM82 108h1v1H82zM84 108h2v1H84zM88 108h1v1H88zM90 108h1v1H90zM96 108h1v1H96zM102 108h1v1H102zM294 108h1v1H294zM1 109h1v1H1zM6 109h1v1H6zM8 109h1v1H8zM10 109h1v1H10zM12 109h1v1H12zM16 109h1v1H16zM20 109h1v1H20zM26 109h1v1H26zM38 109h1v1H38zM46 109h1v1H46zM48 109h1v1H48zM72 109h1v1H72zM78 109h1v1H78zM82 109h1v1H82zM84 109h1v1H84zM86 109h1v1H86zM88 109h1v1H88zM90 109h1v1H90zM96 109h4v1H96zM102 109h1v1H102zM294 109h1v1H294zM1 110h1v1H1zM6 110h1v1H6zM8 110h1v1H8zM10 110h1v1H10zM12 110h5v1H12zM20 110h1v1H20zM26 110h1v1H26zM38 110h1v1H38zM46 110h1v1H46zM49 110h3v1H49zM60 110h5v1H60zM72 110h1v1H72zM78 110h5v1H78zM84 110h1v1H84zM87 110h2v1H87zM90 110h1v1H90zM96 110h1v1H96zM102 110h1v1H102zM294 110h1v1H294zM1 111h1v1H1zM6 111h1v1H6zM8 111h1v1H8zM10 111h1v1H10zM12 111h1v1H12zM16 111h1v1H16zM20 111h1v1H20zM26 111h1v1H26zM38 111h1v1H38zM42 111h1v1H42zM46 111h1v1H46zM52 111h1v1H52zM72 111h1v1H72zM76 111h1v1H76zM78 111h1v1H78zM82 111h1v1H82zM84 111h1v1H84zM88 111h1v1H88zM90 111h1v1H90zM94 111h1v1H94zM96 111h1v1H96zM102 111h1v1H102zM294 111h1v1H294zM1 112h1v1H1zM7 112h1v1H7zM9 112h1v1H9zM12 112h1v1H12zM16 112h1v1H16zM19 112h3v1H19zM26 112h1v1H26zM37 112h3v1H37zM43 112h3v1H43zM48 112h4v1H48zM73 112h3v1H73zM78 112h1v1H78zM82 112h1v1H82zM84 112h1v1H84zM88 112h1v1H88zM91 112h3v1H91zM96 112h5v1H96zM102 112h5v1H102zM294 112h1v1H294zM1 113h1v1H1zM294 113h1v1H294zM1 114h1v1H1zM294 114h1v1H294zM1 115h1v1H1zM294 115h1v1H294zM1 116h1v1H1zM294 116h1v1H294zM1 117h1v1H1zM294 117h1v1H294zM1 118h1v1H1zM294 118h1v1H294zM1 119h1v1H1zM294 119h1v1H294zM1 120h1v1H1zM294 120h1v1H294zM1 121h1v1H1zM294 121h1v1H294zM1 122h1v1H1zM294 122h1v1H294zM1 123h1v1H1zM294 123h1v1H294zM1 124h1v1H1zM294 124h1v1H294zM1 125h1v1H1zM294 125h1v1H294zM1 126h294v1H1z"/>

</g>
</svg>
