<svg xmlns="http://www.w3.org/2000/svg" width="888" height="384" viewBox="0 0 296 128" role="img" aria-labelledby="title">
<title id="title">DevDash full erase</title>
<rect width="296" height="128" fill="#fff"/>
<g shape-rendering="crispEdges">
<path fill="#111" d="M1 1h294v1H1zM1 2h1v1H1zM294 2h1v1H294zM1 3h1v1H1zM294 3h1v1H294zM1 4h1v1H1zM6 4h9v1H6zM294 4h1v1H294zM1 5h1v1H1zM6 5h9v1H6zM19 5h3v1H19zM25 5h5v1H25zM31 5h1v1H31zM35 5h1v1H35zM37 5h3v1H37zM44 5h3v1H44zM50 5h4v1H50zM55 5h1v1H55zM59 5h1v1H59zM230 5h5v1H230zM236 5h1v1H236zM240 5h1v1H240zM242 5h1v1H242zM248 5h1v1H248zM260 5h5v1H260zM266 5h4v1H266zM273 5h3v1H273zM279 5h4v1H279zM284 5h5v1H284zM294 5h1v1H294zM1 6h1v1H1zM6 6h2v1H6zM13 6h2v1H13zM19 6h1v1H19zM22 6h1v1H22zM25 6h1v1H25zM31 6h1v1H31zM35 6h1v1H35zM37 6h1v1H37zM40 6h1v1H40zM43 6h1v1H43zM47 6h1v1H47zM49 6h1v1H49zM55 6h1v1H55zM59 6h1v1H59zM230 6h1v1H230zM236 6h1v1H236zM240 6h1v1H240zM242 6h1v1H242zM248 6h1v1H248zM260 6h1v1H260zM266 6h1v1H266zM270 6h1v1H270zM272 6h1v1H272zM276 6h1v1H276zM278 6h1v1H278zM284 6h1v1H284zM294 6h1v1H294zM1 7h1v1H1zM6 7h2v1H6zM9 7h3v1H9zM13 7h2v1H13zM19 7h1v1H19zM23 7h1v1H23zM25 7h1v1H25zM31 7h1v1H31zM35 7h1v1H35zM37 7h1v1H37zM41 7h1v1H41zM43 7h1v1H43zM47 7h1v1H47zM49 7h1v1H49zM55 7h1v1H55zM59 7h1v1H59zM230 7h1v1H230zM236 7h1v1H236zM240 7h1v1H240zM242 7h1v1H242zM248 7h1v1H248zM260 7h1v1H260zM266 7h1v1H266zM270 7h1v1H270zM272 7h1v1H272zM276 7h1v1H276zM278 7h1v1H278zM284 7h1v1H284zM294 7h1v1H294zM1 8h1v1H1zM6 8h2v1H6zM9 8h3v1H9zM13 8h2v1H13zM19 8h1v1H19zM23 8h1v1H23zM25 8h4v1H25zM31 8h1v1H31zM35 8h1v1H35zM37 8h1v1H37zM41 8h1v1H41zM43 8h1v1H43zM47 8h1v1H47zM50 8h3v1H50zM55 8h5v1H55zM230 8h4v1H230zM236 8h1v1H236zM240 8h1v1H240zM242 8h1v1H242zM248 8h1v1H248zM260 8h4v1H260zM266 8h4v1H266zM272 8h1v1H272zM276 8h1v1H276zM279 8h3v1H279zM284 8h4v1H284zM294 8h1v1H294zM1 9h1v1H1zM6 9h2v1H6zM9 9h3v1H9zM13 9h2v1H13zM19 9h1v1H19zM23 9h1v1H23zM25 9h1v1H25zM31 9h1v1H31zM35 9h1v1H35zM37 9h1v1H37zM41 9h1v1H41zM43 9h5v1H43zM53 9h1v1H53zM55 9h1v1H55zM59 9h1v1H59zM230 9h1v1H230zM236 9h1v1H236zM240 9h1v1H240zM242 9h1v1H242zM248 9h1v1H248zM260 9h1v1H260zM266 9h1v1H266zM268 9h1v1H268zM272 9h5v1H272zM282 9h1v1H282zM284 9h1v1H284zM294 9h1v1H294zM1 10h1v1H1zM6 10h2v1H6zM13 10h2v1H13zM19 10h1v1H19zM22 10h1v1H22zM25 10h1v1H25zM32 10h1v1H32zM34 10h1v1H34zM37 10h1v1H37zM40 10h1v1H40zM43 10h1v1H43zM47 10h1v1H47zM53 10h1v1H53zM55 10h1v1H55zM59 10h1v1H59zM230 10h1v1H230zM236 10h1v1H236zM240 10h1v1H240zM242 10h1v1H242zM248 10h1v1H248zM260 10h1v1H260zM266 10h1v1H266zM269 10h1v1H269zM272 10h1v1H272zM276 10h1v1H276zM282 10h1v1H282zM284 10h1v1H284zM294 10h1v1H294zM1 11h1v1H1zM6 11h9v1H6zM19 11h3v1H19zM25 11h5v1H25zM33 11h1v1H33zM37 11h3v1H37zM43 11h1v1H43zM47 11h1v1H47zM49 11h4v1H49zM55 11h1v1H55zM59 11h1v1H59zM230 11h1v1H230zM237 11h3v1H237zM242 11h5v1H242zM248 11h5v1H248zM260 11h5v1H260zM266 11h1v1H266zM270 11h1v1H270zM272 11h1v1H272zM276 11h1v1H276zM278 11h4v1H278zM284 11h5v1H284zM294 11h1v1H294zM1 12h1v1H1zM6 12h9v1H6zM294 12h1v1H294zM1 13h1v1H1zM294 13h1v1H294zM1 14h1v1H1zM294 14h1v1H294zM1 15h294v1H1zM1 16h1v1H1zM294 16h1v1H294zM1 17h1v1H1zM294 17h1v1H294zM1 18h1v1H1zM294 18h1v1H294zM1 19h1v1H1zM294 19h1v1H294zM1 20h1v1H1zM294 20h1v1H294zM1 21h1v1H1zM294 21h1v1H294zM1 22h1v1H1zM294 22h1v1H294zM1 23h1v1H1zM294 23h1v1H294zM1 24h1v1H1zM294 24h1v1H294zM1 25h1v1H1zM294 25h1v1H294zM1 26h1v1H1zM294 26h1v1H294zM1 27h1v1H1zM294 27h1v1H294zM1 28h1v1H1zM294 28h1v1H294zM1 29h1v1H1zM294 29h1v1H294zM1 30h1v1H1zM294 30h1v1H294zM1 31h1v1H1zM294 31h1v1H294zM1 32h1v1H1zM294 32h1v1H294zM1 33h1v1H1zM294 33h1v1H294zM1 34h1v1H1zM79 34h4v1H79zM95 34h4v1H95zM106 34h12v1H106zM125 34h16v1H125zM152 34h12v1H152zM171 34h4v1H171zM187 34h4v1H187zM198 34h12v1H198zM294 34h1v1H294zM1 35h1v1H1zM79 35h4v1H79zM95 35h4v1H95zM106 35h12v1H106zM125 35h16v1H125zM152 35h12v1H152zM171 35h4v1H171zM187 35h4v1H187zM198 35h12v1H198zM294 35h1v1H294zM1 36h1v1H1zM79 36h4v1H79zM95 36h4v1H95zM106 36h12v1H106zM125 36h16v1H125zM152 36h12v1H152zM171 36h4v1H171zM187 36h4v1H187zM198 36h12v1H198zM294 36h1v1H294zM1 37h1v1H1zM79 37h4v1H79zM95 37h4v1H95zM106 37h12v1H106zM125 37h16v1H125zM152 37h12v1H152zM171 37h4v1H171zM187 37h4v1H187zM198 37h12v1H198zM294 37h1v1H294zM1 38h1v1H1zM79 38h4v1H79zM95 38h4v1H95zM110 38h4v1H110zM125 38h4v1H125zM141 38h4v1H141zM156 38h4v1H156zM171 38h4v1H171zM187 38h4v1H187zM194 38h4v1H194zM210 38h4v1H210zM294 38h1v1H294zM1 39h1v1H1zM79 39h4v1H79zM95 39h4v1H95zM110 39h4v1H110zM125 39h4v1H125zM141 39h4v1H141zM156 39h4v1H156zM171 39h4v1H171zM187 39h4v1H187zM194 39h4v1H194zM210 39h4v1H210zM294 39h1v1H294zM1 40h1v1H1zM79 40h4v1H79zM95 40h4v1H95zM110 40h4v1H110zM125 40h4v1H125zM141 40h4v1H141zM156 40h4v1H156zM171 40h4v1H171zM187 40h4v1H187zM194 40h4v1H194zM210 40h4v1H210zM294 40h1v1H294zM1 41h1v1H1zM79 41h4v1H79zM95 41h4v1H95zM110 41h4v1H110zM125 41h4v1H125zM141 41h4v1H141zM156 41h4v1H156zM171 41h4v1H171zM187 41h4v1H187zM194 41h4v1H194zM210 41h4v1H210zM294 41h1v1H294zM1 42h1v1H1zM79 42h4v1H79zM95 42h4v1H95zM110 42h4v1H110zM125 42h4v1H125zM141 42h4v1H141zM156 42h4v1H156zM171 42h8v1H171zM187 42h4v1H187zM194 42h4v1H194zM294 42h1v1H294zM1 43h1v1H1zM79 43h4v1H79zM95 43h4v1H95zM110 43h4v1H110zM125 43h4v1H125zM141 43h4v1H141zM156 43h4v1H156zM171 43h8v1H171zM187 43h4v1H187zM194 43h4v1H194zM294 43h1v1H294zM1 44h1v1H1zM79 44h4v1H79zM95 44h4v1H95zM110 44h4v1H110zM125 44h4v1H125zM141 44h4v1H141zM156 44h4v1H156zM171 44h8v1H171zM187 44h4v1H187zM194 44h4v1H194zM294 44h1v1H294zM1 45h1v1H1zM79 45h4v1H79zM95 45h4v1H95zM110 45h4v1H110zM125 45h4v1H125zM141 45h4v1H141zM156 45h4v1H156zM171 45h8v1H171zM187 45h4v1H187zM194 45h4v1H194zM294 45h1v1H294zM1 46h1v1H1zM79 46h4v1H79zM87 46h4v1H87zM95 46h4v1H95zM110 46h4v1H110zM125 46h16v1H125zM156 46h4v1H156zM171 46h4v1H171zM179 46h4v1H179zM187 46h4v1H187zM194 46h4v1H194zM202 46h12v1H202zM294 46h1v1H294zM1 47h1v1H1zM79 47h4v1H79zM87 47h4v1H87zM95 47h4v1H95zM110 47h4v1H110zM125 47h16v1H125zM156 47h4v1H156zM171 47h4v1H171zM179 47h4v1H179zM187 47h4v1H187zM194 47h4v1H194zM202 47h12v1H202zM294 47h1v1H294zM1 48h1v1H1zM79 48h4v1H79zM87 48h4v1H87zM95 48h4v1H95zM110 48h4v1H110zM125 48h16v1H125zM156 48h4v1H156zM171 48h4v1H171zM179 48h4v1H179zM187 48h4v1H187zM194 48h4v1H194zM202 48h12v1H202zM294 48h1v1H294zM1 49h1v1H1zM79 49h4v1H79zM87 49h4v1H87zM95 49h4v1H95zM110 49h4v1H110zM125 49h16v1H125zM156 49h4v1H156zM171 49h4v1H171zM179 49h4v1H179zM187 49h4v1H187zM194 49h4v1H194zM202 49h12v1H202zM294 49h1v1H294zM1 50h1v1H1zM79 50h4v1H79zM87 50h4v1H87zM95 50h4v1H95zM110 50h4v1H110zM125 50h4v1H125zM156 50h4v1H156zM171 50h4v1H171zM183 50h8v1H183zM194 50h4v1H194zM210 50h4v1H210zM294 50h1v1H294zM1 51h1v1H1zM79 51h4v1H79zM87 51h4v1H87zM95 51h4v1H95zM110 51h4v1H110zM125 51h4v1H125zM156 51h4v1H156zM171 51h4v1H171zM183 51h8v1H183zM194 51h4v1H194zM210 51h4v1H210zM294 51h1v1H294zM1 52h1v1H1zM79 52h4v1H79zM87 52h4v1H87zM95 52h4v1H95zM110 52h4v1H110zM125 52h4v1H125zM156 52h4v1H156zM171 52h4v1H171zM183 52h8v1H183zM194 52h4v1H194zM210 52h4v1H210zM294 52h1v1H294zM1 53h1v1H1zM79 53h4v1H79zM87 53h4v1H87zM95 53h4v1H95zM110 53h4v1H110zM125 53h4v1H125zM156 53h4v1H156zM171 53h4v1H171zM183 53h8v1H183zM194 53h4v1H194zM210 53h4v1H210zM294 53h1v1H294zM1 54h1v1H1zM79 54h4v1H79zM87 54h4v1H87zM95 54h4v1H95zM110 54h4v1H110zM125 54h4v1H125zM156 54h4v1H156zM171 54h4v1H171zM187 54h4v1H187zM194 54h4v1H194zM210 54h4v1H210zM294 54h1v1H294zM1 55h1v1H1zM79 55h4v1H79zM87 55h4v1H87zM95 55h4v1H95zM110 55h4v1H110zM125 55h4v1H125zM156 55h4v1H156zM171 55h4v1H171zM187 55h4v1H187zM194 55h4v1H194zM210 55h4v1H210zM294 55h1v1H294zM1 56h1v1H1zM79 56h4v1H79zM87 56h4v1H87zM95 56h4v1H95zM110 56h4v1H110zM125 56h4v1H125zM156 56h4v1H156zM171 56h4v1H171zM187 56h4v1H187zM194 56h4v1H194zM210 56h4v1H210zM294 56h1v1H294zM1 57h1v1H1zM79 57h4v1H79zM87 57h4v1H87zM95 57h4v1H95zM110 57h4v1H110zM125 57h4v1H125zM156 57h4v1H156zM171 57h4v1H171zM187 57h4v1H187zM194 57h4v1H194zM210 57h4v1H210zM294 57h1v1H294zM1 58h1v1H1zM83 58h4v1H83zM91 58h4v1H91zM106 58h12v1H106zM125 58h4v1H125zM152 58h12v1H152zM171 58h4v1H171zM187 58h4v1H187zM198 58h16v1H198zM294 58h1v1H294zM1 59h1v1H1zM83 59h4v1H83zM91 59h4v1H91zM106 59h12v1H106zM125 59h4v1H125zM152 59h12v1H152zM171 59h4v1H171zM187 59h4v1H187zM198 59h16v1H198zM294 59h1v1H294zM1 60h1v1H1zM83 60h4v1H83zM91 60h4v1H91zM106 60h12v1H106zM125 60h4v1H125zM152 60h12v1H152zM171 60h4v1H171zM187 60h4v1H187zM198 60h16v1H198zM294 60h1v1H294zM1 61h1v1H1zM83 61h4v1H83zM91 61h4v1H91zM106 61h12v1H106zM125 61h4v1H125zM152 61h12v1H152zM171 61h4v1H171zM187 61h4v1H187zM198 61h16v1H198zM294 61h1v1H294zM1 62h1v1H1zM294 62h1v1H294zM1 63h1v1H1zM294 63h1v1H294zM1 64h1v1H1zM294 64h1v1H294zM1 65h1v1H1zM294 65h1v1H294zM1 66h1v1H1zM294 66h1v1H294zM1 67h1v1H1zM294 67h1v1H294zM1 68h1v1H1zM294 68h1v1H294zM1 69h1v1H1zM294 69h1v1H294zM1 70h1v1H1zM294 70h1v1H294zM1 71h1v1H1zM294 71h1v1H294zM1 72h1v1H1zM294 72h1v1H294zM1 73h1v1H1zM294 73h1v1H294zM1 74h1v1H1zM80 74h1v1H80zM87 74h1v1H87zM167 74h1v1H167zM205 74h1v1H205zM224 74h1v1H224zM294 74h1v1H294zM1 75h1v1H1zM80 75h1v1H80zM167 75h1v1H167zM205 75h1v1H205zM224 75h1v1H224zM294 75h1v1H294zM1 76h1v1H1zM68 76h3v1H68zM73 76h1v1H73zM75 76h2v1H75zM79 76h3v1H79zM86 76h2v1H86zM91 76h1v1H91zM93 76h2v1H93zM98 76h3v1H98zM109 76h1v1H109zM111 76h2v1H111zM115 76h1v1H115zM119 76h1v1H119zM122 76h3v1H122zM134 76h3v1H134zM139 76h1v1H139zM141 76h2v1H141zM146 76h3v1H146zM152 76h3v1H152zM158 76h3v1H158zM164 76h2v1H164zM167 76h1v1H167zM176 76h3v1H176zM181 76h1v1H181zM183 76h2v1H183zM193 76h1v1H193zM195 76h2v1H195zM200 76h3v1H200zM205 76h1v1H205zM207 76h2v1H207zM212 76h3v1H212zM218 76h3v1H218zM223 76h3v1H223zM294 76h1v1H294zM1 77h1v1H1zM67 77h1v1H67zM71 77h1v1H71zM73 77h2v1H73zM77 77h1v1H77zM80 77h1v1H80zM87 77h1v1H87zM91 77h2v1H91zM95 77h1v1H95zM97 77h1v1H97zM101 77h1v1H101zM109 77h2v1H109zM113 77h1v1H113zM115 77h1v1H115zM119 77h1v1H119zM121 77h1v1H121zM133 77h1v1H133zM137 77h1v1H137zM139 77h2v1H139zM143 77h1v1H143zM149 77h1v1H149zM151 77h1v1H151zM157 77h1v1H157zM161 77h1v1H161zM163 77h1v1H163zM166 77h2v1H166zM175 77h1v1H175zM179 77h1v1H179zM181 77h2v1H181zM185 77h1v1H185zM193 77h2v1H193zM197 77h1v1H197zM199 77h1v1H199zM203 77h1v1H203zM205 77h2v1H205zM209 77h1v1H209zM211 77h1v1H211zM215 77h1v1H215zM217 77h1v1H217zM221 77h1v1H221zM224 77h1v1H224zM294 77h1v1H294zM1 78h1v1H1zM67 78h5v1H67zM73 78h1v1H73zM77 78h1v1H77zM80 78h1v1H80zM87 78h1v1H87zM91 78h1v1H91zM97 78h5v1H97zM109 78h1v1H109zM113 78h1v1H113zM115 78h1v1H115zM119 78h1v1H119zM122 78h3v1H122zM133 78h5v1H133zM139 78h1v1H139zM146 78h4v1H146zM152 78h3v1H152zM157 78h5v1H157zM163 78h1v1H163zM167 78h1v1H167zM175 78h1v1H175zM179 78h1v1H179zM181 78h1v1H181zM185 78h1v1H185zM193 78h1v1H193zM199 78h5v1H199zM205 78h1v1H205zM209 78h1v1H209zM211 78h1v1H211zM215 78h1v1H215zM217 78h1v1H217zM221 78h1v1H221zM224 78h1v1H224zM294 78h1v1H294zM1 79h1v1H1zM67 79h1v1H67zM73 79h1v1H73zM77 79h1v1H77zM80 79h1v1H80zM83 79h1v1H83zM87 79h1v1H87zM91 79h1v1H91zM97 79h1v1H97zM109 79h1v1H109zM113 79h1v1H113zM116 79h1v1H116zM118 79h1v1H118zM125 79h1v1H125zM133 79h1v1H133zM139 79h1v1H139zM145 79h1v1H145zM149 79h1v1H149zM155 79h1v1H155zM157 79h1v1H157zM163 79h1v1H163zM167 79h1v1H167zM175 79h1v1H175zM179 79h1v1H179zM181 79h1v1H181zM185 79h1v1H185zM193 79h1v1H193zM199 79h1v1H199zM205 79h1v1H205zM209 79h1v1H209zM211 79h1v1H211zM215 79h1v1H215zM217 79h1v1H217zM221 79h1v1H221zM224 79h1v1H224zM227 79h1v1H227zM294 79h1v1H294zM1 80h1v1H1zM68 80h3v1H68zM73 80h1v1H73zM77 80h1v1H77zM81 80h2v1H81zM86 80h3v1H86zM91 80h1v1H91zM98 80h3v1H98zM109 80h1v1H109zM113 80h1v1H113zM117 80h1v1H117zM121 80h4v1H121zM134 80h3v1H134zM139 80h1v1H139zM146 80h4v1H146zM151 80h4v1H151zM158 80h3v1H158zM164 80h4v1H164zM176 80h3v1H176zM181 80h1v1H181zM185 80h1v1H185zM193 80h1v1H193zM200 80h3v1H200zM205 80h4v1H205zM212 80h3v1H212zM218 80h3v1H218zM225 80h2v1H225zM294 80h1v1H294zM1 81h1v1H1zM294 81h1v1H294zM1 82h1v1H1zM294 82h1v1H294zM1 83h1v1H1zM294 83h1v1H294zM1 84h1v1H1zM294 84h1v1H294zM1 85h1v1H1zM294 85h1v1H294zM1 86h1v1H1zM68 86h1v1H68zM84 86h1v1H84zM125 86h1v1H125zM143 86h1v1H143zM180 86h2v1H180zM186 86h1v1H186zM203 86h1v1H203zM294 86h1v1H294zM1 87h1v1H1zM68 87h1v1H68zM125 87h1v1H125zM143 87h1v1H143zM179 87h1v1H179zM182 87h1v1H182zM203 87h1v1H203zM294 87h1v1H294zM1 88h1v1H1zM65 88h2v1H65zM68 88h1v1H68zM71 88h3v1H71zM76 88h1v1H76zM80 88h1v1H80zM83 88h2v1H83zM89 88h3v1H89zM95 88h3v1H95zM106 88h1v1H106zM108 88h2v1H108zM113 88h3v1H113zM119 88h3v1H119zM124 88h3v1H124zM131 88h3v1H131zM136 88h1v1H136zM138 88h2v1H138zM142 88h3v1H142zM149 88h3v1H149zM161 88h3v1H161zM167 88h3v1H167zM179 88h1v1H179zM185 88h2v1H185zM190 88h1v1H190zM192 88h2v1H192zM197 88h3v1H197zM202 88h3v1H202zM214 88h1v1H214zM216 88h2v1H216zM220 88h1v1H220zM224 88h1v1H224zM226 88h1v1H226zM228 88h2v1H228zM294 88h1v1H294zM1 89h1v1H1zM64 89h1v1H64zM67 89h2v1H67zM70 89h1v1H70zM74 89h1v1H74zM76 89h1v1H76zM80 89h1v1H80zM84 89h1v1H84zM88 89h1v1H88zM94 89h1v1H94zM98 89h1v1H98zM106 89h2v1H106zM110 89h1v1H110zM112 89h1v1H112zM116 89h1v1H116zM118 89h1v1H118zM125 89h1v1H125zM134 89h1v1H134zM136 89h2v1H136zM140 89h1v1H140zM143 89h1v1H143zM148 89h1v1H148zM164 89h1v1H164zM166 89h1v1H166zM178 89h3v1H178zM186 89h1v1H186zM190 89h2v1H190zM194 89h1v1H194zM196 89h1v1H196zM203 89h1v1H203zM214 89h2v1H214zM218 89h1v1H218zM220 89h1v1H220zM224 89h1v1H224zM226 89h2v1H226zM230 89h1v1H230zM294 89h1v1H294zM1 90h1v1H1zM64 90h1v1H64zM68 90h1v1H68zM70 90h5v1H70zM76 90h1v1H76zM80 90h1v1H80zM84 90h1v1H84zM88 90h1v1H88zM94 90h5v1H94zM106 90h1v1H106zM112 90h5v1H112zM119 90h3v1H119zM125 90h1v1H125zM131 90h4v1H131zM136 90h1v1H136zM143 90h1v1H143zM149 90h3v1H149zM161 90h4v1H161zM167 90h3v1H167zM179 90h1v1H179zM186 90h1v1H186zM190 90h1v1H190zM197 90h3v1H197zM203 90h1v1H203zM214 90h1v1H214zM220 90h1v1H220zM224 90h1v1H224zM226 90h1v1H226zM230 90h1v1H230zM294 90h1v1H294zM1 91h1v1H1zM64 91h1v1H64zM68 91h1v1H68zM70 91h1v1H70zM77 91h1v1H77zM79 91h1v1H79zM84 91h1v1H84zM88 91h1v1H88zM92 91h1v1H92zM94 91h1v1H94zM106 91h1v1H106zM112 91h1v1H112zM122 91h1v1H122zM125 91h1v1H125zM128 91h1v1H128zM130 91h1v1H130zM134 91h1v1H134zM136 91h1v1H136zM143 91h1v1H143zM146 91h1v1H146zM152 91h1v1H152zM160 91h1v1H160zM164 91h1v1H164zM170 91h1v1H170zM179 91h1v1H179zM186 91h1v1H186zM190 91h1v1H190zM200 91h1v1H200zM203 91h1v1H203zM206 91h1v1H206zM214 91h1v1H214zM220 91h1v1H220zM223 91h2v1H223zM226 91h1v1H226zM230 91h1v1H230zM294 91h1v1H294zM1 92h1v1H1zM65 92h4v1H65zM71 92h3v1H71zM78 92h1v1H78zM83 92h3v1H83zM89 92h3v1H89zM95 92h3v1H95zM106 92h1v1H106zM113 92h3v1H113zM118 92h4v1H118zM126 92h2v1H126zM131 92h4v1H131zM136 92h1v1H136zM144 92h2v1H144zM148 92h4v1H148zM161 92h4v1H161zM166 92h4v1H166zM179 92h1v1H179zM185 92h3v1H185zM190 92h1v1H190zM196 92h4v1H196zM204 92h2v1H204zM214 92h1v1H214zM221 92h2v1H221zM224 92h1v1H224zM226 92h1v1H226zM230 92h1v1H230zM294 92h1v1H294zM1 93h1v1H1zM294 93h1v1H294zM1 94h1v1H1zM294 94h1v1H294zM1 95h1v1H1zM294 95h1v1H294zM1 96h1v1H1zM294 96h1v1H294zM1 97h1v1H1zM294 97h1v1H294zM1 98h1v1H1zM294 98h1v1H294zM1 99h1v1H1zM294 99h1v1H294zM1 100h1v1H1zM294 100h1v1H294zM1 101h1v1H1zM294 101h1v1H294zM1 102h1v1H1zM294 102h1v1H294zM1 103h1v1H1zM294 103h1v1H294zM1 104h294v1H1zM1 105h1v1H1zM294 105h1v1H294zM1 106h1v1H1zM294 106h1v1H294zM1 107h1v1H1zM294 107h1v1H294zM1 108h1v1H1zM294 108h1v1H294zM1 109h1v1H1zM294 109h1v1H294zM1 110h1v1H1zM294 110h1v1H294zM1 111h1v1H1zM294 111h1v1H294zM1 112h1v1H1zM294 112h1v1H294zM1 113h1v1H1zM294 113h1v1H294zM1 114h1v1H1zM294 114h1v1H294zM1 115h1v1H1zM124 115h1v1H124zM143 115h1v1H143zM150 115h1v1H150zM294 115h1v1H294zM1 116h1v1H1zM124 116h1v1H124zM143 116h1v1H143zM161 116h4v1H161zM294 116h1v1H294zM1 117h1v1H1zM112 117h1v1H112zM114 117h2v1H114zM119 117h3v1H119zM124 117h1v1H124zM126 117h2v1H126zM131 117h3v1H131zM137 117h3v1H137zM142 117h3v1H142zM149 117h2v1H149zM154 117h1v1H154zM156 117h2v1H156zM160 117h1v1H160zM164 117h1v1H164zM294 117h1v1H294zM1 118h1v1H1zM112 118h2v1H112zM116 118h1v1H116zM118 118h1v1H118zM122 118h1v1H122zM124 118h2v1H124zM128 118h1v1H128zM130 118h1v1H130zM134 118h1v1H134zM136 118h1v1H136zM140 118h1v1H140zM143 118h1v1H143zM150 118h1v1H150zM154 118h2v1H154zM158 118h1v1H158zM160 118h1v1H160zM164 118h1v1H164zM294 118h1v1H294zM1 119h1v1H1zM112 119h1v1H112zM118 119h5v1H118zM124 119h1v1H124zM128 119h1v1H128zM130 119h1v1H130zM134 119h1v1H134zM136 119h1v1H136zM140 119h1v1H140zM143 119h1v1H143zM150 119h1v1H150zM154 119h1v1H154zM158 119h1v1H158zM161 119h4v1H161zM294 119h1v1H294zM1 120h1v1H1zM112 120h1v1H112zM118 120h1v1H118zM124 120h1v1H124zM128 120h1v1H128zM130 120h1v1H130zM134 120h1v1H134zM136 120h1v1H136zM140 120h1v1H140zM143 120h1v1H143zM146 120h1v1H146zM150 120h1v1H150zM154 120h1v1H154zM158 120h1v1H158zM164 120h1v1H164zM167 120h2v1H167zM173 120h2v1H173zM179 120h2v1H179zM294 120h1v1H294zM1 121h1v1H1zM112 121h1v1H112zM119 121h3v1H119zM124 121h4v1H124zM131 121h3v1H131zM137 121h3v1H137zM144 121h2v1H144zM149 121h3v1H149zM154 121h1v1H154zM158 121h1v1H158zM161 121h3v1H161zM167 121h2v1H167zM173 121h2v1H173zM179 121h2v1H179zM294 121h1v1H294zM1 122h1v1H1zM294 122h1v1H294zM1 123h1v1H1zM294 123h1v1H294zM1 124h1v1H1zM294 124h1v1H294zM1 125h1v1H1zM294 125h1v1H294zM1 126h294v1H1z"/>

</g>
</svg>
