<svg xmlns="http://www.w3.org/2000/svg" width="888" height="384" viewBox="0 0 296 128" role="img" aria-labelledby="title">
<title id="title">DevDash setup reset confirm (BWR)</title>
<rect width="296" height="128" fill="#fff"/>
<g shape-rendering="crispEdges">
<path fill="#111" d="M1 1h294v1H1zM1 2h1v1H1zM294 2h1v1H294zM1 3h1v1H1zM294 3h1v1H294zM1 4h1v1H1zM6 4h9v1H6zM294 4h1v1H294zM1 5h1v1H1zM6 5h9v1H6zM19 5h3v1H19zM25 5h5v1H25zM31 5h1v1H31zM35 5h1v1H35zM37 5h3v1H37zM44 5h3v1H44zM50 5h4v1H50zM55 5h1v1H55zM59 5h1v1H59zM225 5h4v1H225zM230 5h5v1H230zM236 5h5v1H236zM242 5h1v1H242zM246 5h1v1H246zM248 5h4v1H248zM260 5h4v1H260zM266 5h5v1H266zM273 5h4v1H273zM278 5h5v1H278zM284 5h5v1H284zM294 5h1v1H294zM1 6h1v1H1zM6 6h2v1H6zM13 6h2v1H13zM19 6h1v1H19zM22 6h1v1H22zM25 6h1v1H25zM31 6h1v1H31zM35 6h1v1H35zM37 6h1v1H37zM40 6h1v1H40zM43 6h1v1H43zM47 6h1v1H47zM49 6h1v1H49zM55 6h1v1H55zM59 6h1v1H59zM224 6h1v1H224zM230 6h1v1H230zM238 6h1v1H238zM242 6h1v1H242zM246 6h1v1H246zM248 6h1v1H248zM252 6h1v1H252zM260 6h1v1H260zM264 6h1v1H264zM266 6h1v1H266zM272 6h1v1H272zM278 6h1v1H278zM286 6h1v1H286zM294 6h1v1H294zM1 7h1v1H1zM6 7h2v1H6zM9 7h3v1H9zM13 7h2v1H13zM19 7h1v1H19zM23 7h1v1H23zM25 7h1v1H25zM31 7h1v1H31zM35 7h1v1H35zM37 7h1v1H37zM41 7h1v1H41zM43 7h1v1H43zM47 7h1v1H47zM49 7h1v1H49zM55 7h1v1H55zM59 7h1v1H59zM224 7h1v1H224zM230 7h1v1H230zM238 7h1v1H238zM242 7h1v1H242zM246 7h1v1H246zM248 7h1v1H248zM252 7h1v1H252zM260 7h1v1H260zM264 7h1v1H264zM266 7h1v1H266zM272 7h1v1H272zM278 7h1v1H278zM286 7h1v1H286zM294 7h1v1H294zM1 8h1v1H1zM6 8h2v1H6zM9 8h3v1H9zM13 8h2v1H13zM19 8h1v1H19zM23 8h1v1H23zM25 8h4v1H25zM31 8h1v1H31zM35 8h1v1H35zM37 8h1v1H37zM41 8h1v1H41zM43 8h1v1H43zM47 8h1v1H47zM50 8h3v1H50zM55 8h5v1H55zM225 8h3v1H225zM230 8h4v1H230zM238 8h1v1H238zM242 8h1v1H242zM246 8h1v1H246zM248 8h4v1H248zM260 8h4v1H260zM266 8h4v1H266zM273 8h3v1H273zM278 8h4v1H278zM286 8h1v1H286zM294 8h1v1H294zM1 9h1v1H1zM6 9h2v1H6zM9 9h3v1H9zM13 9h2v1H13zM19 9h1v1H19zM23 9h1v1H23zM25 9h1v1H25zM31 9h1v1H31zM35 9h1v1H35zM37 9h1v1H37zM41 9h1v1H41zM43 9h5v1H43zM53 9h1v1H53zM55 9h1v1H55zM59 9h1v1H59zM228 9h1v1H228zM230 9h1v1H230zM238 9h1v1H238zM242 9h1v1H242zM246 9h1v1H246zM248 9h1v1H248zM260 9h1v1H260zM262 9h1v1H262zM266 9h1v1H266zM276 9h1v1H276zM278 9h1v1H278zM286 9h1v1H286zM294 9h1v1H294zM1 10h1v1H1zM6 10h2v1H6zM13 10h2v1H13zM19 10h1v1H19zM22 10h1v1H22zM25 10h1v1H25zM32 10h1v1H32zM34 10h1v1H34zM37 10h1v1H37zM40 10h1v1H40zM43 10h1v1H43zM47 10h1v1H47zM53 10h1v1H53zM55 10h1v1H55zM59 10h1v1H59zM228 10h1v1H228zM230 10h1v1H230zM238 10h1v1H238zM242 10h1v1H242zM246 10h1v1H246zM248 10h1v1H248zM260 10h1v1H260zM263 10h1v1H263zM266 10h1v1H266zM276 10h1v1H276zM278 10h1v1H278zM286 10h1v1H286zM294 10h1v1H294zM1 11h1v1H1zM6 11h9v1H6zM19 11h3v1H19zM25 11h5v1H25zM33 11h1v1H33zM37 11h3v1H37zM43 11h1v1H43zM47 11h1v1H47zM49 11h4v1H49zM55 11h1v1H55zM59 11h1v1H59zM224 11h4v1H224zM230 11h5v1H230zM238 11h1v1H238zM243 11h3v1H243zM248 11h1v1H248zM260 11h1v1H260zM264 11h1v1H264zM266 11h5v1H266zM272 11h4v1H272zM278 11h5v1H278zM286 11h1v1H286zM294 11h1v1H294zM1 12h1v1H1zM6 12h9v1H6zM294 12h1v1H294zM1 13h1v1H1zM294 13h1v1H294zM1 14h1v1H1zM294 14h1v1H294zM1 15h294v1H1zM1 16h1v1H1zM294 16h1v1H294zM1 17h1v1H1zM294 17h1v1H294zM1 18h1v1H1zM294 18h1v1H294zM1 19h1v1H1zM294 19h1v1H294zM1 20h1v1H1zM294 20h1v1H294zM1 21h1v1H1zM6 21h26v1H6zM294 21h1v1H294zM1 22h1v1H1zM6 22h26v1H6zM42 22h6v1H42zM54 22h6v1H54zM64 22h2v1H64zM72 22h2v1H72zM76 22h10v1H76zM90 22h6v1H90zM102 22h6v1H102zM124 22h8v1H124zM136 22h10v1H136zM150 22h8v1H150zM160 22h10v1H160zM172 22h10v1H172zM294 22h1v1H294zM1 23h1v1H1zM6 23h7v1H6zM15 23h17v1H15zM42 23h6v1H42zM54 23h6v1H54zM64 23h2v1H64zM72 23h2v1H72zM76 23h10v1H76zM90 23h6v1H90zM102 23h6v1H102zM124 23h8v1H124zM136 23h10v1H136zM150 23h8v1H150zM160 23h10v1H160zM172 23h10v1H172zM294 23h1v1H294zM1 24h1v1H1zM6 24h7v1H6zM15 24h17v1H15zM40 24h2v1H40zM48 24h2v1H48zM52 24h2v1H52zM60 24h2v1H60zM64 24h2v1H64zM72 24h2v1H72zM76 24h2v1H76zM92 24h2v1H92zM100 24h2v1H100zM108 24h2v1H108zM124 24h2v1H124zM132 24h2v1H132zM136 24h2v1H136zM148 24h2v1H148zM160 24h2v1H160zM176 24h2v1H176zM294 24h1v1H294zM1 25h1v1H1zM6 25h5v1H6zM15 25h17v1H15zM40 25h2v1H40zM48 25h2v1H48zM52 25h2v1H52zM60 25h2v1H60zM64 25h2v1H64zM72 25h2v1H72zM76 25h2v1H76zM92 25h2v1H92zM100 25h2v1H100zM108 25h2v1H108zM124 25h2v1H124zM132 25h2v1H132zM136 25h2v1H136zM148 25h2v1H148zM160 25h2v1H160zM176 25h2v1H176zM294 25h1v1H294zM1 26h1v1H1zM6 26h5v1H6zM15 26h17v1H15zM40 26h2v1H40zM52 26h2v1H52zM60 26h2v1H60zM64 26h4v1H64zM72 26h2v1H72zM76 26h2v1H76zM92 26h2v1H92zM100 26h2v1H100zM124 26h2v1H124zM132 26h2v1H132zM136 26h2v1H136zM148 26h2v1H148zM160 26h2v1H160zM176 26h2v1H176zM294 26h1v1H294zM1 27h1v1H1zM6 27h7v1H6zM15 27h6v1H15zM23 27h6v1H23zM31 27h1v1H31zM40 27h2v1H40zM52 27h2v1H52zM60 27h2v1H60zM64 27h4v1H64zM72 27h2v1H72zM76 27h2v1H76zM92 27h2v1H92zM100 27h2v1H100zM124 27h2v1H124zM132 27h2v1H132zM136 27h2v1H136zM148 27h2v1H148zM160 27h2v1H160zM176 27h2v1H176zM294 27h1v1H294zM1 28h1v1H1zM6 28h7v1H6zM15 28h6v1H15zM23 28h6v1H23zM31 28h1v1H31zM40 28h2v1H40zM52 28h2v1H52zM60 28h2v1H60zM64 28h2v1H64zM68 28h2v1H68zM72 28h2v1H72zM76 28h8v1H76zM92 28h2v1H92zM100 28h2v1H100zM104 28h6v1H104zM124 28h8v1H124zM136 28h8v1H136zM150 28h6v1H150zM160 28h8v1H160zM176 28h2v1H176zM294 28h1v1H294zM1 29h1v1H1zM6 29h7v1H6zM15 29h8v1H15zM25 29h2v1H25zM29 29h3v1H29zM40 29h2v1H40zM52 29h2v1H52zM60 29h2v1H60zM64 29h2v1H64zM68 29h2v1H68zM72 29h2v1H72zM76 29h8v1H76zM92 29h2v1H92zM100 29h2v1H100zM104 29h6v1H104zM124 29h8v1H124zM136 29h8v1H136zM150 29h6v1H150zM160 29h8v1H160zM176 29h2v1H176zM294 29h1v1H294zM1 30h1v1H1zM6 30h7v1H6zM15 30h8v1H15zM25 30h2v1H25zM29 30h3v1H29zM40 30h2v1H40zM52 30h2v1H52zM60 30h2v1H60zM64 30h2v1H64zM70 30h4v1H70zM76 30h2v1H76zM92 30h2v1H92zM100 30h2v1H100zM108 30h2v1H108zM124 30h2v1H124zM128 30h2v1H128zM136 30h2v1H136zM156 30h2v1H156zM160 30h2v1H160zM176 30h2v1H176zM294 30h1v1H294zM1 31h1v1H1zM6 31h7v1H6zM15 31h10v1H15zM27 31h5v1H27zM40 31h2v1H40zM52 31h2v1H52zM60 31h2v1H60zM64 31h2v1H64zM70 31h4v1H70zM76 31h2v1H76zM92 31h2v1H92zM100 31h2v1H100zM108 31h2v1H108zM124 31h2v1H124zM128 31h2v1H128zM136 31h2v1H136zM156 31h2v1H156zM160 31h2v1H160zM176 31h2v1H176zM294 31h1v1H294zM1 32h1v1H1zM6 32h7v1H6zM15 32h10v1H15zM27 32h5v1H27zM40 32h2v1H40zM48 32h2v1H48zM52 32h2v1H52zM60 32h2v1H60zM64 32h2v1H64zM72 32h2v1H72zM76 32h2v1H76zM92 32h2v1H92zM100 32h2v1H100zM108 32h2v1H108zM124 32h2v1H124zM130 32h2v1H130zM136 32h2v1H136zM156 32h2v1H156zM160 32h2v1H160zM176 32h2v1H176zM294 32h1v1H294zM1 33h1v1H1zM6 33h7v1H6zM15 33h8v1H15zM25 33h2v1H25zM29 33h3v1H29zM40 33h2v1H40zM48 33h2v1H48zM52 33h2v1H52zM60 33h2v1H60zM64 33h2v1H64zM72 33h2v1H72zM76 33h2v1H76zM92 33h2v1H92zM100 33h2v1H100zM108 33h2v1H108zM124 33h2v1H124zM130 33h2v1H130zM136 33h2v1H136zM156 33h2v1H156zM160 33h2v1H160zM176 33h2v1H176zM294 33h1v1H294zM1 34h1v1H1zM6 34h7v1H6zM15 34h8v1H15zM25 34h2v1H25zM29 34h3v1H29zM42 34h6v1H42zM54 34h6v1H54zM64 34h2v1H64zM72 34h2v1H72zM76 34h2v1H76zM90 34h6v1H90zM102 34h8v1H102zM124 34h2v1H124zM132 34h2v1H132zM136 34h10v1H136zM148 34h8v1H148zM160 34h10v1H160zM176 34h2v1H176zM294 34h1v1H294zM1 35h1v1H1zM6 35h5v1H6zM17 35h4v1H17zM23 35h6v1H23zM31 35h1v1H31zM42 35h6v1H42zM54 35h6v1H54zM64 35h2v1H64zM72 35h2v1H72zM76 35h2v1H76zM90 35h6v1H90zM102 35h8v1H102zM124 35h2v1H124zM132 35h2v1H132zM136 35h10v1H136zM148 35h8v1H148zM160 35h10v1H160zM176 35h2v1H176zM294 35h1v1H294zM1 36h1v1H1zM6 36h5v1H6zM17 36h4v1H17zM23 36h6v1H23zM31 36h1v1H31zM294 36h1v1H294zM1 37h1v1H1zM6 37h26v1H6zM294 37h1v1H294zM1 38h1v1H1zM6 38h26v1H6zM294 38h1v1H294zM1 39h1v1H1zM294 39h1v1H294zM1 40h1v1H1zM294 40h1v1H294zM1 41h1v1H1zM48 41h1v1H48zM54 41h2v1H54zM60 41h1v1H60zM96 41h1v1H96zM125 41h2v1H125zM191 41h2v1H191zM202 41h1v1H202zM221 41h1v1H221zM294 41h1v1H294zM1 42h1v1H1zM53 42h1v1H53zM56 42h1v1H56zM72 42h1v1H72zM108 42h1v1H108zM126 42h1v1H126zM192 42h1v1H192zM202 42h1v1H202zM221 42h1v1H221zM294 42h1v1H294zM1 43h1v1H1zM40 43h1v1H40zM44 43h1v1H44zM47 43h2v1H47zM53 43h1v1H53zM59 43h2v1H59zM72 43h1v1H72zM83 43h3v1H83zM88 43h4v1H88zM95 43h2v1H95zM108 43h1v1H108zM119 43h3v1H119zM126 43h1v1H126zM131 43h3v1H131zM137 43h3v1H137zM142 43h4v1H142zM166 43h4v1H166zM173 43h3v1H173zM178 43h1v1H178zM180 43h2v1H180zM185 43h3v1H185zM192 43h1v1H192zM202 43h1v1H202zM205 43h1v1H205zM209 43h3v1H209zM214 43h4v1H214zM220 43h3v1H220zM294 43h1v1H294zM1 44h1v1H1zM40 44h1v1H40zM44 44h1v1H44zM48 44h1v1H48zM52 44h3v1H52zM60 44h1v1H60zM70 44h5v1H70zM86 44h1v1H86zM88 44h1v1H88zM92 44h1v1H92zM96 44h1v1H96zM106 44h5v1H106zM118 44h1v1H118zM126 44h1v1H126zM130 44h1v1H130zM134 44h1v1H134zM136 44h1v1H136zM140 44h1v1H140zM142 44h1v1H142zM146 44h1v1H146zM154 44h5v1H154zM166 44h1v1H166zM170 44h1v1H170zM176 44h1v1H176zM178 44h2v1H178zM182 44h1v1H182zM184 44h1v1H184zM188 44h1v1H188zM192 44h1v1H192zM202 44h1v1H202zM204 44h1v1H204zM208 44h1v1H208zM212 44h1v1H212zM214 44h1v1H214zM218 44h1v1H218zM221 44h1v1H221zM294 44h1v1H294zM1 45h1v1H1zM40 45h1v1H40zM44 45h1v1H44zM48 45h1v1H48zM53 45h1v1H53zM60 45h1v1H60zM72 45h1v1H72zM83 45h4v1H83zM88 45h4v1H88zM96 45h1v1H96zM108 45h1v1H108zM119 45h3v1H119zM126 45h1v1H126zM130 45h5v1H130zM136 45h5v1H136zM142 45h4v1H142zM166 45h4v1H166zM173 45h4v1H173zM178 45h1v1H178zM182 45h1v1H182zM184 45h5v1H184zM192 45h1v1H192zM202 45h2v1H202zM208 45h5v1H208zM214 45h4v1H214zM221 45h1v1H221zM294 45h1v1H294zM1 46h1v1H1zM40 46h1v1H40zM42 46h1v1H42zM44 46h1v1H44zM48 46h1v1H48zM53 46h1v1H53zM60 46h1v1H60zM72 46h1v1H72zM82 46h1v1H82zM86 46h1v1H86zM88 46h1v1H88zM96 46h1v1H96zM108 46h1v1H108zM122 46h1v1H122zM126 46h1v1H126zM130 46h1v1H130zM136 46h1v1H136zM142 46h1v1H142zM166 46h1v1H166zM172 46h1v1H172zM176 46h1v1H176zM178 46h1v1H178zM182 46h1v1H182zM184 46h1v1H184zM192 46h1v1H192zM202 46h1v1H202zM204 46h1v1H204zM208 46h1v1H208zM214 46h1v1H214zM221 46h1v1H221zM224 46h1v1H224zM294 46h1v1H294zM1 47h1v1H1zM41 47h1v1H41zM43 47h1v1H43zM47 47h3v1H47zM53 47h1v1H53zM59 47h3v1H59zM83 47h4v1H83zM88 47h1v1H88zM95 47h3v1H95zM118 47h4v1H118zM125 47h3v1H125zM131 47h3v1H131zM137 47h3v1H137zM142 47h1v1H142zM166 47h1v1H166zM173 47h4v1H173zM178 47h1v1H178zM182 47h1v1H182zM185 47h3v1H185zM191 47h3v1H191zM202 47h1v1H202zM205 47h1v1H205zM209 47h3v1H209zM214 47h1v1H214zM222 47h2v1H222zM294 47h1v1H294zM1 48h1v1H1zM294 48h1v1H294zM1 49h1v1H1zM294 49h1v1H294zM1 50h1v1H1zM294 50h1v1H294zM1 51h1v1H1zM294 51h1v1H294zM1 52h1v1H1zM294 52h1v1H294zM1 53h1v1H1zM294 53h1v1H294zM1 54h1v1H1zM294 54h1v1H294zM1 55h1v1H1zM294 55h1v1H294zM1 56h1v1H1zM6 56h26v1H6zM294 56h1v1H294zM1 57h1v1H1zM6 57h26v1H6zM40 57h10v1H40zM52 57h2v1H52zM60 57h2v1H60zM64 57h2v1H64zM76 57h2v1H76zM100 57h10v1H100zM112 57h8v1H112zM126 57h6v1H126zM138 57h8v1H138zM148 57h10v1H148zM294 57h1v1H294zM1 58h1v1H1zM6 58h5v1H6zM17 58h15v1H17zM40 58h10v1H40zM52 58h2v1H52zM60 58h2v1H60zM64 58h2v1H64zM76 58h2v1H76zM100 58h10v1H100zM112 58h8v1H112zM126 58h6v1H126zM138 58h8v1H138zM148 58h10v1H148zM294 58h1v1H294zM1 59h1v1H1zM6 59h5v1H6zM17 59h15v1H17zM40 59h2v1H40zM52 59h2v1H52zM60 59h2v1H60zM64 59h2v1H64zM76 59h2v1H76zM100 59h2v1H100zM112 59h2v1H112zM120 59h2v1H120zM124 59h2v1H124zM132 59h2v1H132zM136 59h2v1H136zM148 59h2v1H148zM294 59h1v1H294zM1 60h1v1H1zM6 60h3v1H6zM11 60h6v1H11zM19 60h13v1H19zM40 60h2v1H40zM52 60h2v1H52zM60 60h2v1H60zM64 60h2v1H64zM76 60h2v1H76zM100 60h2v1H100zM112 60h2v1H112zM120 60h2v1H120zM124 60h2v1H124zM132 60h2v1H132zM136 60h2v1H136zM148 60h2v1H148zM294 60h1v1H294zM1 61h1v1H1zM6 61h3v1H6zM11 61h6v1H11zM19 61h13v1H19zM40 61h2v1H40zM52 61h2v1H52zM60 61h2v1H60zM64 61h2v1H64zM76 61h2v1H76zM100 61h2v1H100zM112 61h2v1H112zM120 61h2v1H120zM124 61h2v1H124zM132 61h2v1H132zM136 61h2v1H136zM148 61h2v1H148zM294 61h1v1H294zM1 62h1v1H1zM6 62h11v1H6zM19 62h2v1H19zM23 62h6v1H23zM31 62h1v1H31zM40 62h2v1H40zM52 62h2v1H52zM60 62h2v1H60zM64 62h2v1H64zM76 62h2v1H76zM100 62h2v1H100zM112 62h2v1H112zM120 62h2v1H120zM124 62h2v1H124zM132 62h2v1H132zM136 62h2v1H136zM148 62h2v1H148zM294 62h1v1H294zM1 63h1v1H1zM6 63h11v1H6zM19 63h2v1H19zM23 63h6v1H23zM31 63h1v1H31zM40 63h8v1H40zM52 63h2v1H52zM60 63h2v1H60zM64 63h2v1H64zM76 63h2v1H76zM100 63h8v1H100zM112 63h8v1H112zM124 63h2v1H124zM132 63h2v1H132zM138 63h6v1H138zM148 63h8v1H148zM294 63h1v1H294zM1 64h1v1H1zM6 64h9v1H6zM17 64h6v1H17zM25 64h2v1H25zM29 64h3v1H29zM40 64h8v1H40zM52 64h2v1H52zM60 64h2v1H60zM64 64h2v1H64zM76 64h2v1H76zM100 64h8v1H100zM112 64h8v1H112zM124 64h2v1H124zM132 64h2v1H132zM138 64h6v1H138zM148 64h8v1H148zM294 64h1v1H294zM1 65h1v1H1zM6 65h9v1H6zM17 65h6v1H17zM25 65h2v1H25zM29 65h3v1H29zM40 65h2v1H40zM52 65h2v1H52zM60 65h2v1H60zM64 65h2v1H64zM76 65h2v1H76zM100 65h2v1H100zM112 65h2v1H112zM116 65h2v1H116zM124 65h10v1H124zM144 65h2v1H144zM148 65h2v1H148zM294 65h1v1H294zM1 66h1v1H1zM6 66h7v1H6zM15 66h10v1H15zM27 66h5v1H27zM40 66h2v1H40zM52 66h2v1H52zM60 66h2v1H60zM64 66h2v1H64zM76 66h2v1H76zM100 66h2v1H100zM112 66h2v1H112zM116 66h2v1H116zM124 66h10v1H124zM144 66h2v1H144zM148 66h2v1H148zM294 66h1v1H294zM1 67h1v1H1zM6 67h7v1H6zM15 67h10v1H15zM27 67h5v1H27zM40 67h2v1H40zM52 67h2v1H52zM60 67h2v1H60zM64 67h2v1H64zM76 67h2v1H76zM100 67h2v1H100zM112 67h2v1H112zM118 67h2v1H118zM124 67h2v1H124zM132 67h2v1H132zM144 67h2v1H144zM148 67h2v1H148zM294 67h1v1H294zM1 68h1v1H1zM6 68h5v1H6zM13 68h10v1H13zM25 68h2v1H25zM29 68h3v1H29zM40 68h2v1H40zM52 68h2v1H52zM60 68h2v1H60zM64 68h2v1H64zM76 68h2v1H76zM100 68h2v1H100zM112 68h2v1H112zM118 68h2v1H118zM124 68h2v1H124zM132 68h2v1H132zM144 68h2v1H144zM148 68h2v1H148zM294 68h1v1H294zM1 69h1v1H1zM6 69h5v1H6zM13 69h10v1H13zM25 69h2v1H25zM29 69h3v1H29zM40 69h2v1H40zM54 69h6v1H54zM64 69h10v1H64zM76 69h10v1H76zM100 69h10v1H100zM112 69h2v1H112zM120 69h2v1H120zM124 69h2v1H124zM132 69h2v1H132zM136 69h8v1H136zM148 69h10v1H148zM294 69h1v1H294zM1 70h1v1H1zM6 70h3v1H6zM19 70h2v1H19zM23 70h6v1H23zM31 70h1v1H31zM40 70h2v1H40zM54 70h6v1H54zM64 70h10v1H64zM76 70h10v1H76zM100 70h10v1H100zM112 70h2v1H112zM120 70h2v1H120zM124 70h2v1H124zM132 70h2v1H132zM136 70h8v1H136zM148 70h10v1H148zM294 70h1v1H294zM1 71h1v1H1zM6 71h3v1H6zM19 71h2v1H19zM23 71h6v1H23zM31 71h1v1H31zM294 71h1v1H294zM1 72h1v1H1zM6 72h26v1H6zM294 72h1v1H294zM1 73h1v1H1zM6 73h26v1H6zM294 73h1v1H294zM1 74h1v1H1zM294 74h1v1H294zM1 75h1v1H1zM294 75h1v1H294zM1 76h1v1H1zM48 76h1v1H48zM89 76h1v1H89zM96 76h1v1H96zM154 76h1v1H154zM172 76h1v1H172zM185 76h1v1H185zM204 76h2v1H204zM210 76h1v1H210zM227 76h1v1H227zM294 76h1v1H294zM1 77h1v1H1zM89 77h1v1H89zM154 77h1v1H154zM172 77h1v1H172zM185 77h1v1H185zM203 77h1v1H203zM206 77h1v1H206zM227 77h1v1H227zM294 77h1v1H294zM1 78h1v1H1zM40 78h1v1H40zM44 78h1v1H44zM47 78h2v1H47zM52 78h4v1H52zM59 78h3v1H59zM65 78h3v1H65zM77 78h3v1H77zM82 78h1v1H82zM84 78h2v1H84zM88 78h3v1H88zM95 78h2v1H95zM100 78h1v1H100zM102 78h2v1H102zM107 78h3v1H107zM118 78h1v1H118zM120 78h2v1H120zM124 78h1v1H124zM128 78h1v1H128zM131 78h3v1H131zM154 78h1v1H154zM156 78h2v1H156zM161 78h3v1H161zM167 78h3v1H167zM172 78h1v1H172zM175 78h1v1H175zM184 78h3v1H184zM191 78h3v1H191zM203 78h1v1H203zM209 78h2v1H209zM214 78h1v1H214zM216 78h2v1H216zM221 78h3v1H221zM226 78h3v1H226zM238 78h1v1H238zM240 78h2v1H240zM244 78h1v1H244zM248 78h1v1H248zM250 78h1v1H250zM252 78h2v1H252zM294 78h1v1H294zM1 79h1v1H1zM40 79h1v1H40zM44 79h1v1H44zM48 79h1v1H48zM52 79h1v1H52zM56 79h1v1H56zM58 79h1v1H58zM62 79h1v1H62zM64 79h1v1H64zM76 79h1v1H76zM80 79h1v1H80zM82 79h2v1H82zM86 79h1v1H86zM89 79h1v1H89zM96 79h1v1H96zM100 79h2v1H100zM104 79h1v1H104zM106 79h1v1H106zM110 79h1v1H110zM118 79h2v1H118zM122 79h1v1H122zM124 79h1v1H124zM128 79h1v1H128zM130 79h1v1H130zM142 79h5v1H142zM154 79h2v1H154zM158 79h1v1H158zM164 79h1v1H164zM166 79h1v1H166zM172 79h1v1H172zM174 79h1v1H174zM185 79h1v1H185zM190 79h1v1H190zM194 79h1v1H194zM202 79h3v1H202zM210 79h1v1H210zM214 79h2v1H214zM218 79h1v1H218zM220 79h1v1H220zM227 79h1v1H227zM238 79h2v1H238zM242 79h1v1H242zM244 79h1v1H244zM248 79h1v1H248zM250 79h2v1H250zM254 79h1v1H254zM294 79h1v1H294zM1 80h1v1H1zM40 80h1v1H40zM44 80h1v1H44zM48 80h1v1H48zM52 80h4v1H52zM58 80h5v1H58zM65 80h3v1H65zM76 80h5v1H76zM82 80h1v1H82zM86 80h1v1H86zM89 80h1v1H89zM96 80h1v1H96zM100 80h1v1H100zM106 80h5v1H106zM118 80h1v1H118zM122 80h1v1H122zM124 80h1v1H124zM128 80h1v1H128zM131 80h3v1H131zM154 80h1v1H154zM158 80h1v1H158zM161 80h4v1H161zM166 80h1v1H166zM172 80h2v1H172zM185 80h1v1H185zM190 80h1v1H190zM194 80h1v1H194zM203 80h1v1H203zM210 80h1v1H210zM214 80h1v1H214zM221 80h3v1H221zM227 80h1v1H227zM238 80h1v1H238zM244 80h1v1H244zM248 80h1v1H248zM250 80h1v1H250zM254 80h1v1H254zM294 80h1v1H294zM1 81h1v1H1zM40 81h1v1H40zM42 81h1v1H42zM44 81h1v1H44zM48 81h1v1H48zM52 81h1v1H52zM58 81h1v1H58zM68 81h1v1H68zM76 81h1v1H76zM82 81h1v1H82zM86 81h1v1H86zM89 81h1v1H89zM92 81h1v1H92zM96 81h1v1H96zM100 81h1v1H100zM106 81h1v1H106zM118 81h1v1H118zM122 81h1v1H122zM125 81h1v1H125zM127 81h1v1H127zM134 81h1v1H134zM154 81h1v1H154zM158 81h1v1H158zM160 81h1v1H160zM164 81h1v1H164zM166 81h1v1H166zM170 81h1v1H170zM172 81h1v1H172zM174 81h1v1H174zM185 81h1v1H185zM188 81h1v1H188zM190 81h1v1H190zM194 81h1v1H194zM203 81h1v1H203zM210 81h1v1H210zM214 81h1v1H214zM224 81h1v1H224zM227 81h1v1H227zM230 81h1v1H230zM238 81h1v1H238zM244 81h1v1H244zM247 81h2v1H247zM250 81h1v1H250zM254 81h1v1H254zM294 81h1v1H294zM1 82h1v1H1zM41 82h1v1H41zM43 82h1v1H43zM47 82h3v1H47zM52 82h1v1H52zM59 82h3v1H59zM64 82h4v1H64zM77 82h3v1H77zM82 82h1v1H82zM86 82h1v1H86zM90 82h2v1H90zM95 82h3v1H95zM100 82h1v1H100zM107 82h3v1H107zM118 82h1v1H118zM122 82h1v1H122zM126 82h1v1H126zM130 82h4v1H130zM154 82h4v1H154zM161 82h4v1H161zM167 82h3v1H167zM172 82h1v1H172zM175 82h1v1H175zM186 82h2v1H186zM191 82h3v1H191zM203 82h1v1H203zM209 82h3v1H209zM214 82h1v1H214zM220 82h4v1H220zM228 82h2v1H228zM238 82h1v1H238zM245 82h2v1H245zM248 82h1v1H248zM250 82h1v1H250zM254 82h1v1H254zM294 82h1v1H294zM1 83h1v1H1zM294 83h1v1H294zM1 84h1v1H1zM294 84h1v1H294zM1 85h1v1H1zM294 85h1v1H294zM1 86h1v1H1zM294 86h1v1H294zM1 87h1v1H1zM294 87h1v1H294zM1 88h1v1H1zM294 88h1v1H294zM1 89h1v1H1zM294 89h1v1H294zM1 90h1v1H1zM294 90h1v1H294zM1 91h1v1H1zM294 91h1v1H294zM1 92h1v1H1zM294 92h1v1H294zM1 93h294v1H1zM1 94h1v1H1zM294 94h1v1H294zM1 95h1v1H1zM294 95h1v1H294zM1 96h1v1H1zM294 96h1v1H294zM1 97h1v1H1zM294 97h1v1H294zM1 98h1v1H1zM6 98h1v1H6zM10 98h1v1H10zM13 98h3v1H13zM24 98h4v1H24zM30 98h4v1H30zM36 98h5v1H36zM43 98h4v1H43zM49 98h4v1H49zM73 98h3v1H73zM79 98h3v1H79zM84 98h1v1H84zM88 98h1v1H88zM91 98h3v1H91zM96 98h5v1H96zM102 98h1v1H102zM294 98h1v1H294zM1 99h1v1H1zM6 99h1v1H6zM10 99h1v1H10zM12 99h1v1H12zM16 99h1v1H16zM24 99h1v1H24zM28 99h1v1H28zM30 99h1v1H30zM34 99h1v1H34zM36 99h1v1H36zM42 99h1v1H42zM48 99h1v1H48zM72 99h1v1H72zM76 99h1v1H76zM78 99h1v1H78zM82 99h1v1H82zM84 99h1v1H84zM88 99h1v1H88zM90 99h1v1H90zM94 99h1v1H94zM96 99h1v1H96zM102 99h1v1H102zM294 99h1v1H294zM1 100h1v1H1zM6 100h2v1H6zM10 100h1v1H10zM12 100h1v1H12zM16 100h1v1H16zM24 100h1v1H24zM28 100h1v1H28zM30 100h1v1H30zM34 100h1v1H34zM36 100h1v1H36zM42 100h1v1H42zM48 100h1v1H48zM60 100h5v1H60zM72 100h1v1H72zM78 100h1v1H78zM82 100h1v1H82zM84 100h2v1H84zM88 100h1v1H88zM90 100h1v1H90zM96 100h1v1H96zM102 100h1v1H102zM294 100h1v1H294zM1 101h1v1H1zM6 101h1v1H6zM8 101h1v1H8zM10 101h1v1H10zM12 101h1v1H12zM16 101h1v1H16zM24 101h4v1H24zM30 101h4v1H30zM36 101h4v1H36zM43 101h3v1H43zM49 101h3v1H49zM72 101h1v1H72zM78 101h1v1H78zM82 101h1v1H82zM84 101h1v1H84zM86 101h1v1H86zM88 101h1v1H88zM90 101h1v1H90zM96 101h4v1H96zM102 101h1v1H102zM294 101h1v1H294zM1 102h1v1H1zM6 102h1v1H6zM9 102h2v1H9zM12 102h1v1H12zM16 102h1v1H16zM24 102h1v1H24zM30 102h1v1H30zM32 102h1v1H32zM36 102h1v1H36zM46 102h1v1H46zM52 102h1v1H52zM60 102h5v1H60zM72 102h1v1H72zM78 102h5v1H78zM84 102h1v1H84zM87 102h2v1H87zM90 102h1v1H90zM96 102h1v1H96zM102 102h1v1H102zM294 102h1v1H294zM1 103h1v1H1zM6 103h1v1H6zM10 103h1v1H10zM12 103h1v1H12zM16 103h1v1H16zM24 103h1v1H24zM30 103h1v1H30zM33 103h1v1H33zM36 103h1v1H36zM46 103h1v1H46zM52 103h1v1H52zM72 103h1v1H72zM76 103h1v1H76zM78 103h1v1H78zM82 103h1v1H82zM84 103h1v1H84zM88 103h1v1H88zM90 103h1v1H90zM94 103h1v1H94zM96 103h1v1H96zM102 103h1v1H102zM294 103h1v1H294zM1 104h1v1H1zM6 104h1v1H6zM10 104h1v1H10zM13 104h3v1H13zM24 104h1v1H24zM30 104h1v1H30zM34 104h1v1H34zM36 104h5v1H36zM42 104h4v1H42zM48 104h4v1H48zM73 104h3v1H73zM78 104h1v1H78zM82 104h1v1H82zM84 104h1v1H84zM88 104h1v1H88zM91 104h3v1H91zM96 104h5v1H96zM102 104h5v1H102zM294 104h1v1H294zM1 105h1v1H1zM294 105h1v1H294zM1 106h1v1H1zM294 106h1v1H294zM1 107h1v1H1zM294 107h1v1H294zM1 108h1v1H1zM294 108h1v1H294zM1 109h1v1H1zM294 109h1v1H294zM1 110h1v1H1zM294 110h1v1H294zM1 111h1v1H1zM294 111h1v1H294zM1 112h1v1H1zM294 112h1v1H294zM1 113h1v1H1zM294 113h1v1H294zM1 114h1v1H1zM294 114h1v1H294zM1 115h1v1H1zM294 115h1v1H294zM1 116h1v1H1zM294 116h1v1H294zM1 117h1v1H1zM294 117h1v1H294zM1 118h1v1H1zM294 118h1v1H294zM1 119h1v1H1zM294 119h1v1H294zM1 120h1v1H1zM294 120h1v1H294zM1 121h1v1H1zM294 121h1v1H294zM1 122h1v1H1zM294 122h1v1H294zM1 123h1v1H1zM294 123h1v1H294zM1 124h1v1H1zM294 124h1v1H294zM1 125h1v1H1zM294 125h1v1H294zM1 126h294v1H1z"/>
<path fill="#d62518" d="M258 108h2v1H258zM268 108h6v1H268zM258 109h2v1H258zM268 109h6v1H268zM6 110h4v1H6zM11 110h4v1H11zM16 110h4v1H16zM21 110h4v1H21zM26 110h4v1H26zM31 110h4v1H31zM36 110h4v1H36zM41 110h4v1H41zM46 110h4v1H46zM51 110h4v1H51zM56 110h4v1H56zM61 110h4v1H61zM66 110h4v1H66zM71 110h4v1H71zM76 110h4v1H76zM81 110h4v1H81zM86 110h4v1H86zM91 110h4v1H91zM96 110h4v1H96zM101 110h4v1H101zM106 110h4v1H106zM111 110h4v1H111zM116 110h4v1H116zM121 110h4v1H121zM126 110h4v1H126zM131 110h4v1H131zM136 110h4v1H136zM141 110h4v1H141zM146 110h4v1H146zM151 110h4v1H151zM156 110h4v1H156zM161 110h4v1H161zM166 110h4v1H166zM171 110h4v1H171zM176 110h4v1H176zM181 110h4v1H181zM186 110h4v1H186zM191 110h4v1H191zM196 110h4v1H196zM201 110h4v1H201zM206 110h4v1H206zM211 110h4v1H211zM216 110h4v1H216zM221 110h4v1H221zM226 110h4v1H226zM231 110h4v1H231zM256 110h4v1H256zM266 110h2v1H266zM274 110h2v1H274zM6 111h4v1H6zM11 111h4v1H11zM16 111h4v1H16zM21 111h4v1H21zM26 111h4v1H26zM31 111h4v1H31zM36 111h4v1H36zM41 111h4v1H41zM46 111h4v1H46zM51 111h4v1H51zM56 111h4v1H56zM61 111h4v1H61zM66 111h4v1H66zM71 111h4v1H71zM76 111h4v1H76zM81 111h4v1H81zM86 111h4v1H86zM91 111h4v1H91zM96 111h4v1H96zM101 111h4v1H101zM106 111h4v1H106zM111 111h4v1H111zM116 111h4v1H116zM121 111h4v1H121zM126 111h4v1H126zM131 111h4v1H131zM136 111h4v1H136zM141 111h4v1H141zM146 111h4v1H146zM151 111h4v1H151zM156 111h4v1H156zM161 111h4v1H161zM166 111h4v1H166zM171 111h4v1H171zM176 111h4v1H176zM181 111h4v1H181zM186 111h4v1H186zM191 111h4v1H191zM196 111h4v1H196zM201 111h4v1H201zM206 111h4v1H206zM211 111h4v1H211zM216 111h4v1H216zM221 111h4v1H221zM226 111h4v1H226zM231 111h4v1H231zM256 111h4v1H256zM266 111h2v1H266zM274 111h2v1H274zM6 112h4v1H6zM11 112h4v1H11zM16 112h4v1H16zM21 112h4v1H21zM26 112h4v1H26zM31 112h4v1H31zM36 112h4v1H36zM41 112h4v1H41zM46 112h4v1H46zM51 112h4v1H51zM56 112h4v1H56zM61 112h4v1H61zM66 112h4v1H66zM71 112h4v1H71zM76 112h4v1H76zM81 112h4v1H81zM86 112h4v1H86zM91 112h4v1H91zM96 112h4v1H96zM101 112h4v1H101zM106 112h4v1H106zM111 112h4v1H111zM116 112h4v1H116zM121 112h4v1H121zM126 112h4v1H126zM131 112h4v1H131zM136 112h4v1H136zM141 112h4v1H141zM146 112h4v1H146zM151 112h4v1H151zM156 112h4v1H156zM161 112h4v1H161zM166 112h4v1H166zM171 112h4v1H171zM176 112h4v1H176zM181 112h4v1H181zM186 112h4v1H186zM191 112h4v1H191zM196 112h4v1H196zM201 112h4v1H201zM206 112h4v1H206zM211 112h4v1H211zM216 112h4v1H216zM221 112h4v1H221zM226 112h4v1H226zM231 112h4v1H231zM258 112h2v1H258zM266 112h2v1H266zM272 112h4v1H272zM280 112h6v1H280zM6 113h4v1H6zM11 113h4v1H11zM16 113h4v1H16zM21 113h4v1H21zM26 113h4v1H26zM31 113h4v1H31zM36 113h4v1H36zM41 113h4v1H41zM46 113h4v1H46zM51 113h4v1H51zM56 113h4v1H56zM61 113h4v1H61zM66 113h4v1H66zM71 113h4v1H71zM76 113h4v1H76zM81 113h4v1H81zM86 113h4v1H86zM91 113h4v1H91zM96 113h4v1H96zM101 113h4v1H101zM106 113h4v1H106zM111 113h4v1H111zM116 113h4v1H116zM121 113h4v1H121zM126 113h4v1H126zM131 113h4v1H131zM136 113h4v1H136zM141 113h4v1H141zM146 113h4v1H146zM151 113h4v1H151zM156 113h4v1H156zM161 113h4v1H161zM166 113h4v1H166zM171 113h4v1H171zM176 113h4v1H176zM181 113h4v1H181zM186 113h4v1H186zM191 113h4v1H191zM196 113h4v1H196zM201 113h4v1H201zM206 113h4v1H206zM211 113h4v1H211zM216 113h4v1H216zM221 113h4v1H221zM226 113h4v1H226zM231 113h4v1H231zM258 113h2v1H258zM266 113h2v1H266zM272 113h4v1H272zM280 113h6v1H280zM6 114h4v1H6zM11 114h4v1H11zM16 114h4v1H16zM21 114h4v1H21zM26 114h4v1H26zM31 114h4v1H31zM36 114h4v1H36zM41 114h4v1H41zM46 114h4v1H46zM51 114h4v1H51zM56 114h4v1H56zM61 114h4v1H61zM66 114h4v1H66zM71 114h4v1H71zM76 114h4v1H76zM81 114h4v1H81zM86 114h4v1H86zM91 114h4v1H91zM96 114h4v1H96zM101 114h4v1H101zM106 114h4v1H106zM111 114h4v1H111zM116 114h4v1H116zM121 114h4v1H121zM126 114h4v1H126zM131 114h4v1H131zM136 114h4v1H136zM141 114h4v1H141zM146 114h4v1H146zM151 114h4v1H151zM156 114h4v1H156zM161 114h4v1H161zM166 114h4v1H166zM171 114h4v1H171zM176 114h4v1H176zM181 114h4v1H181zM186 114h4v1H186zM191 114h4v1H191zM196 114h4v1H196zM201 114h4v1H201zM206 114h4v1H206zM211 114h4v1H211zM216 114h4v1H216zM221 114h4v1H221zM226 114h4v1H226zM231 114h4v1H231zM258 114h2v1H258zM266 114h2v1H266zM270 114h2v1H270zM274 114h2v1H274zM278 114h2v1H278zM6 115h4v1H6zM11 115h4v1H11zM16 115h4v1H16zM21 115h4v1H21zM26 115h4v1H26zM31 115h4v1H31zM36 115h4v1H36zM41 115h4v1H41zM46 115h4v1H46zM51 115h4v1H51zM56 115h4v1H56zM61 115h4v1H61zM66 115h4v1H66zM71 115h4v1H71zM76 115h4v1H76zM81 115h4v1H81zM86 115h4v1H86zM91 115h4v1H91zM96 115h4v1H96zM101 115h4v1H101zM106 115h4v1H106zM111 115h4v1H111zM116 115h4v1H116zM121 115h4v1H121zM126 115h4v1H126zM131 115h4v1H131zM136 115h4v1H136zM141 115h4v1H141zM146 115h4v1H146zM151 115h4v1H151zM156 115h4v1H156zM161 115h4v1H161zM166 115h4v1H166zM171 115h4v1H171zM176 115h4v1H176zM181 115h4v1H181zM186 115h4v1H186zM191 115h4v1H191zM196 115h4v1H196zM201 115h4v1H201zM206 115h4v1H206zM211 115h4v1H211zM216 115h4v1H216zM221 115h4v1H221zM226 115h4v1H226zM231 115h4v1H231zM258 115h2v1H258zM266 115h2v1H266zM270 115h2v1H270zM274 115h2v1H274zM278 115h2v1H278zM6 116h4v1H6zM11 116h4v1H11zM16 116h4v1H16zM21 116h4v1H21zM26 116h4v1H26zM31 116h4v1H31zM36 116h4v1H36zM41 116h4v1H41zM46 116h4v1H46zM51 116h4v1H51zM56 116h4v1H56zM61 116h4v1H61zM66 116h4v1H66zM71 116h4v1H71zM76 116h4v1H76zM81 116h4v1H81zM86 116h4v1H86zM91 116h4v1H91zM96 116h4v1H96zM101 116h4v1H101zM106 116h4v1H106zM111 116h4v1H111zM116 116h4v1H116zM121 116h4v1H121zM126 116h4v1H126zM131 116h4v1H131zM136 116h4v1H136zM141 116h4v1H141zM146 116h4v1H146zM151 116h4v1H151zM156 116h4v1H156zM161 116h4v1H161zM166 116h4v1H166zM171 116h4v1H171zM176 116h4v1H176zM181 116h4v1H181zM186 116h4v1H186zM191 116h4v1H191zM196 116h4v1H196zM201 116h4v1H201zM206 116h4v1H206zM211 116h4v1H211zM216 116h4v1H216zM221 116h4v1H221zM226 116h4v1H226zM231 116h4v1H231zM258 116h2v1H258zM266 116h4v1H266zM274 116h2v1H274zM280 116h6v1H280zM6 117h4v1H6zM11 117h4v1H11zM16 117h4v1H16zM21 117h4v1H21zM26 117h4v1H26zM31 117h4v1H31zM36 117h4v1H36zM41 117h4v1H41zM46 117h4v1H46zM51 117h4v1H51zM56 117h4v1H56zM61 117h4v1H61zM66 117h4v1H66zM71 117h4v1H71zM76 117h4v1H76zM81 117h4v1H81zM86 117h4v1H86zM91 117h4v1H91zM96 117h4v1H96zM101 117h4v1H101zM106 117h4v1H106zM111 117h4v1H111zM116 117h4v1H116zM121 117h4v1H121zM126 117h4v1H126zM131 117h4v1H131zM136 117h4v1H136zM141 117h4v1H141zM146 117h4v1H146zM151 117h4v1H151zM156 117h4v1H156zM161 117h4v1H161zM166 117h4v1H166zM171 117h4v1H171zM176 117h4v1H176zM181 117h4v1H181zM186 117h4v1H186zM191 117h4v1H191zM196 117h4v1H196zM201 117h4v1H201zM206 117h4v1H206zM211 117h4v1H211zM216 117h4v1H216zM221 117h4v1H221zM226 117h4v1H226zM231 117h4v1H231zM258 117h2v1H258zM266 117h4v1H266zM274 117h2v1H274zM280 117h6v1H280zM6 118h4v1H6zM11 118h4v1H11zM16 118h4v1H16zM21 118h4v1H21zM26 118h4v1H26zM31 118h4v1H31zM36 118h4v1H36zM41 118h4v1H41zM46 118h4v1H46zM51 118h4v1H51zM56 118h4v1H56zM61 118h4v1H61zM66 118h4v1H66zM71 118h4v1H71zM76 118h4v1H76zM81 118h4v1H81zM86 118h4v1H86zM91 118h4v1H91zM96 118h4v1H96zM101 118h4v1H101zM106 118h4v1H106zM111 118h4v1H111zM116 118h4v1H116zM121 118h4v1H121zM126 118h4v1H126zM131 118h4v1H131zM136 118h4v1H136zM141 118h4v1H141zM146 118h4v1H146zM151 118h4v1H151zM156 118h4v1H156zM161 118h4v1H161zM166 118h4v1H166zM171 118h4v1H171zM176 118h4v1H176zM181 118h4v1H181zM186 118h4v1H186zM191 118h4v1H191zM196 118h4v1H196zM201 118h4v1H201zM206 118h4v1H206zM211 118h4v1H211zM216 118h4v1H216zM221 118h4v1H221zM226 118h4v1H226zM231 118h4v1H231zM258 118h2v1H258zM266 118h2v1H266zM274 118h2v1H274zM286 118h2v1H286zM258 119h2v1H258zM266 119h2v1H266zM274 119h2v1H274zM286 119h2v1H286zM256 120h6v1H256zM268 120h6v1H268zM278 120h8v1H278zM256 121h6v1H256zM268 121h6v1H268zM278 121h8v1H278z"/>
</g>
</svg>
